%TF.GenerationSoftware,tscircuit,circuit-json-to-gerber,0.0.77*%
%TF.CreationDate,2026-10-09T14:43:11.313Z*%
%TF.SameCoordinates,Original*%
%TF.FileFunction,Soldermask,Top*%
%TF.FilePolarity,Negative*%
%FSLAX46Y46*%
%MOMM*%
G04 Gerber Fmt 4.6, Leading zero omitted, Abs format (unit mm)*
G04 Created by tscircuit (builder) date 2026-10-09T14:43:11.313Z*
G01*
%LPD*%
G75*
G04 APERTURE MACROS START*
%AMHORZPILL*
0 Horizontal pill (stadium) shape macro*
0 Parameters:*
0 $1 = Total width*
0 $2 = Total height*
0 $3 = Circle diameter (equal to height)*
0 $4 = Circle center offset
0 21 = Center Line(Exposure, Width, Height, Center X, Center Y, Rotation)*
0 1 = Circle(Exposure, Diameter, Center X, Center Y, Rotation)*
21,1,$1-$3,$2,0.0,0.0,0.0*
1,1,$3,0.0-$4,0.0*
1,1,$3,$4,0.0*%
%AMVERTPILL*
0 Vertical pill (stadium) shape macro*
0 Parameters:*
0 $1 = Total width*
0 $2 = Total height*
0 $3 = Circle diameter (equal to width)*
0 $4 = Circle center offset
0 21 = Center Line(Exposure, Width, Height, Center X, Center Y, Rotation)*
21,1,$1,$2-$3,0.0,0.0,0.0*
1,1,$3,0.0,0.0-$4*
1,1,$3,0.0,$4*%
%AMROUNDRECT*
0 Rectangle with rounded corners*
0 $1 Corner radius*
0 $2 $3 $4 $5 $6 $7 $8 $9 X,Y Position of each corner*
0 Polygon box body*
4,1,4,$2,$3,$4,$5,$6,$7,$8,$9,$2,$3,0*
0 Circles for rounded corners*
1,1,$1+$1,$2,$3*
1,1,$1+$1,$4,$5*
1,1,$1+$1,$6,$7*
1,1,$1+$1,$8,$9*
0 Rectangles between the rounded corners*
20,1,$1+$1,$2,$3,$4,$5,0*
20,1,$1+$1,$4,$5,$6,$7,0*
20,1,$1+$1,$6,$7,$8,$9,0*
20,1,$1+$1,$8,$9,$2,$3,0*%
G04 APERTURE MACROS END*
G04 aperture START LIST*
%ADD10C,0.220000*%
%ADD11C,0.150000*%
%ADD12C,0.160000*%
%ADD13C,0.100000*%
%ADD14C,4.800000*%
%ADD15C,1.750000*%
%ADD16C,1.800000*%
%ADD17C,2.000000*%
%ADD18C,2.400000*%
%ADD19R,0.600000X0.900000*%
%ADD20R,0.420000X0.630000*%
%ADD21R,0.800000X0.900000*%
%ADD22R,0.560000X0.630000*%
%ADD23R,0.700000X0.900000*%
%ADD24R,0.490000X0.630000*%
%ADD25R,1.100000X1.200000*%
%ADD26R,0.770000X0.840000*%
%ADD27C,0.081250*%
%ADD28C,0.068750*%
%ADD29C,0.060000*%
%ADD30C,0.075000*%
%ADD31C,0.056250*%
%ADD32C,0.062500*%
%ADD33C,0.052500*%
%ADD34C,0.093750*%
%ADD35C,0.280000*%
%ADD36C,0.450000*%
%TD*%
G04 aperture END LIST*
D14*
X-15500000Y015500000D03*
D14*
X015500000Y015500000D03*
D14*
X-15500000Y-15500000D03*
D14*
X015500000Y-15500000D03*
D15*
X-11390000Y010390000D03*
D15*
X-11390000Y007850000D03*
D15*
X-11390000Y005310000D03*
D15*
X-11390000Y002770000D03*
D15*
X-11390000Y000230000D03*
D15*
X-11390000Y-02310000D03*
D15*
X-11390000Y-04850000D03*
D15*
X-11390000Y-07390000D03*
D15*
X006390000Y010390000D03*
D15*
X006390000Y007850000D03*
D15*
X006390000Y005310000D03*
D15*
X006390000Y002770000D03*
D15*
X006390000Y000230000D03*
D15*
X006390000Y-02310000D03*
D15*
X006390000Y-04850000D03*
D15*
X006390000Y-07390000D03*
D16*
X009000000Y010390000D03*
D16*
X009000000Y007850000D03*
D16*
X009000000Y005310000D03*
D16*
X009000000Y002770000D03*
D16*
X009000000Y000230000D03*
D16*
X009000000Y-02310000D03*
D16*
X009000000Y-04850000D03*
D16*
X009000000Y-07390000D03*
D17*
X-02540000Y015500000D03*
D17*
X000000000Y015500000D03*
D17*
X002540000Y015500000D03*
D17*
X015500000Y003960000D03*
D17*
X015500000Y006500000D03*
D17*
X015500000Y009040000D03*
D17*
X-15500000Y003960000D03*
D17*
X-15500000Y006500000D03*
D17*
X-15500000Y009040000D03*
D17*
X-15500000Y-01230000D03*
D17*
X-15500000Y-03770000D03*
D17*
X015500000Y-01230000D03*
D17*
X015500000Y-03770000D03*
D16*
X-11040000Y-13500000D03*
D16*
X-08500000Y-13500000D03*
D16*
X-05960000Y-13500000D03*
D16*
X003190000Y-08960000D03*
D16*
X003190000Y-11500000D03*
D16*
X003190000Y-14040000D03*
D16*
X010810000Y-08960000D03*
D16*
X010810000Y-11500000D03*
D16*
X010810000Y-14040000D03*
D17*
X014800000Y-11270000D03*
D17*
X014800000Y-08730000D03*
D18*
X-01800000Y-16000000D03*
D18*
X001800000Y-16000000D03*
D19*
X-08450000Y013300000D03*
D19*
X-07500000Y013300000D03*
D19*
X-06550000Y013300000D03*
D19*
X-06550000Y015900000D03*
D19*
X-08450000Y015900000D03*
D21*
X-11000000Y014600000D03*
D21*
X-09400000Y014600000D03*
D21*
X-08300000Y017100000D03*
D21*
X-06700000Y017100000D03*
D21*
X-08300000Y011800000D03*
D21*
X-06700000Y011800000D03*
D23*
X004250000Y012500000D03*
D23*
X006150000Y012500000D03*
D23*
X005200000Y014500000D03*
D25*
X008150000Y013500000D03*
D25*
X011450000Y013500000D03*
D21*
X004400000Y016500000D03*
D21*
X006000000Y016500000D03*
D23*
X-16450000Y-08000000D03*
D23*
X-14550000Y-08000000D03*
D23*
X-15500000Y-06000000D03*
D21*
X-16300000Y-10000000D03*
D21*
X-14700000Y-10000000D03*
D25*
X017150000Y-06000000D03*
D25*
X013850000Y-06000000D03*
D23*
X-05450000Y-08500000D03*
D23*
X-03550000Y-08500000D03*
D23*
X-04500000Y-06500000D03*
D23*
X-00950000Y-08500000D03*
D23*
X000950000Y-08500000D03*
D23*
X000000000Y-06500000D03*
D21*
X-05300000Y-04500000D03*
D21*
X-03700000Y-04500000D03*
D21*
X-00800000Y-04500000D03*
D21*
X000800000Y-04500000D03*
M02*