M48
; DRILL file {tscircuit} date 2026-10-09T14:43:11.365Z
; FORMAT={-:-/ absolute / metric / decimal}
; #@! TF.CreationDate,2026-10-09T14:43:11.365Z
; #@! TF.GenerationSoftware,tscircuit
; #@! TF.FileFunction,Plated,1,2,PTH
FMAT,2
METRIC
; #@! TA.AperFunction,Plated,PTH,ComponentDrill
T10C3.200000
; #@! TA.AperFunction,Plated,PTH,ComponentDrill
T11C0.950000
; #@! TA.AperFunction,Plated,PTH,ComponentDrill
T12C1.000000
; #@! TA.AperFunction,Plated,PTH,ComponentDrill
T13C1.200000
; #@! TA.AperFunction,Plated,PTH,ComponentDrill
T14C0.200000
%
G90
G05
T10
X-15.5000Y15.5000
X15.5000Y15.5000
X-15.5000Y-15.5000
X15.5000Y-15.5000
T11
X-11.3900Y10.3900
X-11.3900Y7.8500
X-11.3900Y5.3100
X-11.3900Y2.7700
X-11.3900Y0.2300
X-11.3900Y-2.3100
X-11.3900Y-4.8500
X-11.3900Y-7.3900
X6.3900Y10.3900
X6.3900Y7.8500
X6.3900Y5.3100
X6.3900Y2.7700
X6.3900Y0.2300
X6.3900Y-2.3100
X6.3900Y-4.8500
X6.3900Y-7.3900
T12
X9.0000Y10.3900
X9.0000Y7.8500
X9.0000Y5.3100
X9.0000Y2.7700
X9.0000Y0.2300
X9.0000Y-2.3100
X9.0000Y-4.8500
X9.0000Y-7.3900
X-2.5400Y15.5000
X0.0000Y15.5000
X2.5400Y15.5000
X15.5000Y3.9600
X15.5000Y6.5000
X15.5000Y9.0400
X-15.5000Y3.9600
X-15.5000Y6.5000
X-15.5000Y9.0400
X-15.5000Y-1.2300
X-15.5000Y-3.7700
X15.5000Y-1.2300
X15.5000Y-3.7700
X-11.0400Y-13.5000
X-8.5000Y-13.5000
X-5.9600Y-13.5000
X3.1900Y-8.9600
X3.1900Y-11.5000
X3.1900Y-14.0400
X10.8100Y-8.9600
X10.8100Y-11.5000
X10.8100Y-14.0400
X14.8000Y-11.2700
X14.8000Y-8.7300
T13
X-1.8000Y-16.0000
X1.8000Y-16.0000
T14
X17.0590Y-0.2060
X10.6300Y11.7380
X4.6047Y14.3860
X-7.6820Y9.3440
X-7.9837Y10.8029
X-8.5390Y-6.9900
X-8.7082Y-5.0001
X-9.1380Y-0.3130
X-7.9340Y5.4259
X-8.5761Y10.5017
X-7.3357Y10.9511
X-11.7400Y14.4549
X-5.5750Y17.4268
X6.6300Y16.7670
X-6.7085Y10.3778
X-7.1430Y4.6090
X-7.8480Y0.7690
X-7.0680Y-3.6140
X-3.0371Y-9.5856
X0.1570Y17.2960
X-7.4400Y17.2795
X-7.5260Y10.0620
X-6.5730Y15.0380
X-13.4800Y-1.3160
X12.9890Y-0.1210
X12.5810Y12.5200
X-14.1420Y2.1030
X-14.0360Y5.6730
X6.7891Y-10.1477
X7.1790Y-8.6733
X-16.9260Y-3.5940
X-17.1020Y1.4940
X7.7510Y17.7520
X4.6263Y4.1407
X-2.6610Y-5.6030
X-2.7020Y-7.2480
X2.7900Y-1.0860
X-5.3990Y-16.3940
X-3.9070Y-6.5930
X-5.9423Y12.1047
X-5.1680Y12.4980
X-0.2860Y1.5965
X0.8695Y0.5916
X13.1578Y4.5936
X5.8710Y-12.6150
X5.7150Y-10.1140
X-0.2430Y-11.1480
X0.2420Y-9.5540
X3.0500Y2.0060
X-14.2270Y-7.0810
X-11.2010Y-12.1860
X-11.3652Y-10.0183
X-12.6140Y0.4960
X-12.5267Y3.8620
X1.3630Y8.6020
X3.2755Y10.0360
X0.4930Y-13.9240
X4.7820Y-11.8220
X7.0980Y-11.7010
X10.9920Y6.3600
X-7.7838Y-1.2898
X3.3220Y2.8490
M30