solid elektron_master_slipon
facet normal 0.9946 0.0980 0.0337
  outer loop
    vertex 10.1500 0.0000 0.0000
    vertex 9.9550 1.9802 0.0000
    vertex 9.4572 1.8812 15.0000
  endloop
endfacet
facet normal 0.9946 0.0980 0.0337
  outer loop
    vertex 10.1500 0.0000 0.0000
    vertex 9.4572 1.8812 15.0000
    vertex 9.6425 0.0000 15.0000
  endloop
endfacet
facet normal 0.9564 0.2901 0.0337
  outer loop
    vertex 9.9550 1.9802 0.0000
    vertex 9.3774 3.8842 0.0000
    vertex 8.9085 3.6900 15.0000
  endloop
endfacet
facet normal 0.9564 0.2901 0.0337
  outer loop
    vertex 9.9550 1.9802 0.0000
    vertex 8.9085 3.6900 15.0000
    vertex 9.4572 1.8812 15.0000
  endloop
endfacet
facet normal 0.8814 0.4711 0.0337
  outer loop
    vertex 9.3774 3.8842 0.0000
    vertex 8.4394 5.6390 0.0000
    vertex 8.0174 5.3571 15.0000
  endloop
endfacet
facet normal 0.8814 0.4711 0.0337
  outer loop
    vertex 9.3774 3.8842 0.0000
    vertex 8.0174 5.3571 15.0000
    vertex 8.9085 3.6900 15.0000
  endloop
endfacet
facet normal 0.7726 0.6340 0.0337
  outer loop
    vertex 8.4394 5.6390 0.0000
    vertex 7.1771 7.1771 0.0000
    vertex 6.8183 6.8183 15.0000
  endloop
endfacet
facet normal 0.7726 0.6340 0.0337
  outer loop
    vertex 8.4394 5.6390 0.0000
    vertex 6.8183 6.8183 15.0000
    vertex 8.0174 5.3571 15.0000
  endloop
endfacet
facet normal 0.6340 0.7726 0.0337
  outer loop
    vertex 7.1771 7.1771 0.0000
    vertex 5.6390 8.4394 0.0000
    vertex 5.3571 8.0174 15.0000
  endloop
endfacet
facet normal 0.6340 0.7726 0.0337
  outer loop
    vertex 7.1771 7.1771 0.0000
    vertex 5.3571 8.0174 15.0000
    vertex 6.8183 6.8183 15.0000
  endloop
endfacet
facet normal 0.4711 0.8814 0.0337
  outer loop
    vertex 5.6390 8.4394 0.0000
    vertex 3.8842 9.3774 0.0000
    vertex 3.6900 8.9085 15.0000
  endloop
endfacet
facet normal 0.4711 0.8814 0.0337
  outer loop
    vertex 5.6390 8.4394 0.0000
    vertex 3.6900 8.9085 15.0000
    vertex 5.3571 8.0174 15.0000
  endloop
endfacet
facet normal 0.2901 0.9564 0.0337
  outer loop
    vertex 3.8842 9.3774 0.0000
    vertex 1.9802 9.9550 0.0000
    vertex 1.8812 9.4572 15.0000
  endloop
endfacet
facet normal 0.2901 0.9564 0.0337
  outer loop
    vertex 3.8842 9.3774 0.0000
    vertex 1.8812 9.4572 15.0000
    vertex 3.6900 8.9085 15.0000
  endloop
endfacet
facet normal 0.0980 0.9946 0.0337
  outer loop
    vertex 1.9802 9.9550 0.0000
    vertex 0.0000 10.1500 0.0000
    vertex 0.0000 9.6425 15.0000
  endloop
endfacet
facet normal 0.0980 0.9946 0.0337
  outer loop
    vertex 1.9802 9.9550 0.0000
    vertex 0.0000 9.6425 15.0000
    vertex 1.8812 9.4572 15.0000
  endloop
endfacet
facet normal -0.0980 0.9946 0.0337
  outer loop
    vertex 0.0000 10.1500 0.0000
    vertex -1.9802 9.9550 0.0000
    vertex -1.8812 9.4572 15.0000
  endloop
endfacet
facet normal -0.0980 0.9946 0.0337
  outer loop
    vertex 0.0000 10.1500 0.0000
    vertex -1.8812 9.4572 15.0000
    vertex 0.0000 9.6425 15.0000
  endloop
endfacet
facet normal -0.2901 0.9564 0.0337
  outer loop
    vertex -1.9802 9.9550 0.0000
    vertex -3.8842 9.3774 0.0000
    vertex -3.6900 8.9085 15.0000
  endloop
endfacet
facet normal -0.2901 0.9564 0.0337
  outer loop
    vertex -1.9802 9.9550 0.0000
    vertex -3.6900 8.9085 15.0000
    vertex -1.8812 9.4572 15.0000
  endloop
endfacet
facet normal -0.4711 0.8814 0.0337
  outer loop
    vertex -3.8842 9.3774 0.0000
    vertex -5.6390 8.4394 0.0000
    vertex -5.3571 8.0174 15.0000
  endloop
endfacet
facet normal -0.4711 0.8814 0.0337
  outer loop
    vertex -3.8842 9.3774 0.0000
    vertex -5.3571 8.0174 15.0000
    vertex -3.6900 8.9085 15.0000
  endloop
endfacet
facet normal -0.6340 0.7726 0.0337
  outer loop
    vertex -5.6390 8.4394 0.0000
    vertex -7.1771 7.1771 0.0000
    vertex -6.8183 6.8183 15.0000
  endloop
endfacet
facet normal -0.6340 0.7726 0.0337
  outer loop
    vertex -5.6390 8.4394 0.0000
    vertex -6.8183 6.8183 15.0000
    vertex -5.3571 8.0174 15.0000
  endloop
endfacet
facet normal -0.7726 0.6340 0.0337
  outer loop
    vertex -7.1771 7.1771 0.0000
    vertex -8.4394 5.6390 0.0000
    vertex -8.0174 5.3571 15.0000
  endloop
endfacet
facet normal -0.7726 0.6340 0.0337
  outer loop
    vertex -7.1771 7.1771 0.0000
    vertex -8.0174 5.3571 15.0000
    vertex -6.8183 6.8183 15.0000
  endloop
endfacet
facet normal -0.8814 0.4711 0.0337
  outer loop
    vertex -8.4394 5.6390 0.0000
    vertex -9.3774 3.8842 0.0000
    vertex -8.9085 3.6900 15.0000
  endloop
endfacet
facet normal -0.8814 0.4711 0.0337
  outer loop
    vertex -8.4394 5.6390 0.0000
    vertex -8.9085 3.6900 15.0000
    vertex -8.0174 5.3571 15.0000
  endloop
endfacet
facet normal -0.9564 0.2901 0.0337
  outer loop
    vertex -9.3774 3.8842 0.0000
    vertex -9.9550 1.9802 0.0000
    vertex -9.4572 1.8812 15.0000
  endloop
endfacet
facet normal -0.9564 0.2901 0.0337
  outer loop
    vertex -9.3774 3.8842 0.0000
    vertex -9.4572 1.8812 15.0000
    vertex -8.9085 3.6900 15.0000
  endloop
endfacet
facet normal -0.9946 0.0980 0.0337
  outer loop
    vertex -9.9550 1.9802 0.0000
    vertex -10.1500 0.0000 0.0000
    vertex -9.6425 0.0000 15.0000
  endloop
endfacet
facet normal -0.9946 0.0980 0.0337
  outer loop
    vertex -9.9550 1.9802 0.0000
    vertex -9.6425 0.0000 15.0000
    vertex -9.4572 1.8812 15.0000
  endloop
endfacet
facet normal -0.9946 -0.0980 0.0337
  outer loop
    vertex -10.1500 0.0000 0.0000
    vertex -9.9550 -1.9802 0.0000
    vertex -9.4572 -1.8812 15.0000
  endloop
endfacet
facet normal -0.9946 -0.0980 0.0337
  outer loop
    vertex -10.1500 0.0000 0.0000
    vertex -9.4572 -1.8812 15.0000
    vertex -9.6425 0.0000 15.0000
  endloop
endfacet
facet normal -0.9564 -0.2901 0.0337
  outer loop
    vertex -9.9550 -1.9802 0.0000
    vertex -9.3774 -3.8842 0.0000
    vertex -8.9085 -3.6900 15.0000
  endloop
endfacet
facet normal -0.9564 -0.2901 0.0337
  outer loop
    vertex -9.9550 -1.9802 0.0000
    vertex -8.9085 -3.6900 15.0000
    vertex -9.4572 -1.8812 15.0000
  endloop
endfacet
facet normal -0.8814 -0.4711 0.0337
  outer loop
    vertex -9.3774 -3.8842 0.0000
    vertex -8.4394 -5.6390 0.0000
    vertex -8.0174 -5.3571 15.0000
  endloop
endfacet
facet normal -0.8814 -0.4711 0.0337
  outer loop
    vertex -9.3774 -3.8842 0.0000
    vertex -8.0174 -5.3571 15.0000
    vertex -8.9085 -3.6900 15.0000
  endloop
endfacet
facet normal -0.7726 -0.6340 0.0337
  outer loop
    vertex -8.4394 -5.6390 0.0000
    vertex -7.1771 -7.1771 0.0000
    vertex -6.8183 -6.8183 15.0000
  endloop
endfacet
facet normal -0.7726 -0.6340 0.0337
  outer loop
    vertex -8.4394 -5.6390 0.0000
    vertex -6.8183 -6.8183 15.0000
    vertex -8.0174 -5.3571 15.0000
  endloop
endfacet
facet normal -0.6340 -0.7726 0.0337
  outer loop
    vertex -7.1771 -7.1771 0.0000
    vertex -5.6390 -8.4394 0.0000
    vertex -5.3571 -8.0174 15.0000
  endloop
endfacet
facet normal -0.6340 -0.7726 0.0337
  outer loop
    vertex -7.1771 -7.1771 0.0000
    vertex -5.3571 -8.0174 15.0000
    vertex -6.8183 -6.8183 15.0000
  endloop
endfacet
facet normal -0.4711 -0.8814 0.0337
  outer loop
    vertex -5.6390 -8.4394 0.0000
    vertex -3.8842 -9.3774 0.0000
    vertex -3.6900 -8.9085 15.0000
  endloop
endfacet
facet normal -0.4711 -0.8814 0.0337
  outer loop
    vertex -5.6390 -8.4394 0.0000
    vertex -3.6900 -8.9085 15.0000
    vertex -5.3571 -8.0174 15.0000
  endloop
endfacet
facet normal -0.2901 -0.9564 0.0337
  outer loop
    vertex -3.8842 -9.3774 0.0000
    vertex -1.9802 -9.9550 0.0000
    vertex -1.8812 -9.4572 15.0000
  endloop
endfacet
facet normal -0.2901 -0.9564 0.0337
  outer loop
    vertex -3.8842 -9.3774 0.0000
    vertex -1.8812 -9.4572 15.0000
    vertex -3.6900 -8.9085 15.0000
  endloop
endfacet
facet normal -0.0980 -0.9946 0.0337
  outer loop
    vertex -1.9802 -9.9550 0.0000
    vertex -0.0000 -10.1500 0.0000
    vertex -0.0000 -9.6425 15.0000
  endloop
endfacet
facet normal -0.0980 -0.9946 0.0337
  outer loop
    vertex -1.9802 -9.9550 0.0000
    vertex -0.0000 -9.6425 15.0000
    vertex -1.8812 -9.4572 15.0000
  endloop
endfacet
facet normal 0.0980 -0.9946 0.0337
  outer loop
    vertex -0.0000 -10.1500 0.0000
    vertex 1.9802 -9.9550 0.0000
    vertex 1.8812 -9.4572 15.0000
  endloop
endfacet
facet normal 0.0980 -0.9946 0.0337
  outer loop
    vertex -0.0000 -10.1500 0.0000
    vertex 1.8812 -9.4572 15.0000
    vertex -0.0000 -9.6425 15.0000
  endloop
endfacet
facet normal 0.2901 -0.9564 0.0337
  outer loop
    vertex 1.9802 -9.9550 0.0000
    vertex 3.8842 -9.3774 0.0000
    vertex 3.6900 -8.9085 15.0000
  endloop
endfacet
facet normal 0.2901 -0.9564 0.0337
  outer loop
    vertex 1.9802 -9.9550 0.0000
    vertex 3.6900 -8.9085 15.0000
    vertex 1.8812 -9.4572 15.0000
  endloop
endfacet
facet normal 0.4711 -0.8814 0.0337
  outer loop
    vertex 3.8842 -9.3774 0.0000
    vertex 5.6390 -8.4394 0.0000
    vertex 5.3571 -8.0174 15.0000
  endloop
endfacet
facet normal 0.4711 -0.8814 0.0337
  outer loop
    vertex 3.8842 -9.3774 0.0000
    vertex 5.3571 -8.0174 15.0000
    vertex 3.6900 -8.9085 15.0000
  endloop
endfacet
facet normal 0.6340 -0.7726 0.0337
  outer loop
    vertex 5.6390 -8.4394 0.0000
    vertex 7.1771 -7.1771 0.0000
    vertex 6.8183 -6.8183 15.0000
  endloop
endfacet
facet normal 0.6340 -0.7726 0.0337
  outer loop
    vertex 5.6390 -8.4394 0.0000
    vertex 6.8183 -6.8183 15.0000
    vertex 5.3571 -8.0174 15.0000
  endloop
endfacet
facet normal 0.7726 -0.6340 0.0337
  outer loop
    vertex 7.1771 -7.1771 0.0000
    vertex 8.4394 -5.6390 0.0000
    vertex 8.0174 -5.3571 15.0000
  endloop
endfacet
facet normal 0.7726 -0.6340 0.0337
  outer loop
    vertex 7.1771 -7.1771 0.0000
    vertex 8.0174 -5.3571 15.0000
    vertex 6.8183 -6.8183 15.0000
  endloop
endfacet
facet normal 0.8814 -0.4711 0.0337
  outer loop
    vertex 8.4394 -5.6390 0.0000
    vertex 9.3774 -3.8842 0.0000
    vertex 8.9085 -3.6900 15.0000
  endloop
endfacet
facet normal 0.8814 -0.4711 0.0337
  outer loop
    vertex 8.4394 -5.6390 0.0000
    vertex 8.9085 -3.6900 15.0000
    vertex 8.0174 -5.3571 15.0000
  endloop
endfacet
facet normal 0.9564 -0.2901 0.0337
  outer loop
    vertex 9.3774 -3.8842 0.0000
    vertex 9.9550 -1.9802 0.0000
    vertex 9.4572 -1.8812 15.0000
  endloop
endfacet
facet normal 0.9564 -0.2901 0.0337
  outer loop
    vertex 9.3774 -3.8842 0.0000
    vertex 9.4572 -1.8812 15.0000
    vertex 8.9085 -3.6900 15.0000
  endloop
endfacet
facet normal 0.9946 -0.0980 0.0337
  outer loop
    vertex 9.9550 -1.9802 0.0000
    vertex 10.1500 0.0000 0.0000
    vertex 9.6425 0.0000 15.0000
  endloop
endfacet
facet normal 0.9946 -0.0980 0.0337
  outer loop
    vertex 9.9550 -1.9802 0.0000
    vertex 9.6425 0.0000 15.0000
    vertex 9.4572 -1.8812 15.0000
  endloop
endfacet
facet normal -0.9914 -0.1305 0.0000
  outer loop
    vertex 6.2302 1.6694 0.0000
    vertex 6.4500 0.0000 0.0000
    vertex 6.4500 0.0000 13.0000
  endloop
endfacet
facet normal -0.9914 -0.1305 0.0000
  outer loop
    vertex 6.2302 1.6694 0.0000
    vertex 6.4500 0.0000 13.0000
    vertex 6.2302 1.6694 13.0000
  endloop
endfacet
facet normal -0.9239 -0.3827 0.0000
  outer loop
    vertex 5.5859 3.2250 0.0000
    vertex 6.2302 1.6694 0.0000
    vertex 6.2302 1.6694 13.0000
  endloop
endfacet
facet normal -0.9239 -0.3827 0.0000
  outer loop
    vertex 5.5859 3.2250 0.0000
    vertex 6.2302 1.6694 13.0000
    vertex 5.5859 3.2250 13.0000
  endloop
endfacet
facet normal -0.7934 -0.6088 0.0000
  outer loop
    vertex 4.5608 4.5608 0.0000
    vertex 5.5859 3.2250 0.0000
    vertex 5.5859 3.2250 13.0000
  endloop
endfacet
facet normal -0.7934 -0.6088 0.0000
  outer loop
    vertex 4.5608 4.5608 0.0000
    vertex 5.5859 3.2250 13.0000
    vertex 4.5608 4.5608 13.0000
  endloop
endfacet
facet normal -0.6088 -0.7934 0.0000
  outer loop
    vertex 3.2250 5.5859 0.0000
    vertex 4.5608 4.5608 0.0000
    vertex 4.5608 4.5608 13.0000
  endloop
endfacet
facet normal -0.6088 -0.7934 0.0000
  outer loop
    vertex 3.2250 5.5859 0.0000
    vertex 4.5608 4.5608 13.0000
    vertex 3.2250 5.5859 13.0000
  endloop
endfacet
facet normal -0.3827 -0.9239 0.0000
  outer loop
    vertex 1.6694 6.2302 0.0000
    vertex 3.2250 5.5859 0.0000
    vertex 3.2250 5.5859 13.0000
  endloop
endfacet
facet normal -0.3827 -0.9239 0.0000
  outer loop
    vertex 1.6694 6.2302 0.0000
    vertex 3.2250 5.5859 13.0000
    vertex 1.6694 6.2302 13.0000
  endloop
endfacet
facet normal -0.1305 -0.9914 0.0000
  outer loop
    vertex 0.0000 6.4500 0.0000
    vertex 1.6694 6.2302 0.0000
    vertex 1.6694 6.2302 13.0000
  endloop
endfacet
facet normal -0.1305 -0.9914 0.0000
  outer loop
    vertex 0.0000 6.4500 0.0000
    vertex 1.6694 6.2302 13.0000
    vertex 0.0000 6.4500 13.0000
  endloop
endfacet
facet normal 0.1305 -0.9914 0.0000
  outer loop
    vertex -1.6694 6.2302 0.0000
    vertex 0.0000 6.4500 0.0000
    vertex 0.0000 6.4500 13.0000
  endloop
endfacet
facet normal 0.1305 -0.9914 0.0000
  outer loop
    vertex -1.6694 6.2302 0.0000
    vertex 0.0000 6.4500 13.0000
    vertex -1.6694 6.2302 13.0000
  endloop
endfacet
facet normal 0.3827 -0.9239 0.0000
  outer loop
    vertex -3.2250 5.5859 0.0000
    vertex -1.6694 6.2302 0.0000
    vertex -1.6694 6.2302 13.0000
  endloop
endfacet
facet normal 0.3827 -0.9239 0.0000
  outer loop
    vertex -3.2250 5.5859 0.0000
    vertex -1.6694 6.2302 13.0000
    vertex -3.2250 5.5859 13.0000
  endloop
endfacet
facet normal 0.6088 -0.7934 0.0000
  outer loop
    vertex -4.5608 4.5608 0.0000
    vertex -3.2250 5.5859 0.0000
    vertex -3.2250 5.5859 13.0000
  endloop
endfacet
facet normal 0.6088 -0.7934 0.0000
  outer loop
    vertex -4.5608 4.5608 0.0000
    vertex -3.2250 5.5859 13.0000
    vertex -4.5608 4.5608 13.0000
  endloop
endfacet
facet normal 0.7934 -0.6088 0.0000
  outer loop
    vertex -5.5859 3.2250 0.0000
    vertex -4.5608 4.5608 0.0000
    vertex -4.5608 4.5608 13.0000
  endloop
endfacet
facet normal 0.7934 -0.6088 0.0000
  outer loop
    vertex -5.5859 3.2250 0.0000
    vertex -4.5608 4.5608 13.0000
    vertex -5.5859 3.2250 13.0000
  endloop
endfacet
facet normal 0.9239 -0.3827 0.0000
  outer loop
    vertex -6.2302 1.6694 0.0000
    vertex -5.5859 3.2250 0.0000
    vertex -5.5859 3.2250 13.0000
  endloop
endfacet
facet normal 0.9239 -0.3827 0.0000
  outer loop
    vertex -6.2302 1.6694 0.0000
    vertex -5.5859 3.2250 13.0000
    vertex -6.2302 1.6694 13.0000
  endloop
endfacet
facet normal 0.9914 -0.1305 0.0000
  outer loop
    vertex -6.4500 0.0000 0.0000
    vertex -6.2302 1.6694 0.0000
    vertex -6.2302 1.6694 13.0000
  endloop
endfacet
facet normal 0.9914 -0.1305 0.0000
  outer loop
    vertex -6.4500 0.0000 0.0000
    vertex -6.2302 1.6694 13.0000
    vertex -6.4500 0.0000 13.0000
  endloop
endfacet
facet normal 0.9914 0.1305 0.0000
  outer loop
    vertex -6.2302 -1.6694 0.0000
    vertex -6.4500 0.0000 0.0000
    vertex -6.4500 0.0000 13.0000
  endloop
endfacet
facet normal 0.9914 0.1305 0.0000
  outer loop
    vertex -6.2302 -1.6694 0.0000
    vertex -6.4500 0.0000 13.0000
    vertex -6.2302 -1.6694 13.0000
  endloop
endfacet
facet normal 0.9239 0.3827 0.0000
  outer loop
    vertex -5.5859 -3.2250 0.0000
    vertex -6.2302 -1.6694 0.0000
    vertex -6.2302 -1.6694 13.0000
  endloop
endfacet
facet normal 0.9239 0.3827 0.0000
  outer loop
    vertex -5.5859 -3.2250 0.0000
    vertex -6.2302 -1.6694 13.0000
    vertex -5.5859 -3.2250 13.0000
  endloop
endfacet
facet normal 0.7934 0.6088 0.0000
  outer loop
    vertex -4.5608 -4.5608 0.0000
    vertex -5.5859 -3.2250 0.0000
    vertex -5.5859 -3.2250 13.0000
  endloop
endfacet
facet normal 0.7934 0.6088 0.0000
  outer loop
    vertex -4.5608 -4.5608 0.0000
    vertex -5.5859 -3.2250 13.0000
    vertex -4.5608 -4.5608 13.0000
  endloop
endfacet
facet normal 0.6088 0.7934 0.0000
  outer loop
    vertex -3.2250 -5.5859 0.0000
    vertex -4.5608 -4.5608 0.0000
    vertex -4.5608 -4.5608 13.0000
  endloop
endfacet
facet normal 0.6088 0.7934 0.0000
  outer loop
    vertex -3.2250 -5.5859 0.0000
    vertex -4.5608 -4.5608 13.0000
    vertex -3.2250 -5.5859 13.0000
  endloop
endfacet
facet normal 0.3827 0.9239 0.0000
  outer loop
    vertex -1.6694 -6.2302 0.0000
    vertex -3.2250 -5.5859 0.0000
    vertex -3.2250 -5.5859 13.0000
  endloop
endfacet
facet normal 0.3827 0.9239 0.0000
  outer loop
    vertex -1.6694 -6.2302 0.0000
    vertex -3.2250 -5.5859 13.0000
    vertex -1.6694 -6.2302 13.0000
  endloop
endfacet
facet normal 0.1305 0.9914 0.0000
  outer loop
    vertex -0.0000 -6.4500 0.0000
    vertex -1.6694 -6.2302 0.0000
    vertex -1.6694 -6.2302 13.0000
  endloop
endfacet
facet normal 0.1305 0.9914 0.0000
  outer loop
    vertex -0.0000 -6.4500 0.0000
    vertex -1.6694 -6.2302 13.0000
    vertex -0.0000 -6.4500 13.0000
  endloop
endfacet
facet normal -0.1305 0.9914 0.0000
  outer loop
    vertex 1.6694 -6.2302 0.0000
    vertex -0.0000 -6.4500 0.0000
    vertex -0.0000 -6.4500 13.0000
  endloop
endfacet
facet normal -0.1305 0.9914 0.0000
  outer loop
    vertex 1.6694 -6.2302 0.0000
    vertex -0.0000 -6.4500 13.0000
    vertex 1.6694 -6.2302 13.0000
  endloop
endfacet
facet normal -0.3827 0.9239 0.0000
  outer loop
    vertex 3.2250 -5.5859 0.0000
    vertex 1.6694 -6.2302 0.0000
    vertex 1.6694 -6.2302 13.0000
  endloop
endfacet
facet normal -0.3827 0.9239 0.0000
  outer loop
    vertex 3.2250 -5.5859 0.0000
    vertex 1.6694 -6.2302 13.0000
    vertex 3.2250 -5.5859 13.0000
  endloop
endfacet
facet normal -0.6088 0.7934 0.0000
  outer loop
    vertex 4.5608 -4.5608 0.0000
    vertex 3.2250 -5.5859 0.0000
    vertex 3.2250 -5.5859 13.0000
  endloop
endfacet
facet normal -0.6088 0.7934 0.0000
  outer loop
    vertex 4.5608 -4.5608 0.0000
    vertex 3.2250 -5.5859 13.0000
    vertex 4.5608 -4.5608 13.0000
  endloop
endfacet
facet normal -0.7934 0.6088 0.0000
  outer loop
    vertex 5.5859 -3.2250 0.0000
    vertex 4.5608 -4.5608 0.0000
    vertex 4.5608 -4.5608 13.0000
  endloop
endfacet
facet normal -0.7934 0.6088 0.0000
  outer loop
    vertex 5.5859 -3.2250 0.0000
    vertex 4.5608 -4.5608 13.0000
    vertex 5.5859 -3.2250 13.0000
  endloop
endfacet
facet normal -0.9239 0.3827 0.0000
  outer loop
    vertex 6.2302 -1.6694 0.0000
    vertex 5.5859 -3.2250 0.0000
    vertex 5.5859 -3.2250 13.0000
  endloop
endfacet
facet normal -0.9239 0.3827 0.0000
  outer loop
    vertex 6.2302 -1.6694 0.0000
    vertex 5.5859 -3.2250 13.0000
    vertex 6.2302 -1.6694 13.0000
  endloop
endfacet
facet normal -0.9914 0.1305 0.0000
  outer loop
    vertex 6.4500 0.0000 0.0000
    vertex 6.2302 -1.6694 0.0000
    vertex 6.2302 -1.6694 13.0000
  endloop
endfacet
facet normal -0.9914 0.1305 0.0000
  outer loop
    vertex 6.4500 0.0000 0.0000
    vertex 6.2302 -1.6694 13.0000
    vertex 6.4500 0.0000 13.0000
  endloop
endfacet
facet normal 0.0000 0.0000 1.0000
  outer loop
    vertex 9.6425 0.0000 15.0000
    vertex 9.4572 1.8812 15.0000
    vertex 0.0000 0.0000 15.0000
  endloop
endfacet
facet normal 0.0000 0.0000 1.0000
  outer loop
    vertex 9.4572 1.8812 15.0000
    vertex 8.9085 3.6900 15.0000
    vertex 0.0000 0.0000 15.0000
  endloop
endfacet
facet normal 0.0000 0.0000 1.0000
  outer loop
    vertex 8.9085 3.6900 15.0000
    vertex 8.0174 5.3571 15.0000
    vertex 0.0000 0.0000 15.0000
  endloop
endfacet
facet normal 0.0000 0.0000 1.0000
  outer loop
    vertex 8.0174 5.3571 15.0000
    vertex 6.8183 6.8183 15.0000
    vertex 0.0000 0.0000 15.0000
  endloop
endfacet
facet normal 0.0000 0.0000 1.0000
  outer loop
    vertex 6.8183 6.8183 15.0000
    vertex 5.3571 8.0174 15.0000
    vertex 0.0000 0.0000 15.0000
  endloop
endfacet
facet normal 0.0000 0.0000 1.0000
  outer loop
    vertex 5.3571 8.0174 15.0000
    vertex 3.6900 8.9085 15.0000
    vertex 0.0000 0.0000 15.0000
  endloop
endfacet
facet normal 0.0000 0.0000 1.0000
  outer loop
    vertex 3.6900 8.9085 15.0000
    vertex 1.8812 9.4572 15.0000
    vertex 0.0000 0.0000 15.0000
  endloop
endfacet
facet normal 0.0000 0.0000 1.0000
  outer loop
    vertex 1.8812 9.4572 15.0000
    vertex 0.0000 9.6425 15.0000
    vertex 0.0000 0.0000 15.0000
  endloop
endfacet
facet normal 0.0000 0.0000 1.0000
  outer loop
    vertex 0.0000 9.6425 15.0000
    vertex -1.8812 9.4572 15.0000
    vertex 0.0000 0.0000 15.0000
  endloop
endfacet
facet normal 0.0000 0.0000 1.0000
  outer loop
    vertex -1.8812 9.4572 15.0000
    vertex -3.6900 8.9085 15.0000
    vertex 0.0000 0.0000 15.0000
  endloop
endfacet
facet normal 0.0000 0.0000 1.0000
  outer loop
    vertex -3.6900 8.9085 15.0000
    vertex -5.3571 8.0174 15.0000
    vertex 0.0000 0.0000 15.0000
  endloop
endfacet
facet normal 0.0000 0.0000 1.0000
  outer loop
    vertex -5.3571 8.0174 15.0000
    vertex -6.8183 6.8183 15.0000
    vertex 0.0000 0.0000 15.0000
  endloop
endfacet
facet normal 0.0000 0.0000 1.0000
  outer loop
    vertex -6.8183 6.8183 15.0000
    vertex -8.0174 5.3571 15.0000
    vertex 0.0000 0.0000 15.0000
  endloop
endfacet
facet normal 0.0000 0.0000 1.0000
  outer loop
    vertex -8.0174 5.3571 15.0000
    vertex -8.9085 3.6900 15.0000
    vertex 0.0000 0.0000 15.0000
  endloop
endfacet
facet normal 0.0000 0.0000 1.0000
  outer loop
    vertex -8.9085 3.6900 15.0000
    vertex -9.4572 1.8812 15.0000
    vertex 0.0000 0.0000 15.0000
  endloop
endfacet
facet normal 0.0000 0.0000 1.0000
  outer loop
    vertex -9.4572 1.8812 15.0000
    vertex -9.6425 0.0000 15.0000
    vertex 0.0000 0.0000 15.0000
  endloop
endfacet
facet normal 0.0000 0.0000 1.0000
  outer loop
    vertex -9.6425 0.0000 15.0000
    vertex -9.4572 -1.8812 15.0000
    vertex 0.0000 0.0000 15.0000
  endloop
endfacet
facet normal 0.0000 0.0000 1.0000
  outer loop
    vertex -9.4572 -1.8812 15.0000
    vertex -8.9085 -3.6900 15.0000
    vertex 0.0000 0.0000 15.0000
  endloop
endfacet
facet normal 0.0000 0.0000 1.0000
  outer loop
    vertex -8.9085 -3.6900 15.0000
    vertex -8.0174 -5.3571 15.0000
    vertex 0.0000 0.0000 15.0000
  endloop
endfacet
facet normal 0.0000 0.0000 1.0000
  outer loop
    vertex -8.0174 -5.3571 15.0000
    vertex -6.8183 -6.8183 15.0000
    vertex 0.0000 0.0000 15.0000
  endloop
endfacet
facet normal 0.0000 0.0000 1.0000
  outer loop
    vertex -6.8183 -6.8183 15.0000
    vertex -5.3571 -8.0174 15.0000
    vertex 0.0000 0.0000 15.0000
  endloop
endfacet
facet normal 0.0000 0.0000 1.0000
  outer loop
    vertex -5.3571 -8.0174 15.0000
    vertex -3.6900 -8.9085 15.0000
    vertex 0.0000 0.0000 15.0000
  endloop
endfacet
facet normal 0.0000 0.0000 1.0000
  outer loop
    vertex -3.6900 -8.9085 15.0000
    vertex -1.8812 -9.4572 15.0000
    vertex 0.0000 0.0000 15.0000
  endloop
endfacet
facet normal 0.0000 0.0000 1.0000
  outer loop
    vertex -1.8812 -9.4572 15.0000
    vertex -0.0000 -9.6425 15.0000
    vertex 0.0000 0.0000 15.0000
  endloop
endfacet
facet normal 0.0000 0.0000 1.0000
  outer loop
    vertex -0.0000 -9.6425 15.0000
    vertex 1.8812 -9.4572 15.0000
    vertex 0.0000 0.0000 15.0000
  endloop
endfacet
facet normal 0.0000 0.0000 1.0000
  outer loop
    vertex 1.8812 -9.4572 15.0000
    vertex 3.6900 -8.9085 15.0000
    vertex 0.0000 0.0000 15.0000
  endloop
endfacet
facet normal 0.0000 0.0000 1.0000
  outer loop
    vertex 3.6900 -8.9085 15.0000
    vertex 5.3571 -8.0174 15.0000
    vertex 0.0000 0.0000 15.0000
  endloop
endfacet
facet normal 0.0000 0.0000 1.0000
  outer loop
    vertex 5.3571 -8.0174 15.0000
    vertex 6.8183 -6.8183 15.0000
    vertex 0.0000 0.0000 15.0000
  endloop
endfacet
facet normal 0.0000 0.0000 1.0000
  outer loop
    vertex 6.8183 -6.8183 15.0000
    vertex 8.0174 -5.3571 15.0000
    vertex 0.0000 0.0000 15.0000
  endloop
endfacet
facet normal 0.0000 0.0000 1.0000
  outer loop
    vertex 8.0174 -5.3571 15.0000
    vertex 8.9085 -3.6900 15.0000
    vertex 0.0000 0.0000 15.0000
  endloop
endfacet
facet normal 0.0000 0.0000 1.0000
  outer loop
    vertex 8.9085 -3.6900 15.0000
    vertex 9.4572 -1.8812 15.0000
    vertex 0.0000 0.0000 15.0000
  endloop
endfacet
facet normal 0.0000 0.0000 1.0000
  outer loop
    vertex 9.4572 -1.8812 15.0000
    vertex 9.6425 0.0000 15.0000
    vertex 0.0000 0.0000 15.0000
  endloop
endfacet
facet normal 0.0000 0.0000 -1.0000
  outer loop
    vertex 6.2302 1.6694 13.0000
    vertex 6.4500 0.0000 13.0000
    vertex 0.0000 0.0000 13.0000
  endloop
endfacet
facet normal 0.0000 0.0000 -1.0000
  outer loop
    vertex 5.5859 3.2250 13.0000
    vertex 6.2302 1.6694 13.0000
    vertex 0.0000 0.0000 13.0000
  endloop
endfacet
facet normal 0.0000 0.0000 -1.0000
  outer loop
    vertex 4.5608 4.5608 13.0000
    vertex 5.5859 3.2250 13.0000
    vertex 0.0000 0.0000 13.0000
  endloop
endfacet
facet normal 0.0000 0.0000 -1.0000
  outer loop
    vertex 3.2250 5.5859 13.0000
    vertex 4.5608 4.5608 13.0000
    vertex 0.0000 0.0000 13.0000
  endloop
endfacet
facet normal 0.0000 0.0000 -1.0000
  outer loop
    vertex 1.6694 6.2302 13.0000
    vertex 3.2250 5.5859 13.0000
    vertex 0.0000 0.0000 13.0000
  endloop
endfacet
facet normal 0.0000 0.0000 -1.0000
  outer loop
    vertex 0.0000 6.4500 13.0000
    vertex 1.6694 6.2302 13.0000
    vertex 0.0000 0.0000 13.0000
  endloop
endfacet
facet normal 0.0000 0.0000 -1.0000
  outer loop
    vertex -1.6694 6.2302 13.0000
    vertex 0.0000 6.4500 13.0000
    vertex 0.0000 0.0000 13.0000
  endloop
endfacet
facet normal 0.0000 0.0000 -1.0000
  outer loop
    vertex -3.2250 5.5859 13.0000
    vertex -1.6694 6.2302 13.0000
    vertex 0.0000 0.0000 13.0000
  endloop
endfacet
facet normal 0.0000 0.0000 -1.0000
  outer loop
    vertex -4.5608 4.5608 13.0000
    vertex -3.2250 5.5859 13.0000
    vertex 0.0000 0.0000 13.0000
  endloop
endfacet
facet normal 0.0000 0.0000 -1.0000
  outer loop
    vertex -5.5859 3.2250 13.0000
    vertex -4.5608 4.5608 13.0000
    vertex 0.0000 0.0000 13.0000
  endloop
endfacet
facet normal 0.0000 0.0000 -1.0000
  outer loop
    vertex -6.2302 1.6694 13.0000
    vertex -5.5859 3.2250 13.0000
    vertex 0.0000 0.0000 13.0000
  endloop
endfacet
facet normal 0.0000 0.0000 -1.0000
  outer loop
    vertex -6.4500 0.0000 13.0000
    vertex -6.2302 1.6694 13.0000
    vertex 0.0000 0.0000 13.0000
  endloop
endfacet
facet normal 0.0000 0.0000 -1.0000
  outer loop
    vertex -6.2302 -1.6694 13.0000
    vertex -6.4500 0.0000 13.0000
    vertex 0.0000 0.0000 13.0000
  endloop
endfacet
facet normal 0.0000 0.0000 -1.0000
  outer loop
    vertex -5.5859 -3.2250 13.0000
    vertex -6.2302 -1.6694 13.0000
    vertex 0.0000 0.0000 13.0000
  endloop
endfacet
facet normal 0.0000 0.0000 -1.0000
  outer loop
    vertex -4.5608 -4.5608 13.0000
    vertex -5.5859 -3.2250 13.0000
    vertex 0.0000 0.0000 13.0000
  endloop
endfacet
facet normal 0.0000 0.0000 -1.0000
  outer loop
    vertex -3.2250 -5.5859 13.0000
    vertex -4.5608 -4.5608 13.0000
    vertex 0.0000 0.0000 13.0000
  endloop
endfacet
facet normal 0.0000 0.0000 -1.0000
  outer loop
    vertex -1.6694 -6.2302 13.0000
    vertex -3.2250 -5.5859 13.0000
    vertex 0.0000 0.0000 13.0000
  endloop
endfacet
facet normal 0.0000 0.0000 -1.0000
  outer loop
    vertex -0.0000 -6.4500 13.0000
    vertex -1.6694 -6.2302 13.0000
    vertex 0.0000 0.0000 13.0000
  endloop
endfacet
facet normal 0.0000 0.0000 -1.0000
  outer loop
    vertex 1.6694 -6.2302 13.0000
    vertex -0.0000 -6.4500 13.0000
    vertex 0.0000 0.0000 13.0000
  endloop
endfacet
facet normal 0.0000 0.0000 -1.0000
  outer loop
    vertex 3.2250 -5.5859 13.0000
    vertex 1.6694 -6.2302 13.0000
    vertex 0.0000 0.0000 13.0000
  endloop
endfacet
facet normal 0.0000 0.0000 -1.0000
  outer loop
    vertex 4.5608 -4.5608 13.0000
    vertex 3.2250 -5.5859 13.0000
    vertex 0.0000 0.0000 13.0000
  endloop
endfacet
facet normal 0.0000 0.0000 -1.0000
  outer loop
    vertex 5.5859 -3.2250 13.0000
    vertex 4.5608 -4.5608 13.0000
    vertex 0.0000 0.0000 13.0000
  endloop
endfacet
facet normal 0.0000 0.0000 -1.0000
  outer loop
    vertex 6.2302 -1.6694 13.0000
    vertex 5.5859 -3.2250 13.0000
    vertex 0.0000 0.0000 13.0000
  endloop
endfacet
facet normal 0.0000 0.0000 -1.0000
  outer loop
    vertex 6.4500 0.0000 13.0000
    vertex 6.2302 -1.6694 13.0000
    vertex 0.0000 0.0000 13.0000
  endloop
endfacet
facet normal 0.0000 0.0000 -1.0000
  outer loop
    vertex 9.9550 1.9802 0.0000
    vertex 10.1500 0.0000 0.0000
    vertex 6.4500 0.0000 0.0000
  endloop
endfacet
facet normal 0.0000 0.0000 0.0000
  outer loop
    vertex 9.9550 1.9802 0.0000
    vertex 6.4500 0.0000 0.0000
    vertex 6.4500 0.0000 0.0000
  endloop
endfacet
facet normal 0.0000 0.0000 -1.0000
  outer loop
    vertex 9.3774 3.8842 0.0000
    vertex 9.9550 1.9802 0.0000
    vertex 6.4500 0.0000 0.0000
  endloop
endfacet
facet normal 0.0000 0.0000 -1.0000
  outer loop
    vertex 9.3774 3.8842 0.0000
    vertex 6.4500 0.0000 0.0000
    vertex 6.2302 1.6694 0.0000
  endloop
endfacet
facet normal 0.0000 0.0000 -1.0000
  outer loop
    vertex 8.4394 5.6390 0.0000
    vertex 9.3774 3.8842 0.0000
    vertex 6.2302 1.6694 0.0000
  endloop
endfacet
facet normal 0.0000 0.0000 -1.0000
  outer loop
    vertex 8.4394 5.6390 0.0000
    vertex 6.2302 1.6694 0.0000
    vertex 5.5859 3.2250 0.0000
  endloop
endfacet
facet normal 0.0000 0.0000 -1.0000
  outer loop
    vertex 7.1771 7.1771 0.0000
    vertex 8.4394 5.6390 0.0000
    vertex 5.5859 3.2250 0.0000
  endloop
endfacet
facet normal 0.0000 0.0000 -1.0000
  outer loop
    vertex 7.1771 7.1771 0.0000
    vertex 5.5859 3.2250 0.0000
    vertex 4.5608 4.5608 0.0000
  endloop
endfacet
facet normal 0.0000 0.0000 -1.0000
  outer loop
    vertex 5.6390 8.4394 0.0000
    vertex 7.1771 7.1771 0.0000
    vertex 4.5608 4.5608 0.0000
  endloop
endfacet
facet normal 0.0000 0.0000 0.0000
  outer loop
    vertex 5.6390 8.4394 0.0000
    vertex 4.5608 4.5608 0.0000
    vertex 4.5608 4.5608 0.0000
  endloop
endfacet
facet normal 0.0000 0.0000 -1.0000
  outer loop
    vertex 3.8842 9.3774 0.0000
    vertex 5.6390 8.4394 0.0000
    vertex 4.5608 4.5608 0.0000
  endloop
endfacet
facet normal 0.0000 0.0000 -1.0000
  outer loop
    vertex 3.8842 9.3774 0.0000
    vertex 4.5608 4.5608 0.0000
    vertex 3.2250 5.5859 0.0000
  endloop
endfacet
facet normal 0.0000 0.0000 -1.0000
  outer loop
    vertex 1.9802 9.9550 0.0000
    vertex 3.8842 9.3774 0.0000
    vertex 3.2250 5.5859 0.0000
  endloop
endfacet
facet normal 0.0000 0.0000 -1.0000
  outer loop
    vertex 1.9802 9.9550 0.0000
    vertex 3.2250 5.5859 0.0000
    vertex 1.6694 6.2302 0.0000
  endloop
endfacet
facet normal 0.0000 0.0000 -1.0000
  outer loop
    vertex 0.0000 10.1500 0.0000
    vertex 1.9802 9.9550 0.0000
    vertex 1.6694 6.2302 0.0000
  endloop
endfacet
facet normal 0.0000 0.0000 -1.0000
  outer loop
    vertex 0.0000 10.1500 0.0000
    vertex 1.6694 6.2302 0.0000
    vertex 0.0000 6.4500 0.0000
  endloop
endfacet
facet normal 0.0000 0.0000 -1.0000
  outer loop
    vertex -1.9802 9.9550 0.0000
    vertex 0.0000 10.1500 0.0000
    vertex 0.0000 6.4500 0.0000
  endloop
endfacet
facet normal 0.0000 0.0000 0.0000
  outer loop
    vertex -1.9802 9.9550 0.0000
    vertex 0.0000 6.4500 0.0000
    vertex 0.0000 6.4500 0.0000
  endloop
endfacet
facet normal 0.0000 0.0000 -1.0000
  outer loop
    vertex -3.8842 9.3774 0.0000
    vertex -1.9802 9.9550 0.0000
    vertex 0.0000 6.4500 0.0000
  endloop
endfacet
facet normal 0.0000 0.0000 -1.0000
  outer loop
    vertex -3.8842 9.3774 0.0000
    vertex 0.0000 6.4500 0.0000
    vertex -1.6694 6.2302 0.0000
  endloop
endfacet
facet normal 0.0000 0.0000 -1.0000
  outer loop
    vertex -5.6390 8.4394 0.0000
    vertex -3.8842 9.3774 0.0000
    vertex -1.6694 6.2302 0.0000
  endloop
endfacet
facet normal 0.0000 0.0000 -1.0000
  outer loop
    vertex -5.6390 8.4394 0.0000
    vertex -1.6694 6.2302 0.0000
    vertex -3.2250 5.5859 0.0000
  endloop
endfacet
facet normal 0.0000 0.0000 -1.0000
  outer loop
    vertex -7.1771 7.1771 0.0000
    vertex -5.6390 8.4394 0.0000
    vertex -3.2250 5.5859 0.0000
  endloop
endfacet
facet normal 0.0000 0.0000 -1.0000
  outer loop
    vertex -7.1771 7.1771 0.0000
    vertex -3.2250 5.5859 0.0000
    vertex -4.5608 4.5608 0.0000
  endloop
endfacet
facet normal 0.0000 0.0000 -1.0000
  outer loop
    vertex -8.4394 5.6390 0.0000
    vertex -7.1771 7.1771 0.0000
    vertex -4.5608 4.5608 0.0000
  endloop
endfacet
facet normal 0.0000 0.0000 0.0000
  outer loop
    vertex -8.4394 5.6390 0.0000
    vertex -4.5608 4.5608 0.0000
    vertex -4.5608 4.5608 0.0000
  endloop
endfacet
facet normal 0.0000 0.0000 -1.0000
  outer loop
    vertex -9.3774 3.8842 0.0000
    vertex -8.4394 5.6390 0.0000
    vertex -4.5608 4.5608 0.0000
  endloop
endfacet
facet normal 0.0000 0.0000 -1.0000
  outer loop
    vertex -9.3774 3.8842 0.0000
    vertex -4.5608 4.5608 0.0000
    vertex -5.5859 3.2250 0.0000
  endloop
endfacet
facet normal 0.0000 0.0000 -1.0000
  outer loop
    vertex -9.9550 1.9802 0.0000
    vertex -9.3774 3.8842 0.0000
    vertex -5.5859 3.2250 0.0000
  endloop
endfacet
facet normal 0.0000 0.0000 -1.0000
  outer loop
    vertex -9.9550 1.9802 0.0000
    vertex -5.5859 3.2250 0.0000
    vertex -6.2302 1.6694 0.0000
  endloop
endfacet
facet normal 0.0000 0.0000 -1.0000
  outer loop
    vertex -10.1500 0.0000 0.0000
    vertex -9.9550 1.9802 0.0000
    vertex -6.2302 1.6694 0.0000
  endloop
endfacet
facet normal 0.0000 0.0000 -1.0000
  outer loop
    vertex -10.1500 0.0000 0.0000
    vertex -6.2302 1.6694 0.0000
    vertex -6.4500 0.0000 0.0000
  endloop
endfacet
facet normal 0.0000 0.0000 -1.0000
  outer loop
    vertex -9.9550 -1.9802 0.0000
    vertex -10.1500 0.0000 0.0000
    vertex -6.4500 0.0000 0.0000
  endloop
endfacet
facet normal 0.0000 0.0000 0.0000
  outer loop
    vertex -9.9550 -1.9802 0.0000
    vertex -6.4500 0.0000 0.0000
    vertex -6.4500 0.0000 0.0000
  endloop
endfacet
facet normal 0.0000 0.0000 -1.0000
  outer loop
    vertex -9.3774 -3.8842 0.0000
    vertex -9.9550 -1.9802 0.0000
    vertex -6.4500 0.0000 0.0000
  endloop
endfacet
facet normal 0.0000 0.0000 -1.0000
  outer loop
    vertex -9.3774 -3.8842 0.0000
    vertex -6.4500 0.0000 0.0000
    vertex -6.2302 -1.6694 0.0000
  endloop
endfacet
facet normal 0.0000 0.0000 -1.0000
  outer loop
    vertex -8.4394 -5.6390 0.0000
    vertex -9.3774 -3.8842 0.0000
    vertex -6.2302 -1.6694 0.0000
  endloop
endfacet
facet normal 0.0000 0.0000 -1.0000
  outer loop
    vertex -8.4394 -5.6390 0.0000
    vertex -6.2302 -1.6694 0.0000
    vertex -5.5859 -3.2250 0.0000
  endloop
endfacet
facet normal 0.0000 0.0000 -1.0000
  outer loop
    vertex -7.1771 -7.1771 0.0000
    vertex -8.4394 -5.6390 0.0000
    vertex -5.5859 -3.2250 0.0000
  endloop
endfacet
facet normal 0.0000 0.0000 -1.0000
  outer loop
    vertex -7.1771 -7.1771 0.0000
    vertex -5.5859 -3.2250 0.0000
    vertex -4.5608 -4.5608 0.0000
  endloop
endfacet
facet normal 0.0000 0.0000 -1.0000
  outer loop
    vertex -5.6390 -8.4394 0.0000
    vertex -7.1771 -7.1771 0.0000
    vertex -4.5608 -4.5608 0.0000
  endloop
endfacet
facet normal 0.0000 0.0000 0.0000
  outer loop
    vertex -5.6390 -8.4394 0.0000
    vertex -4.5608 -4.5608 0.0000
    vertex -4.5608 -4.5608 0.0000
  endloop
endfacet
facet normal 0.0000 0.0000 -1.0000
  outer loop
    vertex -3.8842 -9.3774 0.0000
    vertex -5.6390 -8.4394 0.0000
    vertex -4.5608 -4.5608 0.0000
  endloop
endfacet
facet normal 0.0000 0.0000 -1.0000
  outer loop
    vertex -3.8842 -9.3774 0.0000
    vertex -4.5608 -4.5608 0.0000
    vertex -3.2250 -5.5859 0.0000
  endloop
endfacet
facet normal 0.0000 0.0000 -1.0000
  outer loop
    vertex -1.9802 -9.9550 0.0000
    vertex -3.8842 -9.3774 0.0000
    vertex -3.2250 -5.5859 0.0000
  endloop
endfacet
facet normal 0.0000 0.0000 -1.0000
  outer loop
    vertex -1.9802 -9.9550 0.0000
    vertex -3.2250 -5.5859 0.0000
    vertex -1.6694 -6.2302 0.0000
  endloop
endfacet
facet normal 0.0000 0.0000 -1.0000
  outer loop
    vertex -0.0000 -10.1500 0.0000
    vertex -1.9802 -9.9550 0.0000
    vertex -1.6694 -6.2302 0.0000
  endloop
endfacet
facet normal 0.0000 0.0000 -1.0000
  outer loop
    vertex -0.0000 -10.1500 0.0000
    vertex -1.6694 -6.2302 0.0000
    vertex -0.0000 -6.4500 0.0000
  endloop
endfacet
facet normal 0.0000 0.0000 -1.0000
  outer loop
    vertex 1.9802 -9.9550 0.0000
    vertex -0.0000 -10.1500 0.0000
    vertex -0.0000 -6.4500 0.0000
  endloop
endfacet
facet normal 0.0000 0.0000 0.0000
  outer loop
    vertex 1.9802 -9.9550 0.0000
    vertex -0.0000 -6.4500 0.0000
    vertex -0.0000 -6.4500 0.0000
  endloop
endfacet
facet normal 0.0000 0.0000 -1.0000
  outer loop
    vertex 3.8842 -9.3774 0.0000
    vertex 1.9802 -9.9550 0.0000
    vertex -0.0000 -6.4500 0.0000
  endloop
endfacet
facet normal 0.0000 0.0000 -1.0000
  outer loop
    vertex 3.8842 -9.3774 0.0000
    vertex -0.0000 -6.4500 0.0000
    vertex 1.6694 -6.2302 0.0000
  endloop
endfacet
facet normal 0.0000 0.0000 -1.0000
  outer loop
    vertex 5.6390 -8.4394 0.0000
    vertex 3.8842 -9.3774 0.0000
    vertex 1.6694 -6.2302 0.0000
  endloop
endfacet
facet normal 0.0000 0.0000 -1.0000
  outer loop
    vertex 5.6390 -8.4394 0.0000
    vertex 1.6694 -6.2302 0.0000
    vertex 3.2250 -5.5859 0.0000
  endloop
endfacet
facet normal 0.0000 0.0000 -1.0000
  outer loop
    vertex 7.1771 -7.1771 0.0000
    vertex 5.6390 -8.4394 0.0000
    vertex 3.2250 -5.5859 0.0000
  endloop
endfacet
facet normal 0.0000 0.0000 -1.0000
  outer loop
    vertex 7.1771 -7.1771 0.0000
    vertex 3.2250 -5.5859 0.0000
    vertex 4.5608 -4.5608 0.0000
  endloop
endfacet
facet normal 0.0000 0.0000 -1.0000
  outer loop
    vertex 8.4394 -5.6390 0.0000
    vertex 7.1771 -7.1771 0.0000
    vertex 4.5608 -4.5608 0.0000
  endloop
endfacet
facet normal 0.0000 0.0000 0.0000
  outer loop
    vertex 8.4394 -5.6390 0.0000
    vertex 4.5608 -4.5608 0.0000
    vertex 4.5608 -4.5608 0.0000
  endloop
endfacet
facet normal 0.0000 0.0000 -1.0000
  outer loop
    vertex 9.3774 -3.8842 0.0000
    vertex 8.4394 -5.6390 0.0000
    vertex 4.5608 -4.5608 0.0000
  endloop
endfacet
facet normal 0.0000 0.0000 -1.0000
  outer loop
    vertex 9.3774 -3.8842 0.0000
    vertex 4.5608 -4.5608 0.0000
    vertex 5.5859 -3.2250 0.0000
  endloop
endfacet
facet normal 0.0000 0.0000 -1.0000
  outer loop
    vertex 9.9550 -1.9802 0.0000
    vertex 9.3774 -3.8842 0.0000
    vertex 5.5859 -3.2250 0.0000
  endloop
endfacet
facet normal 0.0000 0.0000 -1.0000
  outer loop
    vertex 9.9550 -1.9802 0.0000
    vertex 5.5859 -3.2250 0.0000
    vertex 6.2302 -1.6694 0.0000
  endloop
endfacet
facet normal 0.0000 0.0000 -1.0000
  outer loop
    vertex 10.1500 0.0000 0.0000
    vertex 9.9550 -1.9802 0.0000
    vertex 6.2302 -1.6694 0.0000
  endloop
endfacet
facet normal 0.0000 0.0000 -1.0000
  outer loop
    vertex 10.1500 0.0000 0.0000
    vertex 6.2302 -1.6694 0.0000
    vertex 6.4500 0.0000 0.0000
  endloop
endfacet
endsolid elektron_master_slipon
