<svg width="1920" height="1080"><path d="M332,1283L-123,1300L541,1307Z" fill="#b46c7b" stroke="#b46c7b" stroke-width="1.51"></path><path d="M541,1307L-123,1300L1069,1327Z" fill="#b5878b" stroke="#b5878b" stroke-width="1.51"></path><path d="M718,-250L1033,-186L1489,-247Z" fill="#d99577" stroke="#d99577" stroke-width="1.51"></path><path d="M1608,1314L1324,1324L1783,1311Z" fill="#7596a9" stroke="#7596a9" stroke-width="1.51"></path><path d="M1783,1311L1324,1324L1969,1310Z" fill="#6390a9" stroke="#6390a9" stroke-width="1.51"></path><path d="M1825,-197L1929,-158L2057,-162Z" fill="#9a6381" stroke="#9a6381" stroke-width="1.51"></path><path d="M1941,1118L2036,1171L2101,995Z" fill="#568eb0" stroke="#568eb0" stroke-width="1.51"></path><path d="M2036,1171L2051,1280L2101,995Z" fill="#5181b2" stroke="#5181b2" stroke-width="1.51"></path><path d="M2046,693L2063,894L2101,995Z" fill="#88a0aa" stroke="#88a0aa" stroke-width="1.51"></path><path d="M2044,111L1909,250L2132,245Z" fill="#b48c8c" stroke="#b48c8c" stroke-width="1.51"></path><path d="M1909,250L2034,375L2132,245Z" fill="#b29997" stroke="#b29997" stroke-width="1.51"></path><path d="M2029,542L2046,693L2132,245Z" fill="#b0aab1" stroke="#b0aab1" stroke-width="1.51"></path><path d="M2034,375L2029,542L2132,245Z" fill="#b2a1a2" stroke="#b2a1a2" stroke-width="1.51"></path><path d="M2057,-162L2045,-77L2132,245Z" fill="#b0637a" stroke="#b0637a" stroke-width="1.51"></path><path d="M2045,-77L2044,111L2132,245Z" fill="#b5727e" stroke="#b5727e" stroke-width="1.51"></path><path d="M2046,693L2101,995L2132,245Z" fill="#aaa9ab" stroke="#aaa9ab" stroke-width="1.51"></path><path d="M1954,101L2044,111L2045,-77Z" fill="#b3717c" stroke="#b3717c" stroke-width="1.51"></path><path d="M2029,542L1958,655L2046,693Z" fill="#a7b4b1" stroke="#a7b4b1" stroke-width="1.51"></path><path d="M2046,693L1914,789L2063,894Z" fill="#92acab" stroke="#92acab" stroke-width="1.51"></path><path d="M1925,998L1941,1118L2101,995Z" fill="#5b9cae" stroke="#5b9cae" stroke-width="1.51"></path><path d="M2063,894L1925,998L2101,995Z" fill="#709dac" stroke="#709dac" stroke-width="1.51"></path><path d="M1033,-186L1322,-198L1489,-247Z" fill="#ce9270" stroke="#ce9270" stroke-width="1.51"></path><path d="M1886,486L2029,542L2034,375Z" fill="#adb2b2" stroke="#adb2b2" stroke-width="1.51"></path><path d="M1894,398L1886,486L2034,375Z" fill="#adb4ad" stroke="#adb4ad" stroke-width="1.51"></path><path d="M1954,101L1909,250L2044,111Z" fill="#b38b8a" stroke="#b38b8a" stroke-width="1.51"></path><path d="M1909,-76L1954,101L2045,-77Z" fill="#ad7080" stroke="#ad7080" stroke-width="1.51"></path><path d="M2036,1171L1969,1310L2051,1280Z" fill="#4a74b3" stroke="#4a74b3" stroke-width="1.51"></path><path d="M1929,-158L2045,-77L2057,-162Z" fill="#a25e80" stroke="#a25e80" stroke-width="1.51"></path><path d="M1914,789L1925,998L2063,894Z" fill="#7aaab0" stroke="#7aaab0" stroke-width="1.51"></path><path d="M1958,655L1914,789L2046,693Z" fill="#9fb5ab" stroke="#9fb5ab" stroke-width="1.51"></path><path d="M1909,250L1894,398L2034,375Z" fill="#afaaa1" stroke="#afaaa1" stroke-width="1.51"></path><path d="M1941,1118L1969,1310L2036,1171Z" fill="#3d81b9" stroke="#3d81b9" stroke-width="1.51"></path><path d="M1929,-158L1909,-76L2045,-77Z" fill="#a56882" stroke="#a56882" stroke-width="1.51"></path><path d="M1914,789L1833,881L1925,998Z" fill="#79b3b0" stroke="#79b3b0" stroke-width="1.51"></path><path d="M1886,486L1958,655L2029,542Z" fill="#a9bcbc" stroke="#a9bcbc" stroke-width="1.51"></path><path d="M1489,-247L1621,-177L1825,-197Z" fill="#a88274" stroke="#a88274" stroke-width="1.51"></path><path d="M1824,230L1909,250L1954,101Z" fill="#b39b8f" stroke="#b39b8f" stroke-width="1.51"></path><path d="M1909,-76L1772,-57L1954,101Z" fill="#b07d80" stroke="#b07d80" stroke-width="1.51"></path><path d="M1886,486L1766,573L1958,655Z" fill="#a9c7ba" stroke="#a9c7ba" stroke-width="1.51"></path><path d="M1941,1118L1813,1125L1969,1310Z" fill="#398cbc" stroke="#398cbc" stroke-width="1.51"></path><path d="M1813,1125L1783,1311L1969,1310Z" fill="#4887b6" stroke="#4887b6" stroke-width="1.51"></path><path d="M1228,1315L1069,1327L1324,1324Z" fill="#a5a6a4" stroke="#a5a6a4" stroke-width="1.51"></path><path d="M1925,998L1808,1042L1941,1118Z" fill="#53a5b1" stroke="#53a5b1" stroke-width="1.51"></path><path d="M1767,142L1824,230L1954,101Z" fill="#b79b88" stroke="#b79b88" stroke-width="1.51"></path><path d="M1772,-57L1767,142L1954,101Z" fill="#b88d7e" stroke="#b88d7e" stroke-width="1.51"></path><path d="M1766,573L1771,674L1958,655Z" fill="#a8cab1" stroke="#a8cab1" stroke-width="1.51"></path><path d="M1771,674L1914,789L1958,655Z" fill="#a0c1ab" stroke="#a0c1ab" stroke-width="1.51"></path><path d="M1808,1042L1813,1125L1941,1118Z" fill="#51a2b3" stroke="#51a2b3" stroke-width="1.51"></path><path d="M1824,230L1894,398L1909,250Z" fill="#b2ac9a" stroke="#b2ac9a" stroke-width="1.51"></path><path d="M1833,881L1808,1042L1925,998Z" fill="#69b1af" stroke="#69b1af" stroke-width="1.51"></path><path d="M1825,-197L1909,-76L1929,-158Z" fill="#a16d82" stroke="#a16d82" stroke-width="1.51"></path><path d="M1817,442L1886,486L1894,398Z" fill="#afc0ae" stroke="#afc0ae" stroke-width="1.51"></path><path d="M1824,230L1817,442L1894,398Z" fill="#b2b9a0" stroke="#b2b9a0" stroke-width="1.51"></path><path d="M1825,-197L1772,-57L1909,-76Z" fill="#a97780" stroke="#a97780" stroke-width="1.51"></path><path d="M1771,674L1833,881L1914,789Z" fill="#94c1ac" stroke="#94c1ac" stroke-width="1.51"></path><path d="M1817,442L1766,573L1886,486Z" fill="#b0cab4" stroke="#b0cab4" stroke-width="1.51"></path><path d="M1632,876L1649,1039L1808,1042Z" fill="#71c4a6" stroke="#71c4a6" stroke-width="1.51"></path><path d="M1654,1090L1783,1311L1813,1125Z" fill="#50a0b4" stroke="#50a0b4" stroke-width="1.51"></path><path d="M1668,269L1617,400L1817,442Z" fill="#bacf99" stroke="#bacf99" stroke-width="1.51"></path><path d="M1668,269L1817,442L1824,230Z" fill="#b8bd97" stroke="#b8bd97" stroke-width="1.51"></path><path d="M1621,-177L1772,-57L1825,-197Z" fill="#ab807a" stroke="#ab807a" stroke-width="1.51"></path><path d="M1771,674L1686,697L1833,881Z" fill="#9ecda6" stroke="#9ecda6" stroke-width="1.51"></path><path d="M1686,697L1632,876L1833,881Z" fill="#93cfa5" stroke="#93cfa5" stroke-width="1.51"></path><path d="M1632,876L1808,1042L1833,881Z" fill="#79c1a9" stroke="#79c1a9" stroke-width="1.51"></path><path d="M1650,514L1766,573L1817,442Z" fill="#b4d5b1" stroke="#b4d5b1" stroke-width="1.51"></path><path d="M1654,1090L1608,1314L1783,1311Z" fill="#5a9eaf" stroke="#5a9eaf" stroke-width="1.51"></path><path d="M1767,142L1668,269L1824,230Z" fill="#bbb189" stroke="#bbb189" stroke-width="1.51"></path><path d="M1587,104L1767,142L1772,-57Z" fill="#bf9d77" stroke="#bf9d77" stroke-width="1.51"></path><path d="M1592,-33L1587,104L1772,-57Z" fill="#c19a75" stroke="#c19a75" stroke-width="1.51"></path><path d="M1808,1042L1654,1090L1813,1125Z" fill="#5bafad" stroke="#5bafad" stroke-width="1.51"></path><path d="M1617,400L1650,514L1817,442Z" fill="#b9d6a6" stroke="#b9d6a6" stroke-width="1.51"></path><path d="M1649,1039L1654,1090L1808,1042Z" fill="#63bba9" stroke="#63bba9" stroke-width="1.51"></path><path d="M1766,573L1686,697L1771,674Z" fill="#acd5aa" stroke="#acd5aa" stroke-width="1.51"></path><path d="M1621,-177L1592,-33L1772,-57Z" fill="#b78f77" stroke="#b78f77" stroke-width="1.51"></path><path d="M1650,514L1686,697L1766,573Z" fill="#b2dcad" stroke="#b2dcad" stroke-width="1.51"></path><path d="M1587,104L1668,269L1767,142Z" fill="#c1b480" stroke="#c1b480" stroke-width="1.51"></path><path d="M1632,876L1539,935L1649,1039Z" fill="#85cda5" stroke="#85cda5" stroke-width="1.51"></path><path d="M1499,1261L1608,1314L1654,1090Z" fill="#67a6b0" stroke="#67a6b0" stroke-width="1.51"></path><path d="M1650,514L1536,689L1686,697Z" fill="#b8e0a7" stroke="#b8e0a7" stroke-width="1.51"></path><path d="M1536,689L1632,876L1686,697Z" fill="#aadba1" stroke="#aadba1" stroke-width="1.51"></path><path d="M718,-250L871,-199L1033,-186Z" fill="#e09378" stroke="#e09378" stroke-width="1.51"></path><path d="M1499,1261L1324,1324L1608,1314Z" fill="#809eaa" stroke="#809eaa" stroke-width="1.51"></path><path d="M1445,293L1617,400L1668,269Z" fill="#c8d092" stroke="#c8d092" stroke-width="1.51"></path><path d="M1587,104L1445,293L1668,269Z" fill="#ccc285" stroke="#ccc285" stroke-width="1.51"></path><path d="M1507,445L1431,500L1536,689Z" fill="#cfebb1" stroke="#cfebb1" stroke-width="1.51"></path><path d="M1536,689L1444,834L1632,876Z" fill="#acdca2" stroke="#acdca2" stroke-width="1.51"></path><path d="M1617,400L1507,445L1650,514Z" fill="#c4dea5" stroke="#c4dea5" stroke-width="1.51"></path><path d="M1507,445L1536,689L1650,514Z" fill="#c6e7b1" stroke="#c6e7b1" stroke-width="1.51"></path><path d="M1649,1039L1433,1092L1654,1090Z" fill="#73c0a8" stroke="#73c0a8" stroke-width="1.51"></path><path d="M1433,1092L1499,1261L1654,1090Z" fill="#73b6ae" stroke="#73b6ae" stroke-width="1.51"></path><path d="M1539,935L1433,1092L1649,1039Z" fill="#7fcba5" stroke="#7fcba5" stroke-width="1.51"></path><path d="M1490,35L1587,104L1592,-33Z" fill="#cea373" stroke="#cea373" stroke-width="1.51"></path><path d="M1445,293L1507,445L1617,400Z" fill="#cddb98" stroke="#cddb98" stroke-width="1.51"></path><path d="M1447,-56L1592,-33L1621,-177Z" fill="#c39477" stroke="#c39477" stroke-width="1.51"></path><path d="M1444,834L1539,935L1632,876Z" fill="#9cd6a5" stroke="#9cd6a5" stroke-width="1.51"></path><path d="M1489,-247L1447,-56L1621,-177Z" fill="#bd8d76" stroke="#bd8d76" stroke-width="1.51"></path><path d="M1490,35L1354,223L1587,104Z" fill="#d7b57a" stroke="#d7b57a" stroke-width="1.51"></path><path d="M1354,223L1445,293L1587,104Z" fill="#d8c582" stroke="#d8c582" stroke-width="1.51"></path><path d="M1447,-56L1490,35L1592,-33Z" fill="#ce9f74" stroke="#ce9f74" stroke-width="1.51"></path><path d="M1318,92L1354,223L1490,35Z" fill="#e1b878" stroke="#e1b878" stroke-width="1.51"></path><path d="M1445,293L1390,352L1507,445Z" fill="#d6dc96" stroke="#d6dc96" stroke-width="1.51"></path><path d="M1431,500L1303,567L1536,689Z" fill="#d4eeab" stroke="#d4eeab" stroke-width="1.51"></path><path d="M1303,567L1338,739L1536,689Z" fill="#d2eda2" stroke="#d2eda2" stroke-width="1.51"></path><path d="M1338,739L1444,834L1536,689Z" fill="#c0e5a0" stroke="#c0e5a0" stroke-width="1.51"></path><path d="M1444,834L1374,978L1539,935Z" fill="#a1d9a4" stroke="#a1d9a4" stroke-width="1.51"></path><path d="M1374,978L1433,1092L1539,935Z" fill="#91d1a5" stroke="#91d1a5" stroke-width="1.51"></path><path d="M1322,-198L1447,-56L1489,-247Z" fill="#c69175" stroke="#c69175" stroke-width="1.51"></path><path d="M1433,1092L1289,1192L1499,1261Z" fill="#83b6b0" stroke="#83b6b0" stroke-width="1.51"></path><path d="M1390,352L1431,500L1507,445Z" fill="#d6e4a1" stroke="#d6e4a1" stroke-width="1.51"></path><path d="M1289,1192L1324,1324L1499,1261Z" fill="#8caaac" stroke="#8caaac" stroke-width="1.51"></path><path d="M1447,-56L1332,-45L1490,35Z" fill="#d7a374" stroke="#d7a374" stroke-width="1.51"></path><path d="M1332,-45L1318,92L1490,35Z" fill="#dfaa71" stroke="#dfaa71" stroke-width="1.51"></path><path d="M1033,-186L1137,-157L1322,-198Z" fill="#dd9a72" stroke="#dd9a72" stroke-width="1.51"></path><path d="M1299,894L1374,978L1444,834Z" fill="#aedea3" stroke="#aedea3" stroke-width="1.51"></path><path d="M1322,-198L1332,-45L1447,-56Z" fill="#d69b76" stroke="#d69b76" stroke-width="1.51"></path><path d="M1390,352L1238,404L1431,500Z" fill="#e1e79d" stroke="#e1e79d" stroke-width="1.51"></path><path d="M1354,223L1390,352L1445,293Z" fill="#ded48c" stroke="#ded48c" stroke-width="1.51"></path><path d="M1338,739L1299,894L1444,834Z" fill="#bee4a1" stroke="#bee4a1" stroke-width="1.51"></path><path d="M1238,506L1303,567L1431,500Z" fill="#e4f3ac" stroke="#e4f3ac" stroke-width="1.51"></path><path d="M1238,404L1238,506L1431,500Z" fill="#e7efa3" stroke="#e7efa3" stroke-width="1.51"></path><path d="M1374,978L1289,1192L1433,1092Z" fill="#91c9a7" stroke="#91c9a7" stroke-width="1.51"></path><path d="M1217,1018L1289,1192L1374,978Z" fill="#9dd2a4" stroke="#9dd2a4" stroke-width="1.51"></path><path d="M1217,1018L1218,1147L1289,1192Z" fill="#9fcaa8" stroke="#9fcaa8" stroke-width="1.51"></path><path d="M1354,223L1238,404L1390,352Z" fill="#e5dd8f" stroke="#e5dd8f" stroke-width="1.51"></path><path d="M1299,894L1217,1018L1374,978Z" fill="#acdca1" stroke="#acdca1" stroke-width="1.51"></path><path d="M1289,1192L1228,1315L1324,1324Z" fill="#99aba9" stroke="#99aba9" stroke-width="1.51"></path><path d="M1322,-198L1189,-102L1332,-45Z" fill="#dd9e74" stroke="#dd9e74" stroke-width="1.51"></path><path d="M1131,795L1299,894L1338,739Z" fill="#cdeb9e" stroke="#cdeb9e" stroke-width="1.51"></path><path d="M1303,567L1152,657L1338,739Z" fill="#e3f49f" stroke="#e3f49f" stroke-width="1.51"></path><path d="M1169,210L1238,404L1354,223Z" fill="#eeda86" stroke="#eeda86" stroke-width="1.51"></path><path d="M1318,92L1206,103L1354,223Z" fill="#ebc178" stroke="#ebc178" stroke-width="1.51"></path><path d="M1206,103L1169,210L1354,223Z" fill="#f0cb7a" stroke="#f0cb7a" stroke-width="1.51"></path><path d="M1206,103L1318,92L1332,-45Z" fill="#ebb16f" stroke="#ebb16f" stroke-width="1.51"></path><path d="M1189,-102L1206,103L1332,-45Z" fill="#eaab6f" stroke="#eaab6f" stroke-width="1.51"></path><path d="M1152,657L1131,795L1338,739Z" fill="#e1f299" stroke="#e1f299" stroke-width="1.51"></path><path d="M34,-225L462,-183L718,-250Z" fill="#d86350" stroke="#d86350" stroke-width="1.51"></path><path d="M1137,-157L1189,-102L1322,-198Z" fill="#de9b72" stroke="#de9b72" stroke-width="1.51"></path><path d="M1238,506L1152,657L1303,567Z" fill="#edf8a8" stroke="#edf8a8" stroke-width="1.51"></path><path d="M1131,795L1217,1018L1299,894Z" fill="#c2e59f" stroke="#c2e59f" stroke-width="1.51"></path><path d="M1218,1147L1228,1315L1289,1192Z" fill="#99b7ad" stroke="#99b7ad" stroke-width="1.51"></path><path d="M907,1250L541,1307L1069,1327Z" fill="#b0a8ac" stroke="#b0a8ac" stroke-width="1.51"></path><path d="M988,-66L1019,107L1189,-102Z" fill="#f5af79" stroke="#f5af79" stroke-width="1.51"></path><path d="M1189,-102L1019,107L1206,103Z" fill="#f6b571" stroke="#f6b571" stroke-width="1.51"></path><path d="M1131,795L1017,895L1217,1018Z" fill="#c8e8a5" stroke="#c8e8a5" stroke-width="1.51"></path><path d="M1017,895L1070,1042L1217,1018Z" fill="#b9e1a7" stroke="#b9e1a7" stroke-width="1.51"></path><path d="M1217,1018L1070,1042L1218,1147Z" fill="#aad6a5" stroke="#aad6a5" stroke-width="1.51"></path><path d="M1218,1147L1069,1327L1228,1315Z" fill="#a4b2ab" stroke="#a4b2ab" stroke-width="1.51"></path><path d="M1057,495L1152,657L1238,506Z" fill="#f4fbae" stroke="#f4fbae" stroke-width="1.51"></path><path d="M1169,210L1015,410L1238,404Z" fill="#f6e792" stroke="#f6e792" stroke-width="1.51"></path><path d="M1057,495L1238,506L1238,404Z" fill="#f4f4a2" stroke="#f4f4a2" stroke-width="1.51"></path><path d="M1015,410L1057,495L1238,404Z" fill="#f8f2a3" stroke="#f8f2a3" stroke-width="1.51"></path><path d="M1070,1042L1054,1106L1218,1147Z" fill="#abd1ac" stroke="#abd1ac" stroke-width="1.51"></path><path d="M1054,1106L1069,1327L1218,1147Z" fill="#a2bfb3" stroke="#a2bfb3" stroke-width="1.51"></path><path d="M1018,203L1015,410L1169,210Z" fill="#fbdf8f" stroke="#fbdf8f" stroke-width="1.51"></path><path d="M1019,107L1169,210L1206,103Z" fill="#f8c77b" stroke="#f8c77b" stroke-width="1.51"></path><path d="M735,1233L541,1307L907,1250Z" fill="#b0a7a3" stroke="#b0a7a3" stroke-width="1.51"></path><path d="M1040,729L1131,795L1152,657Z" fill="#e7f6a0" stroke="#e7f6a0" stroke-width="1.51"></path><path d="M1137,-157L988,-66L1189,-102Z" fill="#eba379" stroke="#eba379" stroke-width="1.51"></path><path d="M1019,107L1018,203L1169,210Z" fill="#fcce83" stroke="#fcce83" stroke-width="1.51"></path><path d="M1033,-186L988,-66L1137,-157Z" fill="#e9a07d" stroke="#e9a07d" stroke-width="1.51"></path><path d="M1057,495L1040,729L1152,657Z" fill="#f2faab" stroke="#f2faab" stroke-width="1.51"></path><path d="M1054,1106L907,1250L1069,1327Z" fill="#a8bbba" stroke="#a8bbba" stroke-width="1.51"></path><path d="M1040,729L1017,895L1131,795Z" fill="#dcf1a7" stroke="#dcf1a7" stroke-width="1.51"></path><path d="M34,-225L337,-171L462,-183Z" fill="#d9534a" stroke="#d9534a" stroke-width="1.51"></path><path d="M885,207L1015,410L1018,203Z" fill="#ffdf97" stroke="#ffdf97" stroke-width="1.51"></path><path d="M870,842L1017,895L1040,729Z" fill="#ddf1ae" stroke="#ddf1ae" stroke-width="1.51"></path><path d="M881,1183L907,1250L1054,1106Z" fill="#aac4bd" stroke="#aac4bd" stroke-width="1.51"></path><path d="M844,651L1040,729L1057,495Z" fill="#f8fcb4" stroke="#f8fcb4" stroke-width="1.51"></path><path d="M863,483L844,651L1057,495Z" fill="#fffcba" stroke="#fffcba" stroke-width="1.51"></path><path d="M884,1039L1054,1106L1070,1042Z" fill="#b3dab1" stroke="#b3dab1" stroke-width="1.51"></path><path d="M1017,895L884,1039L1070,1042Z" fill="#bee4b0" stroke="#bee4b0" stroke-width="1.51"></path><path d="M382,1283L332,1283L541,1307Z" fill="#b58287" stroke="#b58287" stroke-width="1.51"></path><path d="M885,207L851,400L1015,410Z" fill="#ffe79c" stroke="#ffe79c" stroke-width="1.51"></path><path d="M1015,410L863,483L1057,495Z" fill="#fef7b1" stroke="#fef7b1" stroke-width="1.51"></path><path d="M884,1039L881,1183L1054,1106Z" fill="#b1d1b6" stroke="#b1d1b6" stroke-width="1.51"></path><path d="M988,-66L866,89L1019,107Z" fill="#ffb87e" stroke="#ffb87e" stroke-width="1.51"></path><path d="M871,-199L988,-66L1033,-186Z" fill="#eca083" stroke="#eca083" stroke-width="1.51"></path><path d="M844,651L870,842L1040,729Z" fill="#edf5a8" stroke="#edf5a8" stroke-width="1.51"></path><path d="M871,-59L866,89L988,-66Z" fill="#faae7c" stroke="#faae7c" stroke-width="1.51"></path><path d="M885,207L1018,203L1019,107Z" fill="#ffcf8b" stroke="#ffcf8b" stroke-width="1.51"></path><path d="M870,842L884,1039L1017,895Z" fill="#cce7ad" stroke="#cce7ad" stroke-width="1.51"></path><path d="M866,89L885,207L1019,107Z" fill="#ffc684" stroke="#ffc684" stroke-width="1.51"></path><path d="M851,400L863,483L1015,410Z" fill="#fff1a8" stroke="#fff1a8" stroke-width="1.51"></path><path d="M871,-199L871,-59L988,-66Z" fill="#f1a27f" stroke="#f1a27f" stroke-width="1.51"></path><path d="M748,592L844,651L863,483Z" fill="#fdf5ab" stroke="#fdf5ab" stroke-width="1.51"></path><path d="M844,651L752,840L870,842Z" fill="#e7ec9f" stroke="#e7ec9f" stroke-width="1.51"></path><path d="M751,-110L871,-59L871,-199Z" fill="#ef9b77" stroke="#ef9b77" stroke-width="1.51"></path><path d="M697,1097L881,1183L884,1039Z" fill="#b4caaa" stroke="#b4caaa" stroke-width="1.51"></path><path d="M870,842L745,984L884,1039Z" fill="#c8dfa4" stroke="#c8dfa4" stroke-width="1.51"></path><path d="M771,190L851,400L885,207Z" fill="#ffd789" stroke="#ffd789" stroke-width="1.51"></path><path d="M866,89L775,118L885,207Z" fill="#ffc27c" stroke="#ffc27c" stroke-width="1.51"></path><path d="M881,1183L735,1233L907,1250Z" fill="#acb6b2" stroke="#acb6b2" stroke-width="1.51"></path><path d="M686,734L752,840L844,651Z" fill="#edeb97" stroke="#edeb97" stroke-width="1.51"></path><path d="M771,190L767,428L851,400Z" fill="#ffdf8e" stroke="#ffdf8e" stroke-width="1.51"></path><path d="M752,840L745,984L870,842Z" fill="#d4e29f" stroke="#d4e29f" stroke-width="1.51"></path><path d="M775,118L866,89L871,-59Z" fill="#feb172" stroke="#feb172" stroke-width="1.51"></path><path d="M751,-110L775,118L871,-59Z" fill="#f8a670" stroke="#f8a670" stroke-width="1.51"></path><path d="M697,1097L735,1233L881,1183Z" fill="#afbbaa" stroke="#afbbaa" stroke-width="1.51"></path><path d="M745,984L697,1097L884,1039Z" fill="#bad49f" stroke="#bad49f" stroke-width="1.51"></path><path d="M775,118L771,190L885,207Z" fill="#ffc67c" stroke="#ffc67c" stroke-width="1.51"></path><path d="M851,400L767,428L863,483Z" fill="#ffeda0" stroke="#ffeda0" stroke-width="1.51"></path><path d="M718,-250L751,-110L871,-199Z" fill="#e39070" stroke="#e39070" stroke-width="1.51"></path><path d="M767,428L748,592L863,483Z" fill="#fff0a7" stroke="#fff0a7" stroke-width="1.51"></path><path d="M748,592L686,734L844,651Z" fill="#f6ef9b" stroke="#f6ef9b" stroke-width="1.51"></path><path d="M718,-250L620,-157L751,-110Z" fill="#e48b68" stroke="#e48b68" stroke-width="1.51"></path><path d="M575,422L748,592L767,428Z" fill="#ffe799" stroke="#ffe799" stroke-width="1.51"></path><path d="M569,231L575,422L767,428Z" fill="#fed681" stroke="#fed681" stroke-width="1.51"></path><path d="M569,231L767,428L771,190Z" fill="#fed07d" stroke="#fed07d" stroke-width="1.51"></path><path d="M569,231L771,190L775,118Z" fill="#fec071" stroke="#fec071" stroke-width="1.51"></path><path d="M531,41L569,231L775,118Z" fill="#fcae66" stroke="#fcae66" stroke-width="1.51"></path><path d="M751,-110L550,-20L775,118Z" fill="#f8a065" stroke="#f8a065" stroke-width="1.51"></path><path d="M550,-20L531,41L775,118Z" fill="#fb9e5d" stroke="#fb9e5d" stroke-width="1.51"></path><path d="M575,422L531,531L748,592Z" fill="#ffe298" stroke="#ffe298" stroke-width="1.51"></path><path d="M613,637L686,734L748,592Z" fill="#f7e894" stroke="#f7e894" stroke-width="1.51"></path><path d="M584,806L745,984L752,840Z" fill="#d6dc95" stroke="#d6dc95" stroke-width="1.51"></path><path d="M584,806L640,1034L745,984Z" fill="#ccd393" stroke="#ccd393" stroke-width="1.51"></path><path d="M640,1034L697,1097L745,984Z" fill="#bbcf97" stroke="#bbcf97" stroke-width="1.51"></path><path d="M531,531L613,637L748,592Z" fill="#fce597" stroke="#fce597" stroke-width="1.51"></path><path d="M620,-157L550,-20L751,-110Z" fill="#ef8f65" stroke="#ef8f65" stroke-width="1.51"></path><path d="M686,734L584,806L752,840Z" fill="#e4df91" stroke="#e4df91" stroke-width="1.51"></path><path d="M697,1097L586,1116L735,1233Z" fill="#b2b89f" stroke="#b2b89f" stroke-width="1.51"></path><path d="M586,1116L541,1307L735,1233Z" fill="#b0a59d" stroke="#b0a59d" stroke-width="1.51"></path><path d="M462,-183L620,-157L718,-250Z" fill="#df7e60" stroke="#df7e60" stroke-width="1.51"></path><path d="M584,806L486,956L640,1034Z" fill="#cfcb8b" stroke="#cfcb8b" stroke-width="1.51"></path><path d="M640,1034L586,1116L697,1097Z" fill="#b9c196" stroke="#b9c196" stroke-width="1.51"></path><path d="M613,637L584,806L686,734Z" fill="#f0e08a" stroke="#f0e08a" stroke-width="1.51"></path><path d="M459,1149L541,1307L586,1116Z" fill="#b2a195" stroke="#b2a195" stroke-width="1.51"></path><path d="M470,741L584,806L613,637Z" fill="#f0d884" stroke="#f0d884" stroke-width="1.51"></path><path d="M486,956L586,1116L640,1034Z" fill="#bec38c" stroke="#bec38c" stroke-width="1.51"></path><path d="M83,1239L-123,1300L332,1283Z" fill="#ab647e" stroke="#ab647e" stroke-width="1.51"></path><path d="M531,41L454,85L569,231Z" fill="#fca15c" stroke="#fca15c" stroke-width="1.51"></path><path d="M569,231L455,243L575,422Z" fill="#fec170" stroke="#fec170" stroke-width="1.51"></path><path d="M463,-86L550,-20L620,-157Z" fill="#ee865c" stroke="#ee865c" stroke-width="1.51"></path><path d="M462,-183L463,-86L620,-157Z" fill="#e77b5a" stroke="#e77b5a" stroke-width="1.51"></path><path d="M531,531L470,741L613,637Z" fill="#fada89" stroke="#fada89" stroke-width="1.51"></path><path d="M454,85L455,243L569,231Z" fill="#fdab60" stroke="#fdab60" stroke-width="1.51"></path><path d="M455,243L434,426L575,422Z" fill="#fec775" stroke="#fec775" stroke-width="1.51"></path><path d="M489,493L531,531L575,422Z" fill="#ffd78b" stroke="#ffd78b" stroke-width="1.51"></path><path d="M395,866L486,956L584,806Z" fill="#d9c783" stroke="#d9c783" stroke-width="1.51"></path><path d="M470,741L395,866L584,806Z" fill="#e5cc80" stroke="#e5cc80" stroke-width="1.51"></path><path d="M486,956L459,1149L586,1116Z" fill="#bcb58a" stroke="#bcb58a" stroke-width="1.51"></path><path d="M34,-225L141,-171L337,-171Z" fill="#d44749" stroke="#d44749" stroke-width="1.51"></path><path d="M434,426L489,493L575,422Z" fill="#ffd083" stroke="#ffd083" stroke-width="1.51"></path><path d="M489,493L313,564L531,531Z" fill="#ffd18b" stroke="#ffd18b" stroke-width="1.51"></path><path d="M313,564L470,741L531,531Z" fill="#fbcf84" stroke="#fbcf84" stroke-width="1.51"></path><path d="M459,1149L382,1283L541,1307Z" fill="#b4908d" stroke="#b4908d" stroke-width="1.51"></path><path d="M463,-86L531,41L550,-20Z" fill="#f48a58" stroke="#f48a58" stroke-width="1.51"></path><path d="M313,564L297,644L470,741Z" fill="#f8c57b" stroke="#f8c57b" stroke-width="1.51"></path><path d="M463,-86L454,85L531,41Z" fill="#f68b53" stroke="#f68b53" stroke-width="1.51"></path><path d="M326,409L434,426L455,243Z" fill="#febb6f" stroke="#febb6f" stroke-width="1.51"></path><path d="M296,271L326,409L455,243Z" fill="#fdae66" stroke="#fdae66" stroke-width="1.51"></path><path d="M454,85L328,79L455,243Z" fill="#fb9855" stroke="#fb9855" stroke-width="1.51"></path><path d="M321,-5L454,85L463,-86Z" fill="#f4804f" stroke="#f4804f" stroke-width="1.51"></path><path d="M293,1022L459,1149L486,956Z" fill="#c0b180" stroke="#c0b180" stroke-width="1.51"></path><path d="M434,426L313,564L489,493Z" fill="#ffc984" stroke="#ffc984" stroke-width="1.51"></path><path d="M395,866L293,1022L486,956Z" fill="#ceb67d" stroke="#ceb67d" stroke-width="1.51"></path><path d="M321,-5L328,79L454,85Z" fill="#f8814b" stroke="#f8814b" stroke-width="1.51"></path><path d="M328,79L296,271L455,243Z" fill="#fb9c58" stroke="#fb9c58" stroke-width="1.51"></path><path d="M293,1022L261,1106L459,1149Z" fill="#bc9e7f" stroke="#bc9e7f" stroke-width="1.51"></path><path d="M462,-183L337,-171L463,-86Z" fill="#e46e54" stroke="#e46e54" stroke-width="1.51"></path><path d="M341,859L395,866L470,741Z" fill="#e2c17c" stroke="#e2c17c" stroke-width="1.51"></path><path d="M297,644L341,859L470,741Z" fill="#eec276" stroke="#eec276" stroke-width="1.51"></path><path d="M332,1283L382,1283L459,1149Z" fill="#b38989" stroke="#b38989" stroke-width="1.51"></path><path d="M337,-171L321,-5L463,-86Z" fill="#eb6f50" stroke="#eb6f50" stroke-width="1.51"></path><path d="M326,409L313,564L434,426Z" fill="#ffc07c" stroke="#ffc07c" stroke-width="1.51"></path><path d="M261,1106L332,1283L459,1149Z" fill="#b48f87" stroke="#b48f87" stroke-width="1.51"></path><path d="M341,859L293,1022L395,866Z" fill="#d4b37a" stroke="#d4b37a" stroke-width="1.51"></path><path d="M145,71L136,258L296,271Z" fill="#f68852" stroke="#f68852" stroke-width="1.51"></path><path d="M296,271L155,340L326,409Z" fill="#fca663" stroke="#fca663" stroke-width="1.51"></path><path d="M82,529L313,564L326,409Z" fill="#ffb579" stroke="#ffb579" stroke-width="1.51"></path><path d="M145,71L296,271L328,79Z" fill="#f8834c" stroke="#f8834c" stroke-width="1.51"></path><path d="M261,1106L83,1239L332,1283Z" fill="#b27b80" stroke="#b27b80" stroke-width="1.51"></path><path d="M130,-57L321,-5L337,-171Z" fill="#e96049" stroke="#e96049" stroke-width="1.51"></path><path d="M141,-171L130,-57L337,-171Z" fill="#e0514a" stroke="#e0514a" stroke-width="1.51"></path><path d="M94,990L293,1022L341,859Z" fill="#cda473" stroke="#cda473" stroke-width="1.51"></path><path d="M106,790L94,990L341,859Z" fill="#d5a474" stroke="#d5a474" stroke-width="1.51"></path><path d="M297,644L124,699L341,859Z" fill="#f0b46e" stroke="#f0b46e" stroke-width="1.51"></path><path d="M124,699L106,790L341,859Z" fill="#e5ab70" stroke="#e5ab70" stroke-width="1.51"></path><path d="M155,340L82,529L326,409Z" fill="#faa96f" stroke="#faa96f" stroke-width="1.51"></path><path d="M321,-5L145,71L328,79Z" fill="#f57145" stroke="#f57145" stroke-width="1.51"></path><path d="M130,-57L145,71L321,-5Z" fill="#ed6447" stroke="#ed6447" stroke-width="1.51"></path><path d="M157,1096L83,1239L261,1106Z" fill="#b3837e" stroke="#b3837e" stroke-width="1.51"></path><path d="M82,529L297,644L313,564Z" fill="#fdb77b" stroke="#fdb77b" stroke-width="1.51"></path><path d="M82,529L124,699L297,644Z" fill="#f5b077" stroke="#f5b077" stroke-width="1.51"></path><path d="M136,258L155,340L296,271Z" fill="#f8975d" stroke="#f8975d" stroke-width="1.51"></path><path d="M157,1096L261,1106L293,1022Z" fill="#be9677" stroke="#be9677" stroke-width="1.51"></path><path d="M94,990L157,1096L293,1022Z" fill="#bd9975" stroke="#bd9975" stroke-width="1.51"></path><path d="M-28,1238L-123,1300L83,1239Z" fill="#a15e80" stroke="#a15e80" stroke-width="1.51"></path><path d="M12,841L94,990L106,790Z" fill="#d09b76" stroke="#d09b76" stroke-width="1.51"></path><path d="M82,529L13,649L124,699Z" fill="#f0a879" stroke="#f0a879" stroke-width="1.51"></path><path d="M25,40L-2,286L136,258Z" fill="#ed7b56" stroke="#ed7b56" stroke-width="1.51"></path><path d="M25,40L136,258L145,71Z" fill="#ee714e" stroke="#ee714e" stroke-width="1.51"></path><path d="M130,-57L25,40L145,71Z" fill="#e95d48" stroke="#e95d48" stroke-width="1.51"></path><path d="M136,258L-2,286L155,340Z" fill="#f29060" stroke="#f29060" stroke-width="1.51"></path><path d="M33,408L82,529L155,340Z" fill="#f4a171" stroke="#f4a171" stroke-width="1.51"></path><path d="M94,990L18,1187L157,1096Z" fill="#b3877b" stroke="#b3877b" stroke-width="1.51"></path><path d="M18,1187L83,1239L157,1096Z" fill="#ab7782" stroke="#ab7782" stroke-width="1.51"></path><path d="M-2,286L33,408L155,340Z" fill="#f19567" stroke="#f19567" stroke-width="1.51"></path><path d="M34,-225L-16,-31L130,-57Z" fill="#da464e" stroke="#da464e" stroke-width="1.51"></path><path d="M34,-225L130,-57L141,-171Z" fill="#d6454c" stroke="#d6454c" stroke-width="1.51"></path><path d="M-16,-31L25,40L130,-57Z" fill="#e2534b" stroke="#e2534b" stroke-width="1.51"></path><path d="M13,649L106,790L124,699Z" fill="#e9a771" stroke="#e9a771" stroke-width="1.51"></path><path d="M-140,184L-2,286L25,40Z" fill="#e46e54" stroke="#e46e54" stroke-width="1.51"></path><path d="M-50,940L18,1187L94,990Z" fill="#b48c78" stroke="#b48c78" stroke-width="1.51"></path><path d="M12,841L-50,940L94,990Z" fill="#c49477" stroke="#c49477" stroke-width="1.51"></path><path d="M13,649L12,841L106,790Z" fill="#e0a173" stroke="#e0a173" stroke-width="1.51"></path><path d="M33,408L-18,521L82,529Z" fill="#f2a27c" stroke="#f2a27c" stroke-width="1.51"></path><path d="M-18,521L13,649L82,529Z" fill="#f0a681" stroke="#f0a681" stroke-width="1.51"></path><path d="M-50,940L-171,1117L18,1187Z" fill="#a67c79" stroke="#a67c79" stroke-width="1.51"></path><path d="M18,1187L-28,1238L83,1239Z" fill="#a56983" stroke="#a56983" stroke-width="1.51"></path><path d="M-166,841L12,841L13,649Z" fill="#d59874" stroke="#d59874" stroke-width="1.51"></path><path d="M-204,701L-166,841L13,649Z" fill="#d39470" stroke="#d39470" stroke-width="1.51"></path><path d="M-176,136L-140,184L25,40Z" fill="#dc5f4e" stroke="#dc5f4e" stroke-width="1.51"></path><path d="M-2,286L-217,334L33,408Z" fill="#e68a67" stroke="#e68a67" stroke-width="1.51"></path><path d="M-136,-177L-16,-31L34,-225Z" fill="#cc374d" stroke="#cc374d" stroke-width="1.51"></path><path d="M-190,1023L-171,1117L-50,940Z" fill="#a47f74" stroke="#a47f74" stroke-width="1.51"></path><path d="M-217,334L-18,521L33,408Z" fill="#e69371" stroke="#e69371" stroke-width="1.51"></path><path d="M-171,1117L-28,1238L18,1187Z" fill="#9e6a81" stroke="#9e6a81" stroke-width="1.51"></path><path d="M-16,-31L-176,136L25,40Z" fill="#de5249" stroke="#de5249" stroke-width="1.51"></path><path d="M-18,521L-218,585L13,649Z" fill="#e59c7d" stroke="#e59c7d" stroke-width="1.51"></path><path d="M-165,-46L-176,136L-16,-31Z" fill="#d44848" stroke="#d44848" stroke-width="1.51"></path><path d="M-218,585L-204,701L13,649Z" fill="#d99675" stroke="#d99675" stroke-width="1.51"></path><path d="M-166,841L-50,940L12,841Z" fill="#c39076" stroke="#c39076" stroke-width="1.51"></path><path d="M-136,-177L-165,-46L-16,-31Z" fill="#cc3a4b" stroke="#cc3a4b" stroke-width="1.51"></path><path d="M-140,184L-217,334L-2,286Z" fill="#dd795d" stroke="#dd795d" stroke-width="1.51"></path><path d="M-217,334L-218,585L-18,521Z" fill="#de9177" stroke="#de9177" stroke-width="1.51"></path><path d="M-171,1117L-123,1300L-28,1238Z" fill="#965f80" stroke="#965f80" stroke-width="1.51"></path><path d="M-166,841L-190,1023L-50,940Z" fill="#b38674" stroke="#b38674" stroke-width="1.51"></path><path d="M-176,136L-217,334L-140,184Z" fill="#d66c55" stroke="#d66c55" stroke-width="1.51"></path><path d="M-204,701L-190,1023L-166,841Z" fill="#b98772" stroke="#b98772" stroke-width="1.51"></path><path d="M-217,334L-176,136L-165,-46Z" fill="#d25c4e" stroke="#d25c4e" stroke-width="1.51"></path><path d="M-204,701L-218,585L-190,1023Z" fill="#c48b6f" stroke="#c48b6f" stroke-width="1.51"></path></svg>