<svg width="800" height="1200"><path d="M444,-140L648,-133L752,-147Z" fill="#c0a6d1" stroke="#c0a6d1" stroke-width="1.51"></path><path d="M364,-148L444,-140L752,-147Z" fill="#c1b4d8" stroke="#c1b4d8" stroke-width="1.51"></path><path d="M729,1311L665,1348L828,1299Z" fill="#6e1b71" stroke="#6e1b71" stroke-width="1.51"></path><path d="M828,1299L665,1348L921,1329Z" fill="#6c0c6a" stroke="#6c0c6a" stroke-width="1.51"></path><path d="M900,998L889,1081L927,1134Z" fill="#731b75" stroke="#731b75" stroke-width="1.51"></path><path d="M914,1221L921,1329L927,1134Z" fill="#660662" stroke="#660662" stroke-width="1.51"></path><path d="M840,680L920,757L930,649Z" fill="#7b4b8d" stroke="#7b4b8d" stroke-width="1.51"></path><path d="M908,365L925,441L932,272Z" fill="#866998" stroke="#866998" stroke-width="1.51"></path><path d="M860,-46L891,-37L932,-144Z" fill="#ab82ab" stroke="#ab82ab" stroke-width="1.51"></path><path d="M849,-146L860,-46L932,-144Z" fill="#b084ae" stroke="#b084ae" stroke-width="1.51"></path><path d="M891,-37L926,9L932,-144Z" fill="#a67fa6" stroke="#a67fa6" stroke-width="1.51"></path><path d="M892,588L930,649L940,506Z" fill="#79568e" stroke="#79568e" stroke-width="1.51"></path><path d="M932,272L925,441L940,506Z" fill="#806594" stroke="#806594" stroke-width="1.51"></path><path d="M866,174L894,186L943,98Z" fill="#9a76a3" stroke="#9a76a3" stroke-width="1.51"></path><path d="M926,9L826,69L943,98Z" fill="#a27ca7" stroke="#a27ca7" stroke-width="1.51"></path><path d="M894,186L932,272L943,98Z" fill="#93729e" stroke="#93729e" stroke-width="1.51"></path><path d="M932,-144L926,9L943,98Z" fill="#9f7ca2" stroke="#9f7ca2" stroke-width="1.51"></path><path d="M932,272L940,506L943,98Z" fill="#886a97" stroke="#886a97" stroke-width="1.51"></path><path d="M900,998L927,1134L948,937Z" fill="#702075" stroke="#702075" stroke-width="1.51"></path><path d="M927,1134L921,1329L948,937Z" fill="#6d106b" stroke="#6d106b" stroke-width="1.51"></path><path d="M943,98L940,506L950,843Z" fill="#795d8e" stroke="#795d8e" stroke-width="1.51"></path><path d="M920,757L856,836L950,843Z" fill="#773b84" stroke="#773b84" stroke-width="1.51"></path><path d="M854,904L948,937L950,843Z" fill="#74317e" stroke="#74317e" stroke-width="1.51"></path><path d="M856,836L854,904L950,843Z" fill="#7a3786" stroke="#7a3786" stroke-width="1.51"></path><path d="M930,649L920,757L950,843Z" fill="#734183" stroke="#734183" stroke-width="1.51"></path><path d="M940,506L930,649L950,843Z" fill="#734a87" stroke="#734a87" stroke-width="1.51"></path><path d="M914,1221L828,1299L921,1329Z" fill="#640561" stroke="#640561" stroke-width="1.51"></path><path d="M842,287L908,365L932,272Z" fill="#8f6e9f" stroke="#8f6e9f" stroke-width="1.51"></path><path d="M854,904L900,998L948,937Z" fill="#762c7f" stroke="#762c7f" stroke-width="1.51"></path><path d="M826,99L866,174L943,98Z" fill="#a17aa8" stroke="#a17aa8" stroke-width="1.51"></path><path d="M826,69L826,99L943,98Z" fill="#a77dac" stroke="#a77dac" stroke-width="1.51"></path><path d="M845,427L816,514L925,441Z" fill="#8b67a0" stroke="#8b67a0" stroke-width="1.51"></path><path d="M925,441L816,514L940,506Z" fill="#836198" stroke="#836198" stroke-width="1.51"></path><path d="M816,514L892,588L940,506Z" fill="#825d98" stroke="#825d98" stroke-width="1.51"></path><path d="M840,680L822,730L920,757Z" fill="#824a92" stroke="#824a92" stroke-width="1.51"></path><path d="M908,365L845,427L925,441Z" fill="#87689c" stroke="#87689c" stroke-width="1.51"></path><path d="M820,1152L914,1221L927,1134Z" fill="#740a70" stroke="#740a70" stroke-width="1.51"></path><path d="M894,186L842,287L932,272Z" fill="#9572a2" stroke="#9572a2" stroke-width="1.51"></path><path d="M892,588L840,680L930,649Z" fill="#7e5292" stroke="#7e5292" stroke-width="1.51"></path><path d="M815,1236L828,1299L914,1221Z" fill="#6f086b" stroke="#6f086b" stroke-width="1.51"></path><path d="M889,1081L820,1152L927,1134Z" fill="#771575" stroke="#771575" stroke-width="1.51"></path><path d="M891,-37L826,69L926,9Z" fill="#a980ab" stroke="#a980ab" stroke-width="1.51"></path><path d="M816,514L834,584L892,588Z" fill="#885e9d" stroke="#885e9d" stroke-width="1.51"></path><path d="M822,730L856,836L920,757Z" fill="#7f448e" stroke="#7f448e" stroke-width="1.51"></path><path d="M860,-46L826,69L891,-37Z" fill="#ae82b0" stroke="#ae82b0" stroke-width="1.51"></path><path d="M866,174L842,287L894,186Z" fill="#9c76a7" stroke="#9c76a7" stroke-width="1.51"></path><path d="M854,904L810,977L900,998Z" fill="#7f2d87" stroke="#7f2d87" stroke-width="1.51"></path><path d="M834,1070L889,1081L900,998Z" fill="#79207c" stroke="#79207c" stroke-width="1.51"></path><path d="M820,1152L815,1236L914,1221Z" fill="#770c72" stroke="#770c72" stroke-width="1.51"></path><path d="M414,1325L344,1348L665,1348Z" fill="#714684" stroke="#714684" stroke-width="1.51"></path><path d="M834,584L840,680L892,588Z" fill="#845799" stroke="#845799" stroke-width="1.51"></path><path d="M809,367L845,427L908,365Z" fill="#916ea4" stroke="#916ea4" stroke-width="1.51"></path><path d="M842,287L809,367L908,365Z" fill="#9570a6" stroke="#9570a6" stroke-width="1.51"></path><path d="M834,1070L820,1152L889,1081Z" fill="#7d1a7d" stroke="#7d1a7d" stroke-width="1.51"></path><path d="M810,977L834,1070L900,998Z" fill="#7f2684" stroke="#7f2684" stroke-width="1.51"></path><path d="M768,212L842,287L866,174Z" fill="#a479af" stroke="#a479af" stroke-width="1.51"></path><path d="M783,1005L791,1052L810,977Z" fill="#852d8c" stroke="#852d8c" stroke-width="1.51"></path><path d="M753,770L760,825L822,730Z" fill="#894c9c" stroke="#894c9c" stroke-width="1.51"></path><path d="M810,977L791,1052L834,1070Z" fill="#842789" stroke="#842789" stroke-width="1.51"></path><path d="M822,730L760,825L856,836Z" fill="#884597" stroke="#884597" stroke-width="1.51"></path><path d="M849,-146L771,-47L860,-46Z" fill="#b988b8" stroke="#b988b8" stroke-width="1.51"></path><path d="M771,-47L826,69L860,-46Z" fill="#b787b8" stroke="#b787b8" stroke-width="1.51"></path><path d="M826,99L755,126L866,174Z" fill="#ac7fb3" stroke="#ac7fb3" stroke-width="1.51"></path><path d="M755,126L768,212L866,174Z" fill="#a97fb5" stroke="#a97fb5" stroke-width="1.51"></path><path d="M834,584L768,671L840,680Z" fill="#8b589e" stroke="#8b589e" stroke-width="1.51"></path><path d="M752,-147L771,-47L849,-146Z" fill="#bd8ebe" stroke="#bd8ebe" stroke-width="1.51"></path><path d="M760,825L752,912L854,904Z" fill="#883f95" stroke="#883f95" stroke-width="1.51"></path><path d="M760,825L854,904L856,836Z" fill="#873d92" stroke="#873d92" stroke-width="1.51"></path><path d="M768,307L809,367L842,287Z" fill="#9e76af" stroke="#9e76af" stroke-width="1.51"></path><path d="M752,912L810,977L854,904Z" fill="#863690" stroke="#863690" stroke-width="1.51"></path><path d="M771,-47L744,69L826,69Z" fill="#b58abc" stroke="#b58abc" stroke-width="1.51"></path><path d="M768,212L768,307L842,287Z" fill="#a27ab2" stroke="#a27ab2" stroke-width="1.51"></path><path d="M735,416L816,514L845,427Z" fill="#946dab" stroke="#946dab" stroke-width="1.51"></path><path d="M791,1052L820,1152L834,1070Z" fill="#831e83" stroke="#831e83" stroke-width="1.51"></path><path d="M757,572L768,671L834,584Z" fill="#8c5fa4" stroke="#8c5fa4" stroke-width="1.51"></path><path d="M809,367L735,416L845,427Z" fill="#9773ad" stroke="#9773ad" stroke-width="1.51"></path><path d="M816,514L757,572L834,584Z" fill="#8e63a5" stroke="#8e63a5" stroke-width="1.51"></path><path d="M768,671L822,730L840,680Z" fill="#8b529d" stroke="#8b529d" stroke-width="1.51"></path><path d="M735,416L731,508L816,514Z" fill="#9370ae" stroke="#9370ae" stroke-width="1.51"></path><path d="M741,1181L815,1236L820,1152Z" fill="#7f167c" stroke="#7f167c" stroke-width="1.51"></path><path d="M741,1181L739,1222L815,1236Z" fill="#7d1b7d" stroke="#7d1b7d" stroke-width="1.51"></path><path d="M791,1052L741,1181L820,1152Z" fill="#831f83" stroke="#831f83" stroke-width="1.51"></path><path d="M744,69L826,99L826,69Z" fill="#b184b8" stroke="#b184b8" stroke-width="1.51"></path><path d="M815,1236L729,1311L828,1299Z" fill="#721271" stroke="#721271" stroke-width="1.51"></path><path d="M739,1222L729,1311L815,1236Z" fill="#761a77" stroke="#761a77" stroke-width="1.51"></path><path d="M744,69L755,126L826,99Z" fill="#b087ba" stroke="#b087ba" stroke-width="1.51"></path><path d="M706,24L744,69L771,-47Z" fill="#b68fc1" stroke="#b68fc1" stroke-width="1.51"></path><path d="M768,671L753,770L822,730Z" fill="#8a529e" stroke="#8a529e" stroke-width="1.51"></path><path d="M731,508L757,572L816,514Z" fill="#906aaa" stroke="#906aaa" stroke-width="1.51"></path><path d="M654,1107L741,1181L791,1052Z" fill="#852b8b" stroke="#852b8b" stroke-width="1.51"></path><path d="M768,307L732,361L809,367Z" fill="#9c79b2" stroke="#9c79b2" stroke-width="1.51"></path><path d="M732,361L735,416L809,367Z" fill="#9978b2" stroke="#9978b2" stroke-width="1.51"></path><path d="M752,912L783,1005L810,977Z" fill="#863592" stroke="#863592" stroke-width="1.51"></path><path d="M444,-140L603,-119L648,-133Z" fill="#c0add4" stroke="#c0add4" stroke-width="1.51"></path><path d="M757,572L705,627L768,671Z" fill="#8c63a8" stroke="#8c63a8" stroke-width="1.51"></path><path d="M678,285L768,307L768,212Z" fill="#a381b9" stroke="#a381b9" stroke-width="1.51"></path><path d="M752,912L697,1010L783,1005Z" fill="#873895" stroke="#873895" stroke-width="1.51"></path><path d="M697,1010L654,1107L791,1052Z" fill="#873492" stroke="#873492" stroke-width="1.51"></path><path d="M783,1005L697,1010L791,1052Z" fill="#863190" stroke="#863190" stroke-width="1.51"></path><path d="M519,1304L414,1325L665,1348Z" fill="#723d81" stroke="#723d81" stroke-width="1.51"></path><path d="M674,689L753,770L768,671Z" fill="#8b5aa5" stroke="#8b5aa5" stroke-width="1.51"></path><path d="M752,-147L678,-45L771,-47Z" fill="#bc94c4" stroke="#bc94c4" stroke-width="1.51"></path><path d="M654,1107L654,1149L741,1181Z" fill="#852f8e" stroke="#852f8e" stroke-width="1.51"></path><path d="M676,930L697,1010L752,912Z" fill="#88419b" stroke="#88419b" stroke-width="1.51"></path><path d="M674,689L666,752L753,770Z" fill="#8b5ba8" stroke="#8b5ba8" stroke-width="1.51"></path><path d="M699,117L672,209L755,126Z" fill="#ac8bc0" stroke="#ac8bc0" stroke-width="1.51"></path><path d="M691,829L752,912L760,825Z" fill="#89489d" stroke="#89489d" stroke-width="1.51"></path><path d="M755,126L672,209L768,212Z" fill="#aa87bd" stroke="#aa87bd" stroke-width="1.51"></path><path d="M672,209L678,285L768,212Z" fill="#a587be" stroke="#a587be" stroke-width="1.51"></path><path d="M678,-45L706,24L771,-47Z" fill="#b993c5" stroke="#b993c5" stroke-width="1.51"></path><path d="M648,-133L678,-45L752,-147Z" fill="#bf9aca" stroke="#bf9aca" stroke-width="1.51"></path><path d="M705,627L674,689L768,671Z" fill="#8c62a9" stroke="#8c62a9" stroke-width="1.51"></path><path d="M703,349L732,361L768,307Z" fill="#9c7eb7" stroke="#9c7eb7" stroke-width="1.51"></path><path d="M678,285L703,349L768,307Z" fill="#9f81ba" stroke="#9f81ba" stroke-width="1.51"></path><path d="M691,829L676,930L752,912Z" fill="#89499e" stroke="#89499e" stroke-width="1.51"></path><path d="M744,69L699,117L755,126Z" fill="#b08bbf" stroke="#b08bbf" stroke-width="1.51"></path><path d="M731,508L689,539L757,572Z" fill="#906eaf" stroke="#906eaf" stroke-width="1.51"></path><path d="M753,770L691,829L760,825Z" fill="#8a4e9f" stroke="#8a4e9f" stroke-width="1.51"></path><path d="M672,421L731,508L735,416Z" fill="#9578b5" stroke="#9578b5" stroke-width="1.51"></path><path d="M667,1228L729,1311L739,1222Z" fill="#79237d" stroke="#79237d" stroke-width="1.51"></path><path d="M689,539L705,627L757,572Z" fill="#8e6bae" stroke="#8e6bae" stroke-width="1.51"></path><path d="M666,752L691,829L753,770Z" fill="#8a54a4" stroke="#8a54a4" stroke-width="1.51"></path><path d="M732,361L703,349L735,416Z" fill="#997db7" stroke="#997db7" stroke-width="1.51"></path><path d="M667,1228L739,1222L741,1181Z" fill="#7f2482" stroke="#7f2482" stroke-width="1.51"></path><path d="M706,24L699,117L744,69Z" fill="#b390c2" stroke="#b390c2" stroke-width="1.51"></path><path d="M703,349L672,421L735,416Z" fill="#987eb9" stroke="#987eb9" stroke-width="1.51"></path><path d="M654,1149L667,1228L741,1181Z" fill="#822a89" stroke="#822a89" stroke-width="1.51"></path><path d="M672,421L630,494L731,508Z" fill="#937ab8" stroke="#937ab8" stroke-width="1.51"></path><path d="M667,1228L628,1309L729,1311Z" fill="#75287d" stroke="#75287d" stroke-width="1.51"></path><path d="M630,494L689,539L731,508Z" fill="#9175b5" stroke="#9175b5" stroke-width="1.51"></path><path d="M628,1309L665,1348L729,1311Z" fill="#702678" stroke="#702678" stroke-width="1.51"></path><path d="M618,1060L654,1107L697,1010Z" fill="#883d97" stroke="#883d97" stroke-width="1.51"></path><path d="M676,930L608,1006L697,1010Z" fill="#89449e" stroke="#89449e" stroke-width="1.51"></path><path d="M612,184L672,209L699,117Z" fill="#ab91c5" stroke="#ab91c5" stroke-width="1.51"></path><path d="M689,539L601,617L705,627Z" fill="#8d70b3" stroke="#8d70b3" stroke-width="1.51"></path><path d="M601,617L674,689L705,627Z" fill="#8d6bb0" stroke="#8d6bb0" stroke-width="1.51"></path><path d="M607,54L699,117L706,24Z" fill="#b395c7" stroke="#b395c7" stroke-width="1.51"></path><path d="M678,-45L607,54L706,24Z" fill="#b899ca" stroke="#b899ca" stroke-width="1.51"></path><path d="M595,811L676,930L691,829Z" fill="#8a53a5" stroke="#8a53a5" stroke-width="1.51"></path><path d="M587,367L672,421L703,349Z" fill="#9985be" stroke="#9985be" stroke-width="1.51"></path><path d="M593,-31L607,54L678,-45Z" fill="#b99fcd" stroke="#b99fcd" stroke-width="1.51"></path><path d="M678,285L587,367L703,349Z" fill="#9d88bf" stroke="#9d88bf" stroke-width="1.51"></path><path d="M595,811L571,920L676,930Z" fill="#8a56a6" stroke="#8a56a6" stroke-width="1.51"></path><path d="M666,752L595,811L691,829Z" fill="#8b5aa8" stroke="#8b5aa8" stroke-width="1.51"></path><path d="M608,1006L618,1060L697,1010Z" fill="#89439c" stroke="#89439c" stroke-width="1.51"></path><path d="M582,123L612,184L699,117Z" fill="#ad96c8" stroke="#ad96c8" stroke-width="1.51"></path><path d="M607,54L582,123L699,117Z" fill="#b199c9" stroke="#b199c9" stroke-width="1.51"></path><path d="M648,-133L603,-119L678,-45Z" fill="#bea0ce" stroke="#bea0ce" stroke-width="1.51"></path><path d="M630,494L601,617L689,539Z" fill="#9078b7" stroke="#9078b7" stroke-width="1.51"></path><path d="M614,753L595,811L666,752Z" fill="#8b61ac" stroke="#8b61ac" stroke-width="1.51"></path><path d="M672,209L572,259L678,285Z" fill="#a48fc3" stroke="#a48fc3" stroke-width="1.51"></path><path d="M444,-140L521,-105L603,-119Z" fill="#bfb3d7" stroke="#bfb3d7" stroke-width="1.51"></path><path d="M628,1309L519,1304L665,1348Z" fill="#71327d" stroke="#71327d" stroke-width="1.51"></path><path d="M589,1262L628,1309L667,1228Z" fill="#793183" stroke="#793183" stroke-width="1.51"></path><path d="M587,367L585,415L672,421Z" fill="#9889c0" stroke="#9889c0" stroke-width="1.51"></path><path d="M612,184L572,259L672,209Z" fill="#a693c6" stroke="#a693c6" stroke-width="1.51"></path><path d="M614,753L666,752L674,689Z" fill="#8c62ac" stroke="#8c62ac" stroke-width="1.51"></path><path d="M601,617L590,672L674,689Z" fill="#8d6fb2" stroke="#8d6fb2" stroke-width="1.51"></path><path d="M571,920L608,1006L676,930Z" fill="#8a4ea3" stroke="#8a4ea3" stroke-width="1.51"></path><path d="M572,259L587,367L678,285Z" fill="#a08fc4" stroke="#a08fc4" stroke-width="1.51"></path><path d="M603,-119L593,-31L678,-45Z" fill="#bca1ce" stroke="#bca1ce" stroke-width="1.51"></path><path d="M585,415L630,494L672,421Z" fill="#9584bd" stroke="#9584bd" stroke-width="1.51"></path><path d="M590,672L614,753L674,689Z" fill="#8c69af" stroke="#8c69af" stroke-width="1.51"></path><path d="M654,1149L629,1136L667,1228Z" fill="#86328e" stroke="#86328e" stroke-width="1.51"></path><path d="M629,1136L589,1262L667,1228Z" fill="#81348b" stroke="#81348b" stroke-width="1.51"></path><path d="M-31,-136L135,-103L364,-148Z" fill="#d5e3ef" stroke="#d5e3ef" stroke-width="1.51"></path><path d="M629,1136L654,1149L654,1107Z" fill="#873792" stroke="#873792" stroke-width="1.51"></path><path d="M534,1176L589,1262L629,1136Z" fill="#843c90" stroke="#843c90" stroke-width="1.51"></path><path d="M541,497L601,617L630,494Z" fill="#9080bb" stroke="#9080bb" stroke-width="1.51"></path><path d="M618,1060L629,1136L654,1107Z" fill="#873d96" stroke="#873d96" stroke-width="1.51"></path><path d="M541,497L517,578L601,617Z" fill="#8f82bc" stroke="#8f82bc" stroke-width="1.51"></path><path d="M618,1060L508,1102L629,1136Z" fill="#884499" stroke="#884499" stroke-width="1.51"></path><path d="M508,1102L534,1176L629,1136Z" fill="#884598" stroke="#884598" stroke-width="1.51"></path><path d="M585,415L541,497L630,494Z" fill="#9487bf" stroke="#9487bf" stroke-width="1.51"></path><path d="M589,1262L519,1304L628,1309Z" fill="#763882" stroke="#763882" stroke-width="1.51"></path><path d="M544,428L541,497L585,415Z" fill="#958ec2" stroke="#958ec2" stroke-width="1.51"></path><path d="M519,898L571,920L595,811Z" fill="#8c5fab" stroke="#8c5fab" stroke-width="1.51"></path><path d="M507,841L519,898L595,811Z" fill="#8c65ae" stroke="#8c65ae" stroke-width="1.51"></path><path d="M521,-105L593,-31L603,-119Z" fill="#bdaad2" stroke="#bdaad2" stroke-width="1.51"></path><path d="M529,180L572,259L612,184Z" fill="#a79bca" stroke="#a79bca" stroke-width="1.51"></path><path d="M590,672L517,674L614,753Z" fill="#8c71b3" stroke="#8c71b3" stroke-width="1.51"></path><path d="M608,1006L493,1013L618,1060Z" fill="#8a4ea0" stroke="#8a4ea0" stroke-width="1.51"></path><path d="M493,1013L508,1102L618,1060Z" fill="#8a4fa0" stroke="#8a4fa0" stroke-width="1.51"></path><path d="M572,259L535,370L587,367Z" fill="#9e94c6" stroke="#9e94c6" stroke-width="1.51"></path><path d="M521,-105L514,-61L593,-31Z" fill="#bcadd5" stroke="#bcadd5" stroke-width="1.51"></path><path d="M593,-31L492,35L607,54Z" fill="#b7a7d1" stroke="#b7a7d1" stroke-width="1.51"></path><path d="M582,123L529,180L612,184Z" fill="#ab9dcb" stroke="#ab9dcb" stroke-width="1.51"></path><path d="M517,674L490,781L614,753Z" fill="#8d71b4" stroke="#8d71b4" stroke-width="1.51"></path><path d="M490,781L595,811L614,753Z" fill="#8c69af" stroke="#8c69af" stroke-width="1.51"></path><path d="M526,264L535,370L572,259Z" fill="#a09ac8" stroke="#a09ac8" stroke-width="1.51"></path><path d="M534,114L582,123L607,54Z" fill="#b1a1cd" stroke="#b1a1cd" stroke-width="1.51"></path><path d="M571,920L493,1013L608,1006Z" fill="#8a54a6" stroke="#8a54a6" stroke-width="1.51"></path><path d="M534,1176L510,1244L589,1262Z" fill="#80418e" stroke="#80418e" stroke-width="1.51"></path><path d="M492,35L534,114L607,54Z" fill="#b3a7d0" stroke="#b3a7d0" stroke-width="1.51"></path><path d="M517,674L590,672L601,617Z" fill="#8d77b6" stroke="#8d77b6" stroke-width="1.51"></path><path d="M517,578L517,674L601,617Z" fill="#8d7eb9" stroke="#8d7eb9" stroke-width="1.51"></path><path d="M535,370L585,415L587,367Z" fill="#9991c4" stroke="#9991c4" stroke-width="1.51"></path><path d="M514,-61L492,35L593,-31Z" fill="#b9add4" stroke="#b9add4" stroke-width="1.51"></path><path d="M490,781L507,841L595,811Z" fill="#8c6bb0" stroke="#8c6bb0" stroke-width="1.51"></path><path d="M529,180L526,264L572,259Z" fill="#a69dcb" stroke="#a69dcb" stroke-width="1.51"></path><path d="M534,114L529,180L582,123Z" fill="#ada3ce" stroke="#ada3ce" stroke-width="1.51"></path><path d="M535,370L544,428L585,415Z" fill="#9792c4" stroke="#9792c4" stroke-width="1.51"></path><path d="M510,1244L519,1304L589,1262Z" fill="#7a3f88" stroke="#7a3f88" stroke-width="1.51"></path><path d="M519,898L493,1013L571,920Z" fill="#8b5daa" stroke="#8b5daa" stroke-width="1.51"></path><path d="M458,755L490,781L517,674Z" fill="#8d79b8" stroke="#8d79b8" stroke-width="1.51"></path><path d="M458,673L517,674L517,578Z" fill="#8d83bc" stroke="#8d83bc" stroke-width="1.51"></path><path d="M471,1012L493,1013L519,898Z" fill="#8b5fab" stroke="#8b5fab" stroke-width="1.51"></path><path d="M430,909L471,1012L519,898Z" fill="#8c66ae" stroke="#8c66ae" stroke-width="1.51"></path><path d="M464,203L526,264L529,180Z" fill="#a7a4ce" stroke="#a7a4ce" stroke-width="1.51"></path><path d="M492,35L460,50L534,114Z" fill="#b4afd4" stroke="#b4afd4" stroke-width="1.51"></path><path d="M526,264L422,297L535,370Z" fill="#9fa0cc" stroke="#9fa0cc" stroke-width="1.51"></path><path d="M422,297L411,350L535,370Z" fill="#9ca5ce" stroke="#9ca5ce" stroke-width="1.51"></path><path d="M417,510L517,578L541,497Z" fill="#918fc3" stroke="#918fc3" stroke-width="1.51"></path><path d="M464,435L541,497L544,428Z" fill="#9492c5" stroke="#9492c5" stroke-width="1.51"></path><path d="M535,370L464,435L544,428Z" fill="#9697c7" stroke="#9697c7" stroke-width="1.51"></path><path d="M436,602L458,673L517,578Z" fill="#8d8abf" stroke="#8d8abf" stroke-width="1.51"></path><path d="M464,203L529,180L534,114Z" fill="#aba7d0" stroke="#aba7d0" stroke-width="1.51"></path><path d="M464,435L417,510L541,497Z" fill="#9396c7" stroke="#9396c7" stroke-width="1.51"></path><path d="M458,673L458,755L517,674Z" fill="#8d7fba" stroke="#8d7fba" stroke-width="1.51"></path><path d="M508,1102L417,1140L534,1176Z" fill="#8a519d" stroke="#8a519d" stroke-width="1.51"></path><path d="M423,1233L510,1244L534,1176Z" fill="#834b93" stroke="#834b93" stroke-width="1.51"></path><path d="M413,90L464,203L534,114Z" fill="#aeafd3" stroke="#aeafd3" stroke-width="1.51"></path><path d="M411,350L464,435L535,370Z" fill="#98a0cb" stroke="#98a0cb" stroke-width="1.51"></path><path d="M417,1140L423,1233L534,1176Z" fill="#88529a" stroke="#88529a" stroke-width="1.51"></path><path d="M460,50L413,90L534,114Z" fill="#b2b2d6" stroke="#b2b2d6" stroke-width="1.51"></path><path d="M493,1013L471,1012L508,1102Z" fill="#8b59a5" stroke="#8b59a5" stroke-width="1.51"></path><path d="M415,-50L492,35L514,-61Z" fill="#bab7d9" stroke="#bab7d9" stroke-width="1.51"></path><path d="M471,1012L429,1052L508,1102Z" fill="#8b5ca6" stroke="#8b5ca6" stroke-width="1.51"></path><path d="M464,203L422,297L526,264Z" fill="#a3a7cf" stroke="#a3a7cf" stroke-width="1.51"></path><path d="M179,1329L112,1349L344,1348Z" fill="#826794" stroke="#826794" stroke-width="1.51"></path><path d="M417,510L436,602L517,578Z" fill="#8f91c3" stroke="#8f91c3" stroke-width="1.51"></path><path d="M510,1244L423,1233L519,1304Z" fill="#7d498d" stroke="#7d498d" stroke-width="1.51"></path><path d="M423,1233L414,1325L519,1304Z" fill="#794c8c" stroke="#794c8c" stroke-width="1.51"></path><path d="M507,841L430,909L519,898Z" fill="#8c6ab0" stroke="#8c6ab0" stroke-width="1.51"></path><path d="M444,-140L514,-61L521,-105Z" fill="#bfb7d9" stroke="#bfb7d9" stroke-width="1.51"></path><path d="M444,-140L415,-50L514,-61Z" fill="#bdbcdb" stroke="#bdbcdb" stroke-width="1.51"></path><path d="M415,-50L460,50L492,35Z" fill="#b8b8d9" stroke="#b8b8d9" stroke-width="1.51"></path><path d="M490,781L413,810L507,841Z" fill="#8d74b5" stroke="#8d74b5" stroke-width="1.51"></path><path d="M413,810L430,909L507,841Z" fill="#8d73b4" stroke="#8d73b4" stroke-width="1.51"></path><path d="M429,1052L417,1140L508,1102Z" fill="#8b5aa3" stroke="#8b5aa3" stroke-width="1.51"></path><path d="M430,909L391,998L471,1012Z" fill="#8c69af" stroke="#8c69af" stroke-width="1.51"></path><path d="M458,755L413,810L490,781Z" fill="#8d7ab8" stroke="#8d7ab8" stroke-width="1.51"></path><path d="M417,1140L386,1166L423,1233Z" fill="#8a5a9e" stroke="#8a5a9e" stroke-width="1.51"></path><path d="M386,1083L417,1140L429,1052Z" fill="#8c62a6" stroke="#8c62a6" stroke-width="1.51"></path><path d="M413,90L383,95L464,203Z" fill="#aeb7d8" stroke="#aeb7d8" stroke-width="1.51"></path><path d="M383,95L344,208L464,203Z" fill="#aab8d8" stroke="#aab8d8" stroke-width="1.51"></path><path d="M344,208L422,297L464,203Z" fill="#a4b2d4" stroke="#a4b2d4" stroke-width="1.51"></path><path d="M391,998L429,1052L471,1012Z" fill="#8c65ab" stroke="#8c65ab" stroke-width="1.51"></path><path d="M252,1322L179,1329L344,1348Z" fill="#7e6493" stroke="#7e6493" stroke-width="1.51"></path><path d="M413,810L377,893L430,909Z" fill="#8d78b6" stroke="#8d78b6" stroke-width="1.51"></path><path d="M382,-71L415,-50L444,-140Z" fill="#bdc3df" stroke="#bdc3df" stroke-width="1.51"></path><path d="M343,665L349,775L458,755Z" fill="#8e89bf" stroke="#8e89bf" stroke-width="1.51"></path><path d="M343,665L458,755L458,673Z" fill="#8d88bf" stroke="#8d88bf" stroke-width="1.51"></path><path d="M415,-50L338,28L460,50Z" fill="#b8c1dd" stroke="#b8c1dd" stroke-width="1.51"></path><path d="M341,423L417,510L464,435Z" fill="#93a3cd" stroke="#93a3cd" stroke-width="1.51"></path><path d="M411,350L341,423L464,435Z" fill="#96a8cf" stroke="#96a8cf" stroke-width="1.51"></path><path d="M417,510L376,524L436,602Z" fill="#8f9ac8" stroke="#8f9ac8" stroke-width="1.51"></path><path d="M436,602L343,665L458,673Z" fill="#8d8fc2" stroke="#8d8fc2" stroke-width="1.51"></path><path d="M338,28L413,90L460,50Z" fill="#b4bedb" stroke="#b4bedb" stroke-width="1.51"></path><path d="M349,775L413,810L458,755Z" fill="#8d81bb" stroke="#8d81bb" stroke-width="1.51"></path><path d="M344,208L386,304L422,297Z" fill="#a2b3d5" stroke="#a2b3d5" stroke-width="1.51"></path><path d="M339,629L343,665L436,602Z" fill="#8e96c6" stroke="#8e96c6" stroke-width="1.51"></path><path d="M364,-148L382,-71L444,-140Z" fill="#bfc7e0" stroke="#bfc7e0" stroke-width="1.51"></path><path d="M338,28L383,95L413,90Z" fill="#b4c1dd" stroke="#b4c1dd" stroke-width="1.51"></path><path d="M341,423L376,524L417,510Z" fill="#93a4cd" stroke="#93a4cd" stroke-width="1.51"></path><path d="M386,304L411,350L422,297Z" fill="#9dadd2" stroke="#9dadd2" stroke-width="1.51"></path><path d="M334,1257L414,1325L423,1233Z" fill="#7d5793" stroke="#7d5793" stroke-width="1.51"></path><path d="M377,893L391,998L430,909Z" fill="#8c72b4" stroke="#8c72b4" stroke-width="1.51"></path><path d="M376,524L339,629L436,602Z" fill="#8e99c8" stroke="#8e99c8" stroke-width="1.51"></path><path d="M352,821L377,893L413,810Z" fill="#8e7eba" stroke="#8e7eba" stroke-width="1.51"></path><path d="M391,998L386,1083L429,1052Z" fill="#8c67ac" stroke="#8c67ac" stroke-width="1.51"></path><path d="M382,-71L338,28L415,-50Z" fill="#bbc6e0" stroke="#bbc6e0" stroke-width="1.51"></path><path d="M386,1166L334,1257L423,1233Z" fill="#865c9b" stroke="#865c9b" stroke-width="1.51"></path><path d="M135,-103L173,-90L364,-148Z" fill="#ccddec" stroke="#ccddec" stroke-width="1.51"></path><path d="M377,893L307,951L391,998Z" fill="#9076b6" stroke="#9076b6" stroke-width="1.51"></path><path d="M386,304L363,328L411,350Z" fill="#9db0d3" stroke="#9db0d3" stroke-width="1.51"></path><path d="M363,328L341,423L411,350Z" fill="#9bafd3" stroke="#9bafd3" stroke-width="1.51"></path><path d="M334,1257L344,1348L414,1325Z" fill="#7a588f" stroke="#7a588f" stroke-width="1.51"></path><path d="M386,1083L386,1166L417,1140Z" fill="#8c61a4" stroke="#8c61a4" stroke-width="1.51"></path><path d="M349,775L352,821L413,810Z" fill="#8f83bd" stroke="#8f83bd" stroke-width="1.51"></path><path d="M304,182L344,208L383,95Z" fill="#aec0dc" stroke="#aec0dc" stroke-width="1.51"></path><path d="M173,-90L288,-89L364,-148Z" fill="#c7d8e9" stroke="#c7d8e9" stroke-width="1.51"></path><path d="M364,-148L288,-89L382,-71Z" fill="#c2cde4" stroke="#c2cde4" stroke-width="1.51"></path><path d="M288,-89L338,28L382,-71Z" fill="#bfcce3" stroke="#bfcce3" stroke-width="1.51"></path><path d="M279,120L304,182L383,95Z" fill="#b2c4df" stroke="#b2c4df" stroke-width="1.51"></path><path d="M302,1223L334,1257L386,1166Z" fill="#89619e" stroke="#89619e" stroke-width="1.51"></path><path d="M301,1189L302,1223L386,1166Z" fill="#8e65a2" stroke="#8e65a2" stroke-width="1.51"></path><path d="M301,1189L386,1166L386,1083Z" fill="#8f64a5" stroke="#8f64a5" stroke-width="1.51"></path><path d="M264,1073L301,1189L386,1083Z" fill="#926cab" stroke="#926cab" stroke-width="1.51"></path><path d="M265,283L363,328L386,304Z" fill="#a2b8d8" stroke="#a2b8d8" stroke-width="1.51"></path><path d="M344,208L265,283L386,304Z" fill="#a6bbda" stroke="#a6bbda" stroke-width="1.51"></path><path d="M307,951L279,975L391,998Z" fill="#9278b7" stroke="#9278b7" stroke-width="1.51"></path><path d="M264,1073L386,1083L391,998Z" fill="#906eaf" stroke="#906eaf" stroke-width="1.51"></path><path d="M279,975L264,1073L391,998Z" fill="#9376b5" stroke="#9376b5" stroke-width="1.51"></path><path d="M290,356L341,423L363,328Z" fill="#9db5d6" stroke="#9db5d6" stroke-width="1.51"></path><path d="M261,575L339,629L376,524Z" fill="#92a2cd" stroke="#92a2cd" stroke-width="1.51"></path><path d="M260,546L261,575L376,524Z" fill="#95a8cf" stroke="#95a8cf" stroke-width="1.51"></path><path d="M341,423L290,434L376,524Z" fill="#97acd2" stroke="#97acd2" stroke-width="1.51"></path><path d="M288,-89L263,-63L338,28Z" fill="#c1d1e6" stroke="#c1d1e6" stroke-width="1.51"></path><path d="M338,28L283,68L383,95Z" fill="#b8c7e0" stroke="#b8c7e0" stroke-width="1.51"></path><path d="M283,68L279,120L383,95Z" fill="#b6c8e0" stroke="#b6c8e0" stroke-width="1.51"></path><path d="M343,665L275,774L349,775Z" fill="#9291c4" stroke="#9291c4" stroke-width="1.51"></path><path d="M266,814L307,951L352,821Z" fill="#9386be" stroke="#9386be" stroke-width="1.51"></path><path d="M290,434L260,546L376,524Z" fill="#97acd1" stroke="#97acd1" stroke-width="1.51"></path><path d="M352,821L307,951L377,893Z" fill="#907eba" stroke="#907eba" stroke-width="1.51"></path><path d="M281,662L275,774L343,665Z" fill="#9498c7" stroke="#9498c7" stroke-width="1.51"></path><path d="M265,283L290,356L363,328Z" fill="#a3bbd9" stroke="#a3bbd9" stroke-width="1.51"></path><path d="M334,1257L252,1322L344,1348Z" fill="#7e5f93" stroke="#7e5f93" stroke-width="1.51"></path><path d="M304,182L265,283L344,208Z" fill="#abc1dd" stroke="#abc1dd" stroke-width="1.51"></path><path d="M349,775L275,774L352,821Z" fill="#928bc1" stroke="#928bc1" stroke-width="1.51"></path><path d="M275,774L266,814L352,821Z" fill="#948dc2" stroke="#948dc2" stroke-width="1.51"></path><path d="M290,356L290,434L341,423Z" fill="#9cb6d6" stroke="#9cb6d6" stroke-width="1.51"></path><path d="M266,814L205,914L307,951Z" fill="#9789c0" stroke="#9789c0" stroke-width="1.51"></path><path d="M339,629L281,662L343,665Z" fill="#929ac8" stroke="#929ac8" stroke-width="1.51"></path><path d="M263,-63L283,68L338,28Z" fill="#bed0e5" stroke="#bed0e5" stroke-width="1.51"></path><path d="M261,575L281,662L339,629Z" fill="#93a2cc" stroke="#93a2cc" stroke-width="1.51"></path><path d="M302,1223L252,1322L334,1257Z" fill="#85649a" stroke="#85649a" stroke-width="1.51"></path><path d="M190,857L205,914L266,814Z" fill="#9b8fc3" stroke="#9b8fc3" stroke-width="1.51"></path><path d="M222,682L275,774L281,662Z" fill="#969dca" stroke="#969dca" stroke-width="1.51"></path><path d="M263,-63L203,-29L283,68Z" fill="#c3d6e8" stroke="#c3d6e8" stroke-width="1.51"></path><path d="M211,462L260,546L290,434Z" fill="#9cb5d7" stroke="#9cb5d7" stroke-width="1.51"></path><path d="M228,369L290,434L290,356Z" fill="#a0bcda" stroke="#a0bcda" stroke-width="1.51"></path><path d="M264,1073L213,1095L301,1189Z" fill="#9674af" stroke="#9674af" stroke-width="1.51"></path><path d="M213,1095L195,1181L301,1189Z" fill="#9973ad" stroke="#9973ad" stroke-width="1.51"></path><path d="M172,1271L252,1322L302,1223Z" fill="#896a9d" stroke="#896a9d" stroke-width="1.51"></path><path d="M175,219L265,283L304,182Z" fill="#b0c8e0" stroke="#b0c8e0" stroke-width="1.51"></path><path d="M205,914L279,975L307,951Z" fill="#9783bc" stroke="#9783bc" stroke-width="1.51"></path><path d="M211,990L264,1073L279,975Z" fill="#987eb9" stroke="#987eb9" stroke-width="1.51"></path><path d="M301,1189L195,1181L302,1223Z" fill="#916ca6" stroke="#916ca6" stroke-width="1.51"></path><path d="M279,120L175,219L304,182Z" fill="#b4cbe2" stroke="#b4cbe2" stroke-width="1.51"></path><path d="M195,1181L172,1271L302,1223Z" fill="#926ea4" stroke="#926ea4" stroke-width="1.51"></path><path d="M175,219L186,262L265,283Z" fill="#b2c9e1" stroke="#b2c9e1" stroke-width="1.51"></path><path d="M211,462L197,510L260,546Z" fill="#9eb5d6" stroke="#9eb5d6" stroke-width="1.51"></path><path d="M222,682L195,771L275,774Z" fill="#9a9bc9" stroke="#9a9bc9" stroke-width="1.51"></path><path d="M195,100L175,219L279,120Z" fill="#bad0e5" stroke="#bad0e5" stroke-width="1.51"></path><path d="M261,575L208,597L281,662Z" fill="#96a8d0" stroke="#96a8d0" stroke-width="1.51"></path><path d="M203,-29L170,19L283,68Z" fill="#c5d8e9" stroke="#c5d8e9" stroke-width="1.51"></path><path d="M173,-90L263,-63L288,-89Z" fill="#c8daeb" stroke="#c8daeb" stroke-width="1.51"></path><path d="M228,369L211,462L290,434Z" fill="#a0bcda" stroke="#a0bcda" stroke-width="1.51"></path><path d="M265,283L228,369L290,356Z" fill="#a5c0dd" stroke="#a5c0dd" stroke-width="1.51"></path><path d="M208,597L222,682L281,662Z" fill="#98a5ce" stroke="#98a5ce" stroke-width="1.51"></path><path d="M195,100L279,120L283,68Z" fill="#bbd0e5" stroke="#bbd0e5" stroke-width="1.51"></path><path d="M205,914L211,990L279,975Z" fill="#9a85bd" stroke="#9a85bd" stroke-width="1.51"></path><path d="M170,19L195,100L283,68Z" fill="#c1d5e8" stroke="#c1d5e8" stroke-width="1.51"></path><path d="M195,771L266,814L275,774Z" fill="#9895c6" stroke="#9895c6" stroke-width="1.51"></path><path d="M211,990L213,1095L264,1073Z" fill="#9a7cb6" stroke="#9a7cb6" stroke-width="1.51"></path><path d="M186,262L228,369L265,283Z" fill="#abc5df" stroke="#abc5df" stroke-width="1.51"></path><path d="M195,771L190,857L266,814Z" fill="#9c94c6" stroke="#9c94c6" stroke-width="1.51"></path><path d="M173,-90L203,-29L263,-63Z" fill="#cadceb" stroke="#cadceb" stroke-width="1.51"></path><path d="M260,546L208,597L261,575Z" fill="#99add2" stroke="#99add2" stroke-width="1.51"></path><path d="M172,1271L179,1329L252,1322Z" fill="#886a99" stroke="#886a99" stroke-width="1.51"></path><path d="M197,510L208,597L260,546Z" fill="#9cb1d4" stroke="#9cb1d4" stroke-width="1.51"></path><path d="M138,119L175,219L195,100Z" fill="#c0d4e7" stroke="#c0d4e7" stroke-width="1.51"></path><path d="M211,990L150,1006L213,1095Z" fill="#9e81ba" stroke="#9e81ba" stroke-width="1.51"></path><path d="M150,1006L121,1061L213,1095Z" fill="#a281b9" stroke="#a281b9" stroke-width="1.51"></path><path d="M114,768L195,771L222,682Z" fill="#a0a0cb" stroke="#a0a0cb" stroke-width="1.51"></path><path d="M208,597L151,629L222,682Z" fill="#9daad1" stroke="#9daad1" stroke-width="1.51"></path><path d="M186,262L124,354L228,369Z" fill="#afc7e0" stroke="#afc7e0" stroke-width="1.51"></path><path d="M120,433L211,462L228,369Z" fill="#a6c1dd" stroke="#a6c1dd" stroke-width="1.51"></path><path d="M124,354L120,433L228,369Z" fill="#acc6e0" stroke="#acc6e0" stroke-width="1.51"></path><path d="M205,914L150,1006L211,990Z" fill="#9f86bf" stroke="#9f86bf" stroke-width="1.51"></path><path d="M151,629L89,685L222,682Z" fill="#a2aad1" stroke="#a2aad1" stroke-width="1.51"></path><path d="M89,685L114,768L222,682Z" fill="#a4a5cf" stroke="#a4a5cf" stroke-width="1.51"></path><path d="M170,19L140,44L195,100Z" fill="#c8daea" stroke="#c8daea" stroke-width="1.51"></path><path d="M99,914L150,1006L205,914Z" fill="#a38cc2" stroke="#a38cc2" stroke-width="1.51"></path><path d="M197,510L102,533L208,597Z" fill="#a3b6d7" stroke="#a3b6d7" stroke-width="1.51"></path><path d="M102,533L151,629L208,597Z" fill="#a2b3d5" stroke="#a2b3d5" stroke-width="1.51"></path><path d="M102,1175L195,1181L213,1095Z" fill="#a078b0" stroke="#a078b0" stroke-width="1.51"></path><path d="M121,1061L102,1175L213,1095Z" fill="#a37db4" stroke="#a37db4" stroke-width="1.51"></path><path d="M114,768L190,857L195,771Z" fill="#a19ac9" stroke="#a19ac9" stroke-width="1.51"></path><path d="M120,433L197,510L211,462Z" fill="#a6bddb" stroke="#a6bddb" stroke-width="1.51"></path><path d="M114,768L89,823L190,857Z" fill="#a59bc9" stroke="#a59bc9" stroke-width="1.51"></path><path d="M90,1231L172,1271L195,1181Z" fill="#9974a6" stroke="#9974a6" stroke-width="1.51"></path><path d="M173,-90L112,-67L203,-29Z" fill="#d0e0ed" stroke="#d0e0ed" stroke-width="1.51"></path><path d="M190,857L99,914L205,914Z" fill="#a290c4" stroke="#a290c4" stroke-width="1.51"></path><path d="M138,119L148,225L175,219Z" fill="#bed2e6" stroke="#bed2e6" stroke-width="1.51"></path><path d="M102,1175L90,1231L195,1181Z" fill="#a178ac" stroke="#a178ac" stroke-width="1.51"></path><path d="M112,-67L170,19L203,-29Z" fill="#cedeec" stroke="#cedeec" stroke-width="1.51"></path><path d="M88,281L124,354L186,262Z" fill="#b7cde3" stroke="#b7cde3" stroke-width="1.51"></path><path d="M140,44L138,119L195,100Z" fill="#c6d8e9" stroke="#c6d8e9" stroke-width="1.51"></path><path d="M120,433L102,533L197,510Z" fill="#a8bddb" stroke="#a8bddb" stroke-width="1.51"></path><path d="M175,219L148,225L186,262Z" fill="#b8cee4" stroke="#b8cee4" stroke-width="1.51"></path><path d="M89,823L99,914L190,857Z" fill="#a696c7" stroke="#a696c7" stroke-width="1.51"></path><path d="M148,225L88,281L186,262Z" fill="#bacfe4" stroke="#bacfe4" stroke-width="1.51"></path><path d="M172,1271L112,1349L179,1329Z" fill="#8c6d9a" stroke="#8c6d9a" stroke-width="1.51"></path><path d="M112,-67L140,44L170,19Z" fill="#cfdfec" stroke="#cfdfec" stroke-width="1.51"></path><path d="M135,-103L112,-67L173,-90Z" fill="#d4e3ef" stroke="#d4e3ef" stroke-width="1.51"></path><path d="M138,119L49,168L148,225Z" fill="#c5d6e8" stroke="#c5d6e8" stroke-width="1.51"></path><path d="M90,1231L112,1349L172,1271Z" fill="#9371a0" stroke="#9371a0" stroke-width="1.51"></path><path d="M59,939L52,974L99,914Z" fill="#ac93c6" stroke="#ac93c6" stroke-width="1.51"></path><path d="M90,1231L32,1290L112,1349Z" fill="#9874a1" stroke="#9874a1" stroke-width="1.51"></path><path d="M45,1148L102,1175L121,1061Z" fill="#a980b5" stroke="#a980b5" stroke-width="1.51"></path><path d="M-31,-136L8,-89L135,-103Z" fill="#e2edf4" stroke="#e2edf4" stroke-width="1.51"></path><path d="M29,95L138,119L140,44Z" fill="#cdddec" stroke="#cdddec" stroke-width="1.51"></path><path d="M112,-67L54,19L140,44Z" fill="#d4e2ef" stroke="#d4e2ef" stroke-width="1.51"></path><path d="M99,914L52,974L150,1006Z" fill="#a98ec3" stroke="#a98ec3" stroke-width="1.51"></path><path d="M102,533L63,630L151,629Z" fill="#a7b6d6" stroke="#a7b6d6" stroke-width="1.51"></path><path d="M63,630L89,685L151,629Z" fill="#a8b0d4" stroke="#a8b0d4" stroke-width="1.51"></path><path d="M52,974L121,1061L150,1006Z" fill="#a889bf" stroke="#a889bf" stroke-width="1.51"></path><path d="M49,168L88,281L148,225Z" fill="#c2d4e7" stroke="#c2d4e7" stroke-width="1.51"></path><path d="M36,470L102,533L120,433Z" fill="#b0c3de" stroke="#b0c3de" stroke-width="1.51"></path><path d="M71,362L120,433L124,354Z" fill="#b3cae2" stroke="#b3cae2" stroke-width="1.51"></path><path d="M54,19L29,95L140,44Z" fill="#d3e2ef" stroke="#d3e2ef" stroke-width="1.51"></path><path d="M29,95L49,168L138,119Z" fill="#cdddec" stroke="#cdddec" stroke-width="1.51"></path><path d="M21,1088L45,1148L121,1061Z" fill="#ac84b9" stroke="#ac84b9" stroke-width="1.51"></path><path d="M88,281L71,362L124,354Z" fill="#b9cee4" stroke="#b9cee4" stroke-width="1.51"></path><path d="M8,-89L112,-67L135,-103Z" fill="#dbe7f1" stroke="#dbe7f1" stroke-width="1.51"></path><path d="M43,311L71,362L88,281Z" fill="#bdd1e6" stroke="#bdd1e6" stroke-width="1.51"></path><path d="M89,685L70,684L114,768Z" fill="#aaaad1" stroke="#aaaad1" stroke-width="1.51"></path><path d="M52,974L21,1088L121,1061Z" fill="#ac8abf" stroke="#ac8abf" stroke-width="1.51"></path><path d="M60,790L89,823L114,768Z" fill="#aaa1cd" stroke="#aaa1cd" stroke-width="1.51"></path><path d="M70,684L60,790L114,768Z" fill="#aba7d0" stroke="#aba7d0" stroke-width="1.51"></path><path d="M71,362L36,470L120,433Z" fill="#b3cae2" stroke="#b3cae2" stroke-width="1.51"></path><path d="M89,823L13,836L99,914Z" fill="#ad9cca" stroke="#ad9cca" stroke-width="1.51"></path><path d="M19,540L63,630L102,533Z" fill="#aebcda" stroke="#aebcda" stroke-width="1.51"></path><path d="M12,-70L54,19L112,-67Z" fill="#dbe8f1" stroke="#dbe8f1" stroke-width="1.51"></path><path d="M8,-89L12,-70L112,-67Z" fill="#dfebf3" stroke="#dfebf3" stroke-width="1.51"></path><path d="M32,1290L-32,1342L112,1349Z" fill="#97759d" stroke="#97759d" stroke-width="1.51"></path><path d="M49,168L-35,269L88,281Z" fill="#c8d9ea" stroke="#c8d9ea" stroke-width="1.51"></path><path d="M63,630L70,684L89,685Z" fill="#acb0d5" stroke="#acb0d5" stroke-width="1.51"></path><path d="M13,836L59,939L99,914Z" fill="#ae98c9" stroke="#ae98c9" stroke-width="1.51"></path><path d="M37,1209L90,1231L102,1175Z" fill="#a57bad" stroke="#a57bad" stroke-width="1.51"></path><path d="M45,1148L37,1209L102,1175Z" fill="#ab7eb2" stroke="#ab7eb2" stroke-width="1.51"></path><path d="M36,470L19,540L102,533Z" fill="#b2c3de" stroke="#b2c3de" stroke-width="1.51"></path><path d="M-35,269L43,311L88,281Z" fill="#c4d7e8" stroke="#c4d7e8" stroke-width="1.51"></path><path d="M-43,209L-35,269L49,168Z" fill="#cfdfec" stroke="#cfdfec" stroke-width="1.51"></path><path d="M37,1209L32,1290L90,1231Z" fill="#a17aa9" stroke="#a17aa9" stroke-width="1.51"></path><path d="M-42,771L60,790L70,684Z" fill="#b1abd2" stroke="#b1abd2" stroke-width="1.51"></path><path d="M60,790L13,836L89,823Z" fill="#afa1cd" stroke="#afa1cd" stroke-width="1.51"></path><path d="M-24,1001L21,1088L52,974Z" fill="#b28fc3" stroke="#b28fc3" stroke-width="1.51"></path><path d="M-37,380L36,470L71,362Z" fill="#bbd0e5" stroke="#bbd0e5" stroke-width="1.51"></path><path d="M13,836L-23,862L59,939Z" fill="#b29dcc" stroke="#b29dcc" stroke-width="1.51"></path><path d="M19,540L-20,615L63,630Z" fill="#b1bddb" stroke="#b1bddb" stroke-width="1.51"></path><path d="M-55,686L-42,771L70,684Z" fill="#b5b2d6" stroke="#b5b2d6" stroke-width="1.51"></path><path d="M63,630L-20,615L70,684Z" fill="#b0b6d7" stroke="#b0b6d7" stroke-width="1.51"></path><path d="M-20,615L-55,686L70,684Z" fill="#b5b7d8" stroke="#b5b7d8" stroke-width="1.51"></path><path d="M43,311L-37,380L71,362Z" fill="#bfd3e7" stroke="#bfd3e7" stroke-width="1.51"></path><path d="M-37,380L-35,454L36,470Z" fill="#bdd1e5" stroke="#bdd1e5" stroke-width="1.51"></path><path d="M-23,862L-47,924L59,939Z" fill="#b59ccb" stroke="#b59ccb" stroke-width="1.51"></path><path d="M-24,1001L-27,1072L21,1088Z" fill="#b58ec1" stroke="#b58ec1" stroke-width="1.51"></path><path d="M12,-70L-55,-35L54,19Z" fill="#e1ecf4" stroke="#e1ecf4" stroke-width="1.51"></path><path d="M-42,53L29,95L54,19Z" fill="#dae7f2" stroke="#dae7f2" stroke-width="1.51"></path><path d="M-42,771L13,836L60,790Z" fill="#b3a7d0" stroke="#b3a7d0" stroke-width="1.51"></path><path d="M-47,924L52,974L59,939Z" fill="#b296c8" stroke="#b296c8" stroke-width="1.51"></path><path d="M-47,924L-24,1001L52,974Z" fill="#b596c8" stroke="#b596c8" stroke-width="1.51"></path><path d="M-55,-35L-42,53L54,19Z" fill="#e0ecf4" stroke="#e0ecf4" stroke-width="1.51"></path><path d="M29,95L-67,140L49,168Z" fill="#d4e3ef" stroke="#d4e3ef" stroke-width="1.51"></path><path d="M-60,1245L32,1290L37,1209Z" fill="#a67eaa" stroke="#a67eaa" stroke-width="1.51"></path><path d="M-63,1135L37,1209L45,1148Z" fill="#b283b6" stroke="#b283b6" stroke-width="1.51"></path><path d="M-67,140L-43,209L49,168Z" fill="#d4e2ef" stroke="#d4e2ef" stroke-width="1.51"></path><path d="M-26,529L19,540L36,470Z" fill="#b7c6e0" stroke="#b7c6e0" stroke-width="1.51"></path><path d="M21,1088L-63,1135L45,1148Z" fill="#b387ba" stroke="#b387ba" stroke-width="1.51"></path><path d="M-35,269L-37,380L43,311Z" fill="#c6d8e9" stroke="#c6d8e9" stroke-width="1.51"></path><path d="M-35,454L-26,529L36,470Z" fill="#bacbe2" stroke="#bacbe2" stroke-width="1.51"></path><path d="M-63,1135L-60,1245L37,1209Z" fill="#b184b4" stroke="#b184b4" stroke-width="1.51"></path><path d="M-63,1135L-93,1185L-60,1245Z" fill="#b686b6" stroke="#b686b6" stroke-width="1.51"></path><path d="M-27,1072L-63,1135L21,1088Z" fill="#b58cbd" stroke="#b58cbd" stroke-width="1.51"></path><path d="M-60,1245L-32,1342L32,1290Z" fill="#a27ca5" stroke="#a27ca5" stroke-width="1.51"></path><path d="M-26,529L-20,615L19,540Z" fill="#b7c3de" stroke="#b7c3de" stroke-width="1.51"></path><path d="M-42,53L-67,140L29,95Z" fill="#dbe8f2" stroke="#dbe8f2" stroke-width="1.51"></path><path d="M-42,771L-23,862L13,836Z" fill="#b6a7d1" stroke="#b6a7d1" stroke-width="1.51"></path><path d="M8,-89L-55,-35L12,-70Z" fill="#e5eff6" stroke="#e5eff6" stroke-width="1.51"></path><path d="M-31,-136L-55,-35L8,-89Z" fill="#e7f1f7" stroke="#e7f1f7" stroke-width="1.51"></path><path d="M-110,97L-67,140L-42,53Z" fill="#dfeaf3" stroke="#dfeaf3" stroke-width="1.51"></path><path d="M-55,-35L-95,-27L-42,53Z" fill="#e6f0f7" stroke="#e6f0f7" stroke-width="1.51"></path><path d="M-113,337L-37,380L-35,269Z" fill="#cadbeb" stroke="#cadbeb" stroke-width="1.51"></path><path d="M-60,1245L-100,1318L-32,1342Z" fill="#a37ea6" stroke="#a37ea6" stroke-width="1.51"></path><path d="M-95,-96L-55,-35L-31,-136Z" fill="#eaf3f8" stroke="#eaf3f8" stroke-width="1.51"></path><path d="M-35,454L-149,513L-26,529Z" fill="#bfcde4" stroke="#bfcde4" stroke-width="1.51"></path><path d="M-149,513L-93,631L-26,529Z" fill="#bec8e1" stroke="#bec8e1" stroke-width="1.51"></path><path d="M-90,1023L-27,1072L-24,1001Z" fill="#b893c5" stroke="#b893c5" stroke-width="1.51"></path><path d="M-47,924L-90,1023L-24,1001Z" fill="#b998c9" stroke="#b998c9" stroke-width="1.51"></path><path d="M-42,771L-108,767L-23,862Z" fill="#baabd3" stroke="#baabd3" stroke-width="1.51"></path><path d="M-108,767L-143,852L-23,862Z" fill="#bdaad3" stroke="#bdaad3" stroke-width="1.51"></path><path d="M-26,529L-93,631L-20,615Z" fill="#b9c3de" stroke="#b9c3de" stroke-width="1.51"></path><path d="M-93,631L-55,686L-20,615Z" fill="#babddb" stroke="#babddb" stroke-width="1.51"></path><path d="M-143,852L-47,924L-23,862Z" fill="#bba3cf" stroke="#bba3cf" stroke-width="1.51"></path><path d="M-55,686L-108,767L-42,771Z" fill="#bbb2d6" stroke="#bbb2d6" stroke-width="1.51"></path><path d="M-37,380L-144,428L-35,454Z" fill="#c3d6e8" stroke="#c3d6e8" stroke-width="1.51"></path><path d="M-90,1023L-137,1055L-63,1135Z" fill="#bc92c2" stroke="#bc92c2" stroke-width="1.51"></path><path d="M-90,1023L-63,1135L-27,1072Z" fill="#b990c1" stroke="#b990c1" stroke-width="1.51"></path><path d="M-43,209L-137,250L-35,269Z" fill="#d2e1ee" stroke="#d2e1ee" stroke-width="1.51"></path><path d="M-143,852L-151,894L-47,924Z" fill="#bea5d0" stroke="#bea5d0" stroke-width="1.51"></path><path d="M-127,208L-137,250L-43,209Z" fill="#d7e4ef" stroke="#d7e4ef" stroke-width="1.51"></path><path d="M-144,428L-149,513L-35,454Z" fill="#c4d3e7" stroke="#c4d3e7" stroke-width="1.51"></path><path d="M-137,250L-113,337L-35,269Z" fill="#d0e0ed" stroke="#d0e0ed" stroke-width="1.51"></path><path d="M-67,140L-127,208L-43,209Z" fill="#d8e5f0" stroke="#d8e5f0" stroke-width="1.51"></path><path d="M-113,337L-144,428L-37,380Z" fill="#c8daeb" stroke="#c8daeb" stroke-width="1.51"></path><path d="M-112,675L-108,767L-55,686Z" fill="#bdb7d9" stroke="#bdb7d9" stroke-width="1.51"></path><path d="M-151,894L-90,1023L-47,924Z" fill="#bc9ecc" stroke="#bc9ecc" stroke-width="1.51"></path><path d="M-95,-27L-152,33L-42,53Z" fill="#e7f1f6" stroke="#e7f1f6" stroke-width="1.51"></path><path d="M-152,33L-110,97L-42,53Z" fill="#e4eef5" stroke="#e4eef5" stroke-width="1.51"></path><path d="M-93,631L-112,675L-55,686Z" fill="#bcbddb" stroke="#bcbddb" stroke-width="1.51"></path><path d="M-95,-96L-95,-27L-55,-35Z" fill="#eaf3f8" stroke="#eaf3f8" stroke-width="1.51"></path><path d="M-93,1185L-134,1222L-60,1245Z" fill="#b386b2" stroke="#b386b2" stroke-width="1.51"></path><path d="M-134,1222L-100,1318L-60,1245Z" fill="#ac82ac" stroke="#ac82ac" stroke-width="1.51"></path><path d="M-137,1055L-93,1185L-63,1135Z" fill="#bb8dbe" stroke="#bb8dbe" stroke-width="1.51"></path><path d="M-110,97L-127,208L-67,140Z" fill="#dce8f2" stroke="#dce8f2" stroke-width="1.51"></path><path d="M-152,33L-95,-27L-95,-96Z" fill="#ebf4f9" stroke="#ebf4f9" stroke-width="1.51"></path><path d="M-137,1055L-134,1222L-93,1185Z" fill="#bd8cbc" stroke="#bd8cbc" stroke-width="1.51"></path><path d="M-151,894L-137,1055L-90,1023Z" fill="#bf9bcb" stroke="#bf9bcb" stroke-width="1.51"></path><path d="M-149,513L-112,675L-93,631Z" fill="#bec5df" stroke="#bec5df" stroke-width="1.51"></path><path d="M-152,33L-127,208L-110,97Z" fill="#e2edf4" stroke="#e2edf4" stroke-width="1.51"></path><path d="M-112,675L-143,852L-108,767Z" fill="#bfb3d7" stroke="#bfb3d7" stroke-width="1.51"></path><path d="M-149,513L-143,852L-112,675Z" fill="#c0bddc" stroke="#c0bddc" stroke-width="1.51"></path><path d="M-137,250L-144,428L-113,337Z" fill="#cfdfed" stroke="#cfdfed" stroke-width="1.51"></path><path d="M-152,33L-137,250L-127,208Z" fill="#deeaf3" stroke="#deeaf3" stroke-width="1.51"></path><path d="M-149,513L-151,894L-143,852Z" fill="#c1b6d8" stroke="#c1b6d8" stroke-width="1.51"></path><path d="M-137,1055L-151,894L-134,1222Z" fill="#bf96c5" stroke="#bf96c5" stroke-width="1.51"></path><path d="M-152,33L-144,428L-137,250Z" fill="#d8e5f0" stroke="#d8e5f0" stroke-width="1.51"></path><path d="M-152,33L-149,513L-144,428Z" fill="#d1e0ed" stroke="#d1e0ed" stroke-width="1.51"></path></svg>