solid mi_frames_center_slipon_loose5pct
facet normal 0.9640 -0.2350 0.1245
  outer loop
    vertex 18.4500 0.0000 0.0000
    vertex 19.3901 3.8569 0.0000
    vertex 16.6758 3.3170 20.0000
  endloop
endfacet
facet normal 0.9759 -0.1841 0.1171
  outer loop
    vertex 18.4500 0.0000 0.0000
    vertex 16.6758 3.3170 20.0000
    vertex 16.0500 0.0000 20.0000
  endloop
endfacet
facet normal 0.8015 0.5866 0.1158
  outer loop
    vertex 19.3901 3.8569 0.0000
    vertex 17.0456 7.0605 0.0000
    vertex 14.8283 6.1421 20.0000
  endloop
endfacet
facet normal 0.8301 0.5429 0.1273
  outer loop
    vertex 19.3901 3.8569 0.0000
    vertex 14.8283 6.1421 20.0000
    vertex 16.6758 3.3170 20.0000
  endloop
endfacet
facet normal 0.6583 0.7510 0.0521
  outer loop
    vertex 17.0456 7.0605 0.0000
    vertex 14.2431 9.5169 0.0000
    vertex 13.3451 8.9169 20.0000
  endloop
endfacet
facet normal 0.8757 0.4681 0.1186
  outer loop
    vertex 17.0456 7.0605 0.0000
    vertex 13.3451 8.9169 20.0000
    vertex 14.8283 6.1421 20.0000
  endloop
endfacet
facet normal 0.9416 0.3193 0.1070
  outer loop
    vertex 14.2431 9.5169 0.0000
    vertex 13.0461 13.0461 0.0000
    vertex 11.3491 11.3491 20.0000
  endloop
endfacet
facet normal 0.7719 0.6335 0.0537
  outer loop
    vertex 14.2431 9.5169 0.0000
    vertex 11.3491 11.3491 20.0000
    vertex 13.3451 8.9169 20.0000
  endloop
endfacet
facet normal 0.8478 0.5155 0.1245
  outer loop
    vertex 13.0461 13.0461 0.0000
    vertex 10.9836 16.4382 0.0000
    vertex 9.4461 14.1371 20.0000
  endloop
endfacet
facet normal 0.8203 0.5599 0.1171
  outer loop
    vertex 13.0461 13.0461 0.0000
    vertex 9.4461 14.1371 20.0000
    vertex 11.3491 11.3491 20.0000
  endloop
endfacet
facet normal 0.1520 0.9816 0.1158
  outer loop
    vertex 10.9836 16.4382 0.0000
    vertex 7.0605 17.0456 0.0000
    vertex 6.1421 14.8283 20.0000
  endloop
endfacet
facet normal 0.2031 0.9708 0.1273
  outer loop
    vertex 10.9836 16.4382 0.0000
    vertex 6.1421 14.8283 20.0000
    vertex 9.4461 14.1371 20.0000
  endloop
endfacet
facet normal -0.0656 0.9965 0.0521
  outer loop
    vertex 7.0605 17.0456 0.0000
    vertex 3.3419 16.8009 0.0000
    vertex 3.1312 15.7416 20.0000
  endloop
endfacet
facet normal 0.2882 0.9502 0.1186
  outer loop
    vertex 7.0605 17.0456 0.0000
    vertex 3.1312 15.7416 20.0000
    vertex 6.1421 14.8283 20.0000
  endloop
endfacet
facet normal 0.4400 0.8916 0.1070
  outer loop
    vertex 3.3419 16.8009 0.0000
    vertex 0.0000 18.4500 0.0000
    vertex 0.0000 16.0500 20.0000
  endloop
endfacet
facet normal 0.0979 0.9938 0.0537
  outer loop
    vertex 3.3419 16.8009 0.0000
    vertex 0.0000 16.0500 20.0000
    vertex 3.1312 15.7416 20.0000
  endloop
endfacet
facet normal 0.2350 0.9640 0.1245
  outer loop
    vertex 0.0000 18.4500 0.0000
    vertex -3.8569 19.3901 0.0000
    vertex -3.3170 16.6758 20.0000
  endloop
endfacet
facet normal 0.1841 0.9759 0.1171
  outer loop
    vertex 0.0000 18.4500 0.0000
    vertex -3.3170 16.6758 20.0000
    vertex 0.0000 16.0500 20.0000
  endloop
endfacet
facet normal -0.5866 0.8015 0.1158
  outer loop
    vertex -3.8569 19.3901 0.0000
    vertex -7.0605 17.0456 0.0000
    vertex -6.1421 14.8283 20.0000
  endloop
endfacet
facet normal -0.5429 0.8301 0.1273
  outer loop
    vertex -3.8569 19.3901 0.0000
    vertex -6.1421 14.8283 20.0000
    vertex -3.3170 16.6758 20.0000
  endloop
endfacet
facet normal -0.7510 0.6583 0.0521
  outer loop
    vertex -7.0605 17.0456 0.0000
    vertex -9.5169 14.2431 0.0000
    vertex -8.9169 13.3451 20.0000
  endloop
endfacet
facet normal -0.4681 0.8757 0.1186
  outer loop
    vertex -7.0605 17.0456 0.0000
    vertex -8.9169 13.3451 20.0000
    vertex -6.1421 14.8283 20.0000
  endloop
endfacet
facet normal -0.3193 0.9416 0.1070
  outer loop
    vertex -9.5169 14.2431 0.0000
    vertex -13.0461 13.0461 0.0000
    vertex -11.3491 11.3491 20.0000
  endloop
endfacet
facet normal -0.6335 0.7719 0.0537
  outer loop
    vertex -9.5169 14.2431 0.0000
    vertex -11.3491 11.3491 20.0000
    vertex -8.9169 13.3451 20.0000
  endloop
endfacet
facet normal -0.5155 0.8478 0.1245
  outer loop
    vertex -13.0461 13.0461 0.0000
    vertex -16.4382 10.9836 0.0000
    vertex -14.1371 9.4461 20.0000
  endloop
endfacet
facet normal -0.5599 0.8203 0.1171
  outer loop
    vertex -13.0461 13.0461 0.0000
    vertex -14.1371 9.4461 20.0000
    vertex -11.3491 11.3491 20.0000
  endloop
endfacet
facet normal -0.9816 0.1520 0.1158
  outer loop
    vertex -16.4382 10.9836 0.0000
    vertex -17.0456 7.0605 0.0000
    vertex -14.8283 6.1421 20.0000
  endloop
endfacet
facet normal -0.9708 0.2031 0.1273
  outer loop
    vertex -16.4382 10.9836 0.0000
    vertex -14.8283 6.1421 20.0000
    vertex -14.1371 9.4461 20.0000
  endloop
endfacet
facet normal -0.9965 -0.0656 0.0521
  outer loop
    vertex -17.0456 7.0605 0.0000
    vertex -16.8009 3.3419 0.0000
    vertex -15.7416 3.1312 20.0000
  endloop
endfacet
facet normal -0.9502 0.2882 0.1186
  outer loop
    vertex -17.0456 7.0605 0.0000
    vertex -15.7416 3.1312 20.0000
    vertex -14.8283 6.1421 20.0000
  endloop
endfacet
facet normal -0.8916 0.4400 0.1070
  outer loop
    vertex -16.8009 3.3419 0.0000
    vertex -18.4500 0.0000 0.0000
    vertex -16.0500 0.0000 20.0000
  endloop
endfacet
facet normal -0.9938 0.0979 0.0537
  outer loop
    vertex -16.8009 3.3419 0.0000
    vertex -16.0500 0.0000 20.0000
    vertex -15.7416 3.1312 20.0000
  endloop
endfacet
facet normal -0.9640 0.2350 0.1245
  outer loop
    vertex -18.4500 0.0000 0.0000
    vertex -19.3901 -3.8569 0.0000
    vertex -16.6758 -3.3170 20.0000
  endloop
endfacet
facet normal -0.9759 0.1841 0.1171
  outer loop
    vertex -18.4500 0.0000 0.0000
    vertex -16.6758 -3.3170 20.0000
    vertex -16.0500 0.0000 20.0000
  endloop
endfacet
facet normal -0.8015 -0.5866 0.1158
  outer loop
    vertex -19.3901 -3.8569 0.0000
    vertex -17.0456 -7.0605 0.0000
    vertex -14.8283 -6.1421 20.0000
  endloop
endfacet
facet normal -0.8301 -0.5429 0.1273
  outer loop
    vertex -19.3901 -3.8569 0.0000
    vertex -14.8283 -6.1421 20.0000
    vertex -16.6758 -3.3170 20.0000
  endloop
endfacet
facet normal -0.6583 -0.7510 0.0521
  outer loop
    vertex -17.0456 -7.0605 0.0000
    vertex -14.2431 -9.5169 0.0000
    vertex -13.3451 -8.9169 20.0000
  endloop
endfacet
facet normal -0.8757 -0.4681 0.1186
  outer loop
    vertex -17.0456 -7.0605 0.0000
    vertex -13.3451 -8.9169 20.0000
    vertex -14.8283 -6.1421 20.0000
  endloop
endfacet
facet normal -0.9416 -0.3193 0.1070
  outer loop
    vertex -14.2431 -9.5169 0.0000
    vertex -13.0461 -13.0461 0.0000
    vertex -11.3491 -11.3491 20.0000
  endloop
endfacet
facet normal -0.7719 -0.6335 0.0537
  outer loop
    vertex -14.2431 -9.5169 0.0000
    vertex -11.3491 -11.3491 20.0000
    vertex -13.3451 -8.9169 20.0000
  endloop
endfacet
facet normal -0.8478 -0.5155 0.1245
  outer loop
    vertex -13.0461 -13.0461 0.0000
    vertex -10.9836 -16.4382 0.0000
    vertex -9.4461 -14.1371 20.0000
  endloop
endfacet
facet normal -0.8203 -0.5599 0.1171
  outer loop
    vertex -13.0461 -13.0461 0.0000
    vertex -9.4461 -14.1371 20.0000
    vertex -11.3491 -11.3491 20.0000
  endloop
endfacet
facet normal -0.1520 -0.9816 0.1158
  outer loop
    vertex -10.9836 -16.4382 0.0000
    vertex -7.0605 -17.0456 0.0000
    vertex -6.1421 -14.8283 20.0000
  endloop
endfacet
facet normal -0.2031 -0.9708 0.1273
  outer loop
    vertex -10.9836 -16.4382 0.0000
    vertex -6.1421 -14.8283 20.0000
    vertex -9.4461 -14.1371 20.0000
  endloop
endfacet
facet normal 0.0656 -0.9965 0.0521
  outer loop
    vertex -7.0605 -17.0456 0.0000
    vertex -3.3419 -16.8009 0.0000
    vertex -3.1312 -15.7416 20.0000
  endloop
endfacet
facet normal -0.2882 -0.9502 0.1186
  outer loop
    vertex -7.0605 -17.0456 0.0000
    vertex -3.1312 -15.7416 20.0000
    vertex -6.1421 -14.8283 20.0000
  endloop
endfacet
facet normal -0.4400 -0.8916 0.1070
  outer loop
    vertex -3.3419 -16.8009 0.0000
    vertex -0.0000 -18.4500 0.0000
    vertex -0.0000 -16.0500 20.0000
  endloop
endfacet
facet normal -0.0979 -0.9938 0.0537
  outer loop
    vertex -3.3419 -16.8009 0.0000
    vertex -0.0000 -16.0500 20.0000
    vertex -3.1312 -15.7416 20.0000
  endloop
endfacet
facet normal -0.2350 -0.9640 0.1245
  outer loop
    vertex -0.0000 -18.4500 0.0000
    vertex 3.8569 -19.3901 0.0000
    vertex 3.3170 -16.6758 20.0000
  endloop
endfacet
facet normal -0.1841 -0.9759 0.1171
  outer loop
    vertex -0.0000 -18.4500 0.0000
    vertex 3.3170 -16.6758 20.0000
    vertex -0.0000 -16.0500 20.0000
  endloop
endfacet
facet normal 0.5866 -0.8015 0.1158
  outer loop
    vertex 3.8569 -19.3901 0.0000
    vertex 7.0605 -17.0456 0.0000
    vertex 6.1421 -14.8283 20.0000
  endloop
endfacet
facet normal 0.5429 -0.8301 0.1273
  outer loop
    vertex 3.8569 -19.3901 0.0000
    vertex 6.1421 -14.8283 20.0000
    vertex 3.3170 -16.6758 20.0000
  endloop
endfacet
facet normal 0.7510 -0.6583 0.0521
  outer loop
    vertex 7.0605 -17.0456 0.0000
    vertex 9.5169 -14.2431 0.0000
    vertex 8.9169 -13.3451 20.0000
  endloop
endfacet
facet normal 0.4681 -0.8757 0.1186
  outer loop
    vertex 7.0605 -17.0456 0.0000
    vertex 8.9169 -13.3451 20.0000
    vertex 6.1421 -14.8283 20.0000
  endloop
endfacet
facet normal 0.3193 -0.9416 0.1070
  outer loop
    vertex 9.5169 -14.2431 0.0000
    vertex 13.0461 -13.0461 0.0000
    vertex 11.3491 -11.3491 20.0000
  endloop
endfacet
facet normal 0.6335 -0.7719 0.0537
  outer loop
    vertex 9.5169 -14.2431 0.0000
    vertex 11.3491 -11.3491 20.0000
    vertex 8.9169 -13.3451 20.0000
  endloop
endfacet
facet normal 0.5155 -0.8478 0.1245
  outer loop
    vertex 13.0461 -13.0461 0.0000
    vertex 16.4382 -10.9836 0.0000
    vertex 14.1371 -9.4461 20.0000
  endloop
endfacet
facet normal 0.5599 -0.8203 0.1171
  outer loop
    vertex 13.0461 -13.0461 0.0000
    vertex 14.1371 -9.4461 20.0000
    vertex 11.3491 -11.3491 20.0000
  endloop
endfacet
facet normal 0.9816 -0.1520 0.1158
  outer loop
    vertex 16.4382 -10.9836 0.0000
    vertex 17.0456 -7.0605 0.0000
    vertex 14.8283 -6.1421 20.0000
  endloop
endfacet
facet normal 0.9708 -0.2031 0.1273
  outer loop
    vertex 16.4382 -10.9836 0.0000
    vertex 14.8283 -6.1421 20.0000
    vertex 14.1371 -9.4461 20.0000
  endloop
endfacet
facet normal 0.9965 0.0656 0.0521
  outer loop
    vertex 17.0456 -7.0605 0.0000
    vertex 16.8009 -3.3419 0.0000
    vertex 15.7416 -3.1312 20.0000
  endloop
endfacet
facet normal 0.9502 -0.2882 0.1186
  outer loop
    vertex 17.0456 -7.0605 0.0000
    vertex 15.7416 -3.1312 20.0000
    vertex 14.8283 -6.1421 20.0000
  endloop
endfacet
facet normal 0.8916 -0.4400 0.1070
  outer loop
    vertex 16.8009 -3.3419 0.0000
    vertex 18.4500 0.0000 0.0000
    vertex 16.0500 0.0000 20.0000
  endloop
endfacet
facet normal 0.9938 -0.0979 0.0537
  outer loop
    vertex 16.8009 -3.3419 0.0000
    vertex 16.0500 0.0000 20.0000
    vertex 15.7416 -3.1312 20.0000
  endloop
endfacet
facet normal -0.9914 -0.1305 0.0000
  outer loop
    vertex 14.5372 3.8952 0.0000
    vertex 15.0500 0.0000 0.0000
    vertex 15.0500 0.0000 18.0000
  endloop
endfacet
facet normal -0.9914 -0.1305 0.0000
  outer loop
    vertex 14.5372 3.8952 0.0000
    vertex 15.0500 0.0000 18.0000
    vertex 14.5372 3.8952 18.0000
  endloop
endfacet
facet normal -0.9239 -0.3827 0.0000
  outer loop
    vertex 13.0337 7.5250 0.0000
    vertex 14.5372 3.8952 0.0000
    vertex 14.5372 3.8952 18.0000
  endloop
endfacet
facet normal -0.9239 -0.3827 0.0000
  outer loop
    vertex 13.0337 7.5250 0.0000
    vertex 14.5372 3.8952 18.0000
    vertex 13.0337 7.5250 18.0000
  endloop
endfacet
facet normal -0.7934 -0.6088 0.0000
  outer loop
    vertex 10.6420 10.6420 0.0000
    vertex 13.0337 7.5250 0.0000
    vertex 13.0337 7.5250 18.0000
  endloop
endfacet
facet normal -0.7934 -0.6088 0.0000
  outer loop
    vertex 10.6420 10.6420 0.0000
    vertex 13.0337 7.5250 18.0000
    vertex 10.6420 10.6420 18.0000
  endloop
endfacet
facet normal -0.6088 -0.7934 0.0000
  outer loop
    vertex 7.5250 13.0337 0.0000
    vertex 10.6420 10.6420 0.0000
    vertex 10.6420 10.6420 18.0000
  endloop
endfacet
facet normal -0.6088 -0.7934 0.0000
  outer loop
    vertex 7.5250 13.0337 0.0000
    vertex 10.6420 10.6420 18.0000
    vertex 7.5250 13.0337 18.0000
  endloop
endfacet
facet normal -0.3827 -0.9239 0.0000
  outer loop
    vertex 3.8952 14.5372 0.0000
    vertex 7.5250 13.0337 0.0000
    vertex 7.5250 13.0337 18.0000
  endloop
endfacet
facet normal -0.3827 -0.9239 0.0000
  outer loop
    vertex 3.8952 14.5372 0.0000
    vertex 7.5250 13.0337 18.0000
    vertex 3.8952 14.5372 18.0000
  endloop
endfacet
facet normal -0.1305 -0.9914 0.0000
  outer loop
    vertex 0.0000 15.0500 0.0000
    vertex 3.8952 14.5372 0.0000
    vertex 3.8952 14.5372 18.0000
  endloop
endfacet
facet normal -0.1305 -0.9914 0.0000
  outer loop
    vertex 0.0000 15.0500 0.0000
    vertex 3.8952 14.5372 18.0000
    vertex 0.0000 15.0500 18.0000
  endloop
endfacet
facet normal 0.1305 -0.9914 0.0000
  outer loop
    vertex -3.8952 14.5372 0.0000
    vertex 0.0000 15.0500 0.0000
    vertex 0.0000 15.0500 18.0000
  endloop
endfacet
facet normal 0.1305 -0.9914 0.0000
  outer loop
    vertex -3.8952 14.5372 0.0000
    vertex 0.0000 15.0500 18.0000
    vertex -3.8952 14.5372 18.0000
  endloop
endfacet
facet normal 0.3827 -0.9239 0.0000
  outer loop
    vertex -7.5250 13.0337 0.0000
    vertex -3.8952 14.5372 0.0000
    vertex -3.8952 14.5372 18.0000
  endloop
endfacet
facet normal 0.3827 -0.9239 0.0000
  outer loop
    vertex -7.5250 13.0337 0.0000
    vertex -3.8952 14.5372 18.0000
    vertex -7.5250 13.0337 18.0000
  endloop
endfacet
facet normal 0.6088 -0.7934 0.0000
  outer loop
    vertex -10.6420 10.6420 0.0000
    vertex -7.5250 13.0337 0.0000
    vertex -7.5250 13.0337 18.0000
  endloop
endfacet
facet normal 0.6088 -0.7934 0.0000
  outer loop
    vertex -10.6420 10.6420 0.0000
    vertex -7.5250 13.0337 18.0000
    vertex -10.6420 10.6420 18.0000
  endloop
endfacet
facet normal 0.7934 -0.6088 0.0000
  outer loop
    vertex -13.0337 7.5250 0.0000
    vertex -10.6420 10.6420 0.0000
    vertex -10.6420 10.6420 18.0000
  endloop
endfacet
facet normal 0.7934 -0.6088 0.0000
  outer loop
    vertex -13.0337 7.5250 0.0000
    vertex -10.6420 10.6420 18.0000
    vertex -13.0337 7.5250 18.0000
  endloop
endfacet
facet normal 0.9239 -0.3827 0.0000
  outer loop
    vertex -14.5372 3.8952 0.0000
    vertex -13.0337 7.5250 0.0000
    vertex -13.0337 7.5250 18.0000
  endloop
endfacet
facet normal 0.9239 -0.3827 0.0000
  outer loop
    vertex -14.5372 3.8952 0.0000
    vertex -13.0337 7.5250 18.0000
    vertex -14.5372 3.8952 18.0000
  endloop
endfacet
facet normal 0.9914 -0.1305 0.0000
  outer loop
    vertex -15.0500 0.0000 0.0000
    vertex -14.5372 3.8952 0.0000
    vertex -14.5372 3.8952 18.0000
  endloop
endfacet
facet normal 0.9914 -0.1305 0.0000
  outer loop
    vertex -15.0500 0.0000 0.0000
    vertex -14.5372 3.8952 18.0000
    vertex -15.0500 0.0000 18.0000
  endloop
endfacet
facet normal 0.9914 0.1305 0.0000
  outer loop
    vertex -14.5372 -3.8952 0.0000
    vertex -15.0500 0.0000 0.0000
    vertex -15.0500 0.0000 18.0000
  endloop
endfacet
facet normal 0.9914 0.1305 0.0000
  outer loop
    vertex -14.5372 -3.8952 0.0000
    vertex -15.0500 0.0000 18.0000
    vertex -14.5372 -3.8952 18.0000
  endloop
endfacet
facet normal 0.9239 0.3827 0.0000
  outer loop
    vertex -13.0337 -7.5250 0.0000
    vertex -14.5372 -3.8952 0.0000
    vertex -14.5372 -3.8952 18.0000
  endloop
endfacet
facet normal 0.9239 0.3827 0.0000
  outer loop
    vertex -13.0337 -7.5250 0.0000
    vertex -14.5372 -3.8952 18.0000
    vertex -13.0337 -7.5250 18.0000
  endloop
endfacet
facet normal 0.7934 0.6088 0.0000
  outer loop
    vertex -10.6420 -10.6420 0.0000
    vertex -13.0337 -7.5250 0.0000
    vertex -13.0337 -7.5250 18.0000
  endloop
endfacet
facet normal 0.7934 0.6088 0.0000
  outer loop
    vertex -10.6420 -10.6420 0.0000
    vertex -13.0337 -7.5250 18.0000
    vertex -10.6420 -10.6420 18.0000
  endloop
endfacet
facet normal 0.6088 0.7934 0.0000
  outer loop
    vertex -7.5250 -13.0337 0.0000
    vertex -10.6420 -10.6420 0.0000
    vertex -10.6420 -10.6420 18.0000
  endloop
endfacet
facet normal 0.6088 0.7934 0.0000
  outer loop
    vertex -7.5250 -13.0337 0.0000
    vertex -10.6420 -10.6420 18.0000
    vertex -7.5250 -13.0337 18.0000
  endloop
endfacet
facet normal 0.3827 0.9239 0.0000
  outer loop
    vertex -3.8952 -14.5372 0.0000
    vertex -7.5250 -13.0337 0.0000
    vertex -7.5250 -13.0337 18.0000
  endloop
endfacet
facet normal 0.3827 0.9239 0.0000
  outer loop
    vertex -3.8952 -14.5372 0.0000
    vertex -7.5250 -13.0337 18.0000
    vertex -3.8952 -14.5372 18.0000
  endloop
endfacet
facet normal 0.1305 0.9914 0.0000
  outer loop
    vertex -0.0000 -15.0500 0.0000
    vertex -3.8952 -14.5372 0.0000
    vertex -3.8952 -14.5372 18.0000
  endloop
endfacet
facet normal 0.1305 0.9914 0.0000
  outer loop
    vertex -0.0000 -15.0500 0.0000
    vertex -3.8952 -14.5372 18.0000
    vertex -0.0000 -15.0500 18.0000
  endloop
endfacet
facet normal -0.1305 0.9914 0.0000
  outer loop
    vertex 3.8952 -14.5372 0.0000
    vertex -0.0000 -15.0500 0.0000
    vertex -0.0000 -15.0500 18.0000
  endloop
endfacet
facet normal -0.1305 0.9914 0.0000
  outer loop
    vertex 3.8952 -14.5372 0.0000
    vertex -0.0000 -15.0500 18.0000
    vertex 3.8952 -14.5372 18.0000
  endloop
endfacet
facet normal -0.3827 0.9239 0.0000
  outer loop
    vertex 7.5250 -13.0337 0.0000
    vertex 3.8952 -14.5372 0.0000
    vertex 3.8952 -14.5372 18.0000
  endloop
endfacet
facet normal -0.3827 0.9239 0.0000
  outer loop
    vertex 7.5250 -13.0337 0.0000
    vertex 3.8952 -14.5372 18.0000
    vertex 7.5250 -13.0337 18.0000
  endloop
endfacet
facet normal -0.6088 0.7934 0.0000
  outer loop
    vertex 10.6420 -10.6420 0.0000
    vertex 7.5250 -13.0337 0.0000
    vertex 7.5250 -13.0337 18.0000
  endloop
endfacet
facet normal -0.6088 0.7934 0.0000
  outer loop
    vertex 10.6420 -10.6420 0.0000
    vertex 7.5250 -13.0337 18.0000
    vertex 10.6420 -10.6420 18.0000
  endloop
endfacet
facet normal -0.7934 0.6088 0.0000
  outer loop
    vertex 13.0337 -7.5250 0.0000
    vertex 10.6420 -10.6420 0.0000
    vertex 10.6420 -10.6420 18.0000
  endloop
endfacet
facet normal -0.7934 0.6088 0.0000
  outer loop
    vertex 13.0337 -7.5250 0.0000
    vertex 10.6420 -10.6420 18.0000
    vertex 13.0337 -7.5250 18.0000
  endloop
endfacet
facet normal -0.9239 0.3827 0.0000
  outer loop
    vertex 14.5372 -3.8952 0.0000
    vertex 13.0337 -7.5250 0.0000
    vertex 13.0337 -7.5250 18.0000
  endloop
endfacet
facet normal -0.9239 0.3827 0.0000
  outer loop
    vertex 14.5372 -3.8952 0.0000
    vertex 13.0337 -7.5250 18.0000
    vertex 14.5372 -3.8952 18.0000
  endloop
endfacet
facet normal -0.9914 0.1305 0.0000
  outer loop
    vertex 15.0500 0.0000 0.0000
    vertex 14.5372 -3.8952 0.0000
    vertex 14.5372 -3.8952 18.0000
  endloop
endfacet
facet normal -0.9914 0.1305 0.0000
  outer loop
    vertex 15.0500 0.0000 0.0000
    vertex 14.5372 -3.8952 18.0000
    vertex 15.0500 0.0000 18.0000
  endloop
endfacet
facet normal 0.0000 0.0000 1.0000
  outer loop
    vertex 16.0500 0.0000 20.0000
    vertex 16.6758 3.3170 20.0000
    vertex 0.0000 0.0000 20.0000
  endloop
endfacet
facet normal 0.0000 0.0000 1.0000
  outer loop
    vertex 16.6758 3.3170 20.0000
    vertex 14.8283 6.1421 20.0000
    vertex 0.0000 0.0000 20.0000
  endloop
endfacet
facet normal 0.0000 0.0000 1.0000
  outer loop
    vertex 14.8283 6.1421 20.0000
    vertex 13.3451 8.9169 20.0000
    vertex 0.0000 0.0000 20.0000
  endloop
endfacet
facet normal 0.0000 0.0000 1.0000
  outer loop
    vertex 13.3451 8.9169 20.0000
    vertex 11.3491 11.3491 20.0000
    vertex 0.0000 0.0000 20.0000
  endloop
endfacet
facet normal 0.0000 0.0000 1.0000
  outer loop
    vertex 11.3491 11.3491 20.0000
    vertex 9.4461 14.1371 20.0000
    vertex 0.0000 0.0000 20.0000
  endloop
endfacet
facet normal 0.0000 0.0000 1.0000
  outer loop
    vertex 9.4461 14.1371 20.0000
    vertex 6.1421 14.8283 20.0000
    vertex 0.0000 0.0000 20.0000
  endloop
endfacet
facet normal 0.0000 0.0000 1.0000
  outer loop
    vertex 6.1421 14.8283 20.0000
    vertex 3.1312 15.7416 20.0000
    vertex 0.0000 0.0000 20.0000
  endloop
endfacet
facet normal 0.0000 0.0000 1.0000
  outer loop
    vertex 3.1312 15.7416 20.0000
    vertex 0.0000 16.0500 20.0000
    vertex 0.0000 0.0000 20.0000
  endloop
endfacet
facet normal 0.0000 0.0000 1.0000
  outer loop
    vertex 0.0000 16.0500 20.0000
    vertex -3.3170 16.6758 20.0000
    vertex 0.0000 0.0000 20.0000
  endloop
endfacet
facet normal 0.0000 0.0000 1.0000
  outer loop
    vertex -3.3170 16.6758 20.0000
    vertex -6.1421 14.8283 20.0000
    vertex 0.0000 0.0000 20.0000
  endloop
endfacet
facet normal 0.0000 0.0000 1.0000
  outer loop
    vertex -6.1421 14.8283 20.0000
    vertex -8.9169 13.3451 20.0000
    vertex 0.0000 0.0000 20.0000
  endloop
endfacet
facet normal 0.0000 0.0000 1.0000
  outer loop
    vertex -8.9169 13.3451 20.0000
    vertex -11.3491 11.3491 20.0000
    vertex 0.0000 0.0000 20.0000
  endloop
endfacet
facet normal 0.0000 0.0000 1.0000
  outer loop
    vertex -11.3491 11.3491 20.0000
    vertex -14.1371 9.4461 20.0000
    vertex 0.0000 0.0000 20.0000
  endloop
endfacet
facet normal 0.0000 0.0000 1.0000
  outer loop
    vertex -14.1371 9.4461 20.0000
    vertex -14.8283 6.1421 20.0000
    vertex 0.0000 0.0000 20.0000
  endloop
endfacet
facet normal 0.0000 0.0000 1.0000
  outer loop
    vertex -14.8283 6.1421 20.0000
    vertex -15.7416 3.1312 20.0000
    vertex 0.0000 0.0000 20.0000
  endloop
endfacet
facet normal 0.0000 0.0000 1.0000
  outer loop
    vertex -15.7416 3.1312 20.0000
    vertex -16.0500 0.0000 20.0000
    vertex 0.0000 0.0000 20.0000
  endloop
endfacet
facet normal 0.0000 0.0000 1.0000
  outer loop
    vertex -16.0500 0.0000 20.0000
    vertex -16.6758 -3.3170 20.0000
    vertex 0.0000 0.0000 20.0000
  endloop
endfacet
facet normal 0.0000 0.0000 1.0000
  outer loop
    vertex -16.6758 -3.3170 20.0000
    vertex -14.8283 -6.1421 20.0000
    vertex 0.0000 0.0000 20.0000
  endloop
endfacet
facet normal 0.0000 0.0000 1.0000
  outer loop
    vertex -14.8283 -6.1421 20.0000
    vertex -13.3451 -8.9169 20.0000
    vertex 0.0000 0.0000 20.0000
  endloop
endfacet
facet normal 0.0000 0.0000 1.0000
  outer loop
    vertex -13.3451 -8.9169 20.0000
    vertex -11.3491 -11.3491 20.0000
    vertex 0.0000 0.0000 20.0000
  endloop
endfacet
facet normal 0.0000 0.0000 1.0000
  outer loop
    vertex -11.3491 -11.3491 20.0000
    vertex -9.4461 -14.1371 20.0000
    vertex 0.0000 0.0000 20.0000
  endloop
endfacet
facet normal 0.0000 0.0000 1.0000
  outer loop
    vertex -9.4461 -14.1371 20.0000
    vertex -6.1421 -14.8283 20.0000
    vertex 0.0000 0.0000 20.0000
  endloop
endfacet
facet normal 0.0000 0.0000 1.0000
  outer loop
    vertex -6.1421 -14.8283 20.0000
    vertex -3.1312 -15.7416 20.0000
    vertex 0.0000 0.0000 20.0000
  endloop
endfacet
facet normal 0.0000 0.0000 1.0000
  outer loop
    vertex -3.1312 -15.7416 20.0000
    vertex -0.0000 -16.0500 20.0000
    vertex 0.0000 0.0000 20.0000
  endloop
endfacet
facet normal 0.0000 0.0000 1.0000
  outer loop
    vertex -0.0000 -16.0500 20.0000
    vertex 3.3170 -16.6758 20.0000
    vertex 0.0000 0.0000 20.0000
  endloop
endfacet
facet normal 0.0000 0.0000 1.0000
  outer loop
    vertex 3.3170 -16.6758 20.0000
    vertex 6.1421 -14.8283 20.0000
    vertex 0.0000 0.0000 20.0000
  endloop
endfacet
facet normal 0.0000 0.0000 1.0000
  outer loop
    vertex 6.1421 -14.8283 20.0000
    vertex 8.9169 -13.3451 20.0000
    vertex 0.0000 0.0000 20.0000
  endloop
endfacet
facet normal 0.0000 0.0000 1.0000
  outer loop
    vertex 8.9169 -13.3451 20.0000
    vertex 11.3491 -11.3491 20.0000
    vertex 0.0000 0.0000 20.0000
  endloop
endfacet
facet normal 0.0000 0.0000 1.0000
  outer loop
    vertex 11.3491 -11.3491 20.0000
    vertex 14.1371 -9.4461 20.0000
    vertex 0.0000 0.0000 20.0000
  endloop
endfacet
facet normal 0.0000 0.0000 1.0000
  outer loop
    vertex 14.1371 -9.4461 20.0000
    vertex 14.8283 -6.1421 20.0000
    vertex 0.0000 0.0000 20.0000
  endloop
endfacet
facet normal 0.0000 0.0000 1.0000
  outer loop
    vertex 14.8283 -6.1421 20.0000
    vertex 15.7416 -3.1312 20.0000
    vertex 0.0000 0.0000 20.0000
  endloop
endfacet
facet normal 0.0000 0.0000 1.0000
  outer loop
    vertex 15.7416 -3.1312 20.0000
    vertex 16.0500 0.0000 20.0000
    vertex 0.0000 0.0000 20.0000
  endloop
endfacet
facet normal 0.0000 0.0000 -1.0000
  outer loop
    vertex 14.5372 3.8952 18.0000
    vertex 15.0500 0.0000 18.0000
    vertex 0.0000 0.0000 18.0000
  endloop
endfacet
facet normal 0.0000 0.0000 -1.0000
  outer loop
    vertex 13.0337 7.5250 18.0000
    vertex 14.5372 3.8952 18.0000
    vertex 0.0000 0.0000 18.0000
  endloop
endfacet
facet normal 0.0000 0.0000 -1.0000
  outer loop
    vertex 10.6420 10.6420 18.0000
    vertex 13.0337 7.5250 18.0000
    vertex 0.0000 0.0000 18.0000
  endloop
endfacet
facet normal 0.0000 0.0000 -1.0000
  outer loop
    vertex 7.5250 13.0337 18.0000
    vertex 10.6420 10.6420 18.0000
    vertex 0.0000 0.0000 18.0000
  endloop
endfacet
facet normal 0.0000 0.0000 -1.0000
  outer loop
    vertex 3.8952 14.5372 18.0000
    vertex 7.5250 13.0337 18.0000
    vertex 0.0000 0.0000 18.0000
  endloop
endfacet
facet normal 0.0000 0.0000 -1.0000
  outer loop
    vertex 0.0000 15.0500 18.0000
    vertex 3.8952 14.5372 18.0000
    vertex 0.0000 0.0000 18.0000
  endloop
endfacet
facet normal 0.0000 0.0000 -1.0000
  outer loop
    vertex -3.8952 14.5372 18.0000
    vertex 0.0000 15.0500 18.0000
    vertex 0.0000 0.0000 18.0000
  endloop
endfacet
facet normal 0.0000 0.0000 -1.0000
  outer loop
    vertex -7.5250 13.0337 18.0000
    vertex -3.8952 14.5372 18.0000
    vertex 0.0000 0.0000 18.0000
  endloop
endfacet
facet normal 0.0000 0.0000 -1.0000
  outer loop
    vertex -10.6420 10.6420 18.0000
    vertex -7.5250 13.0337 18.0000
    vertex 0.0000 0.0000 18.0000
  endloop
endfacet
facet normal 0.0000 0.0000 -1.0000
  outer loop
    vertex -13.0337 7.5250 18.0000
    vertex -10.6420 10.6420 18.0000
    vertex 0.0000 0.0000 18.0000
  endloop
endfacet
facet normal 0.0000 0.0000 -1.0000
  outer loop
    vertex -14.5372 3.8952 18.0000
    vertex -13.0337 7.5250 18.0000
    vertex 0.0000 0.0000 18.0000
  endloop
endfacet
facet normal 0.0000 0.0000 -1.0000
  outer loop
    vertex -15.0500 0.0000 18.0000
    vertex -14.5372 3.8952 18.0000
    vertex 0.0000 0.0000 18.0000
  endloop
endfacet
facet normal 0.0000 0.0000 -1.0000
  outer loop
    vertex -14.5372 -3.8952 18.0000
    vertex -15.0500 0.0000 18.0000
    vertex 0.0000 0.0000 18.0000
  endloop
endfacet
facet normal 0.0000 0.0000 -1.0000
  outer loop
    vertex -13.0337 -7.5250 18.0000
    vertex -14.5372 -3.8952 18.0000
    vertex 0.0000 0.0000 18.0000
  endloop
endfacet
facet normal 0.0000 0.0000 -1.0000
  outer loop
    vertex -10.6420 -10.6420 18.0000
    vertex -13.0337 -7.5250 18.0000
    vertex 0.0000 0.0000 18.0000
  endloop
endfacet
facet normal 0.0000 0.0000 -1.0000
  outer loop
    vertex -7.5250 -13.0337 18.0000
    vertex -10.6420 -10.6420 18.0000
    vertex 0.0000 0.0000 18.0000
  endloop
endfacet
facet normal 0.0000 0.0000 -1.0000
  outer loop
    vertex -3.8952 -14.5372 18.0000
    vertex -7.5250 -13.0337 18.0000
    vertex 0.0000 0.0000 18.0000
  endloop
endfacet
facet normal 0.0000 0.0000 -1.0000
  outer loop
    vertex -0.0000 -15.0500 18.0000
    vertex -3.8952 -14.5372 18.0000
    vertex 0.0000 0.0000 18.0000
  endloop
endfacet
facet normal 0.0000 0.0000 -1.0000
  outer loop
    vertex 3.8952 -14.5372 18.0000
    vertex -0.0000 -15.0500 18.0000
    vertex 0.0000 0.0000 18.0000
  endloop
endfacet
facet normal 0.0000 0.0000 -1.0000
  outer loop
    vertex 7.5250 -13.0337 18.0000
    vertex 3.8952 -14.5372 18.0000
    vertex 0.0000 0.0000 18.0000
  endloop
endfacet
facet normal 0.0000 0.0000 -1.0000
  outer loop
    vertex 10.6420 -10.6420 18.0000
    vertex 7.5250 -13.0337 18.0000
    vertex 0.0000 0.0000 18.0000
  endloop
endfacet
facet normal 0.0000 0.0000 -1.0000
  outer loop
    vertex 13.0337 -7.5250 18.0000
    vertex 10.6420 -10.6420 18.0000
    vertex 0.0000 0.0000 18.0000
  endloop
endfacet
facet normal 0.0000 0.0000 -1.0000
  outer loop
    vertex 14.5372 -3.8952 18.0000
    vertex 13.0337 -7.5250 18.0000
    vertex 0.0000 0.0000 18.0000
  endloop
endfacet
facet normal 0.0000 0.0000 -1.0000
  outer loop
    vertex 15.0500 0.0000 18.0000
    vertex 14.5372 -3.8952 18.0000
    vertex 0.0000 0.0000 18.0000
  endloop
endfacet
facet normal 0.0000 0.0000 -1.0000
  outer loop
    vertex 19.3901 3.8569 0.0000
    vertex 18.4500 0.0000 0.0000
    vertex 15.0500 0.0000 0.0000
  endloop
endfacet
facet normal 0.0000 0.0000 0.0000
  outer loop
    vertex 19.3901 3.8569 0.0000
    vertex 15.0500 0.0000 0.0000
    vertex 15.0500 0.0000 0.0000
  endloop
endfacet
facet normal 0.0000 0.0000 -1.0000
  outer loop
    vertex 17.0456 7.0605 0.0000
    vertex 19.3901 3.8569 0.0000
    vertex 15.0500 0.0000 0.0000
  endloop
endfacet
facet normal 0.0000 0.0000 -1.0000
  outer loop
    vertex 17.0456 7.0605 0.0000
    vertex 15.0500 0.0000 0.0000
    vertex 14.5372 3.8952 0.0000
  endloop
endfacet
facet normal 0.0000 0.0000 -1.0000
  outer loop
    vertex 14.2431 9.5169 0.0000
    vertex 17.0456 7.0605 0.0000
    vertex 14.5372 3.8952 0.0000
  endloop
endfacet
facet normal 0.0000 0.0000 -1.0000
  outer loop
    vertex 14.2431 9.5169 0.0000
    vertex 14.5372 3.8952 0.0000
    vertex 13.0337 7.5250 0.0000
  endloop
endfacet
facet normal 0.0000 0.0000 -1.0000
  outer loop
    vertex 13.0461 13.0461 0.0000
    vertex 14.2431 9.5169 0.0000
    vertex 13.0337 7.5250 0.0000
  endloop
endfacet
facet normal 0.0000 0.0000 -1.0000
  outer loop
    vertex 13.0461 13.0461 0.0000
    vertex 13.0337 7.5250 0.0000
    vertex 10.6420 10.6420 0.0000
  endloop
endfacet
facet normal 0.0000 0.0000 -1.0000
  outer loop
    vertex 10.9836 16.4382 0.0000
    vertex 13.0461 13.0461 0.0000
    vertex 10.6420 10.6420 0.0000
  endloop
endfacet
facet normal 0.0000 0.0000 0.0000
  outer loop
    vertex 10.9836 16.4382 0.0000
    vertex 10.6420 10.6420 0.0000
    vertex 10.6420 10.6420 0.0000
  endloop
endfacet
facet normal 0.0000 0.0000 -1.0000
  outer loop
    vertex 7.0605 17.0456 0.0000
    vertex 10.9836 16.4382 0.0000
    vertex 10.6420 10.6420 0.0000
  endloop
endfacet
facet normal 0.0000 0.0000 -1.0000
  outer loop
    vertex 7.0605 17.0456 0.0000
    vertex 10.6420 10.6420 0.0000
    vertex 7.5250 13.0337 0.0000
  endloop
endfacet
facet normal 0.0000 0.0000 -1.0000
  outer loop
    vertex 3.3419 16.8009 0.0000
    vertex 7.0605 17.0456 0.0000
    vertex 7.5250 13.0337 0.0000
  endloop
endfacet
facet normal 0.0000 0.0000 -1.0000
  outer loop
    vertex 3.3419 16.8009 0.0000
    vertex 7.5250 13.0337 0.0000
    vertex 3.8952 14.5372 0.0000
  endloop
endfacet
facet normal 0.0000 0.0000 -1.0000
  outer loop
    vertex 0.0000 18.4500 0.0000
    vertex 3.3419 16.8009 0.0000
    vertex 3.8952 14.5372 0.0000
  endloop
endfacet
facet normal 0.0000 0.0000 -1.0000
  outer loop
    vertex 0.0000 18.4500 0.0000
    vertex 3.8952 14.5372 0.0000
    vertex 0.0000 15.0500 0.0000
  endloop
endfacet
facet normal 0.0000 0.0000 -1.0000
  outer loop
    vertex -3.8569 19.3901 0.0000
    vertex 0.0000 18.4500 0.0000
    vertex 0.0000 15.0500 0.0000
  endloop
endfacet
facet normal 0.0000 0.0000 0.0000
  outer loop
    vertex -3.8569 19.3901 0.0000
    vertex 0.0000 15.0500 0.0000
    vertex 0.0000 15.0500 0.0000
  endloop
endfacet
facet normal 0.0000 0.0000 -1.0000
  outer loop
    vertex -7.0605 17.0456 0.0000
    vertex -3.8569 19.3901 0.0000
    vertex 0.0000 15.0500 0.0000
  endloop
endfacet
facet normal 0.0000 0.0000 -1.0000
  outer loop
    vertex -7.0605 17.0456 0.0000
    vertex 0.0000 15.0500 0.0000
    vertex -3.8952 14.5372 0.0000
  endloop
endfacet
facet normal 0.0000 0.0000 -1.0000
  outer loop
    vertex -9.5169 14.2431 0.0000
    vertex -7.0605 17.0456 0.0000
    vertex -3.8952 14.5372 0.0000
  endloop
endfacet
facet normal 0.0000 0.0000 -1.0000
  outer loop
    vertex -9.5169 14.2431 0.0000
    vertex -3.8952 14.5372 0.0000
    vertex -7.5250 13.0337 0.0000
  endloop
endfacet
facet normal 0.0000 0.0000 -1.0000
  outer loop
    vertex -13.0461 13.0461 0.0000
    vertex -9.5169 14.2431 0.0000
    vertex -7.5250 13.0337 0.0000
  endloop
endfacet
facet normal 0.0000 0.0000 -1.0000
  outer loop
    vertex -13.0461 13.0461 0.0000
    vertex -7.5250 13.0337 0.0000
    vertex -10.6420 10.6420 0.0000
  endloop
endfacet
facet normal 0.0000 0.0000 -1.0000
  outer loop
    vertex -16.4382 10.9836 0.0000
    vertex -13.0461 13.0461 0.0000
    vertex -10.6420 10.6420 0.0000
  endloop
endfacet
facet normal 0.0000 0.0000 0.0000
  outer loop
    vertex -16.4382 10.9836 0.0000
    vertex -10.6420 10.6420 0.0000
    vertex -10.6420 10.6420 0.0000
  endloop
endfacet
facet normal 0.0000 0.0000 -1.0000
  outer loop
    vertex -17.0456 7.0605 0.0000
    vertex -16.4382 10.9836 0.0000
    vertex -10.6420 10.6420 0.0000
  endloop
endfacet
facet normal 0.0000 0.0000 -1.0000
  outer loop
    vertex -17.0456 7.0605 0.0000
    vertex -10.6420 10.6420 0.0000
    vertex -13.0337 7.5250 0.0000
  endloop
endfacet
facet normal 0.0000 0.0000 -1.0000
  outer loop
    vertex -16.8009 3.3419 0.0000
    vertex -17.0456 7.0605 0.0000
    vertex -13.0337 7.5250 0.0000
  endloop
endfacet
facet normal 0.0000 0.0000 -1.0000
  outer loop
    vertex -16.8009 3.3419 0.0000
    vertex -13.0337 7.5250 0.0000
    vertex -14.5372 3.8952 0.0000
  endloop
endfacet
facet normal 0.0000 0.0000 -1.0000
  outer loop
    vertex -18.4500 0.0000 0.0000
    vertex -16.8009 3.3419 0.0000
    vertex -14.5372 3.8952 0.0000
  endloop
endfacet
facet normal 0.0000 0.0000 -1.0000
  outer loop
    vertex -18.4500 0.0000 0.0000
    vertex -14.5372 3.8952 0.0000
    vertex -15.0500 0.0000 0.0000
  endloop
endfacet
facet normal 0.0000 0.0000 -1.0000
  outer loop
    vertex -19.3901 -3.8569 0.0000
    vertex -18.4500 0.0000 0.0000
    vertex -15.0500 0.0000 0.0000
  endloop
endfacet
facet normal 0.0000 0.0000 0.0000
  outer loop
    vertex -19.3901 -3.8569 0.0000
    vertex -15.0500 0.0000 0.0000
    vertex -15.0500 0.0000 0.0000
  endloop
endfacet
facet normal 0.0000 0.0000 -1.0000
  outer loop
    vertex -17.0456 -7.0605 0.0000
    vertex -19.3901 -3.8569 0.0000
    vertex -15.0500 0.0000 0.0000
  endloop
endfacet
facet normal 0.0000 0.0000 -1.0000
  outer loop
    vertex -17.0456 -7.0605 0.0000
    vertex -15.0500 0.0000 0.0000
    vertex -14.5372 -3.8952 0.0000
  endloop
endfacet
facet normal 0.0000 0.0000 -1.0000
  outer loop
    vertex -14.2431 -9.5169 0.0000
    vertex -17.0456 -7.0605 0.0000
    vertex -14.5372 -3.8952 0.0000
  endloop
endfacet
facet normal 0.0000 0.0000 -1.0000
  outer loop
    vertex -14.2431 -9.5169 0.0000
    vertex -14.5372 -3.8952 0.0000
    vertex -13.0337 -7.5250 0.0000
  endloop
endfacet
facet normal 0.0000 0.0000 -1.0000
  outer loop
    vertex -13.0461 -13.0461 0.0000
    vertex -14.2431 -9.5169 0.0000
    vertex -13.0337 -7.5250 0.0000
  endloop
endfacet
facet normal 0.0000 0.0000 -1.0000
  outer loop
    vertex -13.0461 -13.0461 0.0000
    vertex -13.0337 -7.5250 0.0000
    vertex -10.6420 -10.6420 0.0000
  endloop
endfacet
facet normal 0.0000 0.0000 -1.0000
  outer loop
    vertex -10.9836 -16.4382 0.0000
    vertex -13.0461 -13.0461 0.0000
    vertex -10.6420 -10.6420 0.0000
  endloop
endfacet
facet normal 0.0000 0.0000 0.0000
  outer loop
    vertex -10.9836 -16.4382 0.0000
    vertex -10.6420 -10.6420 0.0000
    vertex -10.6420 -10.6420 0.0000
  endloop
endfacet
facet normal 0.0000 0.0000 -1.0000
  outer loop
    vertex -7.0605 -17.0456 0.0000
    vertex -10.9836 -16.4382 0.0000
    vertex -10.6420 -10.6420 0.0000
  endloop
endfacet
facet normal 0.0000 0.0000 -1.0000
  outer loop
    vertex -7.0605 -17.0456 0.0000
    vertex -10.6420 -10.6420 0.0000
    vertex -7.5250 -13.0337 0.0000
  endloop
endfacet
facet normal 0.0000 0.0000 -1.0000
  outer loop
    vertex -3.3419 -16.8009 0.0000
    vertex -7.0605 -17.0456 0.0000
    vertex -7.5250 -13.0337 0.0000
  endloop
endfacet
facet normal 0.0000 0.0000 -1.0000
  outer loop
    vertex -3.3419 -16.8009 0.0000
    vertex -7.5250 -13.0337 0.0000
    vertex -3.8952 -14.5372 0.0000
  endloop
endfacet
facet normal 0.0000 0.0000 -1.0000
  outer loop
    vertex -0.0000 -18.4500 0.0000
    vertex -3.3419 -16.8009 0.0000
    vertex -3.8952 -14.5372 0.0000
  endloop
endfacet
facet normal 0.0000 0.0000 -1.0000
  outer loop
    vertex -0.0000 -18.4500 0.0000
    vertex -3.8952 -14.5372 0.0000
    vertex -0.0000 -15.0500 0.0000
  endloop
endfacet
facet normal 0.0000 0.0000 -1.0000
  outer loop
    vertex 3.8569 -19.3901 0.0000
    vertex -0.0000 -18.4500 0.0000
    vertex -0.0000 -15.0500 0.0000
  endloop
endfacet
facet normal 0.0000 0.0000 0.0000
  outer loop
    vertex 3.8569 -19.3901 0.0000
    vertex -0.0000 -15.0500 0.0000
    vertex -0.0000 -15.0500 0.0000
  endloop
endfacet
facet normal 0.0000 0.0000 -1.0000
  outer loop
    vertex 7.0605 -17.0456 0.0000
    vertex 3.8569 -19.3901 0.0000
    vertex -0.0000 -15.0500 0.0000
  endloop
endfacet
facet normal 0.0000 0.0000 -1.0000
  outer loop
    vertex 7.0605 -17.0456 0.0000
    vertex -0.0000 -15.0500 0.0000
    vertex 3.8952 -14.5372 0.0000
  endloop
endfacet
facet normal 0.0000 0.0000 -1.0000
  outer loop
    vertex 9.5169 -14.2431 0.0000
    vertex 7.0605 -17.0456 0.0000
    vertex 3.8952 -14.5372 0.0000
  endloop
endfacet
facet normal 0.0000 0.0000 -1.0000
  outer loop
    vertex 9.5169 -14.2431 0.0000
    vertex 3.8952 -14.5372 0.0000
    vertex 7.5250 -13.0337 0.0000
  endloop
endfacet
facet normal 0.0000 0.0000 -1.0000
  outer loop
    vertex 13.0461 -13.0461 0.0000
    vertex 9.5169 -14.2431 0.0000
    vertex 7.5250 -13.0337 0.0000
  endloop
endfacet
facet normal 0.0000 0.0000 -1.0000
  outer loop
    vertex 13.0461 -13.0461 0.0000
    vertex 7.5250 -13.0337 0.0000
    vertex 10.6420 -10.6420 0.0000
  endloop
endfacet
facet normal 0.0000 0.0000 -1.0000
  outer loop
    vertex 16.4382 -10.9836 0.0000
    vertex 13.0461 -13.0461 0.0000
    vertex 10.6420 -10.6420 0.0000
  endloop
endfacet
facet normal 0.0000 0.0000 0.0000
  outer loop
    vertex 16.4382 -10.9836 0.0000
    vertex 10.6420 -10.6420 0.0000
    vertex 10.6420 -10.6420 0.0000
  endloop
endfacet
facet normal 0.0000 0.0000 -1.0000
  outer loop
    vertex 17.0456 -7.0605 0.0000
    vertex 16.4382 -10.9836 0.0000
    vertex 10.6420 -10.6420 0.0000
  endloop
endfacet
facet normal 0.0000 0.0000 -1.0000
  outer loop
    vertex 17.0456 -7.0605 0.0000
    vertex 10.6420 -10.6420 0.0000
    vertex 13.0337 -7.5250 0.0000
  endloop
endfacet
facet normal 0.0000 0.0000 -1.0000
  outer loop
    vertex 16.8009 -3.3419 0.0000
    vertex 17.0456 -7.0605 0.0000
    vertex 13.0337 -7.5250 0.0000
  endloop
endfacet
facet normal 0.0000 0.0000 -1.0000
  outer loop
    vertex 16.8009 -3.3419 0.0000
    vertex 13.0337 -7.5250 0.0000
    vertex 14.5372 -3.8952 0.0000
  endloop
endfacet
facet normal 0.0000 0.0000 -1.0000
  outer loop
    vertex 18.4500 0.0000 0.0000
    vertex 16.8009 -3.3419 0.0000
    vertex 14.5372 -3.8952 0.0000
  endloop
endfacet
facet normal 0.0000 0.0000 -1.0000
  outer loop
    vertex 18.4500 0.0000 0.0000
    vertex 14.5372 -3.8952 0.0000
    vertex 15.0500 0.0000 0.0000
  endloop
endfacet
endsolid mi_frames_center_slipon_loose5pct
