solid arp_slider_knob_slipon
facet normal 0.9923 -0.0825 0.0921
  outer loop
    vertex 11.5500 0.0000 0.0000
    vertex 11.7442 2.3361 0.0000
    vertex 10.0450 1.9981 18.0000
  endloop
endfacet
facet normal 0.9891 -0.1126 0.0952
  outer loop
    vertex 11.5500 0.0000 0.0000
    vertex 10.0450 1.9981 18.0000
    vertex 9.8175 0.0000 18.0000
  endloop
endfacet
facet normal 0.7484 0.6570 0.0908
  outer loop
    vertex 11.7442 2.3361 0.0000
    vertex 10.1165 4.1904 0.0000
    vertex 8.5159 3.5274 18.0000
  endloop
endfacet
facet normal 0.7049 0.7048 0.0798
  outer loop
    vertex 11.7442 2.3361 0.0000
    vertex 8.5159 3.5274 18.0000
    vertex 10.0450 1.9981 18.0000
  endloop
endfacet
facet normal 0.9944 0.0647 0.0830
  outer loop
    vertex 10.1165 4.1904 0.0000
    vertex 9.9562 6.6525 0.0000
    vertex 8.5157 5.6900 18.0000
  endloop
endfacet
facet normal 0.9961 0.0001 0.0886
  outer loop
    vertex 10.1165 4.1904 0.0000
    vertex 8.5157 5.6900 18.0000
    vertex 8.5159 3.5274 18.0000
  endloop
endfacet
facet normal 0.6431 0.7598 0.0955
  outer loop
    vertex 9.9562 6.6525 0.0000
    vertex 8.1671 8.1671 0.0000
    vertex 6.9420 6.9420 18.0000
  endloop
endfacet
facet normal 0.6200 0.7793 0.0913
  outer loop
    vertex 9.9562 6.6525 0.0000
    vertex 6.9420 6.9420 18.0000
    vertex 8.5157 5.6900 18.0000
  endloop
endfacet
facet normal 0.4768 0.8738 0.0954
  outer loop
    vertex 8.1671 8.1671 0.0000
    vertex 6.1811 9.2507 0.0000
    vertex 5.2186 7.8102 18.0000
  endloop
endfacet
facet normal 0.4480 0.8894 0.0910
  outer loop
    vertex 8.1671 8.1671 0.0000
    vertex 5.2186 7.8102 18.0000
    vertex 6.9420 6.9420 18.0000
  endloop
endfacet
facet normal 0.7874 0.6108 0.0833
  outer loop
    vertex 6.1811 9.2507 0.0000
    vertex 4.6496 11.2251 0.0000
    vertex 3.9866 9.6245 18.0000
  endloop
endfacet
facet normal 0.8240 0.5595 0.0888
  outer loop
    vertex 6.1811 9.2507 0.0000
    vertex 3.9866 9.6245 18.0000
    vertex 5.2186 7.8102 18.0000
  endloop
endfacet
facet normal -0.1248 0.9880 0.0909
  outer loop
    vertex 4.6496 11.2251 0.0000
    vertex 2.1705 10.9120 0.0000
    vertex 1.8325 9.2127 18.0000
  endloop
endfacet
facet normal -0.1872 0.9791 0.0802
  outer loop
    vertex 4.6496 11.2251 0.0000
    vertex 1.8325 9.2127 18.0000
    vertex 3.9866 9.6245 18.0000
  endloop
endfacet
facet normal 0.2808 0.9553 0.0920
  outer loop
    vertex 2.1705 10.9120 0.0000
    vertex 0.0000 11.5500 0.0000
    vertex 0.0000 9.8175 18.0000
  endloop
endfacet
facet normal 0.3120 0.9453 0.0951
  outer loop
    vertex 2.1705 10.9120 0.0000
    vertex 0.0000 9.8175 18.0000
    vertex 1.8325 9.2127 18.0000
  endloop
endfacet
facet normal 0.0825 0.9923 0.0921
  outer loop
    vertex 0.0000 11.5500 0.0000
    vertex -2.3361 11.7442 0.0000
    vertex -1.9981 10.0450 18.0000
  endloop
endfacet
facet normal 0.1126 0.9891 0.0952
  outer loop
    vertex 0.0000 11.5500 0.0000
    vertex -1.9981 10.0450 18.0000
    vertex 0.0000 9.8175 18.0000
  endloop
endfacet
facet normal -0.6570 0.7484 0.0908
  outer loop
    vertex -2.3361 11.7442 0.0000
    vertex -4.1904 10.1165 0.0000
    vertex -3.5274 8.5159 18.0000
  endloop
endfacet
facet normal -0.7048 0.7049 0.0798
  outer loop
    vertex -2.3361 11.7442 0.0000
    vertex -3.5274 8.5159 18.0000
    vertex -1.9981 10.0450 18.0000
  endloop
endfacet
facet normal -0.0647 0.9944 0.0830
  outer loop
    vertex -4.1904 10.1165 0.0000
    vertex -6.6525 9.9562 0.0000
    vertex -5.6900 8.5157 18.0000
  endloop
endfacet
facet normal -0.0001 0.9961 0.0886
  outer loop
    vertex -4.1904 10.1165 0.0000
    vertex -5.6900 8.5157 18.0000
    vertex -3.5274 8.5159 18.0000
  endloop
endfacet
facet normal -0.7598 0.6431 0.0955
  outer loop
    vertex -6.6525 9.9562 0.0000
    vertex -8.1671 8.1671 0.0000
    vertex -6.9420 6.9420 18.0000
  endloop
endfacet
facet normal -0.7793 0.6200 0.0913
  outer loop
    vertex -6.6525 9.9562 0.0000
    vertex -6.9420 6.9420 18.0000
    vertex -5.6900 8.5157 18.0000
  endloop
endfacet
facet normal -0.8738 0.4768 0.0954
  outer loop
    vertex -8.1671 8.1671 0.0000
    vertex -9.2507 6.1811 0.0000
    vertex -7.8102 5.2186 18.0000
  endloop
endfacet
facet normal -0.8894 0.4480 0.0910
  outer loop
    vertex -8.1671 8.1671 0.0000
    vertex -7.8102 5.2186 18.0000
    vertex -6.9420 6.9420 18.0000
  endloop
endfacet
facet normal -0.6108 0.7874 0.0833
  outer loop
    vertex -9.2507 6.1811 0.0000
    vertex -11.2251 4.6496 0.0000
    vertex -9.6245 3.9866 18.0000
  endloop
endfacet
facet normal -0.5595 0.8240 0.0888
  outer loop
    vertex -9.2507 6.1811 0.0000
    vertex -9.6245 3.9866 18.0000
    vertex -7.8102 5.2186 18.0000
  endloop
endfacet
facet normal -0.9880 -0.1248 0.0909
  outer loop
    vertex -11.2251 4.6496 0.0000
    vertex -10.9120 2.1705 0.0000
    vertex -9.2127 1.8325 18.0000
  endloop
endfacet
facet normal -0.9791 -0.1872 0.0802
  outer loop
    vertex -11.2251 4.6496 0.0000
    vertex -9.2127 1.8325 18.0000
    vertex -9.6245 3.9866 18.0000
  endloop
endfacet
facet normal -0.9553 0.2808 0.0920
  outer loop
    vertex -10.9120 2.1705 0.0000
    vertex -11.5500 0.0000 0.0000
    vertex -9.8175 0.0000 18.0000
  endloop
endfacet
facet normal -0.9453 0.3120 0.0951
  outer loop
    vertex -10.9120 2.1705 0.0000
    vertex -9.8175 0.0000 18.0000
    vertex -9.2127 1.8325 18.0000
  endloop
endfacet
facet normal -0.9923 0.0825 0.0921
  outer loop
    vertex -11.5500 0.0000 0.0000
    vertex -11.7442 -2.3361 0.0000
    vertex -10.0450 -1.9981 18.0000
  endloop
endfacet
facet normal -0.9891 0.1126 0.0952
  outer loop
    vertex -11.5500 0.0000 0.0000
    vertex -10.0450 -1.9981 18.0000
    vertex -9.8175 0.0000 18.0000
  endloop
endfacet
facet normal -0.7484 -0.6570 0.0908
  outer loop
    vertex -11.7442 -2.3361 0.0000
    vertex -10.1165 -4.1904 0.0000
    vertex -8.5159 -3.5274 18.0000
  endloop
endfacet
facet normal -0.7049 -0.7048 0.0798
  outer loop
    vertex -11.7442 -2.3361 0.0000
    vertex -8.5159 -3.5274 18.0000
    vertex -10.0450 -1.9981 18.0000
  endloop
endfacet
facet normal -0.9944 -0.0647 0.0830
  outer loop
    vertex -10.1165 -4.1904 0.0000
    vertex -9.9562 -6.6525 0.0000
    vertex -8.5157 -5.6900 18.0000
  endloop
endfacet
facet normal -0.9961 -0.0001 0.0886
  outer loop
    vertex -10.1165 -4.1904 0.0000
    vertex -8.5157 -5.6900 18.0000
    vertex -8.5159 -3.5274 18.0000
  endloop
endfacet
facet normal -0.6431 -0.7598 0.0955
  outer loop
    vertex -9.9562 -6.6525 0.0000
    vertex -8.1671 -8.1671 0.0000
    vertex -6.9420 -6.9420 18.0000
  endloop
endfacet
facet normal -0.6200 -0.7793 0.0913
  outer loop
    vertex -9.9562 -6.6525 0.0000
    vertex -6.9420 -6.9420 18.0000
    vertex -8.5157 -5.6900 18.0000
  endloop
endfacet
facet normal -0.4768 -0.8738 0.0954
  outer loop
    vertex -8.1671 -8.1671 0.0000
    vertex -6.1811 -9.2507 0.0000
    vertex -5.2186 -7.8102 18.0000
  endloop
endfacet
facet normal -0.4480 -0.8894 0.0910
  outer loop
    vertex -8.1671 -8.1671 0.0000
    vertex -5.2186 -7.8102 18.0000
    vertex -6.9420 -6.9420 18.0000
  endloop
endfacet
facet normal -0.7874 -0.6108 0.0833
  outer loop
    vertex -6.1811 -9.2507 0.0000
    vertex -4.6496 -11.2251 0.0000
    vertex -3.9866 -9.6245 18.0000
  endloop
endfacet
facet normal -0.8240 -0.5595 0.0888
  outer loop
    vertex -6.1811 -9.2507 0.0000
    vertex -3.9866 -9.6245 18.0000
    vertex -5.2186 -7.8102 18.0000
  endloop
endfacet
facet normal 0.1248 -0.9880 0.0909
  outer loop
    vertex -4.6496 -11.2251 0.0000
    vertex -2.1705 -10.9120 0.0000
    vertex -1.8325 -9.2127 18.0000
  endloop
endfacet
facet normal 0.1872 -0.9791 0.0802
  outer loop
    vertex -4.6496 -11.2251 0.0000
    vertex -1.8325 -9.2127 18.0000
    vertex -3.9866 -9.6245 18.0000
  endloop
endfacet
facet normal -0.2808 -0.9553 0.0920
  outer loop
    vertex -2.1705 -10.9120 0.0000
    vertex -0.0000 -11.5500 0.0000
    vertex -0.0000 -9.8175 18.0000
  endloop
endfacet
facet normal -0.3120 -0.9453 0.0951
  outer loop
    vertex -2.1705 -10.9120 0.0000
    vertex -0.0000 -9.8175 18.0000
    vertex -1.8325 -9.2127 18.0000
  endloop
endfacet
facet normal -0.0825 -0.9923 0.0921
  outer loop
    vertex -0.0000 -11.5500 0.0000
    vertex 2.3361 -11.7442 0.0000
    vertex 1.9981 -10.0450 18.0000
  endloop
endfacet
facet normal -0.1126 -0.9891 0.0952
  outer loop
    vertex -0.0000 -11.5500 0.0000
    vertex 1.9981 -10.0450 18.0000
    vertex -0.0000 -9.8175 18.0000
  endloop
endfacet
facet normal 0.6570 -0.7484 0.0908
  outer loop
    vertex 2.3361 -11.7442 0.0000
    vertex 4.1904 -10.1165 0.0000
    vertex 3.5274 -8.5159 18.0000
  endloop
endfacet
facet normal 0.7048 -0.7049 0.0798
  outer loop
    vertex 2.3361 -11.7442 0.0000
    vertex 3.5274 -8.5159 18.0000
    vertex 1.9981 -10.0450 18.0000
  endloop
endfacet
facet normal 0.0647 -0.9944 0.0830
  outer loop
    vertex 4.1904 -10.1165 0.0000
    vertex 6.6525 -9.9562 0.0000
    vertex 5.6900 -8.5157 18.0000
  endloop
endfacet
facet normal 0.0001 -0.9961 0.0886
  outer loop
    vertex 4.1904 -10.1165 0.0000
    vertex 5.6900 -8.5157 18.0000
    vertex 3.5274 -8.5159 18.0000
  endloop
endfacet
facet normal 0.7598 -0.6431 0.0955
  outer loop
    vertex 6.6525 -9.9562 0.0000
    vertex 8.1671 -8.1671 0.0000
    vertex 6.9420 -6.9420 18.0000
  endloop
endfacet
facet normal 0.7793 -0.6200 0.0913
  outer loop
    vertex 6.6525 -9.9562 0.0000
    vertex 6.9420 -6.9420 18.0000
    vertex 5.6900 -8.5157 18.0000
  endloop
endfacet
facet normal 0.8738 -0.4768 0.0954
  outer loop
    vertex 8.1671 -8.1671 0.0000
    vertex 9.2507 -6.1811 0.0000
    vertex 7.8102 -5.2186 18.0000
  endloop
endfacet
facet normal 0.8894 -0.4480 0.0910
  outer loop
    vertex 8.1671 -8.1671 0.0000
    vertex 7.8102 -5.2186 18.0000
    vertex 6.9420 -6.9420 18.0000
  endloop
endfacet
facet normal 0.6108 -0.7874 0.0833
  outer loop
    vertex 9.2507 -6.1811 0.0000
    vertex 11.2251 -4.6496 0.0000
    vertex 9.6245 -3.9866 18.0000
  endloop
endfacet
facet normal 0.5595 -0.8240 0.0888
  outer loop
    vertex 9.2507 -6.1811 0.0000
    vertex 9.6245 -3.9866 18.0000
    vertex 7.8102 -5.2186 18.0000
  endloop
endfacet
facet normal 0.9880 0.1248 0.0909
  outer loop
    vertex 11.2251 -4.6496 0.0000
    vertex 10.9120 -2.1705 0.0000
    vertex 9.2127 -1.8325 18.0000
  endloop
endfacet
facet normal 0.9791 0.1872 0.0802
  outer loop
    vertex 11.2251 -4.6496 0.0000
    vertex 9.2127 -1.8325 18.0000
    vertex 9.6245 -3.9866 18.0000
  endloop
endfacet
facet normal 0.9553 -0.2808 0.0920
  outer loop
    vertex 10.9120 -2.1705 0.0000
    vertex 11.5500 0.0000 0.0000
    vertex 9.8175 0.0000 18.0000
  endloop
endfacet
facet normal 0.9453 -0.3120 0.0951
  outer loop
    vertex 10.9120 -2.1705 0.0000
    vertex 9.8175 0.0000 18.0000
    vertex 9.2127 -1.8325 18.0000
  endloop
endfacet
facet normal -0.9914 -0.1305 0.0000
  outer loop
    vertex 7.5825 2.0317 0.0000
    vertex 7.8500 0.0000 0.0000
    vertex 7.8500 0.0000 16.0000
  endloop
endfacet
facet normal -0.9914 -0.1305 0.0000
  outer loop
    vertex 7.5825 2.0317 0.0000
    vertex 7.8500 0.0000 16.0000
    vertex 7.5825 2.0317 16.0000
  endloop
endfacet
facet normal -0.9239 -0.3827 0.0000
  outer loop
    vertex 6.7983 3.9250 0.0000
    vertex 7.5825 2.0317 0.0000
    vertex 7.5825 2.0317 16.0000
  endloop
endfacet
facet normal -0.9239 -0.3827 0.0000
  outer loop
    vertex 6.7983 3.9250 0.0000
    vertex 7.5825 2.0317 16.0000
    vertex 6.7983 3.9250 16.0000
  endloop
endfacet
facet normal -0.7934 -0.6088 0.0000
  outer loop
    vertex 5.5508 5.5508 0.0000
    vertex 6.7983 3.9250 0.0000
    vertex 6.7983 3.9250 16.0000
  endloop
endfacet
facet normal -0.7934 -0.6088 0.0000
  outer loop
    vertex 5.5508 5.5508 0.0000
    vertex 6.7983 3.9250 16.0000
    vertex 5.5508 5.5508 16.0000
  endloop
endfacet
facet normal -0.6088 -0.7934 0.0000
  outer loop
    vertex 3.9250 6.7983 0.0000
    vertex 5.5508 5.5508 0.0000
    vertex 5.5508 5.5508 16.0000
  endloop
endfacet
facet normal -0.6088 -0.7934 0.0000
  outer loop
    vertex 3.9250 6.7983 0.0000
    vertex 5.5508 5.5508 16.0000
    vertex 3.9250 6.7983 16.0000
  endloop
endfacet
facet normal -0.3827 -0.9239 0.0000
  outer loop
    vertex 2.0317 7.5825 0.0000
    vertex 3.9250 6.7983 0.0000
    vertex 3.9250 6.7983 16.0000
  endloop
endfacet
facet normal -0.3827 -0.9239 0.0000
  outer loop
    vertex 2.0317 7.5825 0.0000
    vertex 3.9250 6.7983 16.0000
    vertex 2.0317 7.5825 16.0000
  endloop
endfacet
facet normal -0.1305 -0.9914 0.0000
  outer loop
    vertex 0.0000 7.8500 0.0000
    vertex 2.0317 7.5825 0.0000
    vertex 2.0317 7.5825 16.0000
  endloop
endfacet
facet normal -0.1305 -0.9914 0.0000
  outer loop
    vertex 0.0000 7.8500 0.0000
    vertex 2.0317 7.5825 16.0000
    vertex 0.0000 7.8500 16.0000
  endloop
endfacet
facet normal 0.1305 -0.9914 0.0000
  outer loop
    vertex -2.0317 7.5825 0.0000
    vertex 0.0000 7.8500 0.0000
    vertex 0.0000 7.8500 16.0000
  endloop
endfacet
facet normal 0.1305 -0.9914 0.0000
  outer loop
    vertex -2.0317 7.5825 0.0000
    vertex 0.0000 7.8500 16.0000
    vertex -2.0317 7.5825 16.0000
  endloop
endfacet
facet normal 0.3827 -0.9239 0.0000
  outer loop
    vertex -3.9250 6.7983 0.0000
    vertex -2.0317 7.5825 0.0000
    vertex -2.0317 7.5825 16.0000
  endloop
endfacet
facet normal 0.3827 -0.9239 0.0000
  outer loop
    vertex -3.9250 6.7983 0.0000
    vertex -2.0317 7.5825 16.0000
    vertex -3.9250 6.7983 16.0000
  endloop
endfacet
facet normal 0.6088 -0.7934 0.0000
  outer loop
    vertex -5.5508 5.5508 0.0000
    vertex -3.9250 6.7983 0.0000
    vertex -3.9250 6.7983 16.0000
  endloop
endfacet
facet normal 0.6088 -0.7934 0.0000
  outer loop
    vertex -5.5508 5.5508 0.0000
    vertex -3.9250 6.7983 16.0000
    vertex -5.5508 5.5508 16.0000
  endloop
endfacet
facet normal 0.7934 -0.6088 0.0000
  outer loop
    vertex -6.7983 3.9250 0.0000
    vertex -5.5508 5.5508 0.0000
    vertex -5.5508 5.5508 16.0000
  endloop
endfacet
facet normal 0.7934 -0.6088 0.0000
  outer loop
    vertex -6.7983 3.9250 0.0000
    vertex -5.5508 5.5508 16.0000
    vertex -6.7983 3.9250 16.0000
  endloop
endfacet
facet normal 0.9239 -0.3827 0.0000
  outer loop
    vertex -7.5825 2.0317 0.0000
    vertex -6.7983 3.9250 0.0000
    vertex -6.7983 3.9250 16.0000
  endloop
endfacet
facet normal 0.9239 -0.3827 0.0000
  outer loop
    vertex -7.5825 2.0317 0.0000
    vertex -6.7983 3.9250 16.0000
    vertex -7.5825 2.0317 16.0000
  endloop
endfacet
facet normal 0.9914 -0.1305 0.0000
  outer loop
    vertex -7.8500 0.0000 0.0000
    vertex -7.5825 2.0317 0.0000
    vertex -7.5825 2.0317 16.0000
  endloop
endfacet
facet normal 0.9914 -0.1305 0.0000
  outer loop
    vertex -7.8500 0.0000 0.0000
    vertex -7.5825 2.0317 16.0000
    vertex -7.8500 0.0000 16.0000
  endloop
endfacet
facet normal 0.9914 0.1305 0.0000
  outer loop
    vertex -7.5825 -2.0317 0.0000
    vertex -7.8500 0.0000 0.0000
    vertex -7.8500 0.0000 16.0000
  endloop
endfacet
facet normal 0.9914 0.1305 0.0000
  outer loop
    vertex -7.5825 -2.0317 0.0000
    vertex -7.8500 0.0000 16.0000
    vertex -7.5825 -2.0317 16.0000
  endloop
endfacet
facet normal 0.9239 0.3827 0.0000
  outer loop
    vertex -6.7983 -3.9250 0.0000
    vertex -7.5825 -2.0317 0.0000
    vertex -7.5825 -2.0317 16.0000
  endloop
endfacet
facet normal 0.9239 0.3827 0.0000
  outer loop
    vertex -6.7983 -3.9250 0.0000
    vertex -7.5825 -2.0317 16.0000
    vertex -6.7983 -3.9250 16.0000
  endloop
endfacet
facet normal 0.7934 0.6088 0.0000
  outer loop
    vertex -5.5508 -5.5508 0.0000
    vertex -6.7983 -3.9250 0.0000
    vertex -6.7983 -3.9250 16.0000
  endloop
endfacet
facet normal 0.7934 0.6088 0.0000
  outer loop
    vertex -5.5508 -5.5508 0.0000
    vertex -6.7983 -3.9250 16.0000
    vertex -5.5508 -5.5508 16.0000
  endloop
endfacet
facet normal 0.6088 0.7934 0.0000
  outer loop
    vertex -3.9250 -6.7983 0.0000
    vertex -5.5508 -5.5508 0.0000
    vertex -5.5508 -5.5508 16.0000
  endloop
endfacet
facet normal 0.6088 0.7934 0.0000
  outer loop
    vertex -3.9250 -6.7983 0.0000
    vertex -5.5508 -5.5508 16.0000
    vertex -3.9250 -6.7983 16.0000
  endloop
endfacet
facet normal 0.3827 0.9239 0.0000
  outer loop
    vertex -2.0317 -7.5825 0.0000
    vertex -3.9250 -6.7983 0.0000
    vertex -3.9250 -6.7983 16.0000
  endloop
endfacet
facet normal 0.3827 0.9239 0.0000
  outer loop
    vertex -2.0317 -7.5825 0.0000
    vertex -3.9250 -6.7983 16.0000
    vertex -2.0317 -7.5825 16.0000
  endloop
endfacet
facet normal 0.1305 0.9914 0.0000
  outer loop
    vertex -0.0000 -7.8500 0.0000
    vertex -2.0317 -7.5825 0.0000
    vertex -2.0317 -7.5825 16.0000
  endloop
endfacet
facet normal 0.1305 0.9914 0.0000
  outer loop
    vertex -0.0000 -7.8500 0.0000
    vertex -2.0317 -7.5825 16.0000
    vertex -0.0000 -7.8500 16.0000
  endloop
endfacet
facet normal -0.1305 0.9914 0.0000
  outer loop
    vertex 2.0317 -7.5825 0.0000
    vertex -0.0000 -7.8500 0.0000
    vertex -0.0000 -7.8500 16.0000
  endloop
endfacet
facet normal -0.1305 0.9914 0.0000
  outer loop
    vertex 2.0317 -7.5825 0.0000
    vertex -0.0000 -7.8500 16.0000
    vertex 2.0317 -7.5825 16.0000
  endloop
endfacet
facet normal -0.3827 0.9239 0.0000
  outer loop
    vertex 3.9250 -6.7983 0.0000
    vertex 2.0317 -7.5825 0.0000
    vertex 2.0317 -7.5825 16.0000
  endloop
endfacet
facet normal -0.3827 0.9239 0.0000
  outer loop
    vertex 3.9250 -6.7983 0.0000
    vertex 2.0317 -7.5825 16.0000
    vertex 3.9250 -6.7983 16.0000
  endloop
endfacet
facet normal -0.6088 0.7934 0.0000
  outer loop
    vertex 5.5508 -5.5508 0.0000
    vertex 3.9250 -6.7983 0.0000
    vertex 3.9250 -6.7983 16.0000
  endloop
endfacet
facet normal -0.6088 0.7934 0.0000
  outer loop
    vertex 5.5508 -5.5508 0.0000
    vertex 3.9250 -6.7983 16.0000
    vertex 5.5508 -5.5508 16.0000
  endloop
endfacet
facet normal -0.7934 0.6088 0.0000
  outer loop
    vertex 6.7983 -3.9250 0.0000
    vertex 5.5508 -5.5508 0.0000
    vertex 5.5508 -5.5508 16.0000
  endloop
endfacet
facet normal -0.7934 0.6088 0.0000
  outer loop
    vertex 6.7983 -3.9250 0.0000
    vertex 5.5508 -5.5508 16.0000
    vertex 6.7983 -3.9250 16.0000
  endloop
endfacet
facet normal -0.9239 0.3827 0.0000
  outer loop
    vertex 7.5825 -2.0317 0.0000
    vertex 6.7983 -3.9250 0.0000
    vertex 6.7983 -3.9250 16.0000
  endloop
endfacet
facet normal -0.9239 0.3827 0.0000
  outer loop
    vertex 7.5825 -2.0317 0.0000
    vertex 6.7983 -3.9250 16.0000
    vertex 7.5825 -2.0317 16.0000
  endloop
endfacet
facet normal -0.9914 0.1305 0.0000
  outer loop
    vertex 7.8500 0.0000 0.0000
    vertex 7.5825 -2.0317 0.0000
    vertex 7.5825 -2.0317 16.0000
  endloop
endfacet
facet normal -0.9914 0.1305 0.0000
  outer loop
    vertex 7.8500 0.0000 0.0000
    vertex 7.5825 -2.0317 16.0000
    vertex 7.8500 0.0000 16.0000
  endloop
endfacet
facet normal 0.0000 0.0000 1.0000
  outer loop
    vertex 9.8175 0.0000 18.0000
    vertex 10.0450 1.9981 18.0000
    vertex 0.0000 0.0000 18.0000
  endloop
endfacet
facet normal 0.0000 0.0000 1.0000
  outer loop
    vertex 10.0450 1.9981 18.0000
    vertex 8.5159 3.5274 18.0000
    vertex 0.0000 0.0000 18.0000
  endloop
endfacet
facet normal 0.0000 0.0000 1.0000
  outer loop
    vertex 8.5159 3.5274 18.0000
    vertex 8.5157 5.6900 18.0000
    vertex 0.0000 0.0000 18.0000
  endloop
endfacet
facet normal 0.0000 0.0000 1.0000
  outer loop
    vertex 8.5157 5.6900 18.0000
    vertex 6.9420 6.9420 18.0000
    vertex 0.0000 0.0000 18.0000
  endloop
endfacet
facet normal 0.0000 0.0000 1.0000
  outer loop
    vertex 6.9420 6.9420 18.0000
    vertex 5.2186 7.8102 18.0000
    vertex 0.0000 0.0000 18.0000
  endloop
endfacet
facet normal 0.0000 0.0000 1.0000
  outer loop
    vertex 5.2186 7.8102 18.0000
    vertex 3.9866 9.6245 18.0000
    vertex 0.0000 0.0000 18.0000
  endloop
endfacet
facet normal 0.0000 0.0000 1.0000
  outer loop
    vertex 3.9866 9.6245 18.0000
    vertex 1.8325 9.2127 18.0000
    vertex 0.0000 0.0000 18.0000
  endloop
endfacet
facet normal 0.0000 0.0000 1.0000
  outer loop
    vertex 1.8325 9.2127 18.0000
    vertex 0.0000 9.8175 18.0000
    vertex 0.0000 0.0000 18.0000
  endloop
endfacet
facet normal 0.0000 0.0000 1.0000
  outer loop
    vertex 0.0000 9.8175 18.0000
    vertex -1.9981 10.0450 18.0000
    vertex 0.0000 0.0000 18.0000
  endloop
endfacet
facet normal 0.0000 0.0000 1.0000
  outer loop
    vertex -1.9981 10.0450 18.0000
    vertex -3.5274 8.5159 18.0000
    vertex 0.0000 0.0000 18.0000
  endloop
endfacet
facet normal 0.0000 0.0000 1.0000
  outer loop
    vertex -3.5274 8.5159 18.0000
    vertex -5.6900 8.5157 18.0000
    vertex 0.0000 0.0000 18.0000
  endloop
endfacet
facet normal 0.0000 0.0000 1.0000
  outer loop
    vertex -5.6900 8.5157 18.0000
    vertex -6.9420 6.9420 18.0000
    vertex 0.0000 0.0000 18.0000
  endloop
endfacet
facet normal 0.0000 0.0000 1.0000
  outer loop
    vertex -6.9420 6.9420 18.0000
    vertex -7.8102 5.2186 18.0000
    vertex 0.0000 0.0000 18.0000
  endloop
endfacet
facet normal 0.0000 0.0000 1.0000
  outer loop
    vertex -7.8102 5.2186 18.0000
    vertex -9.6245 3.9866 18.0000
    vertex 0.0000 0.0000 18.0000
  endloop
endfacet
facet normal 0.0000 0.0000 1.0000
  outer loop
    vertex -9.6245 3.9866 18.0000
    vertex -9.2127 1.8325 18.0000
    vertex 0.0000 0.0000 18.0000
  endloop
endfacet
facet normal 0.0000 0.0000 1.0000
  outer loop
    vertex -9.2127 1.8325 18.0000
    vertex -9.8175 0.0000 18.0000
    vertex 0.0000 0.0000 18.0000
  endloop
endfacet
facet normal 0.0000 0.0000 1.0000
  outer loop
    vertex -9.8175 0.0000 18.0000
    vertex -10.0450 -1.9981 18.0000
    vertex 0.0000 0.0000 18.0000
  endloop
endfacet
facet normal 0.0000 0.0000 1.0000
  outer loop
    vertex -10.0450 -1.9981 18.0000
    vertex -8.5159 -3.5274 18.0000
    vertex 0.0000 0.0000 18.0000
  endloop
endfacet
facet normal 0.0000 0.0000 1.0000
  outer loop
    vertex -8.5159 -3.5274 18.0000
    vertex -8.5157 -5.6900 18.0000
    vertex 0.0000 0.0000 18.0000
  endloop
endfacet
facet normal 0.0000 0.0000 1.0000
  outer loop
    vertex -8.5157 -5.6900 18.0000
    vertex -6.9420 -6.9420 18.0000
    vertex 0.0000 0.0000 18.0000
  endloop
endfacet
facet normal 0.0000 0.0000 1.0000
  outer loop
    vertex -6.9420 -6.9420 18.0000
    vertex -5.2186 -7.8102 18.0000
    vertex 0.0000 0.0000 18.0000
  endloop
endfacet
facet normal 0.0000 0.0000 1.0000
  outer loop
    vertex -5.2186 -7.8102 18.0000
    vertex -3.9866 -9.6245 18.0000
    vertex 0.0000 0.0000 18.0000
  endloop
endfacet
facet normal 0.0000 0.0000 1.0000
  outer loop
    vertex -3.9866 -9.6245 18.0000
    vertex -1.8325 -9.2127 18.0000
    vertex 0.0000 0.0000 18.0000
  endloop
endfacet
facet normal 0.0000 0.0000 1.0000
  outer loop
    vertex -1.8325 -9.2127 18.0000
    vertex -0.0000 -9.8175 18.0000
    vertex 0.0000 0.0000 18.0000
  endloop
endfacet
facet normal 0.0000 0.0000 1.0000
  outer loop
    vertex -0.0000 -9.8175 18.0000
    vertex 1.9981 -10.0450 18.0000
    vertex 0.0000 0.0000 18.0000
  endloop
endfacet
facet normal 0.0000 0.0000 1.0000
  outer loop
    vertex 1.9981 -10.0450 18.0000
    vertex 3.5274 -8.5159 18.0000
    vertex 0.0000 0.0000 18.0000
  endloop
endfacet
facet normal 0.0000 0.0000 1.0000
  outer loop
    vertex 3.5274 -8.5159 18.0000
    vertex 5.6900 -8.5157 18.0000
    vertex 0.0000 0.0000 18.0000
  endloop
endfacet
facet normal 0.0000 0.0000 1.0000
  outer loop
    vertex 5.6900 -8.5157 18.0000
    vertex 6.9420 -6.9420 18.0000
    vertex 0.0000 0.0000 18.0000
  endloop
endfacet
facet normal 0.0000 0.0000 1.0000
  outer loop
    vertex 6.9420 -6.9420 18.0000
    vertex 7.8102 -5.2186 18.0000
    vertex 0.0000 0.0000 18.0000
  endloop
endfacet
facet normal 0.0000 0.0000 1.0000
  outer loop
    vertex 7.8102 -5.2186 18.0000
    vertex 9.6245 -3.9866 18.0000
    vertex 0.0000 0.0000 18.0000
  endloop
endfacet
facet normal 0.0000 0.0000 1.0000
  outer loop
    vertex 9.6245 -3.9866 18.0000
    vertex 9.2127 -1.8325 18.0000
    vertex 0.0000 0.0000 18.0000
  endloop
endfacet
facet normal 0.0000 0.0000 1.0000
  outer loop
    vertex 9.2127 -1.8325 18.0000
    vertex 9.8175 0.0000 18.0000
    vertex 0.0000 0.0000 18.0000
  endloop
endfacet
facet normal 0.0000 0.0000 -1.0000
  outer loop
    vertex 7.5825 2.0317 16.0000
    vertex 7.8500 0.0000 16.0000
    vertex 0.0000 0.0000 16.0000
  endloop
endfacet
facet normal 0.0000 0.0000 -1.0000
  outer loop
    vertex 6.7983 3.9250 16.0000
    vertex 7.5825 2.0317 16.0000
    vertex 0.0000 0.0000 16.0000
  endloop
endfacet
facet normal 0.0000 0.0000 -1.0000
  outer loop
    vertex 5.5508 5.5508 16.0000
    vertex 6.7983 3.9250 16.0000
    vertex 0.0000 0.0000 16.0000
  endloop
endfacet
facet normal 0.0000 0.0000 -1.0000
  outer loop
    vertex 3.9250 6.7983 16.0000
    vertex 5.5508 5.5508 16.0000
    vertex 0.0000 0.0000 16.0000
  endloop
endfacet
facet normal 0.0000 0.0000 -1.0000
  outer loop
    vertex 2.0317 7.5825 16.0000
    vertex 3.9250 6.7983 16.0000
    vertex 0.0000 0.0000 16.0000
  endloop
endfacet
facet normal 0.0000 0.0000 -1.0000
  outer loop
    vertex 0.0000 7.8500 16.0000
    vertex 2.0317 7.5825 16.0000
    vertex 0.0000 0.0000 16.0000
  endloop
endfacet
facet normal 0.0000 0.0000 -1.0000
  outer loop
    vertex -2.0317 7.5825 16.0000
    vertex 0.0000 7.8500 16.0000
    vertex 0.0000 0.0000 16.0000
  endloop
endfacet
facet normal 0.0000 0.0000 -1.0000
  outer loop
    vertex -3.9250 6.7983 16.0000
    vertex -2.0317 7.5825 16.0000
    vertex 0.0000 0.0000 16.0000
  endloop
endfacet
facet normal 0.0000 0.0000 -1.0000
  outer loop
    vertex -5.5508 5.5508 16.0000
    vertex -3.9250 6.7983 16.0000
    vertex 0.0000 0.0000 16.0000
  endloop
endfacet
facet normal 0.0000 0.0000 -1.0000
  outer loop
    vertex -6.7983 3.9250 16.0000
    vertex -5.5508 5.5508 16.0000
    vertex 0.0000 0.0000 16.0000
  endloop
endfacet
facet normal 0.0000 0.0000 -1.0000
  outer loop
    vertex -7.5825 2.0317 16.0000
    vertex -6.7983 3.9250 16.0000
    vertex 0.0000 0.0000 16.0000
  endloop
endfacet
facet normal 0.0000 0.0000 -1.0000
  outer loop
    vertex -7.8500 0.0000 16.0000
    vertex -7.5825 2.0317 16.0000
    vertex 0.0000 0.0000 16.0000
  endloop
endfacet
facet normal 0.0000 0.0000 -1.0000
  outer loop
    vertex -7.5825 -2.0317 16.0000
    vertex -7.8500 0.0000 16.0000
    vertex 0.0000 0.0000 16.0000
  endloop
endfacet
facet normal 0.0000 0.0000 -1.0000
  outer loop
    vertex -6.7983 -3.9250 16.0000
    vertex -7.5825 -2.0317 16.0000
    vertex 0.0000 0.0000 16.0000
  endloop
endfacet
facet normal 0.0000 0.0000 -1.0000
  outer loop
    vertex -5.5508 -5.5508 16.0000
    vertex -6.7983 -3.9250 16.0000
    vertex 0.0000 0.0000 16.0000
  endloop
endfacet
facet normal 0.0000 0.0000 -1.0000
  outer loop
    vertex -3.9250 -6.7983 16.0000
    vertex -5.5508 -5.5508 16.0000
    vertex 0.0000 0.0000 16.0000
  endloop
endfacet
facet normal 0.0000 0.0000 -1.0000
  outer loop
    vertex -2.0317 -7.5825 16.0000
    vertex -3.9250 -6.7983 16.0000
    vertex 0.0000 0.0000 16.0000
  endloop
endfacet
facet normal 0.0000 0.0000 -1.0000
  outer loop
    vertex -0.0000 -7.8500 16.0000
    vertex -2.0317 -7.5825 16.0000
    vertex 0.0000 0.0000 16.0000
  endloop
endfacet
facet normal 0.0000 0.0000 -1.0000
  outer loop
    vertex 2.0317 -7.5825 16.0000
    vertex -0.0000 -7.8500 16.0000
    vertex 0.0000 0.0000 16.0000
  endloop
endfacet
facet normal 0.0000 0.0000 -1.0000
  outer loop
    vertex 3.9250 -6.7983 16.0000
    vertex 2.0317 -7.5825 16.0000
    vertex 0.0000 0.0000 16.0000
  endloop
endfacet
facet normal 0.0000 0.0000 -1.0000
  outer loop
    vertex 5.5508 -5.5508 16.0000
    vertex 3.9250 -6.7983 16.0000
    vertex 0.0000 0.0000 16.0000
  endloop
endfacet
facet normal 0.0000 0.0000 -1.0000
  outer loop
    vertex 6.7983 -3.9250 16.0000
    vertex 5.5508 -5.5508 16.0000
    vertex 0.0000 0.0000 16.0000
  endloop
endfacet
facet normal 0.0000 0.0000 -1.0000
  outer loop
    vertex 7.5825 -2.0317 16.0000
    vertex 6.7983 -3.9250 16.0000
    vertex 0.0000 0.0000 16.0000
  endloop
endfacet
facet normal 0.0000 0.0000 -1.0000
  outer loop
    vertex 7.8500 0.0000 16.0000
    vertex 7.5825 -2.0317 16.0000
    vertex 0.0000 0.0000 16.0000
  endloop
endfacet
facet normal 0.0000 0.0000 -1.0000
  outer loop
    vertex 11.7442 2.3361 0.0000
    vertex 11.5500 0.0000 0.0000
    vertex 7.8500 0.0000 0.0000
  endloop
endfacet
facet normal 0.0000 0.0000 0.0000
  outer loop
    vertex 11.7442 2.3361 0.0000
    vertex 7.8500 0.0000 0.0000
    vertex 7.8500 0.0000 0.0000
  endloop
endfacet
facet normal 0.0000 0.0000 -1.0000
  outer loop
    vertex 10.1165 4.1904 0.0000
    vertex 11.7442 2.3361 0.0000
    vertex 7.8500 0.0000 0.0000
  endloop
endfacet
facet normal 0.0000 0.0000 -1.0000
  outer loop
    vertex 10.1165 4.1904 0.0000
    vertex 7.8500 0.0000 0.0000
    vertex 7.5825 2.0317 0.0000
  endloop
endfacet
facet normal 0.0000 0.0000 -1.0000
  outer loop
    vertex 9.9562 6.6525 0.0000
    vertex 10.1165 4.1904 0.0000
    vertex 7.5825 2.0317 0.0000
  endloop
endfacet
facet normal 0.0000 0.0000 -1.0000
  outer loop
    vertex 9.9562 6.6525 0.0000
    vertex 7.5825 2.0317 0.0000
    vertex 6.7983 3.9250 0.0000
  endloop
endfacet
facet normal 0.0000 0.0000 -1.0000
  outer loop
    vertex 8.1671 8.1671 0.0000
    vertex 9.9562 6.6525 0.0000
    vertex 6.7983 3.9250 0.0000
  endloop
endfacet
facet normal 0.0000 0.0000 -1.0000
  outer loop
    vertex 8.1671 8.1671 0.0000
    vertex 6.7983 3.9250 0.0000
    vertex 5.5508 5.5508 0.0000
  endloop
endfacet
facet normal 0.0000 0.0000 -1.0000
  outer loop
    vertex 6.1811 9.2507 0.0000
    vertex 8.1671 8.1671 0.0000
    vertex 5.5508 5.5508 0.0000
  endloop
endfacet
facet normal 0.0000 0.0000 0.0000
  outer loop
    vertex 6.1811 9.2507 0.0000
    vertex 5.5508 5.5508 0.0000
    vertex 5.5508 5.5508 0.0000
  endloop
endfacet
facet normal 0.0000 0.0000 -1.0000
  outer loop
    vertex 4.6496 11.2251 0.0000
    vertex 6.1811 9.2507 0.0000
    vertex 5.5508 5.5508 0.0000
  endloop
endfacet
facet normal 0.0000 0.0000 -1.0000
  outer loop
    vertex 4.6496 11.2251 0.0000
    vertex 5.5508 5.5508 0.0000
    vertex 3.9250 6.7983 0.0000
  endloop
endfacet
facet normal 0.0000 0.0000 -1.0000
  outer loop
    vertex 2.1705 10.9120 0.0000
    vertex 4.6496 11.2251 0.0000
    vertex 3.9250 6.7983 0.0000
  endloop
endfacet
facet normal 0.0000 0.0000 -1.0000
  outer loop
    vertex 2.1705 10.9120 0.0000
    vertex 3.9250 6.7983 0.0000
    vertex 2.0317 7.5825 0.0000
  endloop
endfacet
facet normal 0.0000 0.0000 -1.0000
  outer loop
    vertex 0.0000 11.5500 0.0000
    vertex 2.1705 10.9120 0.0000
    vertex 2.0317 7.5825 0.0000
  endloop
endfacet
facet normal 0.0000 0.0000 -1.0000
  outer loop
    vertex 0.0000 11.5500 0.0000
    vertex 2.0317 7.5825 0.0000
    vertex 0.0000 7.8500 0.0000
  endloop
endfacet
facet normal 0.0000 0.0000 -1.0000
  outer loop
    vertex -2.3361 11.7442 0.0000
    vertex 0.0000 11.5500 0.0000
    vertex 0.0000 7.8500 0.0000
  endloop
endfacet
facet normal 0.0000 0.0000 0.0000
  outer loop
    vertex -2.3361 11.7442 0.0000
    vertex 0.0000 7.8500 0.0000
    vertex 0.0000 7.8500 0.0000
  endloop
endfacet
facet normal 0.0000 0.0000 -1.0000
  outer loop
    vertex -4.1904 10.1165 0.0000
    vertex -2.3361 11.7442 0.0000
    vertex 0.0000 7.8500 0.0000
  endloop
endfacet
facet normal 0.0000 0.0000 -1.0000
  outer loop
    vertex -4.1904 10.1165 0.0000
    vertex 0.0000 7.8500 0.0000
    vertex -2.0317 7.5825 0.0000
  endloop
endfacet
facet normal 0.0000 0.0000 -1.0000
  outer loop
    vertex -6.6525 9.9562 0.0000
    vertex -4.1904 10.1165 0.0000
    vertex -2.0317 7.5825 0.0000
  endloop
endfacet
facet normal 0.0000 0.0000 -1.0000
  outer loop
    vertex -6.6525 9.9562 0.0000
    vertex -2.0317 7.5825 0.0000
    vertex -3.9250 6.7983 0.0000
  endloop
endfacet
facet normal 0.0000 0.0000 -1.0000
  outer loop
    vertex -8.1671 8.1671 0.0000
    vertex -6.6525 9.9562 0.0000
    vertex -3.9250 6.7983 0.0000
  endloop
endfacet
facet normal 0.0000 0.0000 -1.0000
  outer loop
    vertex -8.1671 8.1671 0.0000
    vertex -3.9250 6.7983 0.0000
    vertex -5.5508 5.5508 0.0000
  endloop
endfacet
facet normal 0.0000 0.0000 -1.0000
  outer loop
    vertex -9.2507 6.1811 0.0000
    vertex -8.1671 8.1671 0.0000
    vertex -5.5508 5.5508 0.0000
  endloop
endfacet
facet normal 0.0000 0.0000 0.0000
  outer loop
    vertex -9.2507 6.1811 0.0000
    vertex -5.5508 5.5508 0.0000
    vertex -5.5508 5.5508 0.0000
  endloop
endfacet
facet normal 0.0000 0.0000 -1.0000
  outer loop
    vertex -11.2251 4.6496 0.0000
    vertex -9.2507 6.1811 0.0000
    vertex -5.5508 5.5508 0.0000
  endloop
endfacet
facet normal 0.0000 0.0000 -1.0000
  outer loop
    vertex -11.2251 4.6496 0.0000
    vertex -5.5508 5.5508 0.0000
    vertex -6.7983 3.9250 0.0000
  endloop
endfacet
facet normal 0.0000 0.0000 -1.0000
  outer loop
    vertex -10.9120 2.1705 0.0000
    vertex -11.2251 4.6496 0.0000
    vertex -6.7983 3.9250 0.0000
  endloop
endfacet
facet normal 0.0000 0.0000 -1.0000
  outer loop
    vertex -10.9120 2.1705 0.0000
    vertex -6.7983 3.9250 0.0000
    vertex -7.5825 2.0317 0.0000
  endloop
endfacet
facet normal 0.0000 0.0000 -1.0000
  outer loop
    vertex -11.5500 0.0000 0.0000
    vertex -10.9120 2.1705 0.0000
    vertex -7.5825 2.0317 0.0000
  endloop
endfacet
facet normal 0.0000 0.0000 -1.0000
  outer loop
    vertex -11.5500 0.0000 0.0000
    vertex -7.5825 2.0317 0.0000
    vertex -7.8500 0.0000 0.0000
  endloop
endfacet
facet normal 0.0000 0.0000 -1.0000
  outer loop
    vertex -11.7442 -2.3361 0.0000
    vertex -11.5500 0.0000 0.0000
    vertex -7.8500 0.0000 0.0000
  endloop
endfacet
facet normal 0.0000 0.0000 0.0000
  outer loop
    vertex -11.7442 -2.3361 0.0000
    vertex -7.8500 0.0000 0.0000
    vertex -7.8500 0.0000 0.0000
  endloop
endfacet
facet normal 0.0000 0.0000 -1.0000
  outer loop
    vertex -10.1165 -4.1904 0.0000
    vertex -11.7442 -2.3361 0.0000
    vertex -7.8500 0.0000 0.0000
  endloop
endfacet
facet normal 0.0000 0.0000 -1.0000
  outer loop
    vertex -10.1165 -4.1904 0.0000
    vertex -7.8500 0.0000 0.0000
    vertex -7.5825 -2.0317 0.0000
  endloop
endfacet
facet normal 0.0000 0.0000 -1.0000
  outer loop
    vertex -9.9562 -6.6525 0.0000
    vertex -10.1165 -4.1904 0.0000
    vertex -7.5825 -2.0317 0.0000
  endloop
endfacet
facet normal 0.0000 0.0000 -1.0000
  outer loop
    vertex -9.9562 -6.6525 0.0000
    vertex -7.5825 -2.0317 0.0000
    vertex -6.7983 -3.9250 0.0000
  endloop
endfacet
facet normal 0.0000 0.0000 -1.0000
  outer loop
    vertex -8.1671 -8.1671 0.0000
    vertex -9.9562 -6.6525 0.0000
    vertex -6.7983 -3.9250 0.0000
  endloop
endfacet
facet normal 0.0000 0.0000 -1.0000
  outer loop
    vertex -8.1671 -8.1671 0.0000
    vertex -6.7983 -3.9250 0.0000
    vertex -5.5508 -5.5508 0.0000
  endloop
endfacet
facet normal 0.0000 0.0000 -1.0000
  outer loop
    vertex -6.1811 -9.2507 0.0000
    vertex -8.1671 -8.1671 0.0000
    vertex -5.5508 -5.5508 0.0000
  endloop
endfacet
facet normal 0.0000 0.0000 0.0000
  outer loop
    vertex -6.1811 -9.2507 0.0000
    vertex -5.5508 -5.5508 0.0000
    vertex -5.5508 -5.5508 0.0000
  endloop
endfacet
facet normal 0.0000 0.0000 -1.0000
  outer loop
    vertex -4.6496 -11.2251 0.0000
    vertex -6.1811 -9.2507 0.0000
    vertex -5.5508 -5.5508 0.0000
  endloop
endfacet
facet normal 0.0000 0.0000 -1.0000
  outer loop
    vertex -4.6496 -11.2251 0.0000
    vertex -5.5508 -5.5508 0.0000
    vertex -3.9250 -6.7983 0.0000
  endloop
endfacet
facet normal 0.0000 0.0000 -1.0000
  outer loop
    vertex -2.1705 -10.9120 0.0000
    vertex -4.6496 -11.2251 0.0000
    vertex -3.9250 -6.7983 0.0000
  endloop
endfacet
facet normal 0.0000 0.0000 -1.0000
  outer loop
    vertex -2.1705 -10.9120 0.0000
    vertex -3.9250 -6.7983 0.0000
    vertex -2.0317 -7.5825 0.0000
  endloop
endfacet
facet normal 0.0000 0.0000 -1.0000
  outer loop
    vertex -0.0000 -11.5500 0.0000
    vertex -2.1705 -10.9120 0.0000
    vertex -2.0317 -7.5825 0.0000
  endloop
endfacet
facet normal 0.0000 0.0000 -1.0000
  outer loop
    vertex -0.0000 -11.5500 0.0000
    vertex -2.0317 -7.5825 0.0000
    vertex -0.0000 -7.8500 0.0000
  endloop
endfacet
facet normal 0.0000 0.0000 -1.0000
  outer loop
    vertex 2.3361 -11.7442 0.0000
    vertex -0.0000 -11.5500 0.0000
    vertex -0.0000 -7.8500 0.0000
  endloop
endfacet
facet normal 0.0000 0.0000 0.0000
  outer loop
    vertex 2.3361 -11.7442 0.0000
    vertex -0.0000 -7.8500 0.0000
    vertex -0.0000 -7.8500 0.0000
  endloop
endfacet
facet normal 0.0000 0.0000 -1.0000
  outer loop
    vertex 4.1904 -10.1165 0.0000
    vertex 2.3361 -11.7442 0.0000
    vertex -0.0000 -7.8500 0.0000
  endloop
endfacet
facet normal 0.0000 0.0000 -1.0000
  outer loop
    vertex 4.1904 -10.1165 0.0000
    vertex -0.0000 -7.8500 0.0000
    vertex 2.0317 -7.5825 0.0000
  endloop
endfacet
facet normal 0.0000 0.0000 -1.0000
  outer loop
    vertex 6.6525 -9.9562 0.0000
    vertex 4.1904 -10.1165 0.0000
    vertex 2.0317 -7.5825 0.0000
  endloop
endfacet
facet normal 0.0000 0.0000 -1.0000
  outer loop
    vertex 6.6525 -9.9562 0.0000
    vertex 2.0317 -7.5825 0.0000
    vertex 3.9250 -6.7983 0.0000
  endloop
endfacet
facet normal 0.0000 0.0000 -1.0000
  outer loop
    vertex 8.1671 -8.1671 0.0000
    vertex 6.6525 -9.9562 0.0000
    vertex 3.9250 -6.7983 0.0000
  endloop
endfacet
facet normal 0.0000 0.0000 -1.0000
  outer loop
    vertex 8.1671 -8.1671 0.0000
    vertex 3.9250 -6.7983 0.0000
    vertex 5.5508 -5.5508 0.0000
  endloop
endfacet
facet normal 0.0000 0.0000 -1.0000
  outer loop
    vertex 9.2507 -6.1811 0.0000
    vertex 8.1671 -8.1671 0.0000
    vertex 5.5508 -5.5508 0.0000
  endloop
endfacet
facet normal 0.0000 0.0000 0.0000
  outer loop
    vertex 9.2507 -6.1811 0.0000
    vertex 5.5508 -5.5508 0.0000
    vertex 5.5508 -5.5508 0.0000
  endloop
endfacet
facet normal 0.0000 0.0000 -1.0000
  outer loop
    vertex 11.2251 -4.6496 0.0000
    vertex 9.2507 -6.1811 0.0000
    vertex 5.5508 -5.5508 0.0000
  endloop
endfacet
facet normal 0.0000 0.0000 -1.0000
  outer loop
    vertex 11.2251 -4.6496 0.0000
    vertex 5.5508 -5.5508 0.0000
    vertex 6.7983 -3.9250 0.0000
  endloop
endfacet
facet normal 0.0000 0.0000 -1.0000
  outer loop
    vertex 10.9120 -2.1705 0.0000
    vertex 11.2251 -4.6496 0.0000
    vertex 6.7983 -3.9250 0.0000
  endloop
endfacet
facet normal 0.0000 0.0000 -1.0000
  outer loop
    vertex 10.9120 -2.1705 0.0000
    vertex 6.7983 -3.9250 0.0000
    vertex 7.5825 -2.0317 0.0000
  endloop
endfacet
facet normal 0.0000 0.0000 -1.0000
  outer loop
    vertex 11.5500 0.0000 0.0000
    vertex 10.9120 -2.1705 0.0000
    vertex 7.5825 -2.0317 0.0000
  endloop
endfacet
facet normal 0.0000 0.0000 -1.0000
  outer loop
    vertex 11.5500 0.0000 0.0000
    vertex 7.5825 -2.0317 0.0000
    vertex 7.8500 0.0000 0.0000
  endloop
endfacet
endsolid arp_slider_knob_slipon
