%TF.GenerationSoftware,tscircuit,circuit-json-to-gerber,0.0.77*%
%TF.CreationDate,2026-10-09T01:59:49.437Z*%
%TF.SameCoordinates,Original*%
%TF.FileFunction,Copper,L1,Top*%
%TF.FilePolarity,Positive*%
%FSLAX46Y46*%
%MOMM*%
G04 Gerber Fmt 4.6, Leading zero omitted, Abs format (unit mm)*
G04 Created by tscircuit (builder) date 2026-10-09T01:59:49.437Z*
G01*
%LPD*%
G75*
G04 APERTURE MACROS START*
%AMHORZPILL*
0 Horizontal pill (stadium) shape macro*
0 Parameters:*
0 $1 = Total width*
0 $2 = Total height*
0 $3 = Circle diameter (equal to height)*
0 $4 = Circle center offset
0 21 = Center Line(Exposure, Width, Height, Center X, Center Y, Rotation)*
0 1 = Circle(Exposure, Diameter, Center X, Center Y, Rotation)*
21,1,$1-$3,$2,0.0,0.0,0.0*
1,1,$3,0.0-$4,0.0*
1,1,$3,$4,0.0*%
%AMVERTPILL*
0 Vertical pill (stadium) shape macro*
0 Parameters:*
0 $1 = Total width*
0 $2 = Total height*
0 $3 = Circle diameter (equal to width)*
0 $4 = Circle center offset
0 21 = Center Line(Exposure, Width, Height, Center X, Center Y, Rotation)*
21,1,$1,$2-$3,0.0,0.0,0.0*
1,1,$3,0.0,0.0-$4*
1,1,$3,0.0,$4*%
%AMROUNDRECT*
0 Rectangle with rounded corners*
0 $1 Corner radius*
0 $2 $3 $4 $5 $6 $7 $8 $9 X,Y Position of each corner*
0 Polygon box body*
4,1,4,$2,$3,$4,$5,$6,$7,$8,$9,$2,$3,0*
0 Circles for rounded corners*
1,1,$1+$1,$2,$3*
1,1,$1+$1,$4,$5*
1,1,$1+$1,$6,$7*
1,1,$1+$1,$8,$9*
0 Rectangles between the rounded corners*
20,1,$1+$1,$2,$3,$4,$5,0*
20,1,$1+$1,$4,$5,$6,$7,0*
20,1,$1+$1,$6,$7,$8,$9,0*
20,1,$1+$1,$8,$9,$2,$3,0*%
G04 APERTURE MACROS END*
G04 aperture START LIST*
%ADD10C,0.150000*%
%ADD11C,0.160000*%
%ADD12C,0.220000*%
%ADD13C,0.100000*%
%ADD14C,6.000000*%
%ADD15C,1.750000*%
%ADD16C,1.800000*%
%ADD17C,2.000000*%
%ADD18C,2.400000*%
%ADD19R,0.600000X0.900000*%
%ADD20R,0.420000X0.630000*%
%ADD21R,0.800000X0.900000*%
%ADD22R,0.560000X0.630000*%
%ADD23R,0.600000X0.800000*%
%ADD24R,0.420000X0.560000*%
%ADD25R,1.000000X0.900000*%
%ADD26R,0.700000X0.630000*%
%ADD27C,0.081250*%
%ADD28C,0.068750*%
%ADD29C,0.060000*%
%ADD30C,0.075000*%
%ADD31C,0.056250*%
%ADD32C,0.062500*%
%ADD33C,0.052500*%
%ADD34C,0.093750*%
%ADD35C,0.280000*%
%ADD36C,0.450000*%
%TD*%
G04 aperture END LIST*
D14*
X-15500000Y015500000D03*
D14*
X015500000Y015500000D03*
D14*
X-15500000Y-15500000D03*
D14*
X015500000Y-15500000D03*
D15*
X-11390000Y010390000D03*
D15*
X-11390000Y007850000D03*
D15*
X-11390000Y005310000D03*
D15*
X-11390000Y002770000D03*
D15*
X-11390000Y000230000D03*
D15*
X-11390000Y-02310000D03*
D15*
X-11390000Y-04850000D03*
D15*
X-11390000Y-07390000D03*
D15*
X006390000Y010390000D03*
D15*
X006390000Y007850000D03*
D15*
X006390000Y005310000D03*
D15*
X006390000Y002770000D03*
D15*
X006390000Y000230000D03*
D15*
X006390000Y-02310000D03*
D15*
X006390000Y-04850000D03*
D15*
X006390000Y-07390000D03*
D16*
X009000000Y010390000D03*
D16*
X009000000Y007850000D03*
D16*
X009000000Y005310000D03*
D16*
X009000000Y002770000D03*
D16*
X009000000Y000230000D03*
D16*
X009000000Y-02310000D03*
D16*
X009000000Y-04850000D03*
D16*
X009000000Y-07390000D03*
D17*
X-02540000Y015500000D03*
D17*
X000000000Y015500000D03*
D17*
X002540000Y015500000D03*
D17*
X015500000Y003960000D03*
D17*
X015500000Y006500000D03*
D17*
X015500000Y009040000D03*
D17*
X-15500000Y003960000D03*
D17*
X-15500000Y006500000D03*
D17*
X-15500000Y009040000D03*
D17*
X-15500000Y-01230000D03*
D17*
X-15500000Y-03770000D03*
D17*
X015500000Y-01230000D03*
D17*
X015500000Y-03770000D03*
D16*
X-11040000Y-13500000D03*
D16*
X-08500000Y-13500000D03*
D16*
X-05960000Y-13500000D03*
D16*
X003190000Y-08960000D03*
D16*
X003190000Y-11500000D03*
D16*
X003190000Y-14040000D03*
D16*
X010810000Y-08960000D03*
D16*
X010810000Y-11500000D03*
D16*
X010810000Y-14040000D03*
D17*
X014800000Y-11270000D03*
D17*
X014800000Y-08730000D03*
D18*
X-01800000Y-16000000D03*
D18*
X001800000Y-16000000D03*
D19*
X-08450000Y013300000D03*
D19*
X-07500000Y013300000D03*
D19*
X-06550000Y013300000D03*
D19*
X-06550000Y015900000D03*
D19*
X-08450000Y015900000D03*
D21*
X-10950000Y014600000D03*
D21*
X-09450000Y014600000D03*
D21*
X-08250000Y017400000D03*
D21*
X-06750000Y017400000D03*
D21*
X-08250000Y011800000D03*
D21*
X-06750000Y011800000D03*
D23*
X004250000Y012500000D03*
D23*
X006150000Y012500000D03*
D23*
X005200000Y014500000D03*
D25*
X008500000Y013500000D03*
D25*
X011100000Y013500000D03*
D21*
X004450000Y016500000D03*
D21*
X005950000Y016500000D03*
D23*
X-16450000Y-08000000D03*
D23*
X-14550000Y-08000000D03*
D23*
X-15500000Y-06000000D03*
D21*
X-16250000Y-10000000D03*
D21*
X-14750000Y-10000000D03*
D25*
X016800000Y-06000000D03*
D25*
X014200000Y-06000000D03*
D23*
X-05450000Y-08500000D03*
D23*
X-03550000Y-08500000D03*
D23*
X-04500000Y-06500000D03*
D23*
X-00950000Y-08500000D03*
D23*
X000950000Y-08500000D03*
D23*
X000000000Y-06500000D03*
D21*
X-05250000Y-04500000D03*
D21*
X-03750000Y-04500000D03*
D21*
X-00750000Y-04500000D03*
D21*
X000750000Y-04500000D03*
D10*
X014800000Y-08730000D02*
X011059612Y-04988016D01*
D10*
X011059612Y-04988016D02*
X011055606Y009207450D01*
D10*
X011055606Y009207450D02*
X011047863Y009418032D01*
D10*
X011047863Y009418032D02*
X010131292Y010334603D01*
D10*
X010131292Y010334603D02*
X010131292Y010418292D01*
D10*
X010131292Y010418292D02*
X010181000Y010468000D01*
D10*
X010181000Y010468000D02*
X010181000Y010468000D01*
D10*
X008793000Y015850000D02*
X008793000Y015850000D01*
D10*
X008793000Y015850000D02*
X007443000Y014500000D01*
D10*
X007443000Y014500000D02*
X005200000Y014500000D01*
D10*
X-08250000Y011800000D02*
X-07971970Y011800000D01*
D10*
X-07971970Y011800000D02*
X-06931196Y012840774D01*
D10*
X-06931196Y012840774D02*
X-06931196Y012918804D01*
D10*
X-06931196Y012918804D02*
X-06550000Y013300000D01*
D10*
X-01800000Y-16000000D02*
X-00006445Y-17793555D01*
D10*
X-00006445Y-17793555D02*
X006456985Y-17793555D01*
D10*
X006456985Y-17793555D02*
X006508445Y-17793555D01*
D10*
X006508445Y-17793555D02*
X006550000Y-17752000D01*
D10*
X006550000Y-17752000D02*
X006550000Y-17752000D01*
D10*
X007383000Y-13180000D02*
X007383000Y-13180000D01*
D10*
X007383000Y-13180000D02*
X007862417Y-12700583D01*
D10*
X007862417Y-12700583D02*
X011932263Y-12700583D01*
D10*
X011932263Y-12700583D02*
X013362846Y-11270000D01*
D10*
X013362846Y-11270000D02*
X014800000Y-11270000D01*
D10*
X-01800000Y-16000000D02*
X-00800016Y-16000000D01*
D10*
X-00800016Y-16000000D02*
X-00800015Y-16000001D01*
D10*
X-00800015Y-16000001D02*
X-00800015Y-16194993D01*
D10*
X-00800015Y-16194993D02*
X-00800008Y-16195000D01*
D10*
X-00800008Y-16195000D02*
X-00800008Y-16195000D01*
D10*
X-00535000Y001166000D02*
X-00535000Y001166000D01*
D10*
X-00535000Y001166000D02*
X-03301758Y001166000D01*
D10*
X-03301758Y001166000D02*
X-07175574Y005039816D01*
D10*
X-07175574Y005039816D02*
X-07190816Y005039816D01*
D10*
X-07190816Y005039816D02*
X-07350000Y005199000D01*
D10*
X-07350000Y005199000D02*
X-07350000Y005199000D01*
D10*
X-08021000Y010937000D02*
X-08021000Y010937000D01*
D10*
X-08021000Y010937000D02*
X-08021000Y011571000D01*
D10*
X-08021000Y011571000D02*
X-08250000Y011800000D01*
D11*
X-10950000Y014600000D02*
X-11301105Y014600000D01*
D11*
X-11301105Y014600000D02*
X-11406336Y014494769D01*
D11*
X-11406336Y014494769D02*
X-11482769Y014494769D01*
D11*
X-11482769Y014494769D02*
X-11576000Y014588000D01*
D11*
X-11576000Y014588000D02*
X-11576000Y014588000D01*
D11*
X-09682000Y016084000D02*
X-09682000Y016084000D01*
D11*
X-09682000Y016084000D02*
X-08634000Y016084000D01*
D11*
X-08634000Y016084000D02*
X-08450000Y015900000D01*
D10*
X-07500000Y013300000D02*
X-07500000Y013391354D01*
D10*
X-07500000Y013391354D02*
X-06872702Y014018652D01*
D10*
X-06872702Y014018652D02*
X-06241914Y014018652D01*
D10*
X-06241914Y014018652D02*
X-06018934Y013795671D01*
D10*
X-06018934Y013795671D02*
X-06018934Y012531066D01*
D10*
X-06018934Y012531066D02*
X-06750000Y011800000D01*
D10*
X-07500000Y013300000D02*
X-07500000Y013458142D01*
D10*
X-07500000Y013458142D02*
X-08422058Y014380200D01*
D10*
X-08422058Y014380200D02*
X-09230200Y014380200D01*
D10*
X-09230200Y014380200D02*
X-09450000Y014600000D01*
D10*
X-06750000Y017400000D02*
X-06069668Y016721673D01*
D10*
X-06069668Y016721673D02*
X-06069668Y015181072D01*
D10*
X-06069668Y015181072D02*
X-08868928Y015181072D01*
D10*
X-08868928Y015181072D02*
X-09450000Y014600000D01*
D10*
X-06750000Y017400000D02*
X005050000Y017400000D01*
D10*
X005050000Y017400000D02*
X005950000Y016500000D01*
D10*
X-06750000Y011800000D02*
X-06750000Y011470905D01*
D10*
X-06750000Y011470905D02*
X-07987680Y010233226D01*
D10*
X-07987680Y010233226D02*
X-08379216Y010233226D01*
D10*
X-08379216Y010233226D02*
X-08399528Y010212914D01*
D10*
X-08399528Y010212914D02*
X-08399528Y010212914D01*
D10*
X002799992Y-16000000D02*
X002799992Y-16000000D01*
D10*
X002799992Y-16000000D02*
X001800000Y-16000000D01*
D10*
X-06550000Y015900000D02*
X-06750000Y015900000D01*
D10*
X-06750000Y015900000D02*
X-08250000Y017400000D01*
D10*
X004250000Y012500000D02*
X004250000Y016300000D01*
D10*
X004250000Y016300000D02*
X004450000Y016500000D01*
D10*
X011100000Y013500000D02*
X010459510Y014140490D01*
D10*
X010459510Y014140490D02*
X006070160Y014140490D01*
D10*
X006070160Y014140490D02*
X005890490Y014140490D01*
D10*
X005890490Y014140490D02*
X004250000Y012500000D01*
D10*
X-11390000Y010390000D02*
X-10255202Y011524798D01*
D10*
X-10255202Y011524798D02*
X-10255202Y016169619D01*
D10*
X-10255202Y016169619D02*
X-09817999Y016606822D01*
D10*
X-09817999Y016606822D02*
X-07256822Y016606822D01*
D10*
X-07256822Y016606822D02*
X-06550000Y015900000D01*
D10*
X004450000Y016500000D02*
X005148112Y015801888D01*
D10*
X005148112Y015801888D02*
X006636153Y015801888D01*
D10*
X006636153Y015801888D02*
X006636153Y017095791D01*
D10*
X006636153Y017095791D02*
X005442524Y018289420D01*
D10*
X005442524Y018289420D02*
X-06829251Y018289420D01*
D10*
X-06829251Y018289420D02*
X-07052314Y018111270D01*
D10*
X-07052314Y018111270D02*
X-07514971Y017879941D01*
D10*
X-07514971Y017879941D02*
X-07499095Y017887879D01*
D10*
X-07499095Y017887879D02*
X-07484125Y016834125D01*
D10*
X-07484125Y016834125D02*
X-06550000Y015900000D01*
D11*
X010810000Y-08960000D02*
X008504066Y-08960000D01*
D11*
X008504066Y-08960000D02*
X007675147Y-08131081D01*
D11*
X007675147Y-08131081D02*
X007675147Y001484853D01*
D11*
X007675147Y001484853D02*
X006390000Y002770000D01*
D11*
X-11390000Y-07390000D02*
X-11390000Y-07585436D01*
D11*
X-11390000Y-07585436D02*
X-10114045Y-08861391D01*
D11*
X-10114045Y-08861391D02*
X-10101609Y-08861391D01*
D11*
X-10101609Y-08861391D02*
X-09975000Y-08988000D01*
D11*
X-09975000Y-08988000D02*
X-09975000Y-08988000D01*
D11*
X-11390000Y002770000D02*
X-13298041Y000861959D01*
D11*
X-13298041Y000861959D02*
X-13298041Y-01189565D01*
D11*
X-13298041Y-01189565D02*
X-13298041Y-01381959D01*
D11*
X-13298041Y-01381959D02*
X-13267000Y-01413000D01*
D11*
X-13267000Y-01413000D02*
X-13267000Y-01413000D01*
D10*
X006150000Y012500000D02*
X007500000Y012500000D01*
D10*
X007500000Y012500000D02*
X008500000Y013500000D01*
D10*
X015500000Y-01230000D02*
X016800000Y-02530000D01*
D10*
X016800000Y-02530000D02*
X016800000Y-06000000D01*
D10*
X015500000Y-01230000D02*
X013868293Y000401707D01*
D10*
X013868293Y000401707D02*
X013868293Y004094027D01*
D10*
X013868293Y004094027D02*
X013868293Y004183293D01*
D10*
X013868293Y004183293D02*
X013869000Y004184000D01*
D10*
X013869000Y004184000D02*
X013869000Y004184000D01*
D10*
X013864564Y006727744D02*
X013864564Y006727744D01*
D10*
X013864564Y006727744D02*
X013864564Y008135436D01*
D10*
X013864564Y008135436D02*
X008500000Y013500000D01*
D10*
X-15500000Y-01230000D02*
X-17194190Y000461762D01*
D10*
X-17194190Y000461762D02*
X-17194190Y010569150D01*
D10*
X-17194190Y010569150D02*
X-13595693Y010569150D01*
D10*
X-13595693Y010569150D02*
X-12328203Y009301660D01*
D10*
X-12328203Y009301660D02*
X002609251Y009301660D01*
D10*
X002609251Y009301660D02*
X005167031Y011859440D01*
D10*
X005167031Y011859440D02*
X005509440Y011859440D01*
D10*
X005509440Y011859440D02*
X006150000Y012500000D01*
D10*
X-15500000Y-03770000D02*
X-15500000Y-06000000D01*
D10*
X014200000Y-06000000D02*
X014200000Y-05070000D01*
D10*
X014200000Y-05070000D02*
X015500000Y-03770000D01*
D10*
X-15500000Y-06000000D02*
X-15225423Y-05725423D01*
D10*
X-15225423Y-05725423D02*
X-13768529Y-05725423D01*
D10*
X-13768529Y-05725423D02*
X-12633015Y-06860938D01*
D10*
X-12633015Y-06860938D02*
X-12633015Y-09427119D01*
D10*
X-12633015Y-09427119D02*
X-07380979Y-09427119D01*
D10*
X-07380979Y-09427119D02*
X-05262827Y-07308968D01*
D10*
X-05262827Y-07308968D02*
X-04202172Y-07308968D01*
D10*
X-04202172Y-07308968D02*
X-03915691Y-07022486D01*
D10*
X-03915691Y-07022486D02*
X-03915691Y-06875691D01*
D10*
X-03915691Y-06875691D02*
X-03888000Y-06848000D01*
D10*
X-03888000Y-06848000D02*
X-03888000Y-06848000D01*
D10*
X-02791000Y-05482000D02*
X-02791000Y-05482000D01*
D10*
X-02791000Y-05482000D02*
X-02791000Y-04079040D01*
D10*
X-02791000Y-04079040D02*
X000085759Y-01202281D01*
D10*
X000085759Y-01202281D02*
X002296997Y-01202281D01*
D10*
X002296997Y-01202281D02*
X003381995Y-02287278D01*
D10*
X003381995Y-02287278D02*
X003383278Y-02287278D01*
D10*
X003383278Y-02287278D02*
X003490000Y-02394000D01*
D10*
X003490000Y-02394000D02*
X003490000Y-02394000D01*
D10*
X014066000Y-05124000D02*
X014066000Y-05124000D01*
D10*
X014066000Y-05124000D02*
X014066000Y-05866000D01*
D10*
X014066000Y-05866000D02*
X014200000Y-06000000D01*
D10*
X-16250000Y-10000000D02*
X-16250000Y-08200000D01*
D10*
X-16250000Y-08200000D02*
X-16450000Y-08000000D01*
D10*
X-16450000Y-08000000D02*
X-16450000Y-05657384D01*
D10*
X-16450000Y-05657384D02*
X-17797227Y-04310157D01*
D10*
X-17797227Y-04310157D02*
X-17797227Y-04275773D01*
D10*
X-17797227Y-04275773D02*
X-17800000Y-04273000D01*
D10*
X-17800000Y-04273000D02*
X-17800000Y-04273000D01*
D10*
X-09852000Y008776000D02*
X-09852000Y008776000D01*
D10*
X-09852000Y008776000D02*
X-07043904Y008776000D01*
D10*
X-07043904Y008776000D02*
X-06733755Y008465851D01*
D10*
X-06733755Y008465851D02*
X-06723851Y008465851D01*
D10*
X-06723851Y008465851D02*
X-06719000Y008461000D01*
D10*
X-06719000Y008461000D02*
X-06719000Y008461000D01*
D10*
X006390000Y005985000D02*
X006390000Y005985000D01*
D10*
X006390000Y005985000D02*
X006390000Y005310000D01*
D12*
X-03550000Y-08500000D02*
X-03076268Y-08026268D01*
D12*
X-03076268Y-08026268D02*
X-03076268Y-06068207D01*
D12*
X-03076268Y-06068207D02*
X-03750000Y-05394475D01*
D12*
X-03750000Y-05394475D02*
X-03750000Y-04500000D01*
D10*
X-05250000Y-04500000D02*
X-03426581Y-06323419D01*
D10*
X-03426581Y-06323419D02*
X-03426581Y-06994630D01*
D10*
X-03426581Y-06994630D02*
X-04931951Y-08500000D01*
D10*
X-04931951Y-08500000D02*
X-05450000Y-08500000D01*
D10*
X-05250000Y-04500000D02*
X-04491983Y-03741983D01*
D10*
X-04491983Y-03741983D02*
X-03417353Y-03741983D01*
D10*
X-03417353Y-03741983D02*
X-03408017Y-03741983D01*
D10*
X-03408017Y-03741983D02*
X-03406000Y-03744000D01*
D10*
X-03406000Y-03744000D02*
X-03406000Y-03744000D01*
D10*
X000601000Y-06264000D02*
X000601000Y-06264000D01*
D10*
X000601000Y-06264000D02*
X000236000Y-06264000D01*
D10*
X000236000Y-06264000D02*
X000000000Y-06500000D01*
D10*
X-00750000Y-04500000D02*
X-00750000Y-08300000D01*
D10*
X-00750000Y-08300000D02*
X-00950000Y-08500000D01*
D10*
X-00750000Y-04500000D02*
X-00839112Y-04412073D01*
D10*
X-00839112Y-04412073D02*
X-00839112Y-02564597D01*
D10*
X-00839112Y-02564597D02*
X000043098Y-01683572D01*
D10*
X000043098Y-01683572D02*
X001295547Y-01683572D01*
D10*
X001295547Y-01683572D02*
X001328753Y-01683572D01*
D10*
X001328753Y-01683572D02*
X001389795Y-01622531D01*
D10*
X001389795Y-01622531D02*
X001389795Y-01622531D01*
D10*
X005715000Y-02310000D02*
X005715000Y-02310000D01*
D10*
X005715000Y-02310000D02*
X006390000Y-02310000D01*
D13*
X-15500000Y003960000D02*
X-16412964Y003960000D01*
D13*
X-16412964Y003960000D02*
X-16766317Y003606648D01*
D13*
X-16766317Y003606648D02*
X-16766317Y003625317D01*
D13*
X-16766317Y003625317D02*
X-16789000Y003648000D01*
D13*
X-16789000Y003648000D02*
X-16789000Y003648000D01*
D13*
X-13674000Y-09213000D02*
X-13674000Y-09213000D01*
D13*
X-13674000Y-09213000D02*
X-12997064Y-09889936D01*
D13*
X-12997064Y-09889936D02*
X-10706419Y-09889936D01*
D13*
X-10706419Y-09889936D02*
X-10533071Y-09889936D01*
D13*
X-10533071Y-09889936D02*
X-10533000Y-09890007D01*
D13*
X-10533000Y-09890007D02*
X-10533000Y-09890007D01*
D13*
X-09184000Y-07953000D02*
X-09184000Y-07953000D01*
D13*
X-09184000Y-07953000D02*
X-07731000Y-06500000D01*
D13*
X-07731000Y-06500000D02*
X-04500000Y-06500000D01*
D13*
X-15500000Y003960000D02*
X-14945873Y003960000D01*
D13*
X-14945873Y003960000D02*
X-14092286Y004813586D01*
D13*
X-14092286Y004813586D02*
X-13754960Y004974280D01*
D13*
X-13754960Y004974280D02*
X-13704416Y005090225D01*
D13*
X-13704416Y005090225D02*
X-13501000Y005495000D01*
D13*
X-13501000Y005495000D02*
X-13501000Y006194000D01*
D13*
X-13501000Y006194000D02*
X-13286000Y006409000D01*
D13*
X-13286000Y006409000D02*
X-13286000Y006409000D01*
D13*
X-12917000Y008455000D02*
X-12917000Y008455000D01*
D13*
X-12917000Y008455000D02*
X-12917000Y009001158D01*
D13*
X-12917000Y009001158D02*
X-13235925Y009320083D01*
D13*
X-13235925Y009320083D02*
X-13235925Y009348925D01*
D13*
X-13235925Y009348925D02*
X-13297000Y009410000D01*
D13*
X-13297000Y009410000D02*
X-13297000Y009410000D01*
D13*
X-02540000Y014700008D02*
X-02540000Y014700008D01*
D13*
X-02540000Y014700008D02*
X-02540000Y015500000D01*
D10*
X-02540000Y015500000D02*
X-02464000Y015500000D01*
D10*
X-02464000Y015500000D02*
X-00753329Y013789329D01*
D10*
X-00753329Y013789329D02*
X-00751000Y013787000D01*
D10*
X-00751000Y013787000D02*
X-00751000Y013787000D01*
D10*
X011926701Y005846317D02*
X011926701Y005846317D01*
D10*
X011926701Y005846317D02*
X012959514Y006879130D01*
D10*
X012959514Y006879130D02*
X013242130Y006879130D01*
D10*
X013242130Y006879130D02*
X013248000Y006885000D01*
D10*
X013248000Y006885000D02*
X013248000Y006885000D01*
D10*
X014700008Y003960000D02*
X014700008Y003960000D01*
D10*
X014700008Y003960000D02*
X015500000Y003960000D01*
D11*
X-15500000Y006500000D02*
X-15078685Y006921315D01*
D11*
X-15078685Y006921315D02*
X-12926582Y006921315D01*
D11*
X-12926582Y006921315D02*
X-12784958Y006921315D01*
D11*
X-12784958Y006921315D02*
X-12751724Y006888081D01*
D11*
X-12751724Y006888081D02*
X-12751724Y006888081D01*
D11*
X-09620000Y004850000D02*
X-09620000Y004850000D01*
D11*
X-09620000Y004850000D02*
X-07936864Y004850000D01*
D11*
X-07936864Y004850000D02*
X-06832092Y003745229D01*
D11*
X-06832092Y003745229D02*
X-06779229Y003745229D01*
D11*
X-06779229Y003745229D02*
X-06719000Y003685000D01*
D11*
X-06719000Y003685000D02*
X-06719000Y003685000D01*
D11*
X-00433223Y-02741698D02*
X-00433223Y-02741698D01*
D11*
X-00433223Y-02741698D02*
X000089331Y-03264251D01*
D11*
X000089331Y-03264251D02*
X000089331Y-05269376D01*
D11*
X000089331Y-05269376D02*
X001781550Y-05269376D01*
D11*
X001781550Y-05269376D02*
X002694479Y-06182305D01*
D11*
X002694479Y-06182305D02*
X005182305Y-06182305D01*
D11*
X005182305Y-06182305D02*
X006390000Y-07390000D01*
D11*
X015500000Y006500000D02*
X015271799Y006271799D01*
D11*
X015271799Y006271799D02*
X013094619Y006271799D01*
D11*
X013094619Y006271799D02*
X012971634Y006271799D01*
D11*
X012971634Y006271799D02*
X012967853Y006268017D01*
D11*
X012967853Y006268017D02*
X012967853Y006268017D01*
D11*
X010385093Y006139215D02*
X010385093Y006139215D01*
D11*
X010385093Y006139215D02*
X010385093Y004587983D01*
D11*
X010385093Y004587983D02*
X009892397Y004095286D01*
D11*
X009892397Y004095286D02*
X008026907Y004095286D01*
D11*
X008026907Y004095286D02*
X007612414Y004509779D01*
D11*
X007612414Y004509779D02*
X007612414Y006158646D01*
D11*
X007612414Y006158646D02*
X007386060Y006395313D01*
D11*
X007386060Y006395313D02*
X005404809Y006395313D01*
D11*
X005404809Y006395313D02*
X005247676Y006227867D01*
D11*
X005247676Y006227867D02*
X005247676Y-03707676D01*
D11*
X005247676Y-03707676D02*
X006390000Y-04850000D01*
D10*
X-14550000Y-08000000D02*
X-14550000Y-09800000D01*
D10*
X-14550000Y-09800000D02*
X-14750000Y-10000000D01*
D10*
X000750000Y-04500000D02*
X001740896Y-04500000D01*
D10*
X001740896Y-04500000D02*
X002807928Y-05567032D01*
D10*
X002807928Y-05567032D02*
X002807928Y-05668373D01*
D10*
X002807928Y-05668373D02*
X002833463Y-05693908D01*
D10*
X002833463Y-05693908D02*
X002833463Y-05693908D01*
D10*
X004402000Y-06858000D02*
X004402000Y-06858000D01*
D10*
X004402000Y-06858000D02*
X002592000Y-06858000D01*
D10*
X002592000Y-06858000D02*
X000950000Y-08500000D01*
D10*
X003190000Y-14040000D02*
X004946392Y-14040000D01*
D10*
X004946392Y-14040000D02*
X006002467Y-12983925D01*
D10*
X006002467Y-12983925D02*
X006002467Y-12983533D01*
D10*
X006002467Y-12983533D02*
X006123000Y-12863000D01*
D10*
X006123000Y-12863000D02*
X006123000Y-12863000D01*
D10*
X006192138Y-10357432D02*
X006192138Y-10357432D01*
D10*
X006192138Y-10357432D02*
X006192138Y-09878452D01*
D10*
X006192138Y-09878452D02*
X004057423Y-07743737D01*
D10*
X004057423Y-07743737D02*
X001706263Y-07743737D01*
D10*
X001706263Y-07743737D02*
X000950000Y-08500000D01*
D10*
X-08500000Y-13500000D02*
X-11850587Y-10149413D01*
D10*
X-11850587Y-10149413D02*
X-14562231Y-10149413D01*
D10*
X-14562231Y-10149413D02*
X-14600587Y-10149413D01*
D10*
X-14600587Y-10149413D02*
X-14750000Y-10000000D01*
D10*
X010810000Y-14040000D02*
X003190000Y-14040000D01*
D10*
X-08500000Y-13500000D02*
X-04161277Y-09161277D01*
D10*
X-04161277Y-09161277D02*
X000807964Y-09161277D01*
D10*
X000807964Y-09161277D02*
X000807964Y-08642036D01*
D10*
X000807964Y-08642036D02*
X000950000Y-08500000D01*
D10*
X000750000Y-04500000D02*
X000750000Y-04240936D01*
D10*
X000750000Y-04240936D02*
X001255523Y-03735413D01*
D10*
X001255523Y-03735413D02*
X001262587Y-03735413D01*
D10*
X001262587Y-03735413D02*
X001383000Y-03615000D01*
D10*
X001383000Y-03615000D02*
X001383000Y-03615000D01*
D10*
X000427000Y002045000D02*
X000427000Y002045000D01*
D10*
X000427000Y002045000D02*
X005172525Y006790525D01*
D10*
X005172525Y006790525D02*
X007940525Y006790525D01*
D10*
X007940525Y006790525D02*
X009000000Y007850000D01*
D10*
X-11390000Y007850000D02*
X-16446191Y007850000D01*
D10*
X-16446191Y007850000D02*
X-16759955Y007536236D01*
D10*
X-16759955Y007536236D02*
X-16759955Y005498922D01*
D10*
X-16759955Y005498922D02*
X-16494988Y005233954D01*
D10*
X-16494988Y005233954D02*
X-14245351Y005233954D01*
D10*
X-14245351Y005233954D02*
X-14044719Y005233954D01*
D10*
X-14044719Y005233954D02*
X-14114436Y005301935D01*
D10*
X-14114436Y005301935D02*
X-14114436Y005301935D01*
D10*
X-13899000Y-06191000D02*
X-13899000Y-06191000D01*
D10*
X-13899000Y-06191000D02*
X-13899000Y-07349000D01*
D10*
X-13899000Y-07349000D02*
X-14550000Y-08000000D01*
D10*
X-11040000Y-13500000D02*
X-11040000Y-12722305D01*
D10*
X-11040000Y-12722305D02*
X-11904239Y-11858065D01*
D10*
X-11904239Y-11858065D02*
X-11904239Y-11835761D01*
D10*
X-11904239Y-11835761D02*
X-12044000Y-11696000D01*
D10*
X-12044000Y-11696000D02*
X-12044000Y-11696000D01*
D10*
X-12511000Y003758000D02*
X-12511000Y003758000D01*
D10*
X-12511000Y003758000D02*
X-12511000Y004189000D01*
D10*
X-12511000Y004189000D02*
X-11390000Y005310000D01*
D10*
X-11390000Y005310000D02*
X-08664203Y008035797D01*
D10*
X-08664203Y008035797D02*
X001730643Y008035797D01*
D10*
X001730643Y008035797D02*
X005143369Y011448523D01*
D10*
X005143369Y011448523D02*
X007816360Y011448523D01*
D10*
X007816360Y011448523D02*
X007941477Y011448523D01*
D10*
X007941477Y011448523D02*
X009000000Y010390000D01*
D10*
X-11040000Y-13500000D02*
X-09928428Y-14611572D01*
D10*
X-09928428Y-14611572D02*
X-03250526Y-14611572D01*
D10*
X-03250526Y-14611572D02*
X-01240072Y-12601119D01*
D10*
X-01240072Y-12601119D02*
X004416215Y-12601119D01*
D10*
X004416215Y-12601119D02*
X005517334Y-11500000D01*
D10*
X005517334Y-11500000D02*
X010810000Y-11500000D01*
D11*
X006390000Y010390000D02*
X007838333Y008941667D01*
D11*
X007838333Y008941667D02*
X010037859Y008941667D01*
D11*
X010037859Y008941667D02*
X010795333Y008190416D01*
D11*
X010795333Y008190416D02*
X010797461Y-05398456D01*
D11*
X010797461Y-05398456D02*
X010791543Y-05598457D01*
D11*
X010791543Y-05598457D02*
X009000000Y-07390000D01*
D11*
X-11390000Y-02310000D02*
X-08319799Y000755650D01*
D11*
X-08319799Y000755650D02*
X003331533Y000755650D01*
D11*
X003331533Y000755650D02*
X003452201Y000760201D01*
D11*
X003452201Y000760201D02*
X003524000Y000832000D01*
D11*
X003524000Y000832000D02*
X003524000Y000832000D01*
D11*
X010126000Y-00995000D02*
X010126000Y-00995000D01*
D11*
X010126000Y-00995000D02*
X010126000Y001644000D01*
D11*
X010126000Y001644000D02*
X009000000Y002770000D01*
D11*
X-11390000Y-04850000D02*
X-06341000Y000199000D01*
D11*
X-06341000Y000199000D02*
X000518343Y000199000D01*
D11*
X000518343Y000199000D02*
X000779712Y000199000D01*
D11*
X000779712Y000199000D02*
X000876922Y000296210D01*
D11*
X000876922Y000296210D02*
X000876922Y000296210D01*
D11*
X012138000Y005245000D02*
X012138000Y005245000D01*
D11*
X012138000Y005245000D02*
X011944877Y005245000D01*
D11*
X011944877Y005245000D02*
X011554130Y005635747D01*
D11*
X011554130Y005635747D02*
X011482958Y005706919D01*
D11*
X011482958Y005706919D02*
X011482958Y006587759D01*
D11*
X011482958Y006587759D02*
X011482958Y006706958D01*
D11*
X011482958Y006706958D02*
X011498000Y006722000D01*
D11*
X011498000Y006722000D02*
X011498000Y006722000D01*
D36*
X010181000Y010468000D03*
D36*
X008793000Y015850000D03*
D36*
X006550000Y-17752000D03*
D36*
X007383000Y-13180000D03*
D36*
X-00535000Y001166000D03*
D36*
X-07350000Y005199000D03*
D36*
X-08021000Y010937000D03*
D36*
X-11576000Y014588000D03*
D36*
X-09682000Y016084000D03*
D36*
X-08399528Y010212914D03*
D36*
X-09975000Y-08988000D03*
D36*
X-13267000Y-01413000D03*
D36*
X013869000Y004184000D03*
D36*
X013864564Y006727744D03*
D36*
X-03888000Y-06848000D03*
D36*
X-02791000Y-05482000D03*
D36*
X003490000Y-02394000D03*
D36*
X014066000Y-05124000D03*
D36*
X-17800000Y-04273000D03*
D36*
X-09852000Y008776000D03*
D36*
X-06719000Y008461000D03*
D36*
X-03406000Y-03744000D03*
D36*
X000601000Y-06264000D03*
D36*
X001389795Y-01622531D03*
D36*
X-16789000Y003648000D03*
D36*
X-13674000Y-09213000D03*
D36*
X-10533000Y-09890007D03*
D36*
X-09184000Y-07953000D03*
D36*
X-13286000Y006409000D03*
D36*
X-12917000Y008455000D03*
D36*
X-13297000Y009410000D03*
D36*
X-00751000Y013787000D03*
D36*
X011926701Y005846317D03*
D36*
X013248000Y006885000D03*
D36*
X-12751724Y006888081D03*
D36*
X-09620000Y004850000D03*
D36*
X-06719000Y003685000D03*
D36*
X-00433223Y-02741698D03*
D36*
X012967853Y006268017D03*
D36*
X010385093Y006139215D03*
D36*
X002833463Y-05693908D03*
D36*
X004402000Y-06858000D03*
D36*
X006123000Y-12863000D03*
D36*
X006192138Y-10357432D03*
D36*
X001383000Y-03615000D03*
D36*
X000427000Y002045000D03*
D36*
X-14114436Y005301935D03*
D36*
X-13899000Y-06191000D03*
D36*
X-12044000Y-11696000D03*
D36*
X-12511000Y003758000D03*
D36*
X003524000Y000832000D03*
D36*
X010126000Y-00995000D03*
D36*
X000876922Y000296210D03*
D36*
X012138000Y005245000D03*
D36*
X011498000Y006722000D03*
M02*