%TF.GenerationSoftware,tscircuit,circuit-json-to-gerber,0.0.77*%
%TF.CreationDate,2026-10-09T14:43:11.313Z*%
%TF.SameCoordinates,Original*%
%TF.FileFunction,Copper,L2,Bot*%
%TF.FilePolarity,Positive*%
%FSLAX46Y46*%
%MOMM*%
G04 Gerber Fmt 4.6, Leading zero omitted, Abs format (unit mm)*
G04 Created by tscircuit (builder) date 2026-10-09T14:43:11.313Z*
G01*
%LPD*%
G75*
G04 APERTURE MACROS START*
%AMHORZPILL*
0 Horizontal pill (stadium) shape macro*
0 Parameters:*
0 $1 = Total width*
0 $2 = Total height*
0 $3 = Circle diameter (equal to height)*
0 $4 = Circle center offset
0 21 = Center Line(Exposure, Width, Height, Center X, Center Y, Rotation)*
0 1 = Circle(Exposure, Diameter, Center X, Center Y, Rotation)*
21,1,$1-$3,$2,0.0,0.0,0.0*
1,1,$3,0.0-$4,0.0*
1,1,$3,$4,0.0*%
%AMVERTPILL*
0 Vertical pill (stadium) shape macro*
0 Parameters:*
0 $1 = Total width*
0 $2 = Total height*
0 $3 = Circle diameter (equal to width)*
0 $4 = Circle center offset
0 21 = Center Line(Exposure, Width, Height, Center X, Center Y, Rotation)*
21,1,$1,$2-$3,0.0,0.0,0.0*
1,1,$3,0.0,0.0-$4*
1,1,$3,0.0,$4*%
%AMROUNDRECT*
0 Rectangle with rounded corners*
0 $1 Corner radius*
0 $2 $3 $4 $5 $6 $7 $8 $9 X,Y Position of each corner*
0 Polygon box body*
4,1,4,$2,$3,$4,$5,$6,$7,$8,$9,$2,$3,0*
0 Circles for rounded corners*
1,1,$1+$1,$2,$3*
1,1,$1+$1,$4,$5*
1,1,$1+$1,$6,$7*
1,1,$1+$1,$8,$9*
0 Rectangles between the rounded corners*
20,1,$1+$1,$2,$3,$4,$5,0*
20,1,$1+$1,$4,$5,$6,$7,0*
20,1,$1+$1,$6,$7,$8,$9,0*
20,1,$1+$1,$8,$9,$2,$3,0*%
G04 APERTURE MACROS END*
G04 aperture START LIST*
%ADD10C,0.220000*%
%ADD11C,0.150000*%
%ADD12C,0.160000*%
%ADD13C,0.100000*%
%ADD14C,4.800000*%
%ADD15C,1.750000*%
%ADD16C,1.800000*%
%ADD17C,2.000000*%
%ADD18C,2.400000*%
%ADD19C,0.081250*%
%ADD20C,0.068750*%
%ADD21C,0.060000*%
%ADD22C,0.075000*%
%ADD23C,0.056250*%
%ADD24C,0.062500*%
%ADD25C,0.052500*%
%ADD26C,0.093750*%
%ADD27C,0.280000*%
%ADD28C,0.450000*%
%TD*%
G04 aperture END LIST*
D14*
X-15500000Y015500000D03*
D14*
X015500000Y015500000D03*
D14*
X-15500000Y-15500000D03*
D14*
X015500000Y-15500000D03*
D15*
X-11390000Y010390000D03*
D15*
X-11390000Y007850000D03*
D15*
X-11390000Y005310000D03*
D15*
X-11390000Y002770000D03*
D15*
X-11390000Y000230000D03*
D15*
X-11390000Y-02310000D03*
D15*
X-11390000Y-04850000D03*
D15*
X-11390000Y-07390000D03*
D15*
X006390000Y010390000D03*
D15*
X006390000Y007850000D03*
D15*
X006390000Y005310000D03*
D15*
X006390000Y002770000D03*
D15*
X006390000Y000230000D03*
D15*
X006390000Y-02310000D03*
D15*
X006390000Y-04850000D03*
D15*
X006390000Y-07390000D03*
D16*
X009000000Y010390000D03*
D16*
X009000000Y007850000D03*
D16*
X009000000Y005310000D03*
D16*
X009000000Y002770000D03*
D16*
X009000000Y000230000D03*
D16*
X009000000Y-02310000D03*
D16*
X009000000Y-04850000D03*
D16*
X009000000Y-07390000D03*
D17*
X-02540000Y015500000D03*
D17*
X000000000Y015500000D03*
D17*
X002540000Y015500000D03*
D17*
X015500000Y003960000D03*
D17*
X015500000Y006500000D03*
D17*
X015500000Y009040000D03*
D17*
X-15500000Y003960000D03*
D17*
X-15500000Y006500000D03*
D17*
X-15500000Y009040000D03*
D17*
X-15500000Y-01230000D03*
D17*
X-15500000Y-03770000D03*
D17*
X015500000Y-01230000D03*
D17*
X015500000Y-03770000D03*
D16*
X-11040000Y-13500000D03*
D16*
X-08500000Y-13500000D03*
D16*
X-05960000Y-13500000D03*
D16*
X003190000Y-08960000D03*
D16*
X003190000Y-11500000D03*
D16*
X003190000Y-14040000D03*
D16*
X010810000Y-08960000D03*
D16*
X010810000Y-11500000D03*
D16*
X010810000Y-14040000D03*
D17*
X014800000Y-11270000D03*
D17*
X014800000Y-08730000D03*
D18*
X-01800000Y-16000000D03*
D18*
X001800000Y-16000000D03*
D10*
X014800000Y-08730000D02*
X017023990Y-06506010D01*
D10*
X017023990Y-06506010D02*
X017023990Y-00401305D01*
D10*
X017023990Y-00401305D02*
X017023990Y-00241010D01*
D10*
X017023990Y-00241010D02*
X017059000Y-00206000D01*
D10*
X017059000Y-00206000D02*
X017059000Y-00206000D01*
D10*
X010630000Y011738000D02*
X010630000Y011738000D01*
D10*
X010630000Y011738000D02*
X007354757Y011738000D01*
D10*
X007354757Y011738000D02*
X004649952Y014442805D01*
D10*
X004649952Y014442805D02*
X004649952Y014431277D01*
D10*
X004649952Y014431277D02*
X004604710Y014386035D01*
D10*
X004604710Y014386035D02*
X004604710Y014386035D01*
D11*
X-07682000Y009344000D02*
X-07682000Y009344000D01*
D11*
X-07682000Y009344000D02*
X-07951354Y009613354D01*
D11*
X-07951354Y009613354D02*
X-07951354Y010730555D01*
D11*
X-07951354Y010730555D02*
X-07951354Y010776821D01*
D11*
X-07951354Y010776821D02*
X-07983657Y010802927D01*
D11*
X-07983657Y010802927D02*
X-07983657Y010802927D01*
D11*
X-01995000Y-15000008D02*
X-01995000Y-15000008D01*
D11*
X-01995000Y-15000008D02*
X-01995000Y-13741770D01*
D11*
X-01995000Y-13741770D02*
X-08529182Y-07207588D01*
D11*
X-08529182Y-07207588D02*
X-08529182Y-06999818D01*
D11*
X-08529182Y-06999818D02*
X-08539000Y-06990000D01*
D11*
X-08539000Y-06990000D02*
X-08539000Y-06990000D01*
D11*
X-08708230Y-05000102D02*
X-08708230Y-05000102D01*
D11*
X-08708230Y-05000102D02*
X-08716000Y-00787371D01*
D11*
X-08716000Y-00787371D02*
X-09093910Y-00409461D01*
D11*
X-09093910Y-00409461D02*
X-09093910Y-00357090D01*
D11*
X-09093910Y-00357090D02*
X-09138000Y-00313000D01*
D11*
X-09138000Y-00313000D02*
X-09138000Y-00313000D01*
D11*
X-07933995Y005425939D02*
X-07933995Y005425939D01*
D11*
X-07933995Y005425939D02*
X-07933995Y009833562D01*
D11*
X-07933995Y009833562D02*
X-08494767Y010394333D01*
D11*
X-08494767Y010394333D02*
X-08494767Y010524059D01*
D11*
X-08494767Y010524059D02*
X-08576126Y010501741D01*
D11*
X-08576126Y010501741D02*
X-08576126Y010501741D01*
D11*
X-07335729Y010951131D02*
X-07335729Y010951131D01*
D11*
X-07335729Y010951131D02*
X-10797270Y014311514D01*
D11*
X-10797270Y014311514D02*
X-11647657Y014311514D01*
D11*
X-11647657Y014311514D02*
X-11647657Y014435657D01*
D11*
X-11647657Y014435657D02*
X-11740000Y014454922D01*
D11*
X-11740000Y014454922D02*
X-11740000Y014454922D01*
D11*
X-05575000Y017426777D02*
X-05575000Y017426777D01*
D11*
X-05575000Y017426777D02*
X-05262566Y017743434D01*
D11*
X-05262566Y017743434D02*
X006689524Y017743434D01*
D11*
X006689524Y017743434D02*
X006689524Y016826524D01*
D11*
X006689524Y016826524D02*
X006633219Y016770219D01*
D11*
X006633219Y016770219D02*
X006630000Y016767000D01*
D11*
X006630000Y016767000D02*
X006630000Y016767000D01*
D11*
X-06708466Y010377765D02*
X-06708466Y010377765D01*
D11*
X-06708466Y010377765D02*
X-06736000Y005091078D01*
D11*
X-06736000Y005091078D02*
X-07052592Y004774485D01*
D11*
X-07052592Y004774485D02*
X-07052592Y004699408D01*
D11*
X-07052592Y004699408D02*
X-07143000Y004609000D01*
D11*
X-07143000Y004609000D02*
X-07143000Y004609000D01*
D11*
X-07848000Y000769000D02*
X-07848000Y000769000D01*
D11*
X-07848000Y000769000D02*
X-08244206Y000372794D01*
D11*
X-08244206Y000372794D02*
X-08244206Y-02306674D01*
D11*
X-08244206Y-02306674D02*
X-08244206Y-02425652D01*
D11*
X-08244206Y-02425652D02*
X-07093654Y-03576204D01*
D11*
X-07093654Y-03576204D02*
X-07093654Y-03588346D01*
D11*
X-07093654Y-03588346D02*
X-07068000Y-03614000D01*
D11*
X-07068000Y-03614000D02*
X-07068000Y-03614000D01*
D11*
X-03037099Y-09585578D02*
X-03037099Y-09585578D01*
D11*
X-03037099Y-09585578D02*
X-00104328Y-12531380D01*
D11*
X-00104328Y-12531380D02*
X-00104328Y-15343459D01*
D11*
X-00104328Y-15343459D02*
X-00063275Y-15343459D01*
D11*
X-00063275Y-15343459D02*
X000747213Y-16153946D01*
D11*
X000747213Y-16153946D02*
X000747213Y-16052795D01*
D11*
X000747213Y-16052795D02*
X000800008Y-16000000D01*
D11*
X000800008Y-16000000D02*
X000800008Y-16000000D01*
D11*
X000157000Y017296000D02*
X000157000Y017296000D01*
D11*
X000157000Y017296000D02*
X-00259597Y016879403D01*
D11*
X-00259597Y016879403D02*
X-07289696Y016879403D01*
D11*
X-07289696Y016879403D02*
X-07289696Y017150899D01*
D11*
X-07289696Y017150899D02*
X-07388138Y017249340D01*
D11*
X-07388138Y017249340D02*
X-07440000Y017279464D01*
D11*
X-07440000Y017279464D02*
X-07440000Y017279464D01*
D11*
X-07526000Y010062000D02*
X-07526000Y010062000D01*
D11*
X-07526000Y010062000D02*
X-07521636Y010062000D01*
D11*
X-07521636Y010062000D02*
X-07177909Y010415391D01*
D11*
X-07177909Y010415391D02*
X-06931086Y010797363D01*
D11*
X-06931086Y010797363D02*
X-06905188Y011149242D01*
D11*
X-06905188Y011149242D02*
X-06924101Y011116051D01*
D11*
X-06924101Y011116051D02*
X-06924101Y014518164D01*
D11*
X-06924101Y014518164D02*
X-06565380Y014876885D01*
D11*
X-06565380Y014876885D02*
X-06565380Y015030380D01*
D11*
X-06565380Y015030380D02*
X-06573000Y015038000D01*
D11*
X-06573000Y015038000D02*
X-06573000Y015038000D01*
D12*
X-11390000Y000230000D02*
X-09122700Y-02037479D01*
D12*
X-09122700Y-02037479D02*
X-09129082Y-05080683D01*
D12*
X-09129082Y-05080683D02*
X-09122965Y-05179373D01*
D12*
X-09122965Y-05179373D02*
X-06540504Y-07760988D01*
D12*
X-06540504Y-07760988D02*
X004096572Y-07760968D01*
D12*
X004096572Y-07760968D02*
X004415404Y-08079799D01*
D12*
X004415404Y-08079799D02*
X004415404Y-10274596D01*
D12*
X004415404Y-10274596D02*
X003190000Y-11500000D01*
D12*
X-13480000Y-01316000D02*
X-13480000Y-01316000D01*
D12*
X-13480000Y-01316000D02*
X-13489200Y-07316707D01*
D12*
X-13489200Y-07316707D02*
X-11546305Y-09246458D01*
D12*
X-11546305Y-09246458D02*
X-09647025Y-11134312D01*
D12*
X-09647025Y-11134312D02*
X-09650088Y-14629680D01*
D12*
X-09650088Y-14629680D02*
X-07089680Y-14629680D01*
D12*
X-07089680Y-14629680D02*
X-05960000Y-13500000D01*
D11*
X012989000Y-00121000D02*
X012989000Y-00121000D01*
D11*
X012989000Y-00121000D02*
X012582448Y000285552D01*
D11*
X012582448Y000285552D02*
X012582448Y012459501D01*
D11*
X012582448Y012459501D02*
X012582448Y012518552D01*
D11*
X012582448Y012518552D02*
X012581000Y012520000D01*
D11*
X012581000Y012520000D02*
X012581000Y012520000D01*
D11*
X-14142000Y002103000D02*
X-14142000Y002103000D01*
D11*
X-14142000Y002103000D02*
X-14142000Y005481099D01*
D11*
X-14142000Y005481099D02*
X-14056642Y005566457D01*
D11*
X-14056642Y005566457D02*
X-14056642Y005652358D01*
D11*
X-14056642Y005652358D02*
X-14036000Y005673000D01*
D11*
X-14036000Y005673000D02*
X-14036000Y005673000D01*
D11*
X006789124Y-10147715D02*
X006789124Y-10147715D01*
D11*
X006789124Y-10147715D02*
X006789124Y-09070476D01*
D11*
X006789124Y-09070476D02*
X007085302Y-08774298D01*
D11*
X007085302Y-08774298D02*
X007085302Y-08767698D01*
D11*
X007085302Y-08767698D02*
X007179000Y-08673333D01*
D11*
X007179000Y-08673333D02*
X007179000Y-08673333D01*
D11*
X-16926000Y-03594000D02*
X-16926000Y-03594000D01*
D11*
X-16926000Y-03594000D02*
X-16926000Y001256914D01*
D11*
X-16926000Y001256914D02*
X-17030149Y001361063D01*
D11*
X-17030149Y001361063D02*
X-17030149Y001422149D01*
D11*
X-17030149Y001422149D02*
X-17102000Y001494000D01*
D11*
X-17102000Y001494000D02*
X-17102000Y001494000D01*
D11*
X007751000Y017752000D02*
X007751000Y017752000D01*
D11*
X007751000Y017752000D02*
X011086580Y014416420D01*
D11*
X011086580Y014416420D02*
X011086580Y007390124D01*
D11*
X011086580Y007390124D02*
X010116253Y006419796D01*
D11*
X010116253Y006419796D02*
X010116253Y004298682D01*
D11*
X010116253Y004298682D02*
X009692324Y003874753D01*
D11*
X009692324Y003874753D02*
X004931084Y003874753D01*
D11*
X004931084Y003874753D02*
X004756313Y004049525D01*
D11*
X004756313Y004049525D02*
X004689475Y004049525D01*
D11*
X004689475Y004049525D02*
X004626339Y004140744D01*
D11*
X004626339Y004140744D02*
X004626339Y004140744D01*
D10*
X-02661000Y-05603000D02*
X-02661000Y-05603000D01*
D10*
X-02661000Y-05603000D02*
X-02661000Y-07048544D01*
D10*
X-02661000Y-07048544D02*
X-02623391Y-07086153D01*
D10*
X-02623391Y-07086153D02*
X-02623391Y-07169391D01*
D10*
X-02623391Y-07169391D02*
X-02702000Y-07248000D01*
D10*
X-02702000Y-07248000D02*
X-02702000Y-07248000D01*
D11*
X002790000Y-01086000D02*
X002790000Y-01086000D01*
D11*
X002790000Y-01086000D02*
X004423776Y-01086000D01*
D11*
X004423776Y-01086000D02*
X005565596Y-02227821D01*
D11*
X005565596Y-02227821D02*
X005632821Y-02227821D01*
D11*
X005632821Y-02227821D02*
X005715000Y-02310000D01*
D11*
X005715000Y-02310000D02*
X005715000Y-02310000D01*
D13*
X-05399000Y-16394000D02*
X-05399000Y-16394000D01*
D13*
X-05399000Y-16394000D02*
X-04408532Y-17389956D01*
D13*
X-04408532Y-17389956D02*
X003185138Y-17390191D01*
D13*
X003185138Y-17390191D02*
X006289811Y-14279795D01*
D13*
X006289811Y-14279795D02*
X006289811Y-09689004D01*
D13*
X006289811Y-09689004D02*
X004816659Y-08215852D01*
D13*
X004816659Y-08215852D02*
X004816659Y-07554120D01*
D13*
X004816659Y-07554120D02*
X002363675Y-05101136D01*
D13*
X002363675Y-05101136D02*
X-04404251Y-05101136D01*
D13*
X-04404251Y-05101136D02*
X-04404251Y-06050001D01*
D13*
X-04404251Y-06050001D02*
X-03903252Y-06551000D01*
D13*
X-03903252Y-06551000D02*
X-03903252Y-06589252D01*
D13*
X-03903252Y-06589252D02*
X-03907000Y-06593000D01*
D13*
X-03907000Y-06593000D02*
X-03907000Y-06593000D01*
D13*
X-05942294Y012104675D02*
X-05942294Y012104675D01*
D13*
X-05942294Y012104675D02*
X-05618616Y012105637D01*
D13*
X-05618616Y012105637D02*
X-05315879Y012408375D01*
D13*
X-05315879Y012408375D02*
X-05257625Y012408375D01*
D13*
X-05257625Y012408375D02*
X-05168000Y012498000D01*
D13*
X-05168000Y012498000D02*
X-05168000Y012498000D01*
D12*
X-15500000Y006500000D02*
X-12992420Y009007580D01*
D12*
X-12992420Y009007580D02*
X-10288771Y009007580D01*
D12*
X-10288771Y009007580D02*
X-10288771Y007140873D01*
D12*
X-10288771Y007140873D02*
X-06686060Y003538162D01*
D12*
X-06686060Y003538162D02*
X-02344332Y003538162D01*
D12*
X-02344332Y003538162D02*
X-00465285Y001659115D01*
D12*
X-00465285Y001659115D02*
X-00348634Y001659115D01*
D12*
X-00348634Y001659115D02*
X-00285978Y001596460D01*
D12*
X-00285978Y001596460D02*
X-00285978Y001596460D01*
D12*
X000869484Y000591601D02*
X000869484Y000591601D01*
D12*
X000869484Y000591601D02*
X000869484Y-01869484D01*
D12*
X000869484Y-01869484D02*
X006390000Y-07390000D01*
D12*
X015500000Y006500000D02*
X014950573Y006500000D01*
D12*
X014950573Y006500000D02*
X013109389Y004658816D01*
D12*
X013109389Y004658816D02*
X013109389Y004642029D01*
D12*
X013109389Y004642029D02*
X013157811Y004593606D01*
D12*
X013157811Y004593606D02*
X013157811Y004593606D01*
D11*
X005871033Y-12615016D02*
X005871033Y-12615016D01*
D11*
X005871033Y-12615016D02*
X005871033Y-10282953D01*
D11*
X005871033Y-10282953D02*
X005750329Y-10162249D01*
D11*
X005750329Y-10162249D02*
X005750329Y-10149329D01*
D11*
X005750329Y-10149329D02*
X005715000Y-10114000D01*
D11*
X005715000Y-10114000D02*
X005715000Y-10114000D01*
D11*
X-00243000Y-11148000D02*
X-00243000Y-11148000D01*
D11*
X-00243000Y-11148000D02*
X-00243000Y-10039000D01*
D11*
X-00243000Y-10039000D02*
X000208159Y-09587841D01*
D11*
X000208159Y-09587841D02*
X000242000Y-09554000D01*
D11*
X000242000Y-09554000D02*
X000242000Y-09554000D01*
D11*
X003050000Y002006000D02*
X003050000Y002006000D01*
D11*
X003050000Y002006000D02*
X002891170Y002164830D01*
D11*
X002891170Y002164830D02*
X002891170Y003688228D01*
D11*
X002891170Y003688228D02*
X002891170Y003889221D01*
D11*
X002891170Y003889221D02*
X005576476Y006574527D01*
D11*
X005576476Y006574527D02*
X007139904Y006574527D01*
D11*
X007139904Y006574527D02*
X007565034Y006999657D01*
D11*
X007565034Y006999657D02*
X007565034Y007150275D01*
D11*
X007565034Y007150275D02*
X008259436Y007844676D01*
D11*
X008259436Y007844676D02*
X008294676Y007844676D01*
D11*
X008294676Y007844676D02*
X008300000Y007850000D01*
D11*
X008300000Y007850000D02*
X008300000Y007850000D01*
D11*
X-12065000Y007850000D02*
X-12065000Y007850000D01*
D11*
X-12065000Y007850000D02*
X-13570781Y006344219D01*
D11*
X-13570781Y006344219D02*
X-13570781Y-00774464D01*
D11*
X-13570781Y-00774464D02*
X-14250661Y-01454343D01*
D11*
X-14250661Y-01454343D02*
X-14250661Y-06900107D01*
D11*
X-14250661Y-06900107D02*
X-14250661Y-07057339D01*
D11*
X-14250661Y-07057339D02*
X-14227000Y-07081000D01*
D11*
X-14227000Y-07081000D02*
X-14227000Y-07081000D01*
D11*
X-11201000Y-12186000D02*
X-11201000Y-12186000D01*
D11*
X-11201000Y-12186000D02*
X-11201000Y-10371458D01*
D11*
X-11201000Y-10371458D02*
X-11331369Y-10241089D01*
D11*
X-11331369Y-10241089D02*
X-11331369Y-10039631D01*
D11*
X-11331369Y-10039631D02*
X-11365205Y-10018259D01*
D11*
X-11365205Y-10018259D02*
X-11365205Y-10018259D01*
D11*
X-12614000Y000496000D02*
X-12614000Y000496000D01*
D11*
X-12614000Y000496000D02*
X-12614000Y003722952D01*
D11*
X-12614000Y003722952D02*
X-12599083Y003737869D01*
D11*
X-12599083Y003737869D02*
X-12599083Y003749917D01*
D11*
X-12599083Y003749917D02*
X-12526731Y003862018D01*
D11*
X-12526731Y003862018D02*
X-12526731Y003862018D01*
D11*
X001363000Y008602000D02*
X001363000Y008602000D01*
D11*
X001363000Y008602000D02*
X001834000Y008602000D01*
D11*
X001834000Y008602000D02*
X003261519Y010029519D01*
D11*
X003261519Y010029519D02*
X003275454Y010035999D01*
D11*
X003275454Y010035999D02*
X003275454Y010035999D01*
D11*
X000493000Y-13924000D02*
X000493000Y-13924000D01*
D11*
X000493000Y-13924000D02*
X001815048Y-12601952D01*
D11*
X001815048Y-12601952D02*
X004380193Y-12601952D01*
D11*
X004380193Y-12601952D02*
X004380193Y-12242287D01*
D11*
X004380193Y-12242287D02*
X004655112Y-11967369D01*
D11*
X004655112Y-11967369D02*
X004655112Y-11948888D01*
D11*
X004655112Y-11948888D02*
X004782000Y-11822000D01*
D11*
X004782000Y-11822000D02*
X004782000Y-11822000D01*
D11*
X007098000Y-11701000D02*
X007098000Y-11701000D01*
D11*
X007098000Y-11701000D02*
X009887538Y-11701000D01*
D11*
X009887538Y-11701000D02*
X010797971Y-10790567D01*
D11*
X010797971Y-10790567D02*
X010800567Y-10790567D01*
D11*
X010800567Y-10790567D02*
X010810000Y-10800000D01*
D11*
X010810000Y-10800000D02*
X010810000Y-10800000D01*
D12*
X010992000Y006360000D02*
X010992000Y006360000D01*
D12*
X010992000Y006360000D02*
X010992000Y-05398000D01*
D12*
X010992000Y-05398000D02*
X009000000Y-07390000D01*
D12*
X-07783820Y-01289751D02*
X-07783820Y-01289751D01*
D12*
X-07783820Y-01289751D02*
X-01795609Y-01289751D01*
D12*
X-01795609Y-01289751D02*
X000863107Y001368965D01*
D12*
X000863107Y001368965D02*
X007262120Y001377943D01*
D12*
X007262120Y001377943D02*
X007564600Y001072459D01*
D12*
X007564600Y001072459D02*
X007557097Y-00570311D01*
D12*
X007557097Y-00570311D02*
X007990553Y-01003767D01*
D12*
X007990553Y-01003767D02*
X009825816Y-01006390D01*
D12*
X009825816Y-01006390D02*
X010110574Y-00730544D01*
D12*
X010110574Y-00730544D02*
X010103538Y001666462D01*
D12*
X010103538Y001666462D02*
X009000000Y002770000D01*
D11*
X003322000Y002849000D02*
X003322000Y002849000D01*
D11*
X003322000Y002849000D02*
X003322000Y003400999D01*
D11*
X003322000Y003400999D02*
X004156127Y004259673D01*
D11*
X004156127Y004259673D02*
X004439529Y004539491D01*
D11*
X004439529Y004539491D02*
X004544000Y004595000D01*
D11*
X004544000Y004595000D02*
X004918000Y004594000D01*
D11*
X004918000Y004594000D02*
X005194000Y004282000D01*
D11*
X005194000Y004282000D02*
X005515000Y004238000D01*
D11*
X005515000Y004238000D02*
X005824000Y004245000D01*
D11*
X005824000Y004245000D02*
X006162000Y004245000D01*
D11*
X006162000Y004245000D02*
X006269000Y004245000D01*
D11*
X006269000Y004245000D02*
X006592000Y004245000D01*
D11*
X006592000Y004245000D02*
X006700000Y004245000D01*
D11*
X006700000Y004245000D02*
X006808000Y004245000D01*
D11*
X006808000Y004245000D02*
X006915000Y004245000D01*
D11*
X006915000Y004245000D02*
X007023000Y004245000D01*
D11*
X007023000Y004245000D02*
X007131000Y004245000D01*
D11*
X007131000Y004245000D02*
X007250928Y004234118D01*
D11*
X007250928Y004234118D02*
X007401124Y004275403D01*
D11*
X007401124Y004275403D02*
X007451093Y004372940D01*
D11*
X007451093Y004372940D02*
X007548000Y004387000D01*
D11*
X007548000Y004387000D02*
X007575000Y004435000D01*
D11*
X007575000Y004435000D02*
X008100000Y005310000D01*
D11*
X008100000Y005310000D02*
X008300000Y005310000D01*
D11*
X008300000Y005310000D02*
X009000000Y005310000D01*
D28*
X017059000Y-00206000D03*
D28*
X010630000Y011738000D03*
D28*
X004604710Y014386035D03*
D28*
X-07682000Y009344000D03*
D28*
X-07983657Y010802927D03*
D28*
X-08539000Y-06990000D03*
D28*
X-08708230Y-05000102D03*
D28*
X-09138000Y-00313000D03*
D28*
X-07933995Y005425939D03*
D28*
X-08576126Y010501741D03*
D28*
X-07335729Y010951131D03*
D28*
X-11740000Y014454922D03*
D28*
X-05575000Y017426777D03*
D28*
X006630000Y016767000D03*
D28*
X-06708466Y010377765D03*
D28*
X-07143000Y004609000D03*
D28*
X-07848000Y000769000D03*
D28*
X-07068000Y-03614000D03*
D28*
X-03037099Y-09585578D03*
D28*
X000157000Y017296000D03*
D28*
X-07440000Y017279464D03*
D28*
X-07526000Y010062000D03*
D28*
X-06573000Y015038000D03*
D28*
X-13480000Y-01316000D03*
D28*
X012989000Y-00121000D03*
D28*
X012581000Y012520000D03*
D28*
X-14142000Y002103000D03*
D28*
X-14036000Y005673000D03*
D28*
X006789124Y-10147715D03*
D28*
X007179000Y-08673333D03*
D28*
X-16926000Y-03594000D03*
D28*
X-17102000Y001494000D03*
D28*
X007751000Y017752000D03*
D28*
X004626339Y004140744D03*
D28*
X-02661000Y-05603000D03*
D28*
X-02702000Y-07248000D03*
D28*
X002790000Y-01086000D03*
D28*
X-05399000Y-16394000D03*
D28*
X-03907000Y-06593000D03*
D28*
X-05942294Y012104675D03*
D28*
X-05168000Y012498000D03*
D28*
X-00285978Y001596460D03*
D28*
X000869484Y000591601D03*
D28*
X013157811Y004593606D03*
D28*
X005871033Y-12615016D03*
D28*
X005715000Y-10114000D03*
D28*
X-00243000Y-11148000D03*
D28*
X000242000Y-09554000D03*
D28*
X003050000Y002006000D03*
D28*
X-14227000Y-07081000D03*
D28*
X-11201000Y-12186000D03*
D28*
X-11365205Y-10018259D03*
D28*
X-12614000Y000496000D03*
D28*
X-12526731Y003862018D03*
D28*
X001363000Y008602000D03*
D28*
X003275454Y010035999D03*
D28*
X000493000Y-13924000D03*
D28*
X004782000Y-11822000D03*
D28*
X007098000Y-11701000D03*
D28*
X010992000Y006360000D03*
D28*
X-07783820Y-01289751D03*
D28*
X003322000Y002849000D03*
M02*