%TF.GenerationSoftware,tscircuit,circuit-json-to-gerber,0.0.77*%
%TF.CreationDate,2026-10-09T01:59:49.437Z*%
%TF.SameCoordinates,Original*%
%TF.FileFunction,Paste,Bot*%
%TF.FilePolarity,Positive*%
%FSLAX46Y46*%
%MOMM*%
G04 Gerber Fmt 4.6, Leading zero omitted, Abs format (unit mm)*
G04 Created by tscircuit (builder) date 2026-10-09T01:59:49.437Z*
G01*
%LPD*%
G75*
G04 APERTURE MACROS START*
%AMHORZPILL*
0 Horizontal pill (stadium) shape macro*
0 Parameters:*
0 $1 = Total width*
0 $2 = Total height*
0 $3 = Circle diameter (equal to height)*
0 $4 = Circle center offset
0 21 = Center Line(Exposure, Width, Height, Center X, Center Y, Rotation)*
0 1 = Circle(Exposure, Diameter, Center X, Center Y, Rotation)*
21,1,$1-$3,$2,0.0,0.0,0.0*
1,1,$3,0.0-$4,0.0*
1,1,$3,$4,0.0*%
%AMVERTPILL*
0 Vertical pill (stadium) shape macro*
0 Parameters:*
0 $1 = Total width*
0 $2 = Total height*
0 $3 = Circle diameter (equal to width)*
0 $4 = Circle center offset
0 21 = Center Line(Exposure, Width, Height, Center X, Center Y, Rotation)*
21,1,$1,$2-$3,0.0,0.0,0.0*
1,1,$3,0.0,0.0-$4*
1,1,$3,0.0,$4*%
%AMROUNDRECT*
0 Rectangle with rounded corners*
0 $1 Corner radius*
0 $2 $3 $4 $5 $6 $7 $8 $9 X,Y Position of each corner*
0 Polygon box body*
4,1,4,$2,$3,$4,$5,$6,$7,$8,$9,$2,$3,0*
0 Circles for rounded corners*
1,1,$1+$1,$2,$3*
1,1,$1+$1,$4,$5*
1,1,$1+$1,$6,$7*
1,1,$1+$1,$8,$9*
0 Rectangles between the rounded corners*
20,1,$1+$1,$2,$3,$4,$5,0*
20,1,$1+$1,$4,$5,$6,$7,0*
20,1,$1+$1,$6,$7,$8,$9,0*
20,1,$1+$1,$8,$9,$2,$3,0*%
G04 APERTURE MACROS END*
G04 aperture START LIST*
%ADD10C,0.150000*%
%ADD11C,0.160000*%
%ADD12C,0.100000*%
%ADD13C,6.000000*%
%ADD14C,1.750000*%
%ADD15C,1.800000*%
%ADD16C,2.000000*%
%ADD17C,2.400000*%
%ADD18C,0.081250*%
%ADD19C,0.068750*%
%ADD20C,0.060000*%
%ADD21C,0.075000*%
%ADD22C,0.056250*%
%ADD23C,0.062500*%
%ADD24C,0.052500*%
%ADD25C,0.093750*%
%ADD26C,0.280000*%
%ADD27C,0.450000*%
%TD*%
G04 aperture END LIST*
D13*
X-15500000Y015500000D03*
D13*
X015500000Y015500000D03*
D13*
X-15500000Y-15500000D03*
D13*
X015500000Y-15500000D03*
D14*
X-11390000Y010390000D03*
D14*
X-11390000Y007850000D03*
D14*
X-11390000Y005310000D03*
D14*
X-11390000Y002770000D03*
D14*
X-11390000Y000230000D03*
D14*
X-11390000Y-02310000D03*
D14*
X-11390000Y-04850000D03*
D14*
X-11390000Y-07390000D03*
D14*
X006390000Y010390000D03*
D14*
X006390000Y007850000D03*
D14*
X006390000Y005310000D03*
D14*
X006390000Y002770000D03*
D14*
X006390000Y000230000D03*
D14*
X006390000Y-02310000D03*
D14*
X006390000Y-04850000D03*
D14*
X006390000Y-07390000D03*
D15*
X009000000Y010390000D03*
D15*
X009000000Y007850000D03*
D15*
X009000000Y005310000D03*
D15*
X009000000Y002770000D03*
D15*
X009000000Y000230000D03*
D15*
X009000000Y-02310000D03*
D15*
X009000000Y-04850000D03*
D15*
X009000000Y-07390000D03*
D16*
X-02540000Y015500000D03*
D16*
X000000000Y015500000D03*
D16*
X002540000Y015500000D03*
D16*
X015500000Y003960000D03*
D16*
X015500000Y006500000D03*
D16*
X015500000Y009040000D03*
D16*
X-15500000Y003960000D03*
D16*
X-15500000Y006500000D03*
D16*
X-15500000Y009040000D03*
D16*
X-15500000Y-01230000D03*
D16*
X-15500000Y-03770000D03*
D16*
X015500000Y-01230000D03*
D16*
X015500000Y-03770000D03*
D15*
X-11040000Y-13500000D03*
D15*
X-08500000Y-13500000D03*
D15*
X-05960000Y-13500000D03*
D15*
X003190000Y-08960000D03*
D15*
X003190000Y-11500000D03*
D15*
X003190000Y-14040000D03*
D15*
X010810000Y-08960000D03*
D15*
X010810000Y-11500000D03*
D15*
X010810000Y-14040000D03*
D16*
X014800000Y-11270000D03*
D16*
X014800000Y-08730000D03*
D17*
X-01800000Y-16000000D03*
D17*
X001800000Y-16000000D03*
M02*