M48
; DRILL file {tscircuit} date 2026-10-09T01:59:49.484Z
; FORMAT={-:-/ absolute / metric / decimal}
; #@! TF.CreationDate,2026-10-09T01:59:49.484Z
; #@! TF.GenerationSoftware,tscircuit
; #@! TF.FileFunction,Plated,1,2,PTH
FMAT,2
METRIC
; #@! TA.AperFunction,Plated,PTH,ComponentDrill
T10C3.200000
; #@! TA.AperFunction,Plated,PTH,ComponentDrill
T11C0.950000
; #@! TA.AperFunction,Plated,PTH,ComponentDrill
T12C1.000000
; #@! TA.AperFunction,Plated,PTH,ComponentDrill
T13C1.200000
; #@! TA.AperFunction,Plated,PTH,ComponentDrill
T14C0.200000
%
G90
G05
T10
X-15.5000Y15.5000
X15.5000Y15.5000
X-15.5000Y-15.5000
X15.5000Y-15.5000
T11
X-11.3900Y10.3900
X-11.3900Y7.8500
X-11.3900Y5.3100
X-11.3900Y2.7700
X-11.3900Y0.2300
X-11.3900Y-2.3100
X-11.3900Y-4.8500
X-11.3900Y-7.3900
X6.3900Y10.3900
X6.3900Y7.8500
X6.3900Y5.3100
X6.3900Y2.7700
X6.3900Y0.2300
X6.3900Y-2.3100
X6.3900Y-4.8500
X6.3900Y-7.3900
T12
X9.0000Y10.3900
X9.0000Y7.8500
X9.0000Y5.3100
X9.0000Y2.7700
X9.0000Y0.2300
X9.0000Y-2.3100
X9.0000Y-4.8500
X9.0000Y-7.3900
X-2.5400Y15.5000
X0.0000Y15.5000
X2.5400Y15.5000
X15.5000Y3.9600
X15.5000Y6.5000
X15.5000Y9.0400
X-15.5000Y3.9600
X-15.5000Y6.5000
X-15.5000Y9.0400
X-15.5000Y-1.2300
X-15.5000Y-3.7700
X15.5000Y-1.2300
X15.5000Y-3.7700
X-11.0400Y-13.5000
X-8.5000Y-13.5000
X-5.9600Y-13.5000
X3.1900Y-8.9600
X3.1900Y-11.5000
X3.1900Y-14.0400
X10.8100Y-8.9600
X10.8100Y-11.5000
X10.8100Y-14.0400
X14.8000Y-11.2700
X14.8000Y-8.7300
T13
X-1.8000Y-16.0000
X1.8000Y-16.0000
T14
X10.1810Y10.4680
X8.7930Y15.8500
X6.5500Y-17.7520
X7.3830Y-13.1800
X-0.5350Y1.1660
X-7.3500Y5.1990
X-8.0210Y10.9370
X-11.5760Y14.5880
X-9.6820Y16.0840
X-8.3995Y10.2129
X-9.9750Y-8.9880
X-13.2670Y-1.4130
X13.8690Y4.1840
X13.8646Y6.7277
X-3.8880Y-6.8480
X-2.7910Y-5.4820
X3.4900Y-2.3940
X14.0660Y-5.1240
X-17.8000Y-4.2730
X-9.8520Y8.7760
X-6.7190Y8.4610
X-3.4060Y-3.7440
X0.6010Y-6.2640
X1.3898Y-1.6225
X-16.7890Y3.6480
X-13.6740Y-9.2130
X-10.5330Y-9.8900
X-9.1840Y-7.9530
X-13.2860Y6.4090
X-12.9170Y8.4550
X-13.2970Y9.4100
X-0.7510Y13.7870
X11.9267Y5.8463
X13.2480Y6.8850
X-12.7517Y6.8881
X-9.6200Y4.8500
X-6.7190Y3.6850
X-0.4332Y-2.7417
X12.9679Y6.2680
X10.3851Y6.1392
X2.8335Y-5.6939
X4.4020Y-6.8580
X6.1230Y-12.8630
X6.1921Y-10.3574
X1.3830Y-3.6150
X0.4270Y2.0450
X-14.1144Y5.3019
X-13.8990Y-6.1910
X-12.0440Y-11.6960
X-12.5110Y3.7580
X3.5240Y0.8320
X10.1260Y-0.9950
X0.8769Y0.2962
X12.1380Y5.2450
X11.4980Y6.7220
M30