%TF.GenerationSoftware,tscircuit,circuit-json-to-gerber,0.0.77*%
%TF.CreationDate,2026-10-09T14:43:11.313Z*%
%TF.SameCoordinates,Original*%
%TF.FileFunction,Legend,Bot*%
%TF.FilePolarity,Positive*%
%FSLAX46Y46*%
%MOMM*%
G04 Gerber Fmt 4.6, Leading zero omitted, Abs format (unit mm)*
G04 Created by tscircuit (builder) date 2026-10-09T14:43:11.313Z*
G01*
%LPD*%
G75*
G04 APERTURE MACROS START*
%AMHORZPILL*
0 Horizontal pill (stadium) shape macro*
0 Parameters:*
0 $1 = Total width*
0 $2 = Total height*
0 $3 = Circle diameter (equal to height)*
0 $4 = Circle center offset
0 21 = Center Line(Exposure, Width, Height, Center X, Center Y, Rotation)*
0 1 = Circle(Exposure, Diameter, Center X, Center Y, Rotation)*
21,1,$1-$3,$2,0.0,0.0,0.0*
1,1,$3,0.0-$4,0.0*
1,1,$3,$4,0.0*%
%AMVERTPILL*
0 Vertical pill (stadium) shape macro*
0 Parameters:*
0 $1 = Total width*
0 $2 = Total height*
0 $3 = Circle diameter (equal to width)*
0 $4 = Circle center offset
0 21 = Center Line(Exposure, Width, Height, Center X, Center Y, Rotation)*
21,1,$1,$2-$3,0.0,0.0,0.0*
1,1,$3,0.0,0.0-$4*
1,1,$3,0.0,$4*%
%AMROUNDRECT*
0 Rectangle with rounded corners*
0 $1 Corner radius*
0 $2 $3 $4 $5 $6 $7 $8 $9 X,Y Position of each corner*
0 Polygon box body*
4,1,4,$2,$3,$4,$5,$6,$7,$8,$9,$2,$3,0*
0 Circles for rounded corners*
1,1,$1+$1,$2,$3*
1,1,$1+$1,$4,$5*
1,1,$1+$1,$6,$7*
1,1,$1+$1,$8,$9*
0 Rectangles between the rounded corners*
20,1,$1+$1,$2,$3,$4,$5,0*
20,1,$1+$1,$4,$5,$6,$7,0*
20,1,$1+$1,$6,$7,$8,$9,0*
20,1,$1+$1,$8,$9,$2,$3,0*%
G04 APERTURE MACROS END*
G04 aperture START LIST*
%ADD10C,0.220000*%
%ADD11C,0.150000*%
%ADD12C,0.160000*%
%ADD13C,0.100000*%
%ADD14C,4.800000*%
%ADD15C,1.750000*%
%ADD16C,1.800000*%
%ADD17C,2.000000*%
%ADD18C,2.400000*%
%ADD19C,0.081250*%
%ADD20C,0.068750*%
%ADD21C,0.060000*%
%ADD22C,0.075000*%
%ADD23C,0.056250*%
%ADD24C,0.062500*%
%ADD25C,0.052500*%
%ADD26C,0.093750*%
%ADD27C,0.280000*%
%ADD28C,0.450000*%
%TD*%
G04 aperture END LIST*
D20*
X003060750Y012688167D02*
X003030027Y012430455D01*
X003030027Y012430455D02*
X002950949Y012610440D01*
X002950949Y012610440D02*
X002866227Y012427147D01*
X002866227Y012427147D02*
X002828960Y012688167D01*
X002335781Y012652232D02*
X002364819Y012689521D01*
X002364819Y012689521D02*
X002433650Y012693242D01*
X002433650Y012693242D02*
X002472230Y012666387D01*
X002472230Y012666387D02*
X002487981Y012617117D01*
X002487981Y012617117D02*
X002481457Y012592790D01*
X002481457Y012592790D02*
X002457049Y012571777D01*
X002457049Y012571777D02*
X002360327Y012554833D01*
X002360327Y012554833D02*
X002327789Y012534803D01*
X002327789Y012534803D02*
X002315715Y012500160D01*
X002315715Y012500160D02*
X002331619Y012445979D01*
X002331619Y012445979D02*
X002380198Y012422433D01*
X002380198Y012422433D02*
X002442657Y012424186D01*
X002442657Y012424186D02*
X002476816Y012443290D01*
X002476816Y012443290D02*
X002495995Y012488221D01*
X001940243Y012641534D02*
X001934386Y012660717D01*
X001934386Y012660717D02*
X001917080Y012678608D01*
X001917080Y012678608D02*
X001888719Y012690741D01*
X001888719Y012690741D02*
X001870516Y012693242D01*
X001870516Y012693242D02*
X001839022Y012690937D01*
X001839022Y012690937D02*
X001815397Y012680579D01*
X001815397Y012680579D02*
X001802478Y012664693D01*
X001802478Y012664693D02*
X001797838Y012646233D01*
X001797838Y012646233D02*
X001798146Y012633955D01*
X001798146Y012633955D02*
X001803691Y012613401D01*
X001803691Y012613401D02*
X001827760Y012573440D01*
X001827760Y012573440D02*
X001888373Y012497421D01*
X001888373Y012497421D02*
X001952108Y012427503D01*
X001952108Y012427503D02*
X001781602Y012427503D01*
X001333347Y012693242D02*
X001362637Y012687926D01*
X001362637Y012687926D02*
X001389311Y012674836D01*
X001389311Y012674836D02*
X001408140Y012645382D01*
X001408140Y012645382D02*
X001400817Y012619201D01*
X001400817Y012619201D02*
X001378851Y012599156D01*
X001378851Y012599156D02*
X001355837Y012584838D01*
X001355837Y012584838D02*
X001298304Y012563566D01*
X001298304Y012563566D02*
X001262738Y012543930D01*
X001262738Y012543930D02*
X001241294Y012520612D01*
X001241294Y012520612D02*
X001236587Y012487476D01*
X001236587Y012487476D02*
X001248616Y012455159D01*
X001248616Y012455159D02*
X001274768Y012435523D01*
X001274768Y012435523D02*
X001312949Y012422433D01*
X001312949Y012422433D02*
X001342239Y012423251D01*
X001342239Y012423251D02*
X001376758Y012434705D01*
X001376758Y012434705D02*
X001404479Y012453114D01*
X001404479Y012453114D02*
X001419123Y012480113D01*
X001419123Y012480113D02*
X001418077Y012507113D01*
X001418077Y012507113D02*
X001404479Y012534111D01*
X001404479Y012534111D02*
X001374143Y012558248D01*
X001374143Y012558248D02*
X001343807Y012568884D01*
X001343807Y012568884D02*
X001305627Y012581156D01*
X001305627Y012581156D02*
X001267968Y012601201D01*
X001267968Y012601201D02*
X001256462Y012620428D01*
X001256462Y012620428D02*
X001255939Y012652745D01*
X001255939Y012652745D02*
X001269014Y012676063D01*
X001269014Y012676063D02*
X001295689Y012690381D01*
X001295689Y012690381D02*
X001333347Y012693242D01*
X000819886Y012635247D02*
X000757824Y012688167D01*
X000757824Y012688167D02*
X000757824Y012427148D01*
X000323243Y012641534D02*
X000317386Y012660717D01*
X000317386Y012660717D02*
X000300080Y012678608D01*
X000300080Y012678608D02*
X000271719Y012690741D01*
X000271719Y012690741D02*
X000253516Y012693242D01*
X000253516Y012693242D02*
X000222022Y012690937D01*
X000222022Y012690937D02*
X000198397Y012680579D01*
X000198397Y012680579D02*
X000185478Y012664693D01*
X000185478Y012664693D02*
X000180838Y012646233D01*
X000180838Y012646233D02*
X000181146Y012633955D01*
X000181146Y012633955D02*
X000186691Y012613401D01*
X000186691Y012613401D02*
X000210760Y012573440D01*
X000210760Y012573440D02*
X000271373Y012497421D01*
X000271373Y012497421D02*
X000335108Y012427503D01*
X000335108Y012427503D02*
X000164602Y012427503D01*
X-00197877Y012427147D02*
X-00197877Y012685103D01*
X-00197877Y012685103D02*
X-00253852Y012688167D01*
X-00253852Y012688167D02*
X-00305107Y012679158D01*
X-00305107Y012679158D02*
X-00339639Y012648926D01*
X-00339639Y012648926D02*
X-00334266Y012604724D01*
X-00334266Y012604724D02*
X-00293634Y012581071D01*
X-00293634Y012581071D02*
X-00205870Y012570921D01*
X-00205870Y012570921D02*
X-00291205Y012565568D01*
X-00291205Y012565568D02*
X-00353768Y012543229D01*
X-00353768Y012543229D02*
X-00380413Y012508887D01*
X-00380413Y012508887D02*
X-00378224Y012464472D01*
X-00378224Y012464472D02*
X-00366230Y012444852D01*
X-00366230Y012444852D02*
X-00336317Y012428907D01*
X-00336317Y012428907D02*
X-00197877Y012427147D01*
X-01217788Y012699634D02*
X-01202100Y012683364D01*
X-01202100Y012683364D02*
X-01186412Y012663839D01*
X-01186412Y012663839D02*
X-01170723Y012641061D01*
X-01170723Y012641061D02*
X-01155035Y012615028D01*
X-01155035Y012615028D02*
X-01143268Y012588995D01*
X-01143268Y012588995D02*
X-01135424Y012562963D01*
X-01135424Y012562963D02*
X-01131502Y012540185D01*
X-01131502Y012540185D02*
X-01135424Y012517406D01*
X-01135424Y012517406D02*
X-01143268Y012491374D01*
X-01143268Y012491374D02*
X-01155035Y012465341D01*
X-01155035Y012465341D02*
X-01170723Y012439309D01*
X-01170723Y012439309D02*
X-01186412Y012416531D01*
X-01186412Y012416531D02*
X-01202100Y012397006D01*
X-01202100Y012397006D02*
X-01217788Y012380746D01*
X-01789493Y012682797D02*
X-01741979Y012693242D01*
X-01741979Y012693242D02*
X-01691774Y012689071D01*
X-01691774Y012689071D02*
X-01659572Y012672381D01*
X-01659572Y012672381D02*
X-01634154Y012639225D01*
X-01634154Y012639225D02*
X-01619463Y012567645D01*
X-01619463Y012567645D02*
X-01627300Y012490070D01*
X-01627300Y012490070D02*
X-01644283Y012462094D01*
X-01644283Y012462094D02*
X-01670495Y012439557D01*
X-01670495Y012439557D02*
X-01702088Y012425367D01*
X-01702088Y012425367D02*
X-01735222Y012422433D01*
X-01735222Y012422433D02*
X-01766053Y012433662D01*
X-01766053Y012433662D02*
X-01790736Y012461962D01*
X-01790736Y012461962D02*
X-01807828Y012542785D01*
X-01807828Y012542785D02*
X-01724644Y012542970D01*
X-02301741Y012693242D02*
X-02268202Y012682755D01*
X-02268202Y012682755D02*
X-02237131Y012672342D01*
X-02237131Y012672342D02*
X-02210742Y012653830D01*
X-02210742Y012653830D02*
X-02190227Y012634277D01*
X-02190227Y012634277D02*
X-02174564Y012599838D01*
X-02174564Y012599838D02*
X-02163796Y012567557D01*
X-02163796Y012567557D02*
X-02162647Y012534274D01*
X-02162647Y012534274D02*
X-02161838Y012501108D01*
X-02161838Y012501108D02*
X-02170308Y012476425D01*
X-02170308Y012476425D02*
X-02178395Y012460999D01*
X-02178395Y012460999D02*
X-02197548Y012440945D01*
X-02197548Y012440945D02*
X-02217978Y012427446D01*
X-02217978Y012427446D02*
X-02249474Y012422433D01*
X-02249474Y012422433D02*
X-02284801Y012424361D01*
X-02284801Y012424361D02*
X-02312467Y012436702D01*
X-02312467Y012436702D02*
X-02332046Y012453285D01*
X-02332046Y012453285D02*
X-02342687Y012476040D01*
X-02342687Y012476040D02*
X-02343538Y012495323D01*
X-02343538Y012495323D02*
X-02337579Y012515763D01*
X-02337579Y012515763D02*
X-02328641Y012533118D01*
X-02328641Y012533118D02*
X-02315021Y012547387D01*
X-02315021Y012547387D02*
X-02296293Y012556257D01*
X-02296293Y012556257D02*
X-02270330Y012562042D01*
X-02270330Y012562042D02*
X-02245643Y012563199D01*
X-02245643Y012563199D02*
X-02219680Y012559342D01*
X-02219680Y012559342D02*
X-02192866Y012545459D01*
X-02192866Y012545459D02*
X-02178820Y012531189D01*
X-02178820Y012531189D02*
X-02161753Y012513758D01*
X-02748502Y012699634D02*
X-02764191Y012683364D01*
X-02764191Y012683364D02*
X-02779879Y012663839D01*
X-02779879Y012663839D02*
X-02795567Y012641061D01*
X-02795567Y012641061D02*
X-02811256Y012615028D01*
X-02811256Y012615028D02*
X-02823023Y012588995D01*
X-02823023Y012588995D02*
X-02830867Y012562963D01*
X-02830867Y012562963D02*
X-02834788Y012540185D01*
X-02834788Y012540185D02*
X-02830867Y012517406D01*
X-02830867Y012517406D02*
X-02823023Y012491374D01*
X-02823023Y012491374D02*
X-02811256Y012465341D01*
X-02811256Y012465341D02*
X-02795567Y012439309D01*
X-02795567Y012439309D02*
X-02779879Y012416531D01*
X-02779879Y012416531D02*
X-02764191Y012397006D01*
X-02764191Y012397006D02*
X-02748502Y012380746D01*
D22*
X-17596182Y009219315D02*
X-17311433Y009219315D01*
X-17311433Y009219315D02*
X-17311433Y009029823D01*
X-17596182Y008629367D02*
X-17311433Y008629367D01*
X-17596182Y008629367D02*
X-17596182Y008443771D01*
X-17453808Y008629367D02*
X-17453808Y008499450D01*
X-17311433Y008629367D02*
X-17311433Y008443771D01*
X-17311433Y008047929D02*
X-17590267Y008044828D01*
X-17590267Y008044828D02*
X-17596182Y008003089D01*
X-17596182Y008003089D02*
X-17595494Y007971114D01*
X-17595494Y007971114D02*
X-17581447Y007919176D01*
X-17581447Y007919176D02*
X-17551112Y007880766D01*
X-17551112Y007880766D02*
X-17510267Y007858806D01*
X-17510267Y007858806D02*
X-17467915Y007850052D01*
X-17467915Y007850052D02*
X-17436029Y007849208D01*
X-17436029Y007849208D02*
X-17408700Y007853213D01*
X-17408700Y007853213D02*
X-17385584Y007861404D01*
X-17385584Y007861404D02*
X-17350608Y007887702D01*
X-17350608Y007887702D02*
X-17328342Y007922810D01*
X-17328342Y007922810D02*
X-17312738Y007980415D01*
X-17312738Y007980415D02*
X-17311433Y008047929D01*
X-17565069Y007452725D02*
X-17577434Y007436955D01*
X-17577434Y007436955D02*
X-17590682Y007411822D01*
X-17590682Y007411822D02*
X-17601719Y007379789D01*
X-17601719Y007379789D02*
X-17599514Y007340364D01*
X-17599514Y007340364D02*
X-17588474Y007305867D01*
X-17588474Y007305867D02*
X-17568602Y007281225D01*
X-17568602Y007281225D02*
X-17544314Y007266441D01*
X-17544314Y007266441D02*
X-17517818Y007271369D01*
X-17517818Y007271369D02*
X-17497945Y007291082D01*
X-17497945Y007291082D02*
X-17482489Y007325580D01*
X-17482489Y007325580D02*
X-17473658Y007365005D01*
X-17473658Y007365005D02*
X-17469241Y007399501D01*
X-17469241Y007399501D02*
X-17464825Y007365005D01*
X-17464825Y007365005D02*
X-17453785Y007325580D01*
X-17453785Y007325580D02*
X-17436121Y007291082D01*
X-17436121Y007291082D02*
X-17411833Y007268905D01*
X-17411833Y007268905D02*
X-17385337Y007263977D01*
X-17385337Y007263977D02*
X-17356633Y007273833D01*
X-17356633Y007273833D02*
X-17332345Y007296010D01*
X-17332345Y007296010D02*
X-17312473Y007330508D01*
X-17312473Y007330508D02*
X-17306290Y007356627D01*
X-17306290Y007356627D02*
X-17307173Y007399009D01*
X-17307173Y007399009D02*
X-17312473Y007433506D01*
X-17312473Y007433506D02*
X-17319538Y007457161D01*
X-17608691Y006347503D02*
X-17590943Y006364618D01*
X-17590943Y006364618D02*
X-17569643Y006381733D01*
X-17569643Y006381733D02*
X-17544793Y006398848D01*
X-17544793Y006398848D02*
X-17516395Y006415962D01*
X-17516395Y006415962D02*
X-17487995Y006428798D01*
X-17487995Y006428798D02*
X-17459596Y006437356D01*
X-17459596Y006437356D02*
X-17434747Y006441634D01*
X-17434747Y006441634D02*
X-17409898Y006437356D01*
X-17409898Y006437356D02*
X-17381499Y006428798D01*
X-17381499Y006428798D02*
X-17353099Y006415962D01*
X-17353099Y006415962D02*
X-17324700Y006398848D01*
X-17324700Y006398848D02*
X-17299852Y006381733D01*
X-17299852Y006381733D02*
X-17278552Y006364618D01*
X-17278552Y006364618D02*
X-17260814Y006347503D01*
X-17590324Y005723826D02*
X-17601719Y005775659D01*
X-17601719Y005775659D02*
X-17597168Y005830428D01*
X-17597168Y005830428D02*
X-17578961Y005865558D01*
X-17578961Y005865558D02*
X-17542791Y005893286D01*
X-17542791Y005893286D02*
X-17464703Y005909313D01*
X-17464703Y005909313D02*
X-17380077Y005900764D01*
X-17380077Y005900764D02*
X-17349557Y005882237D01*
X-17349557Y005882237D02*
X-17324972Y005853642D01*
X-17324972Y005853642D02*
X-17309492Y005819177D01*
X-17309492Y005819177D02*
X-17306290Y005783031D01*
X-17306290Y005783031D02*
X-17318540Y005749397D01*
X-17318540Y005749397D02*
X-17349414Y005722470D01*
X-17349414Y005722470D02*
X-17437583Y005703824D01*
X-17437583Y005703824D02*
X-17437785Y005794570D01*
X-17545310Y005298628D02*
X-17566237Y005292239D01*
X-17566237Y005292239D02*
X-17585754Y005273360D01*
X-17585754Y005273360D02*
X-17598990Y005242420D01*
X-17598990Y005242420D02*
X-17601719Y005222562D01*
X-17601719Y005222562D02*
X-17599204Y005188206D01*
X-17599204Y005188206D02*
X-17587904Y005162433D01*
X-17587904Y005162433D02*
X-17570574Y005148340D01*
X-17570574Y005148340D02*
X-17550437Y005143277D01*
X-17550437Y005143277D02*
X-17537041Y005143613D01*
X-17537041Y005143613D02*
X-17514619Y005149663D01*
X-17514619Y005149663D02*
X-17471025Y005175920D01*
X-17471025Y005175920D02*
X-17388096Y005242044D01*
X-17388096Y005242044D02*
X-17311821Y005311572D01*
X-17311821Y005311572D02*
X-17311821Y005125566D01*
X-17538451Y004664421D02*
X-17596182Y004596717D01*
X-17596182Y004596717D02*
X-17311434Y004596717D01*
X-17608691Y004089634D02*
X-17590943Y004072519D01*
X-17590943Y004072519D02*
X-17569643Y004055404D01*
X-17569643Y004055404D02*
X-17544793Y004038291D01*
X-17544793Y004038291D02*
X-17516395Y004021175D01*
X-17516395Y004021175D02*
X-17487995Y004008339D01*
X-17487995Y004008339D02*
X-17459596Y003999782D01*
X-17459596Y003999782D02*
X-17434747Y003995503D01*
X-17434747Y003995503D02*
X-17409898Y003999782D01*
X-17409898Y003999782D02*
X-17381499Y004008339D01*
X-17381499Y004008339D02*
X-17353099Y004021175D01*
X-17353099Y004021175D02*
X-17324700Y004038291D01*
X-17324700Y004038291D02*
X-17299852Y004055404D01*
X-17299852Y004055404D02*
X-17278552Y004072519D01*
X-17278552Y004072519D02*
X-17260814Y004089634D01*
D22*
X-17596182Y-01142096D02*
X-17311433Y-01142096D01*
X-17459824Y-01142096D02*
X-17459824Y-01336604D01*
X-17596182Y-01338766D02*
X-17311433Y-01338766D01*
X-17311433Y-01709588D02*
X-17596182Y-01823875D01*
X-17596182Y-01823875D02*
X-17311433Y-01947274D01*
X-17422501Y-01767227D02*
X-17422501Y-01884090D01*
X-17311433Y-02319634D02*
X-17590808Y-02319634D01*
X-17590808Y-02319634D02*
X-17596182Y-02376957D01*
X-17596182Y-02376957D02*
X-17592823Y-02428236D01*
X-17592823Y-02428236D02*
X-17583784Y-02461581D01*
X-17583784Y-02461581D02*
X-17576479Y-02476489D01*
X-17576479Y-02476489D02*
X-17555050Y-02500268D01*
X-17555050Y-02500268D02*
X-17532034Y-02510834D01*
X-17532034Y-02510834D02*
X-17498387Y-02513228D01*
X-17498387Y-02513228D02*
X-17477234Y-02503752D01*
X-17477234Y-02503752D02*
X-17465542Y-02488964D01*
X-17465542Y-02488964D02*
X-17456167Y-02465382D01*
X-17456167Y-02465382D02*
X-17449444Y-02431278D01*
X-17449444Y-02431278D02*
X-17445707Y-02384926D01*
X-17445707Y-02384926D02*
X-17445292Y-02324595D01*
X-17222548Y-02878000D02*
X-17222548Y-03130862D01*
X-17596182Y-03497685D02*
X-17311433Y-03497685D01*
X-17311433Y-03497685D02*
X-17311433Y-03687177D01*
D22*
X017403818Y009219315D02*
X017688567Y009219315D01*
X017688567Y009219315D02*
X017688567Y009029823D01*
X017403818Y008629367D02*
X017688567Y008629367D01*
X017403818Y008629367D02*
X017403818Y008443771D01*
X017546192Y008629367D02*
X017546192Y008499450D01*
X017688567Y008629367D02*
X017688567Y008443771D01*
X017688567Y008047929D02*
X017409733Y008044828D01*
X017409733Y008044828D02*
X017403818Y008003089D01*
X017403818Y008003089D02*
X017404506Y007971114D01*
X017404506Y007971114D02*
X017418553Y007919176D01*
X017418553Y007919176D02*
X017448888Y007880766D01*
X017448888Y007880766D02*
X017489733Y007858806D01*
X017489733Y007858806D02*
X017532085Y007850052D01*
X017532085Y007850052D02*
X017563971Y007849208D01*
X017563971Y007849208D02*
X017591300Y007853213D01*
X017591300Y007853213D02*
X017614416Y007861404D01*
X017614416Y007861404D02*
X017649392Y007887702D01*
X017649392Y007887702D02*
X017671658Y007922810D01*
X017671658Y007922810D02*
X017687262Y007980415D01*
X017687262Y007980415D02*
X017688567Y008047929D01*
X017454690Y007440628D02*
X017433763Y007434239D01*
X017433763Y007434239D02*
X017414246Y007415360D01*
X017414246Y007415360D02*
X017401010Y007384420D01*
X017401010Y007384420D02*
X017398281Y007364562D01*
X017398281Y007364562D02*
X017400796Y007330206D01*
X017400796Y007330206D02*
X017412096Y007304433D01*
X017412096Y007304433D02*
X017429426Y007290340D01*
X017429426Y007290340D02*
X017449563Y007285277D01*
X017449563Y007285277D02*
X017462959Y007285613D01*
X017462959Y007285613D02*
X017485381Y007291663D01*
X017485381Y007291663D02*
X017528975Y007317920D01*
X017528975Y007317920D02*
X017611904Y007384044D01*
X017611904Y007384044D02*
X017688179Y007453572D01*
X017688179Y007453572D02*
X017688179Y007267566D01*
X017391309Y006347503D02*
X017409057Y006364618D01*
X017409057Y006364618D02*
X017430357Y006381733D01*
X017430357Y006381733D02*
X017455207Y006398848D01*
X017455207Y006398848D02*
X017483605Y006415962D01*
X017483605Y006415962D02*
X017512005Y006428798D01*
X017512005Y006428798D02*
X017540404Y006437356D01*
X017540404Y006437356D02*
X017565253Y006441634D01*
X017565253Y006441634D02*
X017590102Y006437356D01*
X017590102Y006437356D02*
X017618501Y006428798D01*
X017618501Y006428798D02*
X017646901Y006415962D01*
X017646901Y006415962D02*
X017675300Y006398848D01*
X017675300Y006398848D02*
X017700148Y006381733D01*
X017700148Y006381733D02*
X017721448Y006364618D01*
X017721448Y006364618D02*
X017739186Y006347503D01*
X017409676Y005723826D02*
X017398281Y005775659D01*
X017398281Y005775659D02*
X017402832Y005830428D01*
X017402832Y005830428D02*
X017421039Y005865558D01*
X017421039Y005865558D02*
X017457209Y005893286D01*
X017457209Y005893286D02*
X017535297Y005909313D01*
X017535297Y005909313D02*
X017619923Y005900764D01*
X017619923Y005900764D02*
X017650443Y005882237D01*
X017650443Y005882237D02*
X017675028Y005853642D01*
X017675028Y005853642D02*
X017690508Y005819177D01*
X017690508Y005819177D02*
X017693710Y005783031D01*
X017693710Y005783031D02*
X017681460Y005749397D01*
X017681460Y005749397D02*
X017650586Y005722470D01*
X017650586Y005722470D02*
X017562417Y005703824D01*
X017562417Y005703824D02*
X017562215Y005794570D01*
X017454690Y005298628D02*
X017433763Y005292239D01*
X017433763Y005292239D02*
X017414246Y005273360D01*
X017414246Y005273360D02*
X017401010Y005242420D01*
X017401010Y005242420D02*
X017398281Y005222562D01*
X017398281Y005222562D02*
X017400796Y005188206D01*
X017400796Y005188206D02*
X017412096Y005162433D01*
X017412096Y005162433D02*
X017429426Y005148340D01*
X017429426Y005148340D02*
X017449563Y005143277D01*
X017449563Y005143277D02*
X017462959Y005143613D01*
X017462959Y005143613D02*
X017485381Y005149663D01*
X017485381Y005149663D02*
X017528975Y005175920D01*
X017528975Y005175920D02*
X017611904Y005242044D01*
X017611904Y005242044D02*
X017688179Y005311572D01*
X017688179Y005311572D02*
X017688179Y005125566D01*
X017398281Y004630569D02*
X017409022Y004670231D01*
X017409022Y004670231D02*
X017441749Y004705742D01*
X017441749Y004705742D02*
X017489265Y004725112D01*
X017489265Y004725112D02*
X017559733Y004729724D01*
X017559733Y004729724D02*
X017618814Y004718656D01*
X017618814Y004718656D02*
X017667774Y004690062D01*
X017667774Y004690062D02*
X017693710Y004649016D01*
X017693710Y004649016D02*
X017693710Y004612122D01*
X017693710Y004612122D02*
X017667774Y004571075D01*
X017667774Y004571075D02*
X017618814Y004542482D01*
X017618814Y004542482D02*
X017559733Y004531413D01*
X017559733Y004531413D02*
X017489265Y004536025D01*
X017489265Y004536025D02*
X017441749Y004555395D01*
X017441749Y004555395D02*
X017409022Y004590907D01*
X017409022Y004590907D02*
X017398281Y004630569D01*
X017391309Y004089634D02*
X017409057Y004072519D01*
X017409057Y004072519D02*
X017430357Y004055404D01*
X017430357Y004055404D02*
X017455207Y004038291D01*
X017455207Y004038291D02*
X017483605Y004021175D01*
X017483605Y004021175D02*
X017512005Y004008339D01*
X017512005Y004008339D02*
X017540404Y003999782D01*
X017540404Y003999782D02*
X017565253Y003995503D01*
X017565253Y003995503D02*
X017590102Y003999782D01*
X017590102Y003999782D02*
X017618501Y004008339D01*
X017618501Y004008339D02*
X017646901Y004021175D01*
X017646901Y004021175D02*
X017675300Y004038291D01*
X017675300Y004038291D02*
X017700148Y004055404D01*
X017700148Y004055404D02*
X017721448Y004072519D01*
X017721448Y004072519D02*
X017739186Y004089634D01*
D22*
X017403818Y-01142096D02*
X017688567Y-01142096D01*
X017540176Y-01142096D02*
X017540176Y-01336604D01*
X017403818Y-01338766D02*
X017688567Y-01338766D01*
X017688567Y-01709588D02*
X017403818Y-01823875D01*
X017403818Y-01823875D02*
X017688567Y-01947274D01*
X017577499Y-01767227D02*
X017577499Y-01884090D01*
X017688567Y-02319634D02*
X017409192Y-02319634D01*
X017409192Y-02319634D02*
X017403818Y-02376957D01*
X017403818Y-02376957D02*
X017407177Y-02428236D01*
X017407177Y-02428236D02*
X017416216Y-02461581D01*
X017416216Y-02461581D02*
X017423521Y-02476489D01*
X017423521Y-02476489D02*
X017444950Y-02500268D01*
X017444950Y-02500268D02*
X017467966Y-02510834D01*
X017467966Y-02510834D02*
X017501613Y-02513228D01*
X017501613Y-02513228D02*
X017522766Y-02503752D01*
X017522766Y-02503752D02*
X017534458Y-02488964D01*
X017534458Y-02488964D02*
X017543833Y-02465382D01*
X017543833Y-02465382D02*
X017550556Y-02431278D01*
X017550556Y-02431278D02*
X017554293Y-02384926D01*
X017554293Y-02384926D02*
X017554708Y-02324595D01*
X017777452Y-02878000D02*
X017777452Y-03130862D01*
X017686527Y-03480663D02*
X017411194Y-03480663D01*
X017411194Y-03480663D02*
X017403818Y-03561393D01*
X017403818Y-03561393D02*
X017406284Y-03618056D01*
X017406284Y-03618056D02*
X017413861Y-03652238D01*
X017413861Y-03652238D02*
X017420038Y-03666610D01*
X017420038Y-03666610D02*
X017428078Y-03678440D01*
X017428078Y-03678440D02*
X017438183Y-03687179D01*
X017438183Y-03687179D02*
X017465586Y-03694884D01*
X017465586Y-03694884D02*
X017489887Y-03694161D01*
X017489887Y-03694161D02*
X017507483Y-03686274D01*
X017507483Y-03686274D02*
X017519538Y-03672119D01*
X017519538Y-03672119D02*
X017527216Y-03652591D01*
X017527216Y-03652591D02*
X017533070Y-03615182D01*
X017533070Y-03615182D02*
X017537643Y-03486014D01*
X017549269Y-03593283D02*
X017688567Y-03704199D01*
D22*
X017688567Y-07866634D02*
X017409192Y-07866634D01*
X017409192Y-07866634D02*
X017403818Y-07923957D01*
X017403818Y-07923957D02*
X017407177Y-07975236D01*
X017407177Y-07975236D02*
X017416216Y-08008580D01*
X017416216Y-08008580D02*
X017423521Y-08023489D01*
X017423521Y-08023489D02*
X017444950Y-08047268D01*
X017444950Y-08047268D02*
X017467966Y-08057834D01*
X017467966Y-08057834D02*
X017501613Y-08060228D01*
X017501613Y-08060228D02*
X017522766Y-08050752D01*
X017522766Y-08050752D02*
X017534458Y-08035964D01*
X017534458Y-08035964D02*
X017543833Y-08012382D01*
X017543833Y-08012382D02*
X017550556Y-07978277D01*
X017550556Y-07978277D02*
X017554293Y-07931926D01*
X017554293Y-07931926D02*
X017554708Y-07871595D01*
X017693710Y-08545663D02*
X017682098Y-08508341D01*
X017682098Y-08508341D02*
X017646769Y-08474224D01*
X017646769Y-08474224D02*
X017526857Y-08448994D01*
X017526857Y-08448994D02*
X017437107Y-08473026D01*
X017437107Y-08473026D02*
X017411545Y-08502511D01*
X017411545Y-08502511D02*
X017398281Y-08553562D01*
X017398281Y-08553562D02*
X017414202Y-08601627D01*
X017414202Y-08601627D02*
X017443301Y-08629768D01*
X017443301Y-08629768D02*
X017552623Y-08653868D01*
X017552623Y-08653868D02*
X017621642Y-08641874D01*
X017621642Y-08641874D02*
X017661530Y-08620500D01*
X017661530Y-08620500D02*
X017688701Y-08582535D01*
X017688701Y-08582535D02*
X017693710Y-08545663D01*
X017403818Y-09013000D02*
X017684958Y-09046516D01*
X017684958Y-09046516D02*
X017488611Y-09132783D01*
X017488611Y-09132783D02*
X017688567Y-09225207D01*
X017688567Y-09225207D02*
X017403818Y-09265862D01*
X017403818Y-09634633D02*
X017688567Y-09634633D01*
X017403818Y-09634633D02*
X017403818Y-09820229D01*
X017546192Y-09634633D02*
X017546192Y-09764550D01*
X017688567Y-09634633D02*
X017688567Y-09820229D01*
X017686527Y-10203663D02*
X017411194Y-10203663D01*
X017411194Y-10203663D02*
X017403818Y-10284393D01*
X017403818Y-10284393D02*
X017406284Y-10341056D01*
X017406284Y-10341056D02*
X017413861Y-10375238D01*
X017413861Y-10375238D02*
X017420038Y-10389610D01*
X017420038Y-10389610D02*
X017428078Y-10401440D01*
X017428078Y-10401440D02*
X017438183Y-10410179D01*
X017438183Y-10410179D02*
X017465586Y-10417884D01*
X017465586Y-10417884D02*
X017489887Y-10417161D01*
X017489887Y-10417161D02*
X017507483Y-10409274D01*
X017507483Y-10409274D02*
X017519538Y-10395119D01*
X017519538Y-10395119D02*
X017527216Y-10375591D01*
X017527216Y-10375591D02*
X017533070Y-10338182D01*
X017533070Y-10338182D02*
X017537643Y-10209014D01*
X017549269Y-10316283D02*
X017688567Y-10427199D01*
X017443020Y-11357876D02*
X017402340Y-11326197D01*
X017402340Y-11326197D02*
X017398281Y-11251109D01*
X017398281Y-11251109D02*
X017427577Y-11209022D01*
X017427577Y-11209022D02*
X017481326Y-11191839D01*
X017481326Y-11191839D02*
X017507865Y-11198956D01*
X017507865Y-11198956D02*
X017530789Y-11225583D01*
X017530789Y-11225583D02*
X017549274Y-11331098D01*
X017549274Y-11331098D02*
X017571124Y-11366594D01*
X017571124Y-11366594D02*
X017608916Y-11379766D01*
X017608916Y-11379766D02*
X017668023Y-11362415D01*
X017668023Y-11362415D02*
X017693710Y-11309421D01*
X017693710Y-11309421D02*
X017691798Y-11241283D01*
X017691798Y-11241283D02*
X017670956Y-11204019D01*
X017670956Y-11204019D02*
X017621940Y-11183096D01*
X017403818Y-11743000D02*
X017684958Y-11776516D01*
X017684958Y-11776516D02*
X017488611Y-11862783D01*
X017488611Y-11862783D02*
X017688567Y-11955207D01*
X017688567Y-11955207D02*
X017403818Y-11995862D01*
D22*
X003729421Y-14161549D02*
X003661717Y-14103818D01*
X003661717Y-14103818D02*
X003661717Y-14388566D01*
X003031124Y-14143020D02*
X003062803Y-14102340D01*
X003062803Y-14102340D02*
X003137891Y-14098281D01*
X003137891Y-14098281D02*
X003179978Y-14127577D01*
X003179978Y-14127577D02*
X003197161Y-14181326D01*
X003197161Y-14181326D02*
X003190044Y-14207865D01*
X003190044Y-14207865D02*
X003163417Y-14230789D01*
X003163417Y-14230789D02*
X003057902Y-14249274D01*
X003057902Y-14249274D02*
X003022406Y-14271124D01*
X003022406Y-14271124D02*
X003009234Y-14308916D01*
X003009234Y-14308916D02*
X003026585Y-14368023D01*
X003026585Y-14368023D02*
X003079579Y-14393710D01*
X003079579Y-14393710D02*
X003147717Y-14391798D01*
X003147717Y-14391798D02*
X003184981Y-14370956D01*
X003184981Y-14370956D02*
X003205904Y-14321940D01*
X002236315Y-14103818D02*
X002236315Y-14388567D01*
X002236315Y-14388567D02*
X002046823Y-14388567D01*
X001553569Y-14103818D02*
X001553569Y-14388567D01*
X001062366Y-14388567D02*
X001062366Y-14109192D01*
X001062366Y-14109192D02*
X001005043Y-14103818D01*
X001005043Y-14103818D02*
X000953764Y-14107177D01*
X000953764Y-14107177D02*
X000920420Y-14116216D01*
X000920420Y-14116216D02*
X000905511Y-14123521D01*
X000905511Y-14123521D02*
X000881732Y-14144950D01*
X000881732Y-14144950D02*
X000871166Y-14167966D01*
X000871166Y-14167966D02*
X000868772Y-14201613D01*
X000868772Y-14201613D02*
X000878248Y-14222766D01*
X000878248Y-14222766D02*
X000893036Y-14234458D01*
X000893036Y-14234458D02*
X000916618Y-14243833D01*
X000916618Y-14243833D02*
X000950723Y-14250556D01*
X000950723Y-14250556D02*
X000997074Y-14254293D01*
X000997074Y-14254293D02*
X001057405Y-14254708D01*
X000383337Y-14393710D02*
X000420659Y-14382098D01*
X000420659Y-14382098D02*
X000454776Y-14346769D01*
X000454776Y-14346769D02*
X000480006Y-14226857D01*
X000480006Y-14226857D02*
X000455974Y-14137107D01*
X000455974Y-14137107D02*
X000426489Y-14111545D01*
X000426489Y-14111545D02*
X000375438Y-14098281D01*
X000375438Y-14098281D02*
X000327373Y-14114202D01*
X000327373Y-14114202D02*
X000299232Y-14143301D01*
X000299232Y-14143301D02*
X000275132Y-14252623D01*
X000275132Y-14252623D02*
X000287126Y-14321642D01*
X000287126Y-14321642D02*
X000308500Y-14361530D01*
X000308500Y-14361530D02*
X000346465Y-14388701D01*
X000346465Y-14388701D02*
X000383337Y-14393710D01*
X-00635497Y-14091309D02*
X-00618382Y-14109057D01*
X-00618382Y-14109057D02*
X-00601267Y-14130357D01*
X-00601267Y-14130357D02*
X-00584152Y-14155207D01*
X-00584152Y-14155207D02*
X-00567038Y-14183605D01*
X-00567038Y-14183605D02*
X-00554202Y-14212005D01*
X-00554202Y-14212005D02*
X-00545644Y-14240404D01*
X-00545644Y-14240404D02*
X-00541366Y-14265253D01*
X-00541366Y-14265253D02*
X-00545644Y-14290102D01*
X-00545644Y-14290102D02*
X-00554202Y-14318501D01*
X-00554202Y-14318501D02*
X-00567038Y-14346901D01*
X-00567038Y-14346901D02*
X-00584152Y-14375300D01*
X-00584152Y-14375300D02*
X-00601267Y-14400148D01*
X-00601267Y-14400148D02*
X-00618382Y-14421448D01*
X-00618382Y-14421448D02*
X-00635497Y-14439186D01*
X-01084275Y-14134931D02*
X-01100045Y-14122566D01*
X-01100045Y-14122566D02*
X-01125178Y-14109318D01*
X-01125178Y-14109318D02*
X-01157211Y-14098281D01*
X-01157211Y-14098281D02*
X-01196636Y-14100486D01*
X-01196636Y-14100486D02*
X-01231133Y-14111526D01*
X-01231133Y-14111526D02*
X-01255775Y-14131398D01*
X-01255775Y-14131398D02*
X-01270559Y-14155686D01*
X-01270559Y-14155686D02*
X-01265631Y-14182182D01*
X-01265631Y-14182182D02*
X-01245918Y-14202055D01*
X-01245918Y-14202055D02*
X-01211420Y-14217511D01*
X-01211420Y-14217511D02*
X-01171995Y-14226342D01*
X-01171995Y-14226342D02*
X-01137499Y-14230759D01*
X-01137499Y-14230759D02*
X-01171995Y-14235175D01*
X-01171995Y-14235175D02*
X-01211420Y-14246215D01*
X-01211420Y-14246215D02*
X-01245918Y-14263879D01*
X-01245918Y-14263879D02*
X-01268095Y-14288167D01*
X-01268095Y-14288167D02*
X-01273023Y-14314663D01*
X-01273023Y-14314663D02*
X-01263167Y-14343367D01*
X-01263167Y-14343367D02*
X-01240990Y-14367655D01*
X-01240990Y-14367655D02*
X-01206492Y-14387527D01*
X-01206492Y-14387527D02*
X-01180373Y-14393710D01*
X-01180373Y-14393710D02*
X-01137991Y-14392827D01*
X-01137991Y-14392827D02*
X-01103494Y-14387527D01*
X-01103494Y-14387527D02*
X-01079839Y-14380462D01*
X-01790271Y-14347451D02*
X-01738591Y-14347451D01*
X-02256044Y-14103818D02*
X-02448818Y-14103818D01*
X-02448818Y-14103818D02*
X-02434293Y-14112515D01*
X-02434293Y-14112515D02*
X-02426656Y-14118271D01*
X-02426656Y-14118271D02*
X-02408778Y-14135367D01*
X-02408778Y-14135367D02*
X-02399068Y-14147137D01*
X-02399068Y-14147137D02*
X-02389197Y-14161343D01*
X-02389197Y-14161343D02*
X-02379432Y-14178201D01*
X-02379432Y-14178201D02*
X-02370036Y-14197926D01*
X-02370036Y-14197926D02*
X-02361274Y-14220734D01*
X-02361274Y-14220734D02*
X-02353413Y-14246840D01*
X-02353413Y-14246840D02*
X-02346715Y-14276461D01*
X-02346715Y-14276461D02*
X-02339432Y-14327953D01*
X-02339432Y-14327953D02*
X-02336263Y-14388567D01*
X-02825689Y-14103818D02*
X-02948435Y-14388567D01*
X-02948435Y-14388567D02*
X-03055172Y-14103818D01*
X-03481366Y-14091309D02*
X-03498481Y-14109057D01*
X-03498481Y-14109057D02*
X-03515596Y-14130357D01*
X-03515596Y-14130357D02*
X-03532709Y-14155207D01*
X-03532709Y-14155207D02*
X-03549825Y-14183605D01*
X-03549825Y-14183605D02*
X-03562661Y-14212005D01*
X-03562661Y-14212005D02*
X-03571218Y-14240404D01*
X-03571218Y-14240404D02*
X-03575497Y-14265253D01*
X-03575497Y-14265253D02*
X-03571218Y-14290102D01*
X-03571218Y-14290102D02*
X-03562661Y-14318501D01*
X-03562661Y-14318501D02*
X-03549825Y-14346901D01*
X-03549825Y-14346901D02*
X-03532709Y-14375300D01*
X-03532709Y-14375300D02*
X-03515596Y-14400148D01*
X-03515596Y-14400148D02*
X-03498481Y-14421448D01*
X-03498481Y-14421448D02*
X-03481366Y-14439186D01*
D22*
X-05178842Y-11788567D02*
X-05178842Y-11503818D01*
X-05178842Y-11503818D02*
X-05287431Y-11689247D01*
X-05287431Y-11689247D02*
X-05396020Y-11503818D01*
X-05396020Y-11503818D02*
X-05396020Y-11788567D01*
X-05756588Y-11788567D02*
X-05870875Y-11503818D01*
X-05870875Y-11503818D02*
X-05994274Y-11788567D01*
X-05814227Y-11677499D02*
X-05931090Y-11677499D01*
X-06340794Y-11503818D02*
X-06583458Y-11788567D01*
X-06586068Y-11503818D02*
X-06343403Y-11788567D01*
X-07100767Y-11503818D02*
X-06945508Y-11694164D01*
X-06945508Y-11694164D02*
X-07157354Y-11694164D01*
X-07098956Y-11632830D02*
X-07098956Y-11788567D01*
X-07688767Y-11503818D02*
X-07533508Y-11694164D01*
X-07533508Y-11694164D02*
X-07745354Y-11694164D01*
X-07686956Y-11632830D02*
X-07686956Y-11788567D01*
X-08280991Y-11498281D02*
X-08244402Y-11509722D01*
X-08244402Y-11509722D02*
X-08210507Y-11521082D01*
X-08210507Y-11521082D02*
X-08181719Y-11541276D01*
X-08181719Y-11541276D02*
X-08159339Y-11562607D01*
X-08159339Y-11562607D02*
X-08142252Y-11600177D01*
X-08142252Y-11600177D02*
X-08130505Y-11635392D01*
X-08130505Y-11635392D02*
X-08129251Y-11671701D01*
X-08129251Y-11671701D02*
X-08128369Y-11707882D01*
X-08128369Y-11707882D02*
X-08137608Y-11734809D01*
X-08137608Y-11734809D02*
X-08146431Y-11751638D01*
X-08146431Y-11751638D02*
X-08167325Y-11773515D01*
X-08167325Y-11773515D02*
X-08189612Y-11788241D01*
X-08189612Y-11788241D02*
X-08223972Y-11793710D01*
X-08223972Y-11793710D02*
X-08262510Y-11791607D01*
X-08262510Y-11791607D02*
X-08292692Y-11778143D01*
X-08292692Y-11778143D02*
X-08314050Y-11760052D01*
X-08314050Y-11760052D02*
X-08325658Y-11735230D01*
X-08325658Y-11735230D02*
X-08326587Y-11714193D01*
X-08326587Y-11714193D02*
X-08320086Y-11691895D01*
X-08320086Y-11691895D02*
X-08310336Y-11672962D01*
X-08310336Y-11672962D02*
X-08295478Y-11657396D01*
X-08295478Y-11657396D02*
X-08275047Y-11647719D01*
X-08275047Y-11647719D02*
X-08246723Y-11641408D01*
X-08246723Y-11641408D02*
X-08219793Y-11640147D01*
X-08219793Y-11640147D02*
X-08191469Y-11644354D01*
X-08191469Y-11644354D02*
X-08162218Y-11659499D01*
X-08162218Y-11659499D02*
X-08146895Y-11675066D01*
X-08146895Y-11675066D02*
X-08128276Y-11694083D01*
X-08868991Y-11498281D02*
X-08832402Y-11509722D01*
X-08832402Y-11509722D02*
X-08798507Y-11521082D01*
X-08798507Y-11521082D02*
X-08769719Y-11541276D01*
X-08769719Y-11541276D02*
X-08747339Y-11562607D01*
X-08747339Y-11562607D02*
X-08730252Y-11600177D01*
X-08730252Y-11600177D02*
X-08718505Y-11635392D01*
X-08718505Y-11635392D02*
X-08717251Y-11671701D01*
X-08717251Y-11671701D02*
X-08716369Y-11707882D01*
X-08716369Y-11707882D02*
X-08725608Y-11734809D01*
X-08725608Y-11734809D02*
X-08734431Y-11751638D01*
X-08734431Y-11751638D02*
X-08755325Y-11773515D01*
X-08755325Y-11773515D02*
X-08777612Y-11788241D01*
X-08777612Y-11788241D02*
X-08811972Y-11793710D01*
X-08811972Y-11793710D02*
X-08850510Y-11791607D01*
X-08850510Y-11791607D02*
X-08880692Y-11778143D01*
X-08880692Y-11778143D02*
X-08902050Y-11760052D01*
X-08902050Y-11760052D02*
X-08913658Y-11735230D01*
X-08913658Y-11735230D02*
X-08914587Y-11714193D01*
X-08914587Y-11714193D02*
X-08908086Y-11691895D01*
X-08908086Y-11691895D02*
X-08898336Y-11672962D01*
X-08898336Y-11672962D02*
X-08883478Y-11657396D01*
X-08883478Y-11657396D02*
X-08863047Y-11647719D01*
X-08863047Y-11647719D02*
X-08834723Y-11641408D01*
X-08834723Y-11641408D02*
X-08807793Y-11640147D01*
X-08807793Y-11640147D02*
X-08779469Y-11644354D01*
X-08779469Y-11644354D02*
X-08750218Y-11659499D01*
X-08750218Y-11659499D02*
X-08734895Y-11675066D01*
X-08734895Y-11675066D02*
X-08716276Y-11694083D01*
X-09828497Y-11491309D02*
X-09811382Y-11509057D01*
X-09811382Y-11509057D02*
X-09794267Y-11530357D01*
X-09794267Y-11530357D02*
X-09777152Y-11555207D01*
X-09777152Y-11555207D02*
X-09760038Y-11583605D01*
X-09760038Y-11583605D02*
X-09747202Y-11612005D01*
X-09747202Y-11612005D02*
X-09738644Y-11640404D01*
X-09738644Y-11640404D02*
X-09734366Y-11665253D01*
X-09734366Y-11665253D02*
X-09738644Y-11690102D01*
X-09738644Y-11690102D02*
X-09747202Y-11718501D01*
X-09747202Y-11718501D02*
X-09760038Y-11746901D01*
X-09760038Y-11746901D02*
X-09777152Y-11775300D01*
X-09777152Y-11775300D02*
X-09794267Y-11800148D01*
X-09794267Y-11800148D02*
X-09811382Y-11821448D01*
X-09811382Y-11821448D02*
X-09828497Y-11839186D01*
X-10452174Y-11509676D02*
X-10400341Y-11498281D01*
X-10400341Y-11498281D02*
X-10345572Y-11502832D01*
X-10345572Y-11502832D02*
X-10310442Y-11521039D01*
X-10310442Y-11521039D02*
X-10282714Y-11557209D01*
X-10282714Y-11557209D02*
X-10266687Y-11635297D01*
X-10266687Y-11635297D02*
X-10275236Y-11719923D01*
X-10275236Y-11719923D02*
X-10293763Y-11750443D01*
X-10293763Y-11750443D02*
X-10322358Y-11775028D01*
X-10322358Y-11775028D02*
X-10356823Y-11790508D01*
X-10356823Y-11790508D02*
X-10392969Y-11793710D01*
X-10392969Y-11793710D02*
X-10426603Y-11781460D01*
X-10426603Y-11781460D02*
X-10453530Y-11750586D01*
X-10453530Y-11750586D02*
X-10472176Y-11662417D01*
X-10472176Y-11662417D02*
X-10381430Y-11662215D01*
X-10957430Y-11498281D02*
X-10917769Y-11509022D01*
X-10917769Y-11509022D02*
X-10882258Y-11541749D01*
X-10882258Y-11541749D02*
X-10862888Y-11589265D01*
X-10862888Y-11589265D02*
X-10858276Y-11659733D01*
X-10858276Y-11659733D02*
X-10869344Y-11718814D01*
X-10869344Y-11718814D02*
X-10897938Y-11767774D01*
X-10897938Y-11767774D02*
X-10938984Y-11793710D01*
X-10938984Y-11793710D02*
X-10975878Y-11793710D01*
X-10975878Y-11793710D02*
X-11016925Y-11767774D01*
X-11016925Y-11767774D02*
X-11045518Y-11718814D01*
X-11045518Y-11718814D02*
X-11056587Y-11659733D01*
X-11056587Y-11659733D02*
X-11051975Y-11589265D01*
X-11051975Y-11589265D02*
X-11032605Y-11541749D01*
X-11032605Y-11541749D02*
X-10997093Y-11509022D01*
X-10997093Y-11509022D02*
X-10957430Y-11498281D01*
X-11498366Y-11491309D02*
X-11515481Y-11509057D01*
X-11515481Y-11509057D02*
X-11532596Y-11530357D01*
X-11532596Y-11530357D02*
X-11549709Y-11555207D01*
X-11549709Y-11555207D02*
X-11566825Y-11583605D01*
X-11566825Y-11583605D02*
X-11579661Y-11612005D01*
X-11579661Y-11612005D02*
X-11588218Y-11640404D01*
X-11588218Y-11640404D02*
X-11592497Y-11665253D01*
X-11592497Y-11665253D02*
X-11588218Y-11690102D01*
X-11588218Y-11690102D02*
X-11579661Y-11718501D01*
X-11579661Y-11718501D02*
X-11566825Y-11746901D01*
X-11566825Y-11746901D02*
X-11549709Y-11775300D01*
X-11549709Y-11775300D02*
X-11532596Y-11800148D01*
X-11532596Y-11800148D02*
X-11515481Y-11821448D01*
X-11515481Y-11821448D02*
X-11498366Y-11839186D01*
D22*
X010506569Y-08703818D02*
X010506569Y-08988567D01*
X010016494Y-08988567D02*
X010016494Y-08703818D01*
X010016494Y-08703818D02*
X009820644Y-08988567D01*
X009820644Y-08988567D02*
X009824487Y-08703818D01*
X009439158Y-08988567D02*
X009439158Y-08703818D01*
X009439158Y-08703818D02*
X009330569Y-08889247D01*
X009330569Y-08889247D02*
X009221980Y-08703818D01*
X009221980Y-08703818D02*
X009221980Y-08988567D01*
X008839366Y-08988567D02*
X008839366Y-08709192D01*
X008839366Y-08709192D02*
X008782043Y-08703818D01*
X008782043Y-08703818D02*
X008730764Y-08707177D01*
X008730764Y-08707177D02*
X008697419Y-08716216D01*
X008697419Y-08716216D02*
X008682511Y-08723521D01*
X008682511Y-08723521D02*
X008658732Y-08744950D01*
X008658732Y-08744950D02*
X008648166Y-08767966D01*
X008648166Y-08767966D02*
X008645772Y-08801613D01*
X008645772Y-08801613D02*
X008655248Y-08822766D01*
X008655248Y-08822766D02*
X008670036Y-08834458D01*
X008670036Y-08834458D02*
X008693618Y-08843833D01*
X008693618Y-08843833D02*
X008727722Y-08850556D01*
X008727722Y-08850556D02*
X008774074Y-08854293D01*
X008774074Y-08854293D02*
X008834405Y-08854708D01*
X008105233Y-08703818D02*
X008260492Y-08894164D01*
X008260492Y-08894164D02*
X008048646Y-08894164D01*
X008107044Y-08832830D02*
X008107044Y-08988567D01*
X007517233Y-08703818D02*
X007672492Y-08894164D01*
X007672492Y-08894164D02*
X007460646Y-08894164D01*
X007519044Y-08832830D02*
X007519044Y-08988567D01*
X007012421Y-08761549D02*
X006944717Y-08703818D01*
X006944717Y-08703818D02*
X006944717Y-08988566D01*
X005965503Y-08691309D02*
X005982618Y-08709057D01*
X005982618Y-08709057D02*
X005999733Y-08730357D01*
X005999733Y-08730357D02*
X006016848Y-08755207D01*
X006016848Y-08755207D02*
X006033962Y-08783605D01*
X006033962Y-08783605D02*
X006046798Y-08812005D01*
X006046798Y-08812005D02*
X006055356Y-08840404D01*
X006055356Y-08840404D02*
X006059634Y-08865253D01*
X006059634Y-08865253D02*
X006055356Y-08890102D01*
X006055356Y-08890102D02*
X006046798Y-08918501D01*
X006046798Y-08918501D02*
X006033962Y-08946901D01*
X006033962Y-08946901D02*
X006016848Y-08975300D01*
X006016848Y-08975300D02*
X005999733Y-09000148D01*
X005999733Y-09000148D02*
X005982618Y-09021448D01*
X005982618Y-09021448D02*
X005965503Y-09039186D01*
X005424569Y-08703818D02*
X005424569Y-08988567D01*
X004916628Y-08754690D02*
X004910239Y-08733763D01*
X004910239Y-08733763D02*
X004891360Y-08714246D01*
X004891360Y-08714246D02*
X004860420Y-08701010D01*
X004860420Y-08701010D02*
X004840562Y-08698281D01*
X004840562Y-08698281D02*
X004806206Y-08700796D01*
X004806206Y-08700796D02*
X004780433Y-08712096D01*
X004780433Y-08712096D02*
X004766340Y-08729426D01*
X004766340Y-08729426D02*
X004761277Y-08749563D01*
X004761277Y-08749563D02*
X004761613Y-08762959D01*
X004761613Y-08762959D02*
X004767663Y-08785381D01*
X004767663Y-08785381D02*
X004793920Y-08828975D01*
X004793920Y-08828975D02*
X004860044Y-08911904D01*
X004860044Y-08911904D02*
X004929572Y-08988179D01*
X004929572Y-08988179D02*
X004743566Y-08988179D01*
X004172124Y-08743020D02*
X004203803Y-08702340D01*
X004203803Y-08702340D02*
X004278891Y-08698281D01*
X004278891Y-08698281D02*
X004320978Y-08727577D01*
X004320978Y-08727577D02*
X004338161Y-08781326D01*
X004338161Y-08781326D02*
X004331044Y-08807865D01*
X004331044Y-08807865D02*
X004304417Y-08830789D01*
X004304417Y-08830789D02*
X004198902Y-08849274D01*
X004198902Y-08849274D02*
X004163406Y-08871124D01*
X004163406Y-08871124D02*
X004150234Y-08908916D01*
X004150234Y-08908916D02*
X004167585Y-08968023D01*
X004167585Y-08968023D02*
X004220579Y-08993710D01*
X004220579Y-08993710D02*
X004288717Y-08991798D01*
X004288717Y-08991798D02*
X004325981Y-08970956D01*
X004325981Y-08970956D02*
X004346904Y-08921940D01*
X003707634Y-08691309D02*
X003690519Y-08709057D01*
X003690519Y-08709057D02*
X003673404Y-08730357D01*
X003673404Y-08730357D02*
X003656291Y-08755207D01*
X003656291Y-08755207D02*
X003639175Y-08783605D01*
X003639175Y-08783605D02*
X003626339Y-08812005D01*
X003626339Y-08812005D02*
X003617782Y-08840404D01*
X003617782Y-08840404D02*
X003613503Y-08865253D01*
X003613503Y-08865253D02*
X003617782Y-08890102D01*
X003617782Y-08890102D02*
X003626339Y-08918501D01*
X003626339Y-08918501D02*
X003639175Y-08946901D01*
X003639175Y-08946901D02*
X003656291Y-08975300D01*
X003656291Y-08975300D02*
X003673404Y-09000148D01*
X003673404Y-09000148D02*
X003690519Y-09021448D01*
X003690519Y-09021448D02*
X003707634Y-09039186D01*
D26*
X014857697Y011764291D02*
X014857697Y012120227D01*
X014857697Y012120227D02*
X014721961Y011888442D01*
X014721961Y011888442D02*
X014586225Y012120227D01*
X014586225Y012120227D02*
X014586225Y011764291D01*
X014107958Y011764291D02*
X014107958Y012113510D01*
X014107958Y012113510D02*
X014036304Y012120227D01*
X014036304Y012120227D02*
X013972205Y012116029D01*
X013972205Y012116029D02*
X013930524Y012104730D01*
X013930524Y012104730D02*
X013911888Y012095598D01*
X013911888Y012095598D02*
X013882166Y012068812D01*
X013882166Y012068812D02*
X013868957Y012040043D01*
X013868957Y012040043D02*
X013865965Y011997984D01*
X013865965Y011997984D02*
X013877810Y011971542D01*
X013877810Y011971542D02*
X013896295Y011956927D01*
X013896295Y011956927D02*
X013925772Y011945208D01*
X013925772Y011945208D02*
X013968403Y011936805D01*
X013968403Y011936805D02*
X014026343Y011932134D01*
X014026343Y011932134D02*
X014101757Y011931615D01*
X013372188Y012120227D02*
X013371633Y011921841D01*
X013371633Y011921841D02*
X013367805Y011867873D01*
X013367805Y011867873D02*
X013358012Y011827898D01*
X013358012Y011827898D02*
X013339237Y011797492D01*
X013339237Y011797492D02*
X013314675Y011777388D01*
X013314675Y011777388D02*
X013277981Y011762868D01*
X013277981Y011762868D02*
X013231681Y011757377D01*
X013231681Y011757377D02*
X013199185Y011762874D01*
X013199185Y011762874D02*
X013172532Y011777355D01*
X013172532Y011777355D02*
X013156582Y011794320D01*
X013156582Y011794320D02*
X013149734Y011805472D01*
X013149734Y011805472D02*
X013139258Y011833906D01*
X013139258Y011833906D02*
X013134368Y011871571D01*
X013134368Y011871571D02*
X013131734Y012119691D01*
X012583740Y011902332D02*
X012450182Y011902332D01*
X011715012Y012127148D02*
X011760748Y012112847D01*
X011760748Y012112847D02*
X011803117Y012098648D01*
X011803117Y012098648D02*
X011839101Y012073404D01*
X011839101Y012073404D02*
X011867076Y012046741D01*
X011867076Y012046741D02*
X011888435Y011999778D01*
X011888435Y011999778D02*
X011903119Y011955760D01*
X011903119Y011955760D02*
X011904686Y011910374D01*
X011904686Y011910374D02*
X011905789Y011865147D01*
X011905789Y011865147D02*
X011894239Y011831489D01*
X011894239Y011831489D02*
X011883212Y011810453D01*
X011883212Y011810453D02*
X011857094Y011783106D01*
X011857094Y011783106D02*
X011829235Y011764699D01*
X011829235Y011764699D02*
X011786285Y011757863D01*
X011786285Y011757863D02*
X011738112Y011760492D01*
X011738112Y011760492D02*
X011700385Y011777321D01*
X011700385Y011777321D02*
X011673687Y011799935D01*
X011673687Y011799935D02*
X011659177Y011830963D01*
X011659177Y011830963D02*
X011658017Y011857258D01*
X011658017Y011857258D02*
X011666142Y011885131D01*
X011666142Y011885131D02*
X011678331Y011908797D01*
X011678331Y011908797D02*
X011696903Y011928255D01*
X011696903Y011928255D02*
X011722441Y011940351D01*
X011722441Y011940351D02*
X011757846Y011948240D01*
X011757846Y011948240D02*
X011791509Y011949817D01*
X011791509Y011949817D02*
X011826913Y011944558D01*
X011826913Y011944558D02*
X011863478Y011925626D01*
X011863478Y011925626D02*
X011882631Y011906167D01*
X011882631Y011906167D02*
X011905905Y011882397D01*
X011046962Y012127148D02*
X011096539Y012113723D01*
X011096539Y012113723D02*
X011140928Y012072814D01*
X011140928Y012072814D02*
X011165140Y012013418D01*
X011165140Y012013418D02*
X011170905Y011925334D01*
X011170905Y011925334D02*
X011157070Y011851483D01*
X011157070Y011851483D02*
X011121328Y011790282D01*
X011121328Y011790282D02*
X011070020Y011757863D01*
X011070020Y011757863D02*
X011023902Y011757863D01*
X011023902Y011757863D02*
X010972594Y011790282D01*
X010972594Y011790282D02*
X010936853Y011851483D01*
X010936853Y011851483D02*
X010923017Y011925334D01*
X010923017Y011925334D02*
X010928781Y012013418D01*
X010928781Y012013418D02*
X010952994Y012072814D01*
X010952994Y012072814D02*
X010997383Y012113723D01*
X010997383Y012113723D02*
X011046962Y012127148D01*
X010430651Y012120227D02*
X010430651Y011939782D01*
X010430651Y011939782D02*
X010329481Y011963513D01*
X010329481Y011963513D02*
X010257245Y011954586D01*
X010257245Y011954586D02*
X010228499Y011938476D01*
X010228499Y011938476D02*
X010208535Y011915616D01*
X010208535Y011915616D02*
X010193272Y011853314D01*
X010193272Y011853314D02*
X010200490Y011820949D01*
X010200490Y011820949D02*
X010219431Y011795477D01*
X010219431Y011795477D02*
X010256652Y011771819D01*
X010256652Y011771819D02*
X010299666Y011759373D01*
X010299666Y011759373D02*
X010340116Y011757377D01*
X010340116Y011757377D02*
X010374179Y011763872D01*
X010374179Y011763872D02*
X010401714Y011776608D01*
X010401714Y011776608D02*
X010430651Y011802806D01*
X010430651Y012120227D02*
X010193272Y012120227D01*
X009576962Y012127148D02*
X009626539Y012113723D01*
X009626539Y012113723D02*
X009670928Y012072814D01*
X009670928Y012072814D02*
X009695140Y012013418D01*
X009695140Y012013418D02*
X009700905Y011925334D01*
X009700905Y011925334D02*
X009687070Y011851483D01*
X009687070Y011851483D02*
X009651328Y011790282D01*
X009651328Y011790282D02*
X009600020Y011757863D01*
X009600020Y011757863D02*
X009553902Y011757863D01*
X009553902Y011757863D02*
X009502594Y011790282D01*
X009502594Y011790282D02*
X009466853Y011851483D01*
X009466853Y011851483D02*
X009453017Y011925334D01*
X009453017Y011925334D02*
X009458781Y012013418D01*
X009458781Y012013418D02*
X009482994Y012072814D01*
X009482994Y012072814D02*
X009527384Y012113723D01*
X009527384Y012113723D02*
X009576962Y012127148D01*
X008494687Y011718994D02*
X008244236Y012120227D01*
X007058532Y012112905D02*
X007123324Y012127148D01*
X007123324Y012127148D02*
X007191785Y012121460D01*
X007191785Y012121460D02*
X007235697Y012098702D01*
X007235697Y012098702D02*
X007270358Y012053489D01*
X007270358Y012053489D02*
X007290392Y011955879D01*
X007290392Y011955879D02*
X007279705Y011850096D01*
X007279705Y011850096D02*
X007256546Y011811947D01*
X007256546Y011811947D02*
X007220803Y011781215D01*
X007220803Y011781215D02*
X007177721Y011761865D01*
X007177721Y011761865D02*
X007132539Y011757863D01*
X007132539Y011757863D02*
X007090496Y011773175D01*
X007090496Y011773175D02*
X007056837Y011811767D01*
X007056837Y011811767D02*
X007033531Y011921979D01*
X007033531Y011921979D02*
X007146963Y011922231D01*
X006575515Y012120227D02*
X006431106Y011961079D01*
X006278407Y012119722D02*
X006430149Y011960069D01*
X006430149Y011960069D02*
X006424730Y011764291D01*
X005758740Y011902332D02*
X005625182Y011902332D01*
X005075651Y012120227D02*
X005075651Y011939782D01*
X005075651Y011939782D02*
X004974481Y011963513D01*
X004974481Y011963513D02*
X004902245Y011954586D01*
X004902245Y011954586D02*
X004873499Y011938476D01*
X004873499Y011938476D02*
X004853535Y011915616D01*
X004853535Y011915616D02*
X004838272Y011853314D01*
X004838272Y011853314D02*
X004845490Y011820949D01*
X004845490Y011820949D02*
X004864431Y011795477D01*
X004864431Y011795477D02*
X004901652Y011771819D01*
X004901652Y011771819D02*
X004944666Y011759373D01*
X004944666Y011759373D02*
X004985116Y011757377D01*
X004985116Y011757377D02*
X005019179Y011763872D01*
X005019179Y011763872D02*
X005046714Y011776608D01*
X005046714Y011776608D02*
X005075651Y011802806D01*
X005075651Y012120227D02*
X004838272Y012120227D01*
X004322035Y012056637D02*
X004314049Y012082796D01*
X004314049Y012082796D02*
X004290450Y012107193D01*
X004290450Y012107193D02*
X004251776Y012123737D01*
X004251776Y012123737D02*
X004226953Y012127148D01*
X004226953Y012127148D02*
X004184008Y012124006D01*
X004184008Y012124006D02*
X004151791Y012109880D01*
X004151791Y012109880D02*
X004134175Y012088218D01*
X004134175Y012088218D02*
X004127847Y012063046D01*
X004127847Y012063046D02*
X004128267Y012046302D01*
X004128267Y012046302D02*
X004135829Y012018274D01*
X004135829Y012018274D02*
X004168650Y011963781D01*
X004168650Y011963781D02*
X004251305Y011860120D01*
X004251305Y011860120D02*
X004338215Y011764776D01*
X004338215Y011764776D02*
X004105707Y011764776D01*
X003529276Y012048064D02*
X003444646Y012120227D01*
X003444646Y012120227D02*
X003444646Y011764293D01*
D22*
X011388311Y010486182D02*
X011265565Y010201433D01*
X011265565Y010201433D02*
X011158828Y010486182D01*
X010589797Y010423664D02*
X010602662Y010455018D01*
X010602662Y010455018D02*
X010626260Y010477217D01*
X010626260Y010477217D02*
X010670951Y010491719D01*
X010670951Y010491719D02*
X010703976Y010487290D01*
X010703976Y010487290D02*
X010733079Y010472426D01*
X010733079Y010472426D02*
X010761498Y010438119D01*
X010761498Y010438119D02*
X010781341Y010348066D01*
X010781341Y010348066D02*
X010765769Y010257538D01*
X010765769Y010257538D02*
X010742540Y010221083D01*
X010742540Y010221083D02*
X010718389Y010204024D01*
X010718389Y010204024D02*
X010671340Y010196290D01*
X010671340Y010196290D02*
X010630337Y010206175D01*
X010630337Y010206175D02*
X010599977Y010235020D01*
X010599977Y010235020D02*
X010589797Y010275733D01*
X010001797Y010423664D02*
X010014662Y010455018D01*
X010014662Y010455018D02*
X010038260Y010477217D01*
X010038260Y010477217D02*
X010082951Y010491719D01*
X010082951Y010491719D02*
X010115976Y010487290D01*
X010115976Y010487290D02*
X010145079Y010472426D01*
X010145079Y010472426D02*
X010173498Y010438119D01*
X010173498Y010438119D02*
X010193341Y010348066D01*
X010193341Y010348066D02*
X010177769Y010257538D01*
X010177769Y010257538D02*
X010154540Y010221083D01*
X010154540Y010221083D02*
X010130389Y010204024D01*
X010130389Y010204024D02*
X010083340Y010196290D01*
X010083340Y010196290D02*
X010042337Y010206175D01*
X010042337Y010206175D02*
X010011977Y010235020D01*
X010011977Y010235020D02*
X010001797Y010275733D01*
D22*
X011190826Y007940324D02*
X011242659Y007951719D01*
X011242659Y007951719D02*
X011297428Y007947168D01*
X011297428Y007947168D02*
X011332558Y007928961D01*
X011332558Y007928961D02*
X011360286Y007892791D01*
X011360286Y007892791D02*
X011376313Y007814703D01*
X011376313Y007814703D02*
X011367764Y007730077D01*
X011367764Y007730077D02*
X011349237Y007699557D01*
X011349237Y007699557D02*
X011320642Y007674972D01*
X011320642Y007674972D02*
X011286177Y007659492D01*
X011286177Y007659492D02*
X011250031Y007656290D01*
X011250031Y007656290D02*
X011216397Y007668540D01*
X011216397Y007668540D02*
X011189470Y007699414D01*
X011189470Y007699414D02*
X011170824Y007787583D01*
X011170824Y007787583D02*
X011261570Y007787785D01*
X010783494Y007661433D02*
X010783494Y007946182D01*
X010783494Y007946182D02*
X010587644Y007661433D01*
X010587644Y007661433D02*
X010591487Y007946182D01*
X010196929Y007661433D02*
X010193828Y007940267D01*
X010193828Y007940267D02*
X010152089Y007946182D01*
X010152089Y007946182D02*
X010120114Y007945494D01*
X010120114Y007945494D02*
X010068176Y007931447D01*
X010068176Y007931447D02*
X010029766Y007901112D01*
X010029766Y007901112D02*
X010007806Y007860267D01*
X010007806Y007860267D02*
X009999052Y007817915D01*
X009999052Y007817915D02*
X009998208Y007786029D01*
X009998208Y007786029D02*
X010002213Y007758700D01*
X010002213Y007758700D02*
X010010404Y007735584D01*
X010010404Y007735584D02*
X010036702Y007700608D01*
X010036702Y007700608D02*
X010071810Y007678342D01*
X010071810Y007678342D02*
X010129415Y007662738D01*
X010129415Y007662738D02*
X010196929Y007661433D01*
D22*
X011197124Y005366980D02*
X011228803Y005407660D01*
X011228803Y005407660D02*
X011303891Y005411719D01*
X011303891Y005411719D02*
X011345978Y005382423D01*
X011345978Y005382423D02*
X011363161Y005328674D01*
X011363161Y005328674D02*
X011356044Y005302135D01*
X011356044Y005302135D02*
X011329417Y005279211D01*
X011329417Y005279211D02*
X011223902Y005260726D01*
X011223902Y005260726D02*
X011188406Y005238876D01*
X011188406Y005238876D02*
X011175234Y005201084D01*
X011175234Y005201084D02*
X011192585Y005141977D01*
X011192585Y005141977D02*
X011245579Y005116290D01*
X011245579Y005116290D02*
X011313717Y005118202D01*
X011313717Y005118202D02*
X011350981Y005139044D01*
X011350981Y005139044D02*
X011371904Y005188060D01*
X010589797Y005343664D02*
X010602662Y005375018D01*
X010602662Y005375018D02*
X010626260Y005397217D01*
X010626260Y005397217D02*
X010670951Y005411719D01*
X010670951Y005411719D02*
X010703976Y005407290D01*
X010703976Y005407290D02*
X010733079Y005392426D01*
X010733079Y005392426D02*
X010761498Y005358119D01*
X010761498Y005358119D02*
X010781341Y005268066D01*
X010781341Y005268066D02*
X010765769Y005177538D01*
X010765769Y005177538D02*
X010742540Y005141083D01*
X010742540Y005141083D02*
X010718389Y005124024D01*
X010718389Y005124024D02*
X010671340Y005116290D01*
X010671340Y005116290D02*
X010630337Y005126175D01*
X010630337Y005126175D02*
X010599977Y005155020D01*
X010599977Y005155020D02*
X010589797Y005195733D01*
X010192315Y005406182D02*
X010192315Y005121433D01*
X010192315Y005121433D02*
X010002823Y005121433D01*
D22*
X011197124Y002826980D02*
X011228803Y002867660D01*
X011228803Y002867660D02*
X011303891Y002871719D01*
X011303891Y002871719D02*
X011345978Y002842423D01*
X011345978Y002842423D02*
X011363161Y002788674D01*
X011363161Y002788674D02*
X011356044Y002762135D01*
X011356044Y002762135D02*
X011329417Y002739211D01*
X011329417Y002739211D02*
X011223902Y002720726D01*
X011223902Y002720726D02*
X011188406Y002698876D01*
X011188406Y002698876D02*
X011175234Y002661084D01*
X011175234Y002661084D02*
X011192585Y002601977D01*
X011192585Y002601977D02*
X011245579Y002576290D01*
X011245579Y002576290D02*
X011313717Y002578202D01*
X011313717Y002578202D02*
X011350981Y002599044D01*
X011350981Y002599044D02*
X011371904Y002648060D01*
X010784929Y002581433D02*
X010781828Y002860267D01*
X010781828Y002860267D02*
X010740089Y002866182D01*
X010740089Y002866182D02*
X010708114Y002865494D01*
X010708114Y002865494D02*
X010656176Y002851447D01*
X010656176Y002851447D02*
X010617766Y002821112D01*
X010617766Y002821112D02*
X010595806Y002780267D01*
X010595806Y002780267D02*
X010587052Y002737915D01*
X010587052Y002737915D02*
X010586208Y002706029D01*
X010586208Y002706029D02*
X010590213Y002678700D01*
X010590213Y002678700D02*
X010598404Y002655584D01*
X010598404Y002655584D02*
X010624702Y002620608D01*
X010624702Y002620608D02*
X010659810Y002598342D01*
X010659810Y002598342D02*
X010717415Y002582738D01*
X010717415Y002582738D02*
X010784929Y002581433D01*
X010216412Y002581433D02*
X010102125Y002866182D01*
X010102125Y002866182D02*
X009978726Y002581433D01*
X010158773Y002692501D02*
X010041910Y002692501D01*
D22*
X011396206Y000326182D02*
X011153542Y000041433D01*
X011150932Y000326182D02*
X011393597Y000041433D01*
X010784929Y000041433D02*
X010781828Y000320267D01*
X010781828Y000320267D02*
X010740089Y000326182D01*
X010740089Y000326182D02*
X010708114Y000325494D01*
X010708114Y000325494D02*
X010656176Y000311447D01*
X010656176Y000311447D02*
X010617766Y000281112D01*
X010617766Y000281112D02*
X010595806Y000240267D01*
X010595806Y000240267D02*
X010587052Y000197915D01*
X010587052Y000197915D02*
X010586208Y000166029D01*
X010586208Y000166029D02*
X010590213Y000138700D01*
X010590213Y000138700D02*
X010598404Y000115584D01*
X010598404Y000115584D02*
X010624702Y000080608D01*
X010624702Y000080608D02*
X010659810Y000058342D01*
X010659810Y000058342D02*
X010717415Y000042738D01*
X010717415Y000042738D02*
X010784929Y000041433D01*
X010216412Y000041433D02*
X010102125Y000326182D01*
X010102125Y000326182D02*
X009978726Y000041433D01*
X010158773Y000152501D02*
X010041910Y000152501D01*
D22*
X011396206Y-02213818D02*
X011153542Y-02498567D01*
X011150932Y-02213818D02*
X011393597Y-02498567D01*
X010589797Y-02276336D02*
X010602662Y-02244982D01*
X010602662Y-02244982D02*
X010626260Y-02222783D01*
X010626260Y-02222783D02*
X010670951Y-02208281D01*
X010670951Y-02208281D02*
X010703976Y-02212710D01*
X010703976Y-02212710D02*
X010733079Y-02227574D01*
X010733079Y-02227574D02*
X010761498Y-02261881D01*
X010761498Y-02261881D02*
X010781341Y-02351934D01*
X010781341Y-02351934D02*
X010765769Y-02442462D01*
X010765769Y-02442462D02*
X010742540Y-02478917D01*
X010742540Y-02478917D02*
X010718389Y-02495976D01*
X010718389Y-02495976D02*
X010671340Y-02503710D01*
X010671340Y-02503710D02*
X010630337Y-02493825D01*
X010630337Y-02493825D02*
X010599977Y-02464980D01*
X010599977Y-02464980D02*
X010589797Y-02424267D01*
X010192315Y-02213818D02*
X010192315Y-02498567D01*
X010192315Y-02498567D02*
X010002823Y-02498567D01*
D22*
X011392412Y-05038567D02*
X011278125Y-04753818D01*
X011278125Y-04753818D02*
X011154726Y-05038567D01*
X011334773Y-04927499D02*
X011217910Y-04927499D01*
X010784929Y-05038567D02*
X010781828Y-04759733D01*
X010781828Y-04759733D02*
X010740089Y-04753818D01*
X010740089Y-04753818D02*
X010708114Y-04754506D01*
X010708114Y-04754506D02*
X010656176Y-04768553D01*
X010656176Y-04768553D02*
X010617766Y-04798888D01*
X010617766Y-04798888D02*
X010595806Y-04839733D01*
X010595806Y-04839733D02*
X010587052Y-04882085D01*
X010587052Y-04882085D02*
X010586208Y-04913971D01*
X010586208Y-04913971D02*
X010590213Y-04941300D01*
X010590213Y-04941300D02*
X010598404Y-04964416D01*
X010598404Y-04964416D02*
X010624702Y-04999392D01*
X010624702Y-04999392D02*
X010659810Y-05021658D01*
X010659810Y-05021658D02*
X010717415Y-05037262D01*
X010717415Y-05037262D02*
X010784929Y-05038567D01*
X010097570Y-04748281D02*
X010137231Y-04759022D01*
X010137231Y-04759022D02*
X010172742Y-04791749D01*
X010172742Y-04791749D02*
X010192112Y-04839265D01*
X010192112Y-04839265D02*
X010196724Y-04909733D01*
X010196724Y-04909733D02*
X010185656Y-04968814D01*
X010185656Y-04968814D02*
X010157062Y-05017774D01*
X010157062Y-05017774D02*
X010116016Y-05043710D01*
X010116016Y-05043710D02*
X010079122Y-05043710D01*
X010079122Y-05043710D02*
X010038075Y-05017774D01*
X010038075Y-05017774D02*
X010009482Y-04968814D01*
X010009482Y-04968814D02*
X009998413Y-04909733D01*
X009998413Y-04909733D02*
X010003025Y-04839265D01*
X010003025Y-04839265D02*
X010022395Y-04791749D01*
X010022395Y-04791749D02*
X010057907Y-04759022D01*
X010057907Y-04759022D02*
X010097570Y-04748281D01*
D22*
X011273569Y-07293818D02*
X011273569Y-07578567D01*
X010783494Y-07578567D02*
X010783494Y-07293818D01*
X010783494Y-07293818D02*
X010587644Y-07578567D01*
X010587644Y-07578567D02*
X010591487Y-07293818D01*
X010214361Y-07293818D02*
X009980777Y-07293818D01*
X010094101Y-07293818D02*
X010094101Y-07578567D01*
D20*
X004908355Y008588167D02*
X004908355Y008327147D01*
X004459120Y008327147D02*
X004459120Y008588167D01*
X004459120Y008588167D02*
X004279590Y008327147D01*
X004279590Y008327147D02*
X004283113Y008588167D01*
X003760281Y008552232D02*
X003789319Y008589521D01*
X003789319Y008589521D02*
X003858150Y008593242D01*
X003858150Y008593242D02*
X003896730Y008566387D01*
X003896730Y008566387D02*
X003912481Y008517117D01*
X003912481Y008517117D02*
X003905957Y008492790D01*
X003905957Y008492790D02*
X003881549Y008471777D01*
X003881549Y008471777D02*
X003784827Y008454833D01*
X003784827Y008454833D02*
X003752289Y008434803D01*
X003752289Y008434803D02*
X003740215Y008400160D01*
X003740215Y008400160D02*
X003756119Y008345979D01*
X003756119Y008345979D02*
X003804698Y008322433D01*
X003804698Y008322433D02*
X003867157Y008324186D01*
X003867157Y008324186D02*
X003901316Y008343290D01*
X003901316Y008343290D02*
X003920495Y008388221D01*
X003379522Y008588167D02*
X003379114Y008442683D01*
X003379114Y008442683D02*
X003376307Y008403107D01*
X003376307Y008403107D02*
X003369126Y008373792D01*
X003369126Y008373792D02*
X003355357Y008351494D01*
X003355357Y008351494D02*
X003337345Y008336751D01*
X003337345Y008336751D02*
X003310436Y008326103D01*
X003310436Y008326103D02*
X003276483Y008322076D01*
X003276483Y008322076D02*
X003252652Y008326108D01*
X003252652Y008326108D02*
X003233107Y008336727D01*
X003233107Y008336727D02*
X003221410Y008349168D01*
X003221410Y008349168D02*
X003216388Y008357346D01*
X003216388Y008357346D02*
X003208706Y008378198D01*
X003208706Y008378198D02*
X003205120Y008405819D01*
X003205120Y008405819D02*
X003203188Y008587773D01*
X002839206Y008588167D02*
X002839206Y008327147D01*
X002839206Y008327147D02*
X002665504Y008327147D01*
X002322294Y008327147D02*
X002217531Y008588167D01*
X002217531Y008588167D02*
X002104415Y008327147D01*
X002269458Y008428959D02*
X002162334Y008428959D01*
X001781415Y008588167D02*
X001567295Y008588167D01*
X001671176Y008588167D02*
X001671176Y008327147D01*
X001220420Y008588167D02*
X001220420Y008327147D01*
X001220420Y008588167D02*
X001050290Y008588167D01*
X001220420Y008457657D02*
X001101329Y008457657D01*
X001220420Y008327147D02*
X001050290Y008327147D01*
X000341687Y008293929D02*
X000158023Y008588167D01*
X-00553024Y008588167D02*
X-00553024Y008327147D01*
X-00554902Y008586391D02*
X-00718266Y008586391D01*
X-00554902Y008458544D02*
X-00691977Y008458544D01*
X-01087794Y008588167D02*
X-01087794Y008327147D01*
X-01087794Y008327147D02*
X-01261496Y008327147D01*
X-01625478Y008588167D02*
X-01625886Y008442683D01*
X-01625886Y008442683D02*
X-01628693Y008403107D01*
X-01628693Y008403107D02*
X-01635874Y008373792D01*
X-01635874Y008373792D02*
X-01649643Y008351494D01*
X-01649643Y008351494D02*
X-01667655Y008336751D01*
X-01667655Y008336751D02*
X-01694564Y008326103D01*
X-01694564Y008326103D02*
X-01728517Y008322076D01*
X-01728517Y008322076D02*
X-01752348Y008326108D01*
X-01752348Y008326108D02*
X-01771893Y008336727D01*
X-01771893Y008336727D02*
X-01783590Y008349168D01*
X-01783590Y008349168D02*
X-01788612Y008357346D01*
X-01788612Y008357346D02*
X-01796294Y008378198D01*
X-01796294Y008378198D02*
X-01799880Y008405819D01*
X-01799880Y008405819D02*
X-01801812Y008587773D01*
X-02322719Y008552232D02*
X-02293681Y008589521D01*
X-02293681Y008589521D02*
X-02224850Y008593242D01*
X-02224850Y008593242D02*
X-02186270Y008566387D01*
X-02186270Y008566387D02*
X-02170519Y008517117D01*
X-02170519Y008517117D02*
X-02177043Y008492790D01*
X-02177043Y008492790D02*
X-02201451Y008471777D01*
X-02201451Y008471777D02*
X-02298173Y008454833D01*
X-02298173Y008454833D02*
X-02330711Y008434803D01*
X-02330711Y008434803D02*
X-02342785Y008400160D01*
X-02342785Y008400160D02*
X-02326881Y008345979D01*
X-02326881Y008345979D02*
X-02278302Y008322433D01*
X-02278302Y008322433D02*
X-02215843Y008324186D01*
X-02215843Y008324186D02*
X-02181684Y008343290D01*
X-02181684Y008343290D02*
X-02162505Y008388221D01*
X-02701505Y008588167D02*
X-02701505Y008327147D01*
X-02701505Y008463172D02*
X-02879803Y008463172D01*
X-02881785Y008588167D02*
X-02881785Y008327147D01*
X-03764936Y008530859D02*
X-03753144Y008559600D01*
X-03753144Y008559600D02*
X-03731512Y008579949D01*
X-03731512Y008579949D02*
X-03690545Y008593242D01*
X-03690545Y008593242D02*
X-03660272Y008589183D01*
X-03660272Y008589183D02*
X-03633594Y008575557D01*
X-03633594Y008575557D02*
X-03607544Y008544109D01*
X-03607544Y008544109D02*
X-03589354Y008461560D01*
X-03589354Y008461560D02*
X-03603628Y008378577D01*
X-03603628Y008378577D02*
X-03624922Y008345160D01*
X-03624922Y008345160D02*
X-03647060Y008329522D01*
X-03647060Y008329522D02*
X-03690188Y008322433D01*
X-03690188Y008322433D02*
X-03727774Y008331494D01*
X-03727774Y008331494D02*
X-03755604Y008357935D01*
X-03755604Y008357935D02*
X-03764936Y008395255D01*
X-04127978Y008588167D02*
X-04128386Y008442683D01*
X-04128386Y008442683D02*
X-04131193Y008403107D01*
X-04131193Y008403107D02*
X-04138374Y008373792D01*
X-04138374Y008373792D02*
X-04152143Y008351494D01*
X-04152143Y008351494D02*
X-04170155Y008336751D01*
X-04170155Y008336751D02*
X-04197064Y008326103D01*
X-04197064Y008326103D02*
X-04231017Y008322076D01*
X-04231017Y008322076D02*
X-04254848Y008326108D01*
X-04254848Y008326108D02*
X-04274393Y008336727D01*
X-04274393Y008336727D02*
X-04286090Y008349168D01*
X-04286090Y008349168D02*
X-04291112Y008357346D01*
X-04291112Y008357346D02*
X-04298794Y008378198D01*
X-04298794Y008378198D02*
X-04302380Y008405819D01*
X-04302380Y008405819D02*
X-04304312Y008587773D01*
X-04648085Y008588167D02*
X-04862205Y008588167D01*
X-04758324Y008588167D02*
X-04758324Y008327147D01*
D21*
X004596293Y007149146D02*
X004596293Y007372647D01*
X004596293Y007372647D02*
X004550435Y007376945D01*
X004550435Y007376945D02*
X004509411Y007374258D01*
X004509411Y007374258D02*
X004482736Y007367027D01*
X004482736Y007367027D02*
X004470809Y007361183D01*
X004470809Y007361183D02*
X004451786Y007344040D01*
X004451786Y007344040D02*
X004443333Y007325627D01*
X004443333Y007325627D02*
X004441417Y007298710D01*
X004441417Y007298710D02*
X004448998Y007281787D01*
X004448998Y007281787D02*
X004460829Y007272434D01*
X004460829Y007272434D02*
X004479694Y007264933D01*
X004479694Y007264933D02*
X004506978Y007259555D01*
X004506978Y007259555D02*
X004544059Y007256566D01*
X004544059Y007256566D02*
X004592324Y007256233D01*
X004048455Y007376945D02*
X004048455Y007149146D01*
X003656395Y007149146D02*
X003656395Y007376945D01*
X003656395Y007376945D02*
X003499715Y007149146D01*
X003499715Y007149146D02*
X003502790Y007376945D01*
X003046500Y007345584D02*
X003071842Y007378128D01*
X003071842Y007378128D02*
X003131913Y007381375D01*
X003131913Y007381375D02*
X003165583Y007357938D01*
X003165583Y007357938D02*
X003179329Y007314939D01*
X003179329Y007314939D02*
X003173636Y007293708D01*
X003173636Y007293708D02*
X003152334Y007275369D01*
X003152334Y007275369D02*
X003067922Y007260581D01*
X003067922Y007260581D02*
X003039525Y007243101D01*
X003039525Y007243101D02*
X003028987Y007212867D01*
X003028987Y007212867D02*
X003042868Y007165582D01*
X003042868Y007165582D02*
X003085264Y007145032D01*
X003085264Y007145032D02*
X003139774Y007146562D01*
X003139774Y007146562D02*
X003169585Y007163235D01*
X003169585Y007163235D02*
X003186323Y007202448D01*
X002411801Y007376945D02*
X002411445Y007249978D01*
X002411445Y007249978D02*
X002408995Y007215439D01*
X002408995Y007215439D02*
X002402728Y007189855D01*
X002402728Y007189855D02*
X002390712Y007170395D01*
X002390712Y007170395D02*
X002374992Y007157528D01*
X002374992Y007157528D02*
X002351508Y007148236D01*
X002351508Y007148236D02*
X002321876Y007144721D01*
X002321876Y007144721D02*
X002301078Y007148240D01*
X002301078Y007148240D02*
X002284020Y007157507D01*
X002284020Y007157507D02*
X002273812Y007168365D01*
X002273812Y007168365D02*
X002269430Y007175502D01*
X002269430Y007175502D02*
X002262725Y007193700D01*
X002262725Y007193700D02*
X002259595Y007217806D01*
X002259595Y007217806D02*
X002257910Y007376602D01*
X001942795Y007149146D02*
X001942795Y007376945D01*
X001942795Y007376945D02*
X001786115Y007149146D01*
X001786115Y007149146D02*
X001789190Y007376945D01*
X001473543Y007149146D02*
X001471062Y007372214D01*
X001471062Y007372214D02*
X001437671Y007376945D01*
X001437671Y007376945D02*
X001412091Y007376395D01*
X001412091Y007376395D02*
X001370541Y007365158D01*
X001370541Y007365158D02*
X001339813Y007340890D01*
X001339813Y007340890D02*
X001322245Y007308214D01*
X001322245Y007308214D02*
X001315241Y007274332D01*
X001315241Y007274332D02*
X001314567Y007248823D01*
X001314567Y007248823D02*
X001317770Y007226960D01*
X001317770Y007226960D02*
X001324323Y007208467D01*
X001324323Y007208467D02*
X001345361Y007180486D01*
X001345361Y007180486D02*
X001373448Y007162673D01*
X001373448Y007162673D02*
X001419532Y007150190D01*
X001419532Y007150190D02*
X001473543Y007149146D01*
X000997894Y007376945D02*
X000997894Y007149146D01*
X000997894Y007376945D02*
X000849417Y007376945D01*
X000997894Y007263046D02*
X000893960Y007263046D01*
X000997894Y007149146D02*
X000849417Y007149146D01*
X000542670Y007150778D02*
X000542670Y007371045D01*
X000542670Y007371045D02*
X000478085Y007376945D01*
X000478085Y007376945D02*
X000432755Y007374973D01*
X000432755Y007374973D02*
X000405410Y007368911D01*
X000405410Y007368911D02*
X000393912Y007363970D01*
X000393912Y007363970D02*
X000384448Y007357538D01*
X000384448Y007357538D02*
X000377457Y007349453D01*
X000377457Y007349453D02*
X000371292Y007327532D01*
X000371292Y007327532D02*
X000371871Y007308091D01*
X000371871Y007308091D02*
X000378180Y007294013D01*
X000378180Y007294013D02*
X000389505Y007284370D01*
X000389505Y007284370D02*
X000405127Y007278228D01*
X000405127Y007278228D02*
X000435054Y007273544D01*
X000435054Y007273544D02*
X000538389Y007269885D01*
X000452574Y007260585D02*
X000363841Y007149146D01*
X-00319545Y007376945D02*
X-00319545Y007149146D01*
X-00703074Y007149146D02*
X-00703074Y007376945D01*
X-00703074Y007376945D02*
X-00789945Y007228603D01*
X-00789945Y007228603D02*
X-00876816Y007376945D01*
X-00876816Y007376945D02*
X-00876816Y007149146D01*
X-01183399Y007376945D02*
X-01183755Y007249978D01*
X-01183755Y007249978D02*
X-01186205Y007215439D01*
X-01186205Y007215439D02*
X-01192472Y007189855D01*
X-01192472Y007189855D02*
X-01204488Y007170395D01*
X-01204488Y007170395D02*
X-01220208Y007157528D01*
X-01220208Y007157528D02*
X-01243692Y007148236D01*
X-01243692Y007148236D02*
X-01273324Y007144721D01*
X-01273324Y007144721D02*
X-01294122Y007148240D01*
X-01294122Y007148240D02*
X-01311180Y007157507D01*
X-01311180Y007157507D02*
X-01321388Y007168365D01*
X-01321388Y007168365D02*
X-01325770Y007175502D01*
X-01325770Y007175502D02*
X-01332475Y007193700D01*
X-01332475Y007193700D02*
X-01335605Y007217806D01*
X-01335605Y007217806D02*
X-01337290Y007376602D01*
X-01946274Y007149146D02*
X-01946274Y007376945D01*
X-01946274Y007376945D02*
X-02033145Y007228603D01*
X-02033145Y007228603D02*
X-02120016Y007376945D01*
X-02120016Y007376945D02*
X-02120016Y007149146D01*
X-02498930Y007145032D02*
X-02469072Y007154321D01*
X-02469072Y007154321D02*
X-02441779Y007182584D01*
X-02441779Y007182584D02*
X-02421595Y007278514D01*
X-02421595Y007278514D02*
X-02440821Y007350314D01*
X-02440821Y007350314D02*
X-02464409Y007370764D01*
X-02464409Y007370764D02*
X-02505250Y007381375D01*
X-02505250Y007381375D02*
X-02543701Y007368638D01*
X-02543701Y007368638D02*
X-02566214Y007345359D01*
X-02566214Y007345359D02*
X-02585494Y007257901D01*
X-02585494Y007257901D02*
X-02575899Y007202686D01*
X-02575899Y007202686D02*
X-02558800Y007170776D01*
X-02558800Y007170776D02*
X-02528428Y007149040D01*
X-02528428Y007149040D02*
X-02498930Y007145032D01*
X-02894457Y007149146D02*
X-02896938Y007372214D01*
X-02896938Y007372214D02*
X-02930329Y007376945D01*
X-02930329Y007376945D02*
X-02955909Y007376395D01*
X-02955909Y007376395D02*
X-02997459Y007365158D01*
X-02997459Y007365158D02*
X-03028187Y007340890D01*
X-03028187Y007340890D02*
X-03045755Y007308214D01*
X-03045755Y007308214D02*
X-03052759Y007274332D01*
X-03052759Y007274332D02*
X-03053433Y007248823D01*
X-03053433Y007248823D02*
X-03050230Y007226960D01*
X-03050230Y007226960D02*
X-03043677Y007208467D01*
X-03043677Y007208467D02*
X-03022639Y007180486D01*
X-03022639Y007180486D02*
X-02994552Y007162673D01*
X-02994552Y007162673D02*
X-02948468Y007150190D01*
X-02948468Y007150190D02*
X-02894457Y007149146D01*
X-03367399Y007376945D02*
X-03367755Y007249978D01*
X-03367755Y007249978D02*
X-03370205Y007215439D01*
X-03370205Y007215439D02*
X-03376472Y007189855D01*
X-03376472Y007189855D02*
X-03388488Y007170395D01*
X-03388488Y007170395D02*
X-03404208Y007157528D01*
X-03404208Y007157528D02*
X-03427692Y007148236D01*
X-03427692Y007148236D02*
X-03457324Y007144721D01*
X-03457324Y007144721D02*
X-03478122Y007148240D01*
X-03478122Y007148240D02*
X-03495180Y007157507D01*
X-03495180Y007157507D02*
X-03505388Y007168365D01*
X-03505388Y007168365D02*
X-03509770Y007175502D01*
X-03509770Y007175502D02*
X-03516475Y007193700D01*
X-03516475Y007193700D02*
X-03519605Y007217806D01*
X-03519605Y007217806D02*
X-03521290Y007376602D01*
X-03838948Y007376945D02*
X-03838948Y007149146D01*
X-03838948Y007149146D02*
X-03990542Y007149146D01*
X-04310906Y007376945D02*
X-04310906Y007149146D01*
X-04310906Y007376945D02*
X-04459383Y007376945D01*
X-04310906Y007263046D02*
X-04414840Y007263046D01*
X-04310906Y007149146D02*
X-04459383Y007149146D01*
D26*
X005846418Y-18035709D02*
X005846418Y-17683950D01*
X005846418Y-17683950D02*
X005770088Y-17679773D01*
X005770088Y-17679773D02*
X005700195Y-17692057D01*
X005700195Y-17692057D02*
X005653106Y-17733283D01*
X005653106Y-17733283D02*
X005660432Y-17793558D01*
X005660432Y-17793558D02*
X005715840Y-17825812D01*
X005715840Y-17825812D02*
X005835518Y-17839654D01*
X005835518Y-17839654D02*
X005719152Y-17846953D01*
X005719152Y-17846953D02*
X005633840Y-17877414D01*
X005633840Y-17877414D02*
X005597504Y-17924245D01*
X005597504Y-17924245D02*
X005600490Y-17984811D01*
X005600490Y-17984811D02*
X005616845Y-18011566D01*
X005616845Y-18011566D02*
X005657636Y-18033309D01*
X005657636Y-18033309D02*
X005846418Y-18035709D01*
X005135515Y-17679773D02*
X004991106Y-17838921D01*
X004838407Y-17680278D02*
X004990149Y-17839932D01*
X004990149Y-17839932D02*
X004984730Y-18035709D01*
X003903662Y-18035709D02*
X003899785Y-17687166D01*
X003899785Y-17687166D02*
X003847611Y-17679773D01*
X003847611Y-17679773D02*
X003807642Y-17680632D01*
X003807642Y-17680632D02*
X003742720Y-17698191D01*
X003742720Y-17698191D02*
X003694708Y-17736110D01*
X003694708Y-17736110D02*
X003667257Y-17787166D01*
X003667257Y-17787166D02*
X003656315Y-17840106D01*
X003656315Y-17840106D02*
X003655261Y-17879964D01*
X003655261Y-17879964D02*
X003660266Y-17914125D01*
X003660266Y-17914125D02*
X003670505Y-17943020D01*
X003670505Y-17943020D02*
X003703377Y-17986740D01*
X003703377Y-17986740D02*
X003747263Y-18014573D01*
X003747263Y-18014573D02*
X003819268Y-18034078D01*
X003819268Y-18034078D02*
X003903662Y-18035709D01*
X003044461Y-17679773D02*
X003044461Y-18035709D01*
X002427894Y-17679773D02*
X002427894Y-18035709D01*
X002427894Y-18035709D02*
X002191028Y-18035709D01*
X001692894Y-17679773D02*
X001692894Y-18035709D01*
X001692894Y-18035709D02*
X001456028Y-18035709D01*
X000846671Y-18042137D02*
X000893324Y-18027623D01*
X000893324Y-18027623D02*
X000935970Y-17983462D01*
X000935970Y-17983462D02*
X000967507Y-17833571D01*
X000967507Y-17833571D02*
X000937467Y-17721384D01*
X000937467Y-17721384D02*
X000900611Y-17689431D01*
X000900611Y-17689431D02*
X000836797Y-17672852D01*
X000836797Y-17672852D02*
X000776716Y-17692753D01*
X000776716Y-17692753D02*
X000741540Y-17729127D01*
X000741540Y-17729127D02*
X000711415Y-17865779D01*
X000711415Y-17865779D02*
X000726408Y-17952053D01*
X000726408Y-17952053D02*
X000753125Y-18001913D01*
X000753125Y-18001913D02*
X000800581Y-18035876D01*
X000800581Y-18035876D02*
X000846671Y-18042137D01*
X000226868Y-18035709D02*
X000226868Y-17679773D01*
X000226868Y-17679773D02*
X-00017945Y-18035709D01*
X-00017945Y-18035709D02*
X-00013141Y-17679773D01*
X-01198594Y-17728775D02*
X-01158997Y-17677925D01*
X-01158997Y-17677925D02*
X-01065136Y-17672852D01*
X-01065136Y-17672852D02*
X-01012527Y-17709472D01*
X-01012527Y-17709472D02*
X-00991049Y-17776658D01*
X-00991049Y-17776658D02*
X-00999944Y-17809832D01*
X-00999944Y-17809832D02*
X-01033228Y-17838486D01*
X-01033228Y-17838486D02*
X-01165122Y-17861592D01*
X-01165122Y-17861592D02*
X-01209493Y-17888905D01*
X-01209493Y-17888905D02*
X-01225957Y-17936145D01*
X-01225957Y-17936145D02*
X-01204269Y-18010029D01*
X-01204269Y-18010029D02*
X-01138026Y-18042137D01*
X-01138026Y-18042137D02*
X-01052854Y-18039747D01*
X-01052854Y-18039747D02*
X-01006273Y-18013695D01*
X-01006273Y-18013695D02*
X-00980120Y-17952425D01*
X-01838039Y-17679773D02*
X-01838039Y-18035709D01*
X-02437303Y-18035709D02*
X-02437303Y-17679773D01*
X-02437303Y-17679773D02*
X-02573039Y-17911558D01*
X-02573039Y-17911558D02*
X-02708775Y-17679773D01*
X-02708775Y-17679773D02*
X-02708775Y-18035709D01*
X-03192041Y-17679773D02*
X-03192041Y-18035709D01*
X-03192041Y-17679773D02*
X-03424036Y-17679773D01*
X-03192041Y-17857740D02*
X-03354438Y-17857740D01*
X-03192041Y-18035709D02*
X-03424036Y-18035709D01*
X-04035829Y-18042137D02*
X-03989176Y-18027623D01*
X-03989176Y-18027623D02*
X-03946530Y-17983462D01*
X-03946530Y-17983462D02*
X-03914993Y-17833571D01*
X-03914993Y-17833571D02*
X-03945033Y-17721384D01*
X-03945033Y-17721384D02*
X-03981889Y-17689431D01*
X-03981889Y-17689431D02*
X-04045703Y-17672852D01*
X-04045703Y-17672852D02*
X-04105784Y-17692753D01*
X-04105784Y-17692753D02*
X-04140960Y-17729127D01*
X-04140960Y-17729127D02*
X-04171085Y-17865779D01*
X-04171085Y-17865779D02*
X-04156092Y-17952053D01*
X-04156092Y-17952053D02*
X-04129375Y-18001913D01*
X-04129375Y-18001913D02*
X-04081919Y-18035876D01*
X-04081919Y-18035876D02*
X-04035829Y-18042137D01*
X-04655632Y-18035709D02*
X-04655632Y-17679773D01*
X-04655632Y-17679773D02*
X-04900445Y-18035709D01*
X-04900445Y-18035709D02*
X-04895641Y-17679773D01*
X-05397041Y-17679773D02*
X-05397041Y-18035709D01*
X-05397041Y-17679773D02*
X-05629036Y-17679773D01*
X-05397041Y-17857740D02*
X-05559438Y-17857740D01*
X-05397041Y-18035709D02*
X-05629036Y-18035709D01*
D26*
X006108662Y-06735709D02*
X006104785Y-06387166D01*
X006104785Y-06387166D02*
X006052611Y-06379773D01*
X006052611Y-06379773D02*
X006012642Y-06380632D01*
X006012642Y-06380632D02*
X005947720Y-06398191D01*
X005947720Y-06398191D02*
X005899708Y-06436110D01*
X005899708Y-06436110D02*
X005872257Y-06487166D01*
X005872257Y-06487166D02*
X005861315Y-06540106D01*
X005861315Y-06540106D02*
X005860261Y-06579964D01*
X005860261Y-06579964D02*
X005865266Y-06614125D01*
X005865266Y-06614125D02*
X005875505Y-06643020D01*
X005875505Y-06643020D02*
X005908377Y-06686740D01*
X005908377Y-06686740D02*
X005952263Y-06714573D01*
X005952263Y-06714573D02*
X006024268Y-06734078D01*
X006024268Y-06734078D02*
X006108662Y-06735709D01*
X005249461Y-06379773D02*
X005249461Y-06735709D01*
X004632894Y-06379773D02*
X004632894Y-06735709D01*
X004632894Y-06735709D02*
X004396028Y-06735709D01*
X003897894Y-06379773D02*
X003897894Y-06735709D01*
X003897894Y-06735709D02*
X003661028Y-06735709D01*
X003051671Y-06742137D02*
X003098324Y-06727623D01*
X003098324Y-06727623D02*
X003140970Y-06683462D01*
X003140970Y-06683462D02*
X003172507Y-06533571D01*
X003172507Y-06533571D02*
X003142467Y-06421384D01*
X003142467Y-06421384D02*
X003105611Y-06389431D01*
X003105611Y-06389431D02*
X003041797Y-06372852D01*
X003041797Y-06372852D02*
X002981716Y-06392753D01*
X002981716Y-06392753D02*
X002946540Y-06429127D01*
X002946540Y-06429127D02*
X002916415Y-06565779D01*
X002916415Y-06565779D02*
X002931408Y-06652053D01*
X002931408Y-06652053D02*
X002958125Y-06701913D01*
X002958125Y-06701913D02*
X003005581Y-06735876D01*
X003005581Y-06735876D02*
X003051671Y-06742137D01*
X002431868Y-06735709D02*
X002431868Y-06379773D01*
X002431868Y-06379773D02*
X002187055Y-06735709D01*
X002187055Y-06735709D02*
X002191859Y-06379773D01*
X001478906Y-06428775D02*
X001518503Y-06377925D01*
X001518503Y-06377925D02*
X001612364Y-06372852D01*
X001612364Y-06372852D02*
X001664973Y-06409472D01*
X001664973Y-06409472D02*
X001686451Y-06476658D01*
X001686451Y-06476658D02*
X001677556Y-06509832D01*
X001677556Y-06509832D02*
X001644272Y-06538486D01*
X001644272Y-06538486D02*
X001512378Y-06561592D01*
X001512378Y-06561592D02*
X001468007Y-06588905D01*
X001468007Y-06588905D02*
X001451543Y-06636145D01*
X001451543Y-06636145D02*
X001473231Y-06710029D01*
X001473231Y-06710029D02*
X001539474Y-06742137D01*
X001539474Y-06742137D02*
X001624646Y-06739747D01*
X001624646Y-06739747D02*
X001671227Y-06713695D01*
X001671227Y-06713695D02*
X001697380Y-06652425D01*
X000839461Y-06379773D02*
X000839461Y-06735709D01*
X000240197Y-06735709D02*
X000240197Y-06379773D01*
X000240197Y-06379773D02*
X000104461Y-06611558D01*
X000104461Y-06611558D02*
X-00031275Y-06379773D01*
X-00031275Y-06379773D02*
X-00031275Y-06735709D01*
X-00514541Y-06379773D02*
X-00514541Y-06735709D01*
X-00514541Y-06379773D02*
X-00746536Y-06379773D01*
X-00514541Y-06557740D02*
X-00676938Y-06557740D01*
X-00514541Y-06735709D02*
X-00746536Y-06735709D01*
X-01358329Y-06742137D02*
X-01311676Y-06727623D01*
X-01311676Y-06727623D02*
X-01269030Y-06683462D01*
X-01269030Y-06683462D02*
X-01237493Y-06533571D01*
X-01237493Y-06533571D02*
X-01267533Y-06421384D01*
X-01267533Y-06421384D02*
X-01304389Y-06389431D01*
X-01304389Y-06389431D02*
X-01368203Y-06372852D01*
X-01368203Y-06372852D02*
X-01428284Y-06392753D01*
X-01428284Y-06392753D02*
X-01463460Y-06429127D01*
X-01463460Y-06429127D02*
X-01493585Y-06565779D01*
X-01493585Y-06565779D02*
X-01478592Y-06652053D01*
X-01478592Y-06652053D02*
X-01451875Y-06701913D01*
X-01451875Y-06701913D02*
X-01404419Y-06735876D01*
X-01404419Y-06735876D02*
X-01358329Y-06742137D01*
X-01978132Y-06735709D02*
X-01978132Y-06379773D01*
X-01978132Y-06379773D02*
X-02222945Y-06735709D01*
X-02222945Y-06735709D02*
X-02218141Y-06379773D01*
X-02719541Y-06379773D02*
X-02719541Y-06735709D01*
X-02719541Y-06379773D02*
X-02951536Y-06379773D01*
X-02719541Y-06557740D02*
X-02881938Y-06557740D01*
X-02719541Y-06735709D02*
X-02951536Y-06735709D01*
X-03602838Y-06684314D02*
X-03538239Y-06684314D01*
X-04425253Y-06457920D02*
X-04409173Y-06418728D01*
X-04409173Y-06418728D02*
X-04379675Y-06390979D01*
X-04379675Y-06390979D02*
X-04323811Y-06372852D01*
X-04323811Y-06372852D02*
X-04282529Y-06378387D01*
X-04282529Y-06378387D02*
X-04246151Y-06396968D01*
X-04246151Y-06396968D02*
X-04210628Y-06439852D01*
X-04210628Y-06439852D02*
X-04185824Y-06552418D01*
X-04185824Y-06552418D02*
X-04205288Y-06665577D01*
X-04205288Y-06665577D02*
X-04234325Y-06711146D01*
X-04234325Y-06711146D02*
X-04264514Y-06732471D01*
X-04264514Y-06732471D02*
X-04323325Y-06742137D01*
X-04323325Y-06742137D02*
X-04374578Y-06729781D01*
X-04374578Y-06729781D02*
X-04412528Y-06693724D01*
X-04412528Y-06693724D02*
X-04425253Y-06642834D01*
X-05033329Y-06742137D02*
X-04986676Y-06727623D01*
X-04986676Y-06727623D02*
X-04944030Y-06683462D01*
X-04944030Y-06683462D02*
X-04912493Y-06533571D01*
X-04912493Y-06533571D02*
X-04942533Y-06421384D01*
X-04942533Y-06421384D02*
X-04979389Y-06389431D01*
X-04979389Y-06389431D02*
X-05043203Y-06372852D01*
X-05043203Y-06372852D02*
X-05103284Y-06392753D01*
X-05103284Y-06392753D02*
X-05138460Y-06429127D01*
X-05138460Y-06429127D02*
X-05168585Y-06565779D01*
X-05168585Y-06565779D02*
X-05153592Y-06652053D01*
X-05153592Y-06652053D02*
X-05126875Y-06701913D01*
X-05126875Y-06701913D02*
X-05079419Y-06735876D01*
X-05079419Y-06735876D02*
X-05033329Y-06742137D01*
X-05639803Y-06735709D02*
X-05639803Y-06379773D01*
X-05639803Y-06379773D02*
X-05775539Y-06611558D01*
X-05775539Y-06611558D02*
X-05911275Y-06379773D01*
X-05911275Y-06379773D02*
X-05911275Y-06735709D01*
D27*
X-04480000Y004480000D02*
X-02800000Y004480000D01*
D27*
X-01680000Y004480000D02*
X-01680000Y004480000D01*
D27*
X-00840000Y004480000D02*
X-00840000Y004480000D01*
D27*
X-00280000Y004480000D02*
X001120000Y004480000D01*
D27*
X001680000Y004480000D02*
X001680000Y004480000D01*
D27*
X002240000Y004480000D02*
X002240000Y004480000D01*
D27*
X002800000Y004480000D02*
X004480000Y004480000D01*
D27*
X-04480000Y004200000D02*
X-04480000Y004200000D01*
D27*
X-02800000Y004200000D02*
X-02800000Y004200000D01*
D27*
X-02240000Y004200000D02*
X-01960000Y004200000D01*
D27*
X-00840000Y004200000D02*
X-00840000Y004200000D01*
D27*
X-00280000Y004200000D02*
X-00280000Y004200000D01*
D27*
X000560000Y004200000D02*
X000560000Y004200000D01*
D27*
X001120000Y004200000D02*
X001120000Y004200000D01*
D27*
X002240000Y004200000D02*
X002240000Y004200000D01*
D27*
X002800000Y004200000D02*
X002800000Y004200000D01*
D27*
X004480000Y004200000D02*
X004480000Y004200000D01*
D27*
X-04480000Y003920000D02*
X-04480000Y003920000D01*
D27*
X-03920000Y003920000D02*
X-03360000Y003920000D01*
D27*
X-02800000Y003920000D02*
X-02800000Y003920000D01*
D27*
X-01960000Y003920000D02*
X-01960000Y003920000D01*
D27*
X-01400000Y003920000D02*
X-01400000Y003920000D01*
D27*
X-00840000Y003920000D02*
X-00560000Y003920000D01*
D27*
X000280000Y003920000D02*
X001120000Y003920000D01*
D27*
X001680000Y003920000D02*
X001680000Y003920000D01*
D27*
X002240000Y003920000D02*
X002240000Y003920000D01*
D27*
X002800000Y003920000D02*
X002800000Y003920000D01*
D27*
X003360000Y003920000D02*
X003920000Y003920000D01*
D27*
X004480000Y003920000D02*
X004480000Y003920000D01*
D27*
X-04480000Y003640000D02*
X-04480000Y003640000D01*
D27*
X-03920000Y003640000D02*
X-03360000Y003640000D01*
D27*
X-02800000Y003640000D02*
X-02800000Y003640000D01*
D27*
X-02240000Y003640000D02*
X-01680000Y003640000D01*
D27*
X-01120000Y003640000D02*
X000280000Y003640000D01*
D27*
X000840000Y003640000D02*
X000840000Y003640000D01*
D27*
X001680000Y003640000D02*
X001960000Y003640000D01*
D27*
X002800000Y003640000D02*
X002800000Y003640000D01*
D27*
X003360000Y003640000D02*
X003920000Y003640000D01*
D27*
X004480000Y003640000D02*
X004480000Y003640000D01*
D27*
X-04480000Y003360000D02*
X-04480000Y003360000D01*
D27*
X-03920000Y003360000D02*
X-03360000Y003360000D01*
D27*
X-02800000Y003360000D02*
X-02800000Y003360000D01*
D27*
X-01960000Y003360000D02*
X-01960000Y003360000D01*
D27*
X-00840000Y003360000D02*
X-00840000Y003360000D01*
D27*
X000000000Y003360000D02*
X001400000Y003360000D01*
D27*
X001960000Y003360000D02*
X002240000Y003360000D01*
D27*
X002800000Y003360000D02*
X002800000Y003360000D01*
D27*
X003360000Y003360000D02*
X003920000Y003360000D01*
D27*
X004480000Y003360000D02*
X004480000Y003360000D01*
D27*
X-04480000Y003080000D02*
X-04480000Y003080000D01*
D27*
X-02800000Y003080000D02*
X-02800000Y003080000D01*
D27*
X-02240000Y003080000D02*
X-01960000Y003080000D01*
D27*
X-01400000Y003080000D02*
X-01120000Y003080000D01*
D27*
X-00280000Y003080000D02*
X000280000Y003080000D01*
D27*
X001400000Y003080000D02*
X001680000Y003080000D01*
D27*
X002800000Y003080000D02*
X002800000Y003080000D01*
D27*
X004480000Y003080000D02*
X004480000Y003080000D01*
D27*
X-04480000Y002800000D02*
X-02800000Y002800000D01*
D27*
X-02240000Y002800000D02*
X-02240000Y002800000D01*
D27*
X-01680000Y002800000D02*
X-01680000Y002800000D01*
D27*
X-01120000Y002800000D02*
X-01120000Y002800000D01*
D27*
X-00560000Y002800000D02*
X-00560000Y002800000D01*
D27*
X000000000Y002800000D02*
X000000000Y002800000D01*
D27*
X000560000Y002800000D02*
X000560000Y002800000D01*
D27*
X001120000Y002800000D02*
X001120000Y002800000D01*
D27*
X001680000Y002800000D02*
X001680000Y002800000D01*
D27*
X002240000Y002800000D02*
X002240000Y002800000D01*
D27*
X002800000Y002800000D02*
X004480000Y002800000D01*
D27*
X-01960000Y002520000D02*
X-01400000Y002520000D01*
D27*
X-00560000Y002520000D02*
X-00280000Y002520000D01*
D27*
X000560000Y002520000D02*
X000560000Y002520000D01*
D27*
X001120000Y002520000D02*
X001960000Y002520000D01*
D27*
X-04480000Y002240000D02*
X-03360000Y002240000D01*
D27*
X-02800000Y002240000D02*
X-01960000Y002240000D01*
D27*
X-01400000Y002240000D02*
X-01400000Y002240000D01*
D27*
X-00840000Y002240000D02*
X-00280000Y002240000D01*
D27*
X001120000Y002240000D02*
X001120000Y002240000D01*
D27*
X001680000Y002240000D02*
X002520000Y002240000D01*
D27*
X003080000Y002240000D02*
X003080000Y002240000D01*
D27*
X003640000Y002240000D02*
X003640000Y002240000D01*
D27*
X004200000Y002240000D02*
X004200000Y002240000D01*
D27*
X-04480000Y001960000D02*
X-04200000Y001960000D01*
D27*
X-03360000Y001960000D02*
X-03080000Y001960000D01*
D27*
X-02520000Y001960000D02*
X-02520000Y001960000D01*
D27*
X-01680000Y001960000D02*
X-01680000Y001960000D01*
D27*
X-01120000Y001960000D02*
X-01120000Y001960000D01*
D27*
X000000000Y001960000D02*
X000000000Y001960000D01*
D27*
X000840000Y001960000D02*
X001400000Y001960000D01*
D27*
X001960000Y001960000D02*
X002240000Y001960000D01*
D27*
X002800000Y001960000D02*
X002800000Y001960000D01*
D27*
X003920000Y001960000D02*
X004480000Y001960000D01*
D27*
X-04480000Y001680000D02*
X-04200000Y001680000D01*
D27*
X-03640000Y001680000D02*
X-03360000Y001680000D01*
D27*
X-02800000Y001680000D02*
X-02800000Y001680000D01*
D27*
X-01680000Y001680000D02*
X-01680000Y001680000D01*
D27*
X-00840000Y001680000D02*
X-00840000Y001680000D01*
D27*
X-00280000Y001680000D02*
X-00280000Y001680000D01*
D27*
X000280000Y001680000D02*
X000560000Y001680000D01*
D27*
X001120000Y001680000D02*
X001400000Y001680000D01*
D27*
X002800000Y001680000D02*
X002800000Y001680000D01*
D27*
X003360000Y001680000D02*
X003640000Y001680000D01*
D27*
X004200000Y001680000D02*
X004200000Y001680000D01*
D27*
X-04200000Y001400000D02*
X-04200000Y001400000D01*
D27*
X-03640000Y001400000D02*
X-03080000Y001400000D01*
D27*
X-02240000Y001400000D02*
X-02240000Y001400000D01*
D27*
X-01120000Y001400000D02*
X-01120000Y001400000D01*
D27*
X-00560000Y001400000D02*
X-00280000Y001400000D01*
D27*
X000560000Y001400000D02*
X001680000Y001400000D01*
D27*
X002520000Y001400000D02*
X002520000Y001400000D01*
D27*
X003080000Y001400000D02*
X003080000Y001400000D01*
D27*
X003920000Y001400000D02*
X003920000Y001400000D01*
D27*
X-04480000Y001120000D02*
X-03360000Y001120000D01*
D27*
X-02800000Y001120000D02*
X-02800000Y001120000D01*
D27*
X-02240000Y001120000D02*
X-01680000Y001120000D01*
D27*
X-01120000Y001120000D02*
X-01120000Y001120000D01*
D27*
X-00560000Y001120000D02*
X-00560000Y001120000D01*
D27*
X000280000Y001120000D02*
X000280000Y001120000D01*
D27*
X000840000Y001120000D02*
X000840000Y001120000D01*
D27*
X001680000Y001120000D02*
X002520000Y001120000D01*
D27*
X003360000Y001120000D02*
X003640000Y001120000D01*
D27*
X-04200000Y000840000D02*
X-03640000Y000840000D01*
D27*
X-03080000Y000840000D02*
X-03080000Y000840000D01*
D27*
X-02520000Y000840000D02*
X-02240000Y000840000D01*
D27*
X-00560000Y000840000D02*
X000000000Y000840000D01*
D27*
X000560000Y000840000D02*
X001960000Y000840000D01*
D27*
X002800000Y000840000D02*
X002800000Y000840000D01*
D27*
X004200000Y000840000D02*
X004480000Y000840000D01*
D27*
X-04480000Y000560000D02*
X-04480000Y000560000D01*
D27*
X-03360000Y000560000D02*
X-02520000Y000560000D01*
D27*
X-01400000Y000560000D02*
X-01120000Y000560000D01*
D27*
X-00280000Y000560000D02*
X-00280000Y000560000D01*
D27*
X001120000Y000560000D02*
X001120000Y000560000D01*
D27*
X002520000Y000560000D02*
X003360000Y000560000D01*
D27*
X004200000Y000560000D02*
X004200000Y000560000D01*
D27*
X-03920000Y000280000D02*
X-03640000Y000280000D01*
D27*
X-03080000Y000280000D02*
X-03080000Y000280000D01*
D27*
X-02520000Y000280000D02*
X-01400000Y000280000D01*
D27*
X-00280000Y000280000D02*
X000000000Y000280000D01*
D27*
X001120000Y000280000D02*
X001960000Y000280000D01*
D27*
X002520000Y000280000D02*
X002520000Y000280000D01*
D27*
X003360000Y000280000D02*
X003360000Y000280000D01*
D27*
X003920000Y000280000D02*
X003920000Y000280000D01*
D27*
X-04480000Y000000000D02*
X-04200000Y000000000D01*
D27*
X-03640000Y000000000D02*
X-03360000Y000000000D01*
D27*
X-02800000Y000000000D02*
X-02800000Y000000000D01*
D27*
X-01680000Y000000000D02*
X-01400000Y000000000D01*
D27*
X-00560000Y000000000D02*
X-00280000Y000000000D01*
D27*
X000280000Y000000000D02*
X000280000Y000000000D01*
D27*
X000840000Y000000000D02*
X000840000Y000000000D01*
D27*
X001680000Y000000000D02*
X002520000Y000000000D01*
D27*
X003080000Y000000000D02*
X003360000Y000000000D01*
D27*
X004200000Y000000000D02*
X004200000Y000000000D01*
D27*
X-04480000Y-00280000D02*
X-04480000Y-00280000D01*
D27*
X-03920000Y-00280000D02*
X-03080000Y-00280000D01*
D27*
X-01120000Y-00280000D02*
X-01120000Y-00280000D01*
D27*
X000000000Y-00280000D02*
X000000000Y-00280000D01*
D27*
X000560000Y-00280000D02*
X000560000Y-00280000D01*
D27*
X001120000Y-00280000D02*
X001120000Y-00280000D01*
D27*
X001960000Y-00280000D02*
X001960000Y-00280000D01*
D27*
X002800000Y-00280000D02*
X002800000Y-00280000D01*
D27*
X003640000Y-00280000D02*
X003640000Y-00280000D01*
D27*
X004200000Y-00280000D02*
X004480000Y-00280000D01*
D27*
X-04200000Y-00560000D02*
X-04200000Y-00560000D01*
D27*
X-03640000Y-00560000D02*
X-03640000Y-00560000D01*
D27*
X-02800000Y-00560000D02*
X-02800000Y-00560000D01*
D27*
X-00840000Y-00560000D02*
X-00840000Y-00560000D01*
D27*
X-00280000Y-00560000D02*
X000000000Y-00560000D01*
D27*
X000560000Y-00560000D02*
X000560000Y-00560000D01*
D27*
X001120000Y-00560000D02*
X001120000Y-00560000D01*
D27*
X001680000Y-00560000D02*
X001680000Y-00560000D01*
D27*
X002520000Y-00560000D02*
X002520000Y-00560000D01*
D27*
X003360000Y-00560000D02*
X003640000Y-00560000D01*
D27*
X004200000Y-00560000D02*
X004200000Y-00560000D01*
D27*
X-02520000Y-00840000D02*
X-02240000Y-00840000D01*
D27*
X-01120000Y-00840000D02*
X-01120000Y-00840000D01*
D27*
X-00560000Y-00840000D02*
X000000000Y-00840000D01*
D27*
X000840000Y-00840000D02*
X002520000Y-00840000D01*
D27*
X003360000Y-00840000D02*
X003360000Y-00840000D01*
D27*
X003920000Y-00840000D02*
X003920000Y-00840000D01*
D27*
X-04480000Y-01120000D02*
X-04480000Y-01120000D01*
D27*
X-03640000Y-01120000D02*
X-01680000Y-01120000D01*
D27*
X-01120000Y-01120000D02*
X-01120000Y-01120000D01*
D27*
X-00560000Y-01120000D02*
X-00280000Y-01120000D01*
D27*
X000280000Y-01120000D02*
X000280000Y-01120000D01*
D27*
X000840000Y-01120000D02*
X000840000Y-01120000D01*
D27*
X001680000Y-01120000D02*
X001680000Y-01120000D01*
D27*
X002240000Y-01120000D02*
X002520000Y-01120000D01*
D27*
X003080000Y-01120000D02*
X003360000Y-01120000D01*
D27*
X004200000Y-01120000D02*
X004200000Y-01120000D01*
D27*
X-04480000Y-01400000D02*
X-04200000Y-01400000D01*
D27*
X-03640000Y-01400000D02*
X-03640000Y-01400000D01*
D27*
X-02520000Y-01400000D02*
X-01960000Y-01400000D01*
D27*
X000000000Y-01400000D02*
X000000000Y-01400000D01*
D27*
X000560000Y-01400000D02*
X001120000Y-01400000D01*
D27*
X001960000Y-01400000D02*
X001960000Y-01400000D01*
D27*
X002800000Y-01400000D02*
X002800000Y-01400000D01*
D27*
X003640000Y-01400000D02*
X003640000Y-01400000D01*
D27*
X004200000Y-01400000D02*
X004480000Y-01400000D01*
D27*
X-04480000Y-01680000D02*
X-04480000Y-01680000D01*
D27*
X-03360000Y-01680000D02*
X-02520000Y-01680000D01*
D27*
X-01960000Y-01680000D02*
X-00840000Y-01680000D01*
D27*
X-00280000Y-01680000D02*
X-00280000Y-01680000D01*
D27*
X000280000Y-01680000D02*
X000560000Y-01680000D01*
D27*
X001120000Y-01680000D02*
X001120000Y-01680000D01*
D27*
X001680000Y-01680000D02*
X001680000Y-01680000D01*
D27*
X002240000Y-01680000D02*
X003080000Y-01680000D01*
D27*
X003640000Y-01680000D02*
X003640000Y-01680000D01*
D27*
X004200000Y-01680000D02*
X004200000Y-01680000D01*
D27*
X-04480000Y-01960000D02*
X-04480000Y-01960000D01*
D27*
X-03640000Y-01960000D02*
X-03640000Y-01960000D01*
D27*
X-02520000Y-01960000D02*
X-02240000Y-01960000D01*
D27*
X-01400000Y-01960000D02*
X-01400000Y-01960000D01*
D27*
X-00280000Y-01960000D02*
X000000000Y-01960000D01*
D27*
X001400000Y-01960000D02*
X001400000Y-01960000D01*
D27*
X001960000Y-01960000D02*
X001960000Y-01960000D01*
D27*
X002520000Y-01960000D02*
X002800000Y-01960000D01*
D27*
X003360000Y-01960000D02*
X003920000Y-01960000D01*
D27*
X-04480000Y-02240000D02*
X-04480000Y-02240000D01*
D27*
X-03920000Y-02240000D02*
X-02520000Y-02240000D01*
D27*
X-01960000Y-02240000D02*
X-01400000Y-02240000D01*
D27*
X000280000Y-02240000D02*
X000280000Y-02240000D01*
D27*
X000840000Y-02240000D02*
X000840000Y-02240000D01*
D27*
X001960000Y-02240000D02*
X003360000Y-02240000D01*
D27*
X004480000Y-02240000D02*
X004480000Y-02240000D01*
D27*
X-02240000Y-02520000D02*
X-02240000Y-02520000D01*
D27*
X-01680000Y-02520000D02*
X-01680000Y-02520000D01*
D27*
X-01120000Y-02520000D02*
X-00840000Y-02520000D01*
D27*
X-00280000Y-02520000D02*
X000000000Y-02520000D01*
D27*
X000840000Y-02520000D02*
X001120000Y-02520000D01*
D27*
X001680000Y-02520000D02*
X001680000Y-02520000D01*
D27*
X002240000Y-02520000D02*
X002240000Y-02520000D01*
D27*
X003360000Y-02520000D02*
X003920000Y-02520000D01*
D27*
X004480000Y-02520000D02*
X004480000Y-02520000D01*
D27*
X-04480000Y-02800000D02*
X-02800000Y-02800000D01*
D27*
X-02240000Y-02800000D02*
X-02240000Y-02800000D01*
D27*
X-00840000Y-02800000D02*
X000000000Y-02800000D01*
D27*
X001400000Y-02800000D02*
X002240000Y-02800000D01*
D27*
X002800000Y-02800000D02*
X002800000Y-02800000D01*
D27*
X003360000Y-02800000D02*
X003360000Y-02800000D01*
D27*
X003920000Y-02800000D02*
X004200000Y-02800000D01*
D27*
X-04480000Y-03080000D02*
X-04480000Y-03080000D01*
D27*
X-02800000Y-03080000D02*
X-02800000Y-03080000D01*
D27*
X-01960000Y-03080000D02*
X-01960000Y-03080000D01*
D27*
X-01120000Y-03080000D02*
X-00840000Y-03080000D01*
D27*
X-00280000Y-03080000D02*
X000000000Y-03080000D01*
D27*
X000560000Y-03080000D02*
X000560000Y-03080000D01*
D27*
X001120000Y-03080000D02*
X001680000Y-03080000D01*
D27*
X002240000Y-03080000D02*
X002240000Y-03080000D01*
D27*
X003360000Y-03080000D02*
X004200000Y-03080000D01*
D27*
X-04480000Y-03360000D02*
X-04480000Y-03360000D01*
D27*
X-03920000Y-03360000D02*
X-03360000Y-03360000D01*
D27*
X-02800000Y-03360000D02*
X-02800000Y-03360000D01*
D27*
X-02240000Y-03360000D02*
X-01680000Y-03360000D01*
D27*
X-01120000Y-03360000D02*
X-01120000Y-03360000D01*
D27*
X-00560000Y-03360000D02*
X-00280000Y-03360000D01*
D27*
X000280000Y-03360000D02*
X000280000Y-03360000D01*
D27*
X001680000Y-03360000D02*
X001680000Y-03360000D01*
D27*
X002240000Y-03360000D02*
X003360000Y-03360000D01*
D27*
X-04480000Y-03640000D02*
X-04480000Y-03640000D01*
D27*
X-03920000Y-03640000D02*
X-03360000Y-03640000D01*
D27*
X-02800000Y-03640000D02*
X-02800000Y-03640000D01*
D27*
X-02240000Y-03640000D02*
X-02240000Y-03640000D01*
D27*
X-01680000Y-03640000D02*
X-01680000Y-03640000D01*
D27*
X000000000Y-03640000D02*
X001400000Y-03640000D01*
D27*
X001960000Y-03640000D02*
X002520000Y-03640000D01*
D27*
X003080000Y-03640000D02*
X003360000Y-03640000D01*
D27*
X-04480000Y-03920000D02*
X-04480000Y-03920000D01*
D27*
X-03920000Y-03920000D02*
X-03360000Y-03920000D01*
D27*
X-02800000Y-03920000D02*
X-02800000Y-03920000D01*
D27*
X-02240000Y-03920000D02*
X-01120000Y-03920000D01*
D27*
X-00280000Y-03920000D02*
X-00280000Y-03920000D01*
D27*
X000560000Y-03920000D02*
X000560000Y-03920000D01*
D27*
X001120000Y-03920000D02*
X001400000Y-03920000D01*
D27*
X001960000Y-03920000D02*
X002240000Y-03920000D01*
D27*
X002800000Y-03920000D02*
X002800000Y-03920000D01*
D27*
X003640000Y-03920000D02*
X004200000Y-03920000D01*
D27*
X-04480000Y-04200000D02*
X-04480000Y-04200000D01*
D27*
X-02800000Y-04200000D02*
X-02800000Y-04200000D01*
D27*
X-02240000Y-04200000D02*
X-02240000Y-04200000D01*
D27*
X-01400000Y-04200000D02*
X-01400000Y-04200000D01*
D27*
X-00560000Y-04200000D02*
X-00560000Y-04200000D01*
D27*
X000000000Y-04200000D02*
X000000000Y-04200000D01*
D27*
X001120000Y-04200000D02*
X001680000Y-04200000D01*
D27*
X002520000Y-04200000D02*
X003080000Y-04200000D01*
D27*
X003640000Y-04200000D02*
X003920000Y-04200000D01*
D27*
X-04480000Y-04480000D02*
X-02800000Y-04480000D01*
D27*
X-02240000Y-04480000D02*
X-01400000Y-04480000D01*
D27*
X-00280000Y-04480000D02*
X000000000Y-04480000D01*
D27*
X001120000Y-04480000D02*
X001120000Y-04480000D01*
D27*
X001680000Y-04480000D02*
X002240000Y-04480000D01*
D27*
X002800000Y-04480000D02*
X002800000Y-04480000D01*
D27*
X003360000Y-04480000D02*
X003360000Y-04480000D01*
D27*
X004200000Y-04480000D02*
X004200000Y-04480000D01*
M02*