%TF.GenerationSoftware,tscircuit,circuit-json-to-gerber,0.0.77*%
%TF.CreationDate,2026-10-09T14:43:11.313Z*%
%TF.SameCoordinates,Original*%
%TF.FileFunction,Copper,L1,Top*%
%TF.FilePolarity,Positive*%
%FSLAX46Y46*%
%MOMM*%
G04 Gerber Fmt 4.6, Leading zero omitted, Abs format (unit mm)*
G04 Created by tscircuit (builder) date 2026-10-09T14:43:11.313Z*
G01*
%LPD*%
G75*
G04 APERTURE MACROS START*
%AMHORZPILL*
0 Horizontal pill (stadium) shape macro*
0 Parameters:*
0 $1 = Total width*
0 $2 = Total height*
0 $3 = Circle diameter (equal to height)*
0 $4 = Circle center offset
0 21 = Center Line(Exposure, Width, Height, Center X, Center Y, Rotation)*
0 1 = Circle(Exposure, Diameter, Center X, Center Y, Rotation)*
21,1,$1-$3,$2,0.0,0.0,0.0*
1,1,$3,0.0-$4,0.0*
1,1,$3,$4,0.0*%
%AMVERTPILL*
0 Vertical pill (stadium) shape macro*
0 Parameters:*
0 $1 = Total width*
0 $2 = Total height*
0 $3 = Circle diameter (equal to width)*
0 $4 = Circle center offset
0 21 = Center Line(Exposure, Width, Height, Center X, Center Y, Rotation)*
21,1,$1,$2-$3,0.0,0.0,0.0*
1,1,$3,0.0,0.0-$4*
1,1,$3,0.0,$4*%
%AMROUNDRECT*
0 Rectangle with rounded corners*
0 $1 Corner radius*
0 $2 $3 $4 $5 $6 $7 $8 $9 X,Y Position of each corner*
0 Polygon box body*
4,1,4,$2,$3,$4,$5,$6,$7,$8,$9,$2,$3,0*
0 Circles for rounded corners*
1,1,$1+$1,$2,$3*
1,1,$1+$1,$4,$5*
1,1,$1+$1,$6,$7*
1,1,$1+$1,$8,$9*
0 Rectangles between the rounded corners*
20,1,$1+$1,$2,$3,$4,$5,0*
20,1,$1+$1,$4,$5,$6,$7,0*
20,1,$1+$1,$6,$7,$8,$9,0*
20,1,$1+$1,$8,$9,$2,$3,0*%
G04 APERTURE MACROS END*
G04 aperture START LIST*
%ADD10C,0.220000*%
%ADD11C,0.150000*%
%ADD12C,0.160000*%
%ADD13C,0.100000*%
%ADD14C,4.800000*%
%ADD15C,1.750000*%
%ADD16C,1.800000*%
%ADD17C,2.000000*%
%ADD18C,2.400000*%
%ADD19R,0.600000X0.900000*%
%ADD20R,0.420000X0.630000*%
%ADD21R,0.800000X0.900000*%
%ADD22R,0.560000X0.630000*%
%ADD23R,0.700000X0.900000*%
%ADD24R,0.490000X0.630000*%
%ADD25R,1.100000X1.200000*%
%ADD26R,0.770000X0.840000*%
%ADD27C,0.081250*%
%ADD28C,0.068750*%
%ADD29C,0.060000*%
%ADD30C,0.075000*%
%ADD31C,0.056250*%
%ADD32C,0.062500*%
%ADD33C,0.052500*%
%ADD34C,0.093750*%
%ADD35C,0.280000*%
%ADD36C,0.450000*%
%TD*%
G04 aperture END LIST*
D14*
X-15500000Y015500000D03*
D14*
X015500000Y015500000D03*
D14*
X-15500000Y-15500000D03*
D14*
X015500000Y-15500000D03*
D15*
X-11390000Y010390000D03*
D15*
X-11390000Y007850000D03*
D15*
X-11390000Y005310000D03*
D15*
X-11390000Y002770000D03*
D15*
X-11390000Y000230000D03*
D15*
X-11390000Y-02310000D03*
D15*
X-11390000Y-04850000D03*
D15*
X-11390000Y-07390000D03*
D15*
X006390000Y010390000D03*
D15*
X006390000Y007850000D03*
D15*
X006390000Y005310000D03*
D15*
X006390000Y002770000D03*
D15*
X006390000Y000230000D03*
D15*
X006390000Y-02310000D03*
D15*
X006390000Y-04850000D03*
D15*
X006390000Y-07390000D03*
D16*
X009000000Y010390000D03*
D16*
X009000000Y007850000D03*
D16*
X009000000Y005310000D03*
D16*
X009000000Y002770000D03*
D16*
X009000000Y000230000D03*
D16*
X009000000Y-02310000D03*
D16*
X009000000Y-04850000D03*
D16*
X009000000Y-07390000D03*
D17*
X-02540000Y015500000D03*
D17*
X000000000Y015500000D03*
D17*
X002540000Y015500000D03*
D17*
X015500000Y003960000D03*
D17*
X015500000Y006500000D03*
D17*
X015500000Y009040000D03*
D17*
X-15500000Y003960000D03*
D17*
X-15500000Y006500000D03*
D17*
X-15500000Y009040000D03*
D17*
X-15500000Y-01230000D03*
D17*
X-15500000Y-03770000D03*
D17*
X015500000Y-01230000D03*
D17*
X015500000Y-03770000D03*
D16*
X-11040000Y-13500000D03*
D16*
X-08500000Y-13500000D03*
D16*
X-05960000Y-13500000D03*
D16*
X003190000Y-08960000D03*
D16*
X003190000Y-11500000D03*
D16*
X003190000Y-14040000D03*
D16*
X010810000Y-08960000D03*
D16*
X010810000Y-11500000D03*
D16*
X010810000Y-14040000D03*
D17*
X014800000Y-11270000D03*
D17*
X014800000Y-08730000D03*
D18*
X-01800000Y-16000000D03*
D18*
X001800000Y-16000000D03*
D19*
X-08450000Y013300000D03*
D19*
X-07500000Y013300000D03*
D19*
X-06550000Y013300000D03*
D19*
X-06550000Y015900000D03*
D19*
X-08450000Y015900000D03*
D21*
X-11000000Y014600000D03*
D21*
X-09400000Y014600000D03*
D21*
X-08300000Y017100000D03*
D21*
X-06700000Y017100000D03*
D21*
X-08300000Y011800000D03*
D21*
X-06700000Y011800000D03*
D23*
X004250000Y012500000D03*
D23*
X006150000Y012500000D03*
D23*
X005200000Y014500000D03*
D25*
X008150000Y013500000D03*
D25*
X011450000Y013500000D03*
D21*
X004400000Y016500000D03*
D21*
X006000000Y016500000D03*
D23*
X-16450000Y-08000000D03*
D23*
X-14550000Y-08000000D03*
D23*
X-15500000Y-06000000D03*
D21*
X-16300000Y-10000000D03*
D21*
X-14700000Y-10000000D03*
D25*
X017150000Y-06000000D03*
D25*
X013850000Y-06000000D03*
D23*
X-05450000Y-08500000D03*
D23*
X-03550000Y-08500000D03*
D23*
X-04500000Y-06500000D03*
D23*
X-00950000Y-08500000D03*
D23*
X000950000Y-08500000D03*
D23*
X000000000Y-06500000D03*
D21*
X-05300000Y-04500000D03*
D21*
X-03700000Y-04500000D03*
D21*
X-00800000Y-04500000D03*
D21*
X000800000Y-04500000D03*
D10*
X017059000Y-00206000D02*
X017059000Y-00206000D01*
D10*
X017059000Y-00206000D02*
X017059000Y009799761D01*
D10*
X017059000Y009799761D02*
X015296083Y011562678D01*
D10*
X015296083Y011562678D02*
X010867729Y011562678D01*
D10*
X010867729Y011562678D02*
X010817761Y011612647D01*
D10*
X010817761Y011612647D02*
X010755353Y011612647D01*
D10*
X010755353Y011612647D02*
X010630000Y011738000D01*
D10*
X010630000Y011738000D02*
X010630000Y011738000D01*
D10*
X004604710Y014386035D02*
X004604710Y014386035D01*
D10*
X004604710Y014386035D02*
X005086035Y014386035D01*
D10*
X005086035Y014386035D02*
X005200000Y014500000D01*
D11*
X-06550000Y013300000D02*
X-05526919Y012280918D01*
D11*
X-05526919Y012280918D02*
X-05528552Y010971600D01*
D11*
X-05528552Y010971600D02*
X-07171470Y009328637D01*
D11*
X-07171470Y009328637D02*
X-07568654Y009329995D01*
D11*
X-07568654Y009329995D02*
X-07667995Y009329995D01*
D11*
X-07667995Y009329995D02*
X-07682000Y009344000D01*
D11*
X-07682000Y009344000D02*
X-07682000Y009344000D01*
D11*
X-07983657Y010802927D02*
X-07983657Y010802927D01*
D11*
X-07983657Y010802927D02*
X-07948264Y011448264D01*
D11*
X-07948264Y011448264D02*
X-08300000Y011800000D01*
D11*
X-01800000Y-16000000D02*
X-00906137Y-16000000D01*
D11*
X-00906137Y-16000000D02*
X002350675Y-12743188D01*
D11*
X002350675Y-12743188D02*
X005086254Y-12743188D01*
D11*
X005086254Y-12743188D02*
X005625926Y-12199642D01*
D11*
X005625926Y-12199642D02*
X007853697Y-12203038D01*
D11*
X007853697Y-12203038D02*
X009813050Y-10244163D01*
D11*
X009813050Y-10244163D02*
X013774163Y-10244163D01*
D11*
X013774163Y-10244163D02*
X014800000Y-11270000D01*
D11*
X-01800000Y-16000000D02*
X-01800000Y-15000016D01*
D11*
X-01800000Y-15000016D02*
X-01800001Y-15000015D01*
D11*
X-01800001Y-15000015D02*
X-01994993Y-15000015D01*
D11*
X-01994993Y-15000015D02*
X-01995000Y-15000008D01*
D11*
X-01995000Y-15000008D02*
X-01995000Y-15000008D01*
D11*
X-08539000Y-06990000D02*
X-08539000Y-06990000D01*
D11*
X-08539000Y-06990000D02*
X-08539000Y-05194825D01*
D11*
X-08539000Y-05194825D02*
X-08682483Y-05051342D01*
D11*
X-08682483Y-05051342D02*
X-08682483Y-05033517D01*
D11*
X-08682483Y-05033517D02*
X-08708230Y-05000102D01*
D11*
X-08708230Y-05000102D02*
X-08708230Y-05000102D01*
D11*
X-09138000Y-00313000D02*
X-09138000Y-00313000D01*
D11*
X-09138000Y-00313000D02*
X-09138000Y004194796D01*
D11*
X-09138000Y004194796D02*
X-08085648Y005247148D01*
D11*
X-08085648Y005247148D02*
X-08085648Y005274286D01*
D11*
X-08085648Y005274286D02*
X-07933995Y005425939D01*
D11*
X-07933995Y005425939D02*
X-07933995Y005425939D01*
D11*
X-08576126Y010501741D02*
X-08576126Y010501741D01*
D11*
X-08576126Y010501741D02*
X-08465736Y011634264D01*
D11*
X-08465736Y011634264D02*
X-08300000Y011800000D01*
D12*
X-08450000Y015900000D02*
X-09700000Y015900000D01*
D12*
X-09700000Y015900000D02*
X-11000000Y014600000D01*
D11*
X-06700000Y011800000D02*
X-06700000Y011459808D01*
D11*
X-06700000Y011459808D02*
X-07166498Y010993310D01*
D11*
X-07166498Y010993310D02*
X-07257743Y010993310D01*
D11*
X-07257743Y010993310D02*
X-07335729Y010951131D01*
D11*
X-07335729Y010951131D02*
X-07335729Y010951131D01*
D11*
X-11740000Y014454922D02*
X-11740000Y014454922D01*
D11*
X-11740000Y014454922D02*
X-11667424Y014164395D01*
D11*
X-11667424Y014164395D02*
X-11528629Y014008770D01*
D11*
X-11528629Y014008770D02*
X-11424204Y013921987D01*
D11*
X-11424204Y013921987D02*
X-08829428Y013922601D01*
D11*
X-08829428Y013922601D02*
X-08759602Y013991553D01*
D11*
X-08759602Y013991553D02*
X-07947994Y013991553D01*
D11*
X-07947994Y013991553D02*
X-07947994Y013747994D01*
D11*
X-07947994Y013747994D02*
X-07500000Y013300000D01*
D11*
X-07500000Y013300000D02*
X-07500000Y013403678D01*
D11*
X-07500000Y013403678D02*
X-07956964Y013860642D01*
D11*
X-07956964Y013860642D02*
X-08696322Y014600000D01*
D11*
X-08696322Y014600000D02*
X-09400000Y014600000D01*
D11*
X-09400000Y014600000D02*
X-08684632Y014600000D01*
D11*
X-08684632Y014600000D02*
X-07245999Y016038633D01*
D11*
X-07245999Y016038633D02*
X-07245999Y016554001D01*
D11*
X-07245999Y016554001D02*
X-06700000Y017100000D01*
D11*
X-06700000Y017100000D02*
X-05908270Y017100000D01*
D11*
X-05908270Y017100000D02*
X-05657029Y017351241D01*
D11*
X-05657029Y017351241D02*
X-05654759Y017351241D01*
D11*
X-05654759Y017351241D02*
X-05575000Y017426777D01*
D11*
X-05575000Y017426777D02*
X-05575000Y017426777D01*
D11*
X006630000Y016767000D02*
X006630000Y016767000D01*
D11*
X006630000Y016767000D02*
X006267000Y016767000D01*
D11*
X006267000Y016767000D02*
X006000000Y016500000D01*
D11*
X-06700000Y011800000D02*
X-06700000Y010466900D01*
D11*
X-06700000Y010466900D02*
X-06687391Y010454291D01*
D11*
X-06687391Y010454291D02*
X-06687391Y010440609D01*
D11*
X-06687391Y010440609D02*
X-06708466Y010377765D01*
D11*
X-06708466Y010377765D02*
X-06708466Y010377765D01*
D11*
X-07143000Y004609000D02*
X-07143000Y004609000D01*
D11*
X-07143000Y004609000D02*
X-07143000Y001444564D01*
D11*
X-07143000Y001444564D02*
X-07732081Y000855483D01*
D11*
X-07732081Y000855483D02*
X-07761517Y000855483D01*
D11*
X-07761517Y000855483D02*
X-07848000Y000769000D01*
D11*
X-07848000Y000769000D02*
X-07848000Y000769000D01*
D11*
X-07068000Y-03614000D02*
X-07068000Y-03614000D01*
D11*
X-07068000Y-03614000D02*
X-07068000Y-08142389D01*
D11*
X-07068000Y-08142389D02*
X-05854364Y-09356025D01*
D11*
X-05854364Y-09356025D02*
X-03377916Y-09356025D01*
D11*
X-03377916Y-09356025D02*
X-03188069Y-09545872D01*
D11*
X-03188069Y-09545872D02*
X-03089836Y-09545872D01*
D11*
X-03089836Y-09545872D02*
X-03037099Y-09585578D01*
D11*
X-03037099Y-09585578D02*
X-03037099Y-09585578D01*
D11*
X000800008Y-16000000D02*
X000800008Y-16000000D01*
D11*
X000800008Y-16000000D02*
X001800000Y-16000000D01*
D11*
X-06550000Y015900000D02*
X-04416999Y015900000D01*
D11*
X-04416999Y015900000D02*
X-02920132Y017396867D01*
D11*
X-02920132Y017396867D02*
X000052582Y017396867D01*
D11*
X000052582Y017396867D02*
X000071701Y017377748D01*
D11*
X000071701Y017377748D02*
X000075252Y017377748D01*
D11*
X000075252Y017377748D02*
X000157000Y017296000D01*
D11*
X000157000Y017296000D02*
X000157000Y017296000D01*
D11*
X-07440000Y017279464D02*
X-07440000Y017279464D01*
D11*
X-07440000Y017279464D02*
X-08120536Y017279464D01*
D11*
X-08120536Y017279464D02*
X-08300000Y017100000D01*
D11*
X004250000Y012500000D02*
X005762102Y013992383D01*
D11*
X005762102Y013992383D02*
X005752248Y015127480D01*
D11*
X005752248Y015127480D02*
X005749047Y015144554D01*
D11*
X005749047Y015144554D02*
X004400000Y016500000D01*
D11*
X011450000Y013500000D02*
X009811485Y011860744D01*
D11*
X009811485Y011860744D02*
X004888515Y011859639D01*
D11*
X004888515Y011859639D02*
X004250000Y012500000D01*
D11*
X-11390000Y010390000D02*
X-11002629Y010002629D01*
D11*
X-11002629Y010002629D02*
X-07585371Y010002629D01*
D11*
X-07585371Y010002629D02*
X-07526000Y010062000D01*
D11*
X-07526000Y010062000D02*
X-07526000Y010062000D01*
D11*
X-06573000Y015038000D02*
X-06573000Y015038000D01*
D11*
X-06573000Y015038000D02*
X-06573000Y015877000D01*
D11*
X-06573000Y015877000D02*
X-06550000Y015900000D01*
D11*
X-06550000Y015900000D02*
X-05773382Y016689940D01*
D11*
X-05773382Y016689940D02*
X004223386Y016690206D01*
D11*
X004223386Y016690206D02*
X004400000Y016500000D01*
D12*
X010810000Y-08960000D02*
X010677096Y-09093058D01*
D12*
X010677096Y-09093058D02*
X006115334Y-09093415D01*
D12*
X006115334Y-09093415D02*
X006023105Y-09092904D01*
D12*
X006023105Y-09092904D02*
X005204650Y-08274448D01*
D12*
X005204650Y-08274448D02*
X005204650Y001584650D01*
D12*
X005204650Y001584650D02*
X006390000Y002770000D01*
D12*
X-11390000Y-07390000D02*
X-08780988Y-10004955D01*
D12*
X-08780988Y-10004955D02*
X001779023Y-10006099D01*
D12*
X001779023Y-10006099D02*
X002150988Y-09999012D01*
D12*
X002150988Y-09999012D02*
X003190000Y-08960000D01*
D12*
X-11390000Y002770000D02*
X-13425475Y000734525D01*
D12*
X-13425475Y000734525D02*
X-13425475Y-01136787D01*
D12*
X-13425475Y-01136787D02*
X-13425475Y-01261475D01*
D12*
X-13425475Y-01261475D02*
X-13480000Y-01316000D01*
D12*
X-13480000Y-01316000D02*
X-13480000Y-01316000D01*
D11*
X006150000Y012500000D02*
X007150000Y012500000D01*
D11*
X007150000Y012500000D02*
X008150000Y013500000D01*
D11*
X015500000Y-01230000D02*
X017150000Y-02880000D01*
D11*
X017150000Y-02880000D02*
X017150000Y-06000000D01*
D11*
X015500000Y-01230000D02*
X014126450Y-01230000D01*
D11*
X014126450Y-01230000D02*
X013153221Y-00256770D01*
D11*
X013153221Y-00256770D02*
X013124770Y-00256770D01*
D11*
X013124770Y-00256770D02*
X012989000Y-00121000D01*
D11*
X012989000Y-00121000D02*
X012989000Y-00121000D01*
D11*
X012581000Y012520000D02*
X012581000Y012520000D01*
D11*
X012581000Y012520000D02*
X012581000Y013894243D01*
D11*
X012581000Y013894243D02*
X012139958Y014335285D01*
D11*
X012139958Y014335285D02*
X008985285Y014335285D01*
D11*
X008985285Y014335285D02*
X008150000Y013500000D01*
D11*
X-15500000Y-01230000D02*
X-14207553Y000062447D01*
D11*
X-14207553Y000062447D02*
X-14207553Y001984470D01*
D11*
X-14207553Y001984470D02*
X-14207553Y002037447D01*
D11*
X-14207553Y002037447D02*
X-14142000Y002103000D01*
D11*
X-14142000Y002103000D02*
X-14142000Y002103000D01*
D11*
X-14036000Y005673000D02*
X-14036000Y005673000D01*
D11*
X-14036000Y005673000D02*
X-12803049Y006905951D01*
D11*
X-12803049Y006905951D02*
X-12803049Y012410135D01*
D11*
X-12803049Y012410135D02*
X-12152873Y013127562D01*
D11*
X-12152873Y013127562D02*
X-12149160Y015860553D01*
D11*
X-12149160Y015860553D02*
X-10106802Y017842269D01*
D11*
X-10106802Y017842269D02*
X004302943Y017840702D01*
D11*
X004302943Y017840702D02*
X005404319Y016737999D01*
D11*
X005404319Y016737999D02*
X005404319Y016052241D01*
D11*
X005404319Y016052241D02*
X005406674Y015864205D01*
D11*
X005406674Y015864205D02*
X006151529Y015117705D01*
D11*
X006151529Y015117705D02*
X006150000Y012500000D01*
D11*
X-15500000Y-03770000D02*
X-15500000Y-06000000D01*
D11*
X015500000Y-03770000D02*
X015500000Y-04350000D01*
D11*
X015500000Y-04350000D02*
X013850000Y-06000000D01*
D11*
X-15500000Y-06000000D02*
X-14572103Y-06000000D01*
D11*
X-14572103Y-06000000D02*
X-13632959Y-06939144D01*
D11*
X-13632959Y-06939144D02*
X-13633494Y-08327909D01*
D11*
X-13633494Y-08327909D02*
X-11465011Y-10506204D01*
D11*
X-11465011Y-10506204D02*
X002075205Y-10500769D01*
D11*
X002075205Y-10500769D02*
X002226696Y-10349278D01*
D11*
X002226696Y-10349278D02*
X005292485Y-10349278D01*
D11*
X005292485Y-10349278D02*
X005528235Y-10585028D01*
D11*
X005528235Y-10585028D02*
X006362948Y-10585028D01*
D11*
X006362948Y-10585028D02*
X006647905Y-10300071D01*
D11*
X006647905Y-10300071D02*
X006647905Y-10288935D01*
D11*
X006647905Y-10288935D02*
X006789124Y-10147715D01*
D11*
X006789124Y-10147715D02*
X006789124Y-10147715D01*
D11*
X007179000Y-08673333D02*
X007179000Y-08673333D01*
D11*
X007179000Y-08673333D02*
X007868622Y-07984378D01*
D11*
X007868622Y-07984378D02*
X007868622Y-06213683D01*
D11*
X007868622Y-06213683D02*
X013636317Y-06213683D01*
D11*
X013636317Y-06213683D02*
X013850000Y-06000000D01*
D11*
X-16300000Y-10000000D02*
X-16300000Y-08150000D01*
D11*
X-16300000Y-08150000D02*
X-16450000Y-08000000D01*
D11*
X-16450000Y-08000000D02*
X-17010021Y-07439979D01*
D11*
X-17010021Y-07439979D02*
X-17010021Y-03686895D01*
D11*
X-17010021Y-03686895D02*
X-17010021Y-03678021D01*
D11*
X-17010021Y-03678021D02*
X-16926000Y-03594000D01*
D11*
X-16926000Y-03594000D02*
X-16926000Y-03594000D01*
D11*
X-17102000Y001494000D02*
X-17102000Y001494000D01*
D11*
X-17102000Y001494000D02*
X-17102000Y006475500D01*
D11*
X-17102000Y006475500D02*
X-16737067Y006840433D01*
D11*
X-16737067Y006840433D02*
X-16771229Y006880278D01*
D11*
X-16771229Y006880278D02*
X-16653096Y007798593D01*
D11*
X-16653096Y007798593D02*
X-16472124Y007770000D01*
D11*
X-16472124Y007770000D02*
X-14507387Y007767808D01*
D11*
X-14507387Y007767808D02*
X-14304443Y007965140D01*
D11*
X-14304443Y007965140D02*
X-14309411Y011602386D01*
D11*
X-14309411Y011602386D02*
X-12463374Y013448423D01*
D11*
X-12463374Y013448423D02*
X-12463374Y016068589D01*
D11*
X-12463374Y016068589D02*
X-10344801Y018187162D01*
D11*
X-10344801Y018187162D02*
X007312376Y018187162D01*
D11*
X007312376Y018187162D02*
X007724197Y017775342D01*
D11*
X007724197Y017775342D02*
X007727658Y017775342D01*
D11*
X007727658Y017775342D02*
X007751000Y017752000D01*
D11*
X007751000Y017752000D02*
X007751000Y017752000D01*
D11*
X004626339Y004140744D02*
X004626339Y004140744D01*
D11*
X004626339Y004140744D02*
X005761000Y005310000D01*
D11*
X005761000Y005310000D02*
X006390000Y005310000D01*
D10*
X-03700000Y-04500000D02*
X-03700000Y-04564000D01*
D10*
X-03700000Y-04564000D02*
X-02693324Y-05570676D01*
D10*
X-02693324Y-05570676D02*
X-02661000Y-05603000D01*
D10*
X-02661000Y-05603000D02*
X-02661000Y-05603000D01*
D10*
X-02702000Y-07248000D02*
X-02702000Y-07248000D01*
D10*
X-02702000Y-07248000D02*
X-02702000Y-07652000D01*
D10*
X-02702000Y-07652000D02*
X-03550000Y-08500000D01*
D11*
X-05300000Y-04500000D02*
X-05300000Y-08350000D01*
D11*
X-05300000Y-08350000D02*
X-05450000Y-08500000D01*
D11*
X000000000Y-06500000D02*
X-03300000Y-06500000D01*
D11*
X-03300000Y-06500000D02*
X-05300000Y-04500000D01*
D11*
X-00950000Y-08500000D02*
X000541909Y-07031029D01*
D11*
X000541909Y-07031029D02*
X000539156Y-05616353D01*
D11*
X000539156Y-05616353D02*
X000316409Y-05616409D01*
D11*
X000316409Y-05616409D02*
X-00800000Y-04500000D01*
D11*
X-00800000Y-04500000D02*
X-00629453Y-04500000D01*
D11*
X-00629453Y-04500000D02*
X002756163Y-01114383D01*
D11*
X002756163Y-01114383D02*
X002761617Y-01114383D01*
D11*
X002761617Y-01114383D02*
X002790000Y-01086000D01*
D11*
X002790000Y-01086000D02*
X002790000Y-01086000D01*
D11*
X005715000Y-02310000D02*
X005715000Y-02310000D01*
D11*
X005715000Y-02310000D02*
X006390000Y-02310000D01*
D13*
X-15500000Y003960000D02*
X-15504227Y001032995D01*
D13*
X-15504227Y001032995D02*
X-17498489Y-00958662D01*
D13*
X-17498489Y-00958662D02*
X-17496460Y-09923439D01*
D13*
X-17496460Y-09923439D02*
X-15176930Y-12238763D01*
D13*
X-15176930Y-12238763D02*
X-13752363Y-12237365D01*
D13*
X-13752363Y-12237365D02*
X-12960695Y-12874778D01*
D13*
X-12960695Y-12874778D02*
X-12841391Y-13350129D01*
D13*
X-12841391Y-13350129D02*
X-12905275Y-13381629D01*
D13*
X-12905275Y-13381629D02*
X-12905275Y-13719845D01*
D13*
X-12905275Y-13719845D02*
X-10318455Y-16306665D01*
D13*
X-10318455Y-16306665D02*
X-05700019Y-16306665D01*
D13*
X-05700019Y-16306665D02*
X-05608021Y-16398662D01*
D13*
X-05608021Y-16398662D02*
X-05403662Y-16398662D01*
D13*
X-05403662Y-16398662D02*
X-05399000Y-16394000D01*
D13*
X-05399000Y-16394000D02*
X-05399000Y-16394000D01*
D13*
X-03907000Y-06593000D02*
X-03907000Y-06593000D01*
D13*
X-03907000Y-06593000D02*
X-04407000Y-06593000D01*
D13*
X-04407000Y-06593000D02*
X-04500000Y-06500000D01*
D13*
X-15500000Y003960000D02*
X-15063902Y003960000D01*
D13*
X-15063902Y003960000D02*
X-12543913Y006479988D01*
D13*
X-12543913Y006479988D02*
X-12543913Y011325134D01*
D13*
X-12543913Y011325134D02*
X-11374098Y012494949D01*
D13*
X-11374098Y012494949D02*
X-06233773Y012494949D01*
D13*
X-06233773Y012494949D02*
X-06031803Y012292979D01*
D13*
X-06031803Y012292979D02*
X-06031803Y012198762D01*
D13*
X-06031803Y012198762D02*
X-05942294Y012104675D01*
D13*
X-05942294Y012104675D02*
X-05942294Y012104675D01*
D13*
X-05168000Y012498000D02*
X-05168000Y012498000D01*
D13*
X-05168000Y012498000D02*
X-05168000Y012872000D01*
D13*
X-05168000Y012872000D02*
X-02540000Y015500000D01*
D11*
X-02540000Y015500000D02*
X002502550Y010457450D01*
D11*
X002502550Y010457450D02*
X002502550Y005589037D01*
D11*
X002502550Y005589037D02*
X004350775Y003723899D01*
D11*
X004350775Y003723899D02*
X004962505Y003728000D01*
D11*
X004962505Y003728000D02*
X005306059Y004084454D01*
D11*
X005306059Y004084454D02*
X011818002Y004084454D01*
D11*
X011818002Y004084454D02*
X012808411Y005074864D01*
D11*
X012808411Y005074864D02*
X014385136Y005074864D01*
D11*
X014385136Y005074864D02*
X015500000Y003960000D01*
D12*
X-00285978Y001596460D02*
X-00285978Y001596460D01*
D12*
X-00285978Y001596460D02*
X-00135487Y001596460D01*
D12*
X-00135487Y001596460D02*
X000817426Y000643547D01*
D12*
X000817426Y000643547D02*
X000817538Y000643547D01*
D12*
X000817538Y000643547D02*
X000869484Y000591601D01*
D12*
X000869484Y000591601D02*
X000869484Y000591601D01*
D12*
X013157811Y004593606D02*
X013157811Y004593606D01*
D12*
X013157811Y004593606D02*
X009938393Y001374189D01*
D12*
X009938393Y001374189D02*
X007742417Y001374189D01*
D12*
X007742417Y001374189D02*
X007742417Y-03497583D01*
D12*
X007742417Y-03497583D02*
X006390000Y-04850000D01*
D12*
X000000000Y015500000D02*
X002862098Y012637626D01*
D12*
X002862098Y012637626D02*
X002855197Y009935729D01*
D12*
X002855197Y009935729D02*
X002862374Y009779873D01*
D12*
X002862374Y009779873D02*
X004684812Y007957435D01*
D12*
X004684812Y007957435D02*
X006282565Y007957435D01*
D12*
X006282565Y007957435D02*
X006390000Y007850000D01*
D11*
X-14700000Y-10000000D02*
X-14700000Y-08150000D01*
D11*
X-14700000Y-08150000D02*
X-14550000Y-08000000D01*
D11*
X000950000Y-08500000D02*
X000950000Y-04650000D01*
D11*
X000950000Y-04650000D02*
X000800000Y-04500000D01*
D11*
X003190000Y-14040000D02*
X004441696Y-14040000D01*
D11*
X004441696Y-14040000D02*
X005854325Y-12627371D01*
D11*
X005854325Y-12627371D02*
X005871033Y-12615016D01*
D11*
X005871033Y-12615016D02*
X005871033Y-12615016D01*
D11*
X005715000Y-10114000D02*
X005715000Y-10114000D01*
D11*
X005715000Y-10114000D02*
X005715000Y-09205297D01*
D11*
X005715000Y-09205297D02*
X004278736Y-07769033D01*
D11*
X004278736Y-07769033D02*
X001680967Y-07769033D01*
D11*
X001680967Y-07769033D02*
X000950000Y-08500000D01*
D11*
X-14700000Y-10000000D02*
X-12967566Y-11732434D01*
D11*
X-12967566Y-11732434D02*
X-10267566Y-11732434D01*
D11*
X-10267566Y-11732434D02*
X-08500000Y-13500000D01*
D11*
X010810000Y-14040000D02*
X003190000Y-14040000D01*
D11*
X-08500000Y-13500000D02*
X-06220263Y-11220263D01*
D11*
X-06220263Y-11220263D02*
X-00430978Y-11220263D01*
D11*
X-00430978Y-11220263D02*
X-00315263Y-11220263D01*
D11*
X-00315263Y-11220263D02*
X-00243000Y-11148000D01*
D11*
X-00243000Y-11148000D02*
X-00243000Y-11148000D01*
D11*
X000242000Y-09554000D02*
X000242000Y-09554000D01*
D11*
X000242000Y-09554000D02*
X000242000Y-09208000D01*
D11*
X000242000Y-09208000D02*
X000950000Y-08500000D01*
D11*
X000800000Y-04500000D02*
X003257944Y-02042056D01*
D11*
X003257944Y-02042056D02*
X003257944Y001705525D01*
D11*
X003257944Y001705525D02*
X003257944Y001798056D01*
D11*
X003257944Y001798056D02*
X003050000Y002006000D01*
D11*
X003050000Y002006000D02*
X003050000Y002006000D01*
D11*
X008300000Y007850000D02*
X008300000Y007850000D01*
D11*
X008300000Y007850000D02*
X009000000Y007850000D01*
D11*
X-11390000Y007850000D02*
X-11890000Y007850000D01*
D11*
X-11890000Y007850000D02*
X-12065000Y007850000D01*
D11*
X-12065000Y007850000D02*
X-12065000Y007850000D01*
D11*
X-14227000Y-07081000D02*
X-14227000Y-07081000D01*
D11*
X-14227000Y-07081000D02*
X-14227000Y-07677000D01*
D11*
X-14227000Y-07677000D02*
X-14550000Y-08000000D01*
D11*
X-11040000Y-13500000D02*
X-11040000Y-12293538D01*
D11*
X-11040000Y-12293538D02*
X-11070733Y-12262805D01*
D11*
X-11070733Y-12262805D02*
X-11124195Y-12262805D01*
D11*
X-11124195Y-12262805D02*
X-11201000Y-12186000D01*
D11*
X-11201000Y-12186000D02*
X-11201000Y-12186000D01*
D11*
X-11365205Y-10018259D02*
X-11365205Y-10018259D01*
D11*
X-11365205Y-10018259D02*
X-12607277Y-08763723D01*
D11*
X-12607277Y-08763723D02*
X-12607277Y000467807D01*
D11*
X-12607277Y000467807D02*
X-12607277Y000489277D01*
D11*
X-12607277Y000489277D02*
X-12614000Y000496000D01*
D11*
X-12614000Y000496000D02*
X-12614000Y000496000D01*
D11*
X-12526731Y003862018D02*
X-12526731Y003862018D01*
D11*
X-12526731Y003862018D02*
X-12505000Y004195000D01*
D11*
X-12505000Y004195000D02*
X-11390000Y005310000D01*
D11*
X-11390000Y005310000D02*
X-08161711Y008538289D01*
D11*
X-08161711Y008538289D02*
X001272533Y008538289D01*
D11*
X001272533Y008538289D02*
X001299289Y008538289D01*
D11*
X001299289Y008538289D02*
X001363000Y008602000D01*
D11*
X001363000Y008602000D02*
X001363000Y008602000D01*
D11*
X003275454Y010035999D02*
X003275454Y010035999D01*
D11*
X003275454Y010035999D02*
X004722008Y011490008D01*
D11*
X004722008Y011490008D02*
X008751584Y011490008D01*
D11*
X008751584Y011490008D02*
X008751584Y010638416D01*
D11*
X008751584Y010638416D02*
X009000000Y010390000D01*
D11*
X-11040000Y-13500000D02*
X-09855104Y-14684896D01*
D11*
X-09855104Y-14684896D02*
X-03583727Y-14684896D01*
D11*
X-03583727Y-14684896D02*
X-02814057Y-13915226D01*
D11*
X-02814057Y-13915226D02*
X000346983Y-13915226D01*
D11*
X000346983Y-13915226D02*
X000484226Y-13915226D01*
D11*
X000484226Y-13915226D02*
X000493000Y-13924000D01*
D11*
X000493000Y-13924000D02*
X000493000Y-13924000D01*
D11*
X004782000Y-11822000D02*
X004782000Y-11822000D01*
D11*
X004782000Y-11822000D02*
X006855952Y-11822000D01*
D11*
X006855952Y-11822000D02*
X006977952Y-11700000D01*
D11*
X006977952Y-11700000D02*
X007097000Y-11700000D01*
D11*
X007097000Y-11700000D02*
X007098000Y-11701000D01*
D11*
X007098000Y-11701000D02*
X007098000Y-11701000D01*
D11*
X010810000Y-10800000D02*
X010810000Y-10800000D01*
D11*
X010810000Y-10800000D02*
X010810000Y-11500000D01*
D12*
X006390000Y010390000D02*
X007792694Y008987306D01*
D12*
X007792694Y008987306D02*
X007792694Y006721110D01*
D12*
X007792694Y006721110D02*
X010627450Y006721110D01*
D12*
X010627450Y006721110D02*
X010868410Y006480150D01*
D12*
X010868410Y006480150D02*
X010871850Y006480150D01*
D12*
X010871850Y006480150D02*
X010992000Y006360000D01*
D12*
X010992000Y006360000D02*
X010992000Y006360000D01*
D12*
X-11390000Y-02310000D02*
X-08804069Y-02310000D01*
D12*
X-08804069Y-02310000D02*
X-07804465Y-01310396D01*
D12*
X-07804465Y-01310396D02*
X-07783820Y-01289751D01*
D12*
X-07783820Y-01289751D02*
X-07783820Y-01289751D01*
D11*
X-11390000Y-04850000D02*
X-09144490Y-04849444D01*
D11*
X-09144490Y-04849444D02*
X-01539974Y002753982D01*
D11*
X-01539974Y002753982D02*
X003098104Y002753971D01*
D11*
X003098104Y002753971D02*
X003177042Y002832910D01*
D11*
X003177042Y002832910D02*
X003305910Y002832910D01*
D11*
X003305910Y002832910D02*
X003322000Y002849000D01*
D11*
X003322000Y002849000D02*
X003322000Y002849000D01*
D36*
X017059000Y-00206000D03*
D36*
X010630000Y011738000D03*
D36*
X004604710Y014386035D03*
D36*
X-07682000Y009344000D03*
D36*
X-07983657Y010802927D03*
D36*
X-08539000Y-06990000D03*
D36*
X-08708230Y-05000102D03*
D36*
X-09138000Y-00313000D03*
D36*
X-07933995Y005425939D03*
D36*
X-08576126Y010501741D03*
D36*
X-07335729Y010951131D03*
D36*
X-11740000Y014454922D03*
D36*
X-05575000Y017426777D03*
D36*
X006630000Y016767000D03*
D36*
X-06708466Y010377765D03*
D36*
X-07143000Y004609000D03*
D36*
X-07848000Y000769000D03*
D36*
X-07068000Y-03614000D03*
D36*
X-03037099Y-09585578D03*
D36*
X000157000Y017296000D03*
D36*
X-07440000Y017279464D03*
D36*
X-07526000Y010062000D03*
D36*
X-06573000Y015038000D03*
D36*
X-13480000Y-01316000D03*
D36*
X012989000Y-00121000D03*
D36*
X012581000Y012520000D03*
D36*
X-14142000Y002103000D03*
D36*
X-14036000Y005673000D03*
D36*
X006789124Y-10147715D03*
D36*
X007179000Y-08673333D03*
D36*
X-16926000Y-03594000D03*
D36*
X-17102000Y001494000D03*
D36*
X007751000Y017752000D03*
D36*
X004626339Y004140744D03*
D36*
X-02661000Y-05603000D03*
D36*
X-02702000Y-07248000D03*
D36*
X002790000Y-01086000D03*
D36*
X-05399000Y-16394000D03*
D36*
X-03907000Y-06593000D03*
D36*
X-05942294Y012104675D03*
D36*
X-05168000Y012498000D03*
D36*
X-00285978Y001596460D03*
D36*
X000869484Y000591601D03*
D36*
X013157811Y004593606D03*
D36*
X005871033Y-12615016D03*
D36*
X005715000Y-10114000D03*
D36*
X-00243000Y-11148000D03*
D36*
X000242000Y-09554000D03*
D36*
X003050000Y002006000D03*
D36*
X-14227000Y-07081000D03*
D36*
X-11201000Y-12186000D03*
D36*
X-11365205Y-10018259D03*
D36*
X-12614000Y000496000D03*
D36*
X-12526731Y003862018D03*
D36*
X001363000Y008602000D03*
D36*
X003275454Y010035999D03*
D36*
X000493000Y-13924000D03*
D36*
X004782000Y-11822000D03*
D36*
X007098000Y-11701000D03*
D36*
X010992000Y006360000D03*
D36*
X-07783820Y-01289751D03*
D36*
X003322000Y002849000D03*
M02*