solid eurorack_std_slipon
facet normal 0.8464 0.5300 0.0532
  outer loop
    vertex 10.2500 0.0000 0.0000
    vertex 4.9172 8.5168 0.0000
    vertex 4.4047 7.6291 17.0000
  endloop
endfacet
facet normal 0.8443 0.5335 0.0509
  outer loop
    vertex 10.2500 0.0000 0.0000
    vertex 4.4047 7.6291 17.0000
    vertex 9.2250 0.0000 17.0000
  endloop
endfacet
facet normal 0.0700 0.9963 0.0499
  outer loop
    vertex 4.9172 8.5168 0.0000
    vertex -5.3328 9.2368 0.0000
    vertex -4.8203 8.3491 17.0000
  endloop
endfacet
facet normal 0.0777 0.9955 0.0543
  outer loop
    vertex 4.9172 8.5168 0.0000
    vertex -4.8203 8.3491 17.0000
    vertex 4.4047 7.6291 17.0000
  endloop
endfacet
facet normal -0.8815 0.4692 0.0531
  outer loop
    vertex -5.3328 9.2368 0.0000
    vertex -10.2500 0.0000 0.0000
    vertex -9.2250 0.0000 17.0000
  endloop
endfacet
facet normal -0.8833 0.4660 0.0510
  outer loop
    vertex -5.3328 9.2368 0.0000
    vertex -9.2250 0.0000 17.0000
    vertex -4.8203 8.3491 17.0000
  endloop
endfacet
facet normal -0.8464 -0.5300 0.0532
  outer loop
    vertex -10.2500 0.0000 0.0000
    vertex -4.9172 -8.5168 0.0000
    vertex -4.4047 -7.6291 17.0000
  endloop
endfacet
facet normal -0.8443 -0.5335 0.0509
  outer loop
    vertex -10.2500 0.0000 0.0000
    vertex -4.4047 -7.6291 17.0000
    vertex -9.2250 0.0000 17.0000
  endloop
endfacet
facet normal -0.0700 -0.9963 0.0499
  outer loop
    vertex -4.9172 -8.5168 0.0000
    vertex 5.3328 -9.2368 0.0000
    vertex 4.8203 -8.3491 17.0000
  endloop
endfacet
facet normal -0.0777 -0.9955 0.0543
  outer loop
    vertex -4.9172 -8.5168 0.0000
    vertex 4.8203 -8.3491 17.0000
    vertex -4.4047 -7.6291 17.0000
  endloop
endfacet
facet normal 0.8815 -0.4692 0.0531
  outer loop
    vertex 5.3328 -9.2368 0.0000
    vertex 10.2500 0.0000 0.0000
    vertex 9.2250 0.0000 17.0000
  endloop
endfacet
facet normal 0.8833 -0.4660 0.0510
  outer loop
    vertex 5.3328 -9.2368 0.0000
    vertex 9.2250 0.0000 17.0000
    vertex 4.8203 -8.3491 17.0000
  endloop
endfacet
facet normal -0.9914 -0.1305 0.0000
  outer loop
    vertex 6.3268 1.6953 0.0000
    vertex 6.5500 0.0000 0.0000
    vertex 6.5500 0.0000 15.0000
  endloop
endfacet
facet normal -0.9914 -0.1305 0.0000
  outer loop
    vertex 6.3268 1.6953 0.0000
    vertex 6.5500 0.0000 15.0000
    vertex 6.3268 1.6953 15.0000
  endloop
endfacet
facet normal -0.9239 -0.3827 0.0000
  outer loop
    vertex 5.6725 3.2750 0.0000
    vertex 6.3268 1.6953 0.0000
    vertex 6.3268 1.6953 15.0000
  endloop
endfacet
facet normal -0.9239 -0.3827 0.0000
  outer loop
    vertex 5.6725 3.2750 0.0000
    vertex 6.3268 1.6953 15.0000
    vertex 5.6725 3.2750 15.0000
  endloop
endfacet
facet normal -0.7934 -0.6088 0.0000
  outer loop
    vertex 4.6315 4.6315 0.0000
    vertex 5.6725 3.2750 0.0000
    vertex 5.6725 3.2750 15.0000
  endloop
endfacet
facet normal -0.7934 -0.6088 0.0000
  outer loop
    vertex 4.6315 4.6315 0.0000
    vertex 5.6725 3.2750 15.0000
    vertex 4.6315 4.6315 15.0000
  endloop
endfacet
facet normal -0.6088 -0.7934 0.0000
  outer loop
    vertex 3.2750 5.6725 0.0000
    vertex 4.6315 4.6315 0.0000
    vertex 4.6315 4.6315 15.0000
  endloop
endfacet
facet normal -0.6088 -0.7934 0.0000
  outer loop
    vertex 3.2750 5.6725 0.0000
    vertex 4.6315 4.6315 15.0000
    vertex 3.2750 5.6725 15.0000
  endloop
endfacet
facet normal -0.3827 -0.9239 0.0000
  outer loop
    vertex 1.6953 6.3268 0.0000
    vertex 3.2750 5.6725 0.0000
    vertex 3.2750 5.6725 15.0000
  endloop
endfacet
facet normal -0.3827 -0.9239 0.0000
  outer loop
    vertex 1.6953 6.3268 0.0000
    vertex 3.2750 5.6725 15.0000
    vertex 1.6953 6.3268 15.0000
  endloop
endfacet
facet normal -0.1305 -0.9914 0.0000
  outer loop
    vertex 0.0000 6.5500 0.0000
    vertex 1.6953 6.3268 0.0000
    vertex 1.6953 6.3268 15.0000
  endloop
endfacet
facet normal -0.1305 -0.9914 0.0000
  outer loop
    vertex 0.0000 6.5500 0.0000
    vertex 1.6953 6.3268 15.0000
    vertex 0.0000 6.5500 15.0000
  endloop
endfacet
facet normal 0.1305 -0.9914 0.0000
  outer loop
    vertex -1.6953 6.3268 0.0000
    vertex 0.0000 6.5500 0.0000
    vertex 0.0000 6.5500 15.0000
  endloop
endfacet
facet normal 0.1305 -0.9914 0.0000
  outer loop
    vertex -1.6953 6.3268 0.0000
    vertex 0.0000 6.5500 15.0000
    vertex -1.6953 6.3268 15.0000
  endloop
endfacet
facet normal 0.3827 -0.9239 0.0000
  outer loop
    vertex -3.2750 5.6725 0.0000
    vertex -1.6953 6.3268 0.0000
    vertex -1.6953 6.3268 15.0000
  endloop
endfacet
facet normal 0.3827 -0.9239 0.0000
  outer loop
    vertex -3.2750 5.6725 0.0000
    vertex -1.6953 6.3268 15.0000
    vertex -3.2750 5.6725 15.0000
  endloop
endfacet
facet normal 0.6088 -0.7934 0.0000
  outer loop
    vertex -4.6315 4.6315 0.0000
    vertex -3.2750 5.6725 0.0000
    vertex -3.2750 5.6725 15.0000
  endloop
endfacet
facet normal 0.6088 -0.7934 0.0000
  outer loop
    vertex -4.6315 4.6315 0.0000
    vertex -3.2750 5.6725 15.0000
    vertex -4.6315 4.6315 15.0000
  endloop
endfacet
facet normal 0.7934 -0.6088 0.0000
  outer loop
    vertex -5.6725 3.2750 0.0000
    vertex -4.6315 4.6315 0.0000
    vertex -4.6315 4.6315 15.0000
  endloop
endfacet
facet normal 0.7934 -0.6088 0.0000
  outer loop
    vertex -5.6725 3.2750 0.0000
    vertex -4.6315 4.6315 15.0000
    vertex -5.6725 3.2750 15.0000
  endloop
endfacet
facet normal 0.9239 -0.3827 0.0000
  outer loop
    vertex -6.3268 1.6953 0.0000
    vertex -5.6725 3.2750 0.0000
    vertex -5.6725 3.2750 15.0000
  endloop
endfacet
facet normal 0.9239 -0.3827 0.0000
  outer loop
    vertex -6.3268 1.6953 0.0000
    vertex -5.6725 3.2750 15.0000
    vertex -6.3268 1.6953 15.0000
  endloop
endfacet
facet normal 0.9914 -0.1305 0.0000
  outer loop
    vertex -6.5500 0.0000 0.0000
    vertex -6.3268 1.6953 0.0000
    vertex -6.3268 1.6953 15.0000
  endloop
endfacet
facet normal 0.9914 -0.1305 0.0000
  outer loop
    vertex -6.5500 0.0000 0.0000
    vertex -6.3268 1.6953 15.0000
    vertex -6.5500 0.0000 15.0000
  endloop
endfacet
facet normal 0.9914 0.1305 0.0000
  outer loop
    vertex -6.3268 -1.6953 0.0000
    vertex -6.5500 0.0000 0.0000
    vertex -6.5500 0.0000 15.0000
  endloop
endfacet
facet normal 0.9914 0.1305 0.0000
  outer loop
    vertex -6.3268 -1.6953 0.0000
    vertex -6.5500 0.0000 15.0000
    vertex -6.3268 -1.6953 15.0000
  endloop
endfacet
facet normal 0.9239 0.3827 0.0000
  outer loop
    vertex -5.6725 -3.2750 0.0000
    vertex -6.3268 -1.6953 0.0000
    vertex -6.3268 -1.6953 15.0000
  endloop
endfacet
facet normal 0.9239 0.3827 0.0000
  outer loop
    vertex -5.6725 -3.2750 0.0000
    vertex -6.3268 -1.6953 15.0000
    vertex -5.6725 -3.2750 15.0000
  endloop
endfacet
facet normal 0.7934 0.6088 0.0000
  outer loop
    vertex -4.6315 -4.6315 0.0000
    vertex -5.6725 -3.2750 0.0000
    vertex -5.6725 -3.2750 15.0000
  endloop
endfacet
facet normal 0.7934 0.6088 0.0000
  outer loop
    vertex -4.6315 -4.6315 0.0000
    vertex -5.6725 -3.2750 15.0000
    vertex -4.6315 -4.6315 15.0000
  endloop
endfacet
facet normal 0.6088 0.7934 0.0000
  outer loop
    vertex -3.2750 -5.6725 0.0000
    vertex -4.6315 -4.6315 0.0000
    vertex -4.6315 -4.6315 15.0000
  endloop
endfacet
facet normal 0.6088 0.7934 0.0000
  outer loop
    vertex -3.2750 -5.6725 0.0000
    vertex -4.6315 -4.6315 15.0000
    vertex -3.2750 -5.6725 15.0000
  endloop
endfacet
facet normal 0.3827 0.9239 0.0000
  outer loop
    vertex -1.6953 -6.3268 0.0000
    vertex -3.2750 -5.6725 0.0000
    vertex -3.2750 -5.6725 15.0000
  endloop
endfacet
facet normal 0.3827 0.9239 0.0000
  outer loop
    vertex -1.6953 -6.3268 0.0000
    vertex -3.2750 -5.6725 15.0000
    vertex -1.6953 -6.3268 15.0000
  endloop
endfacet
facet normal 0.1305 0.9914 0.0000
  outer loop
    vertex -0.0000 -6.5500 0.0000
    vertex -1.6953 -6.3268 0.0000
    vertex -1.6953 -6.3268 15.0000
  endloop
endfacet
facet normal 0.1305 0.9914 0.0000
  outer loop
    vertex -0.0000 -6.5500 0.0000
    vertex -1.6953 -6.3268 15.0000
    vertex -0.0000 -6.5500 15.0000
  endloop
endfacet
facet normal -0.1305 0.9914 0.0000
  outer loop
    vertex 1.6953 -6.3268 0.0000
    vertex -0.0000 -6.5500 0.0000
    vertex -0.0000 -6.5500 15.0000
  endloop
endfacet
facet normal -0.1305 0.9914 0.0000
  outer loop
    vertex 1.6953 -6.3268 0.0000
    vertex -0.0000 -6.5500 15.0000
    vertex 1.6953 -6.3268 15.0000
  endloop
endfacet
facet normal -0.3827 0.9239 0.0000
  outer loop
    vertex 3.2750 -5.6725 0.0000
    vertex 1.6953 -6.3268 0.0000
    vertex 1.6953 -6.3268 15.0000
  endloop
endfacet
facet normal -0.3827 0.9239 0.0000
  outer loop
    vertex 3.2750 -5.6725 0.0000
    vertex 1.6953 -6.3268 15.0000
    vertex 3.2750 -5.6725 15.0000
  endloop
endfacet
facet normal -0.6088 0.7934 0.0000
  outer loop
    vertex 4.6315 -4.6315 0.0000
    vertex 3.2750 -5.6725 0.0000
    vertex 3.2750 -5.6725 15.0000
  endloop
endfacet
facet normal -0.6088 0.7934 0.0000
  outer loop
    vertex 4.6315 -4.6315 0.0000
    vertex 3.2750 -5.6725 15.0000
    vertex 4.6315 -4.6315 15.0000
  endloop
endfacet
facet normal -0.7934 0.6088 0.0000
  outer loop
    vertex 5.6725 -3.2750 0.0000
    vertex 4.6315 -4.6315 0.0000
    vertex 4.6315 -4.6315 15.0000
  endloop
endfacet
facet normal -0.7934 0.6088 0.0000
  outer loop
    vertex 5.6725 -3.2750 0.0000
    vertex 4.6315 -4.6315 15.0000
    vertex 5.6725 -3.2750 15.0000
  endloop
endfacet
facet normal -0.9239 0.3827 0.0000
  outer loop
    vertex 6.3268 -1.6953 0.0000
    vertex 5.6725 -3.2750 0.0000
    vertex 5.6725 -3.2750 15.0000
  endloop
endfacet
facet normal -0.9239 0.3827 0.0000
  outer loop
    vertex 6.3268 -1.6953 0.0000
    vertex 5.6725 -3.2750 15.0000
    vertex 6.3268 -1.6953 15.0000
  endloop
endfacet
facet normal -0.9914 0.1305 0.0000
  outer loop
    vertex 6.5500 0.0000 0.0000
    vertex 6.3268 -1.6953 0.0000
    vertex 6.3268 -1.6953 15.0000
  endloop
endfacet
facet normal -0.9914 0.1305 0.0000
  outer loop
    vertex 6.5500 0.0000 0.0000
    vertex 6.3268 -1.6953 15.0000
    vertex 6.5500 0.0000 15.0000
  endloop
endfacet
facet normal 0.0000 0.0000 1.0000
  outer loop
    vertex 9.2250 0.0000 17.0000
    vertex 4.4047 7.6291 17.0000
    vertex 0.0000 0.0000 17.0000
  endloop
endfacet
facet normal 0.0000 0.0000 1.0000
  outer loop
    vertex 4.4047 7.6291 17.0000
    vertex -4.8203 8.3491 17.0000
    vertex 0.0000 0.0000 17.0000
  endloop
endfacet
facet normal 0.0000 0.0000 1.0000
  outer loop
    vertex -4.8203 8.3491 17.0000
    vertex -9.2250 0.0000 17.0000
    vertex 0.0000 0.0000 17.0000
  endloop
endfacet
facet normal 0.0000 0.0000 1.0000
  outer loop
    vertex -9.2250 0.0000 17.0000
    vertex -4.4047 -7.6291 17.0000
    vertex 0.0000 0.0000 17.0000
  endloop
endfacet
facet normal 0.0000 0.0000 1.0000
  outer loop
    vertex -4.4047 -7.6291 17.0000
    vertex 4.8203 -8.3491 17.0000
    vertex 0.0000 0.0000 17.0000
  endloop
endfacet
facet normal 0.0000 0.0000 1.0000
  outer loop
    vertex 4.8203 -8.3491 17.0000
    vertex 9.2250 0.0000 17.0000
    vertex 0.0000 0.0000 17.0000
  endloop
endfacet
facet normal 0.0000 0.0000 -1.0000
  outer loop
    vertex 6.3268 1.6953 15.0000
    vertex 6.5500 0.0000 15.0000
    vertex 0.0000 0.0000 15.0000
  endloop
endfacet
facet normal 0.0000 0.0000 -1.0000
  outer loop
    vertex 5.6725 3.2750 15.0000
    vertex 6.3268 1.6953 15.0000
    vertex 0.0000 0.0000 15.0000
  endloop
endfacet
facet normal 0.0000 0.0000 -1.0000
  outer loop
    vertex 4.6315 4.6315 15.0000
    vertex 5.6725 3.2750 15.0000
    vertex 0.0000 0.0000 15.0000
  endloop
endfacet
facet normal 0.0000 0.0000 -1.0000
  outer loop
    vertex 3.2750 5.6725 15.0000
    vertex 4.6315 4.6315 15.0000
    vertex 0.0000 0.0000 15.0000
  endloop
endfacet
facet normal 0.0000 0.0000 -1.0000
  outer loop
    vertex 1.6953 6.3268 15.0000
    vertex 3.2750 5.6725 15.0000
    vertex 0.0000 0.0000 15.0000
  endloop
endfacet
facet normal 0.0000 0.0000 -1.0000
  outer loop
    vertex 0.0000 6.5500 15.0000
    vertex 1.6953 6.3268 15.0000
    vertex 0.0000 0.0000 15.0000
  endloop
endfacet
facet normal 0.0000 0.0000 -1.0000
  outer loop
    vertex -1.6953 6.3268 15.0000
    vertex 0.0000 6.5500 15.0000
    vertex 0.0000 0.0000 15.0000
  endloop
endfacet
facet normal 0.0000 0.0000 -1.0000
  outer loop
    vertex -3.2750 5.6725 15.0000
    vertex -1.6953 6.3268 15.0000
    vertex 0.0000 0.0000 15.0000
  endloop
endfacet
facet normal 0.0000 0.0000 -1.0000
  outer loop
    vertex -4.6315 4.6315 15.0000
    vertex -3.2750 5.6725 15.0000
    vertex 0.0000 0.0000 15.0000
  endloop
endfacet
facet normal 0.0000 0.0000 -1.0000
  outer loop
    vertex -5.6725 3.2750 15.0000
    vertex -4.6315 4.6315 15.0000
    vertex 0.0000 0.0000 15.0000
  endloop
endfacet
facet normal 0.0000 0.0000 -1.0000
  outer loop
    vertex -6.3268 1.6953 15.0000
    vertex -5.6725 3.2750 15.0000
    vertex 0.0000 0.0000 15.0000
  endloop
endfacet
facet normal 0.0000 0.0000 -1.0000
  outer loop
    vertex -6.5500 0.0000 15.0000
    vertex -6.3268 1.6953 15.0000
    vertex 0.0000 0.0000 15.0000
  endloop
endfacet
facet normal 0.0000 0.0000 -1.0000
  outer loop
    vertex -6.3268 -1.6953 15.0000
    vertex -6.5500 0.0000 15.0000
    vertex 0.0000 0.0000 15.0000
  endloop
endfacet
facet normal 0.0000 0.0000 -1.0000
  outer loop
    vertex -5.6725 -3.2750 15.0000
    vertex -6.3268 -1.6953 15.0000
    vertex 0.0000 0.0000 15.0000
  endloop
endfacet
facet normal 0.0000 0.0000 -1.0000
  outer loop
    vertex -4.6315 -4.6315 15.0000
    vertex -5.6725 -3.2750 15.0000
    vertex 0.0000 0.0000 15.0000
  endloop
endfacet
facet normal 0.0000 0.0000 -1.0000
  outer loop
    vertex -3.2750 -5.6725 15.0000
    vertex -4.6315 -4.6315 15.0000
    vertex 0.0000 0.0000 15.0000
  endloop
endfacet
facet normal 0.0000 0.0000 -1.0000
  outer loop
    vertex -1.6953 -6.3268 15.0000
    vertex -3.2750 -5.6725 15.0000
    vertex 0.0000 0.0000 15.0000
  endloop
endfacet
facet normal 0.0000 0.0000 -1.0000
  outer loop
    vertex -0.0000 -6.5500 15.0000
    vertex -1.6953 -6.3268 15.0000
    vertex 0.0000 0.0000 15.0000
  endloop
endfacet
facet normal 0.0000 0.0000 -1.0000
  outer loop
    vertex 1.6953 -6.3268 15.0000
    vertex -0.0000 -6.5500 15.0000
    vertex 0.0000 0.0000 15.0000
  endloop
endfacet
facet normal 0.0000 0.0000 -1.0000
  outer loop
    vertex 3.2750 -5.6725 15.0000
    vertex 1.6953 -6.3268 15.0000
    vertex 0.0000 0.0000 15.0000
  endloop
endfacet
facet normal 0.0000 0.0000 -1.0000
  outer loop
    vertex 4.6315 -4.6315 15.0000
    vertex 3.2750 -5.6725 15.0000
    vertex 0.0000 0.0000 15.0000
  endloop
endfacet
facet normal 0.0000 0.0000 -1.0000
  outer loop
    vertex 5.6725 -3.2750 15.0000
    vertex 4.6315 -4.6315 15.0000
    vertex 0.0000 0.0000 15.0000
  endloop
endfacet
facet normal 0.0000 0.0000 -1.0000
  outer loop
    vertex 6.3268 -1.6953 15.0000
    vertex 5.6725 -3.2750 15.0000
    vertex 0.0000 0.0000 15.0000
  endloop
endfacet
facet normal 0.0000 0.0000 -1.0000
  outer loop
    vertex 6.5500 0.0000 15.0000
    vertex 6.3268 -1.6953 15.0000
    vertex 0.0000 0.0000 15.0000
  endloop
endfacet
facet normal 0.0000 0.0000 -1.0000
  outer loop
    vertex 4.9172 8.5168 0.0000
    vertex 10.2500 0.0000 0.0000
    vertex 6.5500 0.0000 0.0000
  endloop
endfacet
facet normal 0.0000 0.0000 -1.0000
  outer loop
    vertex 4.9172 8.5168 0.0000
    vertex 6.5500 0.0000 0.0000
    vertex 3.2750 5.6725 0.0000
  endloop
endfacet
facet normal 0.0000 0.0000 -1.0000
  outer loop
    vertex -5.3328 9.2368 0.0000
    vertex 4.9172 8.5168 0.0000
    vertex 3.2750 5.6725 0.0000
  endloop
endfacet
facet normal 0.0000 0.0000 -1.0000
  outer loop
    vertex -5.3328 9.2368 0.0000
    vertex 3.2750 5.6725 0.0000
    vertex -3.2750 5.6725 0.0000
  endloop
endfacet
facet normal 0.0000 0.0000 -1.0000
  outer loop
    vertex -10.2500 0.0000 0.0000
    vertex -5.3328 9.2368 0.0000
    vertex -3.2750 5.6725 0.0000
  endloop
endfacet
facet normal 0.0000 0.0000 -1.0000
  outer loop
    vertex -10.2500 0.0000 0.0000
    vertex -3.2750 5.6725 0.0000
    vertex -6.5500 0.0000 0.0000
  endloop
endfacet
facet normal 0.0000 0.0000 -1.0000
  outer loop
    vertex -4.9172 -8.5168 0.0000
    vertex -10.2500 0.0000 0.0000
    vertex -6.5500 0.0000 0.0000
  endloop
endfacet
facet normal 0.0000 0.0000 -1.0000
  outer loop
    vertex -4.9172 -8.5168 0.0000
    vertex -6.5500 0.0000 0.0000
    vertex -3.2750 -5.6725 0.0000
  endloop
endfacet
facet normal 0.0000 0.0000 -1.0000
  outer loop
    vertex 5.3328 -9.2368 0.0000
    vertex -4.9172 -8.5168 0.0000
    vertex -3.2750 -5.6725 0.0000
  endloop
endfacet
facet normal 0.0000 0.0000 -1.0000
  outer loop
    vertex 5.3328 -9.2368 0.0000
    vertex -3.2750 -5.6725 0.0000
    vertex 3.2750 -5.6725 0.0000
  endloop
endfacet
facet normal 0.0000 0.0000 -1.0000
  outer loop
    vertex 10.2500 0.0000 0.0000
    vertex 5.3328 -9.2368 0.0000
    vertex 3.2750 -5.6725 0.0000
  endloop
endfacet
facet normal 0.0000 0.0000 -1.0000
  outer loop
    vertex 10.2500 0.0000 0.0000
    vertex 3.2750 -5.6725 0.0000
    vertex 6.5500 0.0000 0.0000
  endloop
endfacet
endsolid eurorack_std_slipon
