solid mi_small_slipon
facet normal 0.9986 0.0180 0.0503
  outer loop
    vertex 9.6000 0.0000 0.0000
    vertex 9.5657 1.9027 0.0000
    vertex 8.8124 1.7529 15.0000
  endloop
endfacet
facet normal 0.9986 0.0112 0.0511
  outer loop
    vertex 9.6000 0.0000 0.0000
    vertex 8.8124 1.7529 15.0000
    vertex 8.8320 0.0000 15.0000
  endloop
endfacet
facet normal 0.8654 0.4985 0.0507
  outer loop
    vertex 9.5657 1.9027 0.0000
    vertex 8.6079 3.5655 0.0000
    vertex 7.8984 3.2716 15.0000
  endloop
endfacet
facet normal 0.8558 0.5151 0.0481
  outer loop
    vertex 9.5657 1.9027 0.0000
    vertex 7.8984 3.2716 15.0000
    vertex 8.8124 1.7529 15.0000
  endloop
endfacet
facet normal 0.9862 0.1592 0.0465
  outer loop
    vertex 8.6079 3.5655 0.0000
    vertex 8.2894 5.5388 0.0000
    vertex 7.6508 5.1121 15.0000
  endloop
endfacet
facet normal 0.9899 0.1332 0.0494
  outer loop
    vertex 8.6079 3.5655 0.0000
    vertex 7.6508 5.1121 15.0000
    vertex 7.8984 3.2716 15.0000
  endloop
endfacet
facet normal 0.4758 0.8782 0.0490
  outer loop
    vertex 8.2894 5.5388 0.0000
    vertex 6.5054 6.5054 0.0000
    vertex 5.9623 5.9623 15.0000
  endloop
endfacet
facet normal 0.4493 0.8923 0.0445
  outer loop
    vertex 8.2894 5.5388 0.0000
    vertex 5.9623 5.9623 15.0000
    vertex 7.6508 5.1121 15.0000
  endloop
endfacet
facet normal 0.8783 0.4759 0.0452
  outer loop
    vertex 6.5054 6.5054 0.0000
    vertex 5.5388 8.2894 0.0000
    vertex 5.1121 7.6508 15.0000
  endloop
endfacet
facet normal 0.8921 0.4492 0.0486
  outer loop
    vertex 6.5054 6.5054 0.0000
    vertex 5.1121 7.6508 15.0000
    vertex 5.9623 5.9623 15.0000
  endloop
endfacet
facet normal 0.1592 0.9860 0.0498
  outer loop
    vertex 5.5388 8.2894 0.0000
    vertex 3.5655 8.6079 0.0000
    vertex 3.2716 7.8984 15.0000
  endloop
endfacet
facet normal 0.1332 0.9900 0.0459
  outer loop
    vertex 5.5388 8.2894 0.0000
    vertex 3.2716 7.8984 15.0000
    vertex 5.1121 7.6508 15.0000
  endloop
endfacet
facet normal 0.4985 0.8655 0.0484
  outer loop
    vertex 3.5655 8.6079 0.0000
    vertex 1.9027 9.5657 0.0000
    vertex 1.7529 8.8124 15.0000
  endloop
endfacet
facet normal 0.5150 0.8557 0.0506
  outer loop
    vertex 3.5655 8.6079 0.0000
    vertex 1.7529 8.8124 15.0000
    vertex 3.2716 7.8984 15.0000
  endloop
endfacet
facet normal 0.0180 0.9985 0.0511
  outer loop
    vertex 1.9027 9.5657 0.0000
    vertex 0.0000 9.6000 0.0000
    vertex 0.0000 8.8320 15.0000
  endloop
endfacet
facet normal 0.0112 0.9987 0.0503
  outer loop
    vertex 1.9027 9.5657 0.0000
    vertex 0.0000 8.8320 15.0000
    vertex 1.7529 8.8124 15.0000
  endloop
endfacet
facet normal -0.1784 0.9826 0.0511
  outer loop
    vertex 0.0000 9.6000 0.0000
    vertex -1.8430 9.2654 0.0000
    vertex -1.6932 8.5122 15.0000
  endloop
endfacet
facet normal -0.1854 0.9814 0.0502
  outer loop
    vertex 0.0000 9.6000 0.0000
    vertex -1.6932 8.5122 15.0000
    vertex 0.0000 8.8320 15.0000
  endloop
endfacet
facet normal -0.0693 0.9964 0.0485
  outer loop
    vertex -1.8430 9.2654 0.0000
    vertex -3.7820 9.1306 0.0000
    vertex -3.4881 8.4210 15.0000
  endloop
endfacet
facet normal -0.0507 0.9974 0.0506
  outer loop
    vertex -1.8430 9.2654 0.0000
    vertex -3.4881 8.4210 15.0000
    vertex -1.6932 8.5122 15.0000
  endloop
endfacet
facet normal -0.7333 0.6781 0.0497
  outer loop
    vertex -3.7820 9.1306 0.0000
    vertex -5.1282 7.6748 0.0000
    vertex -4.7015 7.0363 15.0000
  endloop
endfacet
facet normal -0.7513 0.6583 0.0459
  outer loop
    vertex -3.7820 9.1306 0.0000
    vertex -4.7015 7.0363 15.0000
    vertex -3.4881 8.4210 15.0000
  endloop
endfacet
facet normal -0.2965 0.9540 0.0453
  outer loop
    vertex -5.1282 7.6748 0.0000
    vertex -7.0711 7.0711 0.0000
    vertex -6.5280 6.5280 15.0000
  endloop
endfacet
facet normal -0.2678 0.9623 0.0486
  outer loop
    vertex -5.1282 7.6748 0.0000
    vertex -6.5280 6.5280 15.0000
    vertex -4.7015 7.0363 15.0000
  endloop
endfacet
facet normal -0.9538 0.2964 0.0490
  outer loop
    vertex -7.0711 7.0711 0.0000
    vertex -7.6748 5.1282 0.0000
    vertex -7.0363 4.7015 15.0000
  endloop
endfacet
facet normal -0.9624 0.2678 0.0445
  outer loop
    vertex -7.0711 7.0711 0.0000
    vertex -7.0363 4.7015 15.0000
    vertex -6.5280 6.5280 15.0000
  endloop
endfacet
facet normal -0.6782 0.7334 0.0465
  outer loop
    vertex -7.6748 5.1282 0.0000
    vertex -9.1306 3.7820 0.0000
    vertex -8.4210 3.4881 15.0000
  endloop
endfacet
facet normal -0.6582 0.7512 0.0494
  outer loop
    vertex -7.6748 5.1282 0.0000
    vertex -8.4210 3.4881 15.0000
    vertex -7.0363 4.7015 15.0000
  endloop
endfacet
facet normal -0.9963 0.0693 0.0507
  outer loop
    vertex -9.1306 3.7820 0.0000
    vertex -9.2654 1.8430 0.0000
    vertex -8.5122 1.6932 15.0000
  endloop
endfacet
facet normal -0.9976 0.0507 0.0482
  outer loop
    vertex -9.1306 3.7820 0.0000
    vertex -8.5122 1.6932 15.0000
    vertex -8.4210 3.4881 15.0000
  endloop
endfacet
facet normal -0.9827 0.1784 0.0503
  outer loop
    vertex -9.2654 1.8430 0.0000
    vertex -9.6000 0.0000 0.0000
    vertex -8.8320 0.0000 15.0000
  endloop
endfacet
facet normal -0.9813 0.1854 0.0511
  outer loop
    vertex -9.2654 1.8430 0.0000
    vertex -8.8320 0.0000 15.0000
    vertex -8.5122 1.6932 15.0000
  endloop
endfacet
facet normal -0.9986 -0.0180 0.0503
  outer loop
    vertex -9.6000 0.0000 0.0000
    vertex -9.5657 -1.9027 0.0000
    vertex -8.8124 -1.7529 15.0000
  endloop
endfacet
facet normal -0.9986 -0.0112 0.0511
  outer loop
    vertex -9.6000 0.0000 0.0000
    vertex -8.8124 -1.7529 15.0000
    vertex -8.8320 0.0000 15.0000
  endloop
endfacet
facet normal -0.8654 -0.4985 0.0507
  outer loop
    vertex -9.5657 -1.9027 0.0000
    vertex -8.6079 -3.5655 0.0000
    vertex -7.8984 -3.2716 15.0000
  endloop
endfacet
facet normal -0.8558 -0.5151 0.0481
  outer loop
    vertex -9.5657 -1.9027 0.0000
    vertex -7.8984 -3.2716 15.0000
    vertex -8.8124 -1.7529 15.0000
  endloop
endfacet
facet normal -0.9862 -0.1592 0.0465
  outer loop
    vertex -8.6079 -3.5655 0.0000
    vertex -8.2894 -5.5388 0.0000
    vertex -7.6508 -5.1121 15.0000
  endloop
endfacet
facet normal -0.9899 -0.1332 0.0494
  outer loop
    vertex -8.6079 -3.5655 0.0000
    vertex -7.6508 -5.1121 15.0000
    vertex -7.8984 -3.2716 15.0000
  endloop
endfacet
facet normal -0.4758 -0.8782 0.0490
  outer loop
    vertex -8.2894 -5.5388 0.0000
    vertex -6.5054 -6.5054 0.0000
    vertex -5.9623 -5.9623 15.0000
  endloop
endfacet
facet normal -0.4493 -0.8923 0.0445
  outer loop
    vertex -8.2894 -5.5388 0.0000
    vertex -5.9623 -5.9623 15.0000
    vertex -7.6508 -5.1121 15.0000
  endloop
endfacet
facet normal -0.8783 -0.4759 0.0452
  outer loop
    vertex -6.5054 -6.5054 0.0000
    vertex -5.5388 -8.2894 0.0000
    vertex -5.1121 -7.6508 15.0000
  endloop
endfacet
facet normal -0.8921 -0.4492 0.0486
  outer loop
    vertex -6.5054 -6.5054 0.0000
    vertex -5.1121 -7.6508 15.0000
    vertex -5.9623 -5.9623 15.0000
  endloop
endfacet
facet normal -0.1592 -0.9860 0.0498
  outer loop
    vertex -5.5388 -8.2894 0.0000
    vertex -3.5655 -8.6079 0.0000
    vertex -3.2716 -7.8984 15.0000
  endloop
endfacet
facet normal -0.1332 -0.9900 0.0459
  outer loop
    vertex -5.5388 -8.2894 0.0000
    vertex -3.2716 -7.8984 15.0000
    vertex -5.1121 -7.6508 15.0000
  endloop
endfacet
facet normal -0.4985 -0.8655 0.0484
  outer loop
    vertex -3.5655 -8.6079 0.0000
    vertex -1.9027 -9.5657 0.0000
    vertex -1.7529 -8.8124 15.0000
  endloop
endfacet
facet normal -0.5150 -0.8557 0.0506
  outer loop
    vertex -3.5655 -8.6079 0.0000
    vertex -1.7529 -8.8124 15.0000
    vertex -3.2716 -7.8984 15.0000
  endloop
endfacet
facet normal -0.0180 -0.9985 0.0511
  outer loop
    vertex -1.9027 -9.5657 0.0000
    vertex -0.0000 -9.6000 0.0000
    vertex -0.0000 -8.8320 15.0000
  endloop
endfacet
facet normal -0.0112 -0.9987 0.0503
  outer loop
    vertex -1.9027 -9.5657 0.0000
    vertex -0.0000 -8.8320 15.0000
    vertex -1.7529 -8.8124 15.0000
  endloop
endfacet
facet normal 0.1784 -0.9826 0.0511
  outer loop
    vertex -0.0000 -9.6000 0.0000
    vertex 1.8430 -9.2654 0.0000
    vertex 1.6932 -8.5122 15.0000
  endloop
endfacet
facet normal 0.1854 -0.9814 0.0502
  outer loop
    vertex -0.0000 -9.6000 0.0000
    vertex 1.6932 -8.5122 15.0000
    vertex -0.0000 -8.8320 15.0000
  endloop
endfacet
facet normal 0.0693 -0.9964 0.0485
  outer loop
    vertex 1.8430 -9.2654 0.0000
    vertex 3.7820 -9.1306 0.0000
    vertex 3.4881 -8.4210 15.0000
  endloop
endfacet
facet normal 0.0507 -0.9974 0.0506
  outer loop
    vertex 1.8430 -9.2654 0.0000
    vertex 3.4881 -8.4210 15.0000
    vertex 1.6932 -8.5122 15.0000
  endloop
endfacet
facet normal 0.7333 -0.6781 0.0497
  outer loop
    vertex 3.7820 -9.1306 0.0000
    vertex 5.1282 -7.6748 0.0000
    vertex 4.7015 -7.0363 15.0000
  endloop
endfacet
facet normal 0.7513 -0.6583 0.0459
  outer loop
    vertex 3.7820 -9.1306 0.0000
    vertex 4.7015 -7.0363 15.0000
    vertex 3.4881 -8.4210 15.0000
  endloop
endfacet
facet normal 0.2965 -0.9540 0.0453
  outer loop
    vertex 5.1282 -7.6748 0.0000
    vertex 7.0711 -7.0711 0.0000
    vertex 6.5280 -6.5280 15.0000
  endloop
endfacet
facet normal 0.2678 -0.9623 0.0486
  outer loop
    vertex 5.1282 -7.6748 0.0000
    vertex 6.5280 -6.5280 15.0000
    vertex 4.7015 -7.0363 15.0000
  endloop
endfacet
facet normal 0.9538 -0.2964 0.0490
  outer loop
    vertex 7.0711 -7.0711 0.0000
    vertex 7.6748 -5.1282 0.0000
    vertex 7.0363 -4.7015 15.0000
  endloop
endfacet
facet normal 0.9624 -0.2678 0.0445
  outer loop
    vertex 7.0711 -7.0711 0.0000
    vertex 7.0363 -4.7015 15.0000
    vertex 6.5280 -6.5280 15.0000
  endloop
endfacet
facet normal 0.6782 -0.7334 0.0465
  outer loop
    vertex 7.6748 -5.1282 0.0000
    vertex 9.1306 -3.7820 0.0000
    vertex 8.4210 -3.4881 15.0000
  endloop
endfacet
facet normal 0.6582 -0.7512 0.0494
  outer loop
    vertex 7.6748 -5.1282 0.0000
    vertex 8.4210 -3.4881 15.0000
    vertex 7.0363 -4.7015 15.0000
  endloop
endfacet
facet normal 0.9963 -0.0693 0.0507
  outer loop
    vertex 9.1306 -3.7820 0.0000
    vertex 9.2654 -1.8430 0.0000
    vertex 8.5122 -1.6932 15.0000
  endloop
endfacet
facet normal 0.9976 -0.0507 0.0482
  outer loop
    vertex 9.1306 -3.7820 0.0000
    vertex 8.5122 -1.6932 15.0000
    vertex 8.4210 -3.4881 15.0000
  endloop
endfacet
facet normal 0.9827 -0.1784 0.0503
  outer loop
    vertex 9.2654 -1.8430 0.0000
    vertex 9.6000 0.0000 0.0000
    vertex 8.8320 0.0000 15.0000
  endloop
endfacet
facet normal 0.9813 -0.1854 0.0511
  outer loop
    vertex 9.2654 -1.8430 0.0000
    vertex 8.8320 0.0000 15.0000
    vertex 8.5122 -1.6932 15.0000
  endloop
endfacet
facet normal -0.9914 -0.1305 0.0000
  outer loop
    vertex 5.6990 1.5270 0.0000
    vertex 5.9000 0.0000 0.0000
    vertex 5.9000 0.0000 13.0000
  endloop
endfacet
facet normal -0.9914 -0.1305 0.0000
  outer loop
    vertex 5.6990 1.5270 0.0000
    vertex 5.9000 0.0000 13.0000
    vertex 5.6990 1.5270 13.0000
  endloop
endfacet
facet normal -0.9239 -0.3827 0.0000
  outer loop
    vertex 5.1095 2.9500 0.0000
    vertex 5.6990 1.5270 0.0000
    vertex 5.6990 1.5270 13.0000
  endloop
endfacet
facet normal -0.9239 -0.3827 0.0000
  outer loop
    vertex 5.1095 2.9500 0.0000
    vertex 5.6990 1.5270 13.0000
    vertex 5.1095 2.9500 13.0000
  endloop
endfacet
facet normal -0.7934 -0.6088 0.0000
  outer loop
    vertex 4.1719 4.1719 0.0000
    vertex 5.1095 2.9500 0.0000
    vertex 5.1095 2.9500 13.0000
  endloop
endfacet
facet normal -0.7934 -0.6088 0.0000
  outer loop
    vertex 4.1719 4.1719 0.0000
    vertex 5.1095 2.9500 13.0000
    vertex 4.1719 4.1719 13.0000
  endloop
endfacet
facet normal -0.6088 -0.7934 0.0000
  outer loop
    vertex 2.9500 5.1095 0.0000
    vertex 4.1719 4.1719 0.0000
    vertex 4.1719 4.1719 13.0000
  endloop
endfacet
facet normal -0.6088 -0.7934 0.0000
  outer loop
    vertex 2.9500 5.1095 0.0000
    vertex 4.1719 4.1719 13.0000
    vertex 2.9500 5.1095 13.0000
  endloop
endfacet
facet normal -0.3827 -0.9239 0.0000
  outer loop
    vertex 1.5270 5.6990 0.0000
    vertex 2.9500 5.1095 0.0000
    vertex 2.9500 5.1095 13.0000
  endloop
endfacet
facet normal -0.3827 -0.9239 0.0000
  outer loop
    vertex 1.5270 5.6990 0.0000
    vertex 2.9500 5.1095 13.0000
    vertex 1.5270 5.6990 13.0000
  endloop
endfacet
facet normal -0.1305 -0.9914 0.0000
  outer loop
    vertex 0.0000 5.9000 0.0000
    vertex 1.5270 5.6990 0.0000
    vertex 1.5270 5.6990 13.0000
  endloop
endfacet
facet normal -0.1305 -0.9914 0.0000
  outer loop
    vertex 0.0000 5.9000 0.0000
    vertex 1.5270 5.6990 13.0000
    vertex 0.0000 5.9000 13.0000
  endloop
endfacet
facet normal 0.1305 -0.9914 0.0000
  outer loop
    vertex -1.5270 5.6990 0.0000
    vertex 0.0000 5.9000 0.0000
    vertex 0.0000 5.9000 13.0000
  endloop
endfacet
facet normal 0.1305 -0.9914 0.0000
  outer loop
    vertex -1.5270 5.6990 0.0000
    vertex 0.0000 5.9000 13.0000
    vertex -1.5270 5.6990 13.0000
  endloop
endfacet
facet normal 0.3827 -0.9239 0.0000
  outer loop
    vertex -2.9500 5.1095 0.0000
    vertex -1.5270 5.6990 0.0000
    vertex -1.5270 5.6990 13.0000
  endloop
endfacet
facet normal 0.3827 -0.9239 0.0000
  outer loop
    vertex -2.9500 5.1095 0.0000
    vertex -1.5270 5.6990 13.0000
    vertex -2.9500 5.1095 13.0000
  endloop
endfacet
facet normal 0.6088 -0.7934 0.0000
  outer loop
    vertex -4.1719 4.1719 0.0000
    vertex -2.9500 5.1095 0.0000
    vertex -2.9500 5.1095 13.0000
  endloop
endfacet
facet normal 0.6088 -0.7934 0.0000
  outer loop
    vertex -4.1719 4.1719 0.0000
    vertex -2.9500 5.1095 13.0000
    vertex -4.1719 4.1719 13.0000
  endloop
endfacet
facet normal 0.7934 -0.6088 0.0000
  outer loop
    vertex -5.1095 2.9500 0.0000
    vertex -4.1719 4.1719 0.0000
    vertex -4.1719 4.1719 13.0000
  endloop
endfacet
facet normal 0.7934 -0.6088 0.0000
  outer loop
    vertex -5.1095 2.9500 0.0000
    vertex -4.1719 4.1719 13.0000
    vertex -5.1095 2.9500 13.0000
  endloop
endfacet
facet normal 0.9239 -0.3827 0.0000
  outer loop
    vertex -5.6990 1.5270 0.0000
    vertex -5.1095 2.9500 0.0000
    vertex -5.1095 2.9500 13.0000
  endloop
endfacet
facet normal 0.9239 -0.3827 0.0000
  outer loop
    vertex -5.6990 1.5270 0.0000
    vertex -5.1095 2.9500 13.0000
    vertex -5.6990 1.5270 13.0000
  endloop
endfacet
facet normal 0.9914 -0.1305 0.0000
  outer loop
    vertex -5.9000 0.0000 0.0000
    vertex -5.6990 1.5270 0.0000
    vertex -5.6990 1.5270 13.0000
  endloop
endfacet
facet normal 0.9914 -0.1305 0.0000
  outer loop
    vertex -5.9000 0.0000 0.0000
    vertex -5.6990 1.5270 13.0000
    vertex -5.9000 0.0000 13.0000
  endloop
endfacet
facet normal 0.9914 0.1305 0.0000
  outer loop
    vertex -5.6990 -1.5270 0.0000
    vertex -5.9000 0.0000 0.0000
    vertex -5.9000 0.0000 13.0000
  endloop
endfacet
facet normal 0.9914 0.1305 0.0000
  outer loop
    vertex -5.6990 -1.5270 0.0000
    vertex -5.9000 0.0000 13.0000
    vertex -5.6990 -1.5270 13.0000
  endloop
endfacet
facet normal 0.9239 0.3827 0.0000
  outer loop
    vertex -5.1095 -2.9500 0.0000
    vertex -5.6990 -1.5270 0.0000
    vertex -5.6990 -1.5270 13.0000
  endloop
endfacet
facet normal 0.9239 0.3827 0.0000
  outer loop
    vertex -5.1095 -2.9500 0.0000
    vertex -5.6990 -1.5270 13.0000
    vertex -5.1095 -2.9500 13.0000
  endloop
endfacet
facet normal 0.7934 0.6088 0.0000
  outer loop
    vertex -4.1719 -4.1719 0.0000
    vertex -5.1095 -2.9500 0.0000
    vertex -5.1095 -2.9500 13.0000
  endloop
endfacet
facet normal 0.7934 0.6088 0.0000
  outer loop
    vertex -4.1719 -4.1719 0.0000
    vertex -5.1095 -2.9500 13.0000
    vertex -4.1719 -4.1719 13.0000
  endloop
endfacet
facet normal 0.6088 0.7934 0.0000
  outer loop
    vertex -2.9500 -5.1095 0.0000
    vertex -4.1719 -4.1719 0.0000
    vertex -4.1719 -4.1719 13.0000
  endloop
endfacet
facet normal 0.6088 0.7934 0.0000
  outer loop
    vertex -2.9500 -5.1095 0.0000
    vertex -4.1719 -4.1719 13.0000
    vertex -2.9500 -5.1095 13.0000
  endloop
endfacet
facet normal 0.3827 0.9239 0.0000
  outer loop
    vertex -1.5270 -5.6990 0.0000
    vertex -2.9500 -5.1095 0.0000
    vertex -2.9500 -5.1095 13.0000
  endloop
endfacet
facet normal 0.3827 0.9239 0.0000
  outer loop
    vertex -1.5270 -5.6990 0.0000
    vertex -2.9500 -5.1095 13.0000
    vertex -1.5270 -5.6990 13.0000
  endloop
endfacet
facet normal 0.1305 0.9914 0.0000
  outer loop
    vertex -0.0000 -5.9000 0.0000
    vertex -1.5270 -5.6990 0.0000
    vertex -1.5270 -5.6990 13.0000
  endloop
endfacet
facet normal 0.1305 0.9914 0.0000
  outer loop
    vertex -0.0000 -5.9000 0.0000
    vertex -1.5270 -5.6990 13.0000
    vertex -0.0000 -5.9000 13.0000
  endloop
endfacet
facet normal -0.1305 0.9914 0.0000
  outer loop
    vertex 1.5270 -5.6990 0.0000
    vertex -0.0000 -5.9000 0.0000
    vertex -0.0000 -5.9000 13.0000
  endloop
endfacet
facet normal -0.1305 0.9914 0.0000
  outer loop
    vertex 1.5270 -5.6990 0.0000
    vertex -0.0000 -5.9000 13.0000
    vertex 1.5270 -5.6990 13.0000
  endloop
endfacet
facet normal -0.3827 0.9239 0.0000
  outer loop
    vertex 2.9500 -5.1095 0.0000
    vertex 1.5270 -5.6990 0.0000
    vertex 1.5270 -5.6990 13.0000
  endloop
endfacet
facet normal -0.3827 0.9239 0.0000
  outer loop
    vertex 2.9500 -5.1095 0.0000
    vertex 1.5270 -5.6990 13.0000
    vertex 2.9500 -5.1095 13.0000
  endloop
endfacet
facet normal -0.6088 0.7934 0.0000
  outer loop
    vertex 4.1719 -4.1719 0.0000
    vertex 2.9500 -5.1095 0.0000
    vertex 2.9500 -5.1095 13.0000
  endloop
endfacet
facet normal -0.6088 0.7934 0.0000
  outer loop
    vertex 4.1719 -4.1719 0.0000
    vertex 2.9500 -5.1095 13.0000
    vertex 4.1719 -4.1719 13.0000
  endloop
endfacet
facet normal -0.7934 0.6088 0.0000
  outer loop
    vertex 5.1095 -2.9500 0.0000
    vertex 4.1719 -4.1719 0.0000
    vertex 4.1719 -4.1719 13.0000
  endloop
endfacet
facet normal -0.7934 0.6088 0.0000
  outer loop
    vertex 5.1095 -2.9500 0.0000
    vertex 4.1719 -4.1719 13.0000
    vertex 5.1095 -2.9500 13.0000
  endloop
endfacet
facet normal -0.9239 0.3827 0.0000
  outer loop
    vertex 5.6990 -1.5270 0.0000
    vertex 5.1095 -2.9500 0.0000
    vertex 5.1095 -2.9500 13.0000
  endloop
endfacet
facet normal -0.9239 0.3827 0.0000
  outer loop
    vertex 5.6990 -1.5270 0.0000
    vertex 5.1095 -2.9500 13.0000
    vertex 5.6990 -1.5270 13.0000
  endloop
endfacet
facet normal -0.9914 0.1305 0.0000
  outer loop
    vertex 5.9000 0.0000 0.0000
    vertex 5.6990 -1.5270 0.0000
    vertex 5.6990 -1.5270 13.0000
  endloop
endfacet
facet normal -0.9914 0.1305 0.0000
  outer loop
    vertex 5.9000 0.0000 0.0000
    vertex 5.6990 -1.5270 13.0000
    vertex 5.9000 0.0000 13.0000
  endloop
endfacet
facet normal 0.0000 0.0000 1.0000
  outer loop
    vertex 8.8320 0.0000 15.0000
    vertex 8.8124 1.7529 15.0000
    vertex 0.0000 0.0000 15.0000
  endloop
endfacet
facet normal 0.0000 0.0000 1.0000
  outer loop
    vertex 8.8124 1.7529 15.0000
    vertex 7.8984 3.2716 15.0000
    vertex 0.0000 0.0000 15.0000
  endloop
endfacet
facet normal 0.0000 0.0000 1.0000
  outer loop
    vertex 7.8984 3.2716 15.0000
    vertex 7.6508 5.1121 15.0000
    vertex 0.0000 0.0000 15.0000
  endloop
endfacet
facet normal 0.0000 0.0000 1.0000
  outer loop
    vertex 7.6508 5.1121 15.0000
    vertex 5.9623 5.9623 15.0000
    vertex 0.0000 0.0000 15.0000
  endloop
endfacet
facet normal 0.0000 0.0000 1.0000
  outer loop
    vertex 5.9623 5.9623 15.0000
    vertex 5.1121 7.6508 15.0000
    vertex 0.0000 0.0000 15.0000
  endloop
endfacet
facet normal 0.0000 0.0000 1.0000
  outer loop
    vertex 5.1121 7.6508 15.0000
    vertex 3.2716 7.8984 15.0000
    vertex 0.0000 0.0000 15.0000
  endloop
endfacet
facet normal 0.0000 0.0000 1.0000
  outer loop
    vertex 3.2716 7.8984 15.0000
    vertex 1.7529 8.8124 15.0000
    vertex 0.0000 0.0000 15.0000
  endloop
endfacet
facet normal 0.0000 0.0000 1.0000
  outer loop
    vertex 1.7529 8.8124 15.0000
    vertex 0.0000 8.8320 15.0000
    vertex 0.0000 0.0000 15.0000
  endloop
endfacet
facet normal 0.0000 0.0000 1.0000
  outer loop
    vertex 0.0000 8.8320 15.0000
    vertex -1.6932 8.5122 15.0000
    vertex 0.0000 0.0000 15.0000
  endloop
endfacet
facet normal 0.0000 0.0000 1.0000
  outer loop
    vertex -1.6932 8.5122 15.0000
    vertex -3.4881 8.4210 15.0000
    vertex 0.0000 0.0000 15.0000
  endloop
endfacet
facet normal 0.0000 0.0000 1.0000
  outer loop
    vertex -3.4881 8.4210 15.0000
    vertex -4.7015 7.0363 15.0000
    vertex 0.0000 0.0000 15.0000
  endloop
endfacet
facet normal 0.0000 0.0000 1.0000
  outer loop
    vertex -4.7015 7.0363 15.0000
    vertex -6.5280 6.5280 15.0000
    vertex 0.0000 0.0000 15.0000
  endloop
endfacet
facet normal 0.0000 0.0000 1.0000
  outer loop
    vertex -6.5280 6.5280 15.0000
    vertex -7.0363 4.7015 15.0000
    vertex 0.0000 0.0000 15.0000
  endloop
endfacet
facet normal 0.0000 0.0000 1.0000
  outer loop
    vertex -7.0363 4.7015 15.0000
    vertex -8.4210 3.4881 15.0000
    vertex 0.0000 0.0000 15.0000
  endloop
endfacet
facet normal 0.0000 0.0000 1.0000
  outer loop
    vertex -8.4210 3.4881 15.0000
    vertex -8.5122 1.6932 15.0000
    vertex 0.0000 0.0000 15.0000
  endloop
endfacet
facet normal 0.0000 0.0000 1.0000
  outer loop
    vertex -8.5122 1.6932 15.0000
    vertex -8.8320 0.0000 15.0000
    vertex 0.0000 0.0000 15.0000
  endloop
endfacet
facet normal 0.0000 0.0000 1.0000
  outer loop
    vertex -8.8320 0.0000 15.0000
    vertex -8.8124 -1.7529 15.0000
    vertex 0.0000 0.0000 15.0000
  endloop
endfacet
facet normal 0.0000 0.0000 1.0000
  outer loop
    vertex -8.8124 -1.7529 15.0000
    vertex -7.8984 -3.2716 15.0000
    vertex 0.0000 0.0000 15.0000
  endloop
endfacet
facet normal 0.0000 0.0000 1.0000
  outer loop
    vertex -7.8984 -3.2716 15.0000
    vertex -7.6508 -5.1121 15.0000
    vertex 0.0000 0.0000 15.0000
  endloop
endfacet
facet normal 0.0000 0.0000 1.0000
  outer loop
    vertex -7.6508 -5.1121 15.0000
    vertex -5.9623 -5.9623 15.0000
    vertex 0.0000 0.0000 15.0000
  endloop
endfacet
facet normal 0.0000 0.0000 1.0000
  outer loop
    vertex -5.9623 -5.9623 15.0000
    vertex -5.1121 -7.6508 15.0000
    vertex 0.0000 0.0000 15.0000
  endloop
endfacet
facet normal 0.0000 0.0000 1.0000
  outer loop
    vertex -5.1121 -7.6508 15.0000
    vertex -3.2716 -7.8984 15.0000
    vertex 0.0000 0.0000 15.0000
  endloop
endfacet
facet normal 0.0000 0.0000 1.0000
  outer loop
    vertex -3.2716 -7.8984 15.0000
    vertex -1.7529 -8.8124 15.0000
    vertex 0.0000 0.0000 15.0000
  endloop
endfacet
facet normal 0.0000 0.0000 1.0000
  outer loop
    vertex -1.7529 -8.8124 15.0000
    vertex -0.0000 -8.8320 15.0000
    vertex 0.0000 0.0000 15.0000
  endloop
endfacet
facet normal 0.0000 0.0000 1.0000
  outer loop
    vertex -0.0000 -8.8320 15.0000
    vertex 1.6932 -8.5122 15.0000
    vertex 0.0000 0.0000 15.0000
  endloop
endfacet
facet normal 0.0000 0.0000 1.0000
  outer loop
    vertex 1.6932 -8.5122 15.0000
    vertex 3.4881 -8.4210 15.0000
    vertex 0.0000 0.0000 15.0000
  endloop
endfacet
facet normal 0.0000 0.0000 1.0000
  outer loop
    vertex 3.4881 -8.4210 15.0000
    vertex 4.7015 -7.0363 15.0000
    vertex 0.0000 0.0000 15.0000
  endloop
endfacet
facet normal 0.0000 0.0000 1.0000
  outer loop
    vertex 4.7015 -7.0363 15.0000
    vertex 6.5280 -6.5280 15.0000
    vertex 0.0000 0.0000 15.0000
  endloop
endfacet
facet normal 0.0000 0.0000 1.0000
  outer loop
    vertex 6.5280 -6.5280 15.0000
    vertex 7.0363 -4.7015 15.0000
    vertex 0.0000 0.0000 15.0000
  endloop
endfacet
facet normal 0.0000 0.0000 1.0000
  outer loop
    vertex 7.0363 -4.7015 15.0000
    vertex 8.4210 -3.4881 15.0000
    vertex 0.0000 0.0000 15.0000
  endloop
endfacet
facet normal 0.0000 0.0000 1.0000
  outer loop
    vertex 8.4210 -3.4881 15.0000
    vertex 8.5122 -1.6932 15.0000
    vertex 0.0000 0.0000 15.0000
  endloop
endfacet
facet normal 0.0000 0.0000 1.0000
  outer loop
    vertex 8.5122 -1.6932 15.0000
    vertex 8.8320 0.0000 15.0000
    vertex 0.0000 0.0000 15.0000
  endloop
endfacet
facet normal 0.0000 0.0000 -1.0000
  outer loop
    vertex 5.6990 1.5270 13.0000
    vertex 5.9000 0.0000 13.0000
    vertex 0.0000 0.0000 13.0000
  endloop
endfacet
facet normal 0.0000 0.0000 -1.0000
  outer loop
    vertex 5.1095 2.9500 13.0000
    vertex 5.6990 1.5270 13.0000
    vertex 0.0000 0.0000 13.0000
  endloop
endfacet
facet normal 0.0000 0.0000 -1.0000
  outer loop
    vertex 4.1719 4.1719 13.0000
    vertex 5.1095 2.9500 13.0000
    vertex 0.0000 0.0000 13.0000
  endloop
endfacet
facet normal 0.0000 0.0000 -1.0000
  outer loop
    vertex 2.9500 5.1095 13.0000
    vertex 4.1719 4.1719 13.0000
    vertex 0.0000 0.0000 13.0000
  endloop
endfacet
facet normal 0.0000 0.0000 -1.0000
  outer loop
    vertex 1.5270 5.6990 13.0000
    vertex 2.9500 5.1095 13.0000
    vertex 0.0000 0.0000 13.0000
  endloop
endfacet
facet normal 0.0000 0.0000 -1.0000
  outer loop
    vertex 0.0000 5.9000 13.0000
    vertex 1.5270 5.6990 13.0000
    vertex 0.0000 0.0000 13.0000
  endloop
endfacet
facet normal 0.0000 0.0000 -1.0000
  outer loop
    vertex -1.5270 5.6990 13.0000
    vertex 0.0000 5.9000 13.0000
    vertex 0.0000 0.0000 13.0000
  endloop
endfacet
facet normal 0.0000 0.0000 -1.0000
  outer loop
    vertex -2.9500 5.1095 13.0000
    vertex -1.5270 5.6990 13.0000
    vertex 0.0000 0.0000 13.0000
  endloop
endfacet
facet normal 0.0000 0.0000 -1.0000
  outer loop
    vertex -4.1719 4.1719 13.0000
    vertex -2.9500 5.1095 13.0000
    vertex 0.0000 0.0000 13.0000
  endloop
endfacet
facet normal 0.0000 0.0000 -1.0000
  outer loop
    vertex -5.1095 2.9500 13.0000
    vertex -4.1719 4.1719 13.0000
    vertex 0.0000 0.0000 13.0000
  endloop
endfacet
facet normal 0.0000 0.0000 -1.0000
  outer loop
    vertex -5.6990 1.5270 13.0000
    vertex -5.1095 2.9500 13.0000
    vertex 0.0000 0.0000 13.0000
  endloop
endfacet
facet normal 0.0000 0.0000 -1.0000
  outer loop
    vertex -5.9000 0.0000 13.0000
    vertex -5.6990 1.5270 13.0000
    vertex 0.0000 0.0000 13.0000
  endloop
endfacet
facet normal 0.0000 0.0000 -1.0000
  outer loop
    vertex -5.6990 -1.5270 13.0000
    vertex -5.9000 0.0000 13.0000
    vertex 0.0000 0.0000 13.0000
  endloop
endfacet
facet normal 0.0000 0.0000 -1.0000
  outer loop
    vertex -5.1095 -2.9500 13.0000
    vertex -5.6990 -1.5270 13.0000
    vertex 0.0000 0.0000 13.0000
  endloop
endfacet
facet normal 0.0000 0.0000 -1.0000
  outer loop
    vertex -4.1719 -4.1719 13.0000
    vertex -5.1095 -2.9500 13.0000
    vertex 0.0000 0.0000 13.0000
  endloop
endfacet
facet normal 0.0000 0.0000 -1.0000
  outer loop
    vertex -2.9500 -5.1095 13.0000
    vertex -4.1719 -4.1719 13.0000
    vertex 0.0000 0.0000 13.0000
  endloop
endfacet
facet normal 0.0000 0.0000 -1.0000
  outer loop
    vertex -1.5270 -5.6990 13.0000
    vertex -2.9500 -5.1095 13.0000
    vertex 0.0000 0.0000 13.0000
  endloop
endfacet
facet normal 0.0000 0.0000 -1.0000
  outer loop
    vertex -0.0000 -5.9000 13.0000
    vertex -1.5270 -5.6990 13.0000
    vertex 0.0000 0.0000 13.0000
  endloop
endfacet
facet normal 0.0000 0.0000 -1.0000
  outer loop
    vertex 1.5270 -5.6990 13.0000
    vertex -0.0000 -5.9000 13.0000
    vertex 0.0000 0.0000 13.0000
  endloop
endfacet
facet normal 0.0000 0.0000 -1.0000
  outer loop
    vertex 2.9500 -5.1095 13.0000
    vertex 1.5270 -5.6990 13.0000
    vertex 0.0000 0.0000 13.0000
  endloop
endfacet
facet normal 0.0000 0.0000 -1.0000
  outer loop
    vertex 4.1719 -4.1719 13.0000
    vertex 2.9500 -5.1095 13.0000
    vertex 0.0000 0.0000 13.0000
  endloop
endfacet
facet normal 0.0000 0.0000 -1.0000
  outer loop
    vertex 5.1095 -2.9500 13.0000
    vertex 4.1719 -4.1719 13.0000
    vertex 0.0000 0.0000 13.0000
  endloop
endfacet
facet normal 0.0000 0.0000 -1.0000
  outer loop
    vertex 5.6990 -1.5270 13.0000
    vertex 5.1095 -2.9500 13.0000
    vertex 0.0000 0.0000 13.0000
  endloop
endfacet
facet normal 0.0000 0.0000 -1.0000
  outer loop
    vertex 5.9000 0.0000 13.0000
    vertex 5.6990 -1.5270 13.0000
    vertex 0.0000 0.0000 13.0000
  endloop
endfacet
facet normal 0.0000 0.0000 -1.0000
  outer loop
    vertex 9.5657 1.9027 0.0000
    vertex 9.6000 0.0000 0.0000
    vertex 5.9000 0.0000 0.0000
  endloop
endfacet
facet normal 0.0000 0.0000 0.0000
  outer loop
    vertex 9.5657 1.9027 0.0000
    vertex 5.9000 0.0000 0.0000
    vertex 5.9000 0.0000 0.0000
  endloop
endfacet
facet normal 0.0000 0.0000 -1.0000
  outer loop
    vertex 8.6079 3.5655 0.0000
    vertex 9.5657 1.9027 0.0000
    vertex 5.9000 0.0000 0.0000
  endloop
endfacet
facet normal 0.0000 0.0000 -1.0000
  outer loop
    vertex 8.6079 3.5655 0.0000
    vertex 5.9000 0.0000 0.0000
    vertex 5.6990 1.5270 0.0000
  endloop
endfacet
facet normal 0.0000 0.0000 -1.0000
  outer loop
    vertex 8.2894 5.5388 0.0000
    vertex 8.6079 3.5655 0.0000
    vertex 5.6990 1.5270 0.0000
  endloop
endfacet
facet normal 0.0000 0.0000 -1.0000
  outer loop
    vertex 8.2894 5.5388 0.0000
    vertex 5.6990 1.5270 0.0000
    vertex 5.1095 2.9500 0.0000
  endloop
endfacet
facet normal 0.0000 0.0000 -1.0000
  outer loop
    vertex 6.5054 6.5054 0.0000
    vertex 8.2894 5.5388 0.0000
    vertex 5.1095 2.9500 0.0000
  endloop
endfacet
facet normal 0.0000 0.0000 -1.0000
  outer loop
    vertex 6.5054 6.5054 0.0000
    vertex 5.1095 2.9500 0.0000
    vertex 4.1719 4.1719 0.0000
  endloop
endfacet
facet normal 0.0000 0.0000 -1.0000
  outer loop
    vertex 5.5388 8.2894 0.0000
    vertex 6.5054 6.5054 0.0000
    vertex 4.1719 4.1719 0.0000
  endloop
endfacet
facet normal 0.0000 0.0000 0.0000
  outer loop
    vertex 5.5388 8.2894 0.0000
    vertex 4.1719 4.1719 0.0000
    vertex 4.1719 4.1719 0.0000
  endloop
endfacet
facet normal 0.0000 0.0000 -1.0000
  outer loop
    vertex 3.5655 8.6079 0.0000
    vertex 5.5388 8.2894 0.0000
    vertex 4.1719 4.1719 0.0000
  endloop
endfacet
facet normal 0.0000 0.0000 -1.0000
  outer loop
    vertex 3.5655 8.6079 0.0000
    vertex 4.1719 4.1719 0.0000
    vertex 2.9500 5.1095 0.0000
  endloop
endfacet
facet normal 0.0000 0.0000 -1.0000
  outer loop
    vertex 1.9027 9.5657 0.0000
    vertex 3.5655 8.6079 0.0000
    vertex 2.9500 5.1095 0.0000
  endloop
endfacet
facet normal 0.0000 0.0000 -1.0000
  outer loop
    vertex 1.9027 9.5657 0.0000
    vertex 2.9500 5.1095 0.0000
    vertex 1.5270 5.6990 0.0000
  endloop
endfacet
facet normal 0.0000 0.0000 -1.0000
  outer loop
    vertex 0.0000 9.6000 0.0000
    vertex 1.9027 9.5657 0.0000
    vertex 1.5270 5.6990 0.0000
  endloop
endfacet
facet normal 0.0000 0.0000 -1.0000
  outer loop
    vertex 0.0000 9.6000 0.0000
    vertex 1.5270 5.6990 0.0000
    vertex 0.0000 5.9000 0.0000
  endloop
endfacet
facet normal 0.0000 0.0000 -1.0000
  outer loop
    vertex -1.8430 9.2654 0.0000
    vertex 0.0000 9.6000 0.0000
    vertex 0.0000 5.9000 0.0000
  endloop
endfacet
facet normal 0.0000 0.0000 0.0000
  outer loop
    vertex -1.8430 9.2654 0.0000
    vertex 0.0000 5.9000 0.0000
    vertex 0.0000 5.9000 0.0000
  endloop
endfacet
facet normal 0.0000 0.0000 -1.0000
  outer loop
    vertex -3.7820 9.1306 0.0000
    vertex -1.8430 9.2654 0.0000
    vertex 0.0000 5.9000 0.0000
  endloop
endfacet
facet normal 0.0000 0.0000 -1.0000
  outer loop
    vertex -3.7820 9.1306 0.0000
    vertex 0.0000 5.9000 0.0000
    vertex -1.5270 5.6990 0.0000
  endloop
endfacet
facet normal 0.0000 0.0000 -1.0000
  outer loop
    vertex -5.1282 7.6748 0.0000
    vertex -3.7820 9.1306 0.0000
    vertex -1.5270 5.6990 0.0000
  endloop
endfacet
facet normal 0.0000 0.0000 -1.0000
  outer loop
    vertex -5.1282 7.6748 0.0000
    vertex -1.5270 5.6990 0.0000
    vertex -2.9500 5.1095 0.0000
  endloop
endfacet
facet normal 0.0000 0.0000 -1.0000
  outer loop
    vertex -7.0711 7.0711 0.0000
    vertex -5.1282 7.6748 0.0000
    vertex -2.9500 5.1095 0.0000
  endloop
endfacet
facet normal 0.0000 0.0000 -1.0000
  outer loop
    vertex -7.0711 7.0711 0.0000
    vertex -2.9500 5.1095 0.0000
    vertex -4.1719 4.1719 0.0000
  endloop
endfacet
facet normal 0.0000 0.0000 -1.0000
  outer loop
    vertex -7.6748 5.1282 0.0000
    vertex -7.0711 7.0711 0.0000
    vertex -4.1719 4.1719 0.0000
  endloop
endfacet
facet normal 0.0000 0.0000 0.0000
  outer loop
    vertex -7.6748 5.1282 0.0000
    vertex -4.1719 4.1719 0.0000
    vertex -4.1719 4.1719 0.0000
  endloop
endfacet
facet normal 0.0000 0.0000 -1.0000
  outer loop
    vertex -9.1306 3.7820 0.0000
    vertex -7.6748 5.1282 0.0000
    vertex -4.1719 4.1719 0.0000
  endloop
endfacet
facet normal 0.0000 0.0000 -1.0000
  outer loop
    vertex -9.1306 3.7820 0.0000
    vertex -4.1719 4.1719 0.0000
    vertex -5.1095 2.9500 0.0000
  endloop
endfacet
facet normal 0.0000 0.0000 -1.0000
  outer loop
    vertex -9.2654 1.8430 0.0000
    vertex -9.1306 3.7820 0.0000
    vertex -5.1095 2.9500 0.0000
  endloop
endfacet
facet normal 0.0000 0.0000 -1.0000
  outer loop
    vertex -9.2654 1.8430 0.0000
    vertex -5.1095 2.9500 0.0000
    vertex -5.6990 1.5270 0.0000
  endloop
endfacet
facet normal 0.0000 0.0000 -1.0000
  outer loop
    vertex -9.6000 0.0000 0.0000
    vertex -9.2654 1.8430 0.0000
    vertex -5.6990 1.5270 0.0000
  endloop
endfacet
facet normal 0.0000 0.0000 -1.0000
  outer loop
    vertex -9.6000 0.0000 0.0000
    vertex -5.6990 1.5270 0.0000
    vertex -5.9000 0.0000 0.0000
  endloop
endfacet
facet normal 0.0000 0.0000 -1.0000
  outer loop
    vertex -9.5657 -1.9027 0.0000
    vertex -9.6000 0.0000 0.0000
    vertex -5.9000 0.0000 0.0000
  endloop
endfacet
facet normal 0.0000 0.0000 0.0000
  outer loop
    vertex -9.5657 -1.9027 0.0000
    vertex -5.9000 0.0000 0.0000
    vertex -5.9000 0.0000 0.0000
  endloop
endfacet
facet normal 0.0000 0.0000 -1.0000
  outer loop
    vertex -8.6079 -3.5655 0.0000
    vertex -9.5657 -1.9027 0.0000
    vertex -5.9000 0.0000 0.0000
  endloop
endfacet
facet normal 0.0000 0.0000 -1.0000
  outer loop
    vertex -8.6079 -3.5655 0.0000
    vertex -5.9000 0.0000 0.0000
    vertex -5.6990 -1.5270 0.0000
  endloop
endfacet
facet normal 0.0000 0.0000 -1.0000
  outer loop
    vertex -8.2894 -5.5388 0.0000
    vertex -8.6079 -3.5655 0.0000
    vertex -5.6990 -1.5270 0.0000
  endloop
endfacet
facet normal 0.0000 0.0000 -1.0000
  outer loop
    vertex -8.2894 -5.5388 0.0000
    vertex -5.6990 -1.5270 0.0000
    vertex -5.1095 -2.9500 0.0000
  endloop
endfacet
facet normal 0.0000 0.0000 -1.0000
  outer loop
    vertex -6.5054 -6.5054 0.0000
    vertex -8.2894 -5.5388 0.0000
    vertex -5.1095 -2.9500 0.0000
  endloop
endfacet
facet normal 0.0000 0.0000 -1.0000
  outer loop
    vertex -6.5054 -6.5054 0.0000
    vertex -5.1095 -2.9500 0.0000
    vertex -4.1719 -4.1719 0.0000
  endloop
endfacet
facet normal 0.0000 0.0000 -1.0000
  outer loop
    vertex -5.5388 -8.2894 0.0000
    vertex -6.5054 -6.5054 0.0000
    vertex -4.1719 -4.1719 0.0000
  endloop
endfacet
facet normal 0.0000 0.0000 0.0000
  outer loop
    vertex -5.5388 -8.2894 0.0000
    vertex -4.1719 -4.1719 0.0000
    vertex -4.1719 -4.1719 0.0000
  endloop
endfacet
facet normal 0.0000 0.0000 -1.0000
  outer loop
    vertex -3.5655 -8.6079 0.0000
    vertex -5.5388 -8.2894 0.0000
    vertex -4.1719 -4.1719 0.0000
  endloop
endfacet
facet normal 0.0000 0.0000 -1.0000
  outer loop
    vertex -3.5655 -8.6079 0.0000
    vertex -4.1719 -4.1719 0.0000
    vertex -2.9500 -5.1095 0.0000
  endloop
endfacet
facet normal 0.0000 0.0000 -1.0000
  outer loop
    vertex -1.9027 -9.5657 0.0000
    vertex -3.5655 -8.6079 0.0000
    vertex -2.9500 -5.1095 0.0000
  endloop
endfacet
facet normal 0.0000 0.0000 -1.0000
  outer loop
    vertex -1.9027 -9.5657 0.0000
    vertex -2.9500 -5.1095 0.0000
    vertex -1.5270 -5.6990 0.0000
  endloop
endfacet
facet normal 0.0000 0.0000 -1.0000
  outer loop
    vertex -0.0000 -9.6000 0.0000
    vertex -1.9027 -9.5657 0.0000
    vertex -1.5270 -5.6990 0.0000
  endloop
endfacet
facet normal 0.0000 0.0000 -1.0000
  outer loop
    vertex -0.0000 -9.6000 0.0000
    vertex -1.5270 -5.6990 0.0000
    vertex -0.0000 -5.9000 0.0000
  endloop
endfacet
facet normal 0.0000 0.0000 -1.0000
  outer loop
    vertex 1.8430 -9.2654 0.0000
    vertex -0.0000 -9.6000 0.0000
    vertex -0.0000 -5.9000 0.0000
  endloop
endfacet
facet normal 0.0000 0.0000 0.0000
  outer loop
    vertex 1.8430 -9.2654 0.0000
    vertex -0.0000 -5.9000 0.0000
    vertex -0.0000 -5.9000 0.0000
  endloop
endfacet
facet normal 0.0000 0.0000 -1.0000
  outer loop
    vertex 3.7820 -9.1306 0.0000
    vertex 1.8430 -9.2654 0.0000
    vertex -0.0000 -5.9000 0.0000
  endloop
endfacet
facet normal 0.0000 0.0000 -1.0000
  outer loop
    vertex 3.7820 -9.1306 0.0000
    vertex -0.0000 -5.9000 0.0000
    vertex 1.5270 -5.6990 0.0000
  endloop
endfacet
facet normal 0.0000 0.0000 -1.0000
  outer loop
    vertex 5.1282 -7.6748 0.0000
    vertex 3.7820 -9.1306 0.0000
    vertex 1.5270 -5.6990 0.0000
  endloop
endfacet
facet normal 0.0000 0.0000 -1.0000
  outer loop
    vertex 5.1282 -7.6748 0.0000
    vertex 1.5270 -5.6990 0.0000
    vertex 2.9500 -5.1095 0.0000
  endloop
endfacet
facet normal 0.0000 0.0000 -1.0000
  outer loop
    vertex 7.0711 -7.0711 0.0000
    vertex 5.1282 -7.6748 0.0000
    vertex 2.9500 -5.1095 0.0000
  endloop
endfacet
facet normal 0.0000 0.0000 -1.0000
  outer loop
    vertex 7.0711 -7.0711 0.0000
    vertex 2.9500 -5.1095 0.0000
    vertex 4.1719 -4.1719 0.0000
  endloop
endfacet
facet normal 0.0000 0.0000 -1.0000
  outer loop
    vertex 7.6748 -5.1282 0.0000
    vertex 7.0711 -7.0711 0.0000
    vertex 4.1719 -4.1719 0.0000
  endloop
endfacet
facet normal 0.0000 0.0000 0.0000
  outer loop
    vertex 7.6748 -5.1282 0.0000
    vertex 4.1719 -4.1719 0.0000
    vertex 4.1719 -4.1719 0.0000
  endloop
endfacet
facet normal 0.0000 0.0000 -1.0000
  outer loop
    vertex 9.1306 -3.7820 0.0000
    vertex 7.6748 -5.1282 0.0000
    vertex 4.1719 -4.1719 0.0000
  endloop
endfacet
facet normal 0.0000 0.0000 -1.0000
  outer loop
    vertex 9.1306 -3.7820 0.0000
    vertex 4.1719 -4.1719 0.0000
    vertex 5.1095 -2.9500 0.0000
  endloop
endfacet
facet normal 0.0000 0.0000 -1.0000
  outer loop
    vertex 9.2654 -1.8430 0.0000
    vertex 9.1306 -3.7820 0.0000
    vertex 5.1095 -2.9500 0.0000
  endloop
endfacet
facet normal 0.0000 0.0000 -1.0000
  outer loop
    vertex 9.2654 -1.8430 0.0000
    vertex 5.1095 -2.9500 0.0000
    vertex 5.6990 -1.5270 0.0000
  endloop
endfacet
facet normal 0.0000 0.0000 -1.0000
  outer loop
    vertex 9.6000 0.0000 0.0000
    vertex 9.2654 -1.8430 0.0000
    vertex 5.6990 -1.5270 0.0000
  endloop
endfacet
facet normal 0.0000 0.0000 -1.0000
  outer loop
    vertex 9.6000 0.0000 0.0000
    vertex 5.6990 -1.5270 0.0000
    vertex 5.9000 0.0000 0.0000
  endloop
endfacet
endsolid mi_small_slipon
