solid eurorack_std
facet normal 0.8452 0.5332 0.0368
  outer loop
    vertex 6.2500 0.0000 0.0000
    vertex 2.9864 5.1727 0.0000
    vertex 2.6739 4.6314 15.0000
  endloop
endfacet
facet normal 0.8428 0.5370 0.0351
  outer loop
    vertex 6.2500 0.0000 0.0000
    vertex 2.6739 4.6314 15.0000
    vertex 5.6250 0.0000 15.0000
  endloop
endfacet
facet normal 0.0765 0.9965 0.0344
  outer loop
    vertex 2.9864 5.1727 0.0000
    vertex -3.2636 5.6527 0.0000
    vertex -2.9511 5.1114 15.0000
  endloop
endfacet
facet normal 0.0850 0.9957 0.0377
  outer loop
    vertex 2.9864 5.1727 0.0000
    vertex -2.9511 5.1114 15.0000
    vertex 2.6739 4.6314 15.0000
  endloop
endfacet
facet normal -0.8836 0.4668 0.0368
  outer loop
    vertex -3.2636 5.6527 0.0000
    vertex -6.2500 0.0000 0.0000
    vertex -5.6250 0.0000 15.0000
  endloop
endfacet
facet normal -0.8855 0.4632 0.0352
  outer loop
    vertex -3.2636 5.6527 0.0000
    vertex -5.6250 0.0000 15.0000
    vertex -2.9511 5.1114 15.0000
  endloop
endfacet
facet normal -0.8452 -0.5332 0.0368
  outer loop
    vertex -6.2500 0.0000 0.0000
    vertex -2.9864 -5.1727 0.0000
    vertex -2.6739 -4.6314 15.0000
  endloop
endfacet
facet normal -0.8428 -0.5370 0.0351
  outer loop
    vertex -6.2500 0.0000 0.0000
    vertex -2.6739 -4.6314 15.0000
    vertex -5.6250 0.0000 15.0000
  endloop
endfacet
facet normal -0.0765 -0.9965 0.0344
  outer loop
    vertex -2.9864 -5.1727 0.0000
    vertex 3.2636 -5.6527 0.0000
    vertex 2.9511 -5.1114 15.0000
  endloop
endfacet
facet normal -0.0850 -0.9957 0.0377
  outer loop
    vertex -2.9864 -5.1727 0.0000
    vertex 2.9511 -5.1114 15.0000
    vertex -2.6739 -4.6314 15.0000
  endloop
endfacet
facet normal 0.8836 -0.4668 0.0368
  outer loop
    vertex 3.2636 -5.6527 0.0000
    vertex 6.2500 0.0000 0.0000
    vertex 5.6250 0.0000 15.0000
  endloop
endfacet
facet normal 0.8855 -0.4632 0.0352
  outer loop
    vertex 3.2636 -5.6527 0.0000
    vertex 5.6250 0.0000 15.0000
    vertex 2.9511 -5.1114 15.0000
  endloop
endfacet
facet normal -0.9914 -0.1305 0.0000
  outer loop
    vertex 3.0427 0.8153 0.0000
    vertex 3.1500 0.0000 0.0000
    vertex 3.1500 0.0000 8.0000
  endloop
endfacet
facet normal -0.9914 -0.1305 0.0000
  outer loop
    vertex 3.0427 0.8153 0.0000
    vertex 3.1500 0.0000 8.0000
    vertex 3.0427 0.8153 8.0000
  endloop
endfacet
facet normal -0.9239 -0.3827 0.0000
  outer loop
    vertex 2.7280 1.5750 0.0000
    vertex 3.0427 0.8153 0.0000
    vertex 3.0427 0.8153 8.0000
  endloop
endfacet
facet normal -0.9239 -0.3827 0.0000
  outer loop
    vertex 2.7280 1.5750 0.0000
    vertex 3.0427 0.8153 8.0000
    vertex 2.7280 1.5750 8.0000
  endloop
endfacet
facet normal -0.7934 -0.6088 0.0000
  outer loop
    vertex 2.2274 2.2274 0.0000
    vertex 2.7280 1.5750 0.0000
    vertex 2.7280 1.5750 8.0000
  endloop
endfacet
facet normal -0.7934 -0.6088 0.0000
  outer loop
    vertex 2.2274 2.2274 0.0000
    vertex 2.7280 1.5750 8.0000
    vertex 2.2274 2.2274 8.0000
  endloop
endfacet
facet normal -0.2028 -0.9792 0.0000
  outer loop
    vertex 1.5750 2.3625 0.0000
    vertex 2.2274 2.2274 0.0000
    vertex 2.2274 2.2274 8.0000
  endloop
endfacet
facet normal -0.2028 -0.9792 0.0000
  outer loop
    vertex 1.5750 2.3625 0.0000
    vertex 2.2274 2.2274 8.0000
    vertex 1.5750 2.3625 8.0000
  endloop
endfacet
facet normal 0.0000 -1.0000 0.0000
  outer loop
    vertex 0.8153 2.3625 0.0000
    vertex 1.5750 2.3625 0.0000
    vertex 1.5750 2.3625 8.0000
  endloop
endfacet
facet normal 0.0000 -1.0000 0.0000
  outer loop
    vertex 0.8153 2.3625 0.0000
    vertex 1.5750 2.3625 8.0000
    vertex 0.8153 2.3625 8.0000
  endloop
endfacet
facet normal 0.0000 -1.0000 0.0000
  outer loop
    vertex 0.0000 2.3625 0.0000
    vertex 0.8153 2.3625 0.0000
    vertex 0.8153 2.3625 8.0000
  endloop
endfacet
facet normal 0.0000 -1.0000 0.0000
  outer loop
    vertex 0.0000 2.3625 0.0000
    vertex 0.8153 2.3625 8.0000
    vertex 0.0000 2.3625 8.0000
  endloop
endfacet
facet normal 0.0000 -1.0000 0.0000
  outer loop
    vertex -0.8153 2.3625 0.0000
    vertex 0.0000 2.3625 0.0000
    vertex 0.0000 2.3625 8.0000
  endloop
endfacet
facet normal 0.0000 -1.0000 0.0000
  outer loop
    vertex -0.8153 2.3625 0.0000
    vertex 0.0000 2.3625 8.0000
    vertex -0.8153 2.3625 8.0000
  endloop
endfacet
facet normal 0.0000 -1.0000 0.0000
  outer loop
    vertex -1.5750 2.3625 0.0000
    vertex -0.8153 2.3625 0.0000
    vertex -0.8153 2.3625 8.0000
  endloop
endfacet
facet normal 0.0000 -1.0000 0.0000
  outer loop
    vertex -1.5750 2.3625 0.0000
    vertex -0.8153 2.3625 8.0000
    vertex -1.5750 2.3625 8.0000
  endloop
endfacet
facet normal 0.2028 -0.9792 0.0000
  outer loop
    vertex -2.2274 2.2274 0.0000
    vertex -1.5750 2.3625 0.0000
    vertex -1.5750 2.3625 8.0000
  endloop
endfacet
facet normal 0.2028 -0.9792 0.0000
  outer loop
    vertex -2.2274 2.2274 0.0000
    vertex -1.5750 2.3625 8.0000
    vertex -2.2274 2.2274 8.0000
  endloop
endfacet
facet normal 0.7934 -0.6088 0.0000
  outer loop
    vertex -2.7280 1.5750 0.0000
    vertex -2.2274 2.2274 0.0000
    vertex -2.2274 2.2274 8.0000
  endloop
endfacet
facet normal 0.7934 -0.6088 0.0000
  outer loop
    vertex -2.7280 1.5750 0.0000
    vertex -2.2274 2.2274 8.0000
    vertex -2.7280 1.5750 8.0000
  endloop
endfacet
facet normal 0.9239 -0.3827 0.0000
  outer loop
    vertex -3.0427 0.8153 0.0000
    vertex -2.7280 1.5750 0.0000
    vertex -2.7280 1.5750 8.0000
  endloop
endfacet
facet normal 0.9239 -0.3827 0.0000
  outer loop
    vertex -3.0427 0.8153 0.0000
    vertex -2.7280 1.5750 8.0000
    vertex -3.0427 0.8153 8.0000
  endloop
endfacet
facet normal 0.9914 -0.1305 0.0000
  outer loop
    vertex -3.1500 0.0000 0.0000
    vertex -3.0427 0.8153 0.0000
    vertex -3.0427 0.8153 8.0000
  endloop
endfacet
facet normal 0.9914 -0.1305 0.0000
  outer loop
    vertex -3.1500 0.0000 0.0000
    vertex -3.0427 0.8153 8.0000
    vertex -3.1500 0.0000 8.0000
  endloop
endfacet
facet normal 0.9914 0.1305 0.0000
  outer loop
    vertex -3.0427 -0.8153 0.0000
    vertex -3.1500 0.0000 0.0000
    vertex -3.1500 0.0000 8.0000
  endloop
endfacet
facet normal 0.9914 0.1305 0.0000
  outer loop
    vertex -3.0427 -0.8153 0.0000
    vertex -3.1500 0.0000 8.0000
    vertex -3.0427 -0.8153 8.0000
  endloop
endfacet
facet normal 0.9239 0.3827 0.0000
  outer loop
    vertex -2.7280 -1.5750 0.0000
    vertex -3.0427 -0.8153 0.0000
    vertex -3.0427 -0.8153 8.0000
  endloop
endfacet
facet normal 0.9239 0.3827 0.0000
  outer loop
    vertex -2.7280 -1.5750 0.0000
    vertex -3.0427 -0.8153 8.0000
    vertex -2.7280 -1.5750 8.0000
  endloop
endfacet
facet normal 0.7934 0.6088 0.0000
  outer loop
    vertex -2.2274 -2.2274 0.0000
    vertex -2.7280 -1.5750 0.0000
    vertex -2.7280 -1.5750 8.0000
  endloop
endfacet
facet normal 0.7934 0.6088 0.0000
  outer loop
    vertex -2.2274 -2.2274 0.0000
    vertex -2.7280 -1.5750 8.0000
    vertex -2.2274 -2.2274 8.0000
  endloop
endfacet
facet normal 0.6088 0.7934 0.0000
  outer loop
    vertex -1.5750 -2.7280 0.0000
    vertex -2.2274 -2.2274 0.0000
    vertex -2.2274 -2.2274 8.0000
  endloop
endfacet
facet normal 0.6088 0.7934 0.0000
  outer loop
    vertex -1.5750 -2.7280 0.0000
    vertex -2.2274 -2.2274 8.0000
    vertex -1.5750 -2.7280 8.0000
  endloop
endfacet
facet normal 0.3827 0.9239 0.0000
  outer loop
    vertex -0.8153 -3.0427 0.0000
    vertex -1.5750 -2.7280 0.0000
    vertex -1.5750 -2.7280 8.0000
  endloop
endfacet
facet normal 0.3827 0.9239 0.0000
  outer loop
    vertex -0.8153 -3.0427 0.0000
    vertex -1.5750 -2.7280 8.0000
    vertex -0.8153 -3.0427 8.0000
  endloop
endfacet
facet normal 0.1305 0.9914 0.0000
  outer loop
    vertex -0.0000 -3.1500 0.0000
    vertex -0.8153 -3.0427 0.0000
    vertex -0.8153 -3.0427 8.0000
  endloop
endfacet
facet normal 0.1305 0.9914 0.0000
  outer loop
    vertex -0.0000 -3.1500 0.0000
    vertex -0.8153 -3.0427 8.0000
    vertex -0.0000 -3.1500 8.0000
  endloop
endfacet
facet normal -0.1305 0.9914 0.0000
  outer loop
    vertex 0.8153 -3.0427 0.0000
    vertex -0.0000 -3.1500 0.0000
    vertex -0.0000 -3.1500 8.0000
  endloop
endfacet
facet normal -0.1305 0.9914 0.0000
  outer loop
    vertex 0.8153 -3.0427 0.0000
    vertex -0.0000 -3.1500 8.0000
    vertex 0.8153 -3.0427 8.0000
  endloop
endfacet
facet normal -0.3827 0.9239 0.0000
  outer loop
    vertex 1.5750 -2.7280 0.0000
    vertex 0.8153 -3.0427 0.0000
    vertex 0.8153 -3.0427 8.0000
  endloop
endfacet
facet normal -0.3827 0.9239 0.0000
  outer loop
    vertex 1.5750 -2.7280 0.0000
    vertex 0.8153 -3.0427 8.0000
    vertex 1.5750 -2.7280 8.0000
  endloop
endfacet
facet normal -0.6088 0.7934 0.0000
  outer loop
    vertex 2.2274 -2.2274 0.0000
    vertex 1.5750 -2.7280 0.0000
    vertex 1.5750 -2.7280 8.0000
  endloop
endfacet
facet normal -0.6088 0.7934 0.0000
  outer loop
    vertex 2.2274 -2.2274 0.0000
    vertex 1.5750 -2.7280 8.0000
    vertex 2.2274 -2.2274 8.0000
  endloop
endfacet
facet normal -0.7934 0.6088 0.0000
  outer loop
    vertex 2.7280 -1.5750 0.0000
    vertex 2.2274 -2.2274 0.0000
    vertex 2.2274 -2.2274 8.0000
  endloop
endfacet
facet normal -0.7934 0.6088 0.0000
  outer loop
    vertex 2.7280 -1.5750 0.0000
    vertex 2.2274 -2.2274 8.0000
    vertex 2.7280 -1.5750 8.0000
  endloop
endfacet
facet normal -0.9239 0.3827 0.0000
  outer loop
    vertex 3.0427 -0.8153 0.0000
    vertex 2.7280 -1.5750 0.0000
    vertex 2.7280 -1.5750 8.0000
  endloop
endfacet
facet normal -0.9239 0.3827 0.0000
  outer loop
    vertex 3.0427 -0.8153 0.0000
    vertex 2.7280 -1.5750 8.0000
    vertex 3.0427 -0.8153 8.0000
  endloop
endfacet
facet normal -0.9914 0.1305 0.0000
  outer loop
    vertex 3.1500 0.0000 0.0000
    vertex 3.0427 -0.8153 0.0000
    vertex 3.0427 -0.8153 8.0000
  endloop
endfacet
facet normal -0.9914 0.1305 0.0000
  outer loop
    vertex 3.1500 0.0000 0.0000
    vertex 3.0427 -0.8153 8.0000
    vertex 3.1500 0.0000 8.0000
  endloop
endfacet
facet normal 0.0000 0.0000 1.0000
  outer loop
    vertex 5.6250 0.0000 15.0000
    vertex 2.6739 4.6314 15.0000
    vertex 0.0000 0.0000 15.0000
  endloop
endfacet
facet normal 0.0000 0.0000 1.0000
  outer loop
    vertex 2.6739 4.6314 15.0000
    vertex -2.9511 5.1114 15.0000
    vertex 0.0000 0.0000 15.0000
  endloop
endfacet
facet normal 0.0000 0.0000 1.0000
  outer loop
    vertex -2.9511 5.1114 15.0000
    vertex -5.6250 0.0000 15.0000
    vertex 0.0000 0.0000 15.0000
  endloop
endfacet
facet normal 0.0000 0.0000 1.0000
  outer loop
    vertex -5.6250 0.0000 15.0000
    vertex -2.6739 -4.6314 15.0000
    vertex 0.0000 0.0000 15.0000
  endloop
endfacet
facet normal 0.0000 0.0000 1.0000
  outer loop
    vertex -2.6739 -4.6314 15.0000
    vertex 2.9511 -5.1114 15.0000
    vertex 0.0000 0.0000 15.0000
  endloop
endfacet
facet normal 0.0000 0.0000 1.0000
  outer loop
    vertex 2.9511 -5.1114 15.0000
    vertex 5.6250 0.0000 15.0000
    vertex 0.0000 0.0000 15.0000
  endloop
endfacet
facet normal 0.0000 0.0000 -1.0000
  outer loop
    vertex 3.0427 0.8153 8.0000
    vertex 3.1500 0.0000 8.0000
    vertex 0.0000 0.0000 8.0000
  endloop
endfacet
facet normal 0.0000 0.0000 -1.0000
  outer loop
    vertex 2.7280 1.5750 8.0000
    vertex 3.0427 0.8153 8.0000
    vertex 0.0000 0.0000 8.0000
  endloop
endfacet
facet normal 0.0000 0.0000 -1.0000
  outer loop
    vertex 2.2274 2.2274 8.0000
    vertex 2.7280 1.5750 8.0000
    vertex 0.0000 0.0000 8.0000
  endloop
endfacet
facet normal 0.0000 0.0000 -1.0000
  outer loop
    vertex 1.5750 2.3625 8.0000
    vertex 2.2274 2.2274 8.0000
    vertex 0.0000 0.0000 8.0000
  endloop
endfacet
facet normal 0.0000 0.0000 -1.0000
  outer loop
    vertex 0.8153 2.3625 8.0000
    vertex 1.5750 2.3625 8.0000
    vertex 0.0000 0.0000 8.0000
  endloop
endfacet
facet normal 0.0000 0.0000 -1.0000
  outer loop
    vertex 0.0000 2.3625 8.0000
    vertex 0.8153 2.3625 8.0000
    vertex 0.0000 0.0000 8.0000
  endloop
endfacet
facet normal 0.0000 0.0000 -1.0000
  outer loop
    vertex -0.8153 2.3625 8.0000
    vertex 0.0000 2.3625 8.0000
    vertex 0.0000 0.0000 8.0000
  endloop
endfacet
facet normal 0.0000 0.0000 -1.0000
  outer loop
    vertex -1.5750 2.3625 8.0000
    vertex -0.8153 2.3625 8.0000
    vertex 0.0000 0.0000 8.0000
  endloop
endfacet
facet normal 0.0000 0.0000 -1.0000
  outer loop
    vertex -2.2274 2.2274 8.0000
    vertex -1.5750 2.3625 8.0000
    vertex 0.0000 0.0000 8.0000
  endloop
endfacet
facet normal 0.0000 0.0000 -1.0000
  outer loop
    vertex -2.7280 1.5750 8.0000
    vertex -2.2274 2.2274 8.0000
    vertex 0.0000 0.0000 8.0000
  endloop
endfacet
facet normal 0.0000 0.0000 -1.0000
  outer loop
    vertex -3.0427 0.8153 8.0000
    vertex -2.7280 1.5750 8.0000
    vertex 0.0000 0.0000 8.0000
  endloop
endfacet
facet normal 0.0000 0.0000 -1.0000
  outer loop
    vertex -3.1500 0.0000 8.0000
    vertex -3.0427 0.8153 8.0000
    vertex 0.0000 0.0000 8.0000
  endloop
endfacet
facet normal 0.0000 0.0000 -1.0000
  outer loop
    vertex -3.0427 -0.8153 8.0000
    vertex -3.1500 0.0000 8.0000
    vertex 0.0000 0.0000 8.0000
  endloop
endfacet
facet normal 0.0000 0.0000 -1.0000
  outer loop
    vertex -2.7280 -1.5750 8.0000
    vertex -3.0427 -0.8153 8.0000
    vertex 0.0000 0.0000 8.0000
  endloop
endfacet
facet normal 0.0000 0.0000 -1.0000
  outer loop
    vertex -2.2274 -2.2274 8.0000
    vertex -2.7280 -1.5750 8.0000
    vertex 0.0000 0.0000 8.0000
  endloop
endfacet
facet normal 0.0000 0.0000 -1.0000
  outer loop
    vertex -1.5750 -2.7280 8.0000
    vertex -2.2274 -2.2274 8.0000
    vertex 0.0000 0.0000 8.0000
  endloop
endfacet
facet normal 0.0000 0.0000 -1.0000
  outer loop
    vertex -0.8153 -3.0427 8.0000
    vertex -1.5750 -2.7280 8.0000
    vertex 0.0000 0.0000 8.0000
  endloop
endfacet
facet normal 0.0000 0.0000 -1.0000
  outer loop
    vertex -0.0000 -3.1500 8.0000
    vertex -0.8153 -3.0427 8.0000
    vertex 0.0000 0.0000 8.0000
  endloop
endfacet
facet normal 0.0000 0.0000 -1.0000
  outer loop
    vertex 0.8153 -3.0427 8.0000
    vertex -0.0000 -3.1500 8.0000
    vertex 0.0000 0.0000 8.0000
  endloop
endfacet
facet normal 0.0000 0.0000 -1.0000
  outer loop
    vertex 1.5750 -2.7280 8.0000
    vertex 0.8153 -3.0427 8.0000
    vertex 0.0000 0.0000 8.0000
  endloop
endfacet
facet normal 0.0000 0.0000 -1.0000
  outer loop
    vertex 2.2274 -2.2274 8.0000
    vertex 1.5750 -2.7280 8.0000
    vertex 0.0000 0.0000 8.0000
  endloop
endfacet
facet normal 0.0000 0.0000 -1.0000
  outer loop
    vertex 2.7280 -1.5750 8.0000
    vertex 2.2274 -2.2274 8.0000
    vertex 0.0000 0.0000 8.0000
  endloop
endfacet
facet normal 0.0000 0.0000 -1.0000
  outer loop
    vertex 3.0427 -0.8153 8.0000
    vertex 2.7280 -1.5750 8.0000
    vertex 0.0000 0.0000 8.0000
  endloop
endfacet
facet normal 0.0000 0.0000 -1.0000
  outer loop
    vertex 3.1500 0.0000 8.0000
    vertex 3.0427 -0.8153 8.0000
    vertex 0.0000 0.0000 8.0000
  endloop
endfacet
facet normal 0.0000 0.0000 -1.0000
  outer loop
    vertex 2.9864 5.1727 0.0000
    vertex 6.2500 0.0000 0.0000
    vertex 3.1500 0.0000 0.0000
  endloop
endfacet
facet normal 0.0000 0.0000 -1.0000
  outer loop
    vertex 2.9864 5.1727 0.0000
    vertex 3.1500 0.0000 0.0000
    vertex 1.5750 2.3625 0.0000
  endloop
endfacet
facet normal 0.0000 0.0000 -1.0000
  outer loop
    vertex -3.2636 5.6527 0.0000
    vertex 2.9864 5.1727 0.0000
    vertex 1.5750 2.3625 0.0000
  endloop
endfacet
facet normal 0.0000 0.0000 -1.0000
  outer loop
    vertex -3.2636 5.6527 0.0000
    vertex 1.5750 2.3625 0.0000
    vertex -1.5750 2.3625 0.0000
  endloop
endfacet
facet normal 0.0000 0.0000 -1.0000
  outer loop
    vertex -6.2500 0.0000 0.0000
    vertex -3.2636 5.6527 0.0000
    vertex -1.5750 2.3625 0.0000
  endloop
endfacet
facet normal 0.0000 0.0000 -1.0000
  outer loop
    vertex -6.2500 0.0000 0.0000
    vertex -1.5750 2.3625 0.0000
    vertex -3.1500 0.0000 0.0000
  endloop
endfacet
facet normal 0.0000 0.0000 -1.0000
  outer loop
    vertex -2.9864 -5.1727 0.0000
    vertex -6.2500 0.0000 0.0000
    vertex -3.1500 0.0000 0.0000
  endloop
endfacet
facet normal 0.0000 0.0000 -1.0000
  outer loop
    vertex -2.9864 -5.1727 0.0000
    vertex -3.1500 0.0000 0.0000
    vertex -1.5750 -2.7280 0.0000
  endloop
endfacet
facet normal 0.0000 0.0000 -1.0000
  outer loop
    vertex 3.2636 -5.6527 0.0000
    vertex -2.9864 -5.1727 0.0000
    vertex -1.5750 -2.7280 0.0000
  endloop
endfacet
facet normal 0.0000 0.0000 -1.0000
  outer loop
    vertex 3.2636 -5.6527 0.0000
    vertex -1.5750 -2.7280 0.0000
    vertex 1.5750 -2.7280 0.0000
  endloop
endfacet
facet normal 0.0000 0.0000 -1.0000
  outer loop
    vertex 6.2500 0.0000 0.0000
    vertex 3.2636 -5.6527 0.0000
    vertex 1.5750 -2.7280 0.0000
  endloop
endfacet
facet normal 0.0000 0.0000 -1.0000
  outer loop
    vertex 6.2500 0.0000 0.0000
    vertex 1.5750 -2.7280 0.0000
    vertex 3.1500 0.0000 0.0000
  endloop
endfacet
endsolid eurorack_std
