solid makenoise_euro
facet normal 0.9974 -0.0619 0.0362
  outer loop
    vertex 5.2500 0.0000 0.0000
    vertex 5.3156 1.0573 0.0000
    vertex 4.8007 0.9549 14.0000
  endloop
endfacet
facet normal 0.9962 -0.0789 0.0374
  outer loop
    vertex 5.2500 0.0000 0.0000
    vertex 4.8007 0.9549 14.0000
    vertex 4.7250 0.0000 14.0000
  endloop
endfacet
facet normal 0.7808 0.6237 0.0360
  outer loop
    vertex 5.3156 1.0573 0.0000
    vertex 4.6286 1.9172 0.0000
    vertex 4.1436 1.7163 14.0000
  endloop
endfacet
facet normal 0.7567 0.6530 0.0326
  outer loop
    vertex 5.3156 1.0573 0.0000
    vertex 4.1436 1.7163 14.0000
    vertex 4.8007 0.9549 14.0000
  endloop
endfacet
facet normal 0.9933 0.1111 0.0333
  outer loop
    vertex 4.6286 1.9172 0.0000
    vertex 4.5063 3.0110 0.0000
    vertex 4.0698 2.7194 14.0000
  endloop
endfacet
facet normal 0.9967 0.0733 0.0356
  outer loop
    vertex 4.6286 1.9172 0.0000
    vertex 4.0698 2.7194 14.0000
    vertex 4.1436 1.7163 14.0000
  endloop
endfacet
facet normal 0.6615 0.7490 0.0374
  outer loop
    vertex 4.5063 3.0110 0.0000
    vertex 3.7123 3.7123 0.0000
    vertex 3.3411 3.3411 14.0000
  endloop
endfacet
facet normal 0.6486 0.7603 0.0361
  outer loop
    vertex 4.5063 3.0110 0.0000
    vertex 3.3411 3.3411 14.0000
    vertex 4.0698 2.7194 14.0000
  endloop
endfacet
facet normal 0.4982 0.8662 0.0374
  outer loop
    vertex 3.7123 3.7123 0.0000
    vertex 2.8225 4.2241 0.0000
    vertex 2.5308 3.7876 14.0000
  endloop
endfacet
facet normal 0.4823 0.8753 0.0360
  outer loop
    vertex 3.7123 3.7123 0.0000
    vertex 2.5308 3.7876 14.0000
    vertex 3.3411 3.3411 14.0000
  endloop
endfacet
facet normal 0.7612 0.6477 0.0334
  outer loop
    vertex 2.8225 4.2241 0.0000
    vertex 2.1009 5.0721 0.0000
    vertex 1.9000 4.5871 14.0000
  endloop
endfacet
facet normal 0.7846 0.6190 0.0356
  outer loop
    vertex 2.8225 4.2241 0.0000
    vertex 1.9000 4.5871 14.0000
    vertex 2.5308 3.7876 14.0000
  endloop
endfacet
facet normal -0.0803 0.9961 0.0360
  outer loop
    vertex 2.1009 5.0721 0.0000
    vertex 0.9911 4.9827 0.0000
    vertex 0.8887 4.4678 14.0000
  endloop
endfacet
facet normal -0.1171 0.9926 0.0327
  outer loop
    vertex 2.1009 5.0721 0.0000
    vertex 0.8887 4.4678 14.0000
    vertex 1.9000 4.5871 14.0000
  endloop
endfacet
facet normal 0.2602 0.9649 0.0362
  outer loop
    vertex 0.9911 4.9827 0.0000
    vertex 0.0000 5.2500 0.0000
    vertex 0.0000 4.7250 14.0000
  endloop
endfacet
facet normal 0.2778 0.9599 0.0373
  outer loop
    vertex 0.9911 4.9827 0.0000
    vertex 0.0000 4.7250 14.0000
    vertex 0.8887 4.4678 14.0000
  endloop
endfacet
facet normal 0.0619 0.9974 0.0362
  outer loop
    vertex 0.0000 5.2500 0.0000
    vertex -1.0573 5.3156 0.0000
    vertex -0.9549 4.8007 14.0000
  endloop
endfacet
facet normal 0.0789 0.9962 0.0374
  outer loop
    vertex 0.0000 5.2500 0.0000
    vertex -0.9549 4.8007 14.0000
    vertex 0.0000 4.7250 14.0000
  endloop
endfacet
facet normal -0.6237 0.7808 0.0360
  outer loop
    vertex -1.0573 5.3156 0.0000
    vertex -1.9172 4.6286 0.0000
    vertex -1.7163 4.1436 14.0000
  endloop
endfacet
facet normal -0.6530 0.7567 0.0326
  outer loop
    vertex -1.0573 5.3156 0.0000
    vertex -1.7163 4.1436 14.0000
    vertex -0.9549 4.8007 14.0000
  endloop
endfacet
facet normal -0.1111 0.9933 0.0333
  outer loop
    vertex -1.9172 4.6286 0.0000
    vertex -3.0110 4.5063 0.0000
    vertex -2.7194 4.0698 14.0000
  endloop
endfacet
facet normal -0.0733 0.9967 0.0356
  outer loop
    vertex -1.9172 4.6286 0.0000
    vertex -2.7194 4.0698 14.0000
    vertex -1.7163 4.1436 14.0000
  endloop
endfacet
facet normal -0.7490 0.6615 0.0374
  outer loop
    vertex -3.0110 4.5063 0.0000
    vertex -3.7123 3.7123 0.0000
    vertex -3.3411 3.3411 14.0000
  endloop
endfacet
facet normal -0.7603 0.6486 0.0361
  outer loop
    vertex -3.0110 4.5063 0.0000
    vertex -3.3411 3.3411 14.0000
    vertex -2.7194 4.0698 14.0000
  endloop
endfacet
facet normal -0.8662 0.4982 0.0374
  outer loop
    vertex -3.7123 3.7123 0.0000
    vertex -4.2241 2.8225 0.0000
    vertex -3.7876 2.5308 14.0000
  endloop
endfacet
facet normal -0.8753 0.4823 0.0360
  outer loop
    vertex -3.7123 3.7123 0.0000
    vertex -3.7876 2.5308 14.0000
    vertex -3.3411 3.3411 14.0000
  endloop
endfacet
facet normal -0.6477 0.7612 0.0334
  outer loop
    vertex -4.2241 2.8225 0.0000
    vertex -5.0721 2.1009 0.0000
    vertex -4.5871 1.9000 14.0000
  endloop
endfacet
facet normal -0.6190 0.7846 0.0356
  outer loop
    vertex -4.2241 2.8225 0.0000
    vertex -4.5871 1.9000 14.0000
    vertex -3.7876 2.5308 14.0000
  endloop
endfacet
facet normal -0.9961 -0.0803 0.0360
  outer loop
    vertex -5.0721 2.1009 0.0000
    vertex -4.9827 0.9911 0.0000
    vertex -4.4678 0.8887 14.0000
  endloop
endfacet
facet normal -0.9926 -0.1171 0.0327
  outer loop
    vertex -5.0721 2.1009 0.0000
    vertex -4.4678 0.8887 14.0000
    vertex -4.5871 1.9000 14.0000
  endloop
endfacet
facet normal -0.9649 0.2602 0.0362
  outer loop
    vertex -4.9827 0.9911 0.0000
    vertex -5.2500 0.0000 0.0000
    vertex -4.7250 0.0000 14.0000
  endloop
endfacet
facet normal -0.9599 0.2778 0.0373
  outer loop
    vertex -4.9827 0.9911 0.0000
    vertex -4.7250 0.0000 14.0000
    vertex -4.4678 0.8887 14.0000
  endloop
endfacet
facet normal -0.9974 0.0619 0.0362
  outer loop
    vertex -5.2500 0.0000 0.0000
    vertex -5.3156 -1.0573 0.0000
    vertex -4.8007 -0.9549 14.0000
  endloop
endfacet
facet normal -0.9962 0.0789 0.0374
  outer loop
    vertex -5.2500 0.0000 0.0000
    vertex -4.8007 -0.9549 14.0000
    vertex -4.7250 0.0000 14.0000
  endloop
endfacet
facet normal -0.7808 -0.6237 0.0360
  outer loop
    vertex -5.3156 -1.0573 0.0000
    vertex -4.6286 -1.9172 0.0000
    vertex -4.1436 -1.7163 14.0000
  endloop
endfacet
facet normal -0.7567 -0.6530 0.0326
  outer loop
    vertex -5.3156 -1.0573 0.0000
    vertex -4.1436 -1.7163 14.0000
    vertex -4.8007 -0.9549 14.0000
  endloop
endfacet
facet normal -0.9933 -0.1111 0.0333
  outer loop
    vertex -4.6286 -1.9172 0.0000
    vertex -4.5063 -3.0110 0.0000
    vertex -4.0698 -2.7194 14.0000
  endloop
endfacet
facet normal -0.9967 -0.0733 0.0356
  outer loop
    vertex -4.6286 -1.9172 0.0000
    vertex -4.0698 -2.7194 14.0000
    vertex -4.1436 -1.7163 14.0000
  endloop
endfacet
facet normal -0.6615 -0.7490 0.0374
  outer loop
    vertex -4.5063 -3.0110 0.0000
    vertex -3.7123 -3.7123 0.0000
    vertex -3.3411 -3.3411 14.0000
  endloop
endfacet
facet normal -0.6486 -0.7603 0.0361
  outer loop
    vertex -4.5063 -3.0110 0.0000
    vertex -3.3411 -3.3411 14.0000
    vertex -4.0698 -2.7194 14.0000
  endloop
endfacet
facet normal -0.4982 -0.8662 0.0374
  outer loop
    vertex -3.7123 -3.7123 0.0000
    vertex -2.8225 -4.2241 0.0000
    vertex -2.5308 -3.7876 14.0000
  endloop
endfacet
facet normal -0.4823 -0.8753 0.0360
  outer loop
    vertex -3.7123 -3.7123 0.0000
    vertex -2.5308 -3.7876 14.0000
    vertex -3.3411 -3.3411 14.0000
  endloop
endfacet
facet normal -0.7612 -0.6477 0.0334
  outer loop
    vertex -2.8225 -4.2241 0.0000
    vertex -2.1009 -5.0721 0.0000
    vertex -1.9000 -4.5871 14.0000
  endloop
endfacet
facet normal -0.7846 -0.6190 0.0356
  outer loop
    vertex -2.8225 -4.2241 0.0000
    vertex -1.9000 -4.5871 14.0000
    vertex -2.5308 -3.7876 14.0000
  endloop
endfacet
facet normal 0.0803 -0.9961 0.0360
  outer loop
    vertex -2.1009 -5.0721 0.0000
    vertex -0.9911 -4.9827 0.0000
    vertex -0.8887 -4.4678 14.0000
  endloop
endfacet
facet normal 0.1171 -0.9926 0.0327
  outer loop
    vertex -2.1009 -5.0721 0.0000
    vertex -0.8887 -4.4678 14.0000
    vertex -1.9000 -4.5871 14.0000
  endloop
endfacet
facet normal -0.2602 -0.9649 0.0362
  outer loop
    vertex -0.9911 -4.9827 0.0000
    vertex -0.0000 -5.2500 0.0000
    vertex -0.0000 -4.7250 14.0000
  endloop
endfacet
facet normal -0.2778 -0.9599 0.0373
  outer loop
    vertex -0.9911 -4.9827 0.0000
    vertex -0.0000 -4.7250 14.0000
    vertex -0.8887 -4.4678 14.0000
  endloop
endfacet
facet normal -0.0619 -0.9974 0.0362
  outer loop
    vertex -0.0000 -5.2500 0.0000
    vertex 1.0573 -5.3156 0.0000
    vertex 0.9549 -4.8007 14.0000
  endloop
endfacet
facet normal -0.0789 -0.9962 0.0374
  outer loop
    vertex -0.0000 -5.2500 0.0000
    vertex 0.9549 -4.8007 14.0000
    vertex -0.0000 -4.7250 14.0000
  endloop
endfacet
facet normal 0.6237 -0.7808 0.0360
  outer loop
    vertex 1.0573 -5.3156 0.0000
    vertex 1.9172 -4.6286 0.0000
    vertex 1.7163 -4.1436 14.0000
  endloop
endfacet
facet normal 0.6530 -0.7567 0.0326
  outer loop
    vertex 1.0573 -5.3156 0.0000
    vertex 1.7163 -4.1436 14.0000
    vertex 0.9549 -4.8007 14.0000
  endloop
endfacet
facet normal 0.1111 -0.9933 0.0333
  outer loop
    vertex 1.9172 -4.6286 0.0000
    vertex 3.0110 -4.5063 0.0000
    vertex 2.7194 -4.0698 14.0000
  endloop
endfacet
facet normal 0.0733 -0.9967 0.0356
  outer loop
    vertex 1.9172 -4.6286 0.0000
    vertex 2.7194 -4.0698 14.0000
    vertex 1.7163 -4.1436 14.0000
  endloop
endfacet
facet normal 0.7490 -0.6615 0.0374
  outer loop
    vertex 3.0110 -4.5063 0.0000
    vertex 3.7123 -3.7123 0.0000
    vertex 3.3411 -3.3411 14.0000
  endloop
endfacet
facet normal 0.7603 -0.6486 0.0361
  outer loop
    vertex 3.0110 -4.5063 0.0000
    vertex 3.3411 -3.3411 14.0000
    vertex 2.7194 -4.0698 14.0000
  endloop
endfacet
facet normal 0.8662 -0.4982 0.0374
  outer loop
    vertex 3.7123 -3.7123 0.0000
    vertex 4.2241 -2.8225 0.0000
    vertex 3.7876 -2.5308 14.0000
  endloop
endfacet
facet normal 0.8753 -0.4823 0.0360
  outer loop
    vertex 3.7123 -3.7123 0.0000
    vertex 3.7876 -2.5308 14.0000
    vertex 3.3411 -3.3411 14.0000
  endloop
endfacet
facet normal 0.6477 -0.7612 0.0334
  outer loop
    vertex 4.2241 -2.8225 0.0000
    vertex 5.0721 -2.1009 0.0000
    vertex 4.5871 -1.9000 14.0000
  endloop
endfacet
facet normal 0.6190 -0.7846 0.0356
  outer loop
    vertex 4.2241 -2.8225 0.0000
    vertex 4.5871 -1.9000 14.0000
    vertex 3.7876 -2.5308 14.0000
  endloop
endfacet
facet normal 0.9961 0.0803 0.0360
  outer loop
    vertex 5.0721 -2.1009 0.0000
    vertex 4.9827 -0.9911 0.0000
    vertex 4.4678 -0.8887 14.0000
  endloop
endfacet
facet normal 0.9926 0.1171 0.0327
  outer loop
    vertex 5.0721 -2.1009 0.0000
    vertex 4.4678 -0.8887 14.0000
    vertex 4.5871 -1.9000 14.0000
  endloop
endfacet
facet normal 0.9649 -0.2602 0.0362
  outer loop
    vertex 4.9827 -0.9911 0.0000
    vertex 5.2500 0.0000 0.0000
    vertex 4.7250 0.0000 14.0000
  endloop
endfacet
facet normal 0.9599 -0.2778 0.0373
  outer loop
    vertex 4.9827 -0.9911 0.0000
    vertex 4.7250 0.0000 14.0000
    vertex 4.4678 -0.8887 14.0000
  endloop
endfacet
facet normal -0.9914 -0.1305 0.0000
  outer loop
    vertex 3.0427 0.8153 0.0000
    vertex 3.1500 0.0000 0.0000
    vertex 3.1500 0.0000 8.0000
  endloop
endfacet
facet normal -0.9914 -0.1305 0.0000
  outer loop
    vertex 3.0427 0.8153 0.0000
    vertex 3.1500 0.0000 8.0000
    vertex 3.0427 0.8153 8.0000
  endloop
endfacet
facet normal -0.9239 -0.3827 0.0000
  outer loop
    vertex 2.7280 1.5750 0.0000
    vertex 3.0427 0.8153 0.0000
    vertex 3.0427 0.8153 8.0000
  endloop
endfacet
facet normal -0.9239 -0.3827 0.0000
  outer loop
    vertex 2.7280 1.5750 0.0000
    vertex 3.0427 0.8153 8.0000
    vertex 2.7280 1.5750 8.0000
  endloop
endfacet
facet normal -0.7934 -0.6088 0.0000
  outer loop
    vertex 2.2274 2.2274 0.0000
    vertex 2.7280 1.5750 0.0000
    vertex 2.7280 1.5750 8.0000
  endloop
endfacet
facet normal -0.7934 -0.6088 0.0000
  outer loop
    vertex 2.2274 2.2274 0.0000
    vertex 2.7280 1.5750 8.0000
    vertex 2.2274 2.2274 8.0000
  endloop
endfacet
facet normal -0.2028 -0.9792 0.0000
  outer loop
    vertex 1.5750 2.3625 0.0000
    vertex 2.2274 2.2274 0.0000
    vertex 2.2274 2.2274 8.0000
  endloop
endfacet
facet normal -0.2028 -0.9792 0.0000
  outer loop
    vertex 1.5750 2.3625 0.0000
    vertex 2.2274 2.2274 8.0000
    vertex 1.5750 2.3625 8.0000
  endloop
endfacet
facet normal 0.0000 -1.0000 0.0000
  outer loop
    vertex 0.8153 2.3625 0.0000
    vertex 1.5750 2.3625 0.0000
    vertex 1.5750 2.3625 8.0000
  endloop
endfacet
facet normal 0.0000 -1.0000 0.0000
  outer loop
    vertex 0.8153 2.3625 0.0000
    vertex 1.5750 2.3625 8.0000
    vertex 0.8153 2.3625 8.0000
  endloop
endfacet
facet normal 0.0000 -1.0000 0.0000
  outer loop
    vertex 0.0000 2.3625 0.0000
    vertex 0.8153 2.3625 0.0000
    vertex 0.8153 2.3625 8.0000
  endloop
endfacet
facet normal 0.0000 -1.0000 0.0000
  outer loop
    vertex 0.0000 2.3625 0.0000
    vertex 0.8153 2.3625 8.0000
    vertex 0.0000 2.3625 8.0000
  endloop
endfacet
facet normal 0.0000 -1.0000 0.0000
  outer loop
    vertex -0.8153 2.3625 0.0000
    vertex 0.0000 2.3625 0.0000
    vertex 0.0000 2.3625 8.0000
  endloop
endfacet
facet normal 0.0000 -1.0000 0.0000
  outer loop
    vertex -0.8153 2.3625 0.0000
    vertex 0.0000 2.3625 8.0000
    vertex -0.8153 2.3625 8.0000
  endloop
endfacet
facet normal 0.0000 -1.0000 0.0000
  outer loop
    vertex -1.5750 2.3625 0.0000
    vertex -0.8153 2.3625 0.0000
    vertex -0.8153 2.3625 8.0000
  endloop
endfacet
facet normal 0.0000 -1.0000 0.0000
  outer loop
    vertex -1.5750 2.3625 0.0000
    vertex -0.8153 2.3625 8.0000
    vertex -1.5750 2.3625 8.0000
  endloop
endfacet
facet normal 0.2028 -0.9792 0.0000
  outer loop
    vertex -2.2274 2.2274 0.0000
    vertex -1.5750 2.3625 0.0000
    vertex -1.5750 2.3625 8.0000
  endloop
endfacet
facet normal 0.2028 -0.9792 0.0000
  outer loop
    vertex -2.2274 2.2274 0.0000
    vertex -1.5750 2.3625 8.0000
    vertex -2.2274 2.2274 8.0000
  endloop
endfacet
facet normal 0.7934 -0.6088 0.0000
  outer loop
    vertex -2.7280 1.5750 0.0000
    vertex -2.2274 2.2274 0.0000
    vertex -2.2274 2.2274 8.0000
  endloop
endfacet
facet normal 0.7934 -0.6088 0.0000
  outer loop
    vertex -2.7280 1.5750 0.0000
    vertex -2.2274 2.2274 8.0000
    vertex -2.7280 1.5750 8.0000
  endloop
endfacet
facet normal 0.9239 -0.3827 0.0000
  outer loop
    vertex -3.0427 0.8153 0.0000
    vertex -2.7280 1.5750 0.0000
    vertex -2.7280 1.5750 8.0000
  endloop
endfacet
facet normal 0.9239 -0.3827 0.0000
  outer loop
    vertex -3.0427 0.8153 0.0000
    vertex -2.7280 1.5750 8.0000
    vertex -3.0427 0.8153 8.0000
  endloop
endfacet
facet normal 0.9914 -0.1305 0.0000
  outer loop
    vertex -3.1500 0.0000 0.0000
    vertex -3.0427 0.8153 0.0000
    vertex -3.0427 0.8153 8.0000
  endloop
endfacet
facet normal 0.9914 -0.1305 0.0000
  outer loop
    vertex -3.1500 0.0000 0.0000
    vertex -3.0427 0.8153 8.0000
    vertex -3.1500 0.0000 8.0000
  endloop
endfacet
facet normal 0.9914 0.1305 0.0000
  outer loop
    vertex -3.0427 -0.8153 0.0000
    vertex -3.1500 0.0000 0.0000
    vertex -3.1500 0.0000 8.0000
  endloop
endfacet
facet normal 0.9914 0.1305 0.0000
  outer loop
    vertex -3.0427 -0.8153 0.0000
    vertex -3.1500 0.0000 8.0000
    vertex -3.0427 -0.8153 8.0000
  endloop
endfacet
facet normal 0.9239 0.3827 0.0000
  outer loop
    vertex -2.7280 -1.5750 0.0000
    vertex -3.0427 -0.8153 0.0000
    vertex -3.0427 -0.8153 8.0000
  endloop
endfacet
facet normal 0.9239 0.3827 0.0000
  outer loop
    vertex -2.7280 -1.5750 0.0000
    vertex -3.0427 -0.8153 8.0000
    vertex -2.7280 -1.5750 8.0000
  endloop
endfacet
facet normal 0.7934 0.6088 0.0000
  outer loop
    vertex -2.2274 -2.2274 0.0000
    vertex -2.7280 -1.5750 0.0000
    vertex -2.7280 -1.5750 8.0000
  endloop
endfacet
facet normal 0.7934 0.6088 0.0000
  outer loop
    vertex -2.2274 -2.2274 0.0000
    vertex -2.7280 -1.5750 8.0000
    vertex -2.2274 -2.2274 8.0000
  endloop
endfacet
facet normal 0.6088 0.7934 0.0000
  outer loop
    vertex -1.5750 -2.7280 0.0000
    vertex -2.2274 -2.2274 0.0000
    vertex -2.2274 -2.2274 8.0000
  endloop
endfacet
facet normal 0.6088 0.7934 0.0000
  outer loop
    vertex -1.5750 -2.7280 0.0000
    vertex -2.2274 -2.2274 8.0000
    vertex -1.5750 -2.7280 8.0000
  endloop
endfacet
facet normal 0.3827 0.9239 0.0000
  outer loop
    vertex -0.8153 -3.0427 0.0000
    vertex -1.5750 -2.7280 0.0000
    vertex -1.5750 -2.7280 8.0000
  endloop
endfacet
facet normal 0.3827 0.9239 0.0000
  outer loop
    vertex -0.8153 -3.0427 0.0000
    vertex -1.5750 -2.7280 8.0000
    vertex -0.8153 -3.0427 8.0000
  endloop
endfacet
facet normal 0.1305 0.9914 0.0000
  outer loop
    vertex -0.0000 -3.1500 0.0000
    vertex -0.8153 -3.0427 0.0000
    vertex -0.8153 -3.0427 8.0000
  endloop
endfacet
facet normal 0.1305 0.9914 0.0000
  outer loop
    vertex -0.0000 -3.1500 0.0000
    vertex -0.8153 -3.0427 8.0000
    vertex -0.0000 -3.1500 8.0000
  endloop
endfacet
facet normal -0.1305 0.9914 0.0000
  outer loop
    vertex 0.8153 -3.0427 0.0000
    vertex -0.0000 -3.1500 0.0000
    vertex -0.0000 -3.1500 8.0000
  endloop
endfacet
facet normal -0.1305 0.9914 0.0000
  outer loop
    vertex 0.8153 -3.0427 0.0000
    vertex -0.0000 -3.1500 8.0000
    vertex 0.8153 -3.0427 8.0000
  endloop
endfacet
facet normal -0.3827 0.9239 0.0000
  outer loop
    vertex 1.5750 -2.7280 0.0000
    vertex 0.8153 -3.0427 0.0000
    vertex 0.8153 -3.0427 8.0000
  endloop
endfacet
facet normal -0.3827 0.9239 0.0000
  outer loop
    vertex 1.5750 -2.7280 0.0000
    vertex 0.8153 -3.0427 8.0000
    vertex 1.5750 -2.7280 8.0000
  endloop
endfacet
facet normal -0.6088 0.7934 0.0000
  outer loop
    vertex 2.2274 -2.2274 0.0000
    vertex 1.5750 -2.7280 0.0000
    vertex 1.5750 -2.7280 8.0000
  endloop
endfacet
facet normal -0.6088 0.7934 0.0000
  outer loop
    vertex 2.2274 -2.2274 0.0000
    vertex 1.5750 -2.7280 8.0000
    vertex 2.2274 -2.2274 8.0000
  endloop
endfacet
facet normal -0.7934 0.6088 0.0000
  outer loop
    vertex 2.7280 -1.5750 0.0000
    vertex 2.2274 -2.2274 0.0000
    vertex 2.2274 -2.2274 8.0000
  endloop
endfacet
facet normal -0.7934 0.6088 0.0000
  outer loop
    vertex 2.7280 -1.5750 0.0000
    vertex 2.2274 -2.2274 8.0000
    vertex 2.7280 -1.5750 8.0000
  endloop
endfacet
facet normal -0.9239 0.3827 0.0000
  outer loop
    vertex 3.0427 -0.8153 0.0000
    vertex 2.7280 -1.5750 0.0000
    vertex 2.7280 -1.5750 8.0000
  endloop
endfacet
facet normal -0.9239 0.3827 0.0000
  outer loop
    vertex 3.0427 -0.8153 0.0000
    vertex 2.7280 -1.5750 8.0000
    vertex 3.0427 -0.8153 8.0000
  endloop
endfacet
facet normal -0.9914 0.1305 0.0000
  outer loop
    vertex 3.1500 0.0000 0.0000
    vertex 3.0427 -0.8153 0.0000
    vertex 3.0427 -0.8153 8.0000
  endloop
endfacet
facet normal -0.9914 0.1305 0.0000
  outer loop
    vertex 3.1500 0.0000 0.0000
    vertex 3.0427 -0.8153 8.0000
    vertex 3.1500 0.0000 8.0000
  endloop
endfacet
facet normal 0.0000 0.0000 1.0000
  outer loop
    vertex 4.7250 0.0000 14.0000
    vertex 4.8007 0.9549 14.0000
    vertex 0.0000 0.0000 14.0000
  endloop
endfacet
facet normal 0.0000 0.0000 1.0000
  outer loop
    vertex 4.8007 0.9549 14.0000
    vertex 4.1436 1.7163 14.0000
    vertex 0.0000 0.0000 14.0000
  endloop
endfacet
facet normal 0.0000 0.0000 1.0000
  outer loop
    vertex 4.1436 1.7163 14.0000
    vertex 4.0698 2.7194 14.0000
    vertex 0.0000 0.0000 14.0000
  endloop
endfacet
facet normal 0.0000 0.0000 1.0000
  outer loop
    vertex 4.0698 2.7194 14.0000
    vertex 3.3411 3.3411 14.0000
    vertex 0.0000 0.0000 14.0000
  endloop
endfacet
facet normal 0.0000 0.0000 1.0000
  outer loop
    vertex 3.3411 3.3411 14.0000
    vertex 2.5308 3.7876 14.0000
    vertex 0.0000 0.0000 14.0000
  endloop
endfacet
facet normal 0.0000 0.0000 1.0000
  outer loop
    vertex 2.5308 3.7876 14.0000
    vertex 1.9000 4.5871 14.0000
    vertex 0.0000 0.0000 14.0000
  endloop
endfacet
facet normal 0.0000 0.0000 1.0000
  outer loop
    vertex 1.9000 4.5871 14.0000
    vertex 0.8887 4.4678 14.0000
    vertex 0.0000 0.0000 14.0000
  endloop
endfacet
facet normal 0.0000 0.0000 1.0000
  outer loop
    vertex 0.8887 4.4678 14.0000
    vertex 0.0000 4.7250 14.0000
    vertex 0.0000 0.0000 14.0000
  endloop
endfacet
facet normal 0.0000 0.0000 1.0000
  outer loop
    vertex 0.0000 4.7250 14.0000
    vertex -0.9549 4.8007 14.0000
    vertex 0.0000 0.0000 14.0000
  endloop
endfacet
facet normal 0.0000 0.0000 1.0000
  outer loop
    vertex -0.9549 4.8007 14.0000
    vertex -1.7163 4.1436 14.0000
    vertex 0.0000 0.0000 14.0000
  endloop
endfacet
facet normal 0.0000 0.0000 1.0000
  outer loop
    vertex -1.7163 4.1436 14.0000
    vertex -2.7194 4.0698 14.0000
    vertex 0.0000 0.0000 14.0000
  endloop
endfacet
facet normal 0.0000 0.0000 1.0000
  outer loop
    vertex -2.7194 4.0698 14.0000
    vertex -3.3411 3.3411 14.0000
    vertex 0.0000 0.0000 14.0000
  endloop
endfacet
facet normal 0.0000 0.0000 1.0000
  outer loop
    vertex -3.3411 3.3411 14.0000
    vertex -3.7876 2.5308 14.0000
    vertex 0.0000 0.0000 14.0000
  endloop
endfacet
facet normal 0.0000 0.0000 1.0000
  outer loop
    vertex -3.7876 2.5308 14.0000
    vertex -4.5871 1.9000 14.0000
    vertex 0.0000 0.0000 14.0000
  endloop
endfacet
facet normal 0.0000 0.0000 1.0000
  outer loop
    vertex -4.5871 1.9000 14.0000
    vertex -4.4678 0.8887 14.0000
    vertex 0.0000 0.0000 14.0000
  endloop
endfacet
facet normal 0.0000 0.0000 1.0000
  outer loop
    vertex -4.4678 0.8887 14.0000
    vertex -4.7250 0.0000 14.0000
    vertex 0.0000 0.0000 14.0000
  endloop
endfacet
facet normal 0.0000 0.0000 1.0000
  outer loop
    vertex -4.7250 0.0000 14.0000
    vertex -4.8007 -0.9549 14.0000
    vertex 0.0000 0.0000 14.0000
  endloop
endfacet
facet normal 0.0000 0.0000 1.0000
  outer loop
    vertex -4.8007 -0.9549 14.0000
    vertex -4.1436 -1.7163 14.0000
    vertex 0.0000 0.0000 14.0000
  endloop
endfacet
facet normal 0.0000 0.0000 1.0000
  outer loop
    vertex -4.1436 -1.7163 14.0000
    vertex -4.0698 -2.7194 14.0000
    vertex 0.0000 0.0000 14.0000
  endloop
endfacet
facet normal 0.0000 0.0000 1.0000
  outer loop
    vertex -4.0698 -2.7194 14.0000
    vertex -3.3411 -3.3411 14.0000
    vertex 0.0000 0.0000 14.0000
  endloop
endfacet
facet normal 0.0000 0.0000 1.0000
  outer loop
    vertex -3.3411 -3.3411 14.0000
    vertex -2.5308 -3.7876 14.0000
    vertex 0.0000 0.0000 14.0000
  endloop
endfacet
facet normal 0.0000 0.0000 1.0000
  outer loop
    vertex -2.5308 -3.7876 14.0000
    vertex -1.9000 -4.5871 14.0000
    vertex 0.0000 0.0000 14.0000
  endloop
endfacet
facet normal 0.0000 0.0000 1.0000
  outer loop
    vertex -1.9000 -4.5871 14.0000
    vertex -0.8887 -4.4678 14.0000
    vertex 0.0000 0.0000 14.0000
  endloop
endfacet
facet normal 0.0000 0.0000 1.0000
  outer loop
    vertex -0.8887 -4.4678 14.0000
    vertex -0.0000 -4.7250 14.0000
    vertex 0.0000 0.0000 14.0000
  endloop
endfacet
facet normal 0.0000 0.0000 1.0000
  outer loop
    vertex -0.0000 -4.7250 14.0000
    vertex 0.9549 -4.8007 14.0000
    vertex 0.0000 0.0000 14.0000
  endloop
endfacet
facet normal 0.0000 0.0000 1.0000
  outer loop
    vertex 0.9549 -4.8007 14.0000
    vertex 1.7163 -4.1436 14.0000
    vertex 0.0000 0.0000 14.0000
  endloop
endfacet
facet normal 0.0000 0.0000 1.0000
  outer loop
    vertex 1.7163 -4.1436 14.0000
    vertex 2.7194 -4.0698 14.0000
    vertex 0.0000 0.0000 14.0000
  endloop
endfacet
facet normal 0.0000 0.0000 1.0000
  outer loop
    vertex 2.7194 -4.0698 14.0000
    vertex 3.3411 -3.3411 14.0000
    vertex 0.0000 0.0000 14.0000
  endloop
endfacet
facet normal 0.0000 0.0000 1.0000
  outer loop
    vertex 3.3411 -3.3411 14.0000
    vertex 3.7876 -2.5308 14.0000
    vertex 0.0000 0.0000 14.0000
  endloop
endfacet
facet normal 0.0000 0.0000 1.0000
  outer loop
    vertex 3.7876 -2.5308 14.0000
    vertex 4.5871 -1.9000 14.0000
    vertex 0.0000 0.0000 14.0000
  endloop
endfacet
facet normal 0.0000 0.0000 1.0000
  outer loop
    vertex 4.5871 -1.9000 14.0000
    vertex 4.4678 -0.8887 14.0000
    vertex 0.0000 0.0000 14.0000
  endloop
endfacet
facet normal 0.0000 0.0000 1.0000
  outer loop
    vertex 4.4678 -0.8887 14.0000
    vertex 4.7250 0.0000 14.0000
    vertex 0.0000 0.0000 14.0000
  endloop
endfacet
facet normal 0.0000 0.0000 -1.0000
  outer loop
    vertex 3.0427 0.8153 8.0000
    vertex 3.1500 0.0000 8.0000
    vertex 0.0000 0.0000 8.0000
  endloop
endfacet
facet normal 0.0000 0.0000 -1.0000
  outer loop
    vertex 2.7280 1.5750 8.0000
    vertex 3.0427 0.8153 8.0000
    vertex 0.0000 0.0000 8.0000
  endloop
endfacet
facet normal 0.0000 0.0000 -1.0000
  outer loop
    vertex 2.2274 2.2274 8.0000
    vertex 2.7280 1.5750 8.0000
    vertex 0.0000 0.0000 8.0000
  endloop
endfacet
facet normal 0.0000 0.0000 -1.0000
  outer loop
    vertex 1.5750 2.3625 8.0000
    vertex 2.2274 2.2274 8.0000
    vertex 0.0000 0.0000 8.0000
  endloop
endfacet
facet normal 0.0000 0.0000 -1.0000
  outer loop
    vertex 0.8153 2.3625 8.0000
    vertex 1.5750 2.3625 8.0000
    vertex 0.0000 0.0000 8.0000
  endloop
endfacet
facet normal 0.0000 0.0000 -1.0000
  outer loop
    vertex 0.0000 2.3625 8.0000
    vertex 0.8153 2.3625 8.0000
    vertex 0.0000 0.0000 8.0000
  endloop
endfacet
facet normal 0.0000 0.0000 -1.0000
  outer loop
    vertex -0.8153 2.3625 8.0000
    vertex 0.0000 2.3625 8.0000
    vertex 0.0000 0.0000 8.0000
  endloop
endfacet
facet normal 0.0000 0.0000 -1.0000
  outer loop
    vertex -1.5750 2.3625 8.0000
    vertex -0.8153 2.3625 8.0000
    vertex 0.0000 0.0000 8.0000
  endloop
endfacet
facet normal 0.0000 0.0000 -1.0000
  outer loop
    vertex -2.2274 2.2274 8.0000
    vertex -1.5750 2.3625 8.0000
    vertex 0.0000 0.0000 8.0000
  endloop
endfacet
facet normal 0.0000 0.0000 -1.0000
  outer loop
    vertex -2.7280 1.5750 8.0000
    vertex -2.2274 2.2274 8.0000
    vertex 0.0000 0.0000 8.0000
  endloop
endfacet
facet normal 0.0000 0.0000 -1.0000
  outer loop
    vertex -3.0427 0.8153 8.0000
    vertex -2.7280 1.5750 8.0000
    vertex 0.0000 0.0000 8.0000
  endloop
endfacet
facet normal 0.0000 0.0000 -1.0000
  outer loop
    vertex -3.1500 0.0000 8.0000
    vertex -3.0427 0.8153 8.0000
    vertex 0.0000 0.0000 8.0000
  endloop
endfacet
facet normal 0.0000 0.0000 -1.0000
  outer loop
    vertex -3.0427 -0.8153 8.0000
    vertex -3.1500 0.0000 8.0000
    vertex 0.0000 0.0000 8.0000
  endloop
endfacet
facet normal 0.0000 0.0000 -1.0000
  outer loop
    vertex -2.7280 -1.5750 8.0000
    vertex -3.0427 -0.8153 8.0000
    vertex 0.0000 0.0000 8.0000
  endloop
endfacet
facet normal 0.0000 0.0000 -1.0000
  outer loop
    vertex -2.2274 -2.2274 8.0000
    vertex -2.7280 -1.5750 8.0000
    vertex 0.0000 0.0000 8.0000
  endloop
endfacet
facet normal 0.0000 0.0000 -1.0000
  outer loop
    vertex -1.5750 -2.7280 8.0000
    vertex -2.2274 -2.2274 8.0000
    vertex 0.0000 0.0000 8.0000
  endloop
endfacet
facet normal 0.0000 0.0000 -1.0000
  outer loop
    vertex -0.8153 -3.0427 8.0000
    vertex -1.5750 -2.7280 8.0000
    vertex 0.0000 0.0000 8.0000
  endloop
endfacet
facet normal 0.0000 0.0000 -1.0000
  outer loop
    vertex -0.0000 -3.1500 8.0000
    vertex -0.8153 -3.0427 8.0000
    vertex 0.0000 0.0000 8.0000
  endloop
endfacet
facet normal 0.0000 0.0000 -1.0000
  outer loop
    vertex 0.8153 -3.0427 8.0000
    vertex -0.0000 -3.1500 8.0000
    vertex 0.0000 0.0000 8.0000
  endloop
endfacet
facet normal 0.0000 0.0000 -1.0000
  outer loop
    vertex 1.5750 -2.7280 8.0000
    vertex 0.8153 -3.0427 8.0000
    vertex 0.0000 0.0000 8.0000
  endloop
endfacet
facet normal 0.0000 0.0000 -1.0000
  outer loop
    vertex 2.2274 -2.2274 8.0000
    vertex 1.5750 -2.7280 8.0000
    vertex 0.0000 0.0000 8.0000
  endloop
endfacet
facet normal 0.0000 0.0000 -1.0000
  outer loop
    vertex 2.7280 -1.5750 8.0000
    vertex 2.2274 -2.2274 8.0000
    vertex 0.0000 0.0000 8.0000
  endloop
endfacet
facet normal 0.0000 0.0000 -1.0000
  outer loop
    vertex 3.0427 -0.8153 8.0000
    vertex 2.7280 -1.5750 8.0000
    vertex 0.0000 0.0000 8.0000
  endloop
endfacet
facet normal 0.0000 0.0000 -1.0000
  outer loop
    vertex 3.1500 0.0000 8.0000
    vertex 3.0427 -0.8153 8.0000
    vertex 0.0000 0.0000 8.0000
  endloop
endfacet
facet normal 0.0000 0.0000 -1.0000
  outer loop
    vertex 5.3156 1.0573 0.0000
    vertex 5.2500 0.0000 0.0000
    vertex 3.1500 0.0000 0.0000
  endloop
endfacet
facet normal 0.0000 0.0000 0.0000
  outer loop
    vertex 5.3156 1.0573 0.0000
    vertex 3.1500 0.0000 0.0000
    vertex 3.1500 0.0000 0.0000
  endloop
endfacet
facet normal 0.0000 0.0000 -1.0000
  outer loop
    vertex 4.6286 1.9172 0.0000
    vertex 5.3156 1.0573 0.0000
    vertex 3.1500 0.0000 0.0000
  endloop
endfacet
facet normal 0.0000 0.0000 -1.0000
  outer loop
    vertex 4.6286 1.9172 0.0000
    vertex 3.1500 0.0000 0.0000
    vertex 3.0427 0.8153 0.0000
  endloop
endfacet
facet normal 0.0000 0.0000 -1.0000
  outer loop
    vertex 4.5063 3.0110 0.0000
    vertex 4.6286 1.9172 0.0000
    vertex 3.0427 0.8153 0.0000
  endloop
endfacet
facet normal 0.0000 0.0000 -1.0000
  outer loop
    vertex 4.5063 3.0110 0.0000
    vertex 3.0427 0.8153 0.0000
    vertex 2.7280 1.5750 0.0000
  endloop
endfacet
facet normal 0.0000 0.0000 -1.0000
  outer loop
    vertex 3.7123 3.7123 0.0000
    vertex 4.5063 3.0110 0.0000
    vertex 2.7280 1.5750 0.0000
  endloop
endfacet
facet normal 0.0000 0.0000 -1.0000
  outer loop
    vertex 3.7123 3.7123 0.0000
    vertex 2.7280 1.5750 0.0000
    vertex 2.2274 2.2274 0.0000
  endloop
endfacet
facet normal 0.0000 0.0000 -1.0000
  outer loop
    vertex 2.8225 4.2241 0.0000
    vertex 3.7123 3.7123 0.0000
    vertex 2.2274 2.2274 0.0000
  endloop
endfacet
facet normal 0.0000 0.0000 0.0000
  outer loop
    vertex 2.8225 4.2241 0.0000
    vertex 2.2274 2.2274 0.0000
    vertex 2.2274 2.2274 0.0000
  endloop
endfacet
facet normal 0.0000 0.0000 -1.0000
  outer loop
    vertex 2.1009 5.0721 0.0000
    vertex 2.8225 4.2241 0.0000
    vertex 2.2274 2.2274 0.0000
  endloop
endfacet
facet normal 0.0000 0.0000 -1.0000
  outer loop
    vertex 2.1009 5.0721 0.0000
    vertex 2.2274 2.2274 0.0000
    vertex 1.5750 2.3625 0.0000
  endloop
endfacet
facet normal 0.0000 0.0000 -1.0000
  outer loop
    vertex 0.9911 4.9827 0.0000
    vertex 2.1009 5.0721 0.0000
    vertex 1.5750 2.3625 0.0000
  endloop
endfacet
facet normal 0.0000 0.0000 -1.0000
  outer loop
    vertex 0.9911 4.9827 0.0000
    vertex 1.5750 2.3625 0.0000
    vertex 0.8153 2.3625 0.0000
  endloop
endfacet
facet normal 0.0000 0.0000 -1.0000
  outer loop
    vertex 0.0000 5.2500 0.0000
    vertex 0.9911 4.9827 0.0000
    vertex 0.8153 2.3625 0.0000
  endloop
endfacet
facet normal 0.0000 0.0000 -1.0000
  outer loop
    vertex 0.0000 5.2500 0.0000
    vertex 0.8153 2.3625 0.0000
    vertex 0.0000 2.3625 0.0000
  endloop
endfacet
facet normal 0.0000 0.0000 -1.0000
  outer loop
    vertex -1.0573 5.3156 0.0000
    vertex 0.0000 5.2500 0.0000
    vertex 0.0000 2.3625 0.0000
  endloop
endfacet
facet normal 0.0000 0.0000 0.0000
  outer loop
    vertex -1.0573 5.3156 0.0000
    vertex 0.0000 2.3625 0.0000
    vertex 0.0000 2.3625 0.0000
  endloop
endfacet
facet normal 0.0000 0.0000 -1.0000
  outer loop
    vertex -1.9172 4.6286 0.0000
    vertex -1.0573 5.3156 0.0000
    vertex 0.0000 2.3625 0.0000
  endloop
endfacet
facet normal 0.0000 0.0000 -1.0000
  outer loop
    vertex -1.9172 4.6286 0.0000
    vertex 0.0000 2.3625 0.0000
    vertex -0.8153 2.3625 0.0000
  endloop
endfacet
facet normal 0.0000 0.0000 -1.0000
  outer loop
    vertex -3.0110 4.5063 0.0000
    vertex -1.9172 4.6286 0.0000
    vertex -0.8153 2.3625 0.0000
  endloop
endfacet
facet normal 0.0000 0.0000 -1.0000
  outer loop
    vertex -3.0110 4.5063 0.0000
    vertex -0.8153 2.3625 0.0000
    vertex -1.5750 2.3625 0.0000
  endloop
endfacet
facet normal 0.0000 0.0000 -1.0000
  outer loop
    vertex -3.7123 3.7123 0.0000
    vertex -3.0110 4.5063 0.0000
    vertex -1.5750 2.3625 0.0000
  endloop
endfacet
facet normal 0.0000 0.0000 -1.0000
  outer loop
    vertex -3.7123 3.7123 0.0000
    vertex -1.5750 2.3625 0.0000
    vertex -2.2274 2.2274 0.0000
  endloop
endfacet
facet normal 0.0000 0.0000 -1.0000
  outer loop
    vertex -4.2241 2.8225 0.0000
    vertex -3.7123 3.7123 0.0000
    vertex -2.2274 2.2274 0.0000
  endloop
endfacet
facet normal 0.0000 0.0000 0.0000
  outer loop
    vertex -4.2241 2.8225 0.0000
    vertex -2.2274 2.2274 0.0000
    vertex -2.2274 2.2274 0.0000
  endloop
endfacet
facet normal 0.0000 0.0000 -1.0000
  outer loop
    vertex -5.0721 2.1009 0.0000
    vertex -4.2241 2.8225 0.0000
    vertex -2.2274 2.2274 0.0000
  endloop
endfacet
facet normal 0.0000 0.0000 -1.0000
  outer loop
    vertex -5.0721 2.1009 0.0000
    vertex -2.2274 2.2274 0.0000
    vertex -2.7280 1.5750 0.0000
  endloop
endfacet
facet normal 0.0000 0.0000 -1.0000
  outer loop
    vertex -4.9827 0.9911 0.0000
    vertex -5.0721 2.1009 0.0000
    vertex -2.7280 1.5750 0.0000
  endloop
endfacet
facet normal 0.0000 0.0000 -1.0000
  outer loop
    vertex -4.9827 0.9911 0.0000
    vertex -2.7280 1.5750 0.0000
    vertex -3.0427 0.8153 0.0000
  endloop
endfacet
facet normal 0.0000 0.0000 -1.0000
  outer loop
    vertex -5.2500 0.0000 0.0000
    vertex -4.9827 0.9911 0.0000
    vertex -3.0427 0.8153 0.0000
  endloop
endfacet
facet normal 0.0000 0.0000 -1.0000
  outer loop
    vertex -5.2500 0.0000 0.0000
    vertex -3.0427 0.8153 0.0000
    vertex -3.1500 0.0000 0.0000
  endloop
endfacet
facet normal 0.0000 0.0000 -1.0000
  outer loop
    vertex -5.3156 -1.0573 0.0000
    vertex -5.2500 0.0000 0.0000
    vertex -3.1500 0.0000 0.0000
  endloop
endfacet
facet normal 0.0000 0.0000 0.0000
  outer loop
    vertex -5.3156 -1.0573 0.0000
    vertex -3.1500 0.0000 0.0000
    vertex -3.1500 0.0000 0.0000
  endloop
endfacet
facet normal 0.0000 0.0000 -1.0000
  outer loop
    vertex -4.6286 -1.9172 0.0000
    vertex -5.3156 -1.0573 0.0000
    vertex -3.1500 0.0000 0.0000
  endloop
endfacet
facet normal 0.0000 0.0000 -1.0000
  outer loop
    vertex -4.6286 -1.9172 0.0000
    vertex -3.1500 0.0000 0.0000
    vertex -3.0427 -0.8153 0.0000
  endloop
endfacet
facet normal 0.0000 0.0000 -1.0000
  outer loop
    vertex -4.5063 -3.0110 0.0000
    vertex -4.6286 -1.9172 0.0000
    vertex -3.0427 -0.8153 0.0000
  endloop
endfacet
facet normal 0.0000 0.0000 -1.0000
  outer loop
    vertex -4.5063 -3.0110 0.0000
    vertex -3.0427 -0.8153 0.0000
    vertex -2.7280 -1.5750 0.0000
  endloop
endfacet
facet normal 0.0000 0.0000 -1.0000
  outer loop
    vertex -3.7123 -3.7123 0.0000
    vertex -4.5063 -3.0110 0.0000
    vertex -2.7280 -1.5750 0.0000
  endloop
endfacet
facet normal 0.0000 0.0000 -1.0000
  outer loop
    vertex -3.7123 -3.7123 0.0000
    vertex -2.7280 -1.5750 0.0000
    vertex -2.2274 -2.2274 0.0000
  endloop
endfacet
facet normal 0.0000 0.0000 -1.0000
  outer loop
    vertex -2.8225 -4.2241 0.0000
    vertex -3.7123 -3.7123 0.0000
    vertex -2.2274 -2.2274 0.0000
  endloop
endfacet
facet normal 0.0000 0.0000 0.0000
  outer loop
    vertex -2.8225 -4.2241 0.0000
    vertex -2.2274 -2.2274 0.0000
    vertex -2.2274 -2.2274 0.0000
  endloop
endfacet
facet normal 0.0000 0.0000 -1.0000
  outer loop
    vertex -2.1009 -5.0721 0.0000
    vertex -2.8225 -4.2241 0.0000
    vertex -2.2274 -2.2274 0.0000
  endloop
endfacet
facet normal 0.0000 0.0000 -1.0000
  outer loop
    vertex -2.1009 -5.0721 0.0000
    vertex -2.2274 -2.2274 0.0000
    vertex -1.5750 -2.7280 0.0000
  endloop
endfacet
facet normal 0.0000 0.0000 -1.0000
  outer loop
    vertex -0.9911 -4.9827 0.0000
    vertex -2.1009 -5.0721 0.0000
    vertex -1.5750 -2.7280 0.0000
  endloop
endfacet
facet normal 0.0000 0.0000 -1.0000
  outer loop
    vertex -0.9911 -4.9827 0.0000
    vertex -1.5750 -2.7280 0.0000
    vertex -0.8153 -3.0427 0.0000
  endloop
endfacet
facet normal 0.0000 0.0000 -1.0000
  outer loop
    vertex -0.0000 -5.2500 0.0000
    vertex -0.9911 -4.9827 0.0000
    vertex -0.8153 -3.0427 0.0000
  endloop
endfacet
facet normal 0.0000 0.0000 -1.0000
  outer loop
    vertex -0.0000 -5.2500 0.0000
    vertex -0.8153 -3.0427 0.0000
    vertex -0.0000 -3.1500 0.0000
  endloop
endfacet
facet normal 0.0000 0.0000 -1.0000
  outer loop
    vertex 1.0573 -5.3156 0.0000
    vertex -0.0000 -5.2500 0.0000
    vertex -0.0000 -3.1500 0.0000
  endloop
endfacet
facet normal 0.0000 0.0000 0.0000
  outer loop
    vertex 1.0573 -5.3156 0.0000
    vertex -0.0000 -3.1500 0.0000
    vertex -0.0000 -3.1500 0.0000
  endloop
endfacet
facet normal 0.0000 0.0000 -1.0000
  outer loop
    vertex 1.9172 -4.6286 0.0000
    vertex 1.0573 -5.3156 0.0000
    vertex -0.0000 -3.1500 0.0000
  endloop
endfacet
facet normal 0.0000 0.0000 -1.0000
  outer loop
    vertex 1.9172 -4.6286 0.0000
    vertex -0.0000 -3.1500 0.0000
    vertex 0.8153 -3.0427 0.0000
  endloop
endfacet
facet normal 0.0000 0.0000 -1.0000
  outer loop
    vertex 3.0110 -4.5063 0.0000
    vertex 1.9172 -4.6286 0.0000
    vertex 0.8153 -3.0427 0.0000
  endloop
endfacet
facet normal 0.0000 0.0000 -1.0000
  outer loop
    vertex 3.0110 -4.5063 0.0000
    vertex 0.8153 -3.0427 0.0000
    vertex 1.5750 -2.7280 0.0000
  endloop
endfacet
facet normal 0.0000 0.0000 -1.0000
  outer loop
    vertex 3.7123 -3.7123 0.0000
    vertex 3.0110 -4.5063 0.0000
    vertex 1.5750 -2.7280 0.0000
  endloop
endfacet
facet normal 0.0000 0.0000 -1.0000
  outer loop
    vertex 3.7123 -3.7123 0.0000
    vertex 1.5750 -2.7280 0.0000
    vertex 2.2274 -2.2274 0.0000
  endloop
endfacet
facet normal 0.0000 0.0000 -1.0000
  outer loop
    vertex 4.2241 -2.8225 0.0000
    vertex 3.7123 -3.7123 0.0000
    vertex 2.2274 -2.2274 0.0000
  endloop
endfacet
facet normal 0.0000 0.0000 0.0000
  outer loop
    vertex 4.2241 -2.8225 0.0000
    vertex 2.2274 -2.2274 0.0000
    vertex 2.2274 -2.2274 0.0000
  endloop
endfacet
facet normal 0.0000 0.0000 -1.0000
  outer loop
    vertex 5.0721 -2.1009 0.0000
    vertex 4.2241 -2.8225 0.0000
    vertex 2.2274 -2.2274 0.0000
  endloop
endfacet
facet normal 0.0000 0.0000 -1.0000
  outer loop
    vertex 5.0721 -2.1009 0.0000
    vertex 2.2274 -2.2274 0.0000
    vertex 2.7280 -1.5750 0.0000
  endloop
endfacet
facet normal 0.0000 0.0000 -1.0000
  outer loop
    vertex 4.9827 -0.9911 0.0000
    vertex 5.0721 -2.1009 0.0000
    vertex 2.7280 -1.5750 0.0000
  endloop
endfacet
facet normal 0.0000 0.0000 -1.0000
  outer loop
    vertex 4.9827 -0.9911 0.0000
    vertex 2.7280 -1.5750 0.0000
    vertex 3.0427 -0.8153 0.0000
  endloop
endfacet
facet normal 0.0000 0.0000 -1.0000
  outer loop
    vertex 5.2500 0.0000 0.0000
    vertex 4.9827 -0.9911 0.0000
    vertex 3.0427 -0.8153 0.0000
  endloop
endfacet
facet normal 0.0000 0.0000 -1.0000
  outer loop
    vertex 5.2500 0.0000 0.0000
    vertex 3.0427 -0.8153 0.0000
    vertex 3.1500 0.0000 0.0000
  endloop
endfacet
endsolid makenoise_euro
