solid mi_small
facet normal 0.9994 0.0023 0.0338
  outer loop
    vertex 5.6000 0.0000 0.0000
    vertex 5.5975 1.1134 0.0000
    vertex 5.1581 1.0260 13.0000
  endloop
endfacet
facet normal 0.9994 -0.0059 0.0344
  outer loop
    vertex 5.6000 0.0000 0.0000
    vertex 5.1581 1.0260 13.0000
    vertex 5.1520 0.0000 13.0000
  endloop
endfacet
facet normal 0.8433 0.5364 0.0339
  outer loop
    vertex 5.5975 1.1134 0.0000
    vertex 4.9908 2.0673 0.0000
    vertex 4.5769 1.8958 13.0000
  endloop
endfacet
facet normal 0.8310 0.5553 0.0318
  outer loop
    vertex 5.5975 1.1134 0.0000
    vertex 4.5769 1.8958 13.0000
    vertex 5.1581 1.0260 13.0000
  endloop
endfacet
facet normal 0.9945 0.1001 0.0304
  outer loop
    vertex 4.9908 2.0673 0.0000
    vertex 4.8713 3.2549 0.0000
    vertex 4.4988 3.0060 13.0000
  endloop
endfacet
facet normal 0.9970 0.0701 0.0327
  outer loop
    vertex 4.9908 2.0673 0.0000
    vertex 4.4988 3.0060 13.0000
    vertex 4.5769 1.8958 13.0000
  endloop
endfacet
facet normal 0.4153 0.9091 0.0323
  outer loop
    vertex 4.8713 3.2549 0.0000
    vertex 3.7618 3.7618 0.0000
    vertex 3.4450 3.4450 13.0000
  endloop
endfacet
facet normal 0.3844 0.9227 0.0287
  outer loop
    vertex 4.8713 3.2549 0.0000
    vertex 3.4450 3.4450 13.0000
    vertex 4.4988 3.0060 13.0000
  endloop
endfacet
facet normal 0.9092 0.4154 0.0293
  outer loop
    vertex 3.7618 3.7618 0.0000
    vertex 3.2549 4.8713 0.0000
    vertex 3.0060 4.4988 13.0000
  endloop
endfacet
facet normal 0.9226 0.3844 0.0318
  outer loop
    vertex 3.7618 3.7618 0.0000
    vertex 3.0060 4.4988 13.0000
    vertex 3.4450 3.4450 13.0000
  endloop
endfacet
facet normal 0.1000 0.9944 0.0330
  outer loop
    vertex 3.2549 4.8713 0.0000
    vertex 2.0673 4.9908 0.0000
    vertex 1.8958 4.5769 13.0000
  endloop
endfacet
facet normal 0.0701 0.9971 0.0299
  outer loop
    vertex 3.2549 4.8713 0.0000
    vertex 1.8958 4.5769 13.0000
    vertex 3.0060 4.4988 13.0000
  endloop
endfacet
facet normal 0.5364 0.8434 0.0321
  outer loop
    vertex 2.0673 4.9908 0.0000
    vertex 1.1134 5.5975 0.0000
    vertex 1.0260 5.1581 13.0000
  endloop
endfacet
facet normal 0.5553 0.8310 0.0338
  outer loop
    vertex 2.0673 4.9908 0.0000
    vertex 1.0260 5.1581 13.0000
    vertex 1.8958 4.5769 13.0000
  endloop
endfacet
facet normal 0.0023 0.9994 0.0344
  outer loop
    vertex 1.1134 5.5975 0.0000
    vertex 0.0000 5.6000 0.0000
    vertex 0.0000 5.1520 13.0000
  endloop
endfacet
facet normal -0.0059 0.9994 0.0337
  outer loop
    vertex 1.1134 5.5975 0.0000
    vertex 0.0000 5.1520 13.0000
    vertex 1.0260 5.1581 13.0000
  endloop
endfacet
facet normal -0.1946 0.9803 0.0344
  outer loop
    vertex 0.0000 5.6000 0.0000
    vertex -1.0716 5.3873 0.0000
    vertex -0.9842 4.9479 13.0000
  endloop
endfacet
facet normal -0.2029 0.9786 0.0337
  outer loop
    vertex 0.0000 5.6000 0.0000
    vertex -0.9842 4.9479 13.0000
    vertex 0.0000 5.1520 13.0000
  endloop
endfacet
facet normal -0.0267 0.9991 0.0322
  outer loop
    vertex -1.0716 5.3873 0.0000
    vertex -2.2188 5.3566 0.0000
    vertex -2.0474 4.9427 13.0000
  endloop
endfacet
facet normal -0.0049 0.9994 0.0338
  outer loop
    vertex -1.0716 5.3873 0.0000
    vertex -2.0474 4.9427 13.0000
    vertex -0.9842 4.9479 13.0000
  endloop
endfacet
facet normal -0.7737 0.6327 0.0329
  outer loop
    vertex -2.2188 5.3566 0.0000
    vertex -2.9675 4.4411 0.0000
    vertex -2.7186 4.0686 13.0000
  endloop
endfacet
facet normal -0.7928 0.6088 0.0298
  outer loop
    vertex -2.2188 5.3566 0.0000
    vertex -2.7186 4.0686 13.0000
    vertex -2.0474 4.9427 13.0000
  endloop
endfacet
facet normal -0.2315 0.9724 0.0293
  outer loop
    vertex -2.9675 4.4411 0.0000
    vertex -4.1578 4.1578 0.0000
    vertex -3.8410 3.8410 13.0000
  endloop
endfacet
facet normal -0.1987 0.9795 0.0319
  outer loop
    vertex -2.9675 4.4411 0.0000
    vertex -3.8410 3.8410 13.0000
    vertex -2.7186 4.0686 13.0000
  endloop
endfacet
facet normal -0.9723 0.2315 0.0323
  outer loop
    vertex -4.1578 4.1578 0.0000
    vertex -4.4411 2.9675 0.0000
    vertex -4.0686 2.7186 13.0000
  endloop
endfacet
facet normal -0.9796 0.1987 0.0287
  outer loop
    vertex -4.1578 4.1578 0.0000
    vertex -4.0686 2.7186 13.0000
    vertex -3.8410 3.8410 13.0000
  endloop
endfacet
facet normal -0.6328 0.7738 0.0304
  outer loop
    vertex -4.4411 2.9675 0.0000
    vertex -5.3566 2.2188 0.0000
    vertex -4.9427 2.0474 13.0000
  endloop
endfacet
facet normal -0.6087 0.7927 0.0326
  outer loop
    vertex -4.4411 2.9675 0.0000
    vertex -4.9427 2.0474 13.0000
    vertex -4.0686 2.7186 13.0000
  endloop
endfacet
facet normal -0.9991 0.0267 0.0339
  outer loop
    vertex -5.3566 2.2188 0.0000
    vertex -5.3873 1.0716 0.0000
    vertex -4.9479 0.9842 13.0000
  endloop
endfacet
facet normal -0.9995 0.0049 0.0319
  outer loop
    vertex -5.3566 2.2188 0.0000
    vertex -4.9479 0.9842 13.0000
    vertex -4.9427 2.0474 13.0000
  endloop
endfacet
facet normal -0.9803 0.1946 0.0338
  outer loop
    vertex -5.3873 1.0716 0.0000
    vertex -5.6000 0.0000 0.0000
    vertex -5.1520 0.0000 13.0000
  endloop
endfacet
facet normal -0.9786 0.2029 0.0344
  outer loop
    vertex -5.3873 1.0716 0.0000
    vertex -5.1520 0.0000 13.0000
    vertex -4.9479 0.9842 13.0000
  endloop
endfacet
facet normal -0.9994 -0.0023 0.0338
  outer loop
    vertex -5.6000 0.0000 0.0000
    vertex -5.5975 -1.1134 0.0000
    vertex -5.1581 -1.0260 13.0000
  endloop
endfacet
facet normal -0.9994 0.0059 0.0344
  outer loop
    vertex -5.6000 0.0000 0.0000
    vertex -5.1581 -1.0260 13.0000
    vertex -5.1520 0.0000 13.0000
  endloop
endfacet
facet normal -0.8433 -0.5364 0.0339
  outer loop
    vertex -5.5975 -1.1134 0.0000
    vertex -4.9908 -2.0673 0.0000
    vertex -4.5769 -1.8958 13.0000
  endloop
endfacet
facet normal -0.8310 -0.5553 0.0318
  outer loop
    vertex -5.5975 -1.1134 0.0000
    vertex -4.5769 -1.8958 13.0000
    vertex -5.1581 -1.0260 13.0000
  endloop
endfacet
facet normal -0.9945 -0.1001 0.0304
  outer loop
    vertex -4.9908 -2.0673 0.0000
    vertex -4.8713 -3.2549 0.0000
    vertex -4.4988 -3.0060 13.0000
  endloop
endfacet
facet normal -0.9970 -0.0701 0.0327
  outer loop
    vertex -4.9908 -2.0673 0.0000
    vertex -4.4988 -3.0060 13.0000
    vertex -4.5769 -1.8958 13.0000
  endloop
endfacet
facet normal -0.4153 -0.9091 0.0323
  outer loop
    vertex -4.8713 -3.2549 0.0000
    vertex -3.7618 -3.7618 0.0000
    vertex -3.4450 -3.4450 13.0000
  endloop
endfacet
facet normal -0.3844 -0.9227 0.0287
  outer loop
    vertex -4.8713 -3.2549 0.0000
    vertex -3.4450 -3.4450 13.0000
    vertex -4.4988 -3.0060 13.0000
  endloop
endfacet
facet normal -0.9092 -0.4154 0.0293
  outer loop
    vertex -3.7618 -3.7618 0.0000
    vertex -3.2549 -4.8713 0.0000
    vertex -3.0060 -4.4988 13.0000
  endloop
endfacet
facet normal -0.9226 -0.3844 0.0318
  outer loop
    vertex -3.7618 -3.7618 0.0000
    vertex -3.0060 -4.4988 13.0000
    vertex -3.4450 -3.4450 13.0000
  endloop
endfacet
facet normal -0.1000 -0.9944 0.0330
  outer loop
    vertex -3.2549 -4.8713 0.0000
    vertex -2.0673 -4.9908 0.0000
    vertex -1.8958 -4.5769 13.0000
  endloop
endfacet
facet normal -0.0701 -0.9971 0.0299
  outer loop
    vertex -3.2549 -4.8713 0.0000
    vertex -1.8958 -4.5769 13.0000
    vertex -3.0060 -4.4988 13.0000
  endloop
endfacet
facet normal -0.5364 -0.8434 0.0321
  outer loop
    vertex -2.0673 -4.9908 0.0000
    vertex -1.1134 -5.5975 0.0000
    vertex -1.0260 -5.1581 13.0000
  endloop
endfacet
facet normal -0.5553 -0.8310 0.0338
  outer loop
    vertex -2.0673 -4.9908 0.0000
    vertex -1.0260 -5.1581 13.0000
    vertex -1.8958 -4.5769 13.0000
  endloop
endfacet
facet normal -0.0023 -0.9994 0.0344
  outer loop
    vertex -1.1134 -5.5975 0.0000
    vertex -0.0000 -5.6000 0.0000
    vertex -0.0000 -5.1520 13.0000
  endloop
endfacet
facet normal 0.0059 -0.9994 0.0337
  outer loop
    vertex -1.1134 -5.5975 0.0000
    vertex -0.0000 -5.1520 13.0000
    vertex -1.0260 -5.1581 13.0000
  endloop
endfacet
facet normal 0.1946 -0.9803 0.0344
  outer loop
    vertex -0.0000 -5.6000 0.0000
    vertex 1.0716 -5.3873 0.0000
    vertex 0.9842 -4.9479 13.0000
  endloop
endfacet
facet normal 0.2029 -0.9786 0.0337
  outer loop
    vertex -0.0000 -5.6000 0.0000
    vertex 0.9842 -4.9479 13.0000
    vertex -0.0000 -5.1520 13.0000
  endloop
endfacet
facet normal 0.0267 -0.9991 0.0322
  outer loop
    vertex 1.0716 -5.3873 0.0000
    vertex 2.2188 -5.3566 0.0000
    vertex 2.0474 -4.9427 13.0000
  endloop
endfacet
facet normal 0.0049 -0.9994 0.0338
  outer loop
    vertex 1.0716 -5.3873 0.0000
    vertex 2.0474 -4.9427 13.0000
    vertex 0.9842 -4.9479 13.0000
  endloop
endfacet
facet normal 0.7737 -0.6327 0.0329
  outer loop
    vertex 2.2188 -5.3566 0.0000
    vertex 2.9675 -4.4411 0.0000
    vertex 2.7186 -4.0686 13.0000
  endloop
endfacet
facet normal 0.7928 -0.6088 0.0298
  outer loop
    vertex 2.2188 -5.3566 0.0000
    vertex 2.7186 -4.0686 13.0000
    vertex 2.0474 -4.9427 13.0000
  endloop
endfacet
facet normal 0.2315 -0.9724 0.0293
  outer loop
    vertex 2.9675 -4.4411 0.0000
    vertex 4.1578 -4.1578 0.0000
    vertex 3.8410 -3.8410 13.0000
  endloop
endfacet
facet normal 0.1987 -0.9795 0.0319
  outer loop
    vertex 2.9675 -4.4411 0.0000
    vertex 3.8410 -3.8410 13.0000
    vertex 2.7186 -4.0686 13.0000
  endloop
endfacet
facet normal 0.9723 -0.2315 0.0323
  outer loop
    vertex 4.1578 -4.1578 0.0000
    vertex 4.4411 -2.9675 0.0000
    vertex 4.0686 -2.7186 13.0000
  endloop
endfacet
facet normal 0.9796 -0.1987 0.0287
  outer loop
    vertex 4.1578 -4.1578 0.0000
    vertex 4.0686 -2.7186 13.0000
    vertex 3.8410 -3.8410 13.0000
  endloop
endfacet
facet normal 0.6328 -0.7738 0.0304
  outer loop
    vertex 4.4411 -2.9675 0.0000
    vertex 5.3566 -2.2188 0.0000
    vertex 4.9427 -2.0474 13.0000
  endloop
endfacet
facet normal 0.6087 -0.7927 0.0326
  outer loop
    vertex 4.4411 -2.9675 0.0000
    vertex 4.9427 -2.0474 13.0000
    vertex 4.0686 -2.7186 13.0000
  endloop
endfacet
facet normal 0.9991 -0.0267 0.0339
  outer loop
    vertex 5.3566 -2.2188 0.0000
    vertex 5.3873 -1.0716 0.0000
    vertex 4.9479 -0.9842 13.0000
  endloop
endfacet
facet normal 0.9995 -0.0049 0.0319
  outer loop
    vertex 5.3566 -2.2188 0.0000
    vertex 4.9479 -0.9842 13.0000
    vertex 4.9427 -2.0474 13.0000
  endloop
endfacet
facet normal 0.9803 -0.1946 0.0338
  outer loop
    vertex 5.3873 -1.0716 0.0000
    vertex 5.6000 0.0000 0.0000
    vertex 5.1520 0.0000 13.0000
  endloop
endfacet
facet normal 0.9786 -0.2029 0.0344
  outer loop
    vertex 5.3873 -1.0716 0.0000
    vertex 5.1520 0.0000 13.0000
    vertex 4.9479 -0.9842 13.0000
  endloop
endfacet
facet normal -0.9914 -0.1305 0.0000
  outer loop
    vertex 3.0427 0.8153 0.0000
    vertex 3.1500 0.0000 0.0000
    vertex 3.1500 0.0000 8.0000
  endloop
endfacet
facet normal -0.9914 -0.1305 0.0000
  outer loop
    vertex 3.0427 0.8153 0.0000
    vertex 3.1500 0.0000 8.0000
    vertex 3.0427 0.8153 8.0000
  endloop
endfacet
facet normal -0.9239 -0.3827 0.0000
  outer loop
    vertex 2.7280 1.5750 0.0000
    vertex 3.0427 0.8153 0.0000
    vertex 3.0427 0.8153 8.0000
  endloop
endfacet
facet normal -0.9239 -0.3827 0.0000
  outer loop
    vertex 2.7280 1.5750 0.0000
    vertex 3.0427 0.8153 8.0000
    vertex 2.7280 1.5750 8.0000
  endloop
endfacet
facet normal -0.7934 -0.6088 0.0000
  outer loop
    vertex 2.2274 2.2274 0.0000
    vertex 2.7280 1.5750 0.0000
    vertex 2.7280 1.5750 8.0000
  endloop
endfacet
facet normal -0.7934 -0.6088 0.0000
  outer loop
    vertex 2.2274 2.2274 0.0000
    vertex 2.7280 1.5750 8.0000
    vertex 2.2274 2.2274 8.0000
  endloop
endfacet
facet normal -0.2028 -0.9792 0.0000
  outer loop
    vertex 1.5750 2.3625 0.0000
    vertex 2.2274 2.2274 0.0000
    vertex 2.2274 2.2274 8.0000
  endloop
endfacet
facet normal -0.2028 -0.9792 0.0000
  outer loop
    vertex 1.5750 2.3625 0.0000
    vertex 2.2274 2.2274 8.0000
    vertex 1.5750 2.3625 8.0000
  endloop
endfacet
facet normal 0.0000 -1.0000 0.0000
  outer loop
    vertex 0.8153 2.3625 0.0000
    vertex 1.5750 2.3625 0.0000
    vertex 1.5750 2.3625 8.0000
  endloop
endfacet
facet normal 0.0000 -1.0000 0.0000
  outer loop
    vertex 0.8153 2.3625 0.0000
    vertex 1.5750 2.3625 8.0000
    vertex 0.8153 2.3625 8.0000
  endloop
endfacet
facet normal 0.0000 -1.0000 0.0000
  outer loop
    vertex 0.0000 2.3625 0.0000
    vertex 0.8153 2.3625 0.0000
    vertex 0.8153 2.3625 8.0000
  endloop
endfacet
facet normal 0.0000 -1.0000 0.0000
  outer loop
    vertex 0.0000 2.3625 0.0000
    vertex 0.8153 2.3625 8.0000
    vertex 0.0000 2.3625 8.0000
  endloop
endfacet
facet normal 0.0000 -1.0000 0.0000
  outer loop
    vertex -0.8153 2.3625 0.0000
    vertex 0.0000 2.3625 0.0000
    vertex 0.0000 2.3625 8.0000
  endloop
endfacet
facet normal 0.0000 -1.0000 0.0000
  outer loop
    vertex -0.8153 2.3625 0.0000
    vertex 0.0000 2.3625 8.0000
    vertex -0.8153 2.3625 8.0000
  endloop
endfacet
facet normal 0.0000 -1.0000 0.0000
  outer loop
    vertex -1.5750 2.3625 0.0000
    vertex -0.8153 2.3625 0.0000
    vertex -0.8153 2.3625 8.0000
  endloop
endfacet
facet normal 0.0000 -1.0000 0.0000
  outer loop
    vertex -1.5750 2.3625 0.0000
    vertex -0.8153 2.3625 8.0000
    vertex -1.5750 2.3625 8.0000
  endloop
endfacet
facet normal 0.2028 -0.9792 0.0000
  outer loop
    vertex -2.2274 2.2274 0.0000
    vertex -1.5750 2.3625 0.0000
    vertex -1.5750 2.3625 8.0000
  endloop
endfacet
facet normal 0.2028 -0.9792 0.0000
  outer loop
    vertex -2.2274 2.2274 0.0000
    vertex -1.5750 2.3625 8.0000
    vertex -2.2274 2.2274 8.0000
  endloop
endfacet
facet normal 0.7934 -0.6088 0.0000
  outer loop
    vertex -2.7280 1.5750 0.0000
    vertex -2.2274 2.2274 0.0000
    vertex -2.2274 2.2274 8.0000
  endloop
endfacet
facet normal 0.7934 -0.6088 0.0000
  outer loop
    vertex -2.7280 1.5750 0.0000
    vertex -2.2274 2.2274 8.0000
    vertex -2.7280 1.5750 8.0000
  endloop
endfacet
facet normal 0.9239 -0.3827 0.0000
  outer loop
    vertex -3.0427 0.8153 0.0000
    vertex -2.7280 1.5750 0.0000
    vertex -2.7280 1.5750 8.0000
  endloop
endfacet
facet normal 0.9239 -0.3827 0.0000
  outer loop
    vertex -3.0427 0.8153 0.0000
    vertex -2.7280 1.5750 8.0000
    vertex -3.0427 0.8153 8.0000
  endloop
endfacet
facet normal 0.9914 -0.1305 0.0000
  outer loop
    vertex -3.1500 0.0000 0.0000
    vertex -3.0427 0.8153 0.0000
    vertex -3.0427 0.8153 8.0000
  endloop
endfacet
facet normal 0.9914 -0.1305 0.0000
  outer loop
    vertex -3.1500 0.0000 0.0000
    vertex -3.0427 0.8153 8.0000
    vertex -3.1500 0.0000 8.0000
  endloop
endfacet
facet normal 0.9914 0.1305 0.0000
  outer loop
    vertex -3.0427 -0.8153 0.0000
    vertex -3.1500 0.0000 0.0000
    vertex -3.1500 0.0000 8.0000
  endloop
endfacet
facet normal 0.9914 0.1305 0.0000
  outer loop
    vertex -3.0427 -0.8153 0.0000
    vertex -3.1500 0.0000 8.0000
    vertex -3.0427 -0.8153 8.0000
  endloop
endfacet
facet normal 0.9239 0.3827 0.0000
  outer loop
    vertex -2.7280 -1.5750 0.0000
    vertex -3.0427 -0.8153 0.0000
    vertex -3.0427 -0.8153 8.0000
  endloop
endfacet
facet normal 0.9239 0.3827 0.0000
  outer loop
    vertex -2.7280 -1.5750 0.0000
    vertex -3.0427 -0.8153 8.0000
    vertex -2.7280 -1.5750 8.0000
  endloop
endfacet
facet normal 0.7934 0.6088 0.0000
  outer loop
    vertex -2.2274 -2.2274 0.0000
    vertex -2.7280 -1.5750 0.0000
    vertex -2.7280 -1.5750 8.0000
  endloop
endfacet
facet normal 0.7934 0.6088 0.0000
  outer loop
    vertex -2.2274 -2.2274 0.0000
    vertex -2.7280 -1.5750 8.0000
    vertex -2.2274 -2.2274 8.0000
  endloop
endfacet
facet normal 0.6088 0.7934 0.0000
  outer loop
    vertex -1.5750 -2.7280 0.0000
    vertex -2.2274 -2.2274 0.0000
    vertex -2.2274 -2.2274 8.0000
  endloop
endfacet
facet normal 0.6088 0.7934 0.0000
  outer loop
    vertex -1.5750 -2.7280 0.0000
    vertex -2.2274 -2.2274 8.0000
    vertex -1.5750 -2.7280 8.0000
  endloop
endfacet
facet normal 0.3827 0.9239 0.0000
  outer loop
    vertex -0.8153 -3.0427 0.0000
    vertex -1.5750 -2.7280 0.0000
    vertex -1.5750 -2.7280 8.0000
  endloop
endfacet
facet normal 0.3827 0.9239 0.0000
  outer loop
    vertex -0.8153 -3.0427 0.0000
    vertex -1.5750 -2.7280 8.0000
    vertex -0.8153 -3.0427 8.0000
  endloop
endfacet
facet normal 0.1305 0.9914 0.0000
  outer loop
    vertex -0.0000 -3.1500 0.0000
    vertex -0.8153 -3.0427 0.0000
    vertex -0.8153 -3.0427 8.0000
  endloop
endfacet
facet normal 0.1305 0.9914 0.0000
  outer loop
    vertex -0.0000 -3.1500 0.0000
    vertex -0.8153 -3.0427 8.0000
    vertex -0.0000 -3.1500 8.0000
  endloop
endfacet
facet normal -0.1305 0.9914 0.0000
  outer loop
    vertex 0.8153 -3.0427 0.0000
    vertex -0.0000 -3.1500 0.0000
    vertex -0.0000 -3.1500 8.0000
  endloop
endfacet
facet normal -0.1305 0.9914 0.0000
  outer loop
    vertex 0.8153 -3.0427 0.0000
    vertex -0.0000 -3.1500 8.0000
    vertex 0.8153 -3.0427 8.0000
  endloop
endfacet
facet normal -0.3827 0.9239 0.0000
  outer loop
    vertex 1.5750 -2.7280 0.0000
    vertex 0.8153 -3.0427 0.0000
    vertex 0.8153 -3.0427 8.0000
  endloop
endfacet
facet normal -0.3827 0.9239 0.0000
  outer loop
    vertex 1.5750 -2.7280 0.0000
    vertex 0.8153 -3.0427 8.0000
    vertex 1.5750 -2.7280 8.0000
  endloop
endfacet
facet normal -0.6088 0.7934 0.0000
  outer loop
    vertex 2.2274 -2.2274 0.0000
    vertex 1.5750 -2.7280 0.0000
    vertex 1.5750 -2.7280 8.0000
  endloop
endfacet
facet normal -0.6088 0.7934 0.0000
  outer loop
    vertex 2.2274 -2.2274 0.0000
    vertex 1.5750 -2.7280 8.0000
    vertex 2.2274 -2.2274 8.0000
  endloop
endfacet
facet normal -0.7934 0.6088 0.0000
  outer loop
    vertex 2.7280 -1.5750 0.0000
    vertex 2.2274 -2.2274 0.0000
    vertex 2.2274 -2.2274 8.0000
  endloop
endfacet
facet normal -0.7934 0.6088 0.0000
  outer loop
    vertex 2.7280 -1.5750 0.0000
    vertex 2.2274 -2.2274 8.0000
    vertex 2.7280 -1.5750 8.0000
  endloop
endfacet
facet normal -0.9239 0.3827 0.0000
  outer loop
    vertex 3.0427 -0.8153 0.0000
    vertex 2.7280 -1.5750 0.0000
    vertex 2.7280 -1.5750 8.0000
  endloop
endfacet
facet normal -0.9239 0.3827 0.0000
  outer loop
    vertex 3.0427 -0.8153 0.0000
    vertex 2.7280 -1.5750 8.0000
    vertex 3.0427 -0.8153 8.0000
  endloop
endfacet
facet normal -0.9914 0.1305 0.0000
  outer loop
    vertex 3.1500 0.0000 0.0000
    vertex 3.0427 -0.8153 0.0000
    vertex 3.0427 -0.8153 8.0000
  endloop
endfacet
facet normal -0.9914 0.1305 0.0000
  outer loop
    vertex 3.1500 0.0000 0.0000
    vertex 3.0427 -0.8153 8.0000
    vertex 3.1500 0.0000 8.0000
  endloop
endfacet
facet normal 0.0000 0.0000 1.0000
  outer loop
    vertex 5.1520 0.0000 13.0000
    vertex 5.1581 1.0260 13.0000
    vertex 0.0000 0.0000 13.0000
  endloop
endfacet
facet normal 0.0000 0.0000 1.0000
  outer loop
    vertex 5.1581 1.0260 13.0000
    vertex 4.5769 1.8958 13.0000
    vertex 0.0000 0.0000 13.0000
  endloop
endfacet
facet normal 0.0000 0.0000 1.0000
  outer loop
    vertex 4.5769 1.8958 13.0000
    vertex 4.4988 3.0060 13.0000
    vertex 0.0000 0.0000 13.0000
  endloop
endfacet
facet normal 0.0000 0.0000 1.0000
  outer loop
    vertex 4.4988 3.0060 13.0000
    vertex 3.4450 3.4450 13.0000
    vertex 0.0000 0.0000 13.0000
  endloop
endfacet
facet normal 0.0000 0.0000 1.0000
  outer loop
    vertex 3.4450 3.4450 13.0000
    vertex 3.0060 4.4988 13.0000
    vertex 0.0000 0.0000 13.0000
  endloop
endfacet
facet normal 0.0000 0.0000 1.0000
  outer loop
    vertex 3.0060 4.4988 13.0000
    vertex 1.8958 4.5769 13.0000
    vertex 0.0000 0.0000 13.0000
  endloop
endfacet
facet normal 0.0000 0.0000 1.0000
  outer loop
    vertex 1.8958 4.5769 13.0000
    vertex 1.0260 5.1581 13.0000
    vertex 0.0000 0.0000 13.0000
  endloop
endfacet
facet normal 0.0000 0.0000 1.0000
  outer loop
    vertex 1.0260 5.1581 13.0000
    vertex 0.0000 5.1520 13.0000
    vertex 0.0000 0.0000 13.0000
  endloop
endfacet
facet normal 0.0000 0.0000 1.0000
  outer loop
    vertex 0.0000 5.1520 13.0000
    vertex -0.9842 4.9479 13.0000
    vertex 0.0000 0.0000 13.0000
  endloop
endfacet
facet normal 0.0000 0.0000 1.0000
  outer loop
    vertex -0.9842 4.9479 13.0000
    vertex -2.0474 4.9427 13.0000
    vertex 0.0000 0.0000 13.0000
  endloop
endfacet
facet normal 0.0000 0.0000 1.0000
  outer loop
    vertex -2.0474 4.9427 13.0000
    vertex -2.7186 4.0686 13.0000
    vertex 0.0000 0.0000 13.0000
  endloop
endfacet
facet normal 0.0000 0.0000 1.0000
  outer loop
    vertex -2.7186 4.0686 13.0000
    vertex -3.8410 3.8410 13.0000
    vertex 0.0000 0.0000 13.0000
  endloop
endfacet
facet normal 0.0000 0.0000 1.0000
  outer loop
    vertex -3.8410 3.8410 13.0000
    vertex -4.0686 2.7186 13.0000
    vertex 0.0000 0.0000 13.0000
  endloop
endfacet
facet normal 0.0000 0.0000 1.0000
  outer loop
    vertex -4.0686 2.7186 13.0000
    vertex -4.9427 2.0474 13.0000
    vertex 0.0000 0.0000 13.0000
  endloop
endfacet
facet normal 0.0000 0.0000 1.0000
  outer loop
    vertex -4.9427 2.0474 13.0000
    vertex -4.9479 0.9842 13.0000
    vertex 0.0000 0.0000 13.0000
  endloop
endfacet
facet normal 0.0000 0.0000 1.0000
  outer loop
    vertex -4.9479 0.9842 13.0000
    vertex -5.1520 0.0000 13.0000
    vertex 0.0000 0.0000 13.0000
  endloop
endfacet
facet normal 0.0000 0.0000 1.0000
  outer loop
    vertex -5.1520 0.0000 13.0000
    vertex -5.1581 -1.0260 13.0000
    vertex 0.0000 0.0000 13.0000
  endloop
endfacet
facet normal 0.0000 0.0000 1.0000
  outer loop
    vertex -5.1581 -1.0260 13.0000
    vertex -4.5769 -1.8958 13.0000
    vertex 0.0000 0.0000 13.0000
  endloop
endfacet
facet normal 0.0000 0.0000 1.0000
  outer loop
    vertex -4.5769 -1.8958 13.0000
    vertex -4.4988 -3.0060 13.0000
    vertex 0.0000 0.0000 13.0000
  endloop
endfacet
facet normal 0.0000 0.0000 1.0000
  outer loop
    vertex -4.4988 -3.0060 13.0000
    vertex -3.4450 -3.4450 13.0000
    vertex 0.0000 0.0000 13.0000
  endloop
endfacet
facet normal 0.0000 0.0000 1.0000
  outer loop
    vertex -3.4450 -3.4450 13.0000
    vertex -3.0060 -4.4988 13.0000
    vertex 0.0000 0.0000 13.0000
  endloop
endfacet
facet normal 0.0000 0.0000 1.0000
  outer loop
    vertex -3.0060 -4.4988 13.0000
    vertex -1.8958 -4.5769 13.0000
    vertex 0.0000 0.0000 13.0000
  endloop
endfacet
facet normal 0.0000 0.0000 1.0000
  outer loop
    vertex -1.8958 -4.5769 13.0000
    vertex -1.0260 -5.1581 13.0000
    vertex 0.0000 0.0000 13.0000
  endloop
endfacet
facet normal 0.0000 0.0000 1.0000
  outer loop
    vertex -1.0260 -5.1581 13.0000
    vertex -0.0000 -5.1520 13.0000
    vertex 0.0000 0.0000 13.0000
  endloop
endfacet
facet normal 0.0000 0.0000 1.0000
  outer loop
    vertex -0.0000 -5.1520 13.0000
    vertex 0.9842 -4.9479 13.0000
    vertex 0.0000 0.0000 13.0000
  endloop
endfacet
facet normal 0.0000 0.0000 1.0000
  outer loop
    vertex 0.9842 -4.9479 13.0000
    vertex 2.0474 -4.9427 13.0000
    vertex 0.0000 0.0000 13.0000
  endloop
endfacet
facet normal 0.0000 0.0000 1.0000
  outer loop
    vertex 2.0474 -4.9427 13.0000
    vertex 2.7186 -4.0686 13.0000
    vertex 0.0000 0.0000 13.0000
  endloop
endfacet
facet normal 0.0000 0.0000 1.0000
  outer loop
    vertex 2.7186 -4.0686 13.0000
    vertex 3.8410 -3.8410 13.0000
    vertex 0.0000 0.0000 13.0000
  endloop
endfacet
facet normal 0.0000 0.0000 1.0000
  outer loop
    vertex 3.8410 -3.8410 13.0000
    vertex 4.0686 -2.7186 13.0000
    vertex 0.0000 0.0000 13.0000
  endloop
endfacet
facet normal 0.0000 0.0000 1.0000
  outer loop
    vertex 4.0686 -2.7186 13.0000
    vertex 4.9427 -2.0474 13.0000
    vertex 0.0000 0.0000 13.0000
  endloop
endfacet
facet normal 0.0000 0.0000 1.0000
  outer loop
    vertex 4.9427 -2.0474 13.0000
    vertex 4.9479 -0.9842 13.0000
    vertex 0.0000 0.0000 13.0000
  endloop
endfacet
facet normal 0.0000 0.0000 1.0000
  outer loop
    vertex 4.9479 -0.9842 13.0000
    vertex 5.1520 0.0000 13.0000
    vertex 0.0000 0.0000 13.0000
  endloop
endfacet
facet normal 0.0000 0.0000 -1.0000
  outer loop
    vertex 3.0427 0.8153 8.0000
    vertex 3.1500 0.0000 8.0000
    vertex 0.0000 0.0000 8.0000
  endloop
endfacet
facet normal 0.0000 0.0000 -1.0000
  outer loop
    vertex 2.7280 1.5750 8.0000
    vertex 3.0427 0.8153 8.0000
    vertex 0.0000 0.0000 8.0000
  endloop
endfacet
facet normal 0.0000 0.0000 -1.0000
  outer loop
    vertex 2.2274 2.2274 8.0000
    vertex 2.7280 1.5750 8.0000
    vertex 0.0000 0.0000 8.0000
  endloop
endfacet
facet normal 0.0000 0.0000 -1.0000
  outer loop
    vertex 1.5750 2.3625 8.0000
    vertex 2.2274 2.2274 8.0000
    vertex 0.0000 0.0000 8.0000
  endloop
endfacet
facet normal 0.0000 0.0000 -1.0000
  outer loop
    vertex 0.8153 2.3625 8.0000
    vertex 1.5750 2.3625 8.0000
    vertex 0.0000 0.0000 8.0000
  endloop
endfacet
facet normal 0.0000 0.0000 -1.0000
  outer loop
    vertex 0.0000 2.3625 8.0000
    vertex 0.8153 2.3625 8.0000
    vertex 0.0000 0.0000 8.0000
  endloop
endfacet
facet normal 0.0000 0.0000 -1.0000
  outer loop
    vertex -0.8153 2.3625 8.0000
    vertex 0.0000 2.3625 8.0000
    vertex 0.0000 0.0000 8.0000
  endloop
endfacet
facet normal 0.0000 0.0000 -1.0000
  outer loop
    vertex -1.5750 2.3625 8.0000
    vertex -0.8153 2.3625 8.0000
    vertex 0.0000 0.0000 8.0000
  endloop
endfacet
facet normal 0.0000 0.0000 -1.0000
  outer loop
    vertex -2.2274 2.2274 8.0000
    vertex -1.5750 2.3625 8.0000
    vertex 0.0000 0.0000 8.0000
  endloop
endfacet
facet normal 0.0000 0.0000 -1.0000
  outer loop
    vertex -2.7280 1.5750 8.0000
    vertex -2.2274 2.2274 8.0000
    vertex 0.0000 0.0000 8.0000
  endloop
endfacet
facet normal 0.0000 0.0000 -1.0000
  outer loop
    vertex -3.0427 0.8153 8.0000
    vertex -2.7280 1.5750 8.0000
    vertex 0.0000 0.0000 8.0000
  endloop
endfacet
facet normal 0.0000 0.0000 -1.0000
  outer loop
    vertex -3.1500 0.0000 8.0000
    vertex -3.0427 0.8153 8.0000
    vertex 0.0000 0.0000 8.0000
  endloop
endfacet
facet normal 0.0000 0.0000 -1.0000
  outer loop
    vertex -3.0427 -0.8153 8.0000
    vertex -3.1500 0.0000 8.0000
    vertex 0.0000 0.0000 8.0000
  endloop
endfacet
facet normal 0.0000 0.0000 -1.0000
  outer loop
    vertex -2.7280 -1.5750 8.0000
    vertex -3.0427 -0.8153 8.0000
    vertex 0.0000 0.0000 8.0000
  endloop
endfacet
facet normal 0.0000 0.0000 -1.0000
  outer loop
    vertex -2.2274 -2.2274 8.0000
    vertex -2.7280 -1.5750 8.0000
    vertex 0.0000 0.0000 8.0000
  endloop
endfacet
facet normal 0.0000 0.0000 -1.0000
  outer loop
    vertex -1.5750 -2.7280 8.0000
    vertex -2.2274 -2.2274 8.0000
    vertex 0.0000 0.0000 8.0000
  endloop
endfacet
facet normal 0.0000 0.0000 -1.0000
  outer loop
    vertex -0.8153 -3.0427 8.0000
    vertex -1.5750 -2.7280 8.0000
    vertex 0.0000 0.0000 8.0000
  endloop
endfacet
facet normal 0.0000 0.0000 -1.0000
  outer loop
    vertex -0.0000 -3.1500 8.0000
    vertex -0.8153 -3.0427 8.0000
    vertex 0.0000 0.0000 8.0000
  endloop
endfacet
facet normal 0.0000 0.0000 -1.0000
  outer loop
    vertex 0.8153 -3.0427 8.0000
    vertex -0.0000 -3.1500 8.0000
    vertex 0.0000 0.0000 8.0000
  endloop
endfacet
facet normal 0.0000 0.0000 -1.0000
  outer loop
    vertex 1.5750 -2.7280 8.0000
    vertex 0.8153 -3.0427 8.0000
    vertex 0.0000 0.0000 8.0000
  endloop
endfacet
facet normal 0.0000 0.0000 -1.0000
  outer loop
    vertex 2.2274 -2.2274 8.0000
    vertex 1.5750 -2.7280 8.0000
    vertex 0.0000 0.0000 8.0000
  endloop
endfacet
facet normal 0.0000 0.0000 -1.0000
  outer loop
    vertex 2.7280 -1.5750 8.0000
    vertex 2.2274 -2.2274 8.0000
    vertex 0.0000 0.0000 8.0000
  endloop
endfacet
facet normal 0.0000 0.0000 -1.0000
  outer loop
    vertex 3.0427 -0.8153 8.0000
    vertex 2.7280 -1.5750 8.0000
    vertex 0.0000 0.0000 8.0000
  endloop
endfacet
facet normal 0.0000 0.0000 -1.0000
  outer loop
    vertex 3.1500 0.0000 8.0000
    vertex 3.0427 -0.8153 8.0000
    vertex 0.0000 0.0000 8.0000
  endloop
endfacet
facet normal 0.0000 0.0000 -1.0000
  outer loop
    vertex 5.5975 1.1134 0.0000
    vertex 5.6000 0.0000 0.0000
    vertex 3.1500 0.0000 0.0000
  endloop
endfacet
facet normal 0.0000 0.0000 0.0000
  outer loop
    vertex 5.5975 1.1134 0.0000
    vertex 3.1500 0.0000 0.0000
    vertex 3.1500 0.0000 0.0000
  endloop
endfacet
facet normal 0.0000 0.0000 -1.0000
  outer loop
    vertex 4.9908 2.0673 0.0000
    vertex 5.5975 1.1134 0.0000
    vertex 3.1500 0.0000 0.0000
  endloop
endfacet
facet normal 0.0000 0.0000 -1.0000
  outer loop
    vertex 4.9908 2.0673 0.0000
    vertex 3.1500 0.0000 0.0000
    vertex 3.0427 0.8153 0.0000
  endloop
endfacet
facet normal 0.0000 0.0000 -1.0000
  outer loop
    vertex 4.8713 3.2549 0.0000
    vertex 4.9908 2.0673 0.0000
    vertex 3.0427 0.8153 0.0000
  endloop
endfacet
facet normal 0.0000 0.0000 -1.0000
  outer loop
    vertex 4.8713 3.2549 0.0000
    vertex 3.0427 0.8153 0.0000
    vertex 2.7280 1.5750 0.0000
  endloop
endfacet
facet normal 0.0000 0.0000 -1.0000
  outer loop
    vertex 3.7618 3.7618 0.0000
    vertex 4.8713 3.2549 0.0000
    vertex 2.7280 1.5750 0.0000
  endloop
endfacet
facet normal 0.0000 0.0000 -1.0000
  outer loop
    vertex 3.7618 3.7618 0.0000
    vertex 2.7280 1.5750 0.0000
    vertex 2.2274 2.2274 0.0000
  endloop
endfacet
facet normal 0.0000 0.0000 -1.0000
  outer loop
    vertex 3.2549 4.8713 0.0000
    vertex 3.7618 3.7618 0.0000
    vertex 2.2274 2.2274 0.0000
  endloop
endfacet
facet normal 0.0000 0.0000 0.0000
  outer loop
    vertex 3.2549 4.8713 0.0000
    vertex 2.2274 2.2274 0.0000
    vertex 2.2274 2.2274 0.0000
  endloop
endfacet
facet normal 0.0000 0.0000 -1.0000
  outer loop
    vertex 2.0673 4.9908 0.0000
    vertex 3.2549 4.8713 0.0000
    vertex 2.2274 2.2274 0.0000
  endloop
endfacet
facet normal 0.0000 0.0000 -1.0000
  outer loop
    vertex 2.0673 4.9908 0.0000
    vertex 2.2274 2.2274 0.0000
    vertex 1.5750 2.3625 0.0000
  endloop
endfacet
facet normal 0.0000 0.0000 -1.0000
  outer loop
    vertex 1.1134 5.5975 0.0000
    vertex 2.0673 4.9908 0.0000
    vertex 1.5750 2.3625 0.0000
  endloop
endfacet
facet normal 0.0000 0.0000 -1.0000
  outer loop
    vertex 1.1134 5.5975 0.0000
    vertex 1.5750 2.3625 0.0000
    vertex 0.8153 2.3625 0.0000
  endloop
endfacet
facet normal 0.0000 0.0000 -1.0000
  outer loop
    vertex 0.0000 5.6000 0.0000
    vertex 1.1134 5.5975 0.0000
    vertex 0.8153 2.3625 0.0000
  endloop
endfacet
facet normal 0.0000 0.0000 -1.0000
  outer loop
    vertex 0.0000 5.6000 0.0000
    vertex 0.8153 2.3625 0.0000
    vertex 0.0000 2.3625 0.0000
  endloop
endfacet
facet normal 0.0000 0.0000 -1.0000
  outer loop
    vertex -1.0716 5.3873 0.0000
    vertex 0.0000 5.6000 0.0000
    vertex 0.0000 2.3625 0.0000
  endloop
endfacet
facet normal 0.0000 0.0000 0.0000
  outer loop
    vertex -1.0716 5.3873 0.0000
    vertex 0.0000 2.3625 0.0000
    vertex 0.0000 2.3625 0.0000
  endloop
endfacet
facet normal 0.0000 0.0000 -1.0000
  outer loop
    vertex -2.2188 5.3566 0.0000
    vertex -1.0716 5.3873 0.0000
    vertex 0.0000 2.3625 0.0000
  endloop
endfacet
facet normal 0.0000 0.0000 -1.0000
  outer loop
    vertex -2.2188 5.3566 0.0000
    vertex 0.0000 2.3625 0.0000
    vertex -0.8153 2.3625 0.0000
  endloop
endfacet
facet normal 0.0000 0.0000 -1.0000
  outer loop
    vertex -2.9675 4.4411 0.0000
    vertex -2.2188 5.3566 0.0000
    vertex -0.8153 2.3625 0.0000
  endloop
endfacet
facet normal 0.0000 0.0000 -1.0000
  outer loop
    vertex -2.9675 4.4411 0.0000
    vertex -0.8153 2.3625 0.0000
    vertex -1.5750 2.3625 0.0000
  endloop
endfacet
facet normal 0.0000 0.0000 -1.0000
  outer loop
    vertex -4.1578 4.1578 0.0000
    vertex -2.9675 4.4411 0.0000
    vertex -1.5750 2.3625 0.0000
  endloop
endfacet
facet normal 0.0000 0.0000 -1.0000
  outer loop
    vertex -4.1578 4.1578 0.0000
    vertex -1.5750 2.3625 0.0000
    vertex -2.2274 2.2274 0.0000
  endloop
endfacet
facet normal 0.0000 0.0000 -1.0000
  outer loop
    vertex -4.4411 2.9675 0.0000
    vertex -4.1578 4.1578 0.0000
    vertex -2.2274 2.2274 0.0000
  endloop
endfacet
facet normal 0.0000 0.0000 0.0000
  outer loop
    vertex -4.4411 2.9675 0.0000
    vertex -2.2274 2.2274 0.0000
    vertex -2.2274 2.2274 0.0000
  endloop
endfacet
facet normal 0.0000 0.0000 -1.0000
  outer loop
    vertex -5.3566 2.2188 0.0000
    vertex -4.4411 2.9675 0.0000
    vertex -2.2274 2.2274 0.0000
  endloop
endfacet
facet normal 0.0000 0.0000 -1.0000
  outer loop
    vertex -5.3566 2.2188 0.0000
    vertex -2.2274 2.2274 0.0000
    vertex -2.7280 1.5750 0.0000
  endloop
endfacet
facet normal 0.0000 0.0000 -1.0000
  outer loop
    vertex -5.3873 1.0716 0.0000
    vertex -5.3566 2.2188 0.0000
    vertex -2.7280 1.5750 0.0000
  endloop
endfacet
facet normal 0.0000 0.0000 -1.0000
  outer loop
    vertex -5.3873 1.0716 0.0000
    vertex -2.7280 1.5750 0.0000
    vertex -3.0427 0.8153 0.0000
  endloop
endfacet
facet normal 0.0000 0.0000 -1.0000
  outer loop
    vertex -5.6000 0.0000 0.0000
    vertex -5.3873 1.0716 0.0000
    vertex -3.0427 0.8153 0.0000
  endloop
endfacet
facet normal 0.0000 0.0000 -1.0000
  outer loop
    vertex -5.6000 0.0000 0.0000
    vertex -3.0427 0.8153 0.0000
    vertex -3.1500 0.0000 0.0000
  endloop
endfacet
facet normal 0.0000 0.0000 -1.0000
  outer loop
    vertex -5.5975 -1.1134 0.0000
    vertex -5.6000 0.0000 0.0000
    vertex -3.1500 0.0000 0.0000
  endloop
endfacet
facet normal 0.0000 0.0000 0.0000
  outer loop
    vertex -5.5975 -1.1134 0.0000
    vertex -3.1500 0.0000 0.0000
    vertex -3.1500 0.0000 0.0000
  endloop
endfacet
facet normal 0.0000 0.0000 -1.0000
  outer loop
    vertex -4.9908 -2.0673 0.0000
    vertex -5.5975 -1.1134 0.0000
    vertex -3.1500 0.0000 0.0000
  endloop
endfacet
facet normal 0.0000 0.0000 -1.0000
  outer loop
    vertex -4.9908 -2.0673 0.0000
    vertex -3.1500 0.0000 0.0000
    vertex -3.0427 -0.8153 0.0000
  endloop
endfacet
facet normal 0.0000 0.0000 -1.0000
  outer loop
    vertex -4.8713 -3.2549 0.0000
    vertex -4.9908 -2.0673 0.0000
    vertex -3.0427 -0.8153 0.0000
  endloop
endfacet
facet normal 0.0000 0.0000 -1.0000
  outer loop
    vertex -4.8713 -3.2549 0.0000
    vertex -3.0427 -0.8153 0.0000
    vertex -2.7280 -1.5750 0.0000
  endloop
endfacet
facet normal 0.0000 0.0000 -1.0000
  outer loop
    vertex -3.7618 -3.7618 0.0000
    vertex -4.8713 -3.2549 0.0000
    vertex -2.7280 -1.5750 0.0000
  endloop
endfacet
facet normal 0.0000 0.0000 -1.0000
  outer loop
    vertex -3.7618 -3.7618 0.0000
    vertex -2.7280 -1.5750 0.0000
    vertex -2.2274 -2.2274 0.0000
  endloop
endfacet
facet normal 0.0000 0.0000 -1.0000
  outer loop
    vertex -3.2549 -4.8713 0.0000
    vertex -3.7618 -3.7618 0.0000
    vertex -2.2274 -2.2274 0.0000
  endloop
endfacet
facet normal 0.0000 0.0000 0.0000
  outer loop
    vertex -3.2549 -4.8713 0.0000
    vertex -2.2274 -2.2274 0.0000
    vertex -2.2274 -2.2274 0.0000
  endloop
endfacet
facet normal 0.0000 0.0000 -1.0000
  outer loop
    vertex -2.0673 -4.9908 0.0000
    vertex -3.2549 -4.8713 0.0000
    vertex -2.2274 -2.2274 0.0000
  endloop
endfacet
facet normal 0.0000 0.0000 -1.0000
  outer loop
    vertex -2.0673 -4.9908 0.0000
    vertex -2.2274 -2.2274 0.0000
    vertex -1.5750 -2.7280 0.0000
  endloop
endfacet
facet normal 0.0000 0.0000 -1.0000
  outer loop
    vertex -1.1134 -5.5975 0.0000
    vertex -2.0673 -4.9908 0.0000
    vertex -1.5750 -2.7280 0.0000
  endloop
endfacet
facet normal 0.0000 0.0000 -1.0000
  outer loop
    vertex -1.1134 -5.5975 0.0000
    vertex -1.5750 -2.7280 0.0000
    vertex -0.8153 -3.0427 0.0000
  endloop
endfacet
facet normal 0.0000 0.0000 -1.0000
  outer loop
    vertex -0.0000 -5.6000 0.0000
    vertex -1.1134 -5.5975 0.0000
    vertex -0.8153 -3.0427 0.0000
  endloop
endfacet
facet normal 0.0000 0.0000 -1.0000
  outer loop
    vertex -0.0000 -5.6000 0.0000
    vertex -0.8153 -3.0427 0.0000
    vertex -0.0000 -3.1500 0.0000
  endloop
endfacet
facet normal 0.0000 0.0000 -1.0000
  outer loop
    vertex 1.0716 -5.3873 0.0000
    vertex -0.0000 -5.6000 0.0000
    vertex -0.0000 -3.1500 0.0000
  endloop
endfacet
facet normal 0.0000 0.0000 0.0000
  outer loop
    vertex 1.0716 -5.3873 0.0000
    vertex -0.0000 -3.1500 0.0000
    vertex -0.0000 -3.1500 0.0000
  endloop
endfacet
facet normal 0.0000 0.0000 -1.0000
  outer loop
    vertex 2.2188 -5.3566 0.0000
    vertex 1.0716 -5.3873 0.0000
    vertex -0.0000 -3.1500 0.0000
  endloop
endfacet
facet normal 0.0000 0.0000 -1.0000
  outer loop
    vertex 2.2188 -5.3566 0.0000
    vertex -0.0000 -3.1500 0.0000
    vertex 0.8153 -3.0427 0.0000
  endloop
endfacet
facet normal 0.0000 0.0000 -1.0000
  outer loop
    vertex 2.9675 -4.4411 0.0000
    vertex 2.2188 -5.3566 0.0000
    vertex 0.8153 -3.0427 0.0000
  endloop
endfacet
facet normal 0.0000 0.0000 -1.0000
  outer loop
    vertex 2.9675 -4.4411 0.0000
    vertex 0.8153 -3.0427 0.0000
    vertex 1.5750 -2.7280 0.0000
  endloop
endfacet
facet normal 0.0000 0.0000 -1.0000
  outer loop
    vertex 4.1578 -4.1578 0.0000
    vertex 2.9675 -4.4411 0.0000
    vertex 1.5750 -2.7280 0.0000
  endloop
endfacet
facet normal 0.0000 0.0000 -1.0000
  outer loop
    vertex 4.1578 -4.1578 0.0000
    vertex 1.5750 -2.7280 0.0000
    vertex 2.2274 -2.2274 0.0000
  endloop
endfacet
facet normal 0.0000 0.0000 -1.0000
  outer loop
    vertex 4.4411 -2.9675 0.0000
    vertex 4.1578 -4.1578 0.0000
    vertex 2.2274 -2.2274 0.0000
  endloop
endfacet
facet normal 0.0000 0.0000 0.0000
  outer loop
    vertex 4.4411 -2.9675 0.0000
    vertex 2.2274 -2.2274 0.0000
    vertex 2.2274 -2.2274 0.0000
  endloop
endfacet
facet normal 0.0000 0.0000 -1.0000
  outer loop
    vertex 5.3566 -2.2188 0.0000
    vertex 4.4411 -2.9675 0.0000
    vertex 2.2274 -2.2274 0.0000
  endloop
endfacet
facet normal 0.0000 0.0000 -1.0000
  outer loop
    vertex 5.3566 -2.2188 0.0000
    vertex 2.2274 -2.2274 0.0000
    vertex 2.7280 -1.5750 0.0000
  endloop
endfacet
facet normal 0.0000 0.0000 -1.0000
  outer loop
    vertex 5.3873 -1.0716 0.0000
    vertex 5.3566 -2.2188 0.0000
    vertex 2.7280 -1.5750 0.0000
  endloop
endfacet
facet normal 0.0000 0.0000 -1.0000
  outer loop
    vertex 5.3873 -1.0716 0.0000
    vertex 2.7280 -1.5750 0.0000
    vertex 3.0427 -0.8153 0.0000
  endloop
endfacet
facet normal 0.0000 0.0000 -1.0000
  outer loop
    vertex 5.6000 0.0000 0.0000
    vertex 5.3873 -1.0716 0.0000
    vertex 3.0427 -0.8153 0.0000
  endloop
endfacet
facet normal 0.0000 0.0000 -1.0000
  outer loop
    vertex 5.6000 0.0000 0.0000
    vertex 3.0427 -0.8153 0.0000
    vertex 3.1500 0.0000 0.0000
  endloop
endfacet
endsolid mi_small
