solid Baxter_PD_Top_Socket_Half
facet normal 0 0 0
  outer loop
    vertex 5.5658464431762695 -6 -10
    vertex 5.5658464431762695 -6 10
    vertex 6.099351406097412 -5.604325771331787 -10
  endloop
endfacet
facet normal 0 0 0
  outer loop
    vertex 6.099351406097412 -5.604325771331787 -10
    vertex 6.099351406097412 -5.604325771331787 10
    vertex 6.626523971557617 -5.126523971557617 -10
  endloop
endfacet
facet normal 0 0 0
  outer loop
    vertex 6.626523971557617 -5.126523971557617 -10
    vertex 6.626523971557617 -5.126523971557617 10
    vertex 7.104325771331787 -4.599351406097412 -10
  endloop
endfacet
facet normal 0 0 0
  outer loop
    vertex 7.104325771331787 -4.599351406097412 -10
    vertex 7.104325771331787 -4.599351406097412 10
    vertex 7.5281548500061035 -4.027884006500244 -10
  endloop
endfacet
facet normal 0 0 0
  outer loop
    vertex 7.5281548500061035 -4.027884006500244 -10
    vertex 7.5281548500061035 -4.027884006500244 10
    vertex 7.8939290046691895 -3.41762638092041 -10
  endloop
endfacet
facet normal 0 0 0
  outer loop
    vertex 7.8939290046691895 -3.41762638092041 -10
    vertex 7.8939290046691895 -3.41762638092041 10
    vertex 8.198126792907715 -2.7744548320770264 -10
  endloop
endfacet
facet normal 0 0 0
  outer loop
    vertex 8.198126792907715 -2.7744548320770264 -10
    vertex 8.198126792907715 -2.7744548320770264 10
    vertex 8.437817573547363 -2.1045639514923096 -10
  endloop
endfacet
facet normal 0 0 0
  outer loop
    vertex 8.437817573547363 -2.1045639514923096 -10
    vertex 8.437817573547363 -2.1045639514923096 10
    vertex 8.610692977905273 -1.4144048690795898 -10
  endloop
endfacet
facet normal 0 0 0
  outer loop
    vertex 8.610692977905273 -1.4144048690795898 -10
    vertex 8.610692977905273 -1.4144048690795898 10
    vertex 8.715088844299316 -0.7106242775917053 -10
  endloop
endfacet
facet normal 0 0 0
  outer loop
    vertex 8.715088844299316 -0.7106242775917053 -10
    vertex 8.715088844299316 -0.7106242775917053 10
    vertex 8.75 0 -10
  endloop
endfacet
facet normal 0 0 0
  outer loop
    vertex 6.099351406097412 -5.604325771331787 -10
    vertex 5.5658464431762695 -6 10
    vertex 6.099351406097412 -5.604325771331787 10
  endloop
endfacet
facet normal 0 0 0
  outer loop
    vertex 6.626523971557617 -5.126523971557617 -10
    vertex 6.099351406097412 -5.604325771331787 10
    vertex 6.626523971557617 -5.126523971557617 10
  endloop
endfacet
facet normal 0 0 0
  outer loop
    vertex 7.104325771331787 -4.599351406097412 -10
    vertex 6.626523971557617 -5.126523971557617 10
    vertex 7.104325771331787 -4.599351406097412 10
  endloop
endfacet
facet normal 0 0 0
  outer loop
    vertex 7.5281548500061035 -4.027884006500244 -10
    vertex 7.104325771331787 -4.599351406097412 10
    vertex 7.5281548500061035 -4.027884006500244 10
  endloop
endfacet
facet normal 0 0 0
  outer loop
    vertex 7.8939290046691895 -3.41762638092041 -10
    vertex 7.5281548500061035 -4.027884006500244 10
    vertex 7.8939290046691895 -3.41762638092041 10
  endloop
endfacet
facet normal 0 0 0
  outer loop
    vertex 8.198126792907715 -2.7744548320770264 -10
    vertex 7.8939290046691895 -3.41762638092041 10
    vertex 8.198126792907715 -2.7744548320770264 10
  endloop
endfacet
facet normal 0 0 0
  outer loop
    vertex 8.437817573547363 -2.1045639514923096 -10
    vertex 8.198126792907715 -2.7744548320770264 10
    vertex 8.437817573547363 -2.1045639514923096 10
  endloop
endfacet
facet normal 0 0 0
  outer loop
    vertex 8.610692977905273 -1.4144048690795898 -10
    vertex 8.437817573547363 -2.1045639514923096 10
    vertex 8.610692977905273 -1.4144048690795898 10
  endloop
endfacet
facet normal 0 0 0
  outer loop
    vertex 8.715088844299316 -0.7106242775917053 -10
    vertex 8.610692977905273 -1.4144048690795898 10
    vertex 8.715088844299316 -0.7106242775917053 10
  endloop
endfacet
facet normal 0 0 0
  outer loop
    vertex 8.715088844299316 -0.7106242775917053 10
    vertex 8.75 0 10
    vertex 8.75 0 -10
  endloop
endfacet
facet normal 0 0 0
  outer loop
    vertex 8.75 0 -10
    vertex 8.75 0 10
    vertex 8.715088844299316 0.7106242775917053 -10
  endloop
endfacet
facet normal 0 0 0
  outer loop
    vertex 8.715088844299316 0.7106242775917053 -10
    vertex 8.715088844299316 0.7106242775917053 10
    vertex 8.610692977905273 1.4144048690795898 -10
  endloop
endfacet
facet normal 0 0 0
  outer loop
    vertex 8.437817573547363 2.1045639514923096 -10
    vertex 8.610692977905273 1.4144048690795898 -10
    vertex 8.610692977905273 1.4144048690795898 10
  endloop
endfacet
facet normal 0 0 0
  outer loop
    vertex 8.437817573547363 2.1045639514923096 -10
    vertex 8.437817573547363 2.1045639514923096 10
    vertex 8.198126792907715 2.7744548320770264 -10
  endloop
endfacet
facet normal 0 0 0
  outer loop
    vertex 7.104325771331787 4.599351406097412 -10
    vertex 7.104325771331787 4.599351406097412 10
    vertex 6.626523971557617 5.126523971557617 -10
  endloop
endfacet
facet normal 0 0 0
  outer loop
    vertex 7.8939290046691895 3.41762638092041 -10
    vertex 7.8939290046691895 3.41762638092041 10
    vertex 7.5281548500061035 4.027884006500244 -10
  endloop
endfacet
facet normal 0 0 0
  outer loop
    vertex 7.8939290046691895 3.41762638092041 -10
    vertex 8.198126792907715 2.7744548320770264 -10
    vertex 8.198126792907715 2.7744548320770264 10
  endloop
endfacet
facet normal 0 0 0
  outer loop
    vertex 7.104325771331787 4.599351406097412 -10
    vertex 7.5281548500061035 4.027884006500244 -10
    vertex 7.5281548500061035 4.027884006500244 10
  endloop
endfacet
facet normal 0 0 0
  outer loop
    vertex 5.5658464431762695 6 -10
    vertex 6.099351406097412 5.604325771331787 -10
    vertex 6.099351406097412 5.604325771331787 10
  endloop
endfacet
facet normal 0 0 0
  outer loop
    vertex 6.099351406097412 5.604325771331787 -10
    vertex 6.626523971557617 5.126523971557617 -10
    vertex 6.626523971557617 5.126523971557617 10
  endloop
endfacet
facet normal 0 0 0
  outer loop
    vertex 5.5658464431762695 6 -10
    vertex 6.099351406097412 5.604325771331787 10
    vertex 5.5658464431762695 6 10
  endloop
endfacet
facet normal 0 0 0
  outer loop
    vertex 8.715088844299316 0.7106242775917053 -10
    vertex 8.75 0 10
    vertex 8.715088844299316 0.7106242775917053 10
  endloop
endfacet
facet normal 0 0 0
  outer loop
    vertex 8.610692977905273 1.4144048690795898 -10
    vertex 8.715088844299316 0.7106242775917053 10
    vertex 8.610692977905273 1.4144048690795898 10
  endloop
endfacet
facet normal 0 0 0
  outer loop
    vertex 8.437817573547363 2.1045639514923096 -10
    vertex 8.610692977905273 1.4144048690795898 10
    vertex 8.437817573547363 2.1045639514923096 10
  endloop
endfacet
facet normal 0 0 0
  outer loop
    vertex 8.198126792907715 2.7744548320770264 -10
    vertex 8.437817573547363 2.1045639514923096 10
    vertex 8.198126792907715 2.7744548320770264 10
  endloop
endfacet
facet normal 0 0 0
  outer loop
    vertex 7.104325771331787 4.599351406097412 -10
    vertex 7.5281548500061035 4.027884006500244 10
    vertex 7.104325771331787 4.599351406097412 10
  endloop
endfacet
facet normal 0 0 0
  outer loop
    vertex 6.626523971557617 5.126523971557617 -10
    vertex 7.104325771331787 4.599351406097412 10
    vertex 6.626523971557617 5.126523971557617 10
  endloop
endfacet
facet normal 0 0 0
  outer loop
    vertex 7.5281548500061035 4.027884006500244 -10
    vertex 7.8939290046691895 3.41762638092041 10
    vertex 7.5281548500061035 4.027884006500244 10
  endloop
endfacet
facet normal 0 0 0
  outer loop
    vertex 7.8939290046691895 3.41762638092041 -10
    vertex 8.198126792907715 2.7744548320770264 10
    vertex 7.8939290046691895 3.41762638092041 10
  endloop
endfacet
facet normal 0 0 0
  outer loop
    vertex 6.099351406097412 5.604325771331787 -10
    vertex 6.626523971557617 5.126523971557617 10
    vertex 6.099351406097412 5.604325771331787 10
  endloop
endfacet
facet normal 0 0 0
  outer loop
    vertex -6.626523971557617 -5.126523971557617 -10
    vertex -6.626523971557617 -5.126523971557617 10
    vertex -6.099351406097412 -5.604325771331787 -10
  endloop
endfacet
facet normal 0 0 0
  outer loop
    vertex -6.099351406097412 -5.604325771331787 -10
    vertex -6.099351406097412 -5.604325771331787 10
    vertex -5.5658464431762695 -6 -10
  endloop
endfacet
facet normal 0 0 0
  outer loop
    vertex -7.5281548500061035 -4.027884006500244 -10
    vertex -7.5281548500061035 -4.027884006500244 10
    vertex -7.104325771331787 -4.599351406097412 -10
  endloop
endfacet
facet normal 0 0 0
  outer loop
    vertex -8.198126792907715 -2.7744548320770264 -10
    vertex -8.198126792907715 -2.7744548320770264 10
    vertex -7.8939290046691895 -3.41762638092041 -10
  endloop
endfacet
facet normal 0 0 0
  outer loop
    vertex -7.5281548500061035 -4.027884006500244 -10
    vertex -7.8939290046691895 -3.41762638092041 -10
    vertex -7.8939290046691895 -3.41762638092041 10
  endloop
endfacet
facet normal 0 0 0
  outer loop
    vertex -6.626523971557617 -5.126523971557617 -10
    vertex -7.104325771331787 -4.599351406097412 -10
    vertex -7.104325771331787 -4.599351406097412 10
  endloop
endfacet
facet normal 0 0 0
  outer loop
    vertex -8.198126792907715 -2.7744548320770264 -10
    vertex -8.437817573547363 -2.1045639514923096 -10
    vertex -8.437817573547363 -2.1045639514923096 10
  endloop
endfacet
facet normal 0 0 0
  outer loop
    vertex -8.610692977905273 -1.4144048690795898 -10
    vertex -8.610692977905273 -1.4144048690795898 10
    vertex -8.437817573547363 -2.1045639514923096 -10
  endloop
endfacet
facet normal 0 0 0
  outer loop
    vertex -8.610692977905273 -1.4144048690795898 -10
    vertex -8.715088844299316 -0.7106242775917053 -10
    vertex -8.715088844299316 -0.7106242775917053 10
  endloop
endfacet
facet normal 0 0 0
  outer loop
    vertex -8.715088844299316 -0.7106242775917053 -10
    vertex -8.75 0 -10
    vertex -8.75 0 10
  endloop
endfacet
facet normal 0 0 0
  outer loop
    vertex -6.099351406097412 -5.604325771331787 -10
    vertex -6.626523971557617 -5.126523971557617 10
    vertex -6.099351406097412 -5.604325771331787 10
  endloop
endfacet
facet normal 0 0 0
  outer loop
    vertex -7.8939290046691895 -3.41762638092041 -10
    vertex -8.198126792907715 -2.7744548320770264 10
    vertex -7.8939290046691895 -3.41762638092041 10
  endloop
endfacet
facet normal 0 0 0
  outer loop
    vertex -7.5281548500061035 -4.027884006500244 -10
    vertex -7.8939290046691895 -3.41762638092041 10
    vertex -7.5281548500061035 -4.027884006500244 10
  endloop
endfacet
facet normal 0 0 0
  outer loop
    vertex -6.626523971557617 -5.126523971557617 -10
    vertex -7.104325771331787 -4.599351406097412 10
    vertex -6.626523971557617 -5.126523971557617 10
  endloop
endfacet
facet normal 0 0 0
  outer loop
    vertex -7.104325771331787 -4.599351406097412 -10
    vertex -7.5281548500061035 -4.027884006500244 10
    vertex -7.104325771331787 -4.599351406097412 10
  endloop
endfacet
facet normal 0 0 0
  outer loop
    vertex -8.198126792907715 -2.7744548320770264 -10
    vertex -8.437817573547363 -2.1045639514923096 10
    vertex -8.198126792907715 -2.7744548320770264 10
  endloop
endfacet
facet normal 0 0 0
  outer loop
    vertex -8.437817573547363 -2.1045639514923096 -10
    vertex -8.610692977905273 -1.4144048690795898 10
    vertex -8.437817573547363 -2.1045639514923096 10
  endloop
endfacet
facet normal 0 0 0
  outer loop
    vertex -8.610692977905273 -1.4144048690795898 -10
    vertex -8.715088844299316 -0.7106242775917053 10
    vertex -8.610692977905273 -1.4144048690795898 10
  endloop
endfacet
facet normal 0 0 0
  outer loop
    vertex -8.715088844299316 -0.7106242775917053 -10
    vertex -8.75 0 10
    vertex -8.715088844299316 -0.7106242775917053 10
  endloop
endfacet
facet normal 0 0 0
  outer loop
    vertex -5.5658464431762695 -6 -10
    vertex -6.099351406097412 -5.604325771331787 10
    vertex -5.5658464431762695 -6 10
  endloop
endfacet
facet normal 0 0 0
  outer loop
    vertex -8.75 0 -10
    vertex -8.715088844299316 0.7106242775917053 -10
    vertex -8.715088844299316 0.7106242775917053 10
  endloop
endfacet
facet normal 0 0 0
  outer loop
    vertex -8.715088844299316 0.7106242775917053 -10
    vertex -8.610692977905273 1.4144048690795898 -10
    vertex -8.610692977905273 1.4144048690795898 10
  endloop
endfacet
facet normal 0 0 0
  outer loop
    vertex -8.610692977905273 1.4144048690795898 -10
    vertex -8.437817573547363 2.1045639514923096 -10
    vertex -8.437817573547363 2.1045639514923096 10
  endloop
endfacet
facet normal 0 0 0
  outer loop
    vertex -8.437817573547363 2.1045639514923096 -10
    vertex -8.198126792907715 2.7744548320770264 -10
    vertex -8.198126792907715 2.7744548320770264 10
  endloop
endfacet
facet normal 0 0 0
  outer loop
    vertex -8.198126792907715 2.7744548320770264 -10
    vertex -7.8939290046691895 3.41762638092041 -10
    vertex -7.8939290046691895 3.41762638092041 10
  endloop
endfacet
facet normal 0 0 0
  outer loop
    vertex -7.8939290046691895 3.41762638092041 -10
    vertex -7.5281548500061035 4.027884006500244 -10
    vertex -7.5281548500061035 4.027884006500244 10
  endloop
endfacet
facet normal 0 0 0
  outer loop
    vertex -7.5281548500061035 4.027884006500244 -10
    vertex -7.104325771331787 4.599351406097412 -10
    vertex -7.104325771331787 4.599351406097412 10
  endloop
endfacet
facet normal 0 0 0
  outer loop
    vertex -7.104325771331787 4.599351406097412 -10
    vertex -6.626523971557617 5.126523971557617 -10
    vertex -6.626523971557617 5.126523971557617 10
  endloop
endfacet
facet normal 0 0 0
  outer loop
    vertex -6.626523971557617 5.126523971557617 -10
    vertex -6.099351406097412 5.604325771331787 -10
    vertex -6.099351406097412 5.604325771331787 10
  endloop
endfacet
facet normal 0 0 0
  outer loop
    vertex -6.099351406097412 5.604325771331787 -10
    vertex -5.5658464431762695 6 -10
    vertex -5.5658464431762695 6 10
  endloop
endfacet
facet normal 0 0 0
  outer loop
    vertex -8.75 0 -10
    vertex -8.715088844299316 0.7106242775917053 10
    vertex -8.75 0 10
  endloop
endfacet
facet normal 0 0 0
  outer loop
    vertex -8.715088844299316 0.7106242775917053 -10
    vertex -8.610692977905273 1.4144048690795898 10
    vertex -8.715088844299316 0.7106242775917053 10
  endloop
endfacet
facet normal 0 0 0
  outer loop
    vertex -8.610692977905273 1.4144048690795898 -10
    vertex -8.437817573547363 2.1045639514923096 10
    vertex -8.610692977905273 1.4144048690795898 10
  endloop
endfacet
facet normal 0 0 0
  outer loop
    vertex -8.437817573547363 2.1045639514923096 -10
    vertex -8.198126792907715 2.7744548320770264 10
    vertex -8.437817573547363 2.1045639514923096 10
  endloop
endfacet
facet normal 0 0 0
  outer loop
    vertex -8.198126792907715 2.7744548320770264 -10
    vertex -7.8939290046691895 3.41762638092041 10
    vertex -8.198126792907715 2.7744548320770264 10
  endloop
endfacet
facet normal 0 0 0
  outer loop
    vertex -7.8939290046691895 3.41762638092041 -10
    vertex -7.5281548500061035 4.027884006500244 10
    vertex -7.8939290046691895 3.41762638092041 10
  endloop
endfacet
facet normal 0 0 0
  outer loop
    vertex -7.5281548500061035 4.027884006500244 -10
    vertex -7.104325771331787 4.599351406097412 10
    vertex -7.5281548500061035 4.027884006500244 10
  endloop
endfacet
facet normal 0 0 0
  outer loop
    vertex -7.104325771331787 4.599351406097412 -10
    vertex -6.626523971557617 5.126523971557617 10
    vertex -7.104325771331787 4.599351406097412 10
  endloop
endfacet
facet normal 0 0 0
  outer loop
    vertex -6.626523971557617 5.126523971557617 -10
    vertex -6.099351406097412 5.604325771331787 10
    vertex -6.626523971557617 5.126523971557617 10
  endloop
endfacet
facet normal 0 0 0
  outer loop
    vertex -6.099351406097412 5.604325771331787 -10
    vertex -5.5658464431762695 6 10
    vertex -6.099351406097412 5.604325771331787 10
  endloop
endfacet
facet normal 0 0 0
  outer loop
    vertex 5.5658464431762695 6 -10
    vertex 1.5 6 8
    vertex 1.5 6 -10
  endloop
endfacet
facet normal 0 0 0
  outer loop
    vertex 5.5658464431762695 6 -10
    vertex 4.5 6 8
    vertex 1.5 6 8
  endloop
endfacet
facet normal 0 0 0
  outer loop
    vertex 5.5658464431762695 6 -10
    vertex 5.5658464431762695 6 10
    vertex 4.5 6 8
  endloop
endfacet
facet normal 0 0 0
  outer loop
    vertex 4.5 6 8
    vertex 5.5658464431762695 6 10
    vertex 4.5 6 10
  endloop
endfacet
facet normal 0 0 0
  outer loop
    vertex -5.5658464431762695 6 -10
    vertex -1.5 6 -10
    vertex -4.5 6 8
  endloop
endfacet
facet normal 0 0 0
  outer loop
    vertex -5.5658464431762695 6 -10
    vertex -4.5 6 8
    vertex -5.5658464431762695 6 10
  endloop
endfacet
facet normal 0 0 0
  outer loop
    vertex -4.5 6 8
    vertex -1.5 6 -10
    vertex -1.5 6 8
  endloop
endfacet
facet normal 0 0 0
  outer loop
    vertex -5.5658464431762695 6 10
    vertex -4.5 6 8
    vertex -4.5 6 10
  endloop
endfacet
facet normal 0 0 0
  outer loop
    vertex 5.5658464431762695 -6 -10
    vertex 1.5 -6 -10
    vertex 4.5 -6 8
  endloop
endfacet
facet normal 0 0 0
  outer loop
    vertex 4.5 -6 8
    vertex 1.5 -6 -10
    vertex 1.5 -6 8
  endloop
endfacet
facet normal 0 0 0
  outer loop
    vertex 5.5658464431762695 -6 -10
    vertex 4.5 -6 8
    vertex 5.5658464431762695 -6 10
  endloop
endfacet
facet normal 0 0 0
  outer loop
    vertex 4.5 -6 8
    vertex 4.5 -6 10
    vertex 5.5658464431762695 -6 10
  endloop
endfacet
facet normal 0 0 0
  outer loop
    vertex -5.5658464431762695 -6 -10
    vertex -1.5 -6 8
    vertex -1.5 -6 -10
  endloop
endfacet
facet normal 0 0 0
  outer loop
    vertex -5.5658464431762695 -6 -10
    vertex -4.5 -6 8
    vertex -1.5 -6 8
  endloop
endfacet
facet normal 0 0 0
  outer loop
    vertex -5.5658464431762695 -6 -10
    vertex -5.5658464431762695 -6 10
    vertex -4.5 -6 8
  endloop
endfacet
facet normal 0 0 0
  outer loop
    vertex -5.5658464431762695 -6 10
    vertex -4.5 -6 10
    vertex -4.5 -6 8
  endloop
endfacet
facet normal 0 0 0
  outer loop
    vertex 5.5658464431762695 -6 -10
    vertex 1.5 -10.25 -10
    vertex 1.5 -6 -10
  endloop
endfacet
facet normal 0 0 0
  outer loop
    vertex 2.5046756267547607 -10.200643539428711 -10
    vertex 1.5 -10.25 -10
    vertex 5.5658464431762695 -6 -10
  endloop
endfacet
facet normal 0 0 0
  outer loop
    vertex 2.5046756267547607 -10.200643539428711 -10
    vertex 5.5658464431762695 -6 -10
    vertex 3.499675750732422 -10.053049087524414 -10
  endloop
endfacet
facet normal 0 0 0
  outer loop
    vertex 3.499675750732422 -10.053049087524414 -10
    vertex 5.5658464431762695 -6 -10
    vertex 4.4754180908203125 -9.808638572692871 -10
  endloop
endfacet
facet normal 0 0 0
  outer loop
    vertex 4.4754180908203125 -9.808638572692871 -10
    vertex 5.5658464431762695 -6 -10
    vertex 5.4225053787231445 -9.469765663146973 -10
  endloop
endfacet
facet normal 0 0 0
  outer loop
    vertex 5.4225053787231445 -9.469765663146973 -10
    vertex 5.5658464431762695 -6 -10
    vertex 6.099351406097412 -5.604325771331787 -10
  endloop
endfacet
facet normal 0 0 0
  outer loop
    vertex 2.5046756267547607 -10.200643539428711 -10
    vertex 1.5 -10.25 8
    vertex 1.5 -10.25 -10
  endloop
endfacet
facet normal 0 0 0
  outer loop
    vertex 2.5046756267547607 -10.200643539428711 -10
    vertex 3.499675750732422 -10.053049087524414 -10
    vertex 2.5046756267547607 -10.200643539428711 8
  endloop
endfacet
facet normal 0 0 0
  outer loop
    vertex 3.499675750732422 -10.053049087524414 -10
    vertex 4.4754180908203125 -9.808638572692871 -10
    vertex 3.499675750732422 -10.053049087524414 8
  endloop
endfacet
facet normal 0 0 0
  outer loop
    vertex 4.4754180908203125 -9.808638572692871 -10
    vertex 5.4225053787231445 -9.469765663146973 -10
    vertex 4.5 -9.799842834472656 8
  endloop
endfacet
facet normal 0 0 0
  outer loop
    vertex 5.4225053787231445 -9.469765663146973 -10
    vertex 6.331816673278809 -9.039692878723145 -10
    vertex 5.4225053787231445 -9.469765663146973 10
  endloop
endfacet
facet normal 0 0 0
  outer loop
    vertex 5.4225053787231445 -9.469765663146973 -10
    vertex 6.099351406097412 -5.604325771331787 -10
    vertex 6.331816673278809 -9.039692878723145 -10
  endloop
endfacet
facet normal 0 0 0
  outer loop
    vertex 6.331816673278809 -9.039692878723145 -10
    vertex 6.099351406097412 -5.604325771331787 -10
    vertex 6.626523971557617 -5.126523971557617 -10
  endloop
endfacet
facet normal 0 0 0
  outer loop
    vertex 6.331816673278809 -9.039692878723145 -10
    vertex 6.626523971557617 -5.126523971557617 -10
    vertex 7.194594860076904 -8.522563934326172 -10
  endloop
endfacet
facet normal 0 0 0
  outer loop
    vertex 7.194594860076904 -8.522563934326172 -10
    vertex 6.626523971557617 -5.126523971557617 -10
    vertex 7.104325771331787 -4.599351406097412 -10
  endloop
endfacet
facet normal 0 0 0
  outer loop
    vertex 7.194594860076904 -8.522563934326172 -10
    vertex 7.104325771331787 -4.599351406097412 -10
    vertex 7.5281548500061035 -4.027884006500244 -10
  endloop
endfacet
facet normal 0 0 0
  outer loop
    vertex 7.194594860076904 -8.522563934326172 -10
    vertex 7.5281548500061035 -4.027884006500244 -10
    vertex 8.002531051635742 -7.923357009887695 -10
  endloop
endfacet
facet normal 0 0 0
  outer loop
    vertex 8.002531051635742 -7.923357009887695 -10
    vertex 8.437817573547363 -2.1045639514923096 -10
    vertex 8.747844696044922 -7.247844696044922 -10
  endloop
endfacet
facet normal 0 0 0
  outer loop
    vertex 6.331816673278809 -9.039692878723145 -10
    vertex 7.194594860076904 -8.522563934326172 -10
    vertex 6.331816673278809 -9.039692878723145 10
  endloop
endfacet
facet normal 0 0 0
  outer loop
    vertex 7.194594860076904 -8.522563934326172 -10
    vertex 8.002531051635742 -7.923357009887695 -10
    vertex 7.194594860076904 -8.522563934326172 10
  endloop
endfacet
facet normal 0 0 0
  outer loop
    vertex 8.002531051635742 -7.923357009887695 -10
    vertex 8.747844696044922 -7.247844696044922 -10
    vertex 8.002531051635742 -7.923357009887695 10
  endloop
endfacet
facet normal 0 0 0
  outer loop
    vertex 8.747844696044922 -7.247844696044922 -10
    vertex 9.423357009887695 -6.502531051635742 -10
    vertex 8.747844696044922 -7.247844696044922 10
  endloop
endfacet
facet normal 0 0 0
  outer loop
    vertex 9.423357009887695 -6.502531051635742 -10
    vertex 10.022563934326172 -5.694594860076904 -10
    vertex 9.423357009887695 -6.502531051635742 10
  endloop
endfacet
facet normal 0 0 0
  outer loop
    vertex 10.022563934326172 -5.694594860076904 -10
    vertex 10.539692878723145 -4.831816673278809 -10
    vertex 10.022563934326172 -5.694594860076904 10
  endloop
endfacet
facet normal 0 0 0
  outer loop
    vertex 8.002531051635742 -7.923357009887695 -10
    vertex 7.5281548500061035 -4.027884006500244 -10
    vertex 7.8939290046691895 -3.41762638092041 -10
  endloop
endfacet
facet normal 0 0 0
  outer loop
    vertex 8.002531051635742 -7.923357009887695 -10
    vertex 7.8939290046691895 -3.41762638092041 -10
    vertex 8.198126792907715 -2.7744548320770264 -10
  endloop
endfacet
facet normal 0 0 0
  outer loop
    vertex 8.002531051635742 -7.923357009887695 -10
    vertex 8.198126792907715 -2.7744548320770264 -10
    vertex 8.437817573547363 -2.1045639514923096 -10
  endloop
endfacet
facet normal 0 0 0
  outer loop
    vertex 8.747844696044922 -7.247844696044922 -10
    vertex 8.437817573547363 -2.1045639514923096 -10
    vertex 8.610692977905273 -1.4144048690795898 -10
  endloop
endfacet
facet normal 0 0 0
  outer loop
    vertex 8.747844696044922 -7.247844696044922 -10
    vertex 8.610692977905273 -1.4144048690795898 -10
    vertex 8.715088844299316 -0.7106242775917053 -10
  endloop
endfacet
facet normal 0 0 0
  outer loop
    vertex 8.747844696044922 -7.247844696044922 -10
    vertex 8.715088844299316 -0.7106242775917053 -10
    vertex 8.75 0 -10
  endloop
endfacet
facet normal 0 0 0
  outer loop
    vertex 8.747844696044922 -7.247844696044922 -10
    vertex 9.423357009887695 6.502531051635742 -10
    vertex 9.423357009887695 -6.502531051635742 -10
  endloop
endfacet
facet normal 0 0 0
  outer loop
    vertex 9.423357009887695 -6.502531051635742 -10
    vertex 10.022563934326172 5.694594860076904 -10
    vertex 10.022563934326172 -5.694594860076904 -10
  endloop
endfacet
facet normal 0 0 0
  outer loop
    vertex 8.747844696044922 -7.247844696044922 -10
    vertex 8.75 0 -10
    vertex 9.423357009887695 6.502531051635742 -10
  endloop
endfacet
facet normal 0 0 0
  outer loop
    vertex 10.022563934326172 -5.694594860076904 -10
    vertex 10.539692878723145 4.831816673278809 -10
    vertex 10.539692878723145 -4.831816673278809 -10
  endloop
endfacet
facet normal 0 0 0
  outer loop
    vertex 10.539692878723145 -4.831816673278809 -10
    vertex 10.969765663146973 3.9225051403045654 -10
    vertex 10.969765663146973 -3.9225051403045654 -10
  endloop
endfacet
facet normal 0 0 0
  outer loop
    vertex 10.969765663146973 -3.9225051403045654 -10
    vertex 11.308638572692871 2.9754178524017334 -10
    vertex 11.308638572692871 -2.9754178524017334 -10
  endloop
endfacet
facet normal 0 0 0
  outer loop
    vertex 11.308638572692871 -2.9754178524017334 -10
    vertex 11.553049087524414 1.9996757507324219 -10
    vertex 11.553049087524414 -1.9996757507324219 -10
  endloop
endfacet
facet normal 0 0 0
  outer loop
    vertex 11.553049087524414 -1.9996757507324219 -10
    vertex 11.700643539428711 1.0046757459640503 -10
    vertex 11.700643539428711 -1.0046757459640503 -10
  endloop
endfacet
facet normal 0 0 0
  outer loop
    vertex 10.539692878723145 -4.831816673278809 -10
    vertex 10.969765663146973 -3.9225051403045654 -10
    vertex 10.539692878723145 -4.831816673278809 10
  endloop
endfacet
facet normal 0 0 0
  outer loop
    vertex 10.969765663146973 -3.9225051403045654 -10
    vertex 11.308638572692871 -2.9754178524017334 -10
    vertex 10.969765663146973 -3.9225051403045654 10
  endloop
endfacet
facet normal 0 0 0
  outer loop
    vertex 11.308638572692871 -2.9754178524017334 -10
    vertex 11.553049087524414 -1.9996757507324219 -10
    vertex 11.308638572692871 -2.9754178524017334 10
  endloop
endfacet
facet normal 0 0 0
  outer loop
    vertex 11.553049087524414 -1.9996757507324219 -10
    vertex 11.700643539428711 -1.0046757459640503 -10
    vertex 11.553049087524414 -1.9996757507324219 10
  endloop
endfacet
facet normal 0 0 0
  outer loop
    vertex 11.700643539428711 -1.0046757459640503 -10
    vertex 11.75 0 -10
    vertex 11.700643539428711 -1.0046757459640503 10
  endloop
endfacet
facet normal 0 0 0
  outer loop
    vertex 2.5046756267547607 -10.200643539428711 -10
    vertex 2.5046756267547607 -10.200643539428711 8
    vertex 1.5 -10.25 8
  endloop
endfacet
facet normal 0 0 0
  outer loop
    vertex 3.499675750732422 -10.053049087524414 -10
    vertex 3.499675750732422 -10.053049087524414 8
    vertex 2.5046756267547607 -10.200643539428711 8
  endloop
endfacet
facet normal 0 0 0
  outer loop
    vertex 4.4754180908203125 -9.808638572692871 -10
    vertex 4.4754180908203125 -9.808638572692871 8
    vertex 3.499675750732422 -10.053049087524414 8
  endloop
endfacet
facet normal 0 0 0
  outer loop
    vertex 4.4754180908203125 -9.808638572692871 -10
    vertex 4.5 -9.799842834472656 8
    vertex 4.4754180908203125 -9.808638572692871 8
  endloop
endfacet
facet normal 0 0 0
  outer loop
    vertex 5.4225053787231445 -9.469765663146973 -10
    vertex 5.4225053787231445 -9.469765663146973 10
    vertex 4.5 -9.799842834472656 8
  endloop
endfacet
facet normal 0 0 0
  outer loop
    vertex 4.5 -9.799842834472656 8
    vertex 5.4225053787231445 -9.469765663146973 10
    vertex 4.5 -9.799842834472656 10
  endloop
endfacet
facet normal 0 0 0
  outer loop
    vertex 4.5 -9.799842834472656 10
    vertex 5.4225053787231445 -9.469765663146973 10
    vertex 4.5 -6 10
  endloop
endfacet
facet normal 0 0 0
  outer loop
    vertex 5.4225053787231445 -9.469765663146973 10
    vertex 6.331816673278809 -9.039692878723145 10
    vertex 5.5658464431762695 -6 10
  endloop
endfacet
facet normal 0 0 0
  outer loop
    vertex 5.4225053787231445 -9.469765663146973 10
    vertex 5.5658464431762695 -6 10
    vertex 4.5 -6 10
  endloop
endfacet
facet normal 0 0 0
  outer loop
    vertex 6.331816673278809 -9.039692878723145 -10
    vertex 6.331816673278809 -9.039692878723145 10
    vertex 5.4225053787231445 -9.469765663146973 10
  endloop
endfacet
facet normal 0 0 0
  outer loop
    vertex 7.194594860076904 -8.522563934326172 -10
    vertex 7.194594860076904 -8.522563934326172 10
    vertex 6.331816673278809 -9.039692878723145 10
  endloop
endfacet
facet normal 0 0 0
  outer loop
    vertex 8.002531051635742 -7.923357009887695 -10
    vertex 8.002531051635742 -7.923357009887695 10
    vertex 7.194594860076904 -8.522563934326172 10
  endloop
endfacet
facet normal 0 0 0
  outer loop
    vertex 8.747844696044922 -7.247844696044922 -10
    vertex 8.747844696044922 -7.247844696044922 10
    vertex 8.002531051635742 -7.923357009887695 10
  endloop
endfacet
facet normal 0 0 0
  outer loop
    vertex 9.423357009887695 -6.502531051635742 -10
    vertex 9.423357009887695 -6.502531051635742 10
    vertex 8.747844696044922 -7.247844696044922 10
  endloop
endfacet
facet normal 0 0 0
  outer loop
    vertex 10.022563934326172 -5.694594860076904 -10
    vertex 10.022563934326172 -5.694594860076904 10
    vertex 9.423357009887695 -6.502531051635742 10
  endloop
endfacet
facet normal 0 0 0
  outer loop
    vertex 6.331816673278809 -9.039692878723145 10
    vertex 7.194594860076904 -8.522563934326172 10
    vertex 6.099351406097412 -5.604325771331787 10
  endloop
endfacet
facet normal 0 0 0
  outer loop
    vertex 6.331816673278809 -9.039692878723145 10
    vertex 6.099351406097412 -5.604325771331787 10
    vertex 5.5658464431762695 -6 10
  endloop
endfacet
facet normal 0 0 0
  outer loop
    vertex 6.099351406097412 -5.604325771331787 10
    vertex 7.194594860076904 -8.522563934326172 10
    vertex 6.626523971557617 -5.126523971557617 10
  endloop
endfacet
facet normal 0 0 0
  outer loop
    vertex 7.194594860076904 -8.522563934326172 10
    vertex 7.104325771331787 -4.599351406097412 10
    vertex 6.626523971557617 -5.126523971557617 10
  endloop
endfacet
facet normal 0 0 0
  outer loop
    vertex 7.194594860076904 -8.522563934326172 10
    vertex 8.002531051635742 -7.923357009887695 10
    vertex 7.104325771331787 -4.599351406097412 10
  endloop
endfacet
facet normal 0 0 0
  outer loop
    vertex 8.002531051635742 -7.923357009887695 10
    vertex 7.5281548500061035 -4.027884006500244 10
    vertex 7.104325771331787 -4.599351406097412 10
  endloop
endfacet
facet normal 0 0 0
  outer loop
    vertex 8.002531051635742 -7.923357009887695 10
    vertex 8.747844696044922 -7.247844696044922 10
    vertex 8.198126792907715 -2.7744548320770264 10
  endloop
endfacet
facet normal 0 0 0
  outer loop
    vertex 10.539692878723145 -4.831816673278809 -10
    vertex 10.539692878723145 -4.831816673278809 10
    vertex 10.022563934326172 -5.694594860076904 10
  endloop
endfacet
facet normal 0 0 0
  outer loop
    vertex 10.969765663146973 -3.9225051403045654 -10
    vertex 10.969765663146973 -3.9225051403045654 10
    vertex 10.539692878723145 -4.831816673278809 10
  endloop
endfacet
facet normal 0 0 0
  outer loop
    vertex 11.308638572692871 -2.9754178524017334 -10
    vertex 11.308638572692871 -2.9754178524017334 10
    vertex 10.969765663146973 -3.9225051403045654 10
  endloop
endfacet
facet normal 0 0 0
  outer loop
    vertex 11.553049087524414 -1.9996757507324219 -10
    vertex 11.553049087524414 -1.9996757507324219 10
    vertex 11.308638572692871 -2.9754178524017334 10
  endloop
endfacet
facet normal 0 0 0
  outer loop
    vertex 11.700643539428711 -1.0046757459640503 -10
    vertex 11.700643539428711 -1.0046757459640503 10
    vertex 11.553049087524414 -1.9996757507324219 10
  endloop
endfacet
facet normal 0 0 0
  outer loop
    vertex 11.700643539428711 -1.0046757459640503 10
    vertex 11.75 0 -10
    vertex 11.75 0 10
  endloop
endfacet
facet normal 0 0 0
  outer loop
    vertex 8.002531051635742 -7.923357009887695 10
    vertex 7.8939290046691895 -3.41762638092041 10
    vertex 7.5281548500061035 -4.027884006500244 10
  endloop
endfacet
facet normal 0 0 0
  outer loop
    vertex 8.002531051635742 -7.923357009887695 10
    vertex 8.198126792907715 -2.7744548320770264 10
    vertex 7.8939290046691895 -3.41762638092041 10
  endloop
endfacet
facet normal 0 0 0
  outer loop
    vertex 8.747844696044922 -7.247844696044922 10
    vertex 8.437817573547363 -2.1045639514923096 10
    vertex 8.198126792907715 -2.7744548320770264 10
  endloop
endfacet
facet normal 0 0 0
  outer loop
    vertex 8.747844696044922 -7.247844696044922 10
    vertex 8.610692977905273 -1.4144048690795898 10
    vertex 8.437817573547363 -2.1045639514923096 10
  endloop
endfacet
facet normal 0 0 0
  outer loop
    vertex 8.747844696044922 -7.247844696044922 10
    vertex 8.715088844299316 -0.7106242775917053 10
    vertex 8.610692977905273 -1.4144048690795898 10
  endloop
endfacet
facet normal 0 0 0
  outer loop
    vertex 8.747844696044922 -7.247844696044922 10
    vertex 9.423357009887695 -6.502531051635742 10
    vertex 9.423357009887695 6.502531051635742 10
  endloop
endfacet
facet normal 0 0 0
  outer loop
    vertex 9.423357009887695 -6.502531051635742 10
    vertex 10.022563934326172 -5.694594860076904 10
    vertex 10.022563934326172 5.694594860076904 10
  endloop
endfacet
facet normal 0 0 0
  outer loop
    vertex 8.747844696044922 -7.247844696044922 10
    vertex 9.423357009887695 6.502531051635742 10
    vertex 8.715088844299316 -0.7106242775917053 10
  endloop
endfacet
facet normal 0 0 0
  outer loop
    vertex 10.022563934326172 -5.694594860076904 10
    vertex 10.539692878723145 -4.831816673278809 10
    vertex 10.539692878723145 4.831816673278809 10
  endloop
endfacet
facet normal 0 0 0
  outer loop
    vertex 10.539692878723145 -4.831816673278809 10
    vertex 10.969765663146973 -3.9225051403045654 10
    vertex 10.969765663146973 3.9225051403045654 10
  endloop
endfacet
facet normal 0 0 0
  outer loop
    vertex 10.969765663146973 -3.9225051403045654 10
    vertex 11.308638572692871 -2.9754178524017334 10
    vertex 11.308638572692871 2.9754178524017334 10
  endloop
endfacet
facet normal 0 0 0
  outer loop
    vertex 11.308638572692871 -2.9754178524017334 10
    vertex 11.553049087524414 -1.9996757507324219 10
    vertex 11.553049087524414 1.9996757507324219 10
  endloop
endfacet
facet normal 0 0 0
  outer loop
    vertex 11.553049087524414 -1.9996757507324219 10
    vertex 11.700643539428711 -1.0046757459640503 10
    vertex 11.700643539428711 1.0046757459640503 10
  endloop
endfacet
facet normal 0 0 0
  outer loop
    vertex 2.5046756267547607 10.200643539428711 -10
    vertex 1.5 6 -10
    vertex 1.5 10.25 -10
  endloop
endfacet
facet normal 0 0 0
  outer loop
    vertex 2.5046756267547607 10.200643539428711 -10
    vertex 3.499675750732422 10.053049087524414 -10
    vertex 1.5 6 -10
  endloop
endfacet
facet normal 0 0 0
  outer loop
    vertex 5.5658464431762695 6 -10
    vertex 1.5 6 -10
    vertex 6.331816673278809 9.039692878723145 -10
  endloop
endfacet
facet normal 0 0 0
  outer loop
    vertex 3.499675750732422 10.053049087524414 -10
    vertex 4.4754180908203125 9.808638572692871 -10
    vertex 1.5 6 -10
  endloop
endfacet
facet normal 0 0 0
  outer loop
    vertex 4.4754180908203125 9.808638572692871 -10
    vertex 5.4225053787231445 9.469765663146973 -10
    vertex 1.5 6 -10
  endloop
endfacet
facet normal 0 0 0
  outer loop
    vertex 5.4225053787231445 9.469765663146973 -10
    vertex 6.331816673278809 9.039692878723145 -10
    vertex 1.5 6 -10
  endloop
endfacet
facet normal 0 0 0
  outer loop
    vertex 2.5046756267547607 10.200643539428711 -10
    vertex 1.5 10.25 -10
    vertex 2.5046756267547607 10.200643539428711 8
  endloop
endfacet
facet normal 0 0 0
  outer loop
    vertex 2.5046756267547607 10.200643539428711 -10
    vertex 3.499675750732422 10.053049087524414 8
    vertex 3.499675750732422 10.053049087524414 -10
  endloop
endfacet
facet normal 0 0 0
  outer loop
    vertex 3.499675750732422 10.053049087524414 -10
    vertex 4.4754180908203125 9.808638572692871 8
    vertex 4.4754180908203125 9.808638572692871 -10
  endloop
endfacet
facet normal 0 0 0
  outer loop
    vertex 4.4754180908203125 9.808638572692871 -10
    vertex 5.4225053787231445 9.469765663146973 10
    vertex 5.4225053787231445 9.469765663146973 -10
  endloop
endfacet
facet normal 0 0 0
  outer loop
    vertex 8.715088844299316 0.7106242775917053 -10
    vertex 8.610692977905273 1.4144048690795898 -10
    vertex 8.747844696044922 7.247844696044922 -10
  endloop
endfacet
facet normal 0 0 0
  outer loop
    vertex 8.437817573547363 2.1045639514923096 -10
    vertex 8.747844696044922 7.247844696044922 -10
    vertex 8.610692977905273 1.4144048690795898 -10
  endloop
endfacet
facet normal 0 0 0
  outer loop
    vertex 7.8939290046691895 3.41762638092041 -10
    vertex 7.5281548500061035 4.027884006500244 -10
    vertex 8.002531051635742 7.923357009887695 -10
  endloop
endfacet
facet normal 0 0 0
  outer loop
    vertex 7.8939290046691895 3.41762638092041 -10
    vertex 8.747844696044922 7.247844696044922 -10
    vertex 8.198126792907715 2.7744548320770264 -10
  endloop
endfacet
facet normal 0 0 0
  outer loop
    vertex 8.437817573547363 2.1045639514923096 -10
    vertex 8.198126792907715 2.7744548320770264 -10
    vertex 8.747844696044922 7.247844696044922 -10
  endloop
endfacet
facet normal 0 0 0
  outer loop
    vertex 8.75 0 -10
    vertex 8.715088844299316 0.7106242775917053 -10
    vertex 9.423357009887695 6.502531051635742 -10
  endloop
endfacet
facet normal 0 0 0
  outer loop
    vertex 9.423357009887695 -6.502531051635742 -10
    vertex 9.423357009887695 6.502531051635742 -10
    vertex 10.022563934326172 5.694594860076904 -10
  endloop
endfacet
facet normal 0 0 0
  outer loop
    vertex 10.022563934326172 -5.694594860076904 -10
    vertex 10.022563934326172 5.694594860076904 -10
    vertex 10.539692878723145 4.831816673278809 -10
  endloop
endfacet
facet normal 0 0 0
  outer loop
    vertex 11.700643539428711 -1.0046757459640503 -10
    vertex 11.700643539428711 1.0046757459640503 -10
    vertex 11.75 0 -10
  endloop
endfacet
facet normal 0 0 0
  outer loop
    vertex 11.553049087524414 -1.9996757507324219 -10
    vertex 11.553049087524414 1.9996757507324219 -10
    vertex 11.700643539428711 1.0046757459640503 -10
  endloop
endfacet
facet normal 0 0 0
  outer loop
    vertex 10.969765663146973 -3.9225051403045654 -10
    vertex 10.969765663146973 3.9225051403045654 -10
    vertex 11.308638572692871 2.9754178524017334 -10
  endloop
endfacet
facet normal 0 0 0
  outer loop
    vertex 11.308638572692871 -2.9754178524017334 -10
    vertex 11.308638572692871 2.9754178524017334 -10
    vertex 11.553049087524414 1.9996757507324219 -10
  endloop
endfacet
facet normal 0 0 0
  outer loop
    vertex 10.539692878723145 -4.831816673278809 -10
    vertex 10.539692878723145 4.831816673278809 -10
    vertex 10.969765663146973 3.9225051403045654 -10
  endloop
endfacet
facet normal 0 0 0
  outer loop
    vertex 8.715088844299316 0.7106242775917053 -10
    vertex 8.747844696044922 7.247844696044922 -10
    vertex 9.423357009887695 6.502531051635742 -10
  endloop
endfacet
facet normal 0 0 0
  outer loop
    vertex 11.75 0 -10
    vertex 11.700643539428711 1.0046757459640503 -10
    vertex 11.75 0 10
  endloop
endfacet
facet normal 0 0 0
  outer loop
    vertex 11.700643539428711 1.0046757459640503 -10
    vertex 11.553049087524414 1.9996757507324219 -10
    vertex 11.700643539428711 1.0046757459640503 10
  endloop
endfacet
facet normal 0 0 0
  outer loop
    vertex 11.553049087524414 1.9996757507324219 -10
    vertex 11.308638572692871 2.9754178524017334 -10
    vertex 11.553049087524414 1.9996757507324219 10
  endloop
endfacet
facet normal 0 0 0
  outer loop
    vertex 11.308638572692871 2.9754178524017334 -10
    vertex 10.969765663146973 3.9225051403045654 -10
    vertex 11.308638572692871 2.9754178524017334 10
  endloop
endfacet
facet normal 0 0 0
  outer loop
    vertex 10.969765663146973 3.9225051403045654 -10
    vertex 10.539692878723145 4.831816673278809 -10
    vertex 10.969765663146973 3.9225051403045654 10
  endloop
endfacet
facet normal 0 0 0
  outer loop
    vertex 10.539692878723145 4.831816673278809 -10
    vertex 10.022563934326172 5.694594860076904 -10
    vertex 10.539692878723145 4.831816673278809 10
  endloop
endfacet
facet normal 0 0 0
  outer loop
    vertex 7.104325771331787 4.599351406097412 -10
    vertex 6.626523971557617 5.126523971557617 -10
    vertex 7.194594860076904 8.522563934326172 -10
  endloop
endfacet
facet normal 0 0 0
  outer loop
    vertex 5.5658464431762695 6 -10
    vertex 6.331816673278809 9.039692878723145 -10
    vertex 6.099351406097412 5.604325771331787 -10
  endloop
endfacet
facet normal 0 0 0
  outer loop
    vertex 6.099351406097412 5.604325771331787 -10
    vertex 7.194594860076904 8.522563934326172 -10
    vertex 6.626523971557617 5.126523971557617 -10
  endloop
endfacet
facet normal 0 0 0
  outer loop
    vertex 7.104325771331787 4.599351406097412 -10
    vertex 8.002531051635742 7.923357009887695 -10
    vertex 7.5281548500061035 4.027884006500244 -10
  endloop
endfacet
facet normal 0 0 0
  outer loop
    vertex 7.8939290046691895 3.41762638092041 -10
    vertex 8.002531051635742 7.923357009887695 -10
    vertex 8.747844696044922 7.247844696044922 -10
  endloop
endfacet
facet normal 0 0 0
  outer loop
    vertex 7.104325771331787 4.599351406097412 -10
    vertex 7.194594860076904 8.522563934326172 -10
    vertex 8.002531051635742 7.923357009887695 -10
  endloop
endfacet
facet normal 0 0 0
  outer loop
    vertex 6.099351406097412 5.604325771331787 -10
    vertex 6.331816673278809 9.039692878723145 -10
    vertex 7.194594860076904 8.522563934326172 -10
  endloop
endfacet
facet normal 0 0 0
  outer loop
    vertex 8.747844696044922 7.247844696044922 -10
    vertex 8.002531051635742 7.923357009887695 -10
    vertex 8.747844696044922 7.247844696044922 10
  endloop
endfacet
facet normal 0 0 0
  outer loop
    vertex 6.331816673278809 9.039692878723145 -10
    vertex 7.194594860076904 8.522563934326172 10
    vertex 7.194594860076904 8.522563934326172 -10
  endloop
endfacet
facet normal 0 0 0
  outer loop
    vertex 5.4225053787231445 9.469765663146973 -10
    vertex 6.331816673278809 9.039692878723145 10
    vertex 6.331816673278809 9.039692878723145 -10
  endloop
endfacet
facet normal 0 0 0
  outer loop
    vertex 7.194594860076904 8.522563934326172 -10
    vertex 8.002531051635742 7.923357009887695 10
    vertex 8.002531051635742 7.923357009887695 -10
  endloop
endfacet
facet normal 0 0 0
  outer loop
    vertex 10.022563934326172 5.694594860076904 -10
    vertex 9.423357009887695 6.502531051635742 -10
    vertex 10.022563934326172 5.694594860076904 10
  endloop
endfacet
facet normal 0 0 0
  outer loop
    vertex 8.747844696044922 7.247844696044922 -10
    vertex 9.423357009887695 6.502531051635742 10
    vertex 9.423357009887695 6.502531051635742 -10
  endloop
endfacet
facet normal 0 0 0
  outer loop
    vertex 2.5046756267547607 10.200643539428711 8
    vertex 1.5 10.25 -10
    vertex 1.5 10.25 8
  endloop
endfacet
facet normal 0 0 0
  outer loop
    vertex 2.5046756267547607 10.200643539428711 -10
    vertex 2.5046756267547607 10.200643539428711 8
    vertex 3.499675750732422 10.053049087524414 8
  endloop
endfacet
facet normal 0 0 0
  outer loop
    vertex 3.499675750732422 10.053049087524414 -10
    vertex 3.499675750732422 10.053049087524414 8
    vertex 4.4754180908203125 9.808638572692871 8
  endloop
endfacet
facet normal 0 0 0
  outer loop
    vertex 4.4754180908203125 9.808638572692871 -10
    vertex 4.4754180908203125 9.808638572692871 8
    vertex 4.5 9.799842834472656 8
  endloop
endfacet
facet normal 0 0 0
  outer loop
    vertex 4.4754180908203125 9.808638572692871 -10
    vertex 4.5 9.799842834472656 8
    vertex 5.4225053787231445 9.469765663146973 10
  endloop
endfacet
facet normal 0 0 0
  outer loop
    vertex 5.4225053787231445 9.469765663146973 -10
    vertex 5.4225053787231445 9.469765663146973 10
    vertex 6.331816673278809 9.039692878723145 10
  endloop
endfacet
facet normal 0 0 0
  outer loop
    vertex 4.5 6 10
    vertex 5.5658464431762695 6 10
    vertex 5.4225053787231445 9.469765663146973 10
  endloop
endfacet
facet normal 0 0 0
  outer loop
    vertex 4.5 6 10
    vertex 5.4225053787231445 9.469765663146973 10
    vertex 4.5 9.799842834472656 10
  endloop
endfacet
facet normal 0 0 0
  outer loop
    vertex 5.5658464431762695 6 10
    vertex 6.331816673278809 9.039692878723145 10
    vertex 5.4225053787231445 9.469765663146973 10
  endloop
endfacet
facet normal 0 0 0
  outer loop
    vertex 4.5 9.799842834472656 8
    vertex 4.5 9.799842834472656 10
    vertex 5.4225053787231445 9.469765663146973 10
  endloop
endfacet
facet normal 0 0 0
  outer loop
    vertex 11.700643539428711 1.0046757459640503 -10
    vertex 11.700643539428711 1.0046757459640503 10
    vertex 11.75 0 10
  endloop
endfacet
facet normal 0 0 0
  outer loop
    vertex 11.553049087524414 1.9996757507324219 -10
    vertex 11.553049087524414 1.9996757507324219 10
    vertex 11.700643539428711 1.0046757459640503 10
  endloop
endfacet
facet normal 0 0 0
  outer loop
    vertex 11.308638572692871 2.9754178524017334 -10
    vertex 11.308638572692871 2.9754178524017334 10
    vertex 11.553049087524414 1.9996757507324219 10
  endloop
endfacet
facet normal 0 0 0
  outer loop
    vertex 10.969765663146973 3.9225051403045654 -10
    vertex 10.969765663146973 3.9225051403045654 10
    vertex 11.308638572692871 2.9754178524017334 10
  endloop
endfacet
facet normal 0 0 0
  outer loop
    vertex 10.539692878723145 4.831816673278809 -10
    vertex 10.539692878723145 4.831816673278809 10
    vertex 10.969765663146973 3.9225051403045654 10
  endloop
endfacet
facet normal 0 0 0
  outer loop
    vertex 8.75 0 10
    vertex 8.747844696044922 7.247844696044922 10
    vertex 8.715088844299316 0.7106242775917053 10
  endloop
endfacet
facet normal 0 0 0
  outer loop
    vertex 8.715088844299316 0.7106242775917053 10
    vertex 8.747844696044922 7.247844696044922 10
    vertex 8.610692977905273 1.4144048690795898 10
  endloop
endfacet
facet normal 0 0 0
  outer loop
    vertex 8.437817573547363 2.1045639514923096 10
    vertex 8.610692977905273 1.4144048690795898 10
    vertex 8.747844696044922 7.247844696044922 10
  endloop
endfacet
facet normal 0 0 0
  outer loop
    vertex 7.8939290046691895 3.41762638092041 10
    vertex 8.198126792907715 2.7744548320770264 10
    vertex 8.002531051635742 7.923357009887695 10
  endloop
endfacet
facet normal 0 0 0
  outer loop
    vertex 7.8939290046691895 3.41762638092041 10
    vertex 8.002531051635742 7.923357009887695 10
    vertex 7.5281548500061035 4.027884006500244 10
  endloop
endfacet
facet normal 0 0 0
  outer loop
    vertex 8.437817573547363 2.1045639514923096 10
    vertex 8.747844696044922 7.247844696044922 10
    vertex 8.198126792907715 2.7744548320770264 10
  endloop
endfacet
facet normal 0 0 0
  outer loop
    vertex 8.715088844299316 -0.7106242775917053 10
    vertex 9.423357009887695 6.502531051635742 10
    vertex 8.75 0 10
  endloop
endfacet
facet normal 0 0 0
  outer loop
    vertex 9.423357009887695 -6.502531051635742 10
    vertex 10.022563934326172 5.694594860076904 10
    vertex 9.423357009887695 6.502531051635742 10
  endloop
endfacet
facet normal 0 0 0
  outer loop
    vertex 10.022563934326172 -5.694594860076904 10
    vertex 10.539692878723145 4.831816673278809 10
    vertex 10.022563934326172 5.694594860076904 10
  endloop
endfacet
facet normal 0 0 0
  outer loop
    vertex 11.700643539428711 -1.0046757459640503 10
    vertex 11.75 0 10
    vertex 11.700643539428711 1.0046757459640503 10
  endloop
endfacet
facet normal 0 0 0
  outer loop
    vertex 11.553049087524414 -1.9996757507324219 10
    vertex 11.700643539428711 1.0046757459640503 10
    vertex 11.553049087524414 1.9996757507324219 10
  endloop
endfacet
facet normal 0 0 0
  outer loop
    vertex 10.969765663146973 -3.9225051403045654 10
    vertex 11.308638572692871 2.9754178524017334 10
    vertex 10.969765663146973 3.9225051403045654 10
  endloop
endfacet
facet normal 0 0 0
  outer loop
    vertex 11.308638572692871 -2.9754178524017334 10
    vertex 11.553049087524414 1.9996757507324219 10
    vertex 11.308638572692871 2.9754178524017334 10
  endloop
endfacet
facet normal 0 0 0
  outer loop
    vertex 10.539692878723145 -4.831816673278809 10
    vertex 10.969765663146973 3.9225051403045654 10
    vertex 10.539692878723145 4.831816673278809 10
  endloop
endfacet
facet normal 0 0 0
  outer loop
    vertex 8.75 0 10
    vertex 9.423357009887695 6.502531051635742 10
    vertex 8.747844696044922 7.247844696044922 10
  endloop
endfacet
facet normal 0 0 0
  outer loop
    vertex 6.331816673278809 9.039692878723145 -10
    vertex 6.331816673278809 9.039692878723145 10
    vertex 7.194594860076904 8.522563934326172 10
  endloop
endfacet
facet normal 0 0 0
  outer loop
    vertex 7.194594860076904 8.522563934326172 -10
    vertex 7.194594860076904 8.522563934326172 10
    vertex 8.002531051635742 7.923357009887695 10
  endloop
endfacet
facet normal 0 0 0
  outer loop
    vertex 8.002531051635742 7.923357009887695 -10
    vertex 8.002531051635742 7.923357009887695 10
    vertex 8.747844696044922 7.247844696044922 10
  endloop
endfacet
facet normal 0 0 0
  outer loop
    vertex 10.022563934326172 5.694594860076904 -10
    vertex 10.022563934326172 5.694594860076904 10
    vertex 10.539692878723145 4.831816673278809 10
  endloop
endfacet
facet normal 0 0 0
  outer loop
    vertex 9.423357009887695 6.502531051635742 -10
    vertex 9.423357009887695 6.502531051635742 10
    vertex 10.022563934326172 5.694594860076904 10
  endloop
endfacet
facet normal 0 0 0
  outer loop
    vertex 8.747844696044922 7.247844696044922 -10
    vertex 8.747844696044922 7.247844696044922 10
    vertex 9.423357009887695 6.502531051635742 10
  endloop
endfacet
facet normal 0 0 0
  outer loop
    vertex 7.104325771331787 4.599351406097412 10
    vertex 7.5281548500061035 4.027884006500244 10
    vertex 7.194594860076904 8.522563934326172 10
  endloop
endfacet
facet normal 0 0 0
  outer loop
    vertex 7.104325771331787 4.599351406097412 10
    vertex 7.194594860076904 8.522563934326172 10
    vertex 6.626523971557617 5.126523971557617 10
  endloop
endfacet
facet normal 0 0 0
  outer loop
    vertex 5.5658464431762695 6 10
    vertex 6.099351406097412 5.604325771331787 10
    vertex 6.331816673278809 9.039692878723145 10
  endloop
endfacet
facet normal 0 0 0
  outer loop
    vertex 6.099351406097412 5.604325771331787 10
    vertex 6.626523971557617 5.126523971557617 10
    vertex 6.331816673278809 9.039692878723145 10
  endloop
endfacet
facet normal 0 0 0
  outer loop
    vertex 6.331816673278809 9.039692878723145 10
    vertex 6.626523971557617 5.126523971557617 10
    vertex 7.194594860076904 8.522563934326172 10
  endloop
endfacet
facet normal 0 0 0
  outer loop
    vertex 8.198126792907715 2.7744548320770264 10
    vertex 8.747844696044922 7.247844696044922 10
    vertex 8.002531051635742 7.923357009887695 10
  endloop
endfacet
facet normal 0 0 0
  outer loop
    vertex 7.5281548500061035 4.027884006500244 10
    vertex 8.002531051635742 7.923357009887695 10
    vertex 7.194594860076904 8.522563934326172 10
  endloop
endfacet
facet normal 0 0 0
  outer loop
    vertex -7.194594860076904 -8.522563934326172 -10
    vertex -6.099351406097412 -5.604325771331787 -10
    vertex -6.331816673278809 -9.039692878723145 -10
  endloop
endfacet
facet normal 0 0 0
  outer loop
    vertex -8.002531051635742 -7.923357009887695 -10
    vertex -7.104325771331787 -4.599351406097412 -10
    vertex -7.194594860076904 -8.522563934326172 -10
  endloop
endfacet
facet normal 0 0 0
  outer loop
    vertex -8.002531051635742 -7.923357009887695 -10
    vertex -8.747844696044922 -7.247844696044922 -10
    vertex -7.8939290046691895 -3.41762638092041 -10
  endloop
endfacet
facet normal 0 0 0
  outer loop
    vertex -8.002531051635742 -7.923357009887695 -10
    vertex -7.5281548500061035 -4.027884006500244 -10
    vertex -7.104325771331787 -4.599351406097412 -10
  endloop
endfacet
facet normal 0 0 0
  outer loop
    vertex -7.194594860076904 -8.522563934326172 -10
    vertex -6.626523971557617 -5.126523971557617 -10
    vertex -6.099351406097412 -5.604325771331787 -10
  endloop
endfacet
facet normal 0 0 0
  outer loop
    vertex -6.331816673278809 -9.039692878723145 -10
    vertex -6.099351406097412 -5.604325771331787 -10
    vertex -5.5658464431762695 -6 -10
  endloop
endfacet
facet normal 0 0 0
  outer loop
    vertex -7.194594860076904 -8.522563934326172 -10
    vertex -7.104325771331787 -4.599351406097412 -10
    vertex -6.626523971557617 -5.126523971557617 -10
  endloop
endfacet
facet normal 0 0 0
  outer loop
    vertex -9.423357009887695 -6.502531051635742 -10
    vertex -8.747844696044922 -7.247844696044922 -10
    vertex -9.423357009887695 -6.502531051635742 10
  endloop
endfacet
facet normal 0 0 0
  outer loop
    vertex -9.423357009887695 -6.502531051635742 -10
    vertex -10.022563934326172 -5.694594860076904 10
    vertex -10.022563934326172 -5.694594860076904 -10
  endloop
endfacet
facet normal 0 0 0
  outer loop
    vertex -8.002531051635742 -7.923357009887695 -10
    vertex -7.194594860076904 -8.522563934326172 -10
    vertex -8.002531051635742 -7.923357009887695 10
  endloop
endfacet
facet normal 0 0 0
  outer loop
    vertex -6.331816673278809 -9.039692878723145 -10
    vertex -5.4225053787231445 -9.469765663146973 -10
    vertex -6.331816673278809 -9.039692878723145 10
  endloop
endfacet
facet normal 0 0 0
  outer loop
    vertex -7.194594860076904 -8.522563934326172 -10
    vertex -6.331816673278809 -9.039692878723145 -10
    vertex -7.194594860076904 -8.522563934326172 10
  endloop
endfacet
facet normal 0 0 0
  outer loop
    vertex -8.002531051635742 -7.923357009887695 -10
    vertex -8.747844696044922 -7.247844696044922 10
    vertex -8.747844696044922 -7.247844696044922 -10
  endloop
endfacet
facet normal 0 0 0
  outer loop
    vertex -9.423357009887695 -6.502531051635742 -10
    vertex -8.715088844299316 -0.7106242775917053 -10
    vertex -8.747844696044922 -7.247844696044922 -10
  endloop
endfacet
facet normal 0 0 0
  outer loop
    vertex -10.539692878723145 -4.831816673278809 -10
    vertex -10.969765663146973 -3.9225051403045654 -10
    vertex -10.539692878723145 4.831816673278809 -10
  endloop
endfacet
facet normal 0 0 0
  outer loop
    vertex -11.308638572692871 -2.9754178524017334 -10
    vertex -11.553049087524414 -1.9996757507324219 -10
    vertex -11.308638572692871 2.9754178524017334 -10
  endloop
endfacet
facet normal 0 0 0
  outer loop
    vertex -10.969765663146973 -3.9225051403045654 -10
    vertex -11.308638572692871 -2.9754178524017334 -10
    vertex -10.969765663146973 3.9225051403045654 -10
  endloop
endfacet
facet normal 0 0 0
  outer loop
    vertex -11.553049087524414 -1.9996757507324219 -10
    vertex -11.700643539428711 -1.0046757459640503 -10
    vertex -11.553049087524414 1.9996757507324219 -10
  endloop
endfacet
facet normal 0 0 0
  outer loop
    vertex -10.022563934326172 -5.694594860076904 -10
    vertex -10.539692878723145 -4.831816673278809 -10
    vertex -10.022563934326172 5.694594860076904 -10
  endloop
endfacet
facet normal 0 0 0
  outer loop
    vertex -9.423357009887695 -6.502531051635742 -10
    vertex -10.022563934326172 -5.694594860076904 -10
    vertex -9.423357009887695 6.502531051635742 -10
  endloop
endfacet
facet normal 0 0 0
  outer loop
    vertex -9.423357009887695 -6.502531051635742 -10
    vertex -8.75 0 -10
    vertex -8.715088844299316 -0.7106242775917053 -10
  endloop
endfacet
facet normal 0 0 0
  outer loop
    vertex -8.747844696044922 -7.247844696044922 -10
    vertex -8.437817573547363 -2.1045639514923096 -10
    vertex -8.198126792907715 -2.7744548320770264 -10
  endloop
endfacet
facet normal 0 0 0
  outer loop
    vertex -8.747844696044922 -7.247844696044922 -10
    vertex -8.198126792907715 -2.7744548320770264 -10
    vertex -7.8939290046691895 -3.41762638092041 -10
  endloop
endfacet
facet normal 0 0 0
  outer loop
    vertex -8.002531051635742 -7.923357009887695 -10
    vertex -7.8939290046691895 -3.41762638092041 -10
    vertex -7.5281548500061035 -4.027884006500244 -10
  endloop
endfacet
facet normal 0 0 0
  outer loop
    vertex -8.747844696044922 -7.247844696044922 -10
    vertex -8.610692977905273 -1.4144048690795898 -10
    vertex -8.437817573547363 -2.1045639514923096 -10
  endloop
endfacet
facet normal 0 0 0
  outer loop
    vertex -8.747844696044922 -7.247844696044922 -10
    vertex -8.715088844299316 -0.7106242775917053 -10
    vertex -8.610692977905273 -1.4144048690795898 -10
  endloop
endfacet
facet normal 0 0 0
  outer loop
    vertex -10.022563934326172 -5.694594860076904 -10
    vertex -10.539692878723145 -4.831816673278809 10
    vertex -10.539692878723145 -4.831816673278809 -10
  endloop
endfacet
facet normal 0 0 0
  outer loop
    vertex -10.539692878723145 -4.831816673278809 -10
    vertex -10.969765663146973 -3.9225051403045654 10
    vertex -10.969765663146973 -3.9225051403045654 -10
  endloop
endfacet
facet normal 0 0 0
  outer loop
    vertex -10.969765663146973 -3.9225051403045654 -10
    vertex -11.308638572692871 -2.9754178524017334 10
    vertex -11.308638572692871 -2.9754178524017334 -10
  endloop
endfacet
facet normal 0 0 0
  outer loop
    vertex -11.308638572692871 -2.9754178524017334 -10
    vertex -11.553049087524414 -1.9996757507324219 10
    vertex -11.553049087524414 -1.9996757507324219 -10
  endloop
endfacet
facet normal 0 0 0
  outer loop
    vertex -11.553049087524414 -1.9996757507324219 -10
    vertex -11.700643539428711 -1.0046757459640503 10
    vertex -11.700643539428711 -1.0046757459640503 -10
  endloop
endfacet
facet normal 0 0 0
  outer loop
    vertex -11.700643539428711 -1.0046757459640503 -10
    vertex -11.75 0 10
    vertex -11.75 0 -10
  endloop
endfacet
facet normal 0 0 0
  outer loop
    vertex -6.331816673278809 -9.039692878723145 -10
    vertex -1.5 -6 -10
    vertex -5.4225053787231445 -9.469765663146973 -10
  endloop
endfacet
facet normal 0 0 0
  outer loop
    vertex -5.4225053787231445 -9.469765663146973 -10
    vertex -1.5 -6 -10
    vertex -4.4754180908203125 -9.808638572692871 -10
  endloop
endfacet
facet normal 0 0 0
  outer loop
    vertex -4.4754180908203125 -9.808638572692871 -10
    vertex -1.5 -6 -10
    vertex -3.499675750732422 -10.053049087524414 -10
  endloop
endfacet
facet normal 0 0 0
  outer loop
    vertex -6.331816673278809 -9.039692878723145 -10
    vertex -5.5658464431762695 -6 -10
    vertex -1.5 -6 -10
  endloop
endfacet
facet normal 0 0 0
  outer loop
    vertex -3.499675750732422 -10.053049087524414 -10
    vertex -1.5 -6 -10
    vertex -2.5046756267547607 -10.200643539428711 -10
  endloop
endfacet
facet normal 0 0 0
  outer loop
    vertex -2.5046756267547607 -10.200643539428711 -10
    vertex -1.5 -6 -10
    vertex -1.5 -10.25 -10
  endloop
endfacet
facet normal 0 0 0
  outer loop
    vertex -5.4225053787231445 -9.469765663146973 -10
    vertex -4.4754180908203125 -9.808638572692871 -10
    vertex -5.4225053787231445 -9.469765663146973 10
  endloop
endfacet
facet normal 0 0 0
  outer loop
    vertex -4.4754180908203125 -9.808638572692871 -10
    vertex -3.499675750732422 -10.053049087524414 -10
    vertex -4.4754180908203125 -9.808638572692871 8
  endloop
endfacet
facet normal 0 0 0
  outer loop
    vertex -3.499675750732422 -10.053049087524414 -10
    vertex -2.5046756267547607 -10.200643539428711 -10
    vertex -3.499675750732422 -10.053049087524414 8
  endloop
endfacet
facet normal 0 0 0
  outer loop
    vertex -2.5046756267547607 -10.200643539428711 -10
    vertex -1.5 -10.25 -10
    vertex -2.5046756267547607 -10.200643539428711 8
  endloop
endfacet
facet normal 0 0 0
  outer loop
    vertex -8.747844696044922 -7.247844696044922 -10
    vertex -8.747844696044922 -7.247844696044922 10
    vertex -9.423357009887695 -6.502531051635742 10
  endloop
endfacet
facet normal 0 0 0
  outer loop
    vertex -9.423357009887695 -6.502531051635742 -10
    vertex -9.423357009887695 -6.502531051635742 10
    vertex -10.022563934326172 -5.694594860076904 10
  endloop
endfacet
facet normal 0 0 0
  outer loop
    vertex -10.022563934326172 -5.694594860076904 -10
    vertex -10.022563934326172 -5.694594860076904 10
    vertex -10.539692878723145 -4.831816673278809 10
  endloop
endfacet
facet normal 0 0 0
  outer loop
    vertex -8.002531051635742 -7.923357009887695 -10
    vertex -8.002531051635742 -7.923357009887695 10
    vertex -8.747844696044922 -7.247844696044922 10
  endloop
endfacet
facet normal 0 0 0
  outer loop
    vertex -7.194594860076904 -8.522563934326172 -10
    vertex -7.194594860076904 -8.522563934326172 10
    vertex -8.002531051635742 -7.923357009887695 10
  endloop
endfacet
facet normal 0 0 0
  outer loop
    vertex -6.331816673278809 -9.039692878723145 -10
    vertex -6.331816673278809 -9.039692878723145 10
    vertex -7.194594860076904 -8.522563934326172 10
  endloop
endfacet
facet normal 0 0 0
  outer loop
    vertex -8.002531051635742 -7.923357009887695 10
    vertex -7.194594860076904 -8.522563934326172 10
    vertex -7.5281548500061035 -4.027884006500244 10
  endloop
endfacet
facet normal 0 0 0
  outer loop
    vertex -8.002531051635742 -7.923357009887695 10
    vertex -8.198126792907715 -2.7744548320770264 10
    vertex -8.747844696044922 -7.247844696044922 10
  endloop
endfacet
facet normal 0 0 0
  outer loop
    vertex -7.194594860076904 -8.522563934326172 10
    vertex -6.331816673278809 -9.039692878723145 10
    vertex -6.626523971557617 -5.126523971557617 10
  endloop
endfacet
facet normal 0 0 0
  outer loop
    vertex -6.626523971557617 -5.126523971557617 10
    vertex -6.331816673278809 -9.039692878723145 10
    vertex -6.099351406097412 -5.604325771331787 10
  endloop
endfacet
facet normal 0 0 0
  outer loop
    vertex -6.331816673278809 -9.039692878723145 10
    vertex -5.5658464431762695 -6 10
    vertex -6.099351406097412 -5.604325771331787 10
  endloop
endfacet
facet normal 0 0 0
  outer loop
    vertex -7.194594860076904 -8.522563934326172 10
    vertex -6.626523971557617 -5.126523971557617 10
    vertex -7.104325771331787 -4.599351406097412 10
  endloop
endfacet
facet normal 0 0 0
  outer loop
    vertex -7.194594860076904 -8.522563934326172 10
    vertex -7.104325771331787 -4.599351406097412 10
    vertex -7.5281548500061035 -4.027884006500244 10
  endloop
endfacet
facet normal 0 0 0
  outer loop
    vertex -10.539692878723145 -4.831816673278809 -10
    vertex -10.539692878723145 -4.831816673278809 10
    vertex -10.969765663146973 -3.9225051403045654 10
  endloop
endfacet
facet normal 0 0 0
  outer loop
    vertex -10.969765663146973 -3.9225051403045654 -10
    vertex -10.969765663146973 -3.9225051403045654 10
    vertex -11.308638572692871 -2.9754178524017334 10
  endloop
endfacet
facet normal 0 0 0
  outer loop
    vertex -11.308638572692871 -2.9754178524017334 -10
    vertex -11.308638572692871 -2.9754178524017334 10
    vertex -11.553049087524414 -1.9996757507324219 10
  endloop
endfacet
facet normal 0 0 0
  outer loop
    vertex -11.553049087524414 -1.9996757507324219 -10
    vertex -11.553049087524414 -1.9996757507324219 10
    vertex -11.700643539428711 -1.0046757459640503 10
  endloop
endfacet
facet normal 0 0 0
  outer loop
    vertex -11.700643539428711 -1.0046757459640503 -10
    vertex -11.700643539428711 -1.0046757459640503 10
    vertex -11.75 0 10
  endloop
endfacet
facet normal 0 0 0
  outer loop
    vertex -9.423357009887695 -6.502531051635742 10
    vertex -8.747844696044922 -7.247844696044922 10
    vertex -8.75 0 10
  endloop
endfacet
facet normal 0 0 0
  outer loop
    vertex -10.539692878723145 -4.831816673278809 10
    vertex -10.539692878723145 4.831816673278809 10
    vertex -10.969765663146973 -3.9225051403045654 10
  endloop
endfacet
facet normal 0 0 0
  outer loop
    vertex -11.308638572692871 -2.9754178524017334 10
    vertex -11.308638572692871 2.9754178524017334 10
    vertex -11.553049087524414 -1.9996757507324219 10
  endloop
endfacet
facet normal 0 0 0
  outer loop
    vertex -10.969765663146973 -3.9225051403045654 10
    vertex -10.969765663146973 3.9225051403045654 10
    vertex -11.308638572692871 -2.9754178524017334 10
  endloop
endfacet
facet normal 0 0 0
  outer loop
    vertex -11.553049087524414 -1.9996757507324219 10
    vertex -11.553049087524414 1.9996757507324219 10
    vertex -11.700643539428711 -1.0046757459640503 10
  endloop
endfacet
facet normal 0 0 0
  outer loop
    vertex -10.022563934326172 -5.694594860076904 10
    vertex -10.022563934326172 5.694594860076904 10
    vertex -10.539692878723145 -4.831816673278809 10
  endloop
endfacet
facet normal 0 0 0
  outer loop
    vertex -9.423357009887695 -6.502531051635742 10
    vertex -9.423357009887695 6.502531051635742 10
    vertex -10.022563934326172 -5.694594860076904 10
  endloop
endfacet
facet normal 0 0 0
  outer loop
    vertex -9.423357009887695 -6.502531051635742 10
    vertex -8.75 0 10
    vertex -8.715088844299316 0.7106242775917053 10
  endloop
endfacet
facet normal 0 0 0
  outer loop
    vertex -8.747844696044922 -7.247844696044922 10
    vertex -8.198126792907715 -2.7744548320770264 10
    vertex -8.437817573547363 -2.1045639514923096 10
  endloop
endfacet
facet normal 0 0 0
  outer loop
    vertex -8.002531051635742 -7.923357009887695 10
    vertex -7.5281548500061035 -4.027884006500244 10
    vertex -7.8939290046691895 -3.41762638092041 10
  endloop
endfacet
facet normal 0 0 0
  outer loop
    vertex -8.002531051635742 -7.923357009887695 10
    vertex -7.8939290046691895 -3.41762638092041 10
    vertex -8.198126792907715 -2.7744548320770264 10
  endloop
endfacet
facet normal 0 0 0
  outer loop
    vertex -8.747844696044922 -7.247844696044922 10
    vertex -8.437817573547363 -2.1045639514923096 10
    vertex -8.610692977905273 -1.4144048690795898 10
  endloop
endfacet
facet normal 0 0 0
  outer loop
    vertex -8.747844696044922 -7.247844696044922 10
    vertex -8.610692977905273 -1.4144048690795898 10
    vertex -8.715088844299316 -0.7106242775917053 10
  endloop
endfacet
facet normal 0 0 0
  outer loop
    vertex -8.747844696044922 -7.247844696044922 10
    vertex -8.715088844299316 -0.7106242775917053 10
    vertex -8.75 0 10
  endloop
endfacet
facet normal 0 0 0
  outer loop
    vertex -4.4754180908203125 -9.808638572692871 -10
    vertex -4.4754180908203125 -9.808638572692871 8
    vertex -4.5 -9.799842834472656 8
  endloop
endfacet
facet normal 0 0 0
  outer loop
    vertex -3.499675750732422 -10.053049087524414 -10
    vertex -3.499675750732422 -10.053049087524414 8
    vertex -4.4754180908203125 -9.808638572692871 8
  endloop
endfacet
facet normal 0 0 0
  outer loop
    vertex -5.4225053787231445 -9.469765663146973 -10
    vertex -5.4225053787231445 -9.469765663146973 10
    vertex -6.331816673278809 -9.039692878723145 10
  endloop
endfacet
facet normal 0 0 0
  outer loop
    vertex -4.4754180908203125 -9.808638572692871 -10
    vertex -4.5 -9.799842834472656 8
    vertex -5.4225053787231445 -9.469765663146973 10
  endloop
endfacet
facet normal 0 0 0
  outer loop
    vertex -2.5046756267547607 -10.200643539428711 -10
    vertex -2.5046756267547607 -10.200643539428711 8
    vertex -3.499675750732422 -10.053049087524414 8
  endloop
endfacet
facet normal 0 0 0
  outer loop
    vertex -2.5046756267547607 -10.200643539428711 8
    vertex -1.5 -10.25 -10
    vertex -1.5 -10.25 8
  endloop
endfacet
facet normal 0 0 0
  outer loop
    vertex -5.4225053787231445 -9.469765663146973 10
    vertex -4.5 -9.799842834472656 8
    vertex -4.5 -9.799842834472656 10
  endloop
endfacet
facet normal 0 0 0
  outer loop
    vertex -6.331816673278809 -9.039692878723145 10
    vertex -5.4225053787231445 -9.469765663146973 10
    vertex -5.5658464431762695 -6 10
  endloop
endfacet
facet normal 0 0 0
  outer loop
    vertex -5.4225053787231445 -9.469765663146973 10
    vertex -4.5 -9.799842834472656 10
    vertex -4.5 -6 10
  endloop
endfacet
facet normal 0 0 0
  outer loop
    vertex -5.4225053787231445 -9.469765663146973 10
    vertex -4.5 -6 10
    vertex -5.5658464431762695 -6 10
  endloop
endfacet
facet normal 0 0 0
  outer loop
    vertex -11.700643539428711 -1.0046757459640503 -10
    vertex -11.75 0 -10
    vertex -11.700643539428711 1.0046757459640503 -10
  endloop
endfacet
facet normal 0 0 0
  outer loop
    vertex -11.700643539428711 -1.0046757459640503 -10
    vertex -11.700643539428711 1.0046757459640503 -10
    vertex -11.553049087524414 1.9996757507324219 -10
  endloop
endfacet
facet normal 0 0 0
  outer loop
    vertex -11.553049087524414 -1.9996757507324219 -10
    vertex -11.553049087524414 1.9996757507324219 -10
    vertex -11.308638572692871 2.9754178524017334 -10
  endloop
endfacet
facet normal 0 0 0
  outer loop
    vertex -11.308638572692871 -2.9754178524017334 -10
    vertex -11.308638572692871 2.9754178524017334 -10
    vertex -10.969765663146973 3.9225051403045654 -10
  endloop
endfacet
facet normal 0 0 0
  outer loop
    vertex -10.969765663146973 -3.9225051403045654 -10
    vertex -10.969765663146973 3.9225051403045654 -10
    vertex -10.539692878723145 4.831816673278809 -10
  endloop
endfacet
facet normal 0 0 0
  outer loop
    vertex -10.539692878723145 -4.831816673278809 -10
    vertex -10.539692878723145 4.831816673278809 -10
    vertex -10.022563934326172 5.694594860076904 -10
  endloop
endfacet
facet normal 0 0 0
  outer loop
    vertex -9.423357009887695 -6.502531051635742 -10
    vertex -8.747844696044922 7.247844696044922 -10
    vertex -8.75 0 -10
  endloop
endfacet
facet normal 0 0 0
  outer loop
    vertex -10.022563934326172 -5.694594860076904 -10
    vertex -10.022563934326172 5.694594860076904 -10
    vertex -9.423357009887695 6.502531051635742 -10
  endloop
endfacet
facet normal 0 0 0
  outer loop
    vertex -9.423357009887695 -6.502531051635742 -10
    vertex -9.423357009887695 6.502531051635742 -10
    vertex -8.747844696044922 7.247844696044922 -10
  endloop
endfacet
facet normal 0 0 0
  outer loop
    vertex -8.75 0 -10
    vertex -8.747844696044922 7.247844696044922 -10
    vertex -8.715088844299316 0.7106242775917053 -10
  endloop
endfacet
facet normal 0 0 0
  outer loop
    vertex -8.715088844299316 0.7106242775917053 -10
    vertex -8.747844696044922 7.247844696044922 -10
    vertex -8.610692977905273 1.4144048690795898 -10
  endloop
endfacet
facet normal 0 0 0
  outer loop
    vertex -8.610692977905273 1.4144048690795898 -10
    vertex -8.747844696044922 7.247844696044922 -10
    vertex -8.437817573547363 2.1045639514923096 -10
  endloop
endfacet
facet normal 0 0 0
  outer loop
    vertex -8.437817573547363 2.1045639514923096 -10
    vertex -8.002531051635742 7.923357009887695 -10
    vertex -8.198126792907715 2.7744548320770264 -10
  endloop
endfacet
facet normal 0 0 0
  outer loop
    vertex -8.198126792907715 2.7744548320770264 -10
    vertex -8.002531051635742 7.923357009887695 -10
    vertex -7.8939290046691895 3.41762638092041 -10
  endloop
endfacet
facet normal 0 0 0
  outer loop
    vertex -7.8939290046691895 3.41762638092041 -10
    vertex -8.002531051635742 7.923357009887695 -10
    vertex -7.5281548500061035 4.027884006500244 -10
  endloop
endfacet
facet normal 0 0 0
  outer loop
    vertex -11.75 0 -10
    vertex -11.700643539428711 1.0046757459640503 10
    vertex -11.700643539428711 1.0046757459640503 -10
  endloop
endfacet
facet normal 0 0 0
  outer loop
    vertex -11.700643539428711 1.0046757459640503 -10
    vertex -11.553049087524414 1.9996757507324219 10
    vertex -11.553049087524414 1.9996757507324219 -10
  endloop
endfacet
facet normal 0 0 0
  outer loop
    vertex -11.553049087524414 1.9996757507324219 -10
    vertex -11.308638572692871 2.9754178524017334 10
    vertex -11.308638572692871 2.9754178524017334 -10
  endloop
endfacet
facet normal 0 0 0
  outer loop
    vertex -11.308638572692871 2.9754178524017334 -10
    vertex -10.969765663146973 3.9225051403045654 10
    vertex -10.969765663146973 3.9225051403045654 -10
  endloop
endfacet
facet normal 0 0 0
  outer loop
    vertex -10.969765663146973 3.9225051403045654 -10
    vertex -10.539692878723145 4.831816673278809 10
    vertex -10.539692878723145 4.831816673278809 -10
  endloop
endfacet
facet normal 0 0 0
  outer loop
    vertex -8.437817573547363 2.1045639514923096 -10
    vertex -8.747844696044922 7.247844696044922 -10
    vertex -8.002531051635742 7.923357009887695 -10
  endloop
endfacet
facet normal 0 0 0
  outer loop
    vertex -7.5281548500061035 4.027884006500244 -10
    vertex -8.002531051635742 7.923357009887695 -10
    vertex -7.194594860076904 8.522563934326172 -10
  endloop
endfacet
facet normal 0 0 0
  outer loop
    vertex -7.5281548500061035 4.027884006500244 -10
    vertex -7.194594860076904 8.522563934326172 -10
    vertex -7.104325771331787 4.599351406097412 -10
  endloop
endfacet
facet normal 0 0 0
  outer loop
    vertex -7.104325771331787 4.599351406097412 -10
    vertex -7.194594860076904 8.522563934326172 -10
    vertex -6.626523971557617 5.126523971557617 -10
  endloop
endfacet
facet normal 0 0 0
  outer loop
    vertex -6.626523971557617 5.126523971557617 -10
    vertex -7.194594860076904 8.522563934326172 -10
    vertex -6.331816673278809 9.039692878723145 -10
  endloop
endfacet
facet normal 0 0 0
  outer loop
    vertex -6.626523971557617 5.126523971557617 -10
    vertex -6.331816673278809 9.039692878723145 -10
    vertex -6.099351406097412 5.604325771331787 -10
  endloop
endfacet
facet normal 0 0 0
  outer loop
    vertex -6.099351406097412 5.604325771331787 -10
    vertex -6.331816673278809 9.039692878723145 -10
    vertex -5.4225053787231445 9.469765663146973 -10
  endloop
endfacet
facet normal 0 0 0
  outer loop
    vertex -10.539692878723145 4.831816673278809 -10
    vertex -10.022563934326172 5.694594860076904 10
    vertex -10.022563934326172 5.694594860076904 -10
  endloop
endfacet
facet normal 0 0 0
  outer loop
    vertex -10.022563934326172 5.694594860076904 -10
    vertex -9.423357009887695 6.502531051635742 10
    vertex -9.423357009887695 6.502531051635742 -10
  endloop
endfacet
facet normal 0 0 0
  outer loop
    vertex -9.423357009887695 6.502531051635742 -10
    vertex -8.747844696044922 7.247844696044922 10
    vertex -8.747844696044922 7.247844696044922 -10
  endloop
endfacet
facet normal 0 0 0
  outer loop
    vertex -8.747844696044922 7.247844696044922 -10
    vertex -8.002531051635742 7.923357009887695 10
    vertex -8.002531051635742 7.923357009887695 -10
  endloop
endfacet
facet normal 0 0 0
  outer loop
    vertex -8.002531051635742 7.923357009887695 -10
    vertex -7.194594860076904 8.522563934326172 10
    vertex -7.194594860076904 8.522563934326172 -10
  endloop
endfacet
facet normal 0 0 0
  outer loop
    vertex -7.194594860076904 8.522563934326172 -10
    vertex -6.331816673278809 9.039692878723145 10
    vertex -6.331816673278809 9.039692878723145 -10
  endloop
endfacet
facet normal 0 0 0
  outer loop
    vertex -6.099351406097412 5.604325771331787 -10
    vertex -5.4225053787231445 9.469765663146973 -10
    vertex -5.5658464431762695 6 -10
  endloop
endfacet
facet normal 0 0 0
  outer loop
    vertex -5.5658464431762695 6 -10
    vertex -5.4225053787231445 9.469765663146973 -10
    vertex -4.4754180908203125 9.808638572692871 -10
  endloop
endfacet
facet normal 0 0 0
  outer loop
    vertex -5.5658464431762695 6 -10
    vertex -4.4754180908203125 9.808638572692871 -10
    vertex -3.499675750732422 10.053049087524414 -10
  endloop
endfacet
facet normal 0 0 0
  outer loop
    vertex -5.5658464431762695 6 -10
    vertex -3.499675750732422 10.053049087524414 -10
    vertex -2.5046756267547607 10.200643539428711 -10
  endloop
endfacet
facet normal 0 0 0
  outer loop
    vertex -5.5658464431762695 6 -10
    vertex -2.5046756267547607 10.200643539428711 -10
    vertex -1.5 10.25 -10
  endloop
endfacet
facet normal 0 0 0
  outer loop
    vertex -5.5658464431762695 6 -10
    vertex -1.5 10.25 -10
    vertex -1.5 6 -10
  endloop
endfacet
facet normal 0 0 0
  outer loop
    vertex -5.4225053787231445 9.469765663146973 -10
    vertex -4.5 9.799842834472656 8
    vertex -4.4754180908203125 9.808638572692871 -10
  endloop
endfacet
facet normal 0 0 0
  outer loop
    vertex -6.331816673278809 9.039692878723145 -10
    vertex -5.4225053787231445 9.469765663146973 10
    vertex -5.4225053787231445 9.469765663146973 -10
  endloop
endfacet
facet normal 0 0 0
  outer loop
    vertex -4.4754180908203125 9.808638572692871 -10
    vertex -3.499675750732422 10.053049087524414 8
    vertex -3.499675750732422 10.053049087524414 -10
  endloop
endfacet
facet normal 0 0 0
  outer loop
    vertex -3.499675750732422 10.053049087524414 -10
    vertex -2.5046756267547607 10.200643539428711 8
    vertex -2.5046756267547607 10.200643539428711 -10
  endloop
endfacet
facet normal 0 0 0
  outer loop
    vertex -2.5046756267547607 10.200643539428711 -10
    vertex -1.5 10.25 8
    vertex -1.5 10.25 -10
  endloop
endfacet
facet normal 0 0 0
  outer loop
    vertex -11.75 0 -10
    vertex -11.75 0 10
    vertex -11.700643539428711 1.0046757459640503 10
  endloop
endfacet
facet normal 0 0 0
  outer loop
    vertex -11.700643539428711 1.0046757459640503 -10
    vertex -11.700643539428711 1.0046757459640503 10
    vertex -11.553049087524414 1.9996757507324219 10
  endloop
endfacet
facet normal 0 0 0
  outer loop
    vertex -11.553049087524414 1.9996757507324219 -10
    vertex -11.553049087524414 1.9996757507324219 10
    vertex -11.308638572692871 2.9754178524017334 10
  endloop
endfacet
facet normal 0 0 0
  outer loop
    vertex -11.308638572692871 2.9754178524017334 -10
    vertex -11.308638572692871 2.9754178524017334 10
    vertex -10.969765663146973 3.9225051403045654 10
  endloop
endfacet
facet normal 0 0 0
  outer loop
    vertex -10.969765663146973 3.9225051403045654 -10
    vertex -10.969765663146973 3.9225051403045654 10
    vertex -10.539692878723145 4.831816673278809 10
  endloop
endfacet
facet normal 0 0 0
  outer loop
    vertex -10.539692878723145 4.831816673278809 -10
    vertex -10.539692878723145 4.831816673278809 10
    vertex -10.022563934326172 5.694594860076904 10
  endloop
endfacet
facet normal 0 0 0
  outer loop
    vertex -11.700643539428711 -1.0046757459640503 10
    vertex -11.700643539428711 1.0046757459640503 10
    vertex -11.75 0 10
  endloop
endfacet
facet normal 0 0 0
  outer loop
    vertex -11.700643539428711 -1.0046757459640503 10
    vertex -11.553049087524414 1.9996757507324219 10
    vertex -11.700643539428711 1.0046757459640503 10
  endloop
endfacet
facet normal 0 0 0
  outer loop
    vertex -11.553049087524414 -1.9996757507324219 10
    vertex -11.308638572692871 2.9754178524017334 10
    vertex -11.553049087524414 1.9996757507324219 10
  endloop
endfacet
facet normal 0 0 0
  outer loop
    vertex -11.308638572692871 -2.9754178524017334 10
    vertex -10.969765663146973 3.9225051403045654 10
    vertex -11.308638572692871 2.9754178524017334 10
  endloop
endfacet
facet normal 0 0 0
  outer loop
    vertex -10.969765663146973 -3.9225051403045654 10
    vertex -10.539692878723145 4.831816673278809 10
    vertex -10.969765663146973 3.9225051403045654 10
  endloop
endfacet
facet normal 0 0 0
  outer loop
    vertex -10.539692878723145 -4.831816673278809 10
    vertex -10.022563934326172 5.694594860076904 10
    vertex -10.539692878723145 4.831816673278809 10
  endloop
endfacet
facet normal 0 0 0
  outer loop
    vertex -9.423357009887695 -6.502531051635742 10
    vertex -8.715088844299316 0.7106242775917053 10
    vertex -8.747844696044922 7.247844696044922 10
  endloop
endfacet
facet normal 0 0 0
  outer loop
    vertex -10.022563934326172 -5.694594860076904 10
    vertex -9.423357009887695 6.502531051635742 10
    vertex -10.022563934326172 5.694594860076904 10
  endloop
endfacet
facet normal 0 0 0
  outer loop
    vertex -9.423357009887695 -6.502531051635742 10
    vertex -8.747844696044922 7.247844696044922 10
    vertex -9.423357009887695 6.502531051635742 10
  endloop
endfacet
facet normal 0 0 0
  outer loop
    vertex -8.715088844299316 0.7106242775917053 10
    vertex -8.610692977905273 1.4144048690795898 10
    vertex -8.747844696044922 7.247844696044922 10
  endloop
endfacet
facet normal 0 0 0
  outer loop
    vertex -8.610692977905273 1.4144048690795898 10
    vertex -8.437817573547363 2.1045639514923096 10
    vertex -8.747844696044922 7.247844696044922 10
  endloop
endfacet
facet normal 0 0 0
  outer loop
    vertex -8.437817573547363 2.1045639514923096 10
    vertex -8.198126792907715 2.7744548320770264 10
    vertex -8.747844696044922 7.247844696044922 10
  endloop
endfacet
facet normal 0 0 0
  outer loop
    vertex -8.198126792907715 2.7744548320770264 10
    vertex -7.8939290046691895 3.41762638092041 10
    vertex -8.002531051635742 7.923357009887695 10
  endloop
endfacet
facet normal 0 0 0
  outer loop
    vertex -7.8939290046691895 3.41762638092041 10
    vertex -7.5281548500061035 4.027884006500244 10
    vertex -8.002531051635742 7.923357009887695 10
  endloop
endfacet
facet normal 0 0 0
  outer loop
    vertex -10.022563934326172 5.694594860076904 -10
    vertex -10.022563934326172 5.694594860076904 10
    vertex -9.423357009887695 6.502531051635742 10
  endloop
endfacet
facet normal 0 0 0
  outer loop
    vertex -9.423357009887695 6.502531051635742 -10
    vertex -9.423357009887695 6.502531051635742 10
    vertex -8.747844696044922 7.247844696044922 10
  endloop
endfacet
facet normal 0 0 0
  outer loop
    vertex -8.747844696044922 7.247844696044922 -10
    vertex -8.747844696044922 7.247844696044922 10
    vertex -8.002531051635742 7.923357009887695 10
  endloop
endfacet
facet normal 0 0 0
  outer loop
    vertex -8.002531051635742 7.923357009887695 -10
    vertex -8.002531051635742 7.923357009887695 10
    vertex -7.194594860076904 8.522563934326172 10
  endloop
endfacet
facet normal 0 0 0
  outer loop
    vertex -7.194594860076904 8.522563934326172 -10
    vertex -7.194594860076904 8.522563934326172 10
    vertex -6.331816673278809 9.039692878723145 10
  endloop
endfacet
facet normal 0 0 0
  outer loop
    vertex -6.331816673278809 9.039692878723145 -10
    vertex -6.331816673278809 9.039692878723145 10
    vertex -5.4225053787231445 9.469765663146973 10
  endloop
endfacet
facet normal 0 0 0
  outer loop
    vertex -8.198126792907715 2.7744548320770264 10
    vertex -8.002531051635742 7.923357009887695 10
    vertex -8.747844696044922 7.247844696044922 10
  endloop
endfacet
facet normal 0 0 0
  outer loop
    vertex -7.5281548500061035 4.027884006500244 10
    vertex -7.104325771331787 4.599351406097412 10
    vertex -8.002531051635742 7.923357009887695 10
  endloop
endfacet
facet normal 0 0 0
  outer loop
    vertex -7.104325771331787 4.599351406097412 10
    vertex -7.194594860076904 8.522563934326172 10
    vertex -8.002531051635742 7.923357009887695 10
  endloop
endfacet
facet normal 0 0 0
  outer loop
    vertex -7.104325771331787 4.599351406097412 10
    vertex -6.626523971557617 5.126523971557617 10
    vertex -7.194594860076904 8.522563934326172 10
  endloop
endfacet
facet normal 0 0 0
  outer loop
    vertex -6.626523971557617 5.126523971557617 10
    vertex -6.099351406097412 5.604325771331787 10
    vertex -7.194594860076904 8.522563934326172 10
  endloop
endfacet
facet normal 0 0 0
  outer loop
    vertex -6.099351406097412 5.604325771331787 10
    vertex -5.5658464431762695 6 10
    vertex -6.331816673278809 9.039692878723145 10
  endloop
endfacet
facet normal 0 0 0
  outer loop
    vertex -7.194594860076904 8.522563934326172 10
    vertex -6.099351406097412 5.604325771331787 10
    vertex -6.331816673278809 9.039692878723145 10
  endloop
endfacet
facet normal 0 0 0
  outer loop
    vertex -4.4754180908203125 9.808638572692871 -10
    vertex -4.5 9.799842834472656 8
    vertex -4.4754180908203125 9.808638572692871 8
  endloop
endfacet
facet normal 0 0 0
  outer loop
    vertex -4.4754180908203125 9.808638572692871 -10
    vertex -4.4754180908203125 9.808638572692871 8
    vertex -3.499675750732422 10.053049087524414 8
  endloop
endfacet
facet normal 0 0 0
  outer loop
    vertex -3.499675750732422 10.053049087524414 -10
    vertex -3.499675750732422 10.053049087524414 8
    vertex -2.5046756267547607 10.200643539428711 8
  endloop
endfacet
facet normal 0 0 0
  outer loop
    vertex -5.4225053787231445 9.469765663146973 -10
    vertex -5.4225053787231445 9.469765663146973 10
    vertex -4.5 9.799842834472656 8
  endloop
endfacet
facet normal 0 0 0
  outer loop
    vertex -2.5046756267547607 10.200643539428711 -10
    vertex -2.5046756267547607 10.200643539428711 8
    vertex -1.5 10.25 8
  endloop
endfacet
facet normal 0 0 0
  outer loop
    vertex -5.5658464431762695 6 10
    vertex -4.5 6 10
    vertex -5.4225053787231445 9.469765663146973 10
  endloop
endfacet
facet normal 0 0 0
  outer loop
    vertex -5.5658464431762695 6 10
    vertex -5.4225053787231445 9.469765663146973 10
    vertex -6.331816673278809 9.039692878723145 10
  endloop
endfacet
facet normal 0 0 0
  outer loop
    vertex -4.5 6 10
    vertex -4.5 9.799842834472656 10
    vertex -5.4225053787231445 9.469765663146973 10
  endloop
endfacet
facet normal 0 0 0
  outer loop
    vertex -5.4225053787231445 9.469765663146973 10
    vertex -4.5 9.799842834472656 10
    vertex -4.5 9.799842834472656 8
  endloop
endfacet
facet normal 0 0 0
  outer loop
    vertex 2.5046756267547607 -10.200643539428711 8
    vertex 4.5 -6 8
    vertex 1.5 -10.25 8
  endloop
endfacet
facet normal 0 0 0
  outer loop
    vertex 4.5 -6 8
    vertex 1.5 -6 8
    vertex 1.5 -10.25 8
  endloop
endfacet
facet normal 0 0 0
  outer loop
    vertex 2.5046756267547607 -10.200643539428711 8
    vertex 3.499675750732422 -10.053049087524414 8
    vertex 4.5 -6 8
  endloop
endfacet
facet normal 0 0 0
  outer loop
    vertex 3.499675750732422 -10.053049087524414 8
    vertex 4.4754180908203125 -9.808638572692871 8
    vertex 4.5 -6 8
  endloop
endfacet
facet normal 0 0 0
  outer loop
    vertex 4.4754180908203125 -9.808638572692871 8
    vertex 4.5 -9.799842834472656 8
    vertex 4.5 -6 8
  endloop
endfacet
facet normal 0 0 0
  outer loop
    vertex 4.5 -9.799842834472656 8
    vertex 4.5 -9.799842834472656 10
    vertex 4.5 -6 8
  endloop
endfacet
facet normal 0 0 0
  outer loop
    vertex 4.5 -9.799842834472656 10
    vertex 4.5 -6 10
    vertex 4.5 -6 8
  endloop
endfacet
facet normal 0 0 0
  outer loop
    vertex 4.5 6 8
    vertex 1.5 10.25 8
    vertex 1.5 6 8
  endloop
endfacet
facet normal 0 0 0
  outer loop
    vertex 2.5046756267547607 10.200643539428711 8
    vertex 1.5 10.25 8
    vertex 4.5 6 8
  endloop
endfacet
facet normal 0 0 0
  outer loop
    vertex 4.5 6 8
    vertex 4.5 6 10
    vertex 4.5 9.799842834472656 10
  endloop
endfacet
facet normal 0 0 0
  outer loop
    vertex 2.5046756267547607 10.200643539428711 8
    vertex 4.5 6 8
    vertex 3.499675750732422 10.053049087524414 8
  endloop
endfacet
facet normal 0 0 0
  outer loop
    vertex 3.499675750732422 10.053049087524414 8
    vertex 4.5 6 8
    vertex 4.4754180908203125 9.808638572692871 8
  endloop
endfacet
facet normal 0 0 0
  outer loop
    vertex 4.5 6 8
    vertex 4.5 9.799842834472656 8
    vertex 4.4754180908203125 9.808638572692871 8
  endloop
endfacet
facet normal 0 0 0
  outer loop
    vertex 4.5 6 8
    vertex 4.5 9.799842834472656 10
    vertex 4.5 9.799842834472656 8
  endloop
endfacet
facet normal 0 0 0
  outer loop
    vertex -4.5 -9.799842834472656 8
    vertex -4.4754180908203125 -9.808638572692871 8
    vertex -4.5 -6 8
  endloop
endfacet
facet normal 0 0 0
  outer loop
    vertex -4.5 -9.799842834472656 8
    vertex -4.5 -6 8
    vertex -4.5 -9.799842834472656 10
  endloop
endfacet
facet normal 0 0 0
  outer loop
    vertex -4.4754180908203125 -9.808638572692871 8
    vertex -3.499675750732422 -10.053049087524414 8
    vertex -4.5 -6 8
  endloop
endfacet
facet normal 0 0 0
  outer loop
    vertex -4.5 -6 8
    vertex -3.499675750732422 -10.053049087524414 8
    vertex -2.5046756267547607 -10.200643539428711 8
  endloop
endfacet
facet normal 0 0 0
  outer loop
    vertex -4.5 -9.799842834472656 10
    vertex -4.5 -6 8
    vertex -4.5 -6 10
  endloop
endfacet
facet normal 0 0 0
  outer loop
    vertex -4.5 -6 8
    vertex -2.5046756267547607 -10.200643539428711 8
    vertex -1.5 -10.25 8
  endloop
endfacet
facet normal 0 0 0
  outer loop
    vertex -4.5 -6 8
    vertex -1.5 -10.25 8
    vertex -1.5 -6 8
  endloop
endfacet
facet normal 0 0 0
  outer loop
    vertex -4.5 6 8
    vertex -4.5 9.799842834472656 10
    vertex -4.5 6 10
  endloop
endfacet
facet normal 0 0 0
  outer loop
    vertex -4.5 6 8
    vertex -4.4754180908203125 9.808638572692871 8
    vertex -4.5 9.799842834472656 8
  endloop
endfacet
facet normal 0 0 0
  outer loop
    vertex -4.5 6 8
    vertex -4.5 9.799842834472656 8
    vertex -4.5 9.799842834472656 10
  endloop
endfacet
facet normal 0 0 0
  outer loop
    vertex -4.5 6 8
    vertex -3.499675750732422 10.053049087524414 8
    vertex -4.4754180908203125 9.808638572692871 8
  endloop
endfacet
facet normal 0 0 0
  outer loop
    vertex -4.5 6 8
    vertex -2.5046756267547607 10.200643539428711 8
    vertex -3.499675750732422 10.053049087524414 8
  endloop
endfacet
facet normal 0 0 0
  outer loop
    vertex -4.5 6 8
    vertex -1.5 6 8
    vertex -1.5 10.25 8
  endloop
endfacet
facet normal 0 0 0
  outer loop
    vertex -4.5 6 8
    vertex -1.5 10.25 8
    vertex -2.5046756267547607 10.200643539428711 8
  endloop
endfacet
facet normal 0 0 0
  outer loop
    vertex -1.5 -10.25 -10
    vertex -1.5 -6 -10
    vertex -1.5 -6 8
  endloop
endfacet
facet normal 0 0 0
  outer loop
    vertex -1.5 -10.25 -10
    vertex -1.5 -6 8
    vertex -1.5 -10.25 8
  endloop
endfacet
facet normal 0 0 0
  outer loop
    vertex -1.5 10.25 -10
    vertex -1.5 10.25 8
    vertex -1.5 6 -10
  endloop
endfacet
facet normal 0 0 0
  outer loop
    vertex -1.5 6 -10
    vertex -1.5 10.25 8
    vertex -1.5 6 8
  endloop
endfacet
facet normal 0 0 0
  outer loop
    vertex 1.5 -6 -10
    vertex 1.5 -10.25 -10
    vertex 1.5 -10.25 8
  endloop
endfacet
facet normal 0 0 0
  outer loop
    vertex 1.5 -6 -10
    vertex 1.5 -10.25 8
    vertex 1.5 -6 8
  endloop
endfacet
facet normal 0 0 0
  outer loop
    vertex 1.5 10.25 -10
    vertex 1.5 6 -10
    vertex 1.5 6 8
  endloop
endfacet
facet normal 0 0 0
  outer loop
    vertex 1.5 10.25 -10
    vertex 1.5 6 8
    vertex 1.5 10.25 8
  endloop
endfacet
endsolid Baxter_PD_Top_Socket_Half