solid re303_vol_slipon
facet normal 0.9987 -0.0387 0.0321
  outer loop
    vertex 9.2500 0.0000 0.0000
    vertex 9.3219 1.8542 0.0000
    vertex 8.8683 1.7640 14.0000
  endloop
endfacet
facet normal 0.9984 -0.0457 0.0330
  outer loop
    vertex 9.2500 0.0000 0.0000
    vertex 8.8683 1.7640 14.0000
    vertex 8.7875 0.0000 14.0000
  endloop
endfacet
facet normal 0.8126 0.5820 0.0322
  outer loop
    vertex 9.3219 1.8542 0.0000
    vertex 8.2133 3.4021 0.0000
    vertex 7.7860 3.2251 14.0000
  endloop
endfacet
facet normal 0.8032 0.5950 0.0299
  outer loop
    vertex 9.3219 1.8542 0.0000
    vertex 7.7860 3.2251 14.0000
    vertex 8.8683 1.7640 14.0000
  endloop
endfacet
facet normal 0.9862 0.1630 0.0301
  outer loop
    vertex 8.2133 3.4021 0.0000
    vertex 7.9028 5.2804 0.0000
    vertex 7.5182 5.0235 14.0000
  endloop
endfacet
facet normal 0.9886 0.1472 0.0320
  outer loop
    vertex 8.2133 3.4021 0.0000
    vertex 7.5182 5.0235 14.0000
    vertex 7.7860 3.2251 14.0000
  endloop
endfacet
facet normal 0.6788 0.7336 0.0330
  outer loop
    vertex 7.9028 5.2804 0.0000
    vertex 6.5407 6.5407 0.0000
    vertex 6.2137 6.2137 14.0000
  endloop
endfacet
facet normal 0.6737 0.7383 0.0321
  outer loop
    vertex 7.9028 5.2804 0.0000
    vertex 6.2137 6.2137 14.0000
    vertex 7.5182 5.0235 14.0000
  endloop
endfacet
facet normal 0.5194 0.8539 0.0330
  outer loop
    vertex 6.5407 6.5407 0.0000
    vertex 4.9976 7.4794 0.0000
    vertex 4.7406 7.0949 14.0000
  endloop
endfacet
facet normal 0.5131 0.8577 0.0320
  outer loop
    vertex 6.5407 6.5407 0.0000
    vertex 4.7406 7.0949 14.0000
    vertex 6.2137 6.2137 14.0000
  endloop
endfacet
facet normal 0.7270 0.6860 0.0301
  outer loop
    vertex 4.9976 7.4794 0.0000
    vertex 3.6776 8.8785 0.0000
    vertex 3.5006 8.4512 14.0000
  endloop
endfacet
facet normal 0.7376 0.6744 0.0321
  outer loop
    vertex 4.9976 7.4794 0.0000
    vertex 3.5006 8.4512 14.0000
    vertex 4.7406 7.0949 14.0000
  endloop
endfacet
facet normal -0.0290 0.9991 0.0322
  outer loop
    vertex 3.6776 8.8785 0.0000
    vertex 1.7549 8.8226 0.0000
    vertex 1.6647 8.3690 14.0000
  endloop
endfacet
facet normal -0.0447 0.9986 0.0299
  outer loop
    vertex 3.6776 8.8785 0.0000
    vertex 1.6647 8.3690 14.0000
    vertex 3.5006 8.4512 14.0000
  endloop
endfacet
facet normal 0.2365 0.9711 0.0321
  outer loop
    vertex 1.7549 8.8226 0.0000
    vertex 0.0000 9.2500 0.0000
    vertex 0.0000 8.7875 14.0000
  endloop
endfacet
facet normal 0.2437 0.9693 0.0330
  outer loop
    vertex 1.7549 8.8226 0.0000
    vertex 0.0000 8.7875 14.0000
    vertex 1.6647 8.3690 14.0000
  endloop
endfacet
facet normal 0.0387 0.9987 0.0321
  outer loop
    vertex 0.0000 9.2500 0.0000
    vertex -1.8542 9.3219 0.0000
    vertex -1.7640 8.8683 14.0000
  endloop
endfacet
facet normal 0.0457 0.9984 0.0330
  outer loop
    vertex 0.0000 9.2500 0.0000
    vertex -1.7640 8.8683 14.0000
    vertex 0.0000 8.7875 14.0000
  endloop
endfacet
facet normal -0.5820 0.8126 0.0322
  outer loop
    vertex -1.8542 9.3219 0.0000
    vertex -3.4021 8.2133 0.0000
    vertex -3.2251 7.7860 14.0000
  endloop
endfacet
facet normal -0.5950 0.8032 0.0299
  outer loop
    vertex -1.8542 9.3219 0.0000
    vertex -3.2251 7.7860 14.0000
    vertex -1.7640 8.8683 14.0000
  endloop
endfacet
facet normal -0.1630 0.9862 0.0301
  outer loop
    vertex -3.4021 8.2133 0.0000
    vertex -5.2804 7.9028 0.0000
    vertex -5.0235 7.5182 14.0000
  endloop
endfacet
facet normal -0.1472 0.9886 0.0320
  outer loop
    vertex -3.4021 8.2133 0.0000
    vertex -5.0235 7.5182 14.0000
    vertex -3.2251 7.7860 14.0000
  endloop
endfacet
facet normal -0.7336 0.6788 0.0330
  outer loop
    vertex -5.2804 7.9028 0.0000
    vertex -6.5407 6.5407 0.0000
    vertex -6.2137 6.2137 14.0000
  endloop
endfacet
facet normal -0.7383 0.6737 0.0321
  outer loop
    vertex -5.2804 7.9028 0.0000
    vertex -6.2137 6.2137 14.0000
    vertex -5.0235 7.5182 14.0000
  endloop
endfacet
facet normal -0.8539 0.5194 0.0330
  outer loop
    vertex -6.5407 6.5407 0.0000
    vertex -7.4794 4.9976 0.0000
    vertex -7.0949 4.7406 14.0000
  endloop
endfacet
facet normal -0.8577 0.5131 0.0320
  outer loop
    vertex -6.5407 6.5407 0.0000
    vertex -7.0949 4.7406 14.0000
    vertex -6.2137 6.2137 14.0000
  endloop
endfacet
facet normal -0.6860 0.7270 0.0301
  outer loop
    vertex -7.4794 4.9976 0.0000
    vertex -8.8785 3.6776 0.0000
    vertex -8.4512 3.5006 14.0000
  endloop
endfacet
facet normal -0.6744 0.7376 0.0321
  outer loop
    vertex -7.4794 4.9976 0.0000
    vertex -8.4512 3.5006 14.0000
    vertex -7.0949 4.7406 14.0000
  endloop
endfacet
facet normal -0.9991 -0.0290 0.0322
  outer loop
    vertex -8.8785 3.6776 0.0000
    vertex -8.8226 1.7549 0.0000
    vertex -8.3690 1.6647 14.0000
  endloop
endfacet
facet normal -0.9986 -0.0447 0.0299
  outer loop
    vertex -8.8785 3.6776 0.0000
    vertex -8.3690 1.6647 14.0000
    vertex -8.4512 3.5006 14.0000
  endloop
endfacet
facet normal -0.9711 0.2365 0.0321
  outer loop
    vertex -8.8226 1.7549 0.0000
    vertex -9.2500 0.0000 0.0000
    vertex -8.7875 0.0000 14.0000
  endloop
endfacet
facet normal -0.9693 0.2437 0.0330
  outer loop
    vertex -8.8226 1.7549 0.0000
    vertex -8.7875 0.0000 14.0000
    vertex -8.3690 1.6647 14.0000
  endloop
endfacet
facet normal -0.9987 0.0387 0.0321
  outer loop
    vertex -9.2500 0.0000 0.0000
    vertex -9.3219 -1.8542 0.0000
    vertex -8.8683 -1.7640 14.0000
  endloop
endfacet
facet normal -0.9984 0.0457 0.0330
  outer loop
    vertex -9.2500 0.0000 0.0000
    vertex -8.8683 -1.7640 14.0000
    vertex -8.7875 0.0000 14.0000
  endloop
endfacet
facet normal -0.8126 -0.5820 0.0322
  outer loop
    vertex -9.3219 -1.8542 0.0000
    vertex -8.2133 -3.4021 0.0000
    vertex -7.7860 -3.2251 14.0000
  endloop
endfacet
facet normal -0.8032 -0.5950 0.0299
  outer loop
    vertex -9.3219 -1.8542 0.0000
    vertex -7.7860 -3.2251 14.0000
    vertex -8.8683 -1.7640 14.0000
  endloop
endfacet
facet normal -0.9862 -0.1630 0.0301
  outer loop
    vertex -8.2133 -3.4021 0.0000
    vertex -7.9028 -5.2804 0.0000
    vertex -7.5182 -5.0235 14.0000
  endloop
endfacet
facet normal -0.9886 -0.1472 0.0320
  outer loop
    vertex -8.2133 -3.4021 0.0000
    vertex -7.5182 -5.0235 14.0000
    vertex -7.7860 -3.2251 14.0000
  endloop
endfacet
facet normal -0.6788 -0.7336 0.0330
  outer loop
    vertex -7.9028 -5.2804 0.0000
    vertex -6.5407 -6.5407 0.0000
    vertex -6.2137 -6.2137 14.0000
  endloop
endfacet
facet normal -0.6737 -0.7383 0.0321
  outer loop
    vertex -7.9028 -5.2804 0.0000
    vertex -6.2137 -6.2137 14.0000
    vertex -7.5182 -5.0235 14.0000
  endloop
endfacet
facet normal -0.5194 -0.8539 0.0330
  outer loop
    vertex -6.5407 -6.5407 0.0000
    vertex -4.9976 -7.4794 0.0000
    vertex -4.7406 -7.0949 14.0000
  endloop
endfacet
facet normal -0.5131 -0.8577 0.0320
  outer loop
    vertex -6.5407 -6.5407 0.0000
    vertex -4.7406 -7.0949 14.0000
    vertex -6.2137 -6.2137 14.0000
  endloop
endfacet
facet normal -0.7270 -0.6860 0.0301
  outer loop
    vertex -4.9976 -7.4794 0.0000
    vertex -3.6776 -8.8785 0.0000
    vertex -3.5006 -8.4512 14.0000
  endloop
endfacet
facet normal -0.7376 -0.6744 0.0321
  outer loop
    vertex -4.9976 -7.4794 0.0000
    vertex -3.5006 -8.4512 14.0000
    vertex -4.7406 -7.0949 14.0000
  endloop
endfacet
facet normal 0.0290 -0.9991 0.0322
  outer loop
    vertex -3.6776 -8.8785 0.0000
    vertex -1.7549 -8.8226 0.0000
    vertex -1.6647 -8.3690 14.0000
  endloop
endfacet
facet normal 0.0447 -0.9986 0.0299
  outer loop
    vertex -3.6776 -8.8785 0.0000
    vertex -1.6647 -8.3690 14.0000
    vertex -3.5006 -8.4512 14.0000
  endloop
endfacet
facet normal -0.2365 -0.9711 0.0321
  outer loop
    vertex -1.7549 -8.8226 0.0000
    vertex -0.0000 -9.2500 0.0000
    vertex -0.0000 -8.7875 14.0000
  endloop
endfacet
facet normal -0.2437 -0.9693 0.0330
  outer loop
    vertex -1.7549 -8.8226 0.0000
    vertex -0.0000 -8.7875 14.0000
    vertex -1.6647 -8.3690 14.0000
  endloop
endfacet
facet normal -0.0387 -0.9987 0.0321
  outer loop
    vertex -0.0000 -9.2500 0.0000
    vertex 1.8542 -9.3219 0.0000
    vertex 1.7640 -8.8683 14.0000
  endloop
endfacet
facet normal -0.0457 -0.9984 0.0330
  outer loop
    vertex -0.0000 -9.2500 0.0000
    vertex 1.7640 -8.8683 14.0000
    vertex -0.0000 -8.7875 14.0000
  endloop
endfacet
facet normal 0.5820 -0.8126 0.0322
  outer loop
    vertex 1.8542 -9.3219 0.0000
    vertex 3.4021 -8.2133 0.0000
    vertex 3.2251 -7.7860 14.0000
  endloop
endfacet
facet normal 0.5950 -0.8032 0.0299
  outer loop
    vertex 1.8542 -9.3219 0.0000
    vertex 3.2251 -7.7860 14.0000
    vertex 1.7640 -8.8683 14.0000
  endloop
endfacet
facet normal 0.1630 -0.9862 0.0301
  outer loop
    vertex 3.4021 -8.2133 0.0000
    vertex 5.2804 -7.9028 0.0000
    vertex 5.0235 -7.5182 14.0000
  endloop
endfacet
facet normal 0.1472 -0.9886 0.0320
  outer loop
    vertex 3.4021 -8.2133 0.0000
    vertex 5.0235 -7.5182 14.0000
    vertex 3.2251 -7.7860 14.0000
  endloop
endfacet
facet normal 0.7336 -0.6788 0.0330
  outer loop
    vertex 5.2804 -7.9028 0.0000
    vertex 6.5407 -6.5407 0.0000
    vertex 6.2137 -6.2137 14.0000
  endloop
endfacet
facet normal 0.7383 -0.6737 0.0321
  outer loop
    vertex 5.2804 -7.9028 0.0000
    vertex 6.2137 -6.2137 14.0000
    vertex 5.0235 -7.5182 14.0000
  endloop
endfacet
facet normal 0.8539 -0.5194 0.0330
  outer loop
    vertex 6.5407 -6.5407 0.0000
    vertex 7.4794 -4.9976 0.0000
    vertex 7.0949 -4.7406 14.0000
  endloop
endfacet
facet normal 0.8577 -0.5131 0.0320
  outer loop
    vertex 6.5407 -6.5407 0.0000
    vertex 7.0949 -4.7406 14.0000
    vertex 6.2137 -6.2137 14.0000
  endloop
endfacet
facet normal 0.6860 -0.7270 0.0301
  outer loop
    vertex 7.4794 -4.9976 0.0000
    vertex 8.8785 -3.6776 0.0000
    vertex 8.4512 -3.5006 14.0000
  endloop
endfacet
facet normal 0.6744 -0.7376 0.0321
  outer loop
    vertex 7.4794 -4.9976 0.0000
    vertex 8.4512 -3.5006 14.0000
    vertex 7.0949 -4.7406 14.0000
  endloop
endfacet
facet normal 0.9991 0.0290 0.0322
  outer loop
    vertex 8.8785 -3.6776 0.0000
    vertex 8.8226 -1.7549 0.0000
    vertex 8.3690 -1.6647 14.0000
  endloop
endfacet
facet normal 0.9986 0.0447 0.0299
  outer loop
    vertex 8.8785 -3.6776 0.0000
    vertex 8.3690 -1.6647 14.0000
    vertex 8.4512 -3.5006 14.0000
  endloop
endfacet
facet normal 0.9711 -0.2365 0.0321
  outer loop
    vertex 8.8226 -1.7549 0.0000
    vertex 9.2500 0.0000 0.0000
    vertex 8.7875 0.0000 14.0000
  endloop
endfacet
facet normal 0.9693 -0.2437 0.0330
  outer loop
    vertex 8.8226 -1.7549 0.0000
    vertex 8.7875 0.0000 14.0000
    vertex 8.3690 -1.6647 14.0000
  endloop
endfacet
facet normal -0.9914 -0.1305 0.0000
  outer loop
    vertex 5.3609 1.4364 0.0000
    vertex 5.5500 0.0000 0.0000
    vertex 5.5500 0.0000 12.0000
  endloop
endfacet
facet normal -0.9914 -0.1305 0.0000
  outer loop
    vertex 5.3609 1.4364 0.0000
    vertex 5.5500 0.0000 12.0000
    vertex 5.3609 1.4364 12.0000
  endloop
endfacet
facet normal -0.9239 -0.3827 0.0000
  outer loop
    vertex 4.8064 2.7750 0.0000
    vertex 5.3609 1.4364 0.0000
    vertex 5.3609 1.4364 12.0000
  endloop
endfacet
facet normal -0.9239 -0.3827 0.0000
  outer loop
    vertex 4.8064 2.7750 0.0000
    vertex 5.3609 1.4364 12.0000
    vertex 4.8064 2.7750 12.0000
  endloop
endfacet
facet normal -0.7934 -0.6088 0.0000
  outer loop
    vertex 3.9244 3.9244 0.0000
    vertex 4.8064 2.7750 0.0000
    vertex 4.8064 2.7750 12.0000
  endloop
endfacet
facet normal -0.7934 -0.6088 0.0000
  outer loop
    vertex 3.9244 3.9244 0.0000
    vertex 4.8064 2.7750 12.0000
    vertex 3.9244 3.9244 12.0000
  endloop
endfacet
facet normal -0.6088 -0.7934 0.0000
  outer loop
    vertex 2.7750 4.8064 0.0000
    vertex 3.9244 3.9244 0.0000
    vertex 3.9244 3.9244 12.0000
  endloop
endfacet
facet normal -0.6088 -0.7934 0.0000
  outer loop
    vertex 2.7750 4.8064 0.0000
    vertex 3.9244 3.9244 12.0000
    vertex 2.7750 4.8064 12.0000
  endloop
endfacet
facet normal -0.3827 -0.9239 0.0000
  outer loop
    vertex 1.4364 5.3609 0.0000
    vertex 2.7750 4.8064 0.0000
    vertex 2.7750 4.8064 12.0000
  endloop
endfacet
facet normal -0.3827 -0.9239 0.0000
  outer loop
    vertex 1.4364 5.3609 0.0000
    vertex 2.7750 4.8064 12.0000
    vertex 1.4364 5.3609 12.0000
  endloop
endfacet
facet normal -0.1305 -0.9914 0.0000
  outer loop
    vertex 0.0000 5.5500 0.0000
    vertex 1.4364 5.3609 0.0000
    vertex 1.4364 5.3609 12.0000
  endloop
endfacet
facet normal -0.1305 -0.9914 0.0000
  outer loop
    vertex 0.0000 5.5500 0.0000
    vertex 1.4364 5.3609 12.0000
    vertex 0.0000 5.5500 12.0000
  endloop
endfacet
facet normal 0.1305 -0.9914 0.0000
  outer loop
    vertex -1.4364 5.3609 0.0000
    vertex 0.0000 5.5500 0.0000
    vertex 0.0000 5.5500 12.0000
  endloop
endfacet
facet normal 0.1305 -0.9914 0.0000
  outer loop
    vertex -1.4364 5.3609 0.0000
    vertex 0.0000 5.5500 12.0000
    vertex -1.4364 5.3609 12.0000
  endloop
endfacet
facet normal 0.3827 -0.9239 0.0000
  outer loop
    vertex -2.7750 4.8064 0.0000
    vertex -1.4364 5.3609 0.0000
    vertex -1.4364 5.3609 12.0000
  endloop
endfacet
facet normal 0.3827 -0.9239 0.0000
  outer loop
    vertex -2.7750 4.8064 0.0000
    vertex -1.4364 5.3609 12.0000
    vertex -2.7750 4.8064 12.0000
  endloop
endfacet
facet normal 0.6088 -0.7934 0.0000
  outer loop
    vertex -3.9244 3.9244 0.0000
    vertex -2.7750 4.8064 0.0000
    vertex -2.7750 4.8064 12.0000
  endloop
endfacet
facet normal 0.6088 -0.7934 0.0000
  outer loop
    vertex -3.9244 3.9244 0.0000
    vertex -2.7750 4.8064 12.0000
    vertex -3.9244 3.9244 12.0000
  endloop
endfacet
facet normal 0.7934 -0.6088 0.0000
  outer loop
    vertex -4.8064 2.7750 0.0000
    vertex -3.9244 3.9244 0.0000
    vertex -3.9244 3.9244 12.0000
  endloop
endfacet
facet normal 0.7934 -0.6088 0.0000
  outer loop
    vertex -4.8064 2.7750 0.0000
    vertex -3.9244 3.9244 12.0000
    vertex -4.8064 2.7750 12.0000
  endloop
endfacet
facet normal 0.9239 -0.3827 0.0000
  outer loop
    vertex -5.3609 1.4364 0.0000
    vertex -4.8064 2.7750 0.0000
    vertex -4.8064 2.7750 12.0000
  endloop
endfacet
facet normal 0.9239 -0.3827 0.0000
  outer loop
    vertex -5.3609 1.4364 0.0000
    vertex -4.8064 2.7750 12.0000
    vertex -5.3609 1.4364 12.0000
  endloop
endfacet
facet normal 0.9914 -0.1305 0.0000
  outer loop
    vertex -5.5500 0.0000 0.0000
    vertex -5.3609 1.4364 0.0000
    vertex -5.3609 1.4364 12.0000
  endloop
endfacet
facet normal 0.9914 -0.1305 0.0000
  outer loop
    vertex -5.5500 0.0000 0.0000
    vertex -5.3609 1.4364 12.0000
    vertex -5.5500 0.0000 12.0000
  endloop
endfacet
facet normal 0.9914 0.1305 0.0000
  outer loop
    vertex -5.3609 -1.4364 0.0000
    vertex -5.5500 0.0000 0.0000
    vertex -5.5500 0.0000 12.0000
  endloop
endfacet
facet normal 0.9914 0.1305 0.0000
  outer loop
    vertex -5.3609 -1.4364 0.0000
    vertex -5.5500 0.0000 12.0000
    vertex -5.3609 -1.4364 12.0000
  endloop
endfacet
facet normal 0.9239 0.3827 0.0000
  outer loop
    vertex -4.8064 -2.7750 0.0000
    vertex -5.3609 -1.4364 0.0000
    vertex -5.3609 -1.4364 12.0000
  endloop
endfacet
facet normal 0.9239 0.3827 0.0000
  outer loop
    vertex -4.8064 -2.7750 0.0000
    vertex -5.3609 -1.4364 12.0000
    vertex -4.8064 -2.7750 12.0000
  endloop
endfacet
facet normal 0.7934 0.6088 0.0000
  outer loop
    vertex -3.9244 -3.9244 0.0000
    vertex -4.8064 -2.7750 0.0000
    vertex -4.8064 -2.7750 12.0000
  endloop
endfacet
facet normal 0.7934 0.6088 0.0000
  outer loop
    vertex -3.9244 -3.9244 0.0000
    vertex -4.8064 -2.7750 12.0000
    vertex -3.9244 -3.9244 12.0000
  endloop
endfacet
facet normal 0.6088 0.7934 0.0000
  outer loop
    vertex -2.7750 -4.8064 0.0000
    vertex -3.9244 -3.9244 0.0000
    vertex -3.9244 -3.9244 12.0000
  endloop
endfacet
facet normal 0.6088 0.7934 0.0000
  outer loop
    vertex -2.7750 -4.8064 0.0000
    vertex -3.9244 -3.9244 12.0000
    vertex -2.7750 -4.8064 12.0000
  endloop
endfacet
facet normal 0.3827 0.9239 0.0000
  outer loop
    vertex -1.4364 -5.3609 0.0000
    vertex -2.7750 -4.8064 0.0000
    vertex -2.7750 -4.8064 12.0000
  endloop
endfacet
facet normal 0.3827 0.9239 0.0000
  outer loop
    vertex -1.4364 -5.3609 0.0000
    vertex -2.7750 -4.8064 12.0000
    vertex -1.4364 -5.3609 12.0000
  endloop
endfacet
facet normal 0.1305 0.9914 0.0000
  outer loop
    vertex -0.0000 -5.5500 0.0000
    vertex -1.4364 -5.3609 0.0000
    vertex -1.4364 -5.3609 12.0000
  endloop
endfacet
facet normal 0.1305 0.9914 0.0000
  outer loop
    vertex -0.0000 -5.5500 0.0000
    vertex -1.4364 -5.3609 12.0000
    vertex -0.0000 -5.5500 12.0000
  endloop
endfacet
facet normal -0.1305 0.9914 0.0000
  outer loop
    vertex 1.4364 -5.3609 0.0000
    vertex -0.0000 -5.5500 0.0000
    vertex -0.0000 -5.5500 12.0000
  endloop
endfacet
facet normal -0.1305 0.9914 0.0000
  outer loop
    vertex 1.4364 -5.3609 0.0000
    vertex -0.0000 -5.5500 12.0000
    vertex 1.4364 -5.3609 12.0000
  endloop
endfacet
facet normal -0.3827 0.9239 0.0000
  outer loop
    vertex 2.7750 -4.8064 0.0000
    vertex 1.4364 -5.3609 0.0000
    vertex 1.4364 -5.3609 12.0000
  endloop
endfacet
facet normal -0.3827 0.9239 0.0000
  outer loop
    vertex 2.7750 -4.8064 0.0000
    vertex 1.4364 -5.3609 12.0000
    vertex 2.7750 -4.8064 12.0000
  endloop
endfacet
facet normal -0.6088 0.7934 0.0000
  outer loop
    vertex 3.9244 -3.9244 0.0000
    vertex 2.7750 -4.8064 0.0000
    vertex 2.7750 -4.8064 12.0000
  endloop
endfacet
facet normal -0.6088 0.7934 0.0000
  outer loop
    vertex 3.9244 -3.9244 0.0000
    vertex 2.7750 -4.8064 12.0000
    vertex 3.9244 -3.9244 12.0000
  endloop
endfacet
facet normal -0.7934 0.6088 0.0000
  outer loop
    vertex 4.8064 -2.7750 0.0000
    vertex 3.9244 -3.9244 0.0000
    vertex 3.9244 -3.9244 12.0000
  endloop
endfacet
facet normal -0.7934 0.6088 0.0000
  outer loop
    vertex 4.8064 -2.7750 0.0000
    vertex 3.9244 -3.9244 12.0000
    vertex 4.8064 -2.7750 12.0000
  endloop
endfacet
facet normal -0.9239 0.3827 0.0000
  outer loop
    vertex 5.3609 -1.4364 0.0000
    vertex 4.8064 -2.7750 0.0000
    vertex 4.8064 -2.7750 12.0000
  endloop
endfacet
facet normal -0.9239 0.3827 0.0000
  outer loop
    vertex 5.3609 -1.4364 0.0000
    vertex 4.8064 -2.7750 12.0000
    vertex 5.3609 -1.4364 12.0000
  endloop
endfacet
facet normal -0.9914 0.1305 0.0000
  outer loop
    vertex 5.5500 0.0000 0.0000
    vertex 5.3609 -1.4364 0.0000
    vertex 5.3609 -1.4364 12.0000
  endloop
endfacet
facet normal -0.9914 0.1305 0.0000
  outer loop
    vertex 5.5500 0.0000 0.0000
    vertex 5.3609 -1.4364 12.0000
    vertex 5.5500 0.0000 12.0000
  endloop
endfacet
facet normal 0.0000 0.0000 1.0000
  outer loop
    vertex 8.7875 0.0000 14.0000
    vertex 8.8683 1.7640 14.0000
    vertex 0.0000 0.0000 14.0000
  endloop
endfacet
facet normal 0.0000 0.0000 1.0000
  outer loop
    vertex 8.8683 1.7640 14.0000
    vertex 7.7860 3.2251 14.0000
    vertex 0.0000 0.0000 14.0000
  endloop
endfacet
facet normal 0.0000 0.0000 1.0000
  outer loop
    vertex 7.7860 3.2251 14.0000
    vertex 7.5182 5.0235 14.0000
    vertex 0.0000 0.0000 14.0000
  endloop
endfacet
facet normal 0.0000 0.0000 1.0000
  outer loop
    vertex 7.5182 5.0235 14.0000
    vertex 6.2137 6.2137 14.0000
    vertex 0.0000 0.0000 14.0000
  endloop
endfacet
facet normal 0.0000 0.0000 1.0000
  outer loop
    vertex 6.2137 6.2137 14.0000
    vertex 4.7406 7.0949 14.0000
    vertex 0.0000 0.0000 14.0000
  endloop
endfacet
facet normal 0.0000 0.0000 1.0000
  outer loop
    vertex 4.7406 7.0949 14.0000
    vertex 3.5006 8.4512 14.0000
    vertex 0.0000 0.0000 14.0000
  endloop
endfacet
facet normal 0.0000 0.0000 1.0000
  outer loop
    vertex 3.5006 8.4512 14.0000
    vertex 1.6647 8.3690 14.0000
    vertex 0.0000 0.0000 14.0000
  endloop
endfacet
facet normal 0.0000 0.0000 1.0000
  outer loop
    vertex 1.6647 8.3690 14.0000
    vertex 0.0000 8.7875 14.0000
    vertex 0.0000 0.0000 14.0000
  endloop
endfacet
facet normal 0.0000 0.0000 1.0000
  outer loop
    vertex 0.0000 8.7875 14.0000
    vertex -1.7640 8.8683 14.0000
    vertex 0.0000 0.0000 14.0000
  endloop
endfacet
facet normal 0.0000 0.0000 1.0000
  outer loop
    vertex -1.7640 8.8683 14.0000
    vertex -3.2251 7.7860 14.0000
    vertex 0.0000 0.0000 14.0000
  endloop
endfacet
facet normal 0.0000 0.0000 1.0000
  outer loop
    vertex -3.2251 7.7860 14.0000
    vertex -5.0235 7.5182 14.0000
    vertex 0.0000 0.0000 14.0000
  endloop
endfacet
facet normal 0.0000 0.0000 1.0000
  outer loop
    vertex -5.0235 7.5182 14.0000
    vertex -6.2137 6.2137 14.0000
    vertex 0.0000 0.0000 14.0000
  endloop
endfacet
facet normal 0.0000 0.0000 1.0000
  outer loop
    vertex -6.2137 6.2137 14.0000
    vertex -7.0949 4.7406 14.0000
    vertex 0.0000 0.0000 14.0000
  endloop
endfacet
facet normal 0.0000 0.0000 1.0000
  outer loop
    vertex -7.0949 4.7406 14.0000
    vertex -8.4512 3.5006 14.0000
    vertex 0.0000 0.0000 14.0000
  endloop
endfacet
facet normal 0.0000 0.0000 1.0000
  outer loop
    vertex -8.4512 3.5006 14.0000
    vertex -8.3690 1.6647 14.0000
    vertex 0.0000 0.0000 14.0000
  endloop
endfacet
facet normal 0.0000 0.0000 1.0000
  outer loop
    vertex -8.3690 1.6647 14.0000
    vertex -8.7875 0.0000 14.0000
    vertex 0.0000 0.0000 14.0000
  endloop
endfacet
facet normal 0.0000 0.0000 1.0000
  outer loop
    vertex -8.7875 0.0000 14.0000
    vertex -8.8683 -1.7640 14.0000
    vertex 0.0000 0.0000 14.0000
  endloop
endfacet
facet normal 0.0000 0.0000 1.0000
  outer loop
    vertex -8.8683 -1.7640 14.0000
    vertex -7.7860 -3.2251 14.0000
    vertex 0.0000 0.0000 14.0000
  endloop
endfacet
facet normal 0.0000 0.0000 1.0000
  outer loop
    vertex -7.7860 -3.2251 14.0000
    vertex -7.5182 -5.0235 14.0000
    vertex 0.0000 0.0000 14.0000
  endloop
endfacet
facet normal 0.0000 0.0000 1.0000
  outer loop
    vertex -7.5182 -5.0235 14.0000
    vertex -6.2137 -6.2137 14.0000
    vertex 0.0000 0.0000 14.0000
  endloop
endfacet
facet normal 0.0000 0.0000 1.0000
  outer loop
    vertex -6.2137 -6.2137 14.0000
    vertex -4.7406 -7.0949 14.0000
    vertex 0.0000 0.0000 14.0000
  endloop
endfacet
facet normal 0.0000 0.0000 1.0000
  outer loop
    vertex -4.7406 -7.0949 14.0000
    vertex -3.5006 -8.4512 14.0000
    vertex 0.0000 0.0000 14.0000
  endloop
endfacet
facet normal 0.0000 0.0000 1.0000
  outer loop
    vertex -3.5006 -8.4512 14.0000
    vertex -1.6647 -8.3690 14.0000
    vertex 0.0000 0.0000 14.0000
  endloop
endfacet
facet normal 0.0000 0.0000 1.0000
  outer loop
    vertex -1.6647 -8.3690 14.0000
    vertex -0.0000 -8.7875 14.0000
    vertex 0.0000 0.0000 14.0000
  endloop
endfacet
facet normal 0.0000 0.0000 1.0000
  outer loop
    vertex -0.0000 -8.7875 14.0000
    vertex 1.7640 -8.8683 14.0000
    vertex 0.0000 0.0000 14.0000
  endloop
endfacet
facet normal 0.0000 0.0000 1.0000
  outer loop
    vertex 1.7640 -8.8683 14.0000
    vertex 3.2251 -7.7860 14.0000
    vertex 0.0000 0.0000 14.0000
  endloop
endfacet
facet normal 0.0000 0.0000 1.0000
  outer loop
    vertex 3.2251 -7.7860 14.0000
    vertex 5.0235 -7.5182 14.0000
    vertex 0.0000 0.0000 14.0000
  endloop
endfacet
facet normal 0.0000 0.0000 1.0000
  outer loop
    vertex 5.0235 -7.5182 14.0000
    vertex 6.2137 -6.2137 14.0000
    vertex 0.0000 0.0000 14.0000
  endloop
endfacet
facet normal 0.0000 0.0000 1.0000
  outer loop
    vertex 6.2137 -6.2137 14.0000
    vertex 7.0949 -4.7406 14.0000
    vertex 0.0000 0.0000 14.0000
  endloop
endfacet
facet normal 0.0000 0.0000 1.0000
  outer loop
    vertex 7.0949 -4.7406 14.0000
    vertex 8.4512 -3.5006 14.0000
    vertex 0.0000 0.0000 14.0000
  endloop
endfacet
facet normal 0.0000 0.0000 1.0000
  outer loop
    vertex 8.4512 -3.5006 14.0000
    vertex 8.3690 -1.6647 14.0000
    vertex 0.0000 0.0000 14.0000
  endloop
endfacet
facet normal 0.0000 0.0000 1.0000
  outer loop
    vertex 8.3690 -1.6647 14.0000
    vertex 8.7875 0.0000 14.0000
    vertex 0.0000 0.0000 14.0000
  endloop
endfacet
facet normal 0.0000 0.0000 -1.0000
  outer loop
    vertex 5.3609 1.4364 12.0000
    vertex 5.5500 0.0000 12.0000
    vertex 0.0000 0.0000 12.0000
  endloop
endfacet
facet normal 0.0000 0.0000 -1.0000
  outer loop
    vertex 4.8064 2.7750 12.0000
    vertex 5.3609 1.4364 12.0000
    vertex 0.0000 0.0000 12.0000
  endloop
endfacet
facet normal 0.0000 0.0000 -1.0000
  outer loop
    vertex 3.9244 3.9244 12.0000
    vertex 4.8064 2.7750 12.0000
    vertex 0.0000 0.0000 12.0000
  endloop
endfacet
facet normal 0.0000 0.0000 -1.0000
  outer loop
    vertex 2.7750 4.8064 12.0000
    vertex 3.9244 3.9244 12.0000
    vertex 0.0000 0.0000 12.0000
  endloop
endfacet
facet normal 0.0000 0.0000 -1.0000
  outer loop
    vertex 1.4364 5.3609 12.0000
    vertex 2.7750 4.8064 12.0000
    vertex 0.0000 0.0000 12.0000
  endloop
endfacet
facet normal 0.0000 0.0000 -1.0000
  outer loop
    vertex 0.0000 5.5500 12.0000
    vertex 1.4364 5.3609 12.0000
    vertex 0.0000 0.0000 12.0000
  endloop
endfacet
facet normal 0.0000 0.0000 -1.0000
  outer loop
    vertex -1.4364 5.3609 12.0000
    vertex 0.0000 5.5500 12.0000
    vertex 0.0000 0.0000 12.0000
  endloop
endfacet
facet normal 0.0000 0.0000 -1.0000
  outer loop
    vertex -2.7750 4.8064 12.0000
    vertex -1.4364 5.3609 12.0000
    vertex 0.0000 0.0000 12.0000
  endloop
endfacet
facet normal 0.0000 0.0000 -1.0000
  outer loop
    vertex -3.9244 3.9244 12.0000
    vertex -2.7750 4.8064 12.0000
    vertex 0.0000 0.0000 12.0000
  endloop
endfacet
facet normal 0.0000 0.0000 -1.0000
  outer loop
    vertex -4.8064 2.7750 12.0000
    vertex -3.9244 3.9244 12.0000
    vertex 0.0000 0.0000 12.0000
  endloop
endfacet
facet normal 0.0000 0.0000 -1.0000
  outer loop
    vertex -5.3609 1.4364 12.0000
    vertex -4.8064 2.7750 12.0000
    vertex 0.0000 0.0000 12.0000
  endloop
endfacet
facet normal 0.0000 0.0000 -1.0000
  outer loop
    vertex -5.5500 0.0000 12.0000
    vertex -5.3609 1.4364 12.0000
    vertex 0.0000 0.0000 12.0000
  endloop
endfacet
facet normal 0.0000 0.0000 -1.0000
  outer loop
    vertex -5.3609 -1.4364 12.0000
    vertex -5.5500 0.0000 12.0000
    vertex 0.0000 0.0000 12.0000
  endloop
endfacet
facet normal 0.0000 0.0000 -1.0000
  outer loop
    vertex -4.8064 -2.7750 12.0000
    vertex -5.3609 -1.4364 12.0000
    vertex 0.0000 0.0000 12.0000
  endloop
endfacet
facet normal 0.0000 0.0000 -1.0000
  outer loop
    vertex -3.9244 -3.9244 12.0000
    vertex -4.8064 -2.7750 12.0000
    vertex 0.0000 0.0000 12.0000
  endloop
endfacet
facet normal 0.0000 0.0000 -1.0000
  outer loop
    vertex -2.7750 -4.8064 12.0000
    vertex -3.9244 -3.9244 12.0000
    vertex 0.0000 0.0000 12.0000
  endloop
endfacet
facet normal 0.0000 0.0000 -1.0000
  outer loop
    vertex -1.4364 -5.3609 12.0000
    vertex -2.7750 -4.8064 12.0000
    vertex 0.0000 0.0000 12.0000
  endloop
endfacet
facet normal 0.0000 0.0000 -1.0000
  outer loop
    vertex -0.0000 -5.5500 12.0000
    vertex -1.4364 -5.3609 12.0000
    vertex 0.0000 0.0000 12.0000
  endloop
endfacet
facet normal 0.0000 0.0000 -1.0000
  outer loop
    vertex 1.4364 -5.3609 12.0000
    vertex -0.0000 -5.5500 12.0000
    vertex 0.0000 0.0000 12.0000
  endloop
endfacet
facet normal 0.0000 0.0000 -1.0000
  outer loop
    vertex 2.7750 -4.8064 12.0000
    vertex 1.4364 -5.3609 12.0000
    vertex 0.0000 0.0000 12.0000
  endloop
endfacet
facet normal 0.0000 0.0000 -1.0000
  outer loop
    vertex 3.9244 -3.9244 12.0000
    vertex 2.7750 -4.8064 12.0000
    vertex 0.0000 0.0000 12.0000
  endloop
endfacet
facet normal 0.0000 0.0000 -1.0000
  outer loop
    vertex 4.8064 -2.7750 12.0000
    vertex 3.9244 -3.9244 12.0000
    vertex 0.0000 0.0000 12.0000
  endloop
endfacet
facet normal 0.0000 0.0000 -1.0000
  outer loop
    vertex 5.3609 -1.4364 12.0000
    vertex 4.8064 -2.7750 12.0000
    vertex 0.0000 0.0000 12.0000
  endloop
endfacet
facet normal 0.0000 0.0000 -1.0000
  outer loop
    vertex 5.5500 0.0000 12.0000
    vertex 5.3609 -1.4364 12.0000
    vertex 0.0000 0.0000 12.0000
  endloop
endfacet
facet normal 0.0000 0.0000 -1.0000
  outer loop
    vertex 9.3219 1.8542 0.0000
    vertex 9.2500 0.0000 0.0000
    vertex 5.5500 0.0000 0.0000
  endloop
endfacet
facet normal 0.0000 0.0000 0.0000
  outer loop
    vertex 9.3219 1.8542 0.0000
    vertex 5.5500 0.0000 0.0000
    vertex 5.5500 0.0000 0.0000
  endloop
endfacet
facet normal 0.0000 0.0000 -1.0000
  outer loop
    vertex 8.2133 3.4021 0.0000
    vertex 9.3219 1.8542 0.0000
    vertex 5.5500 0.0000 0.0000
  endloop
endfacet
facet normal 0.0000 0.0000 -1.0000
  outer loop
    vertex 8.2133 3.4021 0.0000
    vertex 5.5500 0.0000 0.0000
    vertex 5.3609 1.4364 0.0000
  endloop
endfacet
facet normal 0.0000 0.0000 -1.0000
  outer loop
    vertex 7.9028 5.2804 0.0000
    vertex 8.2133 3.4021 0.0000
    vertex 5.3609 1.4364 0.0000
  endloop
endfacet
facet normal 0.0000 0.0000 -1.0000
  outer loop
    vertex 7.9028 5.2804 0.0000
    vertex 5.3609 1.4364 0.0000
    vertex 4.8064 2.7750 0.0000
  endloop
endfacet
facet normal 0.0000 0.0000 -1.0000
  outer loop
    vertex 6.5407 6.5407 0.0000
    vertex 7.9028 5.2804 0.0000
    vertex 4.8064 2.7750 0.0000
  endloop
endfacet
facet normal 0.0000 0.0000 -1.0000
  outer loop
    vertex 6.5407 6.5407 0.0000
    vertex 4.8064 2.7750 0.0000
    vertex 3.9244 3.9244 0.0000
  endloop
endfacet
facet normal 0.0000 0.0000 -1.0000
  outer loop
    vertex 4.9976 7.4794 0.0000
    vertex 6.5407 6.5407 0.0000
    vertex 3.9244 3.9244 0.0000
  endloop
endfacet
facet normal 0.0000 0.0000 0.0000
  outer loop
    vertex 4.9976 7.4794 0.0000
    vertex 3.9244 3.9244 0.0000
    vertex 3.9244 3.9244 0.0000
  endloop
endfacet
facet normal 0.0000 0.0000 -1.0000
  outer loop
    vertex 3.6776 8.8785 0.0000
    vertex 4.9976 7.4794 0.0000
    vertex 3.9244 3.9244 0.0000
  endloop
endfacet
facet normal 0.0000 0.0000 -1.0000
  outer loop
    vertex 3.6776 8.8785 0.0000
    vertex 3.9244 3.9244 0.0000
    vertex 2.7750 4.8064 0.0000
  endloop
endfacet
facet normal 0.0000 0.0000 -1.0000
  outer loop
    vertex 1.7549 8.8226 0.0000
    vertex 3.6776 8.8785 0.0000
    vertex 2.7750 4.8064 0.0000
  endloop
endfacet
facet normal 0.0000 0.0000 -1.0000
  outer loop
    vertex 1.7549 8.8226 0.0000
    vertex 2.7750 4.8064 0.0000
    vertex 1.4364 5.3609 0.0000
  endloop
endfacet
facet normal 0.0000 0.0000 -1.0000
  outer loop
    vertex 0.0000 9.2500 0.0000
    vertex 1.7549 8.8226 0.0000
    vertex 1.4364 5.3609 0.0000
  endloop
endfacet
facet normal 0.0000 0.0000 -1.0000
  outer loop
    vertex 0.0000 9.2500 0.0000
    vertex 1.4364 5.3609 0.0000
    vertex 0.0000 5.5500 0.0000
  endloop
endfacet
facet normal 0.0000 0.0000 -1.0000
  outer loop
    vertex -1.8542 9.3219 0.0000
    vertex 0.0000 9.2500 0.0000
    vertex 0.0000 5.5500 0.0000
  endloop
endfacet
facet normal 0.0000 0.0000 0.0000
  outer loop
    vertex -1.8542 9.3219 0.0000
    vertex 0.0000 5.5500 0.0000
    vertex 0.0000 5.5500 0.0000
  endloop
endfacet
facet normal 0.0000 0.0000 -1.0000
  outer loop
    vertex -3.4021 8.2133 0.0000
    vertex -1.8542 9.3219 0.0000
    vertex 0.0000 5.5500 0.0000
  endloop
endfacet
facet normal 0.0000 0.0000 -1.0000
  outer loop
    vertex -3.4021 8.2133 0.0000
    vertex 0.0000 5.5500 0.0000
    vertex -1.4364 5.3609 0.0000
  endloop
endfacet
facet normal 0.0000 0.0000 -1.0000
  outer loop
    vertex -5.2804 7.9028 0.0000
    vertex -3.4021 8.2133 0.0000
    vertex -1.4364 5.3609 0.0000
  endloop
endfacet
facet normal 0.0000 0.0000 -1.0000
  outer loop
    vertex -5.2804 7.9028 0.0000
    vertex -1.4364 5.3609 0.0000
    vertex -2.7750 4.8064 0.0000
  endloop
endfacet
facet normal 0.0000 0.0000 -1.0000
  outer loop
    vertex -6.5407 6.5407 0.0000
    vertex -5.2804 7.9028 0.0000
    vertex -2.7750 4.8064 0.0000
  endloop
endfacet
facet normal 0.0000 0.0000 -1.0000
  outer loop
    vertex -6.5407 6.5407 0.0000
    vertex -2.7750 4.8064 0.0000
    vertex -3.9244 3.9244 0.0000
  endloop
endfacet
facet normal 0.0000 0.0000 -1.0000
  outer loop
    vertex -7.4794 4.9976 0.0000
    vertex -6.5407 6.5407 0.0000
    vertex -3.9244 3.9244 0.0000
  endloop
endfacet
facet normal 0.0000 0.0000 0.0000
  outer loop
    vertex -7.4794 4.9976 0.0000
    vertex -3.9244 3.9244 0.0000
    vertex -3.9244 3.9244 0.0000
  endloop
endfacet
facet normal 0.0000 0.0000 -1.0000
  outer loop
    vertex -8.8785 3.6776 0.0000
    vertex -7.4794 4.9976 0.0000
    vertex -3.9244 3.9244 0.0000
  endloop
endfacet
facet normal 0.0000 0.0000 -1.0000
  outer loop
    vertex -8.8785 3.6776 0.0000
    vertex -3.9244 3.9244 0.0000
    vertex -4.8064 2.7750 0.0000
  endloop
endfacet
facet normal 0.0000 0.0000 -1.0000
  outer loop
    vertex -8.8226 1.7549 0.0000
    vertex -8.8785 3.6776 0.0000
    vertex -4.8064 2.7750 0.0000
  endloop
endfacet
facet normal 0.0000 0.0000 -1.0000
  outer loop
    vertex -8.8226 1.7549 0.0000
    vertex -4.8064 2.7750 0.0000
    vertex -5.3609 1.4364 0.0000
  endloop
endfacet
facet normal 0.0000 0.0000 -1.0000
  outer loop
    vertex -9.2500 0.0000 0.0000
    vertex -8.8226 1.7549 0.0000
    vertex -5.3609 1.4364 0.0000
  endloop
endfacet
facet normal 0.0000 0.0000 -1.0000
  outer loop
    vertex -9.2500 0.0000 0.0000
    vertex -5.3609 1.4364 0.0000
    vertex -5.5500 0.0000 0.0000
  endloop
endfacet
facet normal 0.0000 0.0000 -1.0000
  outer loop
    vertex -9.3219 -1.8542 0.0000
    vertex -9.2500 0.0000 0.0000
    vertex -5.5500 0.0000 0.0000
  endloop
endfacet
facet normal 0.0000 0.0000 0.0000
  outer loop
    vertex -9.3219 -1.8542 0.0000
    vertex -5.5500 0.0000 0.0000
    vertex -5.5500 0.0000 0.0000
  endloop
endfacet
facet normal 0.0000 0.0000 -1.0000
  outer loop
    vertex -8.2133 -3.4021 0.0000
    vertex -9.3219 -1.8542 0.0000
    vertex -5.5500 0.0000 0.0000
  endloop
endfacet
facet normal 0.0000 0.0000 -1.0000
  outer loop
    vertex -8.2133 -3.4021 0.0000
    vertex -5.5500 0.0000 0.0000
    vertex -5.3609 -1.4364 0.0000
  endloop
endfacet
facet normal 0.0000 0.0000 -1.0000
  outer loop
    vertex -7.9028 -5.2804 0.0000
    vertex -8.2133 -3.4021 0.0000
    vertex -5.3609 -1.4364 0.0000
  endloop
endfacet
facet normal 0.0000 0.0000 -1.0000
  outer loop
    vertex -7.9028 -5.2804 0.0000
    vertex -5.3609 -1.4364 0.0000
    vertex -4.8064 -2.7750 0.0000
  endloop
endfacet
facet normal 0.0000 0.0000 -1.0000
  outer loop
    vertex -6.5407 -6.5407 0.0000
    vertex -7.9028 -5.2804 0.0000
    vertex -4.8064 -2.7750 0.0000
  endloop
endfacet
facet normal 0.0000 0.0000 -1.0000
  outer loop
    vertex -6.5407 -6.5407 0.0000
    vertex -4.8064 -2.7750 0.0000
    vertex -3.9244 -3.9244 0.0000
  endloop
endfacet
facet normal 0.0000 0.0000 -1.0000
  outer loop
    vertex -4.9976 -7.4794 0.0000
    vertex -6.5407 -6.5407 0.0000
    vertex -3.9244 -3.9244 0.0000
  endloop
endfacet
facet normal 0.0000 0.0000 0.0000
  outer loop
    vertex -4.9976 -7.4794 0.0000
    vertex -3.9244 -3.9244 0.0000
    vertex -3.9244 -3.9244 0.0000
  endloop
endfacet
facet normal 0.0000 0.0000 -1.0000
  outer loop
    vertex -3.6776 -8.8785 0.0000
    vertex -4.9976 -7.4794 0.0000
    vertex -3.9244 -3.9244 0.0000
  endloop
endfacet
facet normal 0.0000 0.0000 -1.0000
  outer loop
    vertex -3.6776 -8.8785 0.0000
    vertex -3.9244 -3.9244 0.0000
    vertex -2.7750 -4.8064 0.0000
  endloop
endfacet
facet normal 0.0000 0.0000 -1.0000
  outer loop
    vertex -1.7549 -8.8226 0.0000
    vertex -3.6776 -8.8785 0.0000
    vertex -2.7750 -4.8064 0.0000
  endloop
endfacet
facet normal 0.0000 0.0000 -1.0000
  outer loop
    vertex -1.7549 -8.8226 0.0000
    vertex -2.7750 -4.8064 0.0000
    vertex -1.4364 -5.3609 0.0000
  endloop
endfacet
facet normal 0.0000 0.0000 -1.0000
  outer loop
    vertex -0.0000 -9.2500 0.0000
    vertex -1.7549 -8.8226 0.0000
    vertex -1.4364 -5.3609 0.0000
  endloop
endfacet
facet normal 0.0000 0.0000 -1.0000
  outer loop
    vertex -0.0000 -9.2500 0.0000
    vertex -1.4364 -5.3609 0.0000
    vertex -0.0000 -5.5500 0.0000
  endloop
endfacet
facet normal 0.0000 0.0000 -1.0000
  outer loop
    vertex 1.8542 -9.3219 0.0000
    vertex -0.0000 -9.2500 0.0000
    vertex -0.0000 -5.5500 0.0000
  endloop
endfacet
facet normal 0.0000 0.0000 0.0000
  outer loop
    vertex 1.8542 -9.3219 0.0000
    vertex -0.0000 -5.5500 0.0000
    vertex -0.0000 -5.5500 0.0000
  endloop
endfacet
facet normal 0.0000 0.0000 -1.0000
  outer loop
    vertex 3.4021 -8.2133 0.0000
    vertex 1.8542 -9.3219 0.0000
    vertex -0.0000 -5.5500 0.0000
  endloop
endfacet
facet normal 0.0000 0.0000 -1.0000
  outer loop
    vertex 3.4021 -8.2133 0.0000
    vertex -0.0000 -5.5500 0.0000
    vertex 1.4364 -5.3609 0.0000
  endloop
endfacet
facet normal 0.0000 0.0000 -1.0000
  outer loop
    vertex 5.2804 -7.9028 0.0000
    vertex 3.4021 -8.2133 0.0000
    vertex 1.4364 -5.3609 0.0000
  endloop
endfacet
facet normal 0.0000 0.0000 -1.0000
  outer loop
    vertex 5.2804 -7.9028 0.0000
    vertex 1.4364 -5.3609 0.0000
    vertex 2.7750 -4.8064 0.0000
  endloop
endfacet
facet normal 0.0000 0.0000 -1.0000
  outer loop
    vertex 6.5407 -6.5407 0.0000
    vertex 5.2804 -7.9028 0.0000
    vertex 2.7750 -4.8064 0.0000
  endloop
endfacet
facet normal 0.0000 0.0000 -1.0000
  outer loop
    vertex 6.5407 -6.5407 0.0000
    vertex 2.7750 -4.8064 0.0000
    vertex 3.9244 -3.9244 0.0000
  endloop
endfacet
facet normal 0.0000 0.0000 -1.0000
  outer loop
    vertex 7.4794 -4.9976 0.0000
    vertex 6.5407 -6.5407 0.0000
    vertex 3.9244 -3.9244 0.0000
  endloop
endfacet
facet normal 0.0000 0.0000 0.0000
  outer loop
    vertex 7.4794 -4.9976 0.0000
    vertex 3.9244 -3.9244 0.0000
    vertex 3.9244 -3.9244 0.0000
  endloop
endfacet
facet normal 0.0000 0.0000 -1.0000
  outer loop
    vertex 8.8785 -3.6776 0.0000
    vertex 7.4794 -4.9976 0.0000
    vertex 3.9244 -3.9244 0.0000
  endloop
endfacet
facet normal 0.0000 0.0000 -1.0000
  outer loop
    vertex 8.8785 -3.6776 0.0000
    vertex 3.9244 -3.9244 0.0000
    vertex 4.8064 -2.7750 0.0000
  endloop
endfacet
facet normal 0.0000 0.0000 -1.0000
  outer loop
    vertex 8.8226 -1.7549 0.0000
    vertex 8.8785 -3.6776 0.0000
    vertex 4.8064 -2.7750 0.0000
  endloop
endfacet
facet normal 0.0000 0.0000 -1.0000
  outer loop
    vertex 8.8226 -1.7549 0.0000
    vertex 4.8064 -2.7750 0.0000
    vertex 5.3609 -1.4364 0.0000
  endloop
endfacet
facet normal 0.0000 0.0000 -1.0000
  outer loop
    vertex 9.2500 0.0000 0.0000
    vertex 8.8226 -1.7549 0.0000
    vertex 5.3609 -1.4364 0.0000
  endloop
endfacet
facet normal 0.0000 0.0000 -1.0000
  outer loop
    vertex 9.2500 0.0000 0.0000
    vertex 5.3609 -1.4364 0.0000
    vertex 5.5500 0.0000 0.0000
  endloop
endfacet
endsolid re303_vol_slipon
