solid shruthi_xt_slipon
facet normal 0.9979 0.0180 0.0629
  outer loop
    vertex 9.6000 0.0000 0.0000
    vertex 9.5657 1.9027 0.0000
    vertex 8.6241 1.7154 15.0000
  endloop
endfacet
facet normal 0.9979 0.0092 0.0639
  outer loop
    vertex 9.6000 0.0000 0.0000
    vertex 8.6241 1.7154 15.0000
    vertex 8.6400 0.0000 15.0000
  endloop
endfacet
facet normal 0.8648 0.4981 0.0633
  outer loop
    vertex 9.5657 1.9027 0.0000
    vertex 8.6079 3.5655 0.0000
    vertex 7.7210 3.1981 15.0000
  endloop
endfacet
facet normal 0.8525 0.5193 0.0600
  outer loop
    vertex 9.5657 1.9027 0.0000
    vertex 7.7210 3.1981 15.0000
    vertex 8.6241 1.7154 15.0000
  endloop
endfacet
facet normal 0.9856 0.1591 0.0581
  outer loop
    vertex 8.6079 3.5655 0.0000
    vertex 8.2894 5.5388 0.0000
    vertex 7.4912 5.0054 15.0000
  endloop
endfacet
facet normal 0.9901 0.1259 0.0616
  outer loop
    vertex 8.6079 3.5655 0.0000
    vertex 7.4912 5.0054 15.0000
    vertex 7.7210 3.1981 15.0000
  endloop
endfacet
facet normal 0.4755 0.8776 0.0612
  outer loop
    vertex 8.2894 5.5388 0.0000
    vertex 6.5054 6.5054 0.0000
    vertex 5.8266 5.8266 15.0000
  endloop
endfacet
facet normal 0.4417 0.8954 0.0553
  outer loop
    vertex 8.2894 5.5388 0.0000
    vertex 5.8266 5.8266 15.0000
    vertex 7.4912 5.0054 15.0000
  endloop
endfacet
facet normal 0.8778 0.4756 0.0565
  outer loop
    vertex 6.5054 6.5054 0.0000
    vertex 5.5388 8.2894 0.0000
    vertex 5.0054 7.4912 15.0000
  endloop
endfacet
facet normal 0.8952 0.4416 0.0605
  outer loop
    vertex 6.5054 6.5054 0.0000
    vertex 5.0054 7.4912 15.0000
    vertex 5.8266 5.8266 15.0000
  endloop
endfacet
facet normal 0.1591 0.9853 0.0622
  outer loop
    vertex 5.5388 8.2894 0.0000
    vertex 3.5655 8.6079 0.0000
    vertex 3.1981 7.7210 15.0000
  endloop
endfacet
facet normal 0.1260 0.9904 0.0572
  outer loop
    vertex 5.5388 8.2894 0.0000
    vertex 3.1981 7.7210 15.0000
    vertex 5.0054 7.4912 15.0000
  endloop
endfacet
facet normal 0.4982 0.8649 0.0605
  outer loop
    vertex 3.5655 8.6079 0.0000
    vertex 1.9027 9.5657 0.0000
    vertex 1.7154 8.6241 15.0000
  endloop
endfacet
facet normal 0.5192 0.8523 0.0631
  outer loop
    vertex 3.5655 8.6079 0.0000
    vertex 1.7154 8.6241 15.0000
    vertex 3.1981 7.7210 15.0000
  endloop
endfacet
facet normal 0.0180 0.9978 0.0639
  outer loop
    vertex 1.9027 9.5657 0.0000
    vertex 0.0000 9.6000 0.0000
    vertex 0.0000 8.6400 15.0000
  endloop
endfacet
facet normal 0.0092 0.9980 0.0628
  outer loop
    vertex 1.9027 9.5657 0.0000
    vertex 0.0000 8.6400 15.0000
    vertex 1.7154 8.6241 15.0000
  endloop
endfacet
facet normal -0.1783 0.9819 0.0639
  outer loop
    vertex 0.0000 9.6000 0.0000
    vertex -1.8430 9.2654 0.0000
    vertex -1.6557 8.3239 15.0000
  endloop
endfacet
facet normal -0.1872 0.9803 0.0627
  outer loop
    vertex 0.0000 9.6000 0.0000
    vertex -1.6557 8.3239 15.0000
    vertex 0.0000 8.6400 15.0000
  endloop
endfacet
facet normal -0.0693 0.9958 0.0606
  outer loop
    vertex -1.8430 9.2654 0.0000
    vertex -3.7820 9.1306 0.0000
    vertex -3.4146 8.2436 15.0000
  endloop
endfacet
facet normal -0.0455 0.9970 0.0631
  outer loop
    vertex -1.8430 9.2654 0.0000
    vertex -3.4146 8.2436 15.0000
    vertex -1.6557 8.3239 15.0000
  endloop
endfacet
facet normal -0.7328 0.6776 0.0621
  outer loop
    vertex -3.7820 9.1306 0.0000
    vertex -5.1282 7.6748 0.0000
    vertex -4.5948 6.8766 15.0000
  endloop
endfacet
facet normal -0.7557 0.6524 0.0571
  outer loop
    vertex -3.7820 9.1306 0.0000
    vertex -4.5948 6.8766 15.0000
    vertex -3.4146 8.2436 15.0000
  endloop
endfacet
facet normal -0.2963 0.9534 0.0566
  outer loop
    vertex -5.1282 7.6748 0.0000
    vertex -7.0711 7.0711 0.0000
    vertex -6.3922 6.3922 15.0000
  endloop
endfacet
facet normal -0.2597 0.9638 0.0605
  outer loop
    vertex -5.1282 7.6748 0.0000
    vertex -6.3922 6.3922 15.0000
    vertex -4.5948 6.8766 15.0000
  endloop
endfacet
facet normal -0.9532 0.2962 0.0613
  outer loop
    vertex -7.0711 7.0711 0.0000
    vertex -7.6748 5.1282 0.0000
    vertex -6.8766 4.5948 15.0000
  endloop
endfacet
facet normal -0.9641 0.2598 0.0554
  outer loop
    vertex -7.0711 7.0711 0.0000
    vertex -6.8766 4.5948 15.0000
    vertex -6.3922 6.3922 15.0000
  endloop
endfacet
facet normal -0.6778 0.7330 0.0580
  outer loop
    vertex -7.6748 5.1282 0.0000
    vertex -9.1306 3.7820 0.0000
    vertex -8.2436 3.4146 15.0000
  endloop
endfacet
facet normal -0.6523 0.7555 0.0616
  outer loop
    vertex -7.6748 5.1282 0.0000
    vertex -8.2436 3.4146 15.0000
    vertex -6.8766 4.5948 15.0000
  endloop
endfacet
facet normal -0.9956 0.0692 0.0634
  outer loop
    vertex -9.1306 3.7820 0.0000
    vertex -9.2654 1.8430 0.0000
    vertex -8.3239 1.6557 15.0000
  endloop
endfacet
facet normal -0.9972 0.0455 0.0601
  outer loop
    vertex -9.1306 3.7820 0.0000
    vertex -8.3239 1.6557 15.0000
    vertex -8.2436 3.4146 15.0000
  endloop
endfacet
facet normal -0.9820 0.1783 0.0628
  outer loop
    vertex -9.2654 1.8430 0.0000
    vertex -9.6000 0.0000 0.0000
    vertex -8.6400 0.0000 15.0000
  endloop
endfacet
facet normal -0.9802 0.1872 0.0639
  outer loop
    vertex -9.2654 1.8430 0.0000
    vertex -8.6400 0.0000 15.0000
    vertex -8.3239 1.6557 15.0000
  endloop
endfacet
facet normal -0.9979 -0.0180 0.0629
  outer loop
    vertex -9.6000 0.0000 0.0000
    vertex -9.5657 -1.9027 0.0000
    vertex -8.6241 -1.7154 15.0000
  endloop
endfacet
facet normal -0.9979 -0.0092 0.0639
  outer loop
    vertex -9.6000 0.0000 0.0000
    vertex -8.6241 -1.7154 15.0000
    vertex -8.6400 0.0000 15.0000
  endloop
endfacet
facet normal -0.8648 -0.4981 0.0633
  outer loop
    vertex -9.5657 -1.9027 0.0000
    vertex -8.6079 -3.5655 0.0000
    vertex -7.7210 -3.1981 15.0000
  endloop
endfacet
facet normal -0.8525 -0.5193 0.0600
  outer loop
    vertex -9.5657 -1.9027 0.0000
    vertex -7.7210 -3.1981 15.0000
    vertex -8.6241 -1.7154 15.0000
  endloop
endfacet
facet normal -0.9856 -0.1591 0.0581
  outer loop
    vertex -8.6079 -3.5655 0.0000
    vertex -8.2894 -5.5388 0.0000
    vertex -7.4912 -5.0054 15.0000
  endloop
endfacet
facet normal -0.9901 -0.1259 0.0616
  outer loop
    vertex -8.6079 -3.5655 0.0000
    vertex -7.4912 -5.0054 15.0000
    vertex -7.7210 -3.1981 15.0000
  endloop
endfacet
facet normal -0.4755 -0.8776 0.0612
  outer loop
    vertex -8.2894 -5.5388 0.0000
    vertex -6.5054 -6.5054 0.0000
    vertex -5.8266 -5.8266 15.0000
  endloop
endfacet
facet normal -0.4417 -0.8954 0.0553
  outer loop
    vertex -8.2894 -5.5388 0.0000
    vertex -5.8266 -5.8266 15.0000
    vertex -7.4912 -5.0054 15.0000
  endloop
endfacet
facet normal -0.8778 -0.4756 0.0565
  outer loop
    vertex -6.5054 -6.5054 0.0000
    vertex -5.5388 -8.2894 0.0000
    vertex -5.0054 -7.4912 15.0000
  endloop
endfacet
facet normal -0.8952 -0.4416 0.0605
  outer loop
    vertex -6.5054 -6.5054 0.0000
    vertex -5.0054 -7.4912 15.0000
    vertex -5.8266 -5.8266 15.0000
  endloop
endfacet
facet normal -0.1591 -0.9853 0.0622
  outer loop
    vertex -5.5388 -8.2894 0.0000
    vertex -3.5655 -8.6079 0.0000
    vertex -3.1981 -7.7210 15.0000
  endloop
endfacet
facet normal -0.1260 -0.9904 0.0572
  outer loop
    vertex -5.5388 -8.2894 0.0000
    vertex -3.1981 -7.7210 15.0000
    vertex -5.0054 -7.4912 15.0000
  endloop
endfacet
facet normal -0.4982 -0.8649 0.0605
  outer loop
    vertex -3.5655 -8.6079 0.0000
    vertex -1.9027 -9.5657 0.0000
    vertex -1.7154 -8.6241 15.0000
  endloop
endfacet
facet normal -0.5192 -0.8523 0.0631
  outer loop
    vertex -3.5655 -8.6079 0.0000
    vertex -1.7154 -8.6241 15.0000
    vertex -3.1981 -7.7210 15.0000
  endloop
endfacet
facet normal -0.0180 -0.9978 0.0639
  outer loop
    vertex -1.9027 -9.5657 0.0000
    vertex -0.0000 -9.6000 0.0000
    vertex -0.0000 -8.6400 15.0000
  endloop
endfacet
facet normal -0.0092 -0.9980 0.0628
  outer loop
    vertex -1.9027 -9.5657 0.0000
    vertex -0.0000 -8.6400 15.0000
    vertex -1.7154 -8.6241 15.0000
  endloop
endfacet
facet normal 0.1783 -0.9819 0.0639
  outer loop
    vertex -0.0000 -9.6000 0.0000
    vertex 1.8430 -9.2654 0.0000
    vertex 1.6557 -8.3239 15.0000
  endloop
endfacet
facet normal 0.1872 -0.9803 0.0627
  outer loop
    vertex -0.0000 -9.6000 0.0000
    vertex 1.6557 -8.3239 15.0000
    vertex -0.0000 -8.6400 15.0000
  endloop
endfacet
facet normal 0.0693 -0.9958 0.0606
  outer loop
    vertex 1.8430 -9.2654 0.0000
    vertex 3.7820 -9.1306 0.0000
    vertex 3.4146 -8.2436 15.0000
  endloop
endfacet
facet normal 0.0455 -0.9970 0.0631
  outer loop
    vertex 1.8430 -9.2654 0.0000
    vertex 3.4146 -8.2436 15.0000
    vertex 1.6557 -8.3239 15.0000
  endloop
endfacet
facet normal 0.7328 -0.6776 0.0621
  outer loop
    vertex 3.7820 -9.1306 0.0000
    vertex 5.1282 -7.6748 0.0000
    vertex 4.5948 -6.8766 15.0000
  endloop
endfacet
facet normal 0.7557 -0.6524 0.0571
  outer loop
    vertex 3.7820 -9.1306 0.0000
    vertex 4.5948 -6.8766 15.0000
    vertex 3.4146 -8.2436 15.0000
  endloop
endfacet
facet normal 0.2963 -0.9534 0.0566
  outer loop
    vertex 5.1282 -7.6748 0.0000
    vertex 7.0711 -7.0711 0.0000
    vertex 6.3922 -6.3922 15.0000
  endloop
endfacet
facet normal 0.2597 -0.9638 0.0605
  outer loop
    vertex 5.1282 -7.6748 0.0000
    vertex 6.3922 -6.3922 15.0000
    vertex 4.5948 -6.8766 15.0000
  endloop
endfacet
facet normal 0.9532 -0.2962 0.0613
  outer loop
    vertex 7.0711 -7.0711 0.0000
    vertex 7.6748 -5.1282 0.0000
    vertex 6.8766 -4.5948 15.0000
  endloop
endfacet
facet normal 0.9641 -0.2598 0.0554
  outer loop
    vertex 7.0711 -7.0711 0.0000
    vertex 6.8766 -4.5948 15.0000
    vertex 6.3922 -6.3922 15.0000
  endloop
endfacet
facet normal 0.6778 -0.7330 0.0580
  outer loop
    vertex 7.6748 -5.1282 0.0000
    vertex 9.1306 -3.7820 0.0000
    vertex 8.2436 -3.4146 15.0000
  endloop
endfacet
facet normal 0.6523 -0.7555 0.0616
  outer loop
    vertex 7.6748 -5.1282 0.0000
    vertex 8.2436 -3.4146 15.0000
    vertex 6.8766 -4.5948 15.0000
  endloop
endfacet
facet normal 0.9956 -0.0692 0.0634
  outer loop
    vertex 9.1306 -3.7820 0.0000
    vertex 9.2654 -1.8430 0.0000
    vertex 8.3239 -1.6557 15.0000
  endloop
endfacet
facet normal 0.9972 -0.0455 0.0601
  outer loop
    vertex 9.1306 -3.7820 0.0000
    vertex 8.3239 -1.6557 15.0000
    vertex 8.2436 -3.4146 15.0000
  endloop
endfacet
facet normal 0.9820 -0.1783 0.0628
  outer loop
    vertex 9.2654 -1.8430 0.0000
    vertex 9.6000 0.0000 0.0000
    vertex 8.6400 0.0000 15.0000
  endloop
endfacet
facet normal 0.9802 -0.1872 0.0639
  outer loop
    vertex 9.2654 -1.8430 0.0000
    vertex 8.6400 0.0000 15.0000
    vertex 8.3239 -1.6557 15.0000
  endloop
endfacet
facet normal -0.9914 -0.1305 0.0000
  outer loop
    vertex 5.6990 1.5270 0.0000
    vertex 5.9000 0.0000 0.0000
    vertex 5.9000 0.0000 13.0000
  endloop
endfacet
facet normal -0.9914 -0.1305 0.0000
  outer loop
    vertex 5.6990 1.5270 0.0000
    vertex 5.9000 0.0000 13.0000
    vertex 5.6990 1.5270 13.0000
  endloop
endfacet
facet normal -0.9239 -0.3827 0.0000
  outer loop
    vertex 5.1095 2.9500 0.0000
    vertex 5.6990 1.5270 0.0000
    vertex 5.6990 1.5270 13.0000
  endloop
endfacet
facet normal -0.9239 -0.3827 0.0000
  outer loop
    vertex 5.1095 2.9500 0.0000
    vertex 5.6990 1.5270 13.0000
    vertex 5.1095 2.9500 13.0000
  endloop
endfacet
facet normal -0.7934 -0.6088 0.0000
  outer loop
    vertex 4.1719 4.1719 0.0000
    vertex 5.1095 2.9500 0.0000
    vertex 5.1095 2.9500 13.0000
  endloop
endfacet
facet normal -0.7934 -0.6088 0.0000
  outer loop
    vertex 4.1719 4.1719 0.0000
    vertex 5.1095 2.9500 13.0000
    vertex 4.1719 4.1719 13.0000
  endloop
endfacet
facet normal -0.6088 -0.7934 0.0000
  outer loop
    vertex 2.9500 5.1095 0.0000
    vertex 4.1719 4.1719 0.0000
    vertex 4.1719 4.1719 13.0000
  endloop
endfacet
facet normal -0.6088 -0.7934 0.0000
  outer loop
    vertex 2.9500 5.1095 0.0000
    vertex 4.1719 4.1719 13.0000
    vertex 2.9500 5.1095 13.0000
  endloop
endfacet
facet normal -0.3827 -0.9239 0.0000
  outer loop
    vertex 1.5270 5.6990 0.0000
    vertex 2.9500 5.1095 0.0000
    vertex 2.9500 5.1095 13.0000
  endloop
endfacet
facet normal -0.3827 -0.9239 0.0000
  outer loop
    vertex 1.5270 5.6990 0.0000
    vertex 2.9500 5.1095 13.0000
    vertex 1.5270 5.6990 13.0000
  endloop
endfacet
facet normal -0.1305 -0.9914 0.0000
  outer loop
    vertex 0.0000 5.9000 0.0000
    vertex 1.5270 5.6990 0.0000
    vertex 1.5270 5.6990 13.0000
  endloop
endfacet
facet normal -0.1305 -0.9914 0.0000
  outer loop
    vertex 0.0000 5.9000 0.0000
    vertex 1.5270 5.6990 13.0000
    vertex 0.0000 5.9000 13.0000
  endloop
endfacet
facet normal 0.1305 -0.9914 0.0000
  outer loop
    vertex -1.5270 5.6990 0.0000
    vertex 0.0000 5.9000 0.0000
    vertex 0.0000 5.9000 13.0000
  endloop
endfacet
facet normal 0.1305 -0.9914 0.0000
  outer loop
    vertex -1.5270 5.6990 0.0000
    vertex 0.0000 5.9000 13.0000
    vertex -1.5270 5.6990 13.0000
  endloop
endfacet
facet normal 0.3827 -0.9239 0.0000
  outer loop
    vertex -2.9500 5.1095 0.0000
    vertex -1.5270 5.6990 0.0000
    vertex -1.5270 5.6990 13.0000
  endloop
endfacet
facet normal 0.3827 -0.9239 0.0000
  outer loop
    vertex -2.9500 5.1095 0.0000
    vertex -1.5270 5.6990 13.0000
    vertex -2.9500 5.1095 13.0000
  endloop
endfacet
facet normal 0.6088 -0.7934 0.0000
  outer loop
    vertex -4.1719 4.1719 0.0000
    vertex -2.9500 5.1095 0.0000
    vertex -2.9500 5.1095 13.0000
  endloop
endfacet
facet normal 0.6088 -0.7934 0.0000
  outer loop
    vertex -4.1719 4.1719 0.0000
    vertex -2.9500 5.1095 13.0000
    vertex -4.1719 4.1719 13.0000
  endloop
endfacet
facet normal 0.7934 -0.6088 0.0000
  outer loop
    vertex -5.1095 2.9500 0.0000
    vertex -4.1719 4.1719 0.0000
    vertex -4.1719 4.1719 13.0000
  endloop
endfacet
facet normal 0.7934 -0.6088 0.0000
  outer loop
    vertex -5.1095 2.9500 0.0000
    vertex -4.1719 4.1719 13.0000
    vertex -5.1095 2.9500 13.0000
  endloop
endfacet
facet normal 0.9239 -0.3827 0.0000
  outer loop
    vertex -5.6990 1.5270 0.0000
    vertex -5.1095 2.9500 0.0000
    vertex -5.1095 2.9500 13.0000
  endloop
endfacet
facet normal 0.9239 -0.3827 0.0000
  outer loop
    vertex -5.6990 1.5270 0.0000
    vertex -5.1095 2.9500 13.0000
    vertex -5.6990 1.5270 13.0000
  endloop
endfacet
facet normal 0.9914 -0.1305 0.0000
  outer loop
    vertex -5.9000 0.0000 0.0000
    vertex -5.6990 1.5270 0.0000
    vertex -5.6990 1.5270 13.0000
  endloop
endfacet
facet normal 0.9914 -0.1305 0.0000
  outer loop
    vertex -5.9000 0.0000 0.0000
    vertex -5.6990 1.5270 13.0000
    vertex -5.9000 0.0000 13.0000
  endloop
endfacet
facet normal 0.9914 0.1305 0.0000
  outer loop
    vertex -5.6990 -1.5270 0.0000
    vertex -5.9000 0.0000 0.0000
    vertex -5.9000 0.0000 13.0000
  endloop
endfacet
facet normal 0.9914 0.1305 0.0000
  outer loop
    vertex -5.6990 -1.5270 0.0000
    vertex -5.9000 0.0000 13.0000
    vertex -5.6990 -1.5270 13.0000
  endloop
endfacet
facet normal 0.9239 0.3827 0.0000
  outer loop
    vertex -5.1095 -2.9500 0.0000
    vertex -5.6990 -1.5270 0.0000
    vertex -5.6990 -1.5270 13.0000
  endloop
endfacet
facet normal 0.9239 0.3827 0.0000
  outer loop
    vertex -5.1095 -2.9500 0.0000
    vertex -5.6990 -1.5270 13.0000
    vertex -5.1095 -2.9500 13.0000
  endloop
endfacet
facet normal 0.7934 0.6088 0.0000
  outer loop
    vertex -4.1719 -4.1719 0.0000
    vertex -5.1095 -2.9500 0.0000
    vertex -5.1095 -2.9500 13.0000
  endloop
endfacet
facet normal 0.7934 0.6088 0.0000
  outer loop
    vertex -4.1719 -4.1719 0.0000
    vertex -5.1095 -2.9500 13.0000
    vertex -4.1719 -4.1719 13.0000
  endloop
endfacet
facet normal 0.6088 0.7934 0.0000
  outer loop
    vertex -2.9500 -5.1095 0.0000
    vertex -4.1719 -4.1719 0.0000
    vertex -4.1719 -4.1719 13.0000
  endloop
endfacet
facet normal 0.6088 0.7934 0.0000
  outer loop
    vertex -2.9500 -5.1095 0.0000
    vertex -4.1719 -4.1719 13.0000
    vertex -2.9500 -5.1095 13.0000
  endloop
endfacet
facet normal 0.3827 0.9239 0.0000
  outer loop
    vertex -1.5270 -5.6990 0.0000
    vertex -2.9500 -5.1095 0.0000
    vertex -2.9500 -5.1095 13.0000
  endloop
endfacet
facet normal 0.3827 0.9239 0.0000
  outer loop
    vertex -1.5270 -5.6990 0.0000
    vertex -2.9500 -5.1095 13.0000
    vertex -1.5270 -5.6990 13.0000
  endloop
endfacet
facet normal 0.1305 0.9914 0.0000
  outer loop
    vertex -0.0000 -5.9000 0.0000
    vertex -1.5270 -5.6990 0.0000
    vertex -1.5270 -5.6990 13.0000
  endloop
endfacet
facet normal 0.1305 0.9914 0.0000
  outer loop
    vertex -0.0000 -5.9000 0.0000
    vertex -1.5270 -5.6990 13.0000
    vertex -0.0000 -5.9000 13.0000
  endloop
endfacet
facet normal -0.1305 0.9914 0.0000
  outer loop
    vertex 1.5270 -5.6990 0.0000
    vertex -0.0000 -5.9000 0.0000
    vertex -0.0000 -5.9000 13.0000
  endloop
endfacet
facet normal -0.1305 0.9914 0.0000
  outer loop
    vertex 1.5270 -5.6990 0.0000
    vertex -0.0000 -5.9000 13.0000
    vertex 1.5270 -5.6990 13.0000
  endloop
endfacet
facet normal -0.3827 0.9239 0.0000
  outer loop
    vertex 2.9500 -5.1095 0.0000
    vertex 1.5270 -5.6990 0.0000
    vertex 1.5270 -5.6990 13.0000
  endloop
endfacet
facet normal -0.3827 0.9239 0.0000
  outer loop
    vertex 2.9500 -5.1095 0.0000
    vertex 1.5270 -5.6990 13.0000
    vertex 2.9500 -5.1095 13.0000
  endloop
endfacet
facet normal -0.6088 0.7934 0.0000
  outer loop
    vertex 4.1719 -4.1719 0.0000
    vertex 2.9500 -5.1095 0.0000
    vertex 2.9500 -5.1095 13.0000
  endloop
endfacet
facet normal -0.6088 0.7934 0.0000
  outer loop
    vertex 4.1719 -4.1719 0.0000
    vertex 2.9500 -5.1095 13.0000
    vertex 4.1719 -4.1719 13.0000
  endloop
endfacet
facet normal -0.7934 0.6088 0.0000
  outer loop
    vertex 5.1095 -2.9500 0.0000
    vertex 4.1719 -4.1719 0.0000
    vertex 4.1719 -4.1719 13.0000
  endloop
endfacet
facet normal -0.7934 0.6088 0.0000
  outer loop
    vertex 5.1095 -2.9500 0.0000
    vertex 4.1719 -4.1719 13.0000
    vertex 5.1095 -2.9500 13.0000
  endloop
endfacet
facet normal -0.9239 0.3827 0.0000
  outer loop
    vertex 5.6990 -1.5270 0.0000
    vertex 5.1095 -2.9500 0.0000
    vertex 5.1095 -2.9500 13.0000
  endloop
endfacet
facet normal -0.9239 0.3827 0.0000
  outer loop
    vertex 5.6990 -1.5270 0.0000
    vertex 5.1095 -2.9500 13.0000
    vertex 5.6990 -1.5270 13.0000
  endloop
endfacet
facet normal -0.9914 0.1305 0.0000
  outer loop
    vertex 5.9000 0.0000 0.0000
    vertex 5.6990 -1.5270 0.0000
    vertex 5.6990 -1.5270 13.0000
  endloop
endfacet
facet normal -0.9914 0.1305 0.0000
  outer loop
    vertex 5.9000 0.0000 0.0000
    vertex 5.6990 -1.5270 13.0000
    vertex 5.9000 0.0000 13.0000
  endloop
endfacet
facet normal 0.0000 0.0000 1.0000
  outer loop
    vertex 8.6400 0.0000 15.0000
    vertex 8.6241 1.7154 15.0000
    vertex 0.0000 0.0000 15.0000
  endloop
endfacet
facet normal 0.0000 0.0000 1.0000
  outer loop
    vertex 8.6241 1.7154 15.0000
    vertex 7.7210 3.1981 15.0000
    vertex 0.0000 0.0000 15.0000
  endloop
endfacet
facet normal 0.0000 0.0000 1.0000
  outer loop
    vertex 7.7210 3.1981 15.0000
    vertex 7.4912 5.0054 15.0000
    vertex 0.0000 0.0000 15.0000
  endloop
endfacet
facet normal 0.0000 0.0000 1.0000
  outer loop
    vertex 7.4912 5.0054 15.0000
    vertex 5.8266 5.8266 15.0000
    vertex 0.0000 0.0000 15.0000
  endloop
endfacet
facet normal 0.0000 0.0000 1.0000
  outer loop
    vertex 5.8266 5.8266 15.0000
    vertex 5.0054 7.4912 15.0000
    vertex 0.0000 0.0000 15.0000
  endloop
endfacet
facet normal 0.0000 0.0000 1.0000
  outer loop
    vertex 5.0054 7.4912 15.0000
    vertex 3.1981 7.7210 15.0000
    vertex 0.0000 0.0000 15.0000
  endloop
endfacet
facet normal 0.0000 0.0000 1.0000
  outer loop
    vertex 3.1981 7.7210 15.0000
    vertex 1.7154 8.6241 15.0000
    vertex 0.0000 0.0000 15.0000
  endloop
endfacet
facet normal 0.0000 0.0000 1.0000
  outer loop
    vertex 1.7154 8.6241 15.0000
    vertex 0.0000 8.6400 15.0000
    vertex 0.0000 0.0000 15.0000
  endloop
endfacet
facet normal 0.0000 0.0000 1.0000
  outer loop
    vertex 0.0000 8.6400 15.0000
    vertex -1.6557 8.3239 15.0000
    vertex 0.0000 0.0000 15.0000
  endloop
endfacet
facet normal 0.0000 0.0000 1.0000
  outer loop
    vertex -1.6557 8.3239 15.0000
    vertex -3.4146 8.2436 15.0000
    vertex 0.0000 0.0000 15.0000
  endloop
endfacet
facet normal 0.0000 0.0000 1.0000
  outer loop
    vertex -3.4146 8.2436 15.0000
    vertex -4.5948 6.8766 15.0000
    vertex 0.0000 0.0000 15.0000
  endloop
endfacet
facet normal 0.0000 0.0000 1.0000
  outer loop
    vertex -4.5948 6.8766 15.0000
    vertex -6.3922 6.3922 15.0000
    vertex 0.0000 0.0000 15.0000
  endloop
endfacet
facet normal 0.0000 0.0000 1.0000
  outer loop
    vertex -6.3922 6.3922 15.0000
    vertex -6.8766 4.5948 15.0000
    vertex 0.0000 0.0000 15.0000
  endloop
endfacet
facet normal 0.0000 0.0000 1.0000
  outer loop
    vertex -6.8766 4.5948 15.0000
    vertex -8.2436 3.4146 15.0000
    vertex 0.0000 0.0000 15.0000
  endloop
endfacet
facet normal 0.0000 0.0000 1.0000
  outer loop
    vertex -8.2436 3.4146 15.0000
    vertex -8.3239 1.6557 15.0000
    vertex 0.0000 0.0000 15.0000
  endloop
endfacet
facet normal 0.0000 0.0000 1.0000
  outer loop
    vertex -8.3239 1.6557 15.0000
    vertex -8.6400 0.0000 15.0000
    vertex 0.0000 0.0000 15.0000
  endloop
endfacet
facet normal 0.0000 0.0000 1.0000
  outer loop
    vertex -8.6400 0.0000 15.0000
    vertex -8.6241 -1.7154 15.0000
    vertex 0.0000 0.0000 15.0000
  endloop
endfacet
facet normal 0.0000 0.0000 1.0000
  outer loop
    vertex -8.6241 -1.7154 15.0000
    vertex -7.7210 -3.1981 15.0000
    vertex 0.0000 0.0000 15.0000
  endloop
endfacet
facet normal 0.0000 0.0000 1.0000
  outer loop
    vertex -7.7210 -3.1981 15.0000
    vertex -7.4912 -5.0054 15.0000
    vertex 0.0000 0.0000 15.0000
  endloop
endfacet
facet normal 0.0000 0.0000 1.0000
  outer loop
    vertex -7.4912 -5.0054 15.0000
    vertex -5.8266 -5.8266 15.0000
    vertex 0.0000 0.0000 15.0000
  endloop
endfacet
facet normal 0.0000 0.0000 1.0000
  outer loop
    vertex -5.8266 -5.8266 15.0000
    vertex -5.0054 -7.4912 15.0000
    vertex 0.0000 0.0000 15.0000
  endloop
endfacet
facet normal 0.0000 0.0000 1.0000
  outer loop
    vertex -5.0054 -7.4912 15.0000
    vertex -3.1981 -7.7210 15.0000
    vertex 0.0000 0.0000 15.0000
  endloop
endfacet
facet normal 0.0000 0.0000 1.0000
  outer loop
    vertex -3.1981 -7.7210 15.0000
    vertex -1.7154 -8.6241 15.0000
    vertex 0.0000 0.0000 15.0000
  endloop
endfacet
facet normal 0.0000 0.0000 1.0000
  outer loop
    vertex -1.7154 -8.6241 15.0000
    vertex -0.0000 -8.6400 15.0000
    vertex 0.0000 0.0000 15.0000
  endloop
endfacet
facet normal 0.0000 0.0000 1.0000
  outer loop
    vertex -0.0000 -8.6400 15.0000
    vertex 1.6557 -8.3239 15.0000
    vertex 0.0000 0.0000 15.0000
  endloop
endfacet
facet normal 0.0000 0.0000 1.0000
  outer loop
    vertex 1.6557 -8.3239 15.0000
    vertex 3.4146 -8.2436 15.0000
    vertex 0.0000 0.0000 15.0000
  endloop
endfacet
facet normal 0.0000 0.0000 1.0000
  outer loop
    vertex 3.4146 -8.2436 15.0000
    vertex 4.5948 -6.8766 15.0000
    vertex 0.0000 0.0000 15.0000
  endloop
endfacet
facet normal 0.0000 0.0000 1.0000
  outer loop
    vertex 4.5948 -6.8766 15.0000
    vertex 6.3922 -6.3922 15.0000
    vertex 0.0000 0.0000 15.0000
  endloop
endfacet
facet normal 0.0000 0.0000 1.0000
  outer loop
    vertex 6.3922 -6.3922 15.0000
    vertex 6.8766 -4.5948 15.0000
    vertex 0.0000 0.0000 15.0000
  endloop
endfacet
facet normal 0.0000 0.0000 1.0000
  outer loop
    vertex 6.8766 -4.5948 15.0000
    vertex 8.2436 -3.4146 15.0000
    vertex 0.0000 0.0000 15.0000
  endloop
endfacet
facet normal 0.0000 0.0000 1.0000
  outer loop
    vertex 8.2436 -3.4146 15.0000
    vertex 8.3239 -1.6557 15.0000
    vertex 0.0000 0.0000 15.0000
  endloop
endfacet
facet normal 0.0000 0.0000 1.0000
  outer loop
    vertex 8.3239 -1.6557 15.0000
    vertex 8.6400 0.0000 15.0000
    vertex 0.0000 0.0000 15.0000
  endloop
endfacet
facet normal 0.0000 0.0000 -1.0000
  outer loop
    vertex 5.6990 1.5270 13.0000
    vertex 5.9000 0.0000 13.0000
    vertex 0.0000 0.0000 13.0000
  endloop
endfacet
facet normal 0.0000 0.0000 -1.0000
  outer loop
    vertex 5.1095 2.9500 13.0000
    vertex 5.6990 1.5270 13.0000
    vertex 0.0000 0.0000 13.0000
  endloop
endfacet
facet normal 0.0000 0.0000 -1.0000
  outer loop
    vertex 4.1719 4.1719 13.0000
    vertex 5.1095 2.9500 13.0000
    vertex 0.0000 0.0000 13.0000
  endloop
endfacet
facet normal 0.0000 0.0000 -1.0000
  outer loop
    vertex 2.9500 5.1095 13.0000
    vertex 4.1719 4.1719 13.0000
    vertex 0.0000 0.0000 13.0000
  endloop
endfacet
facet normal 0.0000 0.0000 -1.0000
  outer loop
    vertex 1.5270 5.6990 13.0000
    vertex 2.9500 5.1095 13.0000
    vertex 0.0000 0.0000 13.0000
  endloop
endfacet
facet normal 0.0000 0.0000 -1.0000
  outer loop
    vertex 0.0000 5.9000 13.0000
    vertex 1.5270 5.6990 13.0000
    vertex 0.0000 0.0000 13.0000
  endloop
endfacet
facet normal 0.0000 0.0000 -1.0000
  outer loop
    vertex -1.5270 5.6990 13.0000
    vertex 0.0000 5.9000 13.0000
    vertex 0.0000 0.0000 13.0000
  endloop
endfacet
facet normal 0.0000 0.0000 -1.0000
  outer loop
    vertex -2.9500 5.1095 13.0000
    vertex -1.5270 5.6990 13.0000
    vertex 0.0000 0.0000 13.0000
  endloop
endfacet
facet normal 0.0000 0.0000 -1.0000
  outer loop
    vertex -4.1719 4.1719 13.0000
    vertex -2.9500 5.1095 13.0000
    vertex 0.0000 0.0000 13.0000
  endloop
endfacet
facet normal 0.0000 0.0000 -1.0000
  outer loop
    vertex -5.1095 2.9500 13.0000
    vertex -4.1719 4.1719 13.0000
    vertex 0.0000 0.0000 13.0000
  endloop
endfacet
facet normal 0.0000 0.0000 -1.0000
  outer loop
    vertex -5.6990 1.5270 13.0000
    vertex -5.1095 2.9500 13.0000
    vertex 0.0000 0.0000 13.0000
  endloop
endfacet
facet normal 0.0000 0.0000 -1.0000
  outer loop
    vertex -5.9000 0.0000 13.0000
    vertex -5.6990 1.5270 13.0000
    vertex 0.0000 0.0000 13.0000
  endloop
endfacet
facet normal 0.0000 0.0000 -1.0000
  outer loop
    vertex -5.6990 -1.5270 13.0000
    vertex -5.9000 0.0000 13.0000
    vertex 0.0000 0.0000 13.0000
  endloop
endfacet
facet normal 0.0000 0.0000 -1.0000
  outer loop
    vertex -5.1095 -2.9500 13.0000
    vertex -5.6990 -1.5270 13.0000
    vertex 0.0000 0.0000 13.0000
  endloop
endfacet
facet normal 0.0000 0.0000 -1.0000
  outer loop
    vertex -4.1719 -4.1719 13.0000
    vertex -5.1095 -2.9500 13.0000
    vertex 0.0000 0.0000 13.0000
  endloop
endfacet
facet normal 0.0000 0.0000 -1.0000
  outer loop
    vertex -2.9500 -5.1095 13.0000
    vertex -4.1719 -4.1719 13.0000
    vertex 0.0000 0.0000 13.0000
  endloop
endfacet
facet normal 0.0000 0.0000 -1.0000
  outer loop
    vertex -1.5270 -5.6990 13.0000
    vertex -2.9500 -5.1095 13.0000
    vertex 0.0000 0.0000 13.0000
  endloop
endfacet
facet normal 0.0000 0.0000 -1.0000
  outer loop
    vertex -0.0000 -5.9000 13.0000
    vertex -1.5270 -5.6990 13.0000
    vertex 0.0000 0.0000 13.0000
  endloop
endfacet
facet normal 0.0000 0.0000 -1.0000
  outer loop
    vertex 1.5270 -5.6990 13.0000
    vertex -0.0000 -5.9000 13.0000
    vertex 0.0000 0.0000 13.0000
  endloop
endfacet
facet normal 0.0000 0.0000 -1.0000
  outer loop
    vertex 2.9500 -5.1095 13.0000
    vertex 1.5270 -5.6990 13.0000
    vertex 0.0000 0.0000 13.0000
  endloop
endfacet
facet normal 0.0000 0.0000 -1.0000
  outer loop
    vertex 4.1719 -4.1719 13.0000
    vertex 2.9500 -5.1095 13.0000
    vertex 0.0000 0.0000 13.0000
  endloop
endfacet
facet normal 0.0000 0.0000 -1.0000
  outer loop
    vertex 5.1095 -2.9500 13.0000
    vertex 4.1719 -4.1719 13.0000
    vertex 0.0000 0.0000 13.0000
  endloop
endfacet
facet normal 0.0000 0.0000 -1.0000
  outer loop
    vertex 5.6990 -1.5270 13.0000
    vertex 5.1095 -2.9500 13.0000
    vertex 0.0000 0.0000 13.0000
  endloop
endfacet
facet normal 0.0000 0.0000 -1.0000
  outer loop
    vertex 5.9000 0.0000 13.0000
    vertex 5.6990 -1.5270 13.0000
    vertex 0.0000 0.0000 13.0000
  endloop
endfacet
facet normal 0.0000 0.0000 -1.0000
  outer loop
    vertex 9.5657 1.9027 0.0000
    vertex 9.6000 0.0000 0.0000
    vertex 5.9000 0.0000 0.0000
  endloop
endfacet
facet normal 0.0000 0.0000 0.0000
  outer loop
    vertex 9.5657 1.9027 0.0000
    vertex 5.9000 0.0000 0.0000
    vertex 5.9000 0.0000 0.0000
  endloop
endfacet
facet normal 0.0000 0.0000 -1.0000
  outer loop
    vertex 8.6079 3.5655 0.0000
    vertex 9.5657 1.9027 0.0000
    vertex 5.9000 0.0000 0.0000
  endloop
endfacet
facet normal 0.0000 0.0000 -1.0000
  outer loop
    vertex 8.6079 3.5655 0.0000
    vertex 5.9000 0.0000 0.0000
    vertex 5.6990 1.5270 0.0000
  endloop
endfacet
facet normal 0.0000 0.0000 -1.0000
  outer loop
    vertex 8.2894 5.5388 0.0000
    vertex 8.6079 3.5655 0.0000
    vertex 5.6990 1.5270 0.0000
  endloop
endfacet
facet normal 0.0000 0.0000 -1.0000
  outer loop
    vertex 8.2894 5.5388 0.0000
    vertex 5.6990 1.5270 0.0000
    vertex 5.1095 2.9500 0.0000
  endloop
endfacet
facet normal 0.0000 0.0000 -1.0000
  outer loop
    vertex 6.5054 6.5054 0.0000
    vertex 8.2894 5.5388 0.0000
    vertex 5.1095 2.9500 0.0000
  endloop
endfacet
facet normal 0.0000 0.0000 -1.0000
  outer loop
    vertex 6.5054 6.5054 0.0000
    vertex 5.1095 2.9500 0.0000
    vertex 4.1719 4.1719 0.0000
  endloop
endfacet
facet normal 0.0000 0.0000 -1.0000
  outer loop
    vertex 5.5388 8.2894 0.0000
    vertex 6.5054 6.5054 0.0000
    vertex 4.1719 4.1719 0.0000
  endloop
endfacet
facet normal 0.0000 0.0000 0.0000
  outer loop
    vertex 5.5388 8.2894 0.0000
    vertex 4.1719 4.1719 0.0000
    vertex 4.1719 4.1719 0.0000
  endloop
endfacet
facet normal 0.0000 0.0000 -1.0000
  outer loop
    vertex 3.5655 8.6079 0.0000
    vertex 5.5388 8.2894 0.0000
    vertex 4.1719 4.1719 0.0000
  endloop
endfacet
facet normal 0.0000 0.0000 -1.0000
  outer loop
    vertex 3.5655 8.6079 0.0000
    vertex 4.1719 4.1719 0.0000
    vertex 2.9500 5.1095 0.0000
  endloop
endfacet
facet normal 0.0000 0.0000 -1.0000
  outer loop
    vertex 1.9027 9.5657 0.0000
    vertex 3.5655 8.6079 0.0000
    vertex 2.9500 5.1095 0.0000
  endloop
endfacet
facet normal 0.0000 0.0000 -1.0000
  outer loop
    vertex 1.9027 9.5657 0.0000
    vertex 2.9500 5.1095 0.0000
    vertex 1.5270 5.6990 0.0000
  endloop
endfacet
facet normal 0.0000 0.0000 -1.0000
  outer loop
    vertex 0.0000 9.6000 0.0000
    vertex 1.9027 9.5657 0.0000
    vertex 1.5270 5.6990 0.0000
  endloop
endfacet
facet normal 0.0000 0.0000 -1.0000
  outer loop
    vertex 0.0000 9.6000 0.0000
    vertex 1.5270 5.6990 0.0000
    vertex 0.0000 5.9000 0.0000
  endloop
endfacet
facet normal 0.0000 0.0000 -1.0000
  outer loop
    vertex -1.8430 9.2654 0.0000
    vertex 0.0000 9.6000 0.0000
    vertex 0.0000 5.9000 0.0000
  endloop
endfacet
facet normal 0.0000 0.0000 0.0000
  outer loop
    vertex -1.8430 9.2654 0.0000
    vertex 0.0000 5.9000 0.0000
    vertex 0.0000 5.9000 0.0000
  endloop
endfacet
facet normal 0.0000 0.0000 -1.0000
  outer loop
    vertex -3.7820 9.1306 0.0000
    vertex -1.8430 9.2654 0.0000
    vertex 0.0000 5.9000 0.0000
  endloop
endfacet
facet normal 0.0000 0.0000 -1.0000
  outer loop
    vertex -3.7820 9.1306 0.0000
    vertex 0.0000 5.9000 0.0000
    vertex -1.5270 5.6990 0.0000
  endloop
endfacet
facet normal 0.0000 0.0000 -1.0000
  outer loop
    vertex -5.1282 7.6748 0.0000
    vertex -3.7820 9.1306 0.0000
    vertex -1.5270 5.6990 0.0000
  endloop
endfacet
facet normal 0.0000 0.0000 -1.0000
  outer loop
    vertex -5.1282 7.6748 0.0000
    vertex -1.5270 5.6990 0.0000
    vertex -2.9500 5.1095 0.0000
  endloop
endfacet
facet normal 0.0000 0.0000 -1.0000
  outer loop
    vertex -7.0711 7.0711 0.0000
    vertex -5.1282 7.6748 0.0000
    vertex -2.9500 5.1095 0.0000
  endloop
endfacet
facet normal 0.0000 0.0000 -1.0000
  outer loop
    vertex -7.0711 7.0711 0.0000
    vertex -2.9500 5.1095 0.0000
    vertex -4.1719 4.1719 0.0000
  endloop
endfacet
facet normal 0.0000 0.0000 -1.0000
  outer loop
    vertex -7.6748 5.1282 0.0000
    vertex -7.0711 7.0711 0.0000
    vertex -4.1719 4.1719 0.0000
  endloop
endfacet
facet normal 0.0000 0.0000 0.0000
  outer loop
    vertex -7.6748 5.1282 0.0000
    vertex -4.1719 4.1719 0.0000
    vertex -4.1719 4.1719 0.0000
  endloop
endfacet
facet normal 0.0000 0.0000 -1.0000
  outer loop
    vertex -9.1306 3.7820 0.0000
    vertex -7.6748 5.1282 0.0000
    vertex -4.1719 4.1719 0.0000
  endloop
endfacet
facet normal 0.0000 0.0000 -1.0000
  outer loop
    vertex -9.1306 3.7820 0.0000
    vertex -4.1719 4.1719 0.0000
    vertex -5.1095 2.9500 0.0000
  endloop
endfacet
facet normal 0.0000 0.0000 -1.0000
  outer loop
    vertex -9.2654 1.8430 0.0000
    vertex -9.1306 3.7820 0.0000
    vertex -5.1095 2.9500 0.0000
  endloop
endfacet
facet normal 0.0000 0.0000 -1.0000
  outer loop
    vertex -9.2654 1.8430 0.0000
    vertex -5.1095 2.9500 0.0000
    vertex -5.6990 1.5270 0.0000
  endloop
endfacet
facet normal 0.0000 0.0000 -1.0000
  outer loop
    vertex -9.6000 0.0000 0.0000
    vertex -9.2654 1.8430 0.0000
    vertex -5.6990 1.5270 0.0000
  endloop
endfacet
facet normal 0.0000 0.0000 -1.0000
  outer loop
    vertex -9.6000 0.0000 0.0000
    vertex -5.6990 1.5270 0.0000
    vertex -5.9000 0.0000 0.0000
  endloop
endfacet
facet normal 0.0000 0.0000 -1.0000
  outer loop
    vertex -9.5657 -1.9027 0.0000
    vertex -9.6000 0.0000 0.0000
    vertex -5.9000 0.0000 0.0000
  endloop
endfacet
facet normal 0.0000 0.0000 0.0000
  outer loop
    vertex -9.5657 -1.9027 0.0000
    vertex -5.9000 0.0000 0.0000
    vertex -5.9000 0.0000 0.0000
  endloop
endfacet
facet normal 0.0000 0.0000 -1.0000
  outer loop
    vertex -8.6079 -3.5655 0.0000
    vertex -9.5657 -1.9027 0.0000
    vertex -5.9000 0.0000 0.0000
  endloop
endfacet
facet normal 0.0000 0.0000 -1.0000
  outer loop
    vertex -8.6079 -3.5655 0.0000
    vertex -5.9000 0.0000 0.0000
    vertex -5.6990 -1.5270 0.0000
  endloop
endfacet
facet normal 0.0000 0.0000 -1.0000
  outer loop
    vertex -8.2894 -5.5388 0.0000
    vertex -8.6079 -3.5655 0.0000
    vertex -5.6990 -1.5270 0.0000
  endloop
endfacet
facet normal 0.0000 0.0000 -1.0000
  outer loop
    vertex -8.2894 -5.5388 0.0000
    vertex -5.6990 -1.5270 0.0000
    vertex -5.1095 -2.9500 0.0000
  endloop
endfacet
facet normal 0.0000 0.0000 -1.0000
  outer loop
    vertex -6.5054 -6.5054 0.0000
    vertex -8.2894 -5.5388 0.0000
    vertex -5.1095 -2.9500 0.0000
  endloop
endfacet
facet normal 0.0000 0.0000 -1.0000
  outer loop
    vertex -6.5054 -6.5054 0.0000
    vertex -5.1095 -2.9500 0.0000
    vertex -4.1719 -4.1719 0.0000
  endloop
endfacet
facet normal 0.0000 0.0000 -1.0000
  outer loop
    vertex -5.5388 -8.2894 0.0000
    vertex -6.5054 -6.5054 0.0000
    vertex -4.1719 -4.1719 0.0000
  endloop
endfacet
facet normal 0.0000 0.0000 0.0000
  outer loop
    vertex -5.5388 -8.2894 0.0000
    vertex -4.1719 -4.1719 0.0000
    vertex -4.1719 -4.1719 0.0000
  endloop
endfacet
facet normal 0.0000 0.0000 -1.0000
  outer loop
    vertex -3.5655 -8.6079 0.0000
    vertex -5.5388 -8.2894 0.0000
    vertex -4.1719 -4.1719 0.0000
  endloop
endfacet
facet normal 0.0000 0.0000 -1.0000
  outer loop
    vertex -3.5655 -8.6079 0.0000
    vertex -4.1719 -4.1719 0.0000
    vertex -2.9500 -5.1095 0.0000
  endloop
endfacet
facet normal 0.0000 0.0000 -1.0000
  outer loop
    vertex -1.9027 -9.5657 0.0000
    vertex -3.5655 -8.6079 0.0000
    vertex -2.9500 -5.1095 0.0000
  endloop
endfacet
facet normal 0.0000 0.0000 -1.0000
  outer loop
    vertex -1.9027 -9.5657 0.0000
    vertex -2.9500 -5.1095 0.0000
    vertex -1.5270 -5.6990 0.0000
  endloop
endfacet
facet normal 0.0000 0.0000 -1.0000
  outer loop
    vertex -0.0000 -9.6000 0.0000
    vertex -1.9027 -9.5657 0.0000
    vertex -1.5270 -5.6990 0.0000
  endloop
endfacet
facet normal 0.0000 0.0000 -1.0000
  outer loop
    vertex -0.0000 -9.6000 0.0000
    vertex -1.5270 -5.6990 0.0000
    vertex -0.0000 -5.9000 0.0000
  endloop
endfacet
facet normal 0.0000 0.0000 -1.0000
  outer loop
    vertex 1.8430 -9.2654 0.0000
    vertex -0.0000 -9.6000 0.0000
    vertex -0.0000 -5.9000 0.0000
  endloop
endfacet
facet normal 0.0000 0.0000 0.0000
  outer loop
    vertex 1.8430 -9.2654 0.0000
    vertex -0.0000 -5.9000 0.0000
    vertex -0.0000 -5.9000 0.0000
  endloop
endfacet
facet normal 0.0000 0.0000 -1.0000
  outer loop
    vertex 3.7820 -9.1306 0.0000
    vertex 1.8430 -9.2654 0.0000
    vertex -0.0000 -5.9000 0.0000
  endloop
endfacet
facet normal 0.0000 0.0000 -1.0000
  outer loop
    vertex 3.7820 -9.1306 0.0000
    vertex -0.0000 -5.9000 0.0000
    vertex 1.5270 -5.6990 0.0000
  endloop
endfacet
facet normal 0.0000 0.0000 -1.0000
  outer loop
    vertex 5.1282 -7.6748 0.0000
    vertex 3.7820 -9.1306 0.0000
    vertex 1.5270 -5.6990 0.0000
  endloop
endfacet
facet normal 0.0000 0.0000 -1.0000
  outer loop
    vertex 5.1282 -7.6748 0.0000
    vertex 1.5270 -5.6990 0.0000
    vertex 2.9500 -5.1095 0.0000
  endloop
endfacet
facet normal 0.0000 0.0000 -1.0000
  outer loop
    vertex 7.0711 -7.0711 0.0000
    vertex 5.1282 -7.6748 0.0000
    vertex 2.9500 -5.1095 0.0000
  endloop
endfacet
facet normal 0.0000 0.0000 -1.0000
  outer loop
    vertex 7.0711 -7.0711 0.0000
    vertex 2.9500 -5.1095 0.0000
    vertex 4.1719 -4.1719 0.0000
  endloop
endfacet
facet normal 0.0000 0.0000 -1.0000
  outer loop
    vertex 7.6748 -5.1282 0.0000
    vertex 7.0711 -7.0711 0.0000
    vertex 4.1719 -4.1719 0.0000
  endloop
endfacet
facet normal 0.0000 0.0000 0.0000
  outer loop
    vertex 7.6748 -5.1282 0.0000
    vertex 4.1719 -4.1719 0.0000
    vertex 4.1719 -4.1719 0.0000
  endloop
endfacet
facet normal 0.0000 0.0000 -1.0000
  outer loop
    vertex 9.1306 -3.7820 0.0000
    vertex 7.6748 -5.1282 0.0000
    vertex 4.1719 -4.1719 0.0000
  endloop
endfacet
facet normal 0.0000 0.0000 -1.0000
  outer loop
    vertex 9.1306 -3.7820 0.0000
    vertex 4.1719 -4.1719 0.0000
    vertex 5.1095 -2.9500 0.0000
  endloop
endfacet
facet normal 0.0000 0.0000 -1.0000
  outer loop
    vertex 9.2654 -1.8430 0.0000
    vertex 9.1306 -3.7820 0.0000
    vertex 5.1095 -2.9500 0.0000
  endloop
endfacet
facet normal 0.0000 0.0000 -1.0000
  outer loop
    vertex 9.2654 -1.8430 0.0000
    vertex 5.1095 -2.9500 0.0000
    vertex 5.6990 -1.5270 0.0000
  endloop
endfacet
facet normal 0.0000 0.0000 -1.0000
  outer loop
    vertex 9.6000 0.0000 0.0000
    vertex 9.2654 -1.8430 0.0000
    vertex 5.6990 -1.5270 0.0000
  endloop
endfacet
facet normal 0.0000 0.0000 -1.0000
  outer loop
    vertex 9.6000 0.0000 0.0000
    vertex 5.6990 -1.5270 0.0000
    vertex 5.9000 0.0000 0.0000
  endloop
endfacet
endsolid shruthi_xt_slipon
